999
% GNUPLOT: dxf file for AutoCad
  0
SECTION
  2
HEADER
  9
$EXTMIN
 10
0.000
 20
0.000
  9
$EXTMAX
 10
120.000
 20
80.000
  9
$LIMMIN
 10
0.000
 20
0.000
  9
$LIMMAX
 10
120.000
 20
80.000
  9
$TEXTSTYLE
  7
STANDARD
  9
$TEXTSIZE
 40
1.456 
  9
$PLINEWID
 40
0.0351
  9
$LTSCALE
  40
1.000 
  9
$COORDS
 70
  1
  9
$CELTYPE
 6
BYLAYER
  9
$CLAYER
  8
0
  9
$CECOLOR
 62
   7
  9
$MENU
  1
acad
  0
ENDSEC
  0
SECTION
  2
TABLES
0
TABLE
  2
LTYPE
 70
    7
0
LTYPE
  2
CONTINUOUS
 70
    64
  3
Solid line
 72
    65
 73
      0
 40
0.0
  0
LTYPE
  2
DASHED
 70
    64
  3
__ __ __ __ __ __ __ __ __ __ __ __ __ __ __
 72
    65
 73
     2
 40
0.75
 49
0.5
 49
-0.25
  0
LTYPE
  2
HIDDEN
 70
    64
  3
_ _ _ _ _ _ _ _ _ _ _ _ _ _ _ _ _ _ _ _ _ _ _
 72
    65
 73
     2
 40
0.375
 49
0.25
 49
-0.125
  0
LTYPE
  2
CENTER
 70
    64
  3
____ _ ____ _ ____ _ ____ _ ____ _ ____ _ ____
 72
    65
 73
     4
 40
2.0
 49
1.25
 49
-0.25
 49
0.25
 49
-0.25
  0
LTYPE
  2
PHANTOM
 70
    64
  3
_____ _ _ _____ _ _ _____ _ _ _____ _ _ ____
 72
    65
 73
     6
 40
2.5
 49
1.25
 49
-0.25
 49
0.25
 49
-0.25
 49
0.25
 49
-0.25
  0
LTYPE
  2
DOT
 70
    64
  3
...............................................
 72
    65
 73
     2
 40
0.25
 49
0.0
 49
-0.25
  0
LTYPE
  2
DASHDOT
 70
    64
  3
__ . __ . __ . __ . __ . __ . __ . __ . __ . __
 72
    65
 73
     4
 40
1.0
 49
0.5
 49
-0.25
 49
0.0
 49
-0.25
  0
ENDTAB
  0
TABLE
  2
LAYER
 70
   7
  0
LAYER
  2
0
 70
   64
62
   7
  6
CONTINUOUS
  0
LAYER
  2
1
 70
   64
62
   1
  6
DASHED
  0
LAYER
  2
2
 70
   64
62
   2
  6
HIDDEN
  0
LAYER
  2
3
 70
   64
62
   3
  6
CENTER
  0
LAYER
  2
4
 70
   64
62
   4
  6
PHANTOM
  0
LAYER
  2
5
 70
   64
62
   5
  6
DOT
  0
LAYER
  2
6
 70
   64
62
   6
  6
DASHDOT
  0
ENDTAB
0
ENDSEC
  0
SECTION
  2
BLOCKS
  0
ENDSEC
  0
SECTION
  2
ENTITIES
  0
POLYLINE
  8
2
 66
   1
  6
HIDDEN
  0
VERTEX
  8
2
  6
HIDDEN
 10
11.433
 20
6.200 
 30
0.000
  0
VERTEX
  8
2
  6
HIDDEN
  10
12.633
  20
6.200 
  30
0.000
  0
SEQEND
  0
POLYLINE
  8
2
 66
   1
  6
HIDDEN
  0
VERTEX
  8
2
  6
HIDDEN
 10
115.633
 20
6.200 
 30
0.000
  0
VERTEX
  8
2
  6
HIDDEN
  10
114.433
  20
6.200 
  30
0.000
  0
SEQEND
  0
TEXT
  8
0
 10
8.591 
 20
5.680 
 30
0.000
 40
1.456 
  1
0
 50
0.000 
  7
STANDARD
 72
2
 11
9.767 
 21
5.680 
 31
0.000
  0
POLYLINE
  8
2
 66
   1
  6
HIDDEN
  0
VERTEX
  8
2
  6
HIDDEN
 10
11.433
 20
14.033
 30
0.000
  0
VERTEX
  8
2
  6
HIDDEN
  10
12.633
  20
14.033
  30
0.000
  0
SEQEND
  0
POLYLINE
  8
2
 66
   1
  6
HIDDEN
  0
VERTEX
  8
2
  6
HIDDEN
 10
115.633
 20
14.033
 30
0.000
  0
VERTEX
  8
2
  6
HIDDEN
  10
114.433
  20
14.033
  30
0.000
  0
SEQEND
  0
TEXT
  8
0
 10
7.415 
 20
13.513
 30
0.000
 40
1.456 
  1
50
 50
0.000 
  7
STANDARD
 72
2
 11
9.767 
 21
13.513
 31
0.000
  0
POLYLINE
  8
2
 66
   1
  6
HIDDEN
  0
VERTEX
  8
2
  6
HIDDEN
 10
11.433
 20
21.867
 30
0.000
  0
VERTEX
  8
2
  6
HIDDEN
  10
12.633
  20
21.867
  30
0.000
  0
SEQEND
  0
POLYLINE
  8
2
 66
   1
  6
HIDDEN
  0
VERTEX
  8
2
  6
HIDDEN
 10
115.633
 20
21.867
 30
0.000
  0
VERTEX
  8
2
  6
HIDDEN
  10
114.433
  20
21.867
  30
0.000
  0
SEQEND
  0
TEXT
  8
0
 10
6.239 
 20
21.347
 30
0.000
 40
1.456 
  1
100
 50
0.000 
  7
STANDARD
 72
2
 11
9.767 
 21
21.347
 31
0.000
  0
POLYLINE
  8
2
 66
   1
  6
HIDDEN
  0
VERTEX
  8
2
  6
HIDDEN
 10
11.433
 20
29.683
 30
0.000
  0
VERTEX
  8
2
  6
HIDDEN
  10
12.633
  20
29.683
  30
0.000
  0
SEQEND
  0
POLYLINE
  8
2
 66
   1
  6
HIDDEN
  0
VERTEX
  8
2
  6
HIDDEN
 10
115.633
 20
29.683
 30
0.000
  0
VERTEX
  8
2
  6
HIDDEN
  10
114.433
  20
29.683
  30
0.000
  0
SEQEND
  0
TEXT
  8
0
 10
6.239 
 20
29.163
 30
0.000
 40
1.456 
  1
150
 50
0.000 
  7
STANDARD
 72
2
 11
9.767 
 21
29.163
 31
0.000
  0
POLYLINE
  8
2
 66
   1
  6
HIDDEN
  0
VERTEX
  8
2
  6
HIDDEN
 10
11.433
 20
37.517
 30
0.000
  0
VERTEX
  8
2
  6
HIDDEN
  10
12.633
  20
37.517
  30
0.000
  0
SEQEND
  0
POLYLINE
  8
2
 66
   1
  6
HIDDEN
  0
VERTEX
  8
2
  6
HIDDEN
 10
115.633
 20
37.517
 30
0.000
  0
VERTEX
  8
2
  6
HIDDEN
  10
114.433
  20
37.517
  30
0.000
  0
SEQEND
  0
TEXT
  8
0
 10
6.239 
 20
36.997
 30
0.000
 40
1.456 
  1
200
 50
0.000 
  7
STANDARD
 72
2
 11
9.767 
 21
36.997
 31
0.000
  0
POLYLINE
  8
2
 66
   1
  6
HIDDEN
  0
VERTEX
  8
2
  6
HIDDEN
 10
11.433
 20
45.350
 30
0.000
  0
VERTEX
  8
2
  6
HIDDEN
  10
12.633
  20
45.350
  30
0.000
  0
SEQEND
  0
POLYLINE
  8
2
 66
   1
  6
HIDDEN
  0
VERTEX
  8
2
  6
HIDDEN
 10
115.633
 20
45.350
 30
0.000
  0
VERTEX
  8
2
  6
HIDDEN
  10
114.433
  20
45.350
  30
0.000
  0
SEQEND
  0
TEXT
  8
0
 10
6.239 
 20
44.830
 30
0.000
 40
1.456 
  1
250
 50
0.000 
  7
STANDARD
 72
2
 11
9.767 
 21
44.830
 31
0.000
  0
POLYLINE
  8
2
 66
   1
  6
HIDDEN
  0
VERTEX
  8
2
  6
HIDDEN
 10
11.433
 20
53.183
 30
0.000
  0
VERTEX
  8
2
  6
HIDDEN
  10
12.633
  20
53.183
  30
0.000
  0
SEQEND
  0
POLYLINE
  8
2
 66
   1
  6
HIDDEN
  0
VERTEX
  8
2
  6
HIDDEN
 10
115.633
 20
53.183
 30
0.000
  0
VERTEX
  8
2
  6
HIDDEN
  10
114.433
  20
53.183
  30
0.000
  0
SEQEND
  0
TEXT
  8
0
 10
6.239 
 20
52.663
 30
0.000
 40
1.456 
  1
300
 50
0.000 
  7
STANDARD
 72
2
 11
9.767 
 21
52.663
 31
0.000
  0
POLYLINE
  8
2
 66
   1
  6
HIDDEN
  0
VERTEX
  8
2
  6
HIDDEN
 10
11.433
 20
61.000
 30
0.000
  0
VERTEX
  8
2
  6
HIDDEN
  10
12.633
  20
61.000
  30
0.000
  0
SEQEND
  0
POLYLINE
  8
2
 66
   1
  6
HIDDEN
  0
VERTEX
  8
2
  6
HIDDEN
 10
115.633
 20
61.000
 30
0.000
  0
VERTEX
  8
2
  6
HIDDEN
  10
114.433
  20
61.000
  30
0.000
  0
SEQEND
  0
TEXT
  8
0
 10
6.239 
 20
60.480
 30
0.000
 40
1.456 
  1
350
 50
0.000 
  7
STANDARD
 72
2
 11
9.767 
 21
60.480
 31
0.000
  0
POLYLINE
  8
2
 66
   1
  6
HIDDEN
  0
VERTEX
  8
2
  6
HIDDEN
 10
11.433
 20
68.833
 30
0.000
  0
VERTEX
  8
2
  6
HIDDEN
  10
12.633
  20
68.833
  30
0.000
  0
SEQEND
  0
POLYLINE
  8
2
 66
   1
  6
HIDDEN
  0
VERTEX
  8
2
  6
HIDDEN
 10
115.633
 20
68.833
 30
0.000
  0
VERTEX
  8
2
  6
HIDDEN
  10
114.433
  20
68.833
  30
0.000
  0
SEQEND
  0
TEXT
  8
0
 10
6.239 
 20
68.313
 30
0.000
 40
1.456 
  1
400
 50
0.000 
  7
STANDARD
 72
2
 11
9.767 
 21
68.313
 31
0.000
  0
POLYLINE
  8
2
 66
   1
  6
HIDDEN
  0
VERTEX
  8
2
  6
HIDDEN
 10
11.433
 20
76.667
 30
0.000
  0
VERTEX
  8
2
  6
HIDDEN
  10
12.633
  20
76.667
  30
0.000
  0
SEQEND
  0
POLYLINE
  8
2
 66
   1
  6
HIDDEN
  0
VERTEX
  8
2
  6
HIDDEN
 10
115.633
 20
76.667
 30
0.000
  0
VERTEX
  8
2
  6
HIDDEN
  10
114.433
  20
76.667
  30
0.000
  0
SEQEND
  0
TEXT
  8
0
 10
6.239 
 20
76.147
 30
0.000
 40
1.456 
  1
450
 50
0.000 
  7
STANDARD
 72
2
 11
9.767 
 21
76.147
 31
0.000
  0
POLYLINE
  8
2
 66
   1
  6
HIDDEN
  0
VERTEX
  8
2
  6
HIDDEN
 10
11.433
 20
6.200 
 30
0.000
  0
VERTEX
  8
2
  6
HIDDEN
  10
11.433
  20
7.000 
  30
0.000
  0
SEQEND
  0
POLYLINE
  8
2
 66
   1
  6
HIDDEN
  0
VERTEX
  8
2
  6
HIDDEN
 10
11.433
 20
76.667
 30
0.000
  0
VERTEX
  8
2
  6
HIDDEN
  10
11.433
  20
75.867
  30
0.000
  0
SEQEND
  0
TEXT
  8
0
 10
10.845
 20
3.613 
 30
0.000
 40
1.456 
  1
0
 50
0.000 
  7
STANDARD
 72
1
 11
11.433
 21
3.613 
 31
0.000
  0
POLYLINE
  8
2
 66
   1
  6
HIDDEN
  0
VERTEX
  8
2
  6
HIDDEN
 10
37.483
 20
6.200 
 30
0.000
  0
VERTEX
  8
2
  6
HIDDEN
  10
37.483
  20
7.000 
  30
0.000
  0
SEQEND
  0
POLYLINE
  8
2
 66
   1
  6
HIDDEN
  0
VERTEX
  8
2
  6
HIDDEN
 10
37.483
 20
76.667
 30
0.000
  0
VERTEX
  8
2
  6
HIDDEN
  10
37.483
  20
75.867
  30
0.000
  0
SEQEND
  0
TEXT
  8
0
 10
36.895
 20
3.613 
 30
0.000
 40
1.456 
  1
5
 50
0.000 
  7
STANDARD
 72
1
 11
37.483
 21
3.613 
 31
0.000
  0
POLYLINE
  8
2
 66
   1
  6
HIDDEN
  0
VERTEX
  8
2
  6
HIDDEN
 10
63.533
 20
6.200 
 30
0.000
  0
VERTEX
  8
2
  6
HIDDEN
  10
63.533
  20
7.000 
  30
0.000
  0
SEQEND
  0
POLYLINE
  8
2
 66
   1
  6
HIDDEN
  0
VERTEX
  8
2
  6
HIDDEN
 10
63.533
 20
76.667
 30
0.000
  0
VERTEX
  8
2
  6
HIDDEN
  10
63.533
  20
75.867
  30
0.000
  0
SEQEND
  0
TEXT
  8
0
 10
62.357
 20
3.613 
 30
0.000
 40
1.456 
  1
10
 50
0.000 
  7
STANDARD
 72
1
 11
63.533
 21
3.613 
 31
0.000
  0
POLYLINE
  8
2
 66
   1
  6
HIDDEN
  0
VERTEX
  8
2
  6
HIDDEN
 10
89.583
 20
6.200 
 30
0.000
  0
VERTEX
  8
2
  6
HIDDEN
  10
89.583
  20
7.000 
  30
0.000
  0
SEQEND
  0
POLYLINE
  8
2
 66
   1
  6
HIDDEN
  0
VERTEX
  8
2
  6
HIDDEN
 10
89.583
 20
76.667
 30
0.000
  0
VERTEX
  8
2
  6
HIDDEN
  10
89.583
  20
75.867
  30
0.000
  0
SEQEND
  0
TEXT
  8
0
 10
88.407
 20
3.613 
 30
0.000
 40
1.456 
  1
15
 50
0.000 
  7
STANDARD
 72
1
 11
89.583
 21
3.613 
 31
0.000
  0
POLYLINE
  8
2
 66
   1
  6
HIDDEN
  0
VERTEX
  8
2
  6
HIDDEN
 10
115.633
 20
6.200 
 30
0.000
  0
VERTEX
  8
2
  6
HIDDEN
  10
115.633
  20
7.000 
  30
0.000
  0
SEQEND
  0
POLYLINE
  8
2
 66
   1
  6
HIDDEN
  0
VERTEX
  8
2
  6
HIDDEN
 10
115.633
 20
76.667
 30
0.000
  0
VERTEX
  8
2
  6
HIDDEN
  10
115.633
  20
75.867
  30
0.000
  0
SEQEND
  0
TEXT
  8
0
 10
114.457
 20
3.613 
 30
0.000
 40
1.456 
  1
20
 50
0.000 
  7
STANDARD
 72
1
 11
115.633
 21
3.613 
 31
0.000
  0
POLYLINE
  8
1
 66
   1
  6
DASHED
  0
VERTEX
  8
1
  6
DASHED
 10
11.433
 20
6.200 
 30
0.000
  0
VERTEX
  8
1
  6
DASHED
  10
115.633
  20
6.200 
  30
0.000
  0
SEQEND
  0
POLYLINE
  8
1
 66
   1
  6
DASHED
  0
VERTEX
  8
1
  6
DASHED
 10
11.433
 20
6.200 
 30
0.000
  0
VERTEX
  8
1
  6
DASHED
  10
11.433
  20
76.667
  30
0.000
  0
SEQEND
  0
POLYLINE
  8
2
 66
   1
  6
HIDDEN
  0
VERTEX
  8
2
  6
HIDDEN
 10
11.433
 20
6.200 
 30
0.000
  0
VERTEX
  8
2
  6
HIDDEN
  10
115.633
  20
6.200 
  30
0.000
  0
VERTEX
  8
2
  6
HIDDEN
  10
115.633
  20
76.667
  30
0.000
  0
VERTEX
  8
2
  6
HIDDEN
  10
11.433
  20
76.667
  30
0.000
  0
VERTEX
  8
2
  6
HIDDEN
  10
11.433
  20
6.200 
  30
0.000
  0
SEQEND
  0
TEXT
  8
0
 10
2.587 
 20
24.969
 30
0.000
 40
1.456 
  1
cumulative hysteretic energy
 50
90.000
  7
STANDARD
 72
1
 11
2.587 
 21
41.433
 31
0.000
  0
TEXT
  8
0
 10
57.653
 20
0.513 
 30
0.000
 40
1.456 
  1
time (sec)
 50
0.000 
  7
STANDARD
 72
1
 11
63.533
 21
0.513 
 31
0.000
  0
TEXT
  8
0
 10
92.183
 20
9.580 
 30
0.000
 40
1.456 
  1
1st story
 50
0.000 
  7
STANDARD
 72
2
 11
102.767
 21
9.580 
 31
0.000
  0
POLYLINE
  8
0
 66
   1
  6
CONTINUOUS
  0
VERTEX
  8
0
  6
CONTINUOUS
 10
104.433
 20
10.100
 30
0.000
  0
VERTEX
  8
0
  6
CONTINUOUS
  10
112.300
  20
10.100
  30
0.000
  0
SEQEND
  0
POLYLINE
  8
0
 66
   1
  6
CONTINUOUS
  0
VERTEX
  8
0
  6
CONTINUOUS
 10
11.533
 20
6.200 
 30
0.000
  0
VERTEX
  8
0
  6
CONTINUOUS
  10
11.533
  20
6.200 
  30
0.000
  0
VERTEX
  8
0
  6
CONTINUOUS
  10
11.650
  20
6.200 
  30
0.000
  0
VERTEX
  8
0
  6
CONTINUOUS
  10
11.750
  20
6.200 
  30
0.000
  0
VERTEX
  8
0
  6
CONTINUOUS
  10
11.850
  20
6.200 
  30
0.000
  0
VERTEX
  8
0
  6
CONTINUOUS
  10
11.950
  20
6.200 
  30
0.000
  0
VERTEX
  8
0
  6
CONTINUOUS
  10
12.067
  20
6.200 
  30
0.000
  0
VERTEX
  8
0
  6
CONTINUOUS
  10
12.167
  20
6.200 
  30
0.000
  0
VERTEX
  8
0
  6
CONTINUOUS
  10
12.267
  20
6.200 
  30
0.000
  0
VERTEX
  8
0
  6
CONTINUOUS
  10
12.367
  20
6.200 
  30
0.000
  0
VERTEX
  8
0
  6
CONTINUOUS
  10
12.483
  20
6.200 
  30
0.000
  0
VERTEX
  8
0
  6
CONTINUOUS
  10
12.583
  20
6.200 
  30
0.000
  0
VERTEX
  8
0
  6
CONTINUOUS
  10
12.683
  20
6.200 
  30
0.000
  0
VERTEX
  8
0
  6
CONTINUOUS
  10
12.783
  20
6.200 
  30
0.000
  0
VERTEX
  8
0
  6
CONTINUOUS
  10
12.900
  20
6.200 
  30
0.000
  0
VERTEX
  8
0
  6
CONTINUOUS
  10
13.000
  20
6.200 
  30
0.000
  0
VERTEX
  8
0
  6
CONTINUOUS
  10
13.100
  20
6.200 
  30
0.000
  0
VERTEX
  8
0
  6
CONTINUOUS
  10
13.200
  20
6.200 
  30
0.000
  0
VERTEX
  8
0
  6
CONTINUOUS
  10
13.317
  20
6.200 
  30
0.000
  0
VERTEX
  8
0
  6
CONTINUOUS
  10
13.417
  20
6.200 
  30
0.000
  0
VERTEX
  8
0
  6
CONTINUOUS
  10
13.517
  20
6.200 
  30
0.000
  0
VERTEX
  8
0
  6
CONTINUOUS
  10
13.617
  20
6.200 
  30
0.000
  0
VERTEX
  8
0
  6
CONTINUOUS
  10
13.733
  20
6.200 
  30
0.000
  0
VERTEX
  8
0
  6
CONTINUOUS
  10
13.833
  20
6.200 
  30
0.000
  0
VERTEX
  8
0
  6
CONTINUOUS
  10
13.933
  20
6.200 
  30
0.000
  0
VERTEX
  8
0
  6
CONTINUOUS
  10
14.033
  20
6.200 
  30
0.000
  0
VERTEX
  8
0
  6
CONTINUOUS
  10
14.150
  20
6.200 
  30
0.000
  0
VERTEX
  8
0
  6
CONTINUOUS
  10
14.250
  20
6.200 
  30
0.000
  0
VERTEX
  8
0
  6
CONTINUOUS
  10
14.350
  20
6.200 
  30
0.000
  0
VERTEX
  8
0
  6
CONTINUOUS
  10
14.450
  20
6.200 
  30
0.000
  0
VERTEX
  8
0
  6
CONTINUOUS
  10
14.567
  20
6.200 
  30
0.000
  0
VERTEX
  8
0
  6
CONTINUOUS
  10
14.667
  20
6.200 
  30
0.000
  0
VERTEX
  8
0
  6
CONTINUOUS
  10
14.767
  20
6.200 
  30
0.000
  0
VERTEX
  8
0
  6
CONTINUOUS
  10
14.867
  20
6.200 
  30
0.000
  0
VERTEX
  8
0
  6
CONTINUOUS
  10
14.983
  20
6.200 
  30
0.000
  0
VERTEX
  8
0
  6
CONTINUOUS
  10
15.083
  20
6.200 
  30
0.000
  0
VERTEX
  8
0
  6
CONTINUOUS
  10
15.183
  20
6.200 
  30
0.000
  0
VERTEX
  8
0
  6
CONTINUOUS
  10
15.283
  20
6.200 
  30
0.000
  0
VERTEX
  8
0
  6
CONTINUOUS
  10
15.400
  20
6.200 
  30
0.000
  0
VERTEX
  8
0
  6
CONTINUOUS
  10
15.500
  20
6.200 
  30
0.000
  0
VERTEX
  8
0
  6
CONTINUOUS
  10
15.600
  20
6.200 
  30
0.000
  0
VERTEX
  8
0
  6
CONTINUOUS
  10
15.700
  20
6.200 
  30
0.000
  0
VERTEX
  8
0
  6
CONTINUOUS
  10
15.817
  20
6.200 
  30
0.000
  0
VERTEX
  8
0
  6
CONTINUOUS
  10
15.917
  20
6.200 
  30
0.000
  0
VERTEX
  8
0
  6
CONTINUOUS
  10
16.017
  20
6.200 
  30
0.000
  0
VERTEX
  8
0
  6
CONTINUOUS
  10
16.117
  20
6.200 
  30
0.000
  0
VERTEX
  8
0
  6
CONTINUOUS
  10
16.233
  20
6.200 
  30
0.000
  0
VERTEX
  8
0
  6
CONTINUOUS
  10
16.333
  20
6.200 
  30
0.000
  0
VERTEX
  8
0
  6
CONTINUOUS
  10
16.433
  20
6.200 
  30
0.000
  0
VERTEX
  8
0
  6
CONTINUOUS
  10
16.533
  20
6.200 
  30
0.000
  0
VERTEX
  8
0
  6
CONTINUOUS
  10
16.650
  20
6.200 
  30
0.000
  0
VERTEX
  8
0
  6
CONTINUOUS
  10
16.750
  20
6.200 
  30
0.000
  0
VERTEX
  8
0
  6
CONTINUOUS
  10
16.850
  20
6.200 
  30
0.000
  0
VERTEX
  8
0
  6
CONTINUOUS
  10
16.950
  20
6.200 
  30
0.000
  0
VERTEX
  8
0
  6
CONTINUOUS
  10
17.067
  20
6.217 
  30
0.000
  0
VERTEX
  8
0
  6
CONTINUOUS
  10
17.167
  20
6.217 
  30
0.000
  0
VERTEX
  8
0
  6
CONTINUOUS
  10
17.267
  20
6.217 
  30
0.000
  0
VERTEX
  8
0
  6
CONTINUOUS
  10
17.367
  20
6.217 
  30
0.000
  0
VERTEX
  8
0
  6
CONTINUOUS
  10
17.483
  20
6.233 
  30
0.000
  0
VERTEX
  8
0
  6
CONTINUOUS
  10
17.583
  20
6.233 
  30
0.000
  0
VERTEX
  8
0
  6
CONTINUOUS
  10
17.683
  20
6.233 
  30
0.000
  0
VERTEX
  8
0
  6
CONTINUOUS
  10
17.783
  20
6.233 
  30
0.000
  0
VERTEX
  8
0
  6
CONTINUOUS
  10
17.900
  20
6.233 
  30
0.000
  0
VERTEX
  8
0
  6
CONTINUOUS
  10
18.000
  20
6.233 
  30
0.000
  0
VERTEX
  8
0
  6
CONTINUOUS
  10
18.100
  20
6.233 
  30
0.000
  0
VERTEX
  8
0
  6
CONTINUOUS
  10
18.200
  20
6.233 
  30
0.000
  0
VERTEX
  8
0
  6
CONTINUOUS
  10
18.317
  20
6.233 
  30
0.000
  0
VERTEX
  8
0
  6
CONTINUOUS
  10
18.417
  20
6.233 
  30
0.000
  0
VERTEX
  8
0
  6
CONTINUOUS
  10
18.517
  20
6.233 
  30
0.000
  0
VERTEX
  8
0
  6
CONTINUOUS
  10
18.617
  20
6.233 
  30
0.000
  0
VERTEX
  8
0
  6
CONTINUOUS
  10
18.733
  20
6.233 
  30
0.000
  0
VERTEX
  8
0
  6
CONTINUOUS
  10
18.833
  20
6.233 
  30
0.000
  0
VERTEX
  8
0
  6
CONTINUOUS
  10
18.933
  20
6.233 
  30
0.000
  0
VERTEX
  8
0
  6
CONTINUOUS
  10
19.033
  20
6.233 
  30
0.000
  0
VERTEX
  8
0
  6
CONTINUOUS
  10
19.150
  20
6.233 
  30
0.000
  0
VERTEX
  8
0
  6
CONTINUOUS
  10
19.250
  20
6.233 
  30
0.000
  0
VERTEX
  8
0
  6
CONTINUOUS
  10
19.350
  20
6.233 
  30
0.000
  0
VERTEX
  8
0
  6
CONTINUOUS
  10
19.450
  20
6.233 
  30
0.000
  0
VERTEX
  8
0
  6
CONTINUOUS
  10
19.567
  20
6.233 
  30
0.000
  0
VERTEX
  8
0
  6
CONTINUOUS
  10
19.667
  20
6.233 
  30
0.000
  0
VERTEX
  8
0
  6
CONTINUOUS
  10
19.767
  20
6.233 
  30
0.000
  0
VERTEX
  8
0
  6
CONTINUOUS
  10
19.867
  20
6.233 
  30
0.000
  0
VERTEX
  8
0
  6
CONTINUOUS
  10
19.983
  20
6.233 
  30
0.000
  0
VERTEX
  8
0
  6
CONTINUOUS
  10
20.083
  20
6.233 
  30
0.000
  0
VERTEX
  8
0
  6
CONTINUOUS
  10
20.183
  20
6.233 
  30
0.000
  0
VERTEX
  8
0
  6
CONTINUOUS
  10
20.283
  20
6.233 
  30
0.000
  0
VERTEX
  8
0
  6
CONTINUOUS
  10
20.400
  20
6.233 
  30
0.000
  0
VERTEX
  8
0
  6
CONTINUOUS
  10
20.500
  20
6.233 
  30
0.000
  0
VERTEX
  8
0
  6
CONTINUOUS
  10
20.600
  20
6.233 
  30
0.000
  0
VERTEX
  8
0
  6
CONTINUOUS
  10
20.700
  20
6.233 
  30
0.000
  0
VERTEX
  8
0
  6
CONTINUOUS
  10
20.817
  20
6.233 
  30
0.000
  0
VERTEX
  8
0
  6
CONTINUOUS
  10
20.917
  20
6.233 
  30
0.000
  0
VERTEX
  8
0
  6
CONTINUOUS
  10
21.017
  20
6.233 
  30
0.000
  0
VERTEX
  8
0
  6
CONTINUOUS
  10
21.117
  20
6.233 
  30
0.000
  0
VERTEX
  8
0
  6
CONTINUOUS
  10
21.233
  20
6.233 
  30
0.000
  0
VERTEX
  8
0
  6
CONTINUOUS
  10
21.333
  20
6.233 
  30
0.000
  0
VERTEX
  8
0
  6
CONTINUOUS
  10
21.433
  20
6.233 
  30
0.000
  0
VERTEX
  8
0
  6
CONTINUOUS
  10
21.533
  20
6.233 
  30
0.000
  0
VERTEX
  8
0
  6
CONTINUOUS
  10
21.650
  20
6.233 
  30
0.000
  0
VERTEX
  8
0
  6
CONTINUOUS
  10
21.750
  20
6.233 
  30
0.000
  0
VERTEX
  8
0
  6
CONTINUOUS
  10
21.850
  20
6.233 
  30
0.000
  0
VERTEX
  8
0
  6
CONTINUOUS
  10
21.950
  20
6.233 
  30
0.000
  0
VERTEX
  8
0
  6
CONTINUOUS
  10
22.067
  20
6.233 
  30
0.000
  0
VERTEX
  8
0
  6
CONTINUOUS
  10
22.167
  20
6.233 
  30
0.000
  0
VERTEX
  8
0
  6
CONTINUOUS
  10
22.267
  20
6.233 
  30
0.000
  0
VERTEX
  8
0
  6
CONTINUOUS
  10
22.367
  20
6.233 
  30
0.000
  0
VERTEX
  8
0
  6
CONTINUOUS
  10
22.483
  20
6.233 
  30
0.000
  0
VERTEX
  8
0
  6
CONTINUOUS
  10
22.583
  20
6.233 
  30
0.000
  0
VERTEX
  8
0
  6
CONTINUOUS
  10
22.683
  20
6.233 
  30
0.000
  0
VERTEX
  8
0
  6
CONTINUOUS
  10
22.783
  20
6.233 
  30
0.000
  0
VERTEX
  8
0
  6
CONTINUOUS
  10
22.900
  20
6.233 
  30
0.000
  0
VERTEX
  8
0
  6
CONTINUOUS
  10
23.000
  20
6.233 
  30
0.000
  0
VERTEX
  8
0
  6
CONTINUOUS
  10
23.100
  20
6.233 
  30
0.000
  0
VERTEX
  8
0
  6
CONTINUOUS
  10
23.200
  20
6.233 
  30
0.000
  0
VERTEX
  8
0
  6
CONTINUOUS
  10
23.317
  20
6.233 
  30
0.000
  0
VERTEX
  8
0
  6
CONTINUOUS
  10
23.417
  20
6.233 
  30
0.000
  0
VERTEX
  8
0
  6
CONTINUOUS
  10
23.517
  20
6.233 
  30
0.000
  0
VERTEX
  8
0
  6
CONTINUOUS
  10
23.617
  20
6.233 
  30
0.000
  0
VERTEX
  8
0
  6
CONTINUOUS
  10
23.733
  20
6.233 
  30
0.000
  0
VERTEX
  8
0
  6
CONTINUOUS
  10
23.833
  20
6.233 
  30
0.000
  0
VERTEX
  8
0
  6
CONTINUOUS
  10
23.933
  20
6.233 
  30
0.000
  0
VERTEX
  8
0
  6
CONTINUOUS
  10
24.033
  20
6.233 
  30
0.000
  0
VERTEX
  8
0
  6
CONTINUOUS
  10
24.150
  20
6.233 
  30
0.000
  0
VERTEX
  8
0
  6
CONTINUOUS
  10
24.250
  20
6.233 
  30
0.000
  0
VERTEX
  8
0
  6
CONTINUOUS
  10
24.350
  20
6.250 
  30
0.000
  0
VERTEX
  8
0
  6
CONTINUOUS
  10
24.467
  20
6.250 
  30
0.000
  0
VERTEX
  8
0
  6
CONTINUOUS
  10
24.567
  20
6.250 
  30
0.000
  0
VERTEX
  8
0
  6
CONTINUOUS
  10
24.667
  20
6.250 
  30
0.000
  0
VERTEX
  8
0
  6
CONTINUOUS
  10
24.767
  20
6.250 
  30
0.000
  0
VERTEX
  8
0
  6
CONTINUOUS
  10
24.883
  20
6.250 
  30
0.000
  0
VERTEX
  8
0
  6
CONTINUOUS
  10
24.983
  20
6.250 
  30
0.000
  0
VERTEX
  8
0
  6
CONTINUOUS
  10
25.083
  20
6.250 
  30
0.000
  0
VERTEX
  8
0
  6
CONTINUOUS
  10
25.183
  20
6.250 
  30
0.000
  0
VERTEX
  8
0
  6
CONTINUOUS
  10
25.300
  20
6.250 
  30
0.000
  0
VERTEX
  8
0
  6
CONTINUOUS
  10
25.400
  20
6.250 
  30
0.000
  0
VERTEX
  8
0
  6
CONTINUOUS
  10
25.500
  20
6.250 
  30
0.000
  0
VERTEX
  8
0
  6
CONTINUOUS
  10
25.600
  20
6.250 
  30
0.000
  0
VERTEX
  8
0
  6
CONTINUOUS
  10
25.717
  20
6.250 
  30
0.000
  0
VERTEX
  8
0
  6
CONTINUOUS
  10
25.817
  20
6.250 
  30
0.000
  0
VERTEX
  8
0
  6
CONTINUOUS
  10
25.917
  20
6.267 
  30
0.000
  0
VERTEX
  8
0
  6
CONTINUOUS
  10
26.017
  20
6.267 
  30
0.000
  0
VERTEX
  8
0
  6
CONTINUOUS
  10
26.133
  20
6.267 
  30
0.000
  0
VERTEX
  8
0
  6
CONTINUOUS
  10
26.233
  20
6.267 
  30
0.000
  0
VERTEX
  8
0
  6
CONTINUOUS
  10
26.333
  20
6.267 
  30
0.000
  0
VERTEX
  8
0
  6
CONTINUOUS
  10
26.433
  20
6.267 
  30
0.000
  0
VERTEX
  8
0
  6
CONTINUOUS
  10
26.550
  20
6.267 
  30
0.000
  0
VERTEX
  8
0
  6
CONTINUOUS
  10
26.650
  20
6.267 
  30
0.000
  0
VERTEX
  8
0
  6
CONTINUOUS
  10
26.750
  20
6.267 
  30
0.000
  0
VERTEX
  8
0
  6
CONTINUOUS
  10
26.850
  20
6.267 
  30
0.000
  0
VERTEX
  8
0
  6
CONTINUOUS
  10
26.967
  20
6.267 
  30
0.000
  0
VERTEX
  8
0
  6
CONTINUOUS
  10
27.067
  20
6.283 
  30
0.000
  0
VERTEX
  8
0
  6
CONTINUOUS
  10
27.167
  20
6.300 
  30
0.000
  0
VERTEX
  8
0
  6
CONTINUOUS
  10
27.267
  20
6.317 
  30
0.000
  0
VERTEX
  8
0
  6
CONTINUOUS
  10
27.383
  20
6.350 
  30
0.000
  0
VERTEX
  8
0
  6
CONTINUOUS
  10
27.483
  20
6.367 
  30
0.000
  0
VERTEX
  8
0
  6
CONTINUOUS
  10
27.583
  20
6.383 
  30
0.000
  0
VERTEX
  8
0
  6
CONTINUOUS
  10
27.683
  20
6.400 
  30
0.000
  0
VERTEX
  8
0
  6
CONTINUOUS
  10
27.800
  20
6.400 
  30
0.000
  0
VERTEX
  8
0
  6
CONTINUOUS
  10
27.900
  20
6.400 
  30
0.000
  0
VERTEX
  8
0
  6
CONTINUOUS
  10
28.000
  20
6.400 
  30
0.000
  0
VERTEX
  8
0
  6
CONTINUOUS
  10
28.100
  20
6.400 
  30
0.000
  0
VERTEX
  8
0
  6
CONTINUOUS
  10
28.217
  20
6.400 
  30
0.000
  0
VERTEX
  8
0
  6
CONTINUOUS
  10
28.317
  20
6.400 
  30
0.000
  0
VERTEX
  8
0
  6
CONTINUOUS
  10
28.417
  20
6.400 
  30
0.000
  0
VERTEX
  8
0
  6
CONTINUOUS
  10
28.517
  20
6.400 
  30
0.000
  0
VERTEX
  8
0
  6
CONTINUOUS
  10
28.633
  20
6.400 
  30
0.000
  0
VERTEX
  8
0
  6
CONTINUOUS
  10
28.733
  20
6.400 
  30
0.000
  0
VERTEX
  8
0
  6
CONTINUOUS
  10
28.833
  20
6.400 
  30
0.000
  0
VERTEX
  8
0
  6
CONTINUOUS
  10
28.933
  20
6.433 
  30
0.000
  0
VERTEX
  8
0
  6
CONTINUOUS
  10
29.050
  20
6.583 
  30
0.000
  0
VERTEX
  8
0
  6
CONTINUOUS
  10
29.150
  20
6.817 
  30
0.000
  0
VERTEX
  8
0
  6
CONTINUOUS
  10
29.250
  20
7.150 
  30
0.000
  0
VERTEX
  8
0
  6
CONTINUOUS
  10
29.350
  20
7.600 
  30
0.000
  0
VERTEX
  8
0
  6
CONTINUOUS
  10
29.467
  20
8.083 
  30
0.000
  0
VERTEX
  8
0
  6
CONTINUOUS
  10
29.567
  20
8.500 
  30
0.000
  0
VERTEX
  8
0
  6
CONTINUOUS
  10
29.667
  20
8.750 
  30
0.000
  0
VERTEX
  8
0
  6
CONTINUOUS
  10
29.767
  20
8.800 
  30
0.000
  0
VERTEX
  8
0
  6
CONTINUOUS
  10
29.883
  20
8.800 
  30
0.000
  0
VERTEX
  8
0
  6
CONTINUOUS
  10
29.983
  20
8.800 
  30
0.000
  0
VERTEX
  8
0
  6
CONTINUOUS
  10
30.083
  20
8.800 
  30
0.000
  0
VERTEX
  8
0
  6
CONTINUOUS
  10
30.183
  20
8.800 
  30
0.000
  0
VERTEX
  8
0
  6
CONTINUOUS
  10
30.300
  20
8.800 
  30
0.000
  0
VERTEX
  8
0
  6
CONTINUOUS
  10
30.400
  20
8.800 
  30
0.000
  0
VERTEX
  8
0
  6
CONTINUOUS
  10
30.500
  20
8.817 
  30
0.000
  0
VERTEX
  8
0
  6
CONTINUOUS
  10
30.600
  20
10.383
  30
0.000
  0
VERTEX
  8
0
  6
CONTINUOUS
  10
30.717
  20
12.200
  30
0.000
  0
VERTEX
  8
0
  6
CONTINUOUS
  10
30.817
  20
14.067
  30
0.000
  0
VERTEX
  8
0
  6
CONTINUOUS
  10
30.917
  20
15.833
  30
0.000
  0
VERTEX
  8
0
  6
CONTINUOUS
  10
31.017
  20
17.317
  30
0.000
  0
VERTEX
  8
0
  6
CONTINUOUS
  10
31.133
  20
18.467
  30
0.000
  0
VERTEX
  8
0
  6
CONTINUOUS
  10
31.233
  20
19.183
  30
0.000
  0
VERTEX
  8
0
  6
CONTINUOUS
  10
31.333
  20
19.467
  30
0.000
  0
VERTEX
  8
0
  6
CONTINUOUS
  10
31.433
  20
19.467
  30
0.000
  0
VERTEX
  8
0
  6
CONTINUOUS
  10
31.550
  20
19.467
  30
0.000
  0
VERTEX
  8
0
  6
CONTINUOUS
  10
31.650
  20
19.467
  30
0.000
  0
VERTEX
  8
0
  6
CONTINUOUS
  10
31.750
  20
19.467
  30
0.000
  0
VERTEX
  8
0
  6
CONTINUOUS
  10
31.850
  20
19.467
  30
0.000
  0
VERTEX
  8
0
  6
CONTINUOUS
  10
31.967
  20
19.467
  30
0.000
  0
VERTEX
  8
0
  6
CONTINUOUS
  10
32.067
  20
19.467
  30
0.000
  0
VERTEX
  8
0
  6
CONTINUOUS
  10
32.167
  20
19.467
  30
0.000
  0
VERTEX
  8
0
  6
CONTINUOUS
  10
32.267
  20
19.467
  30
0.000
  0
VERTEX
  8
0
  6
CONTINUOUS
  10
32.383
  20
19.467
  30
0.000
  0
VERTEX
  8
0
  6
CONTINUOUS
  10
32.483
  20
19.467
  30
0.000
  0
VERTEX
  8
0
  6
CONTINUOUS
  10
32.583
  20
19.467
  30
0.000
  0
VERTEX
  8
0
  6
CONTINUOUS
  10
32.683
  20
19.467
  30
0.000
  0
VERTEX
  8
0
  6
CONTINUOUS
  10
32.800
  20
19.467
  30
0.000
  0
VERTEX
  8
0
  6
CONTINUOUS
  10
32.900
  20
19.467
  30
0.000
  0
VERTEX
  8
0
  6
CONTINUOUS
  10
33.000
  20
19.467
  30
0.000
  0
VERTEX
  8
0
  6
CONTINUOUS
  10
33.100
  20
19.467
  30
0.000
  0
VERTEX
  8
0
  6
CONTINUOUS
  10
33.217
  20
19.467
  30
0.000
  0
VERTEX
  8
0
  6
CONTINUOUS
  10
33.317
  20
19.467
  30
0.000
  0
VERTEX
  8
0
  6
CONTINUOUS
  10
33.417
  20
19.467
  30
0.000
  0
VERTEX
  8
0
  6
CONTINUOUS
  10
33.517
  20
19.467
  30
0.000
  0
VERTEX
  8
0
  6
CONTINUOUS
  10
33.633
  20
20.000
  30
0.000
  0
VERTEX
  8
0
  6
CONTINUOUS
  10
33.733
  20
21.817
  30
0.000
  0
VERTEX
  8
0
  6
CONTINUOUS
  10
33.833
  20
23.750
  30
0.000
  0
VERTEX
  8
0
  6
CONTINUOUS
  10
33.933
  20
25.767
  30
0.000
  0
VERTEX
  8
0
  6
CONTINUOUS
  10
34.050
  20
27.733
  30
0.000
  0
VERTEX
  8
0
  6
CONTINUOUS
  10
34.150
  20
29.583
  30
0.000
  0
VERTEX
  8
0
  6
CONTINUOUS
  10
34.250
  20
31.167
  30
0.000
  0
VERTEX
  8
0
  6
CONTINUOUS
  10
34.350
  20
32.333
  30
0.000
  0
VERTEX
  8
0
  6
CONTINUOUS
  10
34.467
  20
33.017
  30
0.000
  0
VERTEX
  8
0
  6
CONTINUOUS
  10
34.567
  20
33.183
  30
0.000
  0
VERTEX
  8
0
  6
CONTINUOUS
  10
34.667
  20
33.183
  30
0.000
  0
VERTEX
  8
0
  6
CONTINUOUS
  10
34.767
  20
33.183
  30
0.000
  0
VERTEX
  8
0
  6
CONTINUOUS
  10
34.883
  20
33.183
  30
0.000
  0
VERTEX
  8
0
  6
CONTINUOUS
  10
34.983
  20
33.183
  30
0.000
  0
VERTEX
  8
0
  6
CONTINUOUS
  10
35.083
  20
33.183
  30
0.000
  0
VERTEX
  8
0
  6
CONTINUOUS
  10
35.183
  20
33.183
  30
0.000
  0
VERTEX
  8
0
  6
CONTINUOUS
  10
35.300
  20
33.183
  30
0.000
  0
VERTEX
  8
0
  6
CONTINUOUS
  10
35.400
  20
33.183
  30
0.000
  0
VERTEX
  8
0
  6
CONTINUOUS
  10
35.500
  20
33.183
  30
0.000
  0
VERTEX
  8
0
  6
CONTINUOUS
  10
35.600
  20
33.183
  30
0.000
  0
VERTEX
  8
0
  6
CONTINUOUS
  10
35.717
  20
33.183
  30
0.000
  0
VERTEX
  8
0
  6
CONTINUOUS
  10
35.817
  20
33.183
  30
0.000
  0
VERTEX
  8
0
  6
CONTINUOUS
  10
35.917
  20
33.217
  30
0.000
  0
VERTEX
  8
0
  6
CONTINUOUS
  10
36.017
  20
36.633
  30
0.000
  0
VERTEX
  8
0
  6
CONTINUOUS
  10
36.133
  20
40.133
  30
0.000
  0
VERTEX
  8
0
  6
CONTINUOUS
  10
36.233
  20
43.083
  30
0.000
  0
VERTEX
  8
0
  6
CONTINUOUS
  10
36.333
  20
45.483
  30
0.000
  0
VERTEX
  8
0
  6
CONTINUOUS
  10
36.433
  20
47.333
  30
0.000
  0
VERTEX
  8
0
  6
CONTINUOUS
  10
36.550
  20
48.633
  30
0.000
  0
VERTEX
  8
0
  6
CONTINUOUS
  10
36.650
  20
49.383
  30
0.000
  0
VERTEX
  8
0
  6
CONTINUOUS
  10
36.750
  20
49.633
  30
0.000
  0
VERTEX
  8
0
  6
CONTINUOUS
  10
36.850
  20
49.633
  30
0.000
  0
VERTEX
  8
0
  6
CONTINUOUS
  10
36.967
  20
49.633
  30
0.000
  0
VERTEX
  8
0
  6
CONTINUOUS
  10
37.067
  20
49.633
  30
0.000
  0
VERTEX
  8
0
  6
CONTINUOUS
  10
37.167
  20
49.633
  30
0.000
  0
VERTEX
  8
0
  6
CONTINUOUS
  10
37.267
  20
49.633
  30
0.000
  0
VERTEX
  8
0
  6
CONTINUOUS
  10
37.383
  20
49.633
  30
0.000
  0
VERTEX
  8
0
  6
CONTINUOUS
  10
37.483
  20
49.633
  30
0.000
  0
VERTEX
  8
0
  6
CONTINUOUS
  10
37.583
  20
49.633
  30
0.000
  0
VERTEX
  8
0
  6
CONTINUOUS
  10
37.700
  20
49.633
  30
0.000
  0
VERTEX
  8
0
  6
CONTINUOUS
  10
37.800
  20
49.633
  30
0.000
  0
VERTEX
  8
0
  6
CONTINUOUS
  10
37.900
  20
49.633
  30
0.000
  0
VERTEX
  8
0
  6
CONTINUOUS
  10
38.000
  20
49.633
  30
0.000
  0
VERTEX
  8
0
  6
CONTINUOUS
  10
38.117
  20
49.633
  30
0.000
  0
VERTEX
  8
0
  6
CONTINUOUS
  10
38.217
  20
49.633
  30
0.000
  0
VERTEX
  8
0
  6
CONTINUOUS
  10
38.317
  20
49.633
  30
0.000
  0
VERTEX
  8
0
  6
CONTINUOUS
  10
38.417
  20
49.633
  30
0.000
  0
VERTEX
  8
0
  6
CONTINUOUS
  10
38.533
  20
49.633
  30
0.000
  0
VERTEX
  8
0
  6
CONTINUOUS
  10
38.633
  20
49.633
  30
0.000
  0
VERTEX
  8
0
  6
CONTINUOUS
  10
38.733
  20
49.633
  30
0.000
  0
VERTEX
  8
0
  6
CONTINUOUS
  10
38.833
  20
49.633
  30
0.000
  0
VERTEX
  8
0
  6
CONTINUOUS
  10
38.950
  20
49.633
  30
0.000
  0
VERTEX
  8
0
  6
CONTINUOUS
  10
39.050
  20
49.633
  30
0.000
  0
VERTEX
  8
0
  6
CONTINUOUS
  10
39.150
  20
49.633
  30
0.000
  0
VERTEX
  8
0
  6
CONTINUOUS
  10
39.250
  20
49.633
  30
0.000
  0
VERTEX
  8
0
  6
CONTINUOUS
  10
39.367
  20
49.633
  30
0.000
  0
VERTEX
  8
0
  6
CONTINUOUS
  10
39.467
  20
49.633
  30
0.000
  0
VERTEX
  8
0
  6
CONTINUOUS
  10
39.567
  20
49.633
  30
0.000
  0
VERTEX
  8
0
  6
CONTINUOUS
  10
39.667
  20
49.633
  30
0.000
  0
VERTEX
  8
0
  6
CONTINUOUS
  10
39.783
  20
49.633
  30
0.000
  0
VERTEX
  8
0
  6
CONTINUOUS
  10
39.883
  20
49.633
  30
0.000
  0
VERTEX
  8
0
  6
CONTINUOUS
  10
39.983
  20
49.633
  30
0.000
  0
VERTEX
  8
0
  6
CONTINUOUS
  10
40.083
  20
49.633
  30
0.000
  0
VERTEX
  8
0
  6
CONTINUOUS
  10
40.200
  20
49.633
  30
0.000
  0
VERTEX
  8
0
  6
CONTINUOUS
  10
40.300
  20
49.633
  30
0.000
  0
VERTEX
  8
0
  6
CONTINUOUS
  10
40.400
  20
49.633
  30
0.000
  0
VERTEX
  8
0
  6
CONTINUOUS
  10
40.500
  20
49.633
  30
0.000
  0
VERTEX
  8
0
  6
CONTINUOUS
  10
40.617
  20
49.633
  30
0.000
  0
VERTEX
  8
0
  6
CONTINUOUS
  10
40.717
  20
49.983
  30
0.000
  0
VERTEX
  8
0
  6
CONTINUOUS
  10
40.817
  20
50.533
  30
0.000
  0
VERTEX
  8
0
  6
CONTINUOUS
  10
40.917
  20
51.017
  30
0.000
  0
VERTEX
  8
0
  6
CONTINUOUS
  10
41.033
  20
51.400
  30
0.000
  0
VERTEX
  8
0
  6
CONTINUOUS
  10
41.133
  20
51.683
  30
0.000
  0
VERTEX
  8
0
  6
CONTINUOUS
  10
41.233
  20
51.867
  30
0.000
  0
VERTEX
  8
0
  6
CONTINUOUS
  10
41.333
  20
51.967
  30
0.000
  0
VERTEX
  8
0
  6
CONTINUOUS
  10
41.450
  20
52.000
  30
0.000
  0
VERTEX
  8
0
  6
CONTINUOUS
  10
41.550
  20
52.000
  30
0.000
  0
VERTEX
  8
0
  6
CONTINUOUS
  10
41.650
  20
52.000
  30
0.000
  0
VERTEX
  8
0
  6
CONTINUOUS
  10
41.750
  20
52.000
  30
0.000
  0
VERTEX
  8
0
  6
CONTINUOUS
  10
41.867
  20
52.000
  30
0.000
  0
VERTEX
  8
0
  6
CONTINUOUS
  10
41.967
  20
52.000
  30
0.000
  0
VERTEX
  8
0
  6
CONTINUOUS
  10
42.067
  20
52.000
  30
0.000
  0
VERTEX
  8
0
  6
CONTINUOUS
  10
42.167
  20
52.000
  30
0.000
  0
VERTEX
  8
0
  6
CONTINUOUS
  10
42.283
  20
52.000
  30
0.000
  0
VERTEX
  8
0
  6
CONTINUOUS
  10
42.383
  20
52.000
  30
0.000
  0
VERTEX
  8
0
  6
CONTINUOUS
  10
42.483
  20
52.000
  30
0.000
  0
VERTEX
  8
0
  6
CONTINUOUS
  10
42.583
  20
52.000
  30
0.000
  0
VERTEX
  8
0
  6
CONTINUOUS
  10
42.700
  20
52.000
  30
0.000
  0
VERTEX
  8
0
  6
CONTINUOUS
  10
42.800
  20
52.000
  30
0.000
  0
VERTEX
  8
0
  6
CONTINUOUS
  10
42.900
  20
52.000
  30
0.000
  0
VERTEX
  8
0
  6
CONTINUOUS
  10
43.000
  20
52.000
  30
0.000
  0
VERTEX
  8
0
  6
CONTINUOUS
  10
43.117
  20
52.000
  30
0.000
  0
VERTEX
  8
0
  6
CONTINUOUS
  10
43.217
  20
52.000
  30
0.000
  0
VERTEX
  8
0
  6
CONTINUOUS
  10
43.317
  20
52.000
  30
0.000
  0
VERTEX
  8
0
  6
CONTINUOUS
  10
43.417
  20
52.000
  30
0.000
  0
VERTEX
  8
0
  6
CONTINUOUS
  10
43.533
  20
52.000
  30
0.000
  0
VERTEX
  8
0
  6
CONTINUOUS
  10
43.633
  20
52.000
  30
0.000
  0
VERTEX
  8
0
  6
CONTINUOUS
  10
43.733
  20
52.000
  30
0.000
  0
VERTEX
  8
0
  6
CONTINUOUS
  10
43.833
  20
52.000
  30
0.000
  0
VERTEX
  8
0
  6
CONTINUOUS
  10
43.950
  20
52.000
  30
0.000
  0
VERTEX
  8
0
  6
CONTINUOUS
  10
44.050
  20
52.000
  30
0.000
  0
VERTEX
  8
0
  6
CONTINUOUS
  10
44.150
  20
52.000
  30
0.000
  0
VERTEX
  8
0
  6
CONTINUOUS
  10
44.250
  20
52.000
  30
0.000
  0
VERTEX
  8
0
  6
CONTINUOUS
  10
44.367
  20
52.000
  30
0.000
  0
VERTEX
  8
0
  6
CONTINUOUS
  10
44.467
  20
52.000
  30
0.000
  0
VERTEX
  8
0
  6
CONTINUOUS
  10
44.567
  20
52.000
  30
0.000
  0
VERTEX
  8
0
  6
CONTINUOUS
  10
44.667
  20
52.000
  30
0.000
  0
VERTEX
  8
0
  6
CONTINUOUS
  10
44.783
  20
52.000
  30
0.000
  0
VERTEX
  8
0
  6
CONTINUOUS
  10
44.883
  20
52.000
  30
0.000
  0
VERTEX
  8
0
  6
CONTINUOUS
  10
44.983
  20
52.000
  30
0.000
  0
VERTEX
  8
0
  6
CONTINUOUS
  10
45.083
  20
52.000
  30
0.000
  0
VERTEX
  8
0
  6
CONTINUOUS
  10
45.200
  20
52.200
  30
0.000
  0
VERTEX
  8
0
  6
CONTINUOUS
  10
45.300
  20
54.967
  30
0.000
  0
VERTEX
  8
0
  6
CONTINUOUS
  10
45.400
  20
57.583
  30
0.000
  0
VERTEX
  8
0
  6
CONTINUOUS
  10
45.500
  20
59.450
  30
0.000
  0
VERTEX
  8
0
  6
CONTINUOUS
  10
45.617
  20
60.600
  30
0.000
  0
VERTEX
  8
0
  6
CONTINUOUS
  10
45.717
  20
61.117
  30
0.000
  0
VERTEX
  8
0
  6
CONTINUOUS
  10
45.817
  20
61.167
  30
0.000
  0
VERTEX
  8
0
  6
CONTINUOUS
  10
45.917
  20
61.167
  30
0.000
  0
VERTEX
  8
0
  6
CONTINUOUS
  10
46.033
  20
61.167
  30
0.000
  0
VERTEX
  8
0
  6
CONTINUOUS
  10
46.133
  20
61.167
  30
0.000
  0
VERTEX
  8
0
  6
CONTINUOUS
  10
46.233
  20
61.167
  30
0.000
  0
VERTEX
  8
0
  6
CONTINUOUS
  10
46.333
  20
61.167
  30
0.000
  0
VERTEX
  8
0
  6
CONTINUOUS
  10
46.450
  20
61.167
  30
0.000
  0
VERTEX
  8
0
  6
CONTINUOUS
  10
46.550
  20
61.167
  30
0.000
  0
VERTEX
  8
0
  6
CONTINUOUS
  10
46.650
  20
61.167
  30
0.000
  0
VERTEX
  8
0
  6
CONTINUOUS
  10
46.750
  20
61.167
  30
0.000
  0
VERTEX
  8
0
  6
CONTINUOUS
  10
46.867
  20
61.167
  30
0.000
  0
VERTEX
  8
0
  6
CONTINUOUS
  10
46.967
  20
61.167
  30
0.000
  0
VERTEX
  8
0
  6
CONTINUOUS
  10
47.067
  20
61.167
  30
0.000
  0
VERTEX
  8
0
  6
CONTINUOUS
  10
47.167
  20
61.167
  30
0.000
  0
VERTEX
  8
0
  6
CONTINUOUS
  10
47.283
  20
61.167
  30
0.000
  0
VERTEX
  8
0
  6
CONTINUOUS
  10
47.383
  20
61.167
  30
0.000
  0
VERTEX
  8
0
  6
CONTINUOUS
  10
47.483
  20
61.167
  30
0.000
  0
VERTEX
  8
0
  6
CONTINUOUS
  10
47.583
  20
61.167
  30
0.000
  0
VERTEX
  8
0
  6
CONTINUOUS
  10
47.700
  20
61.167
  30
0.000
  0
VERTEX
  8
0
  6
CONTINUOUS
  10
47.800
  20
61.167
  30
0.000
  0
VERTEX
  8
0
  6
CONTINUOUS
  10
47.900
  20
61.167
  30
0.000
  0
VERTEX
  8
0
  6
CONTINUOUS
  10
48.000
  20
61.167
  30
0.000
  0
VERTEX
  8
0
  6
CONTINUOUS
  10
48.117
  20
61.167
  30
0.000
  0
VERTEX
  8
0
  6
CONTINUOUS
  10
48.217
  20
61.167
  30
0.000
  0
VERTEX
  8
0
  6
CONTINUOUS
  10
48.317
  20
61.733
  30
0.000
  0
VERTEX
  8
0
  6
CONTINUOUS
  10
48.417
  20
63.300
  30
0.000
  0
VERTEX
  8
0
  6
CONTINUOUS
  10
48.533
  20
64.667
  30
0.000
  0
VERTEX
  8
0
  6
CONTINUOUS
  10
48.633
  20
65.717
  30
0.000
  0
VERTEX
  8
0
  6
CONTINUOUS
  10
48.733
  20
66.467
  30
0.000
  0
VERTEX
  8
0
  6
CONTINUOUS
  10
48.833
  20
67.000
  30
0.000
  0
VERTEX
  8
0
  6
CONTINUOUS
  10
48.950
  20
67.300
  30
0.000
  0
VERTEX
  8
0
  6
CONTINUOUS
  10
49.050
  20
67.367
  30
0.000
  0
VERTEX
  8
0
  6
CONTINUOUS
  10
49.150
  20
67.367
  30
0.000
  0
VERTEX
  8
0
  6
CONTINUOUS
  10
49.250
  20
67.367
  30
0.000
  0
VERTEX
  8
0
  6
CONTINUOUS
  10
49.367
  20
67.367
  30
0.000
  0
VERTEX
  8
0
  6
CONTINUOUS
  10
49.467
  20
67.367
  30
0.000
  0
VERTEX
  8
0
  6
CONTINUOUS
  10
49.567
  20
67.367
  30
0.000
  0
VERTEX
  8
0
  6
CONTINUOUS
  10
49.667
  20
67.367
  30
0.000
  0
VERTEX
  8
0
  6
CONTINUOUS
  10
49.783
  20
67.367
  30
0.000
  0
VERTEX
  8
0
  6
CONTINUOUS
  10
49.883
  20
67.367
  30
0.000
  0
VERTEX
  8
0
  6
CONTINUOUS
  10
49.983
  20
67.367
  30
0.000
  0
VERTEX
  8
0
  6
CONTINUOUS
  10
50.083
  20
67.367
  30
0.000
  0
VERTEX
  8
0
  6
CONTINUOUS
  10
50.200
  20
67.367
  30
0.000
  0
VERTEX
  8
0
  6
CONTINUOUS
  10
50.300
  20
67.367
  30
0.000
  0
VERTEX
  8
0
  6
CONTINUOUS
  10
50.400
  20
67.367
  30
0.000
  0
VERTEX
  8
0
  6
CONTINUOUS
  10
50.517
  20
67.367
  30
0.000
  0
VERTEX
  8
0
  6
CONTINUOUS
  10
50.617
  20
67.367
  30
0.000
  0
VERTEX
  8
0
  6
CONTINUOUS
  10
50.717
  20
67.367
  30
0.000
  0
VERTEX
  8
0
  6
CONTINUOUS
  10
50.817
  20
67.367
  30
0.000
  0
VERTEX
  8
0
  6
CONTINUOUS
  10
50.933
  20
67.367
  30
0.000
  0
VERTEX
  8
0
  6
CONTINUOUS
  10
51.033
  20
67.367
  30
0.000
  0
VERTEX
  8
0
  6
CONTINUOUS
  10
51.133
  20
67.367
  30
0.000
  0
VERTEX
  8
0
  6
CONTINUOUS
  10
51.233
  20
67.367
  30
0.000
  0
VERTEX
  8
0
  6
CONTINUOUS
  10
51.350
  20
67.367
  30
0.000
  0
VERTEX
  8
0
  6
CONTINUOUS
  10
51.450
  20
67.367
  30
0.000
  0
VERTEX
  8
0
  6
CONTINUOUS
  10
51.550
  20
67.367
  30
0.000
  0
VERTEX
  8
0
  6
CONTINUOUS
  10
51.650
  20
67.367
  30
0.000
  0
VERTEX
  8
0
  6
CONTINUOUS
  10
51.767
  20
67.367
  30
0.000
  0
VERTEX
  8
0
  6
CONTINUOUS
  10
51.867
  20
67.367
  30
0.000
  0
VERTEX
  8
0
  6
CONTINUOUS
  10
51.967
  20
67.367
  30
0.000
  0
VERTEX
  8
0
  6
CONTINUOUS
  10
52.067
  20
67.367
  30
0.000
  0
VERTEX
  8
0
  6
CONTINUOUS
  10
52.183
  20
67.367
  30
0.000
  0
VERTEX
  8
0
  6
CONTINUOUS
  10
52.283
  20
67.367
  30
0.000
  0
VERTEX
  8
0
  6
CONTINUOUS
  10
52.383
  20
67.367
  30
0.000
  0
VERTEX
  8
0
  6
CONTINUOUS
  10
52.483
  20
67.367
  30
0.000
  0
VERTEX
  8
0
  6
CONTINUOUS
  10
52.600
  20
67.367
  30
0.000
  0
VERTEX
  8
0
  6
CONTINUOUS
  10
52.700
  20
67.367
  30
0.000
  0
VERTEX
  8
0
  6
CONTINUOUS
  10
52.800
  20
67.367
  30
0.000
  0
VERTEX
  8
0
  6
CONTINUOUS
  10
52.900
  20
67.367
  30
0.000
  0
VERTEX
  8
0
  6
CONTINUOUS
  10
53.017
  20
67.367
  30
0.000
  0
VERTEX
  8
0
  6
CONTINUOUS
  10
53.117
  20
67.367
  30
0.000
  0
VERTEX
  8
0
  6
CONTINUOUS
  10
53.217
  20
67.367
  30
0.000
  0
VERTEX
  8
0
  6
CONTINUOUS
  10
53.317
  20
67.750
  30
0.000
  0
VERTEX
  8
0
  6
CONTINUOUS
  10
53.433
  20
68.367
  30
0.000
  0
VERTEX
  8
0
  6
CONTINUOUS
  10
53.533
  20
68.933
  30
0.000
  0
VERTEX
  8
0
  6
CONTINUOUS
  10
53.633
  20
69.367
  30
0.000
  0
VERTEX
  8
0
  6
CONTINUOUS
  10
53.733
  20
69.617
  30
0.000
  0
VERTEX
  8
0
  6
CONTINUOUS
  10
53.850
  20
69.667
  30
0.000
  0
VERTEX
  8
0
  6
CONTINUOUS
  10
53.950
  20
69.667
  30
0.000
  0
VERTEX
  8
0
  6
CONTINUOUS
  10
54.050
  20
69.667
  30
0.000
  0
VERTEX
  8
0
  6
CONTINUOUS
  10
54.150
  20
69.667
  30
0.000
  0
VERTEX
  8
0
  6
CONTINUOUS
  10
54.267
  20
69.667
  30
0.000
  0
VERTEX
  8
0
  6
CONTINUOUS
  10
54.367
  20
69.667
  30
0.000
  0
VERTEX
  8
0
  6
CONTINUOUS
  10
54.467
  20
69.667
  30
0.000
  0
VERTEX
  8
0
  6
CONTINUOUS
  10
54.567
  20
69.667
  30
0.000
  0
VERTEX
  8
0
  6
CONTINUOUS
  10
54.683
  20
69.667
  30
0.000
  0
VERTEX
  8
0
  6
CONTINUOUS
  10
54.783
  20
69.667
  30
0.000
  0
VERTEX
  8
0
  6
CONTINUOUS
  10
54.883
  20
69.667
  30
0.000
  0
VERTEX
  8
0
  6
CONTINUOUS
  10
54.983
  20
69.667
  30
0.000
  0
VERTEX
  8
0
  6
CONTINUOUS
  10
55.100
  20
69.667
  30
0.000
  0
VERTEX
  8
0
  6
CONTINUOUS
  10
55.200
  20
69.667
  30
0.000
  0
VERTEX
  8
0
  6
CONTINUOUS
  10
55.300
  20
69.667
  30
0.000
  0
VERTEX
  8
0
  6
CONTINUOUS
  10
55.400
  20
69.667
  30
0.000
  0
VERTEX
  8
0
  6
CONTINUOUS
  10
55.517
  20
69.667
  30
0.000
  0
VERTEX
  8
0
  6
CONTINUOUS
  10
55.617
  20
69.667
  30
0.000
  0
VERTEX
  8
0
  6
CONTINUOUS
  10
55.717
  20
69.667
  30
0.000
  0
VERTEX
  8
0
  6
CONTINUOUS
  10
55.817
  20
69.667
  30
0.000
  0
VERTEX
  8
0
  6
CONTINUOUS
  10
55.933
  20
69.667
  30
0.000
  0
VERTEX
  8
0
  6
CONTINUOUS
  10
56.033
  20
69.667
  30
0.000
  0
VERTEX
  8
0
  6
CONTINUOUS
  10
56.133
  20
69.667
  30
0.000
  0
VERTEX
  8
0
  6
CONTINUOUS
  10
56.233
  20
69.667
  30
0.000
  0
VERTEX
  8
0
  6
CONTINUOUS
  10
56.350
  20
69.667
  30
0.000
  0
VERTEX
  8
0
  6
CONTINUOUS
  10
56.450
  20
69.667
  30
0.000
  0
VERTEX
  8
0
  6
CONTINUOUS
  10
56.550
  20
69.667
  30
0.000
  0
VERTEX
  8
0
  6
CONTINUOUS
  10
56.650
  20
69.667
  30
0.000
  0
VERTEX
  8
0
  6
CONTINUOUS
  10
56.767
  20
69.667
  30
0.000
  0
VERTEX
  8
0
  6
CONTINUOUS
  10
56.867
  20
69.667
  30
0.000
  0
VERTEX
  8
0
  6
CONTINUOUS
  10
56.967
  20
69.667
  30
0.000
  0
VERTEX
  8
0
  6
CONTINUOUS
  10
57.067
  20
69.667
  30
0.000
  0
VERTEX
  8
0
  6
CONTINUOUS
  10
57.183
  20
69.667
  30
0.000
  0
VERTEX
  8
0
  6
CONTINUOUS
  10
57.283
  20
69.667
  30
0.000
  0
VERTEX
  8
0
  6
CONTINUOUS
  10
57.383
  20
69.667
  30
0.000
  0
VERTEX
  8
0
  6
CONTINUOUS
  10
57.483
  20
69.667
  30
0.000
  0
VERTEX
  8
0
  6
CONTINUOUS
  10
57.600
  20
69.667
  30
0.000
  0
VERTEX
  8
0
  6
CONTINUOUS
  10
57.700
  20
69.667
  30
0.000
  0
VERTEX
  8
0
  6
CONTINUOUS
  10
57.800
  20
69.667
  30
0.000
  0
VERTEX
  8
0
  6
CONTINUOUS
  10
57.900
  20
69.667
  30
0.000
  0
VERTEX
  8
0
  6
CONTINUOUS
  10
58.017
  20
69.667
  30
0.000
  0
VERTEX
  8
0
  6
CONTINUOUS
  10
58.117
  20
69.667
  30
0.000
  0
VERTEX
  8
0
  6
CONTINUOUS
  10
58.217
  20
69.667
  30
0.000
  0
VERTEX
  8
0
  6
CONTINUOUS
  10
58.317
  20
69.667
  30
0.000
  0
VERTEX
  8
0
  6
CONTINUOUS
  10
58.433
  20
69.667
  30
0.000
  0
VERTEX
  8
0
  6
CONTINUOUS
  10
58.533
  20
69.667
  30
0.000
  0
VERTEX
  8
0
  6
CONTINUOUS
  10
58.633
  20
69.667
  30
0.000
  0
VERTEX
  8
0
  6
CONTINUOUS
  10
58.733
  20
69.667
  30
0.000
  0
VERTEX
  8
0
  6
CONTINUOUS
  10
58.850
  20
69.667
  30
0.000
  0
VERTEX
  8
0
  6
CONTINUOUS
  10
58.950
  20
69.667
  30
0.000
  0
VERTEX
  8
0
  6
CONTINUOUS
  10
59.050
  20
69.667
  30
0.000
  0
VERTEX
  8
0
  6
CONTINUOUS
  10
59.150
  20
69.667
  30
0.000
  0
VERTEX
  8
0
  6
CONTINUOUS
  10
59.267
  20
69.667
  30
0.000
  0
VERTEX
  8
0
  6
CONTINUOUS
  10
59.367
  20
69.667
  30
0.000
  0
VERTEX
  8
0
  6
CONTINUOUS
  10
59.467
  20
69.667
  30
0.000
  0
VERTEX
  8
0
  6
CONTINUOUS
  10
59.567
  20
69.667
  30
0.000
  0
VERTEX
  8
0
  6
CONTINUOUS
  10
59.683
  20
69.667
  30
0.000
  0
VERTEX
  8
0
  6
CONTINUOUS
  10
59.783
  20
69.667
  30
0.000
  0
VERTEX
  8
0
  6
CONTINUOUS
  10
59.883
  20
69.667
  30
0.000
  0
VERTEX
  8
0
  6
CONTINUOUS
  10
59.983
  20
69.667
  30
0.000
  0
VERTEX
  8
0
  6
CONTINUOUS
  10
60.100
  20
69.667
  30
0.000
  0
VERTEX
  8
0
  6
CONTINUOUS
  10
60.200
  20
69.667
  30
0.000
  0
VERTEX
  8
0
  6
CONTINUOUS
  10
60.300
  20
69.667
  30
0.000
  0
VERTEX
  8
0
  6
CONTINUOUS
  10
60.400
  20
69.667
  30
0.000
  0
VERTEX
  8
0
  6
CONTINUOUS
  10
60.517
  20
69.667
  30
0.000
  0
VERTEX
  8
0
  6
CONTINUOUS
  10
60.617
  20
69.667
  30
0.000
  0
VERTEX
  8
0
  6
CONTINUOUS
  10
60.717
  20
69.667
  30
0.000
  0
VERTEX
  8
0
  6
CONTINUOUS
  10
60.817
  20
69.667
  30
0.000
  0
VERTEX
  8
0
  6
CONTINUOUS
  10
60.933
  20
69.667
  30
0.000
  0
VERTEX
  8
0
  6
CONTINUOUS
  10
61.033
  20
69.667
  30
0.000
  0
VERTEX
  8
0
  6
CONTINUOUS
  10
61.133
  20
69.667
  30
0.000
  0
VERTEX
  8
0
  6
CONTINUOUS
  10
61.233
  20
69.667
  30
0.000
  0
VERTEX
  8
0
  6
CONTINUOUS
  10
61.350
  20
69.667
  30
0.000
  0
VERTEX
  8
0
  6
CONTINUOUS
  10
61.450
  20
69.667
  30
0.000
  0
VERTEX
  8
0
  6
CONTINUOUS
  10
61.550
  20
69.667
  30
0.000
  0
VERTEX
  8
0
  6
CONTINUOUS
  10
61.650
  20
69.667
  30
0.000
  0
VERTEX
  8
0
  6
CONTINUOUS
  10
61.767
  20
69.667
  30
0.000
  0
VERTEX
  8
0
  6
CONTINUOUS
  10
61.867
  20
69.667
  30
0.000
  0
VERTEX
  8
0
  6
CONTINUOUS
  10
61.967
  20
69.667
  30
0.000
  0
VERTEX
  8
0
  6
CONTINUOUS
  10
62.067
  20
69.667
  30
0.000
  0
VERTEX
  8
0
  6
CONTINUOUS
  10
62.183
  20
69.667
  30
0.000
  0
VERTEX
  8
0
  6
CONTINUOUS
  10
62.283
  20
69.667
  30
0.000
  0
VERTEX
  8
0
  6
CONTINUOUS
  10
62.383
  20
69.667
  30
0.000
  0
VERTEX
  8
0
  6
CONTINUOUS
  10
62.483
  20
69.667
  30
0.000
  0
VERTEX
  8
0
  6
CONTINUOUS
  10
62.600
  20
69.667
  30
0.000
  0
VERTEX
  8
0
  6
CONTINUOUS
  10
62.700
  20
69.667
  30
0.000
  0
VERTEX
  8
0
  6
CONTINUOUS
  10
62.800
  20
69.667
  30
0.000
  0
VERTEX
  8
0
  6
CONTINUOUS
  10
62.900
  20
69.667
  30
0.000
  0
VERTEX
  8
0
  6
CONTINUOUS
  10
63.017
  20
69.667
  30
0.000
  0
VERTEX
  8
0
  6
CONTINUOUS
  10
63.117
  20
69.667
  30
0.000
  0
VERTEX
  8
0
  6
CONTINUOUS
  10
63.217
  20
69.667
  30
0.000
  0
VERTEX
  8
0
  6
CONTINUOUS
  10
63.317
  20
69.667
  30
0.000
  0
VERTEX
  8
0
  6
CONTINUOUS
  10
63.433
  20
69.667
  30
0.000
  0
VERTEX
  8
0
  6
CONTINUOUS
  10
63.533
  20
69.667
  30
0.000
  0
VERTEX
  8
0
  6
CONTINUOUS
  10
63.633
  20
69.667
  30
0.000
  0
VERTEX
  8
0
  6
CONTINUOUS
  10
63.750
  20
69.667
  30
0.000
  0
VERTEX
  8
0
  6
CONTINUOUS
  10
63.850
  20
69.667
  30
0.000
  0
VERTEX
  8
0
  6
CONTINUOUS
  10
63.950
  20
69.667
  30
0.000
  0
VERTEX
  8
0
  6
CONTINUOUS
  10
64.050
  20
69.667
  30
0.000
  0
VERTEX
  8
0
  6
CONTINUOUS
  10
64.167
  20
69.667
  30
0.000
  0
VERTEX
  8
0
  6
CONTINUOUS
  10
64.267
  20
69.667
  30
0.000
  0
VERTEX
  8
0
  6
CONTINUOUS
  10
64.367
  20
69.667
  30
0.000
  0
VERTEX
  8
0
  6
CONTINUOUS
  10
64.467
  20
69.667
  30
0.000
  0
VERTEX
  8
0
  6
CONTINUOUS
  10
64.583
  20
69.667
  30
0.000
  0
VERTEX
  8
0
  6
CONTINUOUS
  10
64.683
  20
69.667
  30
0.000
  0
VERTEX
  8
0
  6
CONTINUOUS
  10
64.783
  20
69.667
  30
0.000
  0
VERTEX
  8
0
  6
CONTINUOUS
  10
64.883
  20
69.667
  30
0.000
  0
VERTEX
  8
0
  6
CONTINUOUS
  10
65.000
  20
69.667
  30
0.000
  0
VERTEX
  8
0
  6
CONTINUOUS
  10
65.100
  20
69.667
  30
0.000
  0
VERTEX
  8
0
  6
CONTINUOUS
  10
65.200
  20
69.667
  30
0.000
  0
VERTEX
  8
0
  6
CONTINUOUS
  10
65.300
  20
69.667
  30
0.000
  0
VERTEX
  8
0
  6
CONTINUOUS
  10
65.417
  20
69.667
  30
0.000
  0
VERTEX
  8
0
  6
CONTINUOUS
  10
65.517
  20
69.667
  30
0.000
  0
VERTEX
  8
0
  6
CONTINUOUS
  10
65.617
  20
69.667
  30
0.000
  0
VERTEX
  8
0
  6
CONTINUOUS
  10
65.717
  20
69.667
  30
0.000
  0
VERTEX
  8
0
  6
CONTINUOUS
  10
65.833
  20
69.667
  30
0.000
  0
VERTEX
  8
0
  6
CONTINUOUS
  10
65.933
  20
69.667
  30
0.000
  0
VERTEX
  8
0
  6
CONTINUOUS
  10
66.033
  20
69.667
  30
0.000
  0
VERTEX
  8
0
  6
CONTINUOUS
  10
66.133
  20
69.667
  30
0.000
  0
VERTEX
  8
0
  6
CONTINUOUS
  10
66.250
  20
69.667
  30
0.000
  0
VERTEX
  8
0
  6
CONTINUOUS
  10
66.350
  20
69.667
  30
0.000
  0
VERTEX
  8
0
  6
CONTINUOUS
  10
66.450
  20
69.667
  30
0.000
  0
VERTEX
  8
0
  6
CONTINUOUS
  10
66.550
  20
69.667
  30
0.000
  0
VERTEX
  8
0
  6
CONTINUOUS
  10
66.667
  20
69.667
  30
0.000
  0
VERTEX
  8
0
  6
CONTINUOUS
  10
66.767
  20
69.667
  30
0.000
  0
VERTEX
  8
0
  6
CONTINUOUS
  10
66.867
  20
69.667
  30
0.000
  0
VERTEX
  8
0
  6
CONTINUOUS
  10
66.967
  20
69.667
  30
0.000
  0
VERTEX
  8
0
  6
CONTINUOUS
  10
67.083
  20
69.667
  30
0.000
  0
VERTEX
  8
0
  6
CONTINUOUS
  10
67.183
  20
69.667
  30
0.000
  0
VERTEX
  8
0
  6
CONTINUOUS
  10
67.283
  20
69.667
  30
0.000
  0
VERTEX
  8
0
  6
CONTINUOUS
  10
67.383
  20
69.667
  30
0.000
  0
VERTEX
  8
0
  6
CONTINUOUS
  10
67.500
  20
69.667
  30
0.000
  0
VERTEX
  8
0
  6
CONTINUOUS
  10
67.600
  20
69.667
  30
0.000
  0
VERTEX
  8
0
  6
CONTINUOUS
  10
67.700
  20
69.667
  30
0.000
  0
VERTEX
  8
0
  6
CONTINUOUS
  10
67.800
  20
69.667
  30
0.000
  0
VERTEX
  8
0
  6
CONTINUOUS
  10
67.917
  20
69.667
  30
0.000
  0
VERTEX
  8
0
  6
CONTINUOUS
  10
68.017
  20
69.667
  30
0.000
  0
VERTEX
  8
0
  6
CONTINUOUS
  10
68.117
  20
69.667
  30
0.000
  0
VERTEX
  8
0
  6
CONTINUOUS
  10
68.217
  20
69.667
  30
0.000
  0
VERTEX
  8
0
  6
CONTINUOUS
  10
68.333
  20
69.667
  30
0.000
  0
VERTEX
  8
0
  6
CONTINUOUS
  10
68.433
  20
69.667
  30
0.000
  0
VERTEX
  8
0
  6
CONTINUOUS
  10
68.533
  20
69.667
  30
0.000
  0
VERTEX
  8
0
  6
CONTINUOUS
  10
68.633
  20
69.667
  30
0.000
  0
VERTEX
  8
0
  6
CONTINUOUS
  10
68.750
  20
69.667
  30
0.000
  0
VERTEX
  8
0
  6
CONTINUOUS
  10
68.850
  20
69.667
  30
0.000
  0
VERTEX
  8
0
  6
CONTINUOUS
  10
68.950
  20
69.667
  30
0.000
  0
VERTEX
  8
0
  6
CONTINUOUS
  10
69.050
  20
69.667
  30
0.000
  0
VERTEX
  8
0
  6
CONTINUOUS
  10
69.167
  20
69.667
  30
0.000
  0
VERTEX
  8
0
  6
CONTINUOUS
  10
69.267
  20
69.667
  30
0.000
  0
VERTEX
  8
0
  6
CONTINUOUS
  10
69.367
  20
69.667
  30
0.000
  0
VERTEX
  8
0
  6
CONTINUOUS
  10
69.467
  20
69.667
  30
0.000
  0
VERTEX
  8
0
  6
CONTINUOUS
  10
69.583
  20
69.667
  30
0.000
  0
VERTEX
  8
0
  6
CONTINUOUS
  10
69.683
  20
69.667
  30
0.000
  0
VERTEX
  8
0
  6
CONTINUOUS
  10
69.783
  20
69.667
  30
0.000
  0
VERTEX
  8
0
  6
CONTINUOUS
  10
69.883
  20
69.667
  30
0.000
  0
VERTEX
  8
0
  6
CONTINUOUS
  10
70.000
  20
69.667
  30
0.000
  0
VERTEX
  8
0
  6
CONTINUOUS
  10
70.100
  20
69.667
  30
0.000
  0
VERTEX
  8
0
  6
CONTINUOUS
  10
70.200
  20
69.667
  30
0.000
  0
VERTEX
  8
0
  6
CONTINUOUS
  10
70.300
  20
69.667
  30
0.000
  0
VERTEX
  8
0
  6
CONTINUOUS
  10
70.417
  20
69.667
  30
0.000
  0
VERTEX
  8
0
  6
CONTINUOUS
  10
70.517
  20
69.667
  30
0.000
  0
VERTEX
  8
0
  6
CONTINUOUS
  10
70.617
  20
69.667
  30
0.000
  0
VERTEX
  8
0
  6
CONTINUOUS
  10
70.717
  20
69.667
  30
0.000
  0
VERTEX
  8
0
  6
CONTINUOUS
  10
70.833
  20
69.667
  30
0.000
  0
VERTEX
  8
0
  6
CONTINUOUS
  10
70.933
  20
69.667
  30
0.000
  0
VERTEX
  8
0
  6
CONTINUOUS
  10
71.033
  20
69.667
  30
0.000
  0
VERTEX
  8
0
  6
CONTINUOUS
  10
71.133
  20
69.667
  30
0.000
  0
VERTEX
  8
0
  6
CONTINUOUS
  10
71.250
  20
69.667
  30
0.000
  0
VERTEX
  8
0
  6
CONTINUOUS
  10
71.350
  20
69.667
  30
0.000
  0
VERTEX
  8
0
  6
CONTINUOUS
  10
71.450
  20
69.667
  30
0.000
  0
VERTEX
  8
0
  6
CONTINUOUS
  10
71.550
  20
69.667
  30
0.000
  0
VERTEX
  8
0
  6
CONTINUOUS
  10
71.667
  20
69.667
  30
0.000
  0
VERTEX
  8
0
  6
CONTINUOUS
  10
71.767
  20
69.667
  30
0.000
  0
VERTEX
  8
0
  6
CONTINUOUS
  10
71.867
  20
69.667
  30
0.000
  0
VERTEX
  8
0
  6
CONTINUOUS
  10
71.967
  20
69.667
  30
0.000
  0
VERTEX
  8
0
  6
CONTINUOUS
  10
72.083
  20
69.667
  30
0.000
  0
VERTEX
  8
0
  6
CONTINUOUS
  10
72.183
  20
69.667
  30
0.000
  0
VERTEX
  8
0
  6
CONTINUOUS
  10
72.283
  20
69.667
  30
0.000
  0
VERTEX
  8
0
  6
CONTINUOUS
  10
72.383
  20
69.667
  30
0.000
  0
VERTEX
  8
0
  6
CONTINUOUS
  10
72.500
  20
69.667
  30
0.000
  0
VERTEX
  8
0
  6
CONTINUOUS
  10
72.600
  20
69.683
  30
0.000
  0
VERTEX
  8
0
  6
CONTINUOUS
  10
72.700
  20
69.717
  30
0.000
  0
VERTEX
  8
0
  6
CONTINUOUS
  10
72.800
  20
69.750
  30
0.000
  0
VERTEX
  8
0
  6
CONTINUOUS
  10
72.917
  20
69.767
  30
0.000
  0
VERTEX
  8
0
  6
CONTINUOUS
  10
73.017
  20
69.800
  30
0.000
  0
VERTEX
  8
0
  6
CONTINUOUS
  10
73.117
  20
69.817
  30
0.000
  0
VERTEX
  8
0
  6
CONTINUOUS
  10
73.217
  20
69.833
  30
0.000
  0
VERTEX
  8
0
  6
CONTINUOUS
  10
73.333
  20
69.833
  30
0.000
  0
VERTEX
  8
0
  6
CONTINUOUS
  10
73.433
  20
69.833
  30
0.000
  0
VERTEX
  8
0
  6
CONTINUOUS
  10
73.533
  20
69.833
  30
0.000
  0
VERTEX
  8
0
  6
CONTINUOUS
  10
73.633
  20
69.833
  30
0.000
  0
VERTEX
  8
0
  6
CONTINUOUS
  10
73.750
  20
69.833
  30
0.000
  0
VERTEX
  8
0
  6
CONTINUOUS
  10
73.850
  20
69.833
  30
0.000
  0
VERTEX
  8
0
  6
CONTINUOUS
  10
73.950
  20
69.833
  30
0.000
  0
VERTEX
  8
0
  6
CONTINUOUS
  10
74.050
  20
69.833
  30
0.000
  0
VERTEX
  8
0
  6
CONTINUOUS
  10
74.167
  20
69.833
  30
0.000
  0
VERTEX
  8
0
  6
CONTINUOUS
  10
74.267
  20
69.850
  30
0.000
  0
VERTEX
  8
0
  6
CONTINUOUS
  10
74.367
  20
69.883
  30
0.000
  0
VERTEX
  8
0
  6
CONTINUOUS
  10
74.467
  20
69.917
  30
0.000
  0
VERTEX
  8
0
  6
CONTINUOUS
  10
74.583
  20
69.967
  30
0.000
  0
VERTEX
  8
0
  6
CONTINUOUS
  10
74.683
  20
70.017
  30
0.000
  0
VERTEX
  8
0
  6
CONTINUOUS
  10
74.783
  20
70.050
  30
0.000
  0
VERTEX
  8
0
  6
CONTINUOUS
  10
74.883
  20
70.100
  30
0.000
  0
VERTEX
  8
0
  6
CONTINUOUS
  10
75.000
  20
70.150
  30
0.000
  0
VERTEX
  8
0
  6
CONTINUOUS
  10
75.100
  20
70.183
  30
0.000
  0
VERTEX
  8
0
  6
CONTINUOUS
  10
75.200
  20
70.200
  30
0.000
  0
VERTEX
  8
0
  6
CONTINUOUS
  10
75.300
  20
70.217
  30
0.000
  0
VERTEX
  8
0
  6
CONTINUOUS
  10
75.417
  20
70.217
  30
0.000
  0
VERTEX
  8
0
  6
CONTINUOUS
  10
75.517
  20
70.217
  30
0.000
  0
VERTEX
  8
0
  6
CONTINUOUS
  10
75.617
  20
70.217
  30
0.000
  0
VERTEX
  8
0
  6
CONTINUOUS
  10
75.717
  20
70.217
  30
0.000
  0
VERTEX
  8
0
  6
CONTINUOUS
  10
75.833
  20
70.217
  30
0.000
  0
VERTEX
  8
0
  6
CONTINUOUS
  10
75.933
  20
70.217
  30
0.000
  0
VERTEX
  8
0
  6
CONTINUOUS
  10
76.033
  20
70.217
  30
0.000
  0
VERTEX
  8
0
  6
CONTINUOUS
  10
76.133
  20
70.217
  30
0.000
  0
VERTEX
  8
0
  6
CONTINUOUS
  10
76.250
  20
70.217
  30
0.000
  0
VERTEX
  8
0
  6
CONTINUOUS
  10
76.350
  20
70.217
  30
0.000
  0
VERTEX
  8
0
  6
CONTINUOUS
  10
76.450
  20
70.217
  30
0.000
  0
VERTEX
  8
0
  6
CONTINUOUS
  10
76.567
  20
70.217
  30
0.000
  0
VERTEX
  8
0
  6
CONTINUOUS
  10
76.667
  20
70.217
  30
0.000
  0
VERTEX
  8
0
  6
CONTINUOUS
  10
76.767
  20
70.217
  30
0.000
  0
VERTEX
  8
0
  6
CONTINUOUS
  10
76.867
  20
70.217
  30
0.000
  0
VERTEX
  8
0
  6
CONTINUOUS
  10
76.983
  20
70.217
  30
0.000
  0
VERTEX
  8
0
  6
CONTINUOUS
  10
77.083
  20
70.217
  30
0.000
  0
VERTEX
  8
0
  6
CONTINUOUS
  10
77.183
  20
70.217
  30
0.000
  0
VERTEX
  8
0
  6
CONTINUOUS
  10
77.283
  20
70.217
  30
0.000
  0
VERTEX
  8
0
  6
CONTINUOUS
  10
77.400
  20
70.217
  30
0.000
  0
VERTEX
  8
0
  6
CONTINUOUS
  10
77.500
  20
70.217
  30
0.000
  0
VERTEX
  8
0
  6
CONTINUOUS
  10
77.600
  20
70.217
  30
0.000
  0
VERTEX
  8
0
  6
CONTINUOUS
  10
77.700
  20
70.217
  30
0.000
  0
VERTEX
  8
0
  6
CONTINUOUS
  10
77.817
  20
70.217
  30
0.000
  0
VERTEX
  8
0
  6
CONTINUOUS
  10
77.917
  20
70.217
  30
0.000
  0
VERTEX
  8
0
  6
CONTINUOUS
  10
78.017
  20
70.217
  30
0.000
  0
VERTEX
  8
0
  6
CONTINUOUS
  10
78.117
  20
70.217
  30
0.000
  0
VERTEX
  8
0
  6
CONTINUOUS
  10
78.233
  20
70.217
  30
0.000
  0
VERTEX
  8
0
  6
CONTINUOUS
  10
78.333
  20
70.217
  30
0.000
  0
VERTEX
  8
0
  6
CONTINUOUS
  10
78.433
  20
70.217
  30
0.000
  0
VERTEX
  8
0
  6
CONTINUOUS
  10
78.533
  20
70.217
  30
0.000
  0
VERTEX
  8
0
  6
CONTINUOUS
  10
78.650
  20
70.217
  30
0.000
  0
VERTEX
  8
0
  6
CONTINUOUS
  10
78.750
  20
70.217
  30
0.000
  0
VERTEX
  8
0
  6
CONTINUOUS
  10
78.850
  20
70.217
  30
0.000
  0
VERTEX
  8
0
  6
CONTINUOUS
  10
78.950
  20
70.233
  30
0.000
  0
VERTEX
  8
0
  6
CONTINUOUS
  10
79.067
  20
70.250
  30
0.000
  0
VERTEX
  8
0
  6
CONTINUOUS
  10
79.167
  20
70.267
  30
0.000
  0
VERTEX
  8
0
  6
CONTINUOUS
  10
79.267
  20
70.283
  30
0.000
  0
VERTEX
  8
0
  6
CONTINUOUS
  10
79.367
  20
70.283
  30
0.000
  0
VERTEX
  8
0
  6
CONTINUOUS
  10
79.483
  20
70.283
  30
0.000
  0
VERTEX
  8
0
  6
CONTINUOUS
  10
79.583
  20
70.283
  30
0.000
  0
VERTEX
  8
0
  6
CONTINUOUS
  10
79.683
  20
70.283
  30
0.000
  0
VERTEX
  8
0
  6
CONTINUOUS
  10
79.783
  20
70.283
  30
0.000
  0
VERTEX
  8
0
  6
CONTINUOUS
  10
79.900
  20
70.283
  30
0.000
  0
VERTEX
  8
0
  6
CONTINUOUS
  10
80.000
  20
70.283
  30
0.000
  0
VERTEX
  8
0
  6
CONTINUOUS
  10
80.100
  20
70.283
  30
0.000
  0
VERTEX
  8
0
  6
CONTINUOUS
  10
80.200
  20
70.283
  30
0.000
  0
VERTEX
  8
0
  6
CONTINUOUS
  10
80.317
  20
70.283
  30
0.000
  0
VERTEX
  8
0
  6
CONTINUOUS
  10
80.417
  20
70.283
  30
0.000
  0
VERTEX
  8
0
  6
CONTINUOUS
  10
80.517
  20
70.283
  30
0.000
  0
VERTEX
  8
0
  6
CONTINUOUS
  10
80.617
  20
70.283
  30
0.000
  0
VERTEX
  8
0
  6
CONTINUOUS
  10
80.733
  20
70.283
  30
0.000
  0
VERTEX
  8
0
  6
CONTINUOUS
  10
80.833
  20
70.283
  30
0.000
  0
VERTEX
  8
0
  6
CONTINUOUS
  10
80.933
  20
70.283
  30
0.000
  0
VERTEX
  8
0
  6
CONTINUOUS
  10
81.033
  20
70.283
  30
0.000
  0
VERTEX
  8
0
  6
CONTINUOUS
  10
81.150
  20
70.283
  30
0.000
  0
VERTEX
  8
0
  6
CONTINUOUS
  10
81.250
  20
70.283
  30
0.000
  0
VERTEX
  8
0
  6
CONTINUOUS
  10
81.350
  20
70.283
  30
0.000
  0
VERTEX
  8
0
  6
CONTINUOUS
  10
81.450
  20
70.283
  30
0.000
  0
VERTEX
  8
0
  6
CONTINUOUS
  10
81.567
  20
70.283
  30
0.000
  0
VERTEX
  8
0
  6
CONTINUOUS
  10
81.667
  20
70.283
  30
0.000
  0
VERTEX
  8
0
  6
CONTINUOUS
  10
81.767
  20
70.283
  30
0.000
  0
VERTEX
  8
0
  6
CONTINUOUS
  10
81.867
  20
70.283
  30
0.000
  0
VERTEX
  8
0
  6
CONTINUOUS
  10
81.983
  20
70.283
  30
0.000
  0
VERTEX
  8
0
  6
CONTINUOUS
  10
82.083
  20
70.283
  30
0.000
  0
VERTEX
  8
0
  6
CONTINUOUS
  10
82.183
  20
70.283
  30
0.000
  0
VERTEX
  8
0
  6
CONTINUOUS
  10
82.283
  20
70.283
  30
0.000
  0
VERTEX
  8
0
  6
CONTINUOUS
  10
82.400
  20
70.283
  30
0.000
  0
VERTEX
  8
0
  6
CONTINUOUS
  10
82.500
  20
70.283
  30
0.000
  0
VERTEX
  8
0
  6
CONTINUOUS
  10
82.600
  20
70.300
  30
0.000
  0
VERTEX
  8
0
  6
CONTINUOUS
  10
82.700
  20
70.300
  30
0.000
  0
VERTEX
  8
0
  6
CONTINUOUS
  10
82.817
  20
70.300
  30
0.000
  0
VERTEX
  8
0
  6
CONTINUOUS
  10
82.917
  20
70.300
  30
0.000
  0
VERTEX
  8
0
  6
CONTINUOUS
  10
83.017
  20
70.300
  30
0.000
  0
VERTEX
  8
0
  6
CONTINUOUS
  10
83.117
  20
70.300
  30
0.000
  0
VERTEX
  8
0
  6
CONTINUOUS
  10
83.233
  20
70.300
  30
0.000
  0
VERTEX
  8
0
  6
CONTINUOUS
  10
83.333
  20
70.300
  30
0.000
  0
VERTEX
  8
0
  6
CONTINUOUS
  10
83.433
  20
70.300
  30
0.000
  0
VERTEX
  8
0
  6
CONTINUOUS
  10
83.533
  20
70.317
  30
0.000
  0
VERTEX
  8
0
  6
CONTINUOUS
  10
83.650
  20
70.333
  30
0.000
  0
VERTEX
  8
0
  6
CONTINUOUS
  10
83.750
  20
70.350
  30
0.000
  0
VERTEX
  8
0
  6
CONTINUOUS
  10
83.850
  20
70.367
  30
0.000
  0
VERTEX
  8
0
  6
CONTINUOUS
  10
83.950
  20
70.367
  30
0.000
  0
VERTEX
  8
0
  6
CONTINUOUS
  10
84.067
  20
70.383
  30
0.000
  0
VERTEX
  8
0
  6
CONTINUOUS
  10
84.167
  20
70.383
  30
0.000
  0
VERTEX
  8
0
  6
CONTINUOUS
  10
84.267
  20
70.400
  30
0.000
  0
VERTEX
  8
0
  6
CONTINUOUS
  10
84.367
  20
70.417
  30
0.000
  0
VERTEX
  8
0
  6
CONTINUOUS
  10
84.483
  20
70.433
  30
0.000
  0
VERTEX
  8
0
  6
CONTINUOUS
  10
84.583
  20
70.450
  30
0.000
  0
VERTEX
  8
0
  6
CONTINUOUS
  10
84.683
  20
70.467
  30
0.000
  0
VERTEX
  8
0
  6
CONTINUOUS
  10
84.783
  20
70.500
  30
0.000
  0
VERTEX
  8
0
  6
CONTINUOUS
  10
84.900
  20
70.533
  30
0.000
  0
VERTEX
  8
0
  6
CONTINUOUS
  10
85.000
  20
70.550
  30
0.000
  0
VERTEX
  8
0
  6
CONTINUOUS
  10
85.100
  20
70.583
  30
0.000
  0
VERTEX
  8
0
  6
CONTINUOUS
  10
85.200
  20
70.583
  30
0.000
  0
VERTEX
  8
0
  6
CONTINUOUS
  10
85.317
  20
70.583
  30
0.000
  0
VERTEX
  8
0
  6
CONTINUOUS
  10
85.417
  20
70.583
  30
0.000
  0
VERTEX
  8
0
  6
CONTINUOUS
  10
85.517
  20
70.583
  30
0.000
  0
VERTEX
  8
0
  6
CONTINUOUS
  10
85.617
  20
70.583
  30
0.000
  0
VERTEX
  8
0
  6
CONTINUOUS
  10
85.733
  20
70.583
  30
0.000
  0
VERTEX
  8
0
  6
CONTINUOUS
  10
85.833
  20
70.583
  30
0.000
  0
VERTEX
  8
0
  6
CONTINUOUS
  10
85.933
  20
70.600
  30
0.000
  0
VERTEX
  8
0
  6
CONTINUOUS
  10
86.033
  20
70.650
  30
0.000
  0
VERTEX
  8
0
  6
CONTINUOUS
  10
86.150
  20
70.750
  30
0.000
  0
VERTEX
  8
0
  6
CONTINUOUS
  10
86.250
  20
70.850
  30
0.000
  0
VERTEX
  8
0
  6
CONTINUOUS
  10
86.350
  20
70.967
  30
0.000
  0
VERTEX
  8
0
  6
CONTINUOUS
  10
86.450
  20
71.100
  30
0.000
  0
VERTEX
  8
0
  6
CONTINUOUS
  10
86.567
  20
71.250
  30
0.000
  0
VERTEX
  8
0
  6
CONTINUOUS
  10
86.667
  20
71.383
  30
0.000
  0
VERTEX
  8
0
  6
CONTINUOUS
  10
86.767
  20
71.500
  30
0.000
  0
VERTEX
  8
0
  6
CONTINUOUS
  10
86.867
  20
71.600
  30
0.000
  0
VERTEX
  8
0
  6
CONTINUOUS
  10
86.983
  20
71.683
  30
0.000
  0
VERTEX
  8
0
  6
CONTINUOUS
  10
87.083
  20
71.733
  30
0.000
  0
VERTEX
  8
0
  6
CONTINUOUS
  10
87.183
  20
71.750
  30
0.000
  0
VERTEX
  8
0
  6
CONTINUOUS
  10
87.283
  20
71.750
  30
0.000
  0
VERTEX
  8
0
  6
CONTINUOUS
  10
87.400
  20
71.750
  30
0.000
  0
VERTEX
  8
0
  6
CONTINUOUS
  10
87.500
  20
71.750
  30
0.000
  0
VERTEX
  8
0
  6
CONTINUOUS
  10
87.600
  20
71.750
  30
0.000
  0
VERTEX
  8
0
  6
CONTINUOUS
  10
87.700
  20
71.750
  30
0.000
  0
VERTEX
  8
0
  6
CONTINUOUS
  10
87.817
  20
71.750
  30
0.000
  0
VERTEX
  8
0
  6
CONTINUOUS
  10
87.917
  20
71.750
  30
0.000
  0
VERTEX
  8
0
  6
CONTINUOUS
  10
88.017
  20
71.750
  30
0.000
  0
VERTEX
  8
0
  6
CONTINUOUS
  10
88.117
  20
71.750
  30
0.000
  0
VERTEX
  8
0
  6
CONTINUOUS
  10
88.233
  20
71.750
  30
0.000
  0
VERTEX
  8
0
  6
CONTINUOUS
  10
88.333
  20
71.750
  30
0.000
  0
VERTEX
  8
0
  6
CONTINUOUS
  10
88.433
  20
71.750
  30
0.000
  0
VERTEX
  8
0
  6
CONTINUOUS
  10
88.533
  20
71.750
  30
0.000
  0
VERTEX
  8
0
  6
CONTINUOUS
  10
88.650
  20
71.750
  30
0.000
  0
VERTEX
  8
0
  6
CONTINUOUS
  10
88.750
  20
71.750
  30
0.000
  0
VERTEX
  8
0
  6
CONTINUOUS
  10
88.850
  20
71.750
  30
0.000
  0
VERTEX
  8
0
  6
CONTINUOUS
  10
88.950
  20
71.750
  30
0.000
  0
VERTEX
  8
0
  6
CONTINUOUS
  10
89.067
  20
71.750
  30
0.000
  0
VERTEX
  8
0
  6
CONTINUOUS
  10
89.167
  20
71.750
  30
0.000
  0
VERTEX
  8
0
  6
CONTINUOUS
  10
89.267
  20
71.750
  30
0.000
  0
VERTEX
  8
0
  6
CONTINUOUS
  10
89.367
  20
71.750
  30
0.000
  0
VERTEX
  8
0
  6
CONTINUOUS
  10
89.483
  20
71.750
  30
0.000
  0
VERTEX
  8
0
  6
CONTINUOUS
  10
89.583
  20
71.750
  30
0.000
  0
VERTEX
  8
0
  6
CONTINUOUS
  10
89.683
  20
71.750
  30
0.000
  0
VERTEX
  8
0
  6
CONTINUOUS
  10
89.800
  20
71.750
  30
0.000
  0
VERTEX
  8
0
  6
CONTINUOUS
  10
89.900
  20
71.750
  30
0.000
  0
VERTEX
  8
0
  6
CONTINUOUS
  10
90.000
  20
71.750
  30
0.000
  0
VERTEX
  8
0
  6
CONTINUOUS
  10
90.100
  20
71.750
  30
0.000
  0
VERTEX
  8
0
  6
CONTINUOUS
  10
90.217
  20
71.750
  30
0.000
  0
VERTEX
  8
0
  6
CONTINUOUS
  10
90.317
  20
71.750
  30
0.000
  0
VERTEX
  8
0
  6
CONTINUOUS
  10
90.417
  20
71.750
  30
0.000
  0
VERTEX
  8
0
  6
CONTINUOUS
  10
90.517
  20
71.750
  30
0.000
  0
VERTEX
  8
0
  6
CONTINUOUS
  10
90.633
  20
71.750
  30
0.000
  0
VERTEX
  8
0
  6
CONTINUOUS
  10
90.733
  20
71.750
  30
0.000
  0
VERTEX
  8
0
  6
CONTINUOUS
  10
90.833
  20
71.750
  30
0.000
  0
VERTEX
  8
0
  6
CONTINUOUS
  10
90.933
  20
71.750
  30
0.000
  0
VERTEX
  8
0
  6
CONTINUOUS
  10
91.050
  20
71.750
  30
0.000
  0
VERTEX
  8
0
  6
CONTINUOUS
  10
91.150
  20
71.750
  30
0.000
  0
VERTEX
  8
0
  6
CONTINUOUS
  10
91.250
  20
71.750
  30
0.000
  0
VERTEX
  8
0
  6
CONTINUOUS
  10
91.350
  20
71.750
  30
0.000
  0
VERTEX
  8
0
  6
CONTINUOUS
  10
91.467
  20
71.750
  30
0.000
  0
VERTEX
  8
0
  6
CONTINUOUS
  10
91.567
  20
71.750
  30
0.000
  0
VERTEX
  8
0
  6
CONTINUOUS
  10
91.667
  20
71.750
  30
0.000
  0
VERTEX
  8
0
  6
CONTINUOUS
  10
91.767
  20
71.750
  30
0.000
  0
VERTEX
  8
0
  6
CONTINUOUS
  10
91.883
  20
71.750
  30
0.000
  0
VERTEX
  8
0
  6
CONTINUOUS
  10
91.983
  20
71.750
  30
0.000
  0
VERTEX
  8
0
  6
CONTINUOUS
  10
92.083
  20
71.750
  30
0.000
  0
VERTEX
  8
0
  6
CONTINUOUS
  10
92.183
  20
71.750
  30
0.000
  0
VERTEX
  8
0
  6
CONTINUOUS
  10
92.300
  20
71.750
  30
0.000
  0
VERTEX
  8
0
  6
CONTINUOUS
  10
92.400
  20
71.750
  30
0.000
  0
VERTEX
  8
0
  6
CONTINUOUS
  10
92.500
  20
71.750
  30
0.000
  0
VERTEX
  8
0
  6
CONTINUOUS
  10
92.600
  20
71.750
  30
0.000
  0
VERTEX
  8
0
  6
CONTINUOUS
  10
92.717
  20
71.750
  30
0.000
  0
VERTEX
  8
0
  6
CONTINUOUS
  10
92.817
  20
71.750
  30
0.000
  0
VERTEX
  8
0
  6
CONTINUOUS
  10
92.917
  20
71.750
  30
0.000
  0
VERTEX
  8
0
  6
CONTINUOUS
  10
93.017
  20
71.750
  30
0.000
  0
VERTEX
  8
0
  6
CONTINUOUS
  10
93.133
  20
71.750
  30
0.000
  0
VERTEX
  8
0
  6
CONTINUOUS
  10
93.233
  20
71.750
  30
0.000
  0
VERTEX
  8
0
  6
CONTINUOUS
  10
93.333
  20
71.750
  30
0.000
  0
VERTEX
  8
0
  6
CONTINUOUS
  10
93.433
  20
71.750
  30
0.000
  0
VERTEX
  8
0
  6
CONTINUOUS
  10
93.550
  20
71.750
  30
0.000
  0
VERTEX
  8
0
  6
CONTINUOUS
  10
93.650
  20
71.750
  30
0.000
  0
VERTEX
  8
0
  6
CONTINUOUS
  10
93.750
  20
71.767
  30
0.000
  0
VERTEX
  8
0
  6
CONTINUOUS
  10
93.850
  20
71.800
  30
0.000
  0
VERTEX
  8
0
  6
CONTINUOUS
  10
93.967
  20
71.833
  30
0.000
  0
VERTEX
  8
0
  6
CONTINUOUS
  10
94.067
  20
71.867
  30
0.000
  0
VERTEX
  8
0
  6
CONTINUOUS
  10
94.167
  20
71.900
  30
0.000
  0
VERTEX
  8
0
  6
CONTINUOUS
  10
94.267
  20
71.917
  30
0.000
  0
VERTEX
  8
0
  6
CONTINUOUS
  10
94.383
  20
71.950
  30
0.000
  0
VERTEX
  8
0
  6
CONTINUOUS
  10
94.483
  20
71.983
  30
0.000
  0
VERTEX
  8
0
  6
CONTINUOUS
  10
94.583
  20
72.000
  30
0.000
  0
VERTEX
  8
0
  6
CONTINUOUS
  10
94.683
  20
72.017
  30
0.000
  0
VERTEX
  8
0
  6
CONTINUOUS
  10
94.800
  20
72.017
  30
0.000
  0
VERTEX
  8
0
  6
CONTINUOUS
  10
94.900
  20
72.017
  30
0.000
  0
VERTEX
  8
0
  6
CONTINUOUS
  10
95.000
  20
72.017
  30
0.000
  0
VERTEX
  8
0
  6
CONTINUOUS
  10
95.100
  20
72.017
  30
0.000
  0
VERTEX
  8
0
  6
CONTINUOUS
  10
95.217
  20
72.017
  30
0.000
  0
VERTEX
  8
0
  6
CONTINUOUS
  10
95.317
  20
72.017
  30
0.000
  0
VERTEX
  8
0
  6
CONTINUOUS
  10
95.417
  20
72.017
  30
0.000
  0
VERTEX
  8
0
  6
CONTINUOUS
  10
95.517
  20
72.017
  30
0.000
  0
VERTEX
  8
0
  6
CONTINUOUS
  10
95.633
  20
72.017
  30
0.000
  0
VERTEX
  8
0
  6
CONTINUOUS
  10
95.733
  20
72.017
  30
0.000
  0
VERTEX
  8
0
  6
CONTINUOUS
  10
95.833
  20
72.017
  30
0.000
  0
VERTEX
  8
0
  6
CONTINUOUS
  10
95.933
  20
72.017
  30
0.000
  0
VERTEX
  8
0
  6
CONTINUOUS
  10
96.050
  20
72.017
  30
0.000
  0
VERTEX
  8
0
  6
CONTINUOUS
  10
96.150
  20
72.017
  30
0.000
  0
VERTEX
  8
0
  6
CONTINUOUS
  10
96.250
  20
72.017
  30
0.000
  0
VERTEX
  8
0
  6
CONTINUOUS
  10
96.350
  20
72.017
  30
0.000
  0
VERTEX
  8
0
  6
CONTINUOUS
  10
96.467
  20
72.017
  30
0.000
  0
VERTEX
  8
0
  6
CONTINUOUS
  10
96.567
  20
72.017
  30
0.000
  0
VERTEX
  8
0
  6
CONTINUOUS
  10
96.667
  20
72.017
  30
0.000
  0
VERTEX
  8
0
  6
CONTINUOUS
  10
96.767
  20
72.017
  30
0.000
  0
VERTEX
  8
0
  6
CONTINUOUS
  10
96.883
  20
72.017
  30
0.000
  0
VERTEX
  8
0
  6
CONTINUOUS
  10
96.983
  20
72.017
  30
0.000
  0
VERTEX
  8
0
  6
CONTINUOUS
  10
97.083
  20
72.017
  30
0.000
  0
VERTEX
  8
0
  6
CONTINUOUS
  10
97.183
  20
72.017
  30
0.000
  0
VERTEX
  8
0
  6
CONTINUOUS
  10
97.300
  20
72.017
  30
0.000
  0
VERTEX
  8
0
  6
CONTINUOUS
  10
97.400
  20
72.017
  30
0.000
  0
VERTEX
  8
0
  6
CONTINUOUS
  10
97.500
  20
72.017
  30
0.000
  0
VERTEX
  8
0
  6
CONTINUOUS
  10
97.600
  20
72.017
  30
0.000
  0
VERTEX
  8
0
  6
CONTINUOUS
  10
97.717
  20
72.017
  30
0.000
  0
VERTEX
  8
0
  6
CONTINUOUS
  10
97.817
  20
72.017
  30
0.000
  0
VERTEX
  8
0
  6
CONTINUOUS
  10
97.917
  20
72.033
  30
0.000
  0
VERTEX
  8
0
  6
CONTINUOUS
  10
98.017
  20
72.033
  30
0.000
  0
VERTEX
  8
0
  6
CONTINUOUS
  10
98.133
  20
72.050
  30
0.000
  0
VERTEX
  8
0
  6
CONTINUOUS
  10
98.233
  20
72.050
  30
0.000
  0
VERTEX
  8
0
  6
CONTINUOUS
  10
98.333
  20
72.050
  30
0.000
  0
VERTEX
  8
0
  6
CONTINUOUS
  10
98.433
  20
72.050
  30
0.000
  0
VERTEX
  8
0
  6
CONTINUOUS
  10
98.550
  20
72.050
  30
0.000
  0
VERTEX
  8
0
  6
CONTINUOUS
  10
98.650
  20
72.050
  30
0.000
  0
VERTEX
  8
0
  6
CONTINUOUS
  10
98.750
  20
72.050
  30
0.000
  0
VERTEX
  8
0
  6
CONTINUOUS
  10
98.850
  20
72.050
  30
0.000
  0
VERTEX
  8
0
  6
CONTINUOUS
  10
98.967
  20
72.050
  30
0.000
  0
VERTEX
  8
0
  6
CONTINUOUS
  10
99.067
  20
72.050
  30
0.000
  0
VERTEX
  8
0
  6
CONTINUOUS
  10
99.167
  20
72.050
  30
0.000
  0
VERTEX
  8
0
  6
CONTINUOUS
  10
99.267
  20
72.050
  30
0.000
  0
VERTEX
  8
0
  6
CONTINUOUS
  10
99.383
  20
72.050
  30
0.000
  0
VERTEX
  8
0
  6
CONTINUOUS
  10
99.483
  20
72.050
  30
0.000
  0
VERTEX
  8
0
  6
CONTINUOUS
  10
99.583
  20
72.050
  30
0.000
  0
VERTEX
  8
0
  6
CONTINUOUS
  10
99.683
  20
72.050
  30
0.000
  0
VERTEX
  8
0
  6
CONTINUOUS
  10
99.800
  20
72.050
  30
0.000
  0
VERTEX
  8
0
  6
CONTINUOUS
  10
99.900
  20
72.050
  30
0.000
  0
VERTEX
  8
0
  6
CONTINUOUS
  10
100.000
  20
72.050
  30
0.000
  0
VERTEX
  8
0
  6
CONTINUOUS
  10
100.100
  20
72.050
  30
0.000
  0
VERTEX
  8
0
  6
CONTINUOUS
  10
100.217
  20
72.050
  30
0.000
  0
VERTEX
  8
0
  6
CONTINUOUS
  10
100.317
  20
72.050
  30
0.000
  0
VERTEX
  8
0
  6
CONTINUOUS
  10
100.417
  20
72.050
  30
0.000
  0
VERTEX
  8
0
  6
CONTINUOUS
  10
100.517
  20
72.050
  30
0.000
  0
VERTEX
  8
0
  6
CONTINUOUS
  10
100.633
  20
72.050
  30
0.000
  0
VERTEX
  8
0
  6
CONTINUOUS
  10
100.733
  20
72.050
  30
0.000
  0
VERTEX
  8
0
  6
CONTINUOUS
  10
100.833
  20
72.050
  30
0.000
  0
VERTEX
  8
0
  6
CONTINUOUS
  10
100.933
  20
72.050
  30
0.000
  0
VERTEX
  8
0
  6
CONTINUOUS
  10
101.050
  20
72.050
  30
0.000
  0
VERTEX
  8
0
  6
CONTINUOUS
  10
101.150
  20
72.050
  30
0.000
  0
VERTEX
  8
0
  6
CONTINUOUS
  10
101.250
  20
72.050
  30
0.000
  0
VERTEX
  8
0
  6
CONTINUOUS
  10
101.350
  20
72.050
  30
0.000
  0
VERTEX
  8
0
  6
CONTINUOUS
  10
101.467
  20
72.050
  30
0.000
  0
VERTEX
  8
0
  6
CONTINUOUS
  10
101.567
  20
72.050
  30
0.000
  0
VERTEX
  8
0
  6
CONTINUOUS
  10
101.667
  20
72.050
  30
0.000
  0
VERTEX
  8
0
  6
CONTINUOUS
  10
101.767
  20
72.050
  30
0.000
  0
VERTEX
  8
0
  6
CONTINUOUS
  10
101.883
  20
72.083
  30
0.000
  0
VERTEX
  8
0
  6
CONTINUOUS
  10
101.983
  20
72.133
  30
0.000
  0
VERTEX
  8
0
  6
CONTINUOUS
  10
102.083
  20
72.200
  30
0.000
  0
VERTEX
  8
0
  6
CONTINUOUS
  10
102.183
  20
72.267
  30
0.000
  0
VERTEX
  8
0
  6
CONTINUOUS
  10
102.300
  20
72.317
  30
0.000
  0
VERTEX
  8
0
  6
CONTINUOUS
  10
102.400
  20
72.367
  30
0.000
  0
VERTEX
  8
0
  6
CONTINUOUS
  10
102.500
  20
72.417
  30
0.000
  0
VERTEX
  8
0
  6
CONTINUOUS
  10
102.617
  20
72.433
  30
0.000
  0
VERTEX
  8
0
  6
CONTINUOUS
  10
102.717
  20
72.433
  30
0.000
  0
VERTEX
  8
0
  6
CONTINUOUS
  10
102.817
  20
72.433
  30
0.000
  0
VERTEX
  8
0
  6
CONTINUOUS
  10
102.917
  20
72.433
  30
0.000
  0
VERTEX
  8
0
  6
CONTINUOUS
  10
103.033
  20
72.433
  30
0.000
  0
VERTEX
  8
0
  6
CONTINUOUS
  10
103.133
  20
72.433
  30
0.000
  0
VERTEX
  8
0
  6
CONTINUOUS
  10
103.233
  20
72.433
  30
0.000
  0
VERTEX
  8
0
  6
CONTINUOUS
  10
103.333
  20
72.433
  30
0.000
  0
VERTEX
  8
0
  6
CONTINUOUS
  10
103.450
  20
72.433
  30
0.000
  0
VERTEX
  8
0
  6
CONTINUOUS
  10
103.550
  20
72.433
  30
0.000
  0
VERTEX
  8
0
  6
CONTINUOUS
  10
103.650
  20
72.433
  30
0.000
  0
VERTEX
  8
0
  6
CONTINUOUS
  10
103.750
  20
72.433
  30
0.000
  0
VERTEX
  8
0
  6
CONTINUOUS
  10
103.867
  20
72.433
  30
0.000
  0
VERTEX
  8
0
  6
CONTINUOUS
  10
103.967
  20
72.433
  30
0.000
  0
VERTEX
  8
0
  6
CONTINUOUS
  10
104.067
  20
72.433
  30
0.000
  0
VERTEX
  8
0
  6
CONTINUOUS
  10
104.167
  20
72.433
  30
0.000
  0
VERTEX
  8
0
  6
CONTINUOUS
  10
104.283
  20
72.433
  30
0.000
  0
VERTEX
  8
0
  6
CONTINUOUS
  10
104.383
  20
72.433
  30
0.000
  0
VERTEX
  8
0
  6
CONTINUOUS
  10
104.483
  20
72.433
  30
0.000
  0
VERTEX
  8
0
  6
CONTINUOUS
  10
104.583
  20
72.433
  30
0.000
  0
VERTEX
  8
0
  6
CONTINUOUS
  10
104.700
  20
72.433
  30
0.000
  0
VERTEX
  8
0
  6
CONTINUOUS
  10
104.800
  20
72.450
  30
0.000
  0
VERTEX
  8
0
  6
CONTINUOUS
  10
104.900
  20
72.467
  30
0.000
  0
VERTEX
  8
0
  6
CONTINUOUS
  10
105.000
  20
72.483
  30
0.000
  0
VERTEX
  8
0
  6
CONTINUOUS
  10
105.117
  20
72.517
  30
0.000
  0
VERTEX
  8
0
  6
CONTINUOUS
  10
105.217
  20
72.517
  30
0.000
  0
VERTEX
  8
0
  6
CONTINUOUS
  10
105.317
  20
72.533
  30
0.000
  0
VERTEX
  8
0
  6
CONTINUOUS
  10
105.417
  20
72.533
  30
0.000
  0
VERTEX
  8
0
  6
CONTINUOUS
  10
105.533
  20
72.533
  30
0.000
  0
VERTEX
  8
0
  6
CONTINUOUS
  10
105.633
  20
72.533
  30
0.000
  0
VERTEX
  8
0
  6
CONTINUOUS
  10
105.733
  20
72.533
  30
0.000
  0
VERTEX
  8
0
  6
CONTINUOUS
  10
105.833
  20
72.533
  30
0.000
  0
VERTEX
  8
0
  6
CONTINUOUS
  10
105.950
  20
72.533
  30
0.000
  0
VERTEX
  8
0
  6
CONTINUOUS
  10
106.050
  20
72.533
  30
0.000
  0
VERTEX
  8
0
  6
CONTINUOUS
  10
106.150
  20
72.533
  30
0.000
  0
VERTEX
  8
0
  6
CONTINUOUS
  10
106.250
  20
72.533
  30
0.000
  0
VERTEX
  8
0
  6
CONTINUOUS
  10
106.367
  20
72.533
  30
0.000
  0
VERTEX
  8
0
  6
CONTINUOUS
  10
106.467
  20
72.533
  30
0.000
  0
VERTEX
  8
0
  6
CONTINUOUS
  10
106.567
  20
72.533
  30
0.000
  0
VERTEX
  8
0
  6
CONTINUOUS
  10
106.667
  20
72.533
  30
0.000
  0
VERTEX
  8
0
  6
CONTINUOUS
  10
106.783
  20
72.533
  30
0.000
  0
VERTEX
  8
0
  6
CONTINUOUS
  10
106.883
  20
72.533
  30
0.000
  0
VERTEX
  8
0
  6
CONTINUOUS
  10
106.983
  20
72.533
  30
0.000
  0
VERTEX
  8
0
  6
CONTINUOUS
  10
107.083
  20
72.533
  30
0.000
  0
VERTEX
  8
0
  6
CONTINUOUS
  10
107.200
  20
72.533
  30
0.000
  0
VERTEX
  8
0
  6
CONTINUOUS
  10
107.300
  20
72.533
  30
0.000
  0
VERTEX
  8
0
  6
CONTINUOUS
  10
107.400
  20
72.533
  30
0.000
  0
VERTEX
  8
0
  6
CONTINUOUS
  10
107.500
  20
72.533
  30
0.000
  0
VERTEX
  8
0
  6
CONTINUOUS
  10
107.617
  20
72.533
  30
0.000
  0
VERTEX
  8
0
  6
CONTINUOUS
  10
107.717
  20
72.533
  30
0.000
  0
VERTEX
  8
0
  6
CONTINUOUS
  10
107.817
  20
72.533
  30
0.000
  0
VERTEX
  8
0
  6
CONTINUOUS
  10
107.917
  20
72.533
  30
0.000
  0
VERTEX
  8
0
  6
CONTINUOUS
  10
108.033
  20
72.533
  30
0.000
  0
VERTEX
  8
0
  6
CONTINUOUS
  10
108.133
  20
72.550
  30
0.000
  0
VERTEX
  8
0
  6
CONTINUOUS
  10
108.233
  20
72.550
  30
0.000
  0
VERTEX
  8
0
  6
CONTINUOUS
  10
108.333
  20
72.550
  30
0.000
  0
VERTEX
  8
0
  6
CONTINUOUS
  10
108.450
  20
72.550
  30
0.000
  0
VERTEX
  8
0
  6
CONTINUOUS
  10
108.550
  20
72.550
  30
0.000
  0
VERTEX
  8
0
  6
CONTINUOUS
  10
108.650
  20
72.550
  30
0.000
  0
VERTEX
  8
0
  6
CONTINUOUS
  10
108.750
  20
72.550
  30
0.000
  0
VERTEX
  8
0
  6
CONTINUOUS
  10
108.867
  20
72.550
  30
0.000
  0
VERTEX
  8
0
  6
CONTINUOUS
  10
108.967
  20
72.550
  30
0.000
  0
VERTEX
  8
0
  6
CONTINUOUS
  10
109.067
  20
72.550
  30
0.000
  0
VERTEX
  8
0
  6
CONTINUOUS
  10
109.167
  20
72.550
  30
0.000
  0
VERTEX
  8
0
  6
CONTINUOUS
  10
109.283
  20
72.550
  30
0.000
  0
VERTEX
  8
0
  6
CONTINUOUS
  10
109.383
  20
72.550
  30
0.000
  0
VERTEX
  8
0
  6
CONTINUOUS
  10
109.483
  20
72.550
  30
0.000
  0
VERTEX
  8
0
  6
CONTINUOUS
  10
109.583
  20
72.550
  30
0.000
  0
VERTEX
  8
0
  6
CONTINUOUS
  10
109.700
  20
72.550
  30
0.000
  0
VERTEX
  8
0
  6
CONTINUOUS
  10
109.800
  20
72.550
  30
0.000
  0
VERTEX
  8
0
  6
CONTINUOUS
  10
109.900
  20
72.550
  30
0.000
  0
VERTEX
  8
0
  6
CONTINUOUS
  10
110.000
  20
72.550
  30
0.000
  0
VERTEX
  8
0
  6
CONTINUOUS
  10
110.117
  20
72.550
  30
0.000
  0
VERTEX
  8
0
  6
CONTINUOUS
  10
110.217
  20
72.550
  30
0.000
  0
VERTEX
  8
0
  6
CONTINUOUS
  10
110.317
  20
72.550
  30
0.000
  0
VERTEX
  8
0
  6
CONTINUOUS
  10
110.417
  20
72.550
  30
0.000
  0
VERTEX
  8
0
  6
CONTINUOUS
  10
110.533
  20
72.550
  30
0.000
  0
VERTEX
  8
0
  6
CONTINUOUS
  10
110.633
  20
72.550
  30
0.000
  0
VERTEX
  8
0
  6
CONTINUOUS
  10
110.733
  20
72.550
  30
0.000
  0
VERTEX
  8
0
  6
CONTINUOUS
  10
110.833
  20
72.550
  30
0.000
  0
VERTEX
  8
0
  6
CONTINUOUS
  10
110.950
  20
72.567
  30
0.000
  0
VERTEX
  8
0
  6
CONTINUOUS
  10
111.050
  20
72.567
  30
0.000
  0
VERTEX
  8
0
  6
CONTINUOUS
  10
111.150
  20
72.567
  30
0.000
  0
VERTEX
  8
0
  6
CONTINUOUS
  10
111.250
  20
72.567
  30
0.000
  0
VERTEX
  8
0
  6
CONTINUOUS
  10
111.367
  20
72.567
  30
0.000
  0
VERTEX
  8
0
  6
CONTINUOUS
  10
111.467
  20
72.567
  30
0.000
  0
VERTEX
  8
0
  6
CONTINUOUS
  10
111.567
  20
72.567
  30
0.000
  0
VERTEX
  8
0
  6
CONTINUOUS
  10
111.667
  20
72.567
  30
0.000
  0
VERTEX
  8
0
  6
CONTINUOUS
  10
111.783
  20
72.567
  30
0.000
  0
VERTEX
  8
0
  6
CONTINUOUS
  10
111.883
  20
72.567
  30
0.000
  0
VERTEX
  8
0
  6
CONTINUOUS
  10
111.983
  20
72.567
  30
0.000
  0
VERTEX
  8
0
  6
CONTINUOUS
  10
112.083
  20
72.567
  30
0.000
  0
VERTEX
  8
0
  6
CONTINUOUS
  10
112.200
  20
72.567
  30
0.000
  0
VERTEX
  8
0
  6
CONTINUOUS
  10
112.300
  20
72.567
  30
0.000
  0
VERTEX
  8
0
  6
CONTINUOUS
  10
112.400
  20
72.567
  30
0.000
  0
VERTEX
  8
0
  6
CONTINUOUS
  10
112.500
  20
72.567
  30
0.000
  0
VERTEX
  8
0
  6
CONTINUOUS
  10
112.617
  20
72.567
  30
0.000
  0
VERTEX
  8
0
  6
CONTINUOUS
  10
112.717
  20
72.567
  30
0.000
  0
VERTEX
  8
0
  6
CONTINUOUS
  10
112.817
  20
72.567
  30
0.000
  0
VERTEX
  8
0
  6
CONTINUOUS
  10
112.917
  20
72.567
  30
0.000
  0
VERTEX
  8
0
  6
CONTINUOUS
  10
113.033
  20
72.567
  30
0.000
  0
VERTEX
  8
0
  6
CONTINUOUS
  10
113.133
  20
72.567
  30
0.000
  0
VERTEX
  8
0
  6
CONTINUOUS
  10
113.233
  20
72.567
  30
0.000
  0
VERTEX
  8
0
  6
CONTINUOUS
  10
113.333
  20
72.567
  30
0.000
  0
VERTEX
  8
0
  6
CONTINUOUS
  10
113.450
  20
72.567
  30
0.000
  0
VERTEX
  8
0
  6
CONTINUOUS
  10
113.550
  20
72.567
  30
0.000
  0
VERTEX
  8
0
  6
CONTINUOUS
  10
113.650
  20
72.567
  30
0.000
  0
VERTEX
  8
0
  6
CONTINUOUS
  10
113.750
  20
72.567
  30
0.000
  0
VERTEX
  8
0
  6
CONTINUOUS
  10
113.867
  20
72.567
  30
0.000
  0
VERTEX
  8
0
  6
CONTINUOUS
  10
113.967
  20
72.567
  30
0.000
  0
VERTEX
  8
0
  6
CONTINUOUS
  10
114.067
  20
72.567
  30
0.000
  0
VERTEX
  8
0
  6
CONTINUOUS
  10
114.167
  20
72.567
  30
0.000
  0
VERTEX
  8
0
  6
CONTINUOUS
  10
114.283
  20
72.567
  30
0.000
  0
VERTEX
  8
0
  6
CONTINUOUS
  10
114.383
  20
72.567
  30
0.000
  0
VERTEX
  8
0
  6
CONTINUOUS
  10
114.483
  20
72.567
  30
0.000
  0
VERTEX
  8
0
  6
CONTINUOUS
  10
114.583
  20
72.567
  30
0.000
  0
VERTEX
  8
0
  6
CONTINUOUS
  10
114.700
  20
72.567
  30
0.000
  0
VERTEX
  8
0
  6
CONTINUOUS
  10
114.800
  20
72.567
  30
0.000
  0
VERTEX
  8
0
  6
CONTINUOUS
  10
114.900
  20
72.583
  30
0.000
  0
VERTEX
  8
0
  6
CONTINUOUS
  10
115.000
  20
72.583
  30
0.000
  0
VERTEX
  8
0
  6
CONTINUOUS
  10
115.117
  20
72.583
  30
0.000
  0
VERTEX
  8
0
  6
CONTINUOUS
  10
115.217
  20
72.583
  30
0.000
  0
VERTEX
  8
0
  6
CONTINUOUS
  10
115.317
  20
72.583
  30
0.000
  0
VERTEX
  8
0
  6
CONTINUOUS
  10
115.417
  20
72.583
  30
0.000
  0
VERTEX
  8
0
  6
CONTINUOUS
  10
115.533
  20
72.583
  30
0.000
  0
SEQEND
  0
TEXT
  8
0
 10
92.183
 20
7.513 
 30
0.000
 40
1.456 
  1
2nd story
 50
0.000 
  7
STANDARD
 72
2
 11
102.767
 21
7.513 
 31
0.000
  0
POLYLINE
  8
1
 66
   1
  6
DASHED
  0
VERTEX
  8
1
  6
DASHED
 10
104.433
 20
8.033 
 30
0.000
  0
VERTEX
  8
1
  6
DASHED
  10
112.300
  20
8.033 
  30
0.000
  0
SEQEND
  0
POLYLINE
  8
1
 66
   1
  6
DASHED
  0
VERTEX
  8
1
  6
DASHED
 10
11.533
 20
6.200 
 30
0.000
  0
VERTEX
  8
1
  6
DASHED
  10
11.533
  20
6.200 
  30
0.000
  0
VERTEX
  8
1
  6
DASHED
  10
11.650
  20
6.200 
  30
0.000
  0
VERTEX
  8
1
  6
DASHED
  10
11.750
  20
6.200 
  30
0.000
  0
VERTEX
  8
1
  6
DASHED
  10
11.850
  20
6.200 
  30
0.000
  0
VERTEX
  8
1
  6
DASHED
  10
11.950
  20
6.200 
  30
0.000
  0
VERTEX
  8
1
  6
DASHED
  10
12.067
  20
6.200 
  30
0.000
  0
VERTEX
  8
1
  6
DASHED
  10
12.167
  20
6.200 
  30
0.000
  0
VERTEX
  8
1
  6
DASHED
  10
12.267
  20
6.200 
  30
0.000
  0
VERTEX
  8
1
  6
DASHED
  10
12.367
  20
6.200 
  30
0.000
  0
VERTEX
  8
1
  6
DASHED
  10
12.483
  20
6.200 
  30
0.000
  0
VERTEX
  8
1
  6
DASHED
  10
12.583
  20
6.200 
  30
0.000
  0
VERTEX
  8
1
  6
DASHED
  10
12.683
  20
6.200 
  30
0.000
  0
VERTEX
  8
1
  6
DASHED
  10
12.783
  20
6.200 
  30
0.000
  0
VERTEX
  8
1
  6
DASHED
  10
12.900
  20
6.200 
  30
0.000
  0
VERTEX
  8
1
  6
DASHED
  10
13.000
  20
6.200 
  30
0.000
  0
VERTEX
  8
1
  6
DASHED
  10
13.100
  20
6.200 
  30
0.000
  0
VERTEX
  8
1
  6
DASHED
  10
13.200
  20
6.200 
  30
0.000
  0
VERTEX
  8
1
  6
DASHED
  10
13.317
  20
6.200 
  30
0.000
  0
VERTEX
  8
1
  6
DASHED
  10
13.417
  20
6.200 
  30
0.000
  0
VERTEX
  8
1
  6
DASHED
  10
13.517
  20
6.200 
  30
0.000
  0
VERTEX
  8
1
  6
DASHED
  10
13.617
  20
6.200 
  30
0.000
  0
VERTEX
  8
1
  6
DASHED
  10
13.733
  20
6.200 
  30
0.000
  0
VERTEX
  8
1
  6
DASHED
  10
13.833
  20
6.200 
  30
0.000
  0
VERTEX
  8
1
  6
DASHED
  10
13.933
  20
6.200 
  30
0.000
  0
VERTEX
  8
1
  6
DASHED
  10
14.033
  20
6.200 
  30
0.000
  0
VERTEX
  8
1
  6
DASHED
  10
14.150
  20
6.200 
  30
0.000
  0
VERTEX
  8
1
  6
DASHED
  10
14.250
  20
6.200 
  30
0.000
  0
VERTEX
  8
1
  6
DASHED
  10
14.350
  20
6.200 
  30
0.000
  0
VERTEX
  8
1
  6
DASHED
  10
14.450
  20
6.200 
  30
0.000
  0
VERTEX
  8
1
  6
DASHED
  10
14.567
  20
6.200 
  30
0.000
  0
VERTEX
  8
1
  6
DASHED
  10
14.667
  20
6.200 
  30
0.000
  0
VERTEX
  8
1
  6
DASHED
  10
14.767
  20
6.200 
  30
0.000
  0
VERTEX
  8
1
  6
DASHED
  10
14.867
  20
6.200 
  30
0.000
  0
VERTEX
  8
1
  6
DASHED
  10
14.983
  20
6.200 
  30
0.000
  0
VERTEX
  8
1
  6
DASHED
  10
15.083
  20
6.200 
  30
0.000
  0
VERTEX
  8
1
  6
DASHED
  10
15.183
  20
6.200 
  30
0.000
  0
VERTEX
  8
1
  6
DASHED
  10
15.283
  20
6.200 
  30
0.000
  0
VERTEX
  8
1
  6
DASHED
  10
15.400
  20
6.200 
  30
0.000
  0
VERTEX
  8
1
  6
DASHED
  10
15.500
  20
6.200 
  30
0.000
  0
VERTEX
  8
1
  6
DASHED
  10
15.600
  20
6.200 
  30
0.000
  0
VERTEX
  8
1
  6
DASHED
  10
15.700
  20
6.200 
  30
0.000
  0
VERTEX
  8
1
  6
DASHED
  10
15.817
  20
6.200 
  30
0.000
  0
VERTEX
  8
1
  6
DASHED
  10
15.917
  20
6.200 
  30
0.000
  0
VERTEX
  8
1
  6
DASHED
  10
16.017
  20
6.200 
  30
0.000
  0
VERTEX
  8
1
  6
DASHED
  10
16.117
  20
6.200 
  30
0.000
  0
VERTEX
  8
1
  6
DASHED
  10
16.233
  20
6.200 
  30
0.000
  0
VERTEX
  8
1
  6
DASHED
  10
16.333
  20
6.200 
  30
0.000
  0
VERTEX
  8
1
  6
DASHED
  10
16.433
  20
6.200 
  30
0.000
  0
VERTEX
  8
1
  6
DASHED
  10
16.533
  20
6.200 
  30
0.000
  0
VERTEX
  8
1
  6
DASHED
  10
16.650
  20
6.200 
  30
0.000
  0
VERTEX
  8
1
  6
DASHED
  10
16.750
  20
6.200 
  30
0.000
  0
VERTEX
  8
1
  6
DASHED
  10
16.850
  20
6.200 
  30
0.000
  0
VERTEX
  8
1
  6
DASHED
  10
16.950
  20
6.200 
  30
0.000
  0
VERTEX
  8
1
  6
DASHED
  10
17.067
  20
6.200 
  30
0.000
  0
VERTEX
  8
1
  6
DASHED
  10
17.167
  20
6.200 
  30
0.000
  0
VERTEX
  8
1
  6
DASHED
  10
17.267
  20
6.217 
  30
0.000
  0
VERTEX
  8
1
  6
DASHED
  10
17.367
  20
6.217 
  30
0.000
  0
VERTEX
  8
1
  6
DASHED
  10
17.483
  20
6.217 
  30
0.000
  0
VERTEX
  8
1
  6
DASHED
  10
17.583
  20
6.217 
  30
0.000
  0
VERTEX
  8
1
  6
DASHED
  10
17.683
  20
6.217 
  30
0.000
  0
VERTEX
  8
1
  6
DASHED
  10
17.783
  20
6.217 
  30
0.000
  0
VERTEX
  8
1
  6
DASHED
  10
17.900
  20
6.217 
  30
0.000
  0
VERTEX
  8
1
  6
DASHED
  10
18.000
  20
6.217 
  30
0.000
  0
VERTEX
  8
1
  6
DASHED
  10
18.100
  20
6.217 
  30
0.000
  0
VERTEX
  8
1
  6
DASHED
  10
18.200
  20
6.217 
  30
0.000
  0
VERTEX
  8
1
  6
DASHED
  10
18.317
  20
6.217 
  30
0.000
  0
VERTEX
  8
1
  6
DASHED
  10
18.417
  20
6.217 
  30
0.000
  0
VERTEX
  8
1
  6
DASHED
  10
18.517
  20
6.217 
  30
0.000
  0
VERTEX
  8
1
  6
DASHED
  10
18.617
  20
6.217 
  30
0.000
  0
VERTEX
  8
1
  6
DASHED
  10
18.733
  20
6.217 
  30
0.000
  0
VERTEX
  8
1
  6
DASHED
  10
18.833
  20
6.217 
  30
0.000
  0
VERTEX
  8
1
  6
DASHED
  10
18.933
  20
6.217 
  30
0.000
  0
VERTEX
  8
1
  6
DASHED
  10
19.033
  20
6.217 
  30
0.000
  0
VERTEX
  8
1
  6
DASHED
  10
19.150
  20
6.217 
  30
0.000
  0
VERTEX
  8
1
  6
DASHED
  10
19.250
  20
6.217 
  30
0.000
  0
VERTEX
  8
1
  6
DASHED
  10
19.350
  20
6.217 
  30
0.000
  0
VERTEX
  8
1
  6
DASHED
  10
19.450
  20
6.217 
  30
0.000
  0
VERTEX
  8
1
  6
DASHED
  10
19.567
  20
6.217 
  30
0.000
  0
VERTEX
  8
1
  6
DASHED
  10
19.667
  20
6.217 
  30
0.000
  0
VERTEX
  8
1
  6
DASHED
  10
19.767
  20
6.217 
  30
0.000
  0
VERTEX
  8
1
  6
DASHED
  10
19.867
  20
6.217 
  30
0.000
  0
VERTEX
  8
1
  6
DASHED
  10
19.983
  20
6.217 
  30
0.000
  0
VERTEX
  8
1
  6
DASHED
  10
20.083
  20
6.217 
  30
0.000
  0
VERTEX
  8
1
  6
DASHED
  10
20.183
  20
6.217 
  30
0.000
  0
VERTEX
  8
1
  6
DASHED
  10
20.283
  20
6.217 
  30
0.000
  0
VERTEX
  8
1
  6
DASHED
  10
20.400
  20
6.217 
  30
0.000
  0
VERTEX
  8
1
  6
DASHED
  10
20.500
  20
6.217 
  30
0.000
  0
VERTEX
  8
1
  6
DASHED
  10
20.600
  20
6.217 
  30
0.000
  0
VERTEX
  8
1
  6
DASHED
  10
20.700
  20
6.217 
  30
0.000
  0
VERTEX
  8
1
  6
DASHED
  10
20.817
  20
6.217 
  30
0.000
  0
VERTEX
  8
1
  6
DASHED
  10
20.917
  20
6.217 
  30
0.000
  0
VERTEX
  8
1
  6
DASHED
  10
21.017
  20
6.217 
  30
0.000
  0
VERTEX
  8
1
  6
DASHED
  10
21.117
  20
6.217 
  30
0.000
  0
VERTEX
  8
1
  6
DASHED
  10
21.233
  20
6.217 
  30
0.000
  0
VERTEX
  8
1
  6
DASHED
  10
21.333
  20
6.217 
  30
0.000
  0
VERTEX
  8
1
  6
DASHED
  10
21.433
  20
6.217 
  30
0.000
  0
VERTEX
  8
1
  6
DASHED
  10
21.533
  20
6.217 
  30
0.000
  0
VERTEX
  8
1
  6
DASHED
  10
21.650
  20
6.217 
  30
0.000
  0
VERTEX
  8
1
  6
DASHED
  10
21.750
  20
6.217 
  30
0.000
  0
VERTEX
  8
1
  6
DASHED
  10
21.850
  20
6.217 
  30
0.000
  0
VERTEX
  8
1
  6
DASHED
  10
21.950
  20
6.217 
  30
0.000
  0
VERTEX
  8
1
  6
DASHED
  10
22.067
  20
6.217 
  30
0.000
  0
VERTEX
  8
1
  6
DASHED
  10
22.167
  20
6.217 
  30
0.000
  0
VERTEX
  8
1
  6
DASHED
  10
22.267
  20
6.217 
  30
0.000
  0
VERTEX
  8
1
  6
DASHED
  10
22.367
  20
6.217 
  30
0.000
  0
VERTEX
  8
1
  6
DASHED
  10
22.483
  20
6.217 
  30
0.000
  0
VERTEX
  8
1
  6
DASHED
  10
22.583
  20
6.217 
  30
0.000
  0
VERTEX
  8
1
  6
DASHED
  10
22.683
  20
6.217 
  30
0.000
  0
VERTEX
  8
1
  6
DASHED
  10
22.783
  20
6.217 
  30
0.000
  0
VERTEX
  8
1
  6
DASHED
  10
22.900
  20
6.217 
  30
0.000
  0
VERTEX
  8
1
  6
DASHED
  10
23.000
  20
6.217 
  30
0.000
  0
VERTEX
  8
1
  6
DASHED
  10
23.100
  20
6.217 
  30
0.000
  0
VERTEX
  8
1
  6
DASHED
  10
23.200
  20
6.217 
  30
0.000
  0
VERTEX
  8
1
  6
DASHED
  10
23.317
  20
6.217 
  30
0.000
  0
VERTEX
  8
1
  6
DASHED
  10
23.417
  20
6.217 
  30
0.000
  0
VERTEX
  8
1
  6
DASHED
  10
23.517
  20
6.217 
  30
0.000
  0
VERTEX
  8
1
  6
DASHED
  10
23.617
  20
6.217 
  30
0.000
  0
VERTEX
  8
1
  6
DASHED
  10
23.733
  20
6.217 
  30
0.000
  0
VERTEX
  8
1
  6
DASHED
  10
23.833
  20
6.217 
  30
0.000
  0
VERTEX
  8
1
  6
DASHED
  10
23.933
  20
6.217 
  30
0.000
  0
VERTEX
  8
1
  6
DASHED
  10
24.033
  20
6.217 
  30
0.000
  0
VERTEX
  8
1
  6
DASHED
  10
24.150
  20
6.217 
  30
0.000
  0
VERTEX
  8
1
  6
DASHED
  10
24.250
  20
6.217 
  30
0.000
  0
VERTEX
  8
1
  6
DASHED
  10
24.350
  20
6.217 
  30
0.000
  0
VERTEX
  8
1
  6
DASHED
  10
24.467
  20
6.217 
  30
0.000
  0
VERTEX
  8
1
  6
DASHED
  10
24.567
  20
6.217 
  30
0.000
  0
VERTEX
  8
1
  6
DASHED
  10
24.667
  20
6.217 
  30
0.000
  0
VERTEX
  8
1
  6
DASHED
  10
24.767
  20
6.217 
  30
0.000
  0
VERTEX
  8
1
  6
DASHED
  10
24.883
  20
6.217 
  30
0.000
  0
VERTEX
  8
1
  6
DASHED
  10
24.983
  20
6.217 
  30
0.000
  0
VERTEX
  8
1
  6
DASHED
  10
25.083
  20
6.217 
  30
0.000
  0
VERTEX
  8
1
  6
DASHED
  10
25.183
  20
6.217 
  30
0.000
  0
VERTEX
  8
1
  6
DASHED
  10
25.300
  20
6.217 
  30
0.000
  0
VERTEX
  8
1
  6
DASHED
  10
25.400
  20
6.217 
  30
0.000
  0
VERTEX
  8
1
  6
DASHED
  10
25.500
  20
6.217 
  30
0.000
  0
VERTEX
  8
1
  6
DASHED
  10
25.600
  20
6.217 
  30
0.000
  0
VERTEX
  8
1
  6
DASHED
  10
25.717
  20
6.233 
  30
0.000
  0
VERTEX
  8
1
  6
DASHED
  10
25.817
  20
6.233 
  30
0.000
  0
VERTEX
  8
1
  6
DASHED
  10
25.917
  20
6.233 
  30
0.000
  0
VERTEX
  8
1
  6
DASHED
  10
26.017
  20
6.233 
  30
0.000
  0
VERTEX
  8
1
  6
DASHED
  10
26.133
  20
6.233 
  30
0.000
  0
VERTEX
  8
1
  6
DASHED
  10
26.233
  20
6.233 
  30
0.000
  0
VERTEX
  8
1
  6
DASHED
  10
26.333
  20
6.233 
  30
0.000
  0
VERTEX
  8
1
  6
DASHED
  10
26.433
  20
6.233 
  30
0.000
  0
VERTEX
  8
1
  6
DASHED
  10
26.550
  20
6.233 
  30
0.000
  0
VERTEX
  8
1
  6
DASHED
  10
26.650
  20
6.233 
  30
0.000
  0
VERTEX
  8
1
  6
DASHED
  10
26.750
  20
6.233 
  30
0.000
  0
VERTEX
  8
1
  6
DASHED
  10
26.850
  20
6.233 
  30
0.000
  0
VERTEX
  8
1
  6
DASHED
  10
26.967
  20
6.233 
  30
0.000
  0
VERTEX
  8
1
  6
DASHED
  10
27.067
  20
6.233 
  30
0.000
  0
VERTEX
  8
1
  6
DASHED
  10
27.167
  20
6.233 
  30
0.000
  0
VERTEX
  8
1
  6
DASHED
  10
27.267
  20
6.250 
  30
0.000
  0
VERTEX
  8
1
  6
DASHED
  10
27.383
  20
6.250 
  30
0.000
  0
VERTEX
  8
1
  6
DASHED
  10
27.483
  20
6.250 
  30
0.000
  0
VERTEX
  8
1
  6
DASHED
  10
27.583
  20
6.250 
  30
0.000
  0
VERTEX
  8
1
  6
DASHED
  10
27.683
  20
6.250 
  30
0.000
  0
VERTEX
  8
1
  6
DASHED
  10
27.800
  20
6.250 
  30
0.000
  0
VERTEX
  8
1
  6
DASHED
  10
27.900
  20
6.250 
  30
0.000
  0
VERTEX
  8
1
  6
DASHED
  10
28.000
  20
6.250 
  30
0.000
  0
VERTEX
  8
1
  6
DASHED
  10
28.100
  20
6.250 
  30
0.000
  0
VERTEX
  8
1
  6
DASHED
  10
28.217
  20
6.250 
  30
0.000
  0
VERTEX
  8
1
  6
DASHED
  10
28.317
  20
6.250 
  30
0.000
  0
VERTEX
  8
1
  6
DASHED
  10
28.417
  20
6.250 
  30
0.000
  0
VERTEX
  8
1
  6
DASHED
  10
28.517
  20
6.250 
  30
0.000
  0
VERTEX
  8
1
  6
DASHED
  10
28.633
  20
6.250 
  30
0.000
  0
VERTEX
  8
1
  6
DASHED
  10
28.733
  20
6.250 
  30
0.000
  0
VERTEX
  8
1
  6
DASHED
  10
28.833
  20
6.250 
  30
0.000
  0
VERTEX
  8
1
  6
DASHED
  10
28.933
  20
6.250 
  30
0.000
  0
VERTEX
  8
1
  6
DASHED
  10
29.050
  20
6.250 
  30
0.000
  0
VERTEX
  8
1
  6
DASHED
  10
29.150
  20
6.283 
  30
0.000
  0
VERTEX
  8
1
  6
DASHED
  10
29.250
  20
6.350 
  30
0.000
  0
VERTEX
  8
1
  6
DASHED
  10
29.350
  20
6.467 
  30
0.000
  0
VERTEX
  8
1
  6
DASHED
  10
29.467
  20
6.600 
  30
0.000
  0
VERTEX
  8
1
  6
DASHED
  10
29.567
  20
6.783 
  30
0.000
  0
VERTEX
  8
1
  6
DASHED
  10
29.667
  20
6.967 
  30
0.000
  0
VERTEX
  8
1
  6
DASHED
  10
29.767
  20
7.133 
  30
0.000
  0
VERTEX
  8
1
  6
DASHED
  10
29.883
  20
7.250 
  30
0.000
  0
VERTEX
  8
1
  6
DASHED
  10
29.983
  20
7.267 
  30
0.000
  0
VERTEX
  8
1
  6
DASHED
  10
30.083
  20
7.267 
  30
0.000
  0
VERTEX
  8
1
  6
DASHED
  10
30.183
  20
7.267 
  30
0.000
  0
VERTEX
  8
1
  6
DASHED
  10
30.300
  20
7.267 
  30
0.000
  0
VERTEX
  8
1
  6
DASHED
  10
30.400
  20
7.267 
  30
0.000
  0
VERTEX
  8
1
  6
DASHED
  10
30.500
  20
7.267 
  30
0.000
  0
VERTEX
  8
1
  6
DASHED
  10
30.600
  20
7.267 
  30
0.000
  0
VERTEX
  8
1
  6
DASHED
  10
30.717
  20
7.267 
  30
0.000
  0
VERTEX
  8
1
  6
DASHED
  10
30.817
  20
7.267 
  30
0.000
  0
VERTEX
  8
1
  6
DASHED
  10
30.917
  20
7.633 
  30
0.000
  0
VERTEX
  8
1
  6
DASHED
  10
31.017
  20
8.183 
  30
0.000
  0
VERTEX
  8
1
  6
DASHED
  10
31.133
  20
8.867 
  30
0.000
  0
VERTEX
  8
1
  6
DASHED
  10
31.233
  20
9.683 
  30
0.000
  0
VERTEX
  8
1
  6
DASHED
  10
31.333
  20
10.583
  30
0.000
  0
VERTEX
  8
1
  6
DASHED
  10
31.433
  20
11.467
  30
0.000
  0
VERTEX
  8
1
  6
DASHED
  10
31.550
  20
12.267
  30
0.000
  0
VERTEX
  8
1
  6
DASHED
  10
31.650
  20
12.967
  30
0.000
  0
VERTEX
  8
1
  6
DASHED
  10
31.750
  20
13.550
  30
0.000
  0
VERTEX
  8
1
  6
DASHED
  10
31.850
  20
13.983
  30
0.000
  0
VERTEX
  8
1
  6
DASHED
  10
31.967
  20
14.283
  30
0.000
  0
VERTEX
  8
1
  6
DASHED
  10
32.067
  20
14.450
  30
0.000
  0
VERTEX
  8
1
  6
DASHED
  10
32.167
  20
14.467
  30
0.000
  0
VERTEX
  8
1
  6
DASHED
  10
32.267
  20
14.467
  30
0.000
  0
VERTEX
  8
1
  6
DASHED
  10
32.383
  20
14.467
  30
0.000
  0
VERTEX
  8
1
  6
DASHED
  10
32.483
  20
14.467
  30
0.000
  0
VERTEX
  8
1
  6
DASHED
  10
32.583
  20
14.467
  30
0.000
  0
VERTEX
  8
1
  6
DASHED
  10
32.683
  20
14.467
  30
0.000
  0
VERTEX
  8
1
  6
DASHED
  10
32.800
  20
14.467
  30
0.000
  0
VERTEX
  8
1
  6
DASHED
  10
32.900
  20
14.467
  30
0.000
  0
VERTEX
  8
1
  6
DASHED
  10
33.000
  20
14.467
  30
0.000
  0
VERTEX
  8
1
  6
DASHED
  10
33.100
  20
14.467
  30
0.000
  0
VERTEX
  8
1
  6
DASHED
  10
33.217
  20
14.467
  30
0.000
  0
VERTEX
  8
1
  6
DASHED
  10
33.317
  20
14.467
  30
0.000
  0
VERTEX
  8
1
  6
DASHED
  10
33.417
  20
14.467
  30
0.000
  0
VERTEX
  8
1
  6
DASHED
  10
33.517
  20
14.467
  30
0.000
  0
VERTEX
  8
1
  6
DASHED
  10
33.633
  20
14.467
  30
0.000
  0
VERTEX
  8
1
  6
DASHED
  10
33.733
  20
14.467
  30
0.000
  0
VERTEX
  8
1
  6
DASHED
  10
33.833
  20
14.467
  30
0.000
  0
VERTEX
  8
1
  6
DASHED
  10
33.933
  20
14.467
  30
0.000
  0
VERTEX
  8
1
  6
DASHED
  10
34.050
  20
15.217
  30
0.000
  0
VERTEX
  8
1
  6
DASHED
  10
34.150
  20
16.900
  30
0.000
  0
VERTEX
  8
1
  6
DASHED
  10
34.250
  20
18.567
  30
0.000
  0
VERTEX
  8
1
  6
DASHED
  10
34.350
  20
19.950
  30
0.000
  0
VERTEX
  8
1
  6
DASHED
  10
34.467
  20
21.033
  30
0.000
  0
VERTEX
  8
1
  6
DASHED
  10
34.567
  20
21.867
  30
0.000
  0
VERTEX
  8
1
  6
DASHED
  10
34.667
  20
22.417
  30
0.000
  0
VERTEX
  8
1
  6
DASHED
  10
34.767
  20
22.667
  30
0.000
  0
VERTEX
  8
1
  6
DASHED
  10
34.883
  20
22.683
  30
0.000
  0
VERTEX
  8
1
  6
DASHED
  10
34.983
  20
22.683
  30
0.000
  0
VERTEX
  8
1
  6
DASHED
  10
35.083
  20
22.683
  30
0.000
  0
VERTEX
  8
1
  6
DASHED
  10
35.183
  20
22.683
  30
0.000
  0
VERTEX
  8
1
  6
DASHED
  10
35.300
  20
22.683
  30
0.000
  0
VERTEX
  8
1
  6
DASHED
  10
35.400
  20
22.683
  30
0.000
  0
VERTEX
  8
1
  6
DASHED
  10
35.500
  20
22.683
  30
0.000
  0
VERTEX
  8
1
  6
DASHED
  10
35.600
  20
22.683
  30
0.000
  0
VERTEX
  8
1
  6
DASHED
  10
35.717
  20
22.683
  30
0.000
  0
VERTEX
  8
1
  6
DASHED
  10
35.817
  20
22.683
  30
0.000
  0
VERTEX
  8
1
  6
DASHED
  10
35.917
  20
22.683
  30
0.000
  0
VERTEX
  8
1
  6
DASHED
  10
36.017
  20
22.683
  30
0.000
  0
VERTEX
  8
1
  6
DASHED
  10
36.133
  20
23.083
  30
0.000
  0
VERTEX
  8
1
  6
DASHED
  10
36.233
  20
24.350
  30
0.000
  0
VERTEX
  8
1
  6
DASHED
  10
36.333
  20
25.667
  30
0.000
  0
VERTEX
  8
1
  6
DASHED
  10
36.433
  20
26.950
  30
0.000
  0
VERTEX
  8
1
  6
DASHED
  10
36.550
  20
28.133
  30
0.000
  0
VERTEX
  8
1
  6
DASHED
  10
36.650
  20
29.150
  30
0.000
  0
VERTEX
  8
1
  6
DASHED
  10
36.750
  20
29.933
  30
0.000
  0
VERTEX
  8
1
  6
DASHED
  10
36.850
  20
30.467
  30
0.000
  0
VERTEX
  8
1
  6
DASHED
  10
36.967
  20
30.767
  30
0.000
  0
VERTEX
  8
1
  6
DASHED
  10
37.067
  20
30.800
  30
0.000
  0
VERTEX
  8
1
  6
DASHED
  10
37.167
  20
30.800
  30
0.000
  0
VERTEX
  8
1
  6
DASHED
  10
37.267
  20
30.800
  30
0.000
  0
VERTEX
  8
1
  6
DASHED
  10
37.383
  20
30.800
  30
0.000
  0
VERTEX
  8
1
  6
DASHED
  10
37.483
  20
30.800
  30
0.000
  0
VERTEX
  8
1
  6
DASHED
  10
37.583
  20
30.800
  30
0.000
  0
VERTEX
  8
1
  6
DASHED
  10
37.700
  20
30.800
  30
0.000
  0
VERTEX
  8
1
  6
DASHED
  10
37.800
  20
30.800
  30
0.000
  0
VERTEX
  8
1
  6
DASHED
  10
37.900
  20
30.800
  30
0.000
  0
VERTEX
  8
1
  6
DASHED
  10
38.000
  20
30.800
  30
0.000
  0
VERTEX
  8
1
  6
DASHED
  10
38.117
  20
30.800
  30
0.000
  0
VERTEX
  8
1
  6
DASHED
  10
38.217
  20
30.800
  30
0.000
  0
VERTEX
  8
1
  6
DASHED
  10
38.317
  20
30.800
  30
0.000
  0
VERTEX
  8
1
  6
DASHED
  10
38.417
  20
30.800
  30
0.000
  0
VERTEX
  8
1
  6
DASHED
  10
38.533
  20
30.800
  30
0.000
  0
VERTEX
  8
1
  6
DASHED
  10
38.633
  20
30.800
  30
0.000
  0
VERTEX
  8
1
  6
DASHED
  10
38.733
  20
30.800
  30
0.000
  0
VERTEX
  8
1
  6
DASHED
  10
38.833
  20
30.800
  30
0.000
  0
VERTEX
  8
1
  6
DASHED
  10
38.950
  20
30.800
  30
0.000
  0
VERTEX
  8
1
  6
DASHED
  10
39.050
  20
30.800
  30
0.000
  0
VERTEX
  8
1
  6
DASHED
  10
39.150
  20
30.800
  30
0.000
  0
VERTEX
  8
1
  6
DASHED
  10
39.250
  20
30.800
  30
0.000
  0
VERTEX
  8
1
  6
DASHED
  10
39.367
  20
30.800
  30
0.000
  0
VERTEX
  8
1
  6
DASHED
  10
39.467
  20
30.800
  30
0.000
  0
VERTEX
  8
1
  6
DASHED
  10
39.567
  20
30.800
  30
0.000
  0
VERTEX
  8
1
  6
DASHED
  10
39.667
  20
30.800
  30
0.000
  0
VERTEX
  8
1
  6
DASHED
  10
39.783
  20
30.800
  30
0.000
  0
VERTEX
  8
1
  6
DASHED
  10
39.883
  20
30.800
  30
0.000
  0
VERTEX
  8
1
  6
DASHED
  10
39.983
  20
30.800
  30
0.000
  0
VERTEX
  8
1
  6
DASHED
  10
40.083
  20
30.800
  30
0.000
  0
VERTEX
  8
1
  6
DASHED
  10
40.200
  20
30.800
  30
0.000
  0
VERTEX
  8
1
  6
DASHED
  10
40.300
  20
30.800
  30
0.000
  0
VERTEX
  8
1
  6
DASHED
  10
40.400
  20
30.800
  30
0.000
  0
VERTEX
  8
1
  6
DASHED
  10
40.500
  20
30.800
  30
0.000
  0
VERTEX
  8
1
  6
DASHED
  10
40.617
  20
30.800
  30
0.000
  0
VERTEX
  8
1
  6
DASHED
  10
40.717
  20
30.800
  30
0.000
  0
VERTEX
  8
1
  6
DASHED
  10
40.817
  20
30.800
  30
0.000
  0
VERTEX
  8
1
  6
DASHED
  10
40.917
  20
30.800
  30
0.000
  0
VERTEX
  8
1
  6
DASHED
  10
41.033
  20
30.800
  30
0.000
  0
VERTEX
  8
1
  6
DASHED
  10
41.133
  20
30.800
  30
0.000
  0
VERTEX
  8
1
  6
DASHED
  10
41.233
  20
30.800
  30
0.000
  0
VERTEX
  8
1
  6
DASHED
  10
41.333
  20
30.800
  30
0.000
  0
VERTEX
  8
1
  6
DASHED
  10
41.450
  20
30.800
  30
0.000
  0
VERTEX
  8
1
  6
DASHED
  10
41.550
  20
30.867
  30
0.000
  0
VERTEX
  8
1
  6
DASHED
  10
41.650
  20
31.017
  30
0.000
  0
VERTEX
  8
1
  6
DASHED
  10
41.750
  20
31.100
  30
0.000
  0
VERTEX
  8
1
  6
DASHED
  10
41.867
  20
31.150
  30
0.000
  0
VERTEX
  8
1
  6
DASHED
  10
41.967
  20
31.150
  30
0.000
  0
VERTEX
  8
1
  6
DASHED
  10
42.067
  20
31.150
  30
0.000
  0
VERTEX
  8
1
  6
DASHED
  10
42.167
  20
31.150
  30
0.000
  0
VERTEX
  8
1
  6
DASHED
  10
42.283
  20
31.150
  30
0.000
  0
VERTEX
  8
1
  6
DASHED
  10
42.383
  20
31.150
  30
0.000
  0
VERTEX
  8
1
  6
DASHED
  10
42.483
  20
31.150
  30
0.000
  0
VERTEX
  8
1
  6
DASHED
  10
42.583
  20
31.150
  30
0.000
  0
VERTEX
  8
1
  6
DASHED
  10
42.700
  20
31.150
  30
0.000
  0
VERTEX
  8
1
  6
DASHED
  10
42.800
  20
31.150
  30
0.000
  0
VERTEX
  8
1
  6
DASHED
  10
42.900
  20
31.150
  30
0.000
  0
VERTEX
  8
1
  6
DASHED
  10
43.000
  20
31.150
  30
0.000
  0
VERTEX
  8
1
  6
DASHED
  10
43.117
  20
31.150
  30
0.000
  0
VERTEX
  8
1
  6
DASHED
  10
43.217
  20
31.150
  30
0.000
  0
VERTEX
  8
1
  6
DASHED
  10
43.317
  20
31.150
  30
0.000
  0
VERTEX
  8
1
  6
DASHED
  10
43.417
  20
31.150
  30
0.000
  0
VERTEX
  8
1
  6
DASHED
  10
43.533
  20
31.150
  30
0.000
  0
VERTEX
  8
1
  6
DASHED
  10
43.633
  20
31.150
  30
0.000
  0
VERTEX
  8
1
  6
DASHED
  10
43.733
  20
31.150
  30
0.000
  0
VERTEX
  8
1
  6
DASHED
  10
43.833
  20
31.150
  30
0.000
  0
VERTEX
  8
1
  6
DASHED
  10
43.950
  20
31.150
  30
0.000
  0
VERTEX
  8
1
  6
DASHED
  10
44.050
  20
31.150
  30
0.000
  0
VERTEX
  8
1
  6
DASHED
  10
44.150
  20
31.150
  30
0.000
  0
VERTEX
  8
1
  6
DASHED
  10
44.250
  20
31.150
  30
0.000
  0
VERTEX
  8
1
  6
DASHED
  10
44.367
  20
31.150
  30
0.000
  0
VERTEX
  8
1
  6
DASHED
  10
44.467
  20
31.150
  30
0.000
  0
VERTEX
  8
1
  6
DASHED
  10
44.567
  20
31.150
  30
0.000
  0
VERTEX
  8
1
  6
DASHED
  10
44.667
  20
31.150
  30
0.000
  0
VERTEX
  8
1
  6
DASHED
  10
44.783
  20
31.150
  30
0.000
  0
VERTEX
  8
1
  6
DASHED
  10
44.883
  20
31.150
  30
0.000
  0
VERTEX
  8
1
  6
DASHED
  10
44.983
  20
31.150
  30
0.000
  0
VERTEX
  8
1
  6
DASHED
  10
45.083
  20
31.150
  30
0.000
  0
VERTEX
  8
1
  6
DASHED
  10
45.200
  20
31.150
  30
0.000
  0
VERTEX
  8
1
  6
DASHED
  10
45.300
  20
31.150
  30
0.000
  0
VERTEX
  8
1
  6
DASHED
  10
45.400
  20
31.150
  30
0.000
  0
VERTEX
  8
1
  6
DASHED
  10
45.500
  20
31.150
  30
0.000
  0
VERTEX
  8
1
  6
DASHED
  10
45.617
  20
31.367
  30
0.000
  0
VERTEX
  8
1
  6
DASHED
  10
45.717
  20
32.333
  30
0.000
  0
VERTEX
  8
1
  6
DASHED
  10
45.817
  20
33.500
  30
0.000
  0
VERTEX
  8
1
  6
DASHED
  10
45.917
  20
34.483
  30
0.000
  0
VERTEX
  8
1
  6
DASHED
  10
46.033
  20
35.133
  30
0.000
  0
VERTEX
  8
1
  6
DASHED
  10
46.133
  20
35.417
  30
0.000
  0
VERTEX
  8
1
  6
DASHED
  10
46.233
  20
35.433
  30
0.000
  0
VERTEX
  8
1
  6
DASHED
  10
46.333
  20
35.433
  30
0.000
  0
VERTEX
  8
1
  6
DASHED
  10
46.450
  20
35.433
  30
0.000
  0
VERTEX
  8
1
  6
DASHED
  10
46.550
  20
35.433
  30
0.000
  0
VERTEX
  8
1
  6
DASHED
  10
46.650
  20
35.433
  30
0.000
  0
VERTEX
  8
1
  6
DASHED
  10
46.750
  20
35.433
  30
0.000
  0
VERTEX
  8
1
  6
DASHED
  10
46.867
  20
35.433
  30
0.000
  0
VERTEX
  8
1
  6
DASHED
  10
46.967
  20
35.433
  30
0.000
  0
VERTEX
  8
1
  6
DASHED
  10
47.067
  20
35.433
  30
0.000
  0
VERTEX
  8
1
  6
DASHED
  10
47.167
  20
35.433
  30
0.000
  0
VERTEX
  8
1
  6
DASHED
  10
47.283
  20
35.433
  30
0.000
  0
VERTEX
  8
1
  6
DASHED
  10
47.383
  20
35.433
  30
0.000
  0
VERTEX
  8
1
  6
DASHED
  10
47.483
  20
35.433
  30
0.000
  0
VERTEX
  8
1
  6
DASHED
  10
47.583
  20
35.433
  30
0.000
  0
VERTEX
  8
1
  6
DASHED
  10
47.700
  20
35.433
  30
0.000
  0
VERTEX
  8
1
  6
DASHED
  10
47.800
  20
35.433
  30
0.000
  0
VERTEX
  8
1
  6
DASHED
  10
47.900
  20
35.433
  30
0.000
  0
VERTEX
  8
1
  6
DASHED
  10
48.000
  20
35.433
  30
0.000
  0
VERTEX
  8
1
  6
DASHED
  10
48.117
  20
35.433
  30
0.000
  0
VERTEX
  8
1
  6
DASHED
  10
48.217
  20
35.433
  30
0.000
  0
VERTEX
  8
1
  6
DASHED
  10
48.317
  20
35.433
  30
0.000
  0
VERTEX
  8
1
  6
DASHED
  10
48.417
  20
35.433
  30
0.000
  0
VERTEX
  8
1
  6
DASHED
  10
48.533
  20
35.433
  30
0.000
  0
VERTEX
  8
1
  6
DASHED
  10
48.633
  20
35.433
  30
0.000
  0
VERTEX
  8
1
  6
DASHED
  10
48.733
  20
35.433
  30
0.000
  0
VERTEX
  8
1
  6
DASHED
  10
48.833
  20
35.617
  30
0.000
  0
VERTEX
  8
1
  6
DASHED
  10
48.950
  20
36.250
  30
0.000
  0
VERTEX
  8
1
  6
DASHED
  10
49.050
  20
36.817
  30
0.000
  0
VERTEX
  8
1
  6
DASHED
  10
49.150
  20
37.300
  30
0.000
  0
VERTEX
  8
1
  6
DASHED
  10
49.250
  20
37.667
  30
0.000
  0
VERTEX
  8
1
  6
DASHED
  10
49.367
  20
37.883
  30
0.000
  0
VERTEX
  8
1
  6
DASHED
  10
49.467
  20
37.967
  30
0.000
  0
VERTEX
  8
1
  6
DASHED
  10
49.567
  20
37.967
  30
0.000
  0
VERTEX
  8
1
  6
DASHED
  10
49.667
  20
37.967
  30
0.000
  0
VERTEX
  8
1
  6
DASHED
  10
49.783
  20
37.967
  30
0.000
  0
VERTEX
  8
1
  6
DASHED
  10
49.883
  20
37.967
  30
0.000
  0
VERTEX
  8
1
  6
DASHED
  10
49.983
  20
37.967
  30
0.000
  0
VERTEX
  8
1
  6
DASHED
  10
50.083
  20
37.967
  30
0.000
  0
VERTEX
  8
1
  6
DASHED
  10
50.200
  20
37.967
  30
0.000
  0
VERTEX
  8
1
  6
DASHED
  10
50.300
  20
37.967
  30
0.000
  0
VERTEX
  8
1
  6
DASHED
  10
50.400
  20
37.967
  30
0.000
  0
VERTEX
  8
1
  6
DASHED
  10
50.517
  20
37.967
  30
0.000
  0
VERTEX
  8
1
  6
DASHED
  10
50.617
  20
37.967
  30
0.000
  0
VERTEX
  8
1
  6
DASHED
  10
50.717
  20
37.967
  30
0.000
  0
VERTEX
  8
1
  6
DASHED
  10
50.817
  20
37.967
  30
0.000
  0
VERTEX
  8
1
  6
DASHED
  10
50.933
  20
37.967
  30
0.000
  0
VERTEX
  8
1
  6
DASHED
  10
51.033
  20
37.967
  30
0.000
  0
VERTEX
  8
1
  6
DASHED
  10
51.133
  20
37.967
  30
0.000
  0
VERTEX
  8
1
  6
DASHED
  10
51.233
  20
37.967
  30
0.000
  0
VERTEX
  8
1
  6
DASHED
  10
51.350
  20
37.967
  30
0.000
  0
VERTEX
  8
1
  6
DASHED
  10
51.450
  20
37.967
  30
0.000
  0
VERTEX
  8
1
  6
DASHED
  10
51.550
  20
37.967
  30
0.000
  0
VERTEX
  8
1
  6
DASHED
  10
51.650
  20
37.967
  30
0.000
  0
VERTEX
  8
1
  6
DASHED
  10
51.767
  20
37.967
  30
0.000
  0
VERTEX
  8
1
  6
DASHED
  10
51.867
  20
37.967
  30
0.000
  0
VERTEX
  8
1
  6
DASHED
  10
51.967
  20
37.967
  30
0.000
  0
VERTEX
  8
1
  6
DASHED
  10
52.067
  20
37.967
  30
0.000
  0
VERTEX
  8
1
  6
DASHED
  10
52.183
  20
37.967
  30
0.000
  0
VERTEX
  8
1
  6
DASHED
  10
52.283
  20
37.967
  30
0.000
  0
VERTEX
  8
1
  6
DASHED
  10
52.383
  20
37.967
  30
0.000
  0
VERTEX
  8
1
  6
DASHED
  10
52.483
  20
37.967
  30
0.000
  0
VERTEX
  8
1
  6
DASHED
  10
52.600
  20
37.967
  30
0.000
  0
VERTEX
  8
1
  6
DASHED
  10
52.700
  20
37.967
  30
0.000
  0
VERTEX
  8
1
  6
DASHED
  10
52.800
  20
37.967
  30
0.000
  0
VERTEX
  8
1
  6
DASHED
  10
52.900
  20
37.967
  30
0.000
  0
VERTEX
  8
1
  6
DASHED
  10
53.017
  20
37.967
  30
0.000
  0
VERTEX
  8
1
  6
DASHED
  10
53.117
  20
37.967
  30
0.000
  0
VERTEX
  8
1
  6
DASHED
  10
53.217
  20
37.967
  30
0.000
  0
VERTEX
  8
1
  6
DASHED
  10
53.317
  20
37.967
  30
0.000
  0
VERTEX
  8
1
  6
DASHED
  10
53.433
  20
37.967
  30
0.000
  0
VERTEX
  8
1
  6
DASHED
  10
53.533
  20
37.967
  30
0.000
  0
VERTEX
  8
1
  6
DASHED
  10
53.633
  20
37.967
  30
0.000
  0
VERTEX
  8
1
  6
DASHED
  10
53.733
  20
37.967
  30
0.000
  0
VERTEX
  8
1
  6
DASHED
  10
53.850
  20
37.967
  30
0.000
  0
VERTEX
  8
1
  6
DASHED
  10
53.950
  20
37.967
  30
0.000
  0
VERTEX
  8
1
  6
DASHED
  10
54.050
  20
38.067
  30
0.000
  0
VERTEX
  8
1
  6
DASHED
  10
54.150
  20
38.167
  30
0.000
  0
VERTEX
  8
1
  6
DASHED
  10
54.267
  20
38.183
  30
0.000
  0
VERTEX
  8
1
  6
DASHED
  10
54.367
  20
38.183
  30
0.000
  0
VERTEX
  8
1
  6
DASHED
  10
54.467
  20
38.183
  30
0.000
  0
VERTEX
  8
1
  6
DASHED
  10
54.567
  20
38.183
  30
0.000
  0
VERTEX
  8
1
  6
DASHED
  10
54.683
  20
38.183
  30
0.000
  0
VERTEX
  8
1
  6
DASHED
  10
54.783
  20
38.183
  30
0.000
  0
VERTEX
  8
1
  6
DASHED
  10
54.883
  20
38.183
  30
0.000
  0
VERTEX
  8
1
  6
DASHED
  10
54.983
  20
38.183
  30
0.000
  0
VERTEX
  8
1
  6
DASHED
  10
55.100
  20
38.183
  30
0.000
  0
VERTEX
  8
1
  6
DASHED
  10
55.200
  20
38.183
  30
0.000
  0
VERTEX
  8
1
  6
DASHED
  10
55.300
  20
38.183
  30
0.000
  0
VERTEX
  8
1
  6
DASHED
  10
55.400
  20
38.183
  30
0.000
  0
VERTEX
  8
1
  6
DASHED
  10
55.517
  20
38.183
  30
0.000
  0
VERTEX
  8
1
  6
DASHED
  10
55.617
  20
38.183
  30
0.000
  0
VERTEX
  8
1
  6
DASHED
  10
55.717
  20
38.183
  30
0.000
  0
VERTEX
  8
1
  6
DASHED
  10
55.817
  20
38.183
  30
0.000
  0
VERTEX
  8
1
  6
DASHED
  10
55.933
  20
38.183
  30
0.000
  0
VERTEX
  8
1
  6
DASHED
  10
56.033
  20
38.183
  30
0.000
  0
VERTEX
  8
1
  6
DASHED
  10
56.133
  20
38.183
  30
0.000
  0
VERTEX
  8
1
  6
DASHED
  10
56.233
  20
38.183
  30
0.000
  0
VERTEX
  8
1
  6
DASHED
  10
56.350
  20
38.183
  30
0.000
  0
VERTEX
  8
1
  6
DASHED
  10
56.450
  20
38.183
  30
0.000
  0
VERTEX
  8
1
  6
DASHED
  10
56.550
  20
38.183
  30
0.000
  0
VERTEX
  8
1
  6
DASHED
  10
56.650
  20
38.183
  30
0.000
  0
VERTEX
  8
1
  6
DASHED
  10
56.767
  20
38.183
  30
0.000
  0
VERTEX
  8
1
  6
DASHED
  10
56.867
  20
38.183
  30
0.000
  0
VERTEX
  8
1
  6
DASHED
  10
56.967
  20
38.183
  30
0.000
  0
VERTEX
  8
1
  6
DASHED
  10
57.067
  20
38.183
  30
0.000
  0
VERTEX
  8
1
  6
DASHED
  10
57.183
  20
38.183
  30
0.000
  0
VERTEX
  8
1
  6
DASHED
  10
57.283
  20
38.183
  30
0.000
  0
VERTEX
  8
1
  6
DASHED
  10
57.383
  20
38.183
  30
0.000
  0
VERTEX
  8
1
  6
DASHED
  10
57.483
  20
38.183
  30
0.000
  0
VERTEX
  8
1
  6
DASHED
  10
57.600
  20
38.183
  30
0.000
  0
VERTEX
  8
1
  6
DASHED
  10
57.700
  20
38.183
  30
0.000
  0
VERTEX
  8
1
  6
DASHED
  10
57.800
  20
38.183
  30
0.000
  0
VERTEX
  8
1
  6
DASHED
  10
57.900
  20
38.183
  30
0.000
  0
VERTEX
  8
1
  6
DASHED
  10
58.017
  20
38.183
  30
0.000
  0
VERTEX
  8
1
  6
DASHED
  10
58.117
  20
38.183
  30
0.000
  0
VERTEX
  8
1
  6
DASHED
  10
58.217
  20
38.183
  30
0.000
  0
VERTEX
  8
1
  6
DASHED
  10
58.317
  20
38.183
  30
0.000
  0
VERTEX
  8
1
  6
DASHED
  10
58.433
  20
38.183
  30
0.000
  0
VERTEX
  8
1
  6
DASHED
  10
58.533
  20
38.183
  30
0.000
  0
VERTEX
  8
1
  6
DASHED
  10
58.633
  20
38.183
  30
0.000
  0
VERTEX
  8
1
  6
DASHED
  10
58.733
  20
38.183
  30
0.000
  0
VERTEX
  8
1
  6
DASHED
  10
58.850
  20
38.183
  30
0.000
  0
VERTEX
  8
1
  6
DASHED
  10
58.950
  20
38.183
  30
0.000
  0
VERTEX
  8
1
  6
DASHED
  10
59.050
  20
38.183
  30
0.000
  0
VERTEX
  8
1
  6
DASHED
  10
59.150
  20
38.183
  30
0.000
  0
VERTEX
  8
1
  6
DASHED
  10
59.267
  20
38.183
  30
0.000
  0
VERTEX
  8
1
  6
DASHED
  10
59.367
  20
38.183
  30
0.000
  0
VERTEX
  8
1
  6
DASHED
  10
59.467
  20
38.183
  30
0.000
  0
VERTEX
  8
1
  6
DASHED
  10
59.567
  20
38.183
  30
0.000
  0
VERTEX
  8
1
  6
DASHED
  10
59.683
  20
38.183
  30
0.000
  0
VERTEX
  8
1
  6
DASHED
  10
59.783
  20
38.183
  30
0.000
  0
VERTEX
  8
1
  6
DASHED
  10
59.883
  20
38.183
  30
0.000
  0
VERTEX
  8
1
  6
DASHED
  10
59.983
  20
38.183
  30
0.000
  0
VERTEX
  8
1
  6
DASHED
  10
60.100
  20
38.183
  30
0.000
  0
VERTEX
  8
1
  6
DASHED
  10
60.200
  20
38.183
  30
0.000
  0
VERTEX
  8
1
  6
DASHED
  10
60.300
  20
38.183
  30
0.000
  0
VERTEX
  8
1
  6
DASHED
  10
60.400
  20
38.183
  30
0.000
  0
VERTEX
  8
1
  6
DASHED
  10
60.517
  20
38.183
  30
0.000
  0
VERTEX
  8
1
  6
DASHED
  10
60.617
  20
38.183
  30
0.000
  0
VERTEX
  8
1
  6
DASHED
  10
60.717
  20
38.217
  30
0.000
  0
VERTEX
  8
1
  6
DASHED
  10
60.817
  20
38.300
  30
0.000
  0
VERTEX
  8
1
  6
DASHED
  10
60.933
  20
38.350
  30
0.000
  0
VERTEX
  8
1
  6
DASHED
  10
61.033
  20
38.383
  30
0.000
  0
VERTEX
  8
1
  6
DASHED
  10
61.133
  20
38.400
  30
0.000
  0
VERTEX
  8
1
  6
DASHED
  10
61.233
  20
38.400
  30
0.000
  0
VERTEX
  8
1
  6
DASHED
  10
61.350
  20
38.400
  30
0.000
  0
VERTEX
  8
1
  6
DASHED
  10
61.450
  20
38.400
  30
0.000
  0
VERTEX
  8
1
  6
DASHED
  10
61.550
  20
38.400
  30
0.000
  0
VERTEX
  8
1
  6
DASHED
  10
61.650
  20
38.400
  30
0.000
  0
VERTEX
  8
1
  6
DASHED
  10
61.767
  20
38.400
  30
0.000
  0
VERTEX
  8
1
  6
DASHED
  10
61.867
  20
38.400
  30
0.000
  0
VERTEX
  8
1
  6
DASHED
  10
61.967
  20
38.400
  30
0.000
  0
VERTEX
  8
1
  6
DASHED
  10
62.067
  20
38.400
  30
0.000
  0
VERTEX
  8
1
  6
DASHED
  10
62.183
  20
38.400
  30
0.000
  0
VERTEX
  8
1
  6
DASHED
  10
62.283
  20
38.400
  30
0.000
  0
VERTEX
  8
1
  6
DASHED
  10
62.383
  20
38.400
  30
0.000
  0
VERTEX
  8
1
  6
DASHED
  10
62.483
  20
38.400
  30
0.000
  0
VERTEX
  8
1
  6
DASHED
  10
62.600
  20
38.400
  30
0.000
  0
VERTEX
  8
1
  6
DASHED
  10
62.700
  20
38.400
  30
0.000
  0
VERTEX
  8
1
  6
DASHED
  10
62.800
  20
38.400
  30
0.000
  0
VERTEX
  8
1
  6
DASHED
  10
62.900
  20
38.400
  30
0.000
  0
VERTEX
  8
1
  6
DASHED
  10
63.017
  20
38.400
  30
0.000
  0
VERTEX
  8
1
  6
DASHED
  10
63.117
  20
38.400
  30
0.000
  0
VERTEX
  8
1
  6
DASHED
  10
63.217
  20
38.400
  30
0.000
  0
VERTEX
  8
1
  6
DASHED
  10
63.317
  20
38.400
  30
0.000
  0
VERTEX
  8
1
  6
DASHED
  10
63.433
  20
38.400
  30
0.000
  0
VERTEX
  8
1
  6
DASHED
  10
63.533
  20
38.400
  30
0.000
  0
VERTEX
  8
1
  6
DASHED
  10
63.633
  20
38.400
  30
0.000
  0
VERTEX
  8
1
  6
DASHED
  10
63.750
  20
38.400
  30
0.000
  0
VERTEX
  8
1
  6
DASHED
  10
63.850
  20
38.400
  30
0.000
  0
VERTEX
  8
1
  6
DASHED
  10
63.950
  20
38.400
  30
0.000
  0
VERTEX
  8
1
  6
DASHED
  10
64.050
  20
38.400
  30
0.000
  0
VERTEX
  8
1
  6
DASHED
  10
64.167
  20
38.400
  30
0.000
  0
VERTEX
  8
1
  6
DASHED
  10
64.267
  20
38.400
  30
0.000
  0
VERTEX
  8
1
  6
DASHED
  10
64.367
  20
38.400
  30
0.000
  0
VERTEX
  8
1
  6
DASHED
  10
64.467
  20
38.400
  30
0.000
  0
VERTEX
  8
1
  6
DASHED
  10
64.583
  20
38.400
  30
0.000
  0
VERTEX
  8
1
  6
DASHED
  10
64.683
  20
38.400
  30
0.000
  0
VERTEX
  8
1
  6
DASHED
  10
64.783
  20
38.400
  30
0.000
  0
VERTEX
  8
1
  6
DASHED
  10
64.883
  20
38.400
  30
0.000
  0
VERTEX
  8
1
  6
DASHED
  10
65.000
  20
38.400
  30
0.000
  0
VERTEX
  8
1
  6
DASHED
  10
65.100
  20
38.400
  30
0.000
  0
VERTEX
  8
1
  6
DASHED
  10
65.200
  20
38.400
  30
0.000
  0
VERTEX
  8
1
  6
DASHED
  10
65.300
  20
38.400
  30
0.000
  0
VERTEX
  8
1
  6
DASHED
  10
65.417
  20
38.400
  30
0.000
  0
VERTEX
  8
1
  6
DASHED
  10
65.517
  20
38.400
  30
0.000
  0
VERTEX
  8
1
  6
DASHED
  10
65.617
  20
38.400
  30
0.000
  0
VERTEX
  8
1
  6
DASHED
  10
65.717
  20
38.417
  30
0.000
  0
VERTEX
  8
1
  6
DASHED
  10
65.833
  20
38.433
  30
0.000
  0
VERTEX
  8
1
  6
DASHED
  10
65.933
  20
38.450
  30
0.000
  0
VERTEX
  8
1
  6
DASHED
  10
66.033
  20
38.467
  30
0.000
  0
VERTEX
  8
1
  6
DASHED
  10
66.133
  20
38.483
  30
0.000
  0
VERTEX
  8
1
  6
DASHED
  10
66.250
  20
38.483
  30
0.000
  0
VERTEX
  8
1
  6
DASHED
  10
66.350
  20
38.483
  30
0.000
  0
VERTEX
  8
1
  6
DASHED
  10
66.450
  20
38.483
  30
0.000
  0
VERTEX
  8
1
  6
DASHED
  10
66.550
  20
38.483
  30
0.000
  0
VERTEX
  8
1
  6
DASHED
  10
66.667
  20
38.483
  30
0.000
  0
VERTEX
  8
1
  6
DASHED
  10
66.767
  20
38.483
  30
0.000
  0
VERTEX
  8
1
  6
DASHED
  10
66.867
  20
38.483
  30
0.000
  0
VERTEX
  8
1
  6
DASHED
  10
66.967
  20
38.500
  30
0.000
  0
VERTEX
  8
1
  6
DASHED
  10
67.083
  20
38.517
  30
0.000
  0
VERTEX
  8
1
  6
DASHED
  10
67.183
  20
38.517
  30
0.000
  0
VERTEX
  8
1
  6
DASHED
  10
67.283
  20
38.517
  30
0.000
  0
VERTEX
  8
1
  6
DASHED
  10
67.383
  20
38.517
  30
0.000
  0
VERTEX
  8
1
  6
DASHED
  10
67.500
  20
38.517
  30
0.000
  0
VERTEX
  8
1
  6
DASHED
  10
67.600
  20
38.517
  30
0.000
  0
VERTEX
  8
1
  6
DASHED
  10
67.700
  20
38.517
  30
0.000
  0
VERTEX
  8
1
  6
DASHED
  10
67.800
  20
38.533
  30
0.000
  0
VERTEX
  8
1
  6
DASHED
  10
67.917
  20
38.550
  30
0.000
  0
VERTEX
  8
1
  6
DASHED
  10
68.017
  20
38.567
  30
0.000
  0
VERTEX
  8
1
  6
DASHED
  10
68.117
  20
38.583
  30
0.000
  0
VERTEX
  8
1
  6
DASHED
  10
68.217
  20
38.600
  30
0.000
  0
VERTEX
  8
1
  6
DASHED
  10
68.333
  20
38.600
  30
0.000
  0
VERTEX
  8
1
  6
DASHED
  10
68.433
  20
38.600
  30
0.000
  0
VERTEX
  8
1
  6
DASHED
  10
68.533
  20
38.600
  30
0.000
  0
VERTEX
  8
1
  6
DASHED
  10
68.633
  20
38.600
  30
0.000
  0
VERTEX
  8
1
  6
DASHED
  10
68.750
  20
38.600
  30
0.000
  0
VERTEX
  8
1
  6
DASHED
  10
68.850
  20
38.600
  30
0.000
  0
VERTEX
  8
1
  6
DASHED
  10
68.950
  20
38.617
  30
0.000
  0
VERTEX
  8
1
  6
DASHED
  10
69.050
  20
38.633
  30
0.000
  0
VERTEX
  8
1
  6
DASHED
  10
69.167
  20
38.650
  30
0.000
  0
VERTEX
  8
1
  6
DASHED
  10
69.267
  20
38.667
  30
0.000
  0
VERTEX
  8
1
  6
DASHED
  10
69.367
  20
38.667
  30
0.000
  0
VERTEX
  8
1
  6
DASHED
  10
69.467
  20
38.683
  30
0.000
  0
VERTEX
  8
1
  6
DASHED
  10
69.583
  20
38.683
  30
0.000
  0
VERTEX
  8
1
  6
DASHED
  10
69.683
  20
38.683
  30
0.000
  0
VERTEX
  8
1
  6
DASHED
  10
69.783
  20
38.683
  30
0.000
  0
VERTEX
  8
1
  6
DASHED
  10
69.883
  20
38.683
  30
0.000
  0
VERTEX
  8
1
  6
DASHED
  10
70.000
  20
38.683
  30
0.000
  0
VERTEX
  8
1
  6
DASHED
  10
70.100
  20
38.683
  30
0.000
  0
VERTEX
  8
1
  6
DASHED
  10
70.200
  20
38.683
  30
0.000
  0
VERTEX
  8
1
  6
DASHED
  10
70.300
  20
38.683
  30
0.000
  0
VERTEX
  8
1
  6
DASHED
  10
70.417
  20
38.683
  30
0.000
  0
VERTEX
  8
1
  6
DASHED
  10
70.517
  20
38.683
  30
0.000
  0
VERTEX
  8
1
  6
DASHED
  10
70.617
  20
38.683
  30
0.000
  0
VERTEX
  8
1
  6
DASHED
  10
70.717
  20
38.683
  30
0.000
  0
VERTEX
  8
1
  6
DASHED
  10
70.833
  20
38.683
  30
0.000
  0
VERTEX
  8
1
  6
DASHED
  10
70.933
  20
38.683
  30
0.000
  0
VERTEX
  8
1
  6
DASHED
  10
71.033
  20
38.683
  30
0.000
  0
VERTEX
  8
1
  6
DASHED
  10
71.133
  20
38.683
  30
0.000
  0
VERTEX
  8
1
  6
DASHED
  10
71.250
  20
38.683
  30
0.000
  0
VERTEX
  8
1
  6
DASHED
  10
71.350
  20
38.683
  30
0.000
  0
VERTEX
  8
1
  6
DASHED
  10
71.450
  20
38.683
  30
0.000
  0
VERTEX
  8
1
  6
DASHED
  10
71.550
  20
38.700
  30
0.000
  0
VERTEX
  8
1
  6
DASHED
  10
71.667
  20
38.717
  30
0.000
  0
VERTEX
  8
1
  6
DASHED
  10
71.767
  20
38.717
  30
0.000
  0
VERTEX
  8
1
  6
DASHED
  10
71.867
  20
38.733
  30
0.000
  0
VERTEX
  8
1
  6
DASHED
  10
71.967
  20
38.733
  30
0.000
  0
VERTEX
  8
1
  6
DASHED
  10
72.083
  20
38.733
  30
0.000
  0
VERTEX
  8
1
  6
DASHED
  10
72.183
  20
38.733
  30
0.000
  0
VERTEX
  8
1
  6
DASHED
  10
72.283
  20
38.733
  30
0.000
  0
VERTEX
  8
1
  6
DASHED
  10
72.383
  20
38.733
  30
0.000
  0
VERTEX
  8
1
  6
DASHED
  10
72.500
  20
38.733
  30
0.000
  0
VERTEX
  8
1
  6
DASHED
  10
72.600
  20
38.733
  30
0.000
  0
VERTEX
  8
1
  6
DASHED
  10
72.700
  20
38.733
  30
0.000
  0
VERTEX
  8
1
  6
DASHED
  10
72.800
  20
38.750
  30
0.000
  0
VERTEX
  8
1
  6
DASHED
  10
72.917
  20
38.767
  30
0.000
  0
VERTEX
  8
1
  6
DASHED
  10
73.017
  20
38.783
  30
0.000
  0
VERTEX
  8
1
  6
DASHED
  10
73.117
  20
38.800
  30
0.000
  0
VERTEX
  8
1
  6
DASHED
  10
73.217
  20
38.800
  30
0.000
  0
VERTEX
  8
1
  6
DASHED
  10
73.333
  20
38.817
  30
0.000
  0
VERTEX
  8
1
  6
DASHED
  10
73.433
  20
38.817
  30
0.000
  0
VERTEX
  8
1
  6
DASHED
  10
73.533
  20
38.817
  30
0.000
  0
VERTEX
  8
1
  6
DASHED
  10
73.633
  20
38.817
  30
0.000
  0
VERTEX
  8
1
  6
DASHED
  10
73.750
  20
38.817
  30
0.000
  0
VERTEX
  8
1
  6
DASHED
  10
73.850
  20
38.817
  30
0.000
  0
VERTEX
  8
1
  6
DASHED
  10
73.950
  20
38.817
  30
0.000
  0
VERTEX
  8
1
  6
DASHED
  10
74.050
  20
38.817
  30
0.000
  0
VERTEX
  8
1
  6
DASHED
  10
74.167
  20
38.817
  30
0.000
  0
VERTEX
  8
1
  6
DASHED
  10
74.267
  20
38.817
  30
0.000
  0
VERTEX
  8
1
  6
DASHED
  10
74.367
  20
38.833
  30
0.000
  0
VERTEX
  8
1
  6
DASHED
  10
74.467
  20
38.850
  30
0.000
  0
VERTEX
  8
1
  6
DASHED
  10
74.583
  20
38.850
  30
0.000
  0
VERTEX
  8
1
  6
DASHED
  10
74.683
  20
38.867
  30
0.000
  0
VERTEX
  8
1
  6
DASHED
  10
74.783
  20
38.883
  30
0.000
  0
VERTEX
  8
1
  6
DASHED
  10
74.883
  20
38.900
  30
0.000
  0
VERTEX
  8
1
  6
DASHED
  10
75.000
  20
38.900
  30
0.000
  0
VERTEX
  8
1
  6
DASHED
  10
75.100
  20
38.917
  30
0.000
  0
VERTEX
  8
1
  6
DASHED
  10
75.200
  20
38.933
  30
0.000
  0
VERTEX
  8
1
  6
DASHED
  10
75.300
  20
38.933
  30
0.000
  0
VERTEX
  8
1
  6
DASHED
  10
75.417
  20
38.950
  30
0.000
  0
VERTEX
  8
1
  6
DASHED
  10
75.517
  20
38.950
  30
0.000
  0
VERTEX
  8
1
  6
DASHED
  10
75.617
  20
38.950
  30
0.000
  0
VERTEX
  8
1
  6
DASHED
  10
75.717
  20
38.950
  30
0.000
  0
VERTEX
  8
1
  6
DASHED
  10
75.833
  20
38.950
  30
0.000
  0
VERTEX
  8
1
  6
DASHED
  10
75.933
  20
38.950
  30
0.000
  0
VERTEX
  8
1
  6
DASHED
  10
76.033
  20
38.950
  30
0.000
  0
VERTEX
  8
1
  6
DASHED
  10
76.133
  20
38.950
  30
0.000
  0
VERTEX
  8
1
  6
DASHED
  10
76.250
  20
38.950
  30
0.000
  0
VERTEX
  8
1
  6
DASHED
  10
76.350
  20
38.950
  30
0.000
  0
VERTEX
  8
1
  6
DASHED
  10
76.450
  20
38.967
  30
0.000
  0
VERTEX
  8
1
  6
DASHED
  10
76.567
  20
38.967
  30
0.000
  0
VERTEX
  8
1
  6
DASHED
  10
76.667
  20
38.967
  30
0.000
  0
VERTEX
  8
1
  6
DASHED
  10
76.767
  20
38.967
  30
0.000
  0
VERTEX
  8
1
  6
DASHED
  10
76.867
  20
38.967
  30
0.000
  0
VERTEX
  8
1
  6
DASHED
  10
76.983
  20
38.967
  30
0.000
  0
VERTEX
  8
1
  6
DASHED
  10
77.083
  20
38.967
  30
0.000
  0
VERTEX
  8
1
  6
DASHED
  10
77.183
  20
38.967
  30
0.000
  0
VERTEX
  8
1
  6
DASHED
  10
77.283
  20
38.967
  30
0.000
  0
VERTEX
  8
1
  6
DASHED
  10
77.400
  20
38.983
  30
0.000
  0
VERTEX
  8
1
  6
DASHED
  10
77.500
  20
38.983
  30
0.000
  0
VERTEX
  8
1
  6
DASHED
  10
77.600
  20
38.983
  30
0.000
  0
VERTEX
  8
1
  6
DASHED
  10
77.700
  20
38.983
  30
0.000
  0
VERTEX
  8
1
  6
DASHED
  10
77.817
  20
38.983
  30
0.000
  0
VERTEX
  8
1
  6
DASHED
  10
77.917
  20
38.983
  30
0.000
  0
VERTEX
  8
1
  6
DASHED
  10
78.017
  20
38.983
  30
0.000
  0
VERTEX
  8
1
  6
DASHED
  10
78.117
  20
38.983
  30
0.000
  0
VERTEX
  8
1
  6
DASHED
  10
78.233
  20
38.983
  30
0.000
  0
VERTEX
  8
1
  6
DASHED
  10
78.333
  20
39.000
  30
0.000
  0
VERTEX
  8
1
  6
DASHED
  10
78.433
  20
39.000
  30
0.000
  0
VERTEX
  8
1
  6
DASHED
  10
78.533
  20
39.000
  30
0.000
  0
VERTEX
  8
1
  6
DASHED
  10
78.650
  20
39.000
  30
0.000
  0
VERTEX
  8
1
  6
DASHED
  10
78.750
  20
39.000
  30
0.000
  0
VERTEX
  8
1
  6
DASHED
  10
78.850
  20
39.000
  30
0.000
  0
VERTEX
  8
1
  6
DASHED
  10
78.950
  20
39.000
  30
0.000
  0
VERTEX
  8
1
  6
DASHED
  10
79.067
  20
39.000
  30
0.000
  0
VERTEX
  8
1
  6
DASHED
  10
79.167
  20
39.017
  30
0.000
  0
VERTEX
  8
1
  6
DASHED
  10
79.267
  20
39.050
  30
0.000
  0
VERTEX
  8
1
  6
DASHED
  10
79.367
  20
39.067
  30
0.000
  0
VERTEX
  8
1
  6
DASHED
  10
79.483
  20
39.083
  30
0.000
  0
VERTEX
  8
1
  6
DASHED
  10
79.583
  20
39.083
  30
0.000
  0
VERTEX
  8
1
  6
DASHED
  10
79.683
  20
39.100
  30
0.000
  0
VERTEX
  8
1
  6
DASHED
  10
79.783
  20
39.100
  30
0.000
  0
VERTEX
  8
1
  6
DASHED
  10
79.900
  20
39.100
  30
0.000
  0
VERTEX
  8
1
  6
DASHED
  10
80.000
  20
39.100
  30
0.000
  0
VERTEX
  8
1
  6
DASHED
  10
80.100
  20
39.100
  30
0.000
  0
VERTEX
  8
1
  6
DASHED
  10
80.200
  20
39.100
  30
0.000
  0
VERTEX
  8
1
  6
DASHED
  10
80.317
  20
39.100
  30
0.000
  0
VERTEX
  8
1
  6
DASHED
  10
80.417
  20
39.100
  30
0.000
  0
VERTEX
  8
1
  6
DASHED
  10
80.517
  20
39.100
  30
0.000
  0
VERTEX
  8
1
  6
DASHED
  10
80.617
  20
39.100
  30
0.000
  0
VERTEX
  8
1
  6
DASHED
  10
80.733
  20
39.100
  30
0.000
  0
VERTEX
  8
1
  6
DASHED
  10
80.833
  20
39.100
  30
0.000
  0
VERTEX
  8
1
  6
DASHED
  10
80.933
  20
39.117
  30
0.000
  0
VERTEX
  8
1
  6
DASHED
  10
81.033
  20
39.117
  30
0.000
  0
VERTEX
  8
1
  6
DASHED
  10
81.150
  20
39.117
  30
0.000
  0
VERTEX
  8
1
  6
DASHED
  10
81.250
  20
39.117
  30
0.000
  0
VERTEX
  8
1
  6
DASHED
  10
81.350
  20
39.117
  30
0.000
  0
VERTEX
  8
1
  6
DASHED
  10
81.450
  20
39.117
  30
0.000
  0
VERTEX
  8
1
  6
DASHED
  10
81.567
  20
39.117
  30
0.000
  0
VERTEX
  8
1
  6
DASHED
  10
81.667
  20
39.117
  30
0.000
  0
VERTEX
  8
1
  6
DASHED
  10
81.767
  20
39.117
  30
0.000
  0
VERTEX
  8
1
  6
DASHED
  10
81.867
  20
39.117
  30
0.000
  0
VERTEX
  8
1
  6
DASHED
  10
81.983
  20
39.117
  30
0.000
  0
VERTEX
  8
1
  6
DASHED
  10
82.083
  20
39.117
  30
0.000
  0
VERTEX
  8
1
  6
DASHED
  10
82.183
  20
39.117
  30
0.000
  0
VERTEX
  8
1
  6
DASHED
  10
82.283
  20
39.117
  30
0.000
  0
VERTEX
  8
1
  6
DASHED
  10
82.400
  20
39.117
  30
0.000
  0
VERTEX
  8
1
  6
DASHED
  10
82.500
  20
39.117
  30
0.000
  0
VERTEX
  8
1
  6
DASHED
  10
82.600
  20
39.117
  30
0.000
  0
VERTEX
  8
1
  6
DASHED
  10
82.700
  20
39.133
  30
0.000
  0
VERTEX
  8
1
  6
DASHED
  10
82.817
  20
39.150
  30
0.000
  0
VERTEX
  8
1
  6
DASHED
  10
82.917
  20
39.150
  30
0.000
  0
VERTEX
  8
1
  6
DASHED
  10
83.017
  20
39.150
  30
0.000
  0
VERTEX
  8
1
  6
DASHED
  10
83.117
  20
39.150
  30
0.000
  0
VERTEX
  8
1
  6
DASHED
  10
83.233
  20
39.150
  30
0.000
  0
VERTEX
  8
1
  6
DASHED
  10
83.333
  20
39.150
  30
0.000
  0
VERTEX
  8
1
  6
DASHED
  10
83.433
  20
39.150
  30
0.000
  0
VERTEX
  8
1
  6
DASHED
  10
83.533
  20
39.150
  30
0.000
  0
VERTEX
  8
1
  6
DASHED
  10
83.650
  20
39.150
  30
0.000
  0
VERTEX
  8
1
  6
DASHED
  10
83.750
  20
39.167
  30
0.000
  0
VERTEX
  8
1
  6
DASHED
  10
83.850
  20
39.183
  30
0.000
  0
VERTEX
  8
1
  6
DASHED
  10
83.950
  20
39.200
  30
0.000
  0
VERTEX
  8
1
  6
DASHED
  10
84.067
  20
39.217
  30
0.000
  0
VERTEX
  8
1
  6
DASHED
  10
84.167
  20
39.217
  30
0.000
  0
VERTEX
  8
1
  6
DASHED
  10
84.267
  20
39.233
  30
0.000
  0
VERTEX
  8
1
  6
DASHED
  10
84.367
  20
39.233
  30
0.000
  0
VERTEX
  8
1
  6
DASHED
  10
84.483
  20
39.250
  30
0.000
  0
VERTEX
  8
1
  6
DASHED
  10
84.583
  20
39.250
  30
0.000
  0
VERTEX
  8
1
  6
DASHED
  10
84.683
  20
39.250
  30
0.000
  0
VERTEX
  8
1
  6
DASHED
  10
84.783
  20
39.250
  30
0.000
  0
VERTEX
  8
1
  6
DASHED
  10
84.900
  20
39.250
  30
0.000
  0
VERTEX
  8
1
  6
DASHED
  10
85.000
  20
39.250
  30
0.000
  0
VERTEX
  8
1
  6
DASHED
  10
85.100
  20
39.250
  30
0.000
  0
VERTEX
  8
1
  6
DASHED
  10
85.200
  20
39.250
  30
0.000
  0
VERTEX
  8
1
  6
DASHED
  10
85.317
  20
39.250
  30
0.000
  0
VERTEX
  8
1
  6
DASHED
  10
85.417
  20
39.250
  30
0.000
  0
VERTEX
  8
1
  6
DASHED
  10
85.517
  20
39.250
  30
0.000
  0
VERTEX
  8
1
  6
DASHED
  10
85.617
  20
39.250
  30
0.000
  0
VERTEX
  8
1
  6
DASHED
  10
85.733
  20
39.250
  30
0.000
  0
VERTEX
  8
1
  6
DASHED
  10
85.833
  20
39.250
  30
0.000
  0
VERTEX
  8
1
  6
DASHED
  10
85.933
  20
39.250
  30
0.000
  0
VERTEX
  8
1
  6
DASHED
  10
86.033
  20
39.250
  30
0.000
  0
VERTEX
  8
1
  6
DASHED
  10
86.150
  20
39.250
  30
0.000
  0
VERTEX
  8
1
  6
DASHED
  10
86.250
  20
39.267
  30
0.000
  0
VERTEX
  8
1
  6
DASHED
  10
86.350
  20
39.300
  30
0.000
  0
VERTEX
  8
1
  6
DASHED
  10
86.450
  20
39.317
  30
0.000
  0
VERTEX
  8
1
  6
DASHED
  10
86.567
  20
39.350
  30
0.000
  0
VERTEX
  8
1
  6
DASHED
  10
86.667
  20
39.383
  30
0.000
  0
VERTEX
  8
1
  6
DASHED
  10
86.767
  20
39.417
  30
0.000
  0
VERTEX
  8
1
  6
DASHED
  10
86.867
  20
39.450
  30
0.000
  0
VERTEX
  8
1
  6
DASHED
  10
86.983
  20
39.483
  30
0.000
  0
VERTEX
  8
1
  6
DASHED
  10
87.083
  20
39.517
  30
0.000
  0
VERTEX
  8
1
  6
DASHED
  10
87.183
  20
39.567
  30
0.000
  0
VERTEX
  8
1
  6
DASHED
  10
87.283
  20
39.600
  30
0.000
  0
VERTEX
  8
1
  6
DASHED
  10
87.400
  20
39.633
  30
0.000
  0
VERTEX
  8
1
  6
DASHED
  10
87.500
  20
39.650
  30
0.000
  0
VERTEX
  8
1
  6
DASHED
  10
87.600
  20
39.683
  30
0.000
  0
VERTEX
  8
1
  6
DASHED
  10
87.700
  20
39.683
  30
0.000
  0
VERTEX
  8
1
  6
DASHED
  10
87.817
  20
39.683
  30
0.000
  0
VERTEX
  8
1
  6
DASHED
  10
87.917
  20
39.683
  30
0.000
  0
VERTEX
  8
1
  6
DASHED
  10
88.017
  20
39.683
  30
0.000
  0
VERTEX
  8
1
  6
DASHED
  10
88.117
  20
39.683
  30
0.000
  0
VERTEX
  8
1
  6
DASHED
  10
88.233
  20
39.683
  30
0.000
  0
VERTEX
  8
1
  6
DASHED
  10
88.333
  20
39.683
  30
0.000
  0
VERTEX
  8
1
  6
DASHED
  10
88.433
  20
39.683
  30
0.000
  0
VERTEX
  8
1
  6
DASHED
  10
88.533
  20
39.683
  30
0.000
  0
VERTEX
  8
1
  6
DASHED
  10
88.650
  20
39.683
  30
0.000
  0
VERTEX
  8
1
  6
DASHED
  10
88.750
  20
39.683
  30
0.000
  0
VERTEX
  8
1
  6
DASHED
  10
88.850
  20
39.683
  30
0.000
  0
VERTEX
  8
1
  6
DASHED
  10
88.950
  20
39.683
  30
0.000
  0
VERTEX
  8
1
  6
DASHED
  10
89.067
  20
39.683
  30
0.000
  0
VERTEX
  8
1
  6
DASHED
  10
89.167
  20
39.683
  30
0.000
  0
VERTEX
  8
1
  6
DASHED
  10
89.267
  20
39.683
  30
0.000
  0
VERTEX
  8
1
  6
DASHED
  10
89.367
  20
39.683
  30
0.000
  0
VERTEX
  8
1
  6
DASHED
  10
89.483
  20
39.683
  30
0.000
  0
VERTEX
  8
1
  6
DASHED
  10
89.583
  20
39.683
  30
0.000
  0
VERTEX
  8
1
  6
DASHED
  10
89.683
  20
39.683
  30
0.000
  0
VERTEX
  8
1
  6
DASHED
  10
89.800
  20
39.683
  30
0.000
  0
VERTEX
  8
1
  6
DASHED
  10
89.900
  20
39.683
  30
0.000
  0
VERTEX
  8
1
  6
DASHED
  10
90.000
  20
39.683
  30
0.000
  0
VERTEX
  8
1
  6
DASHED
  10
90.100
  20
39.683
  30
0.000
  0
VERTEX
  8
1
  6
DASHED
  10
90.217
  20
39.683
  30
0.000
  0
VERTEX
  8
1
  6
DASHED
  10
90.317
  20
39.683
  30
0.000
  0
VERTEX
  8
1
  6
DASHED
  10
90.417
  20
39.683
  30
0.000
  0
VERTEX
  8
1
  6
DASHED
  10
90.517
  20
39.683
  30
0.000
  0
VERTEX
  8
1
  6
DASHED
  10
90.633
  20
39.683
  30
0.000
  0
VERTEX
  8
1
  6
DASHED
  10
90.733
  20
39.683
  30
0.000
  0
VERTEX
  8
1
  6
DASHED
  10
90.833
  20
39.683
  30
0.000
  0
VERTEX
  8
1
  6
DASHED
  10
90.933
  20
39.683
  30
0.000
  0
VERTEX
  8
1
  6
DASHED
  10
91.050
  20
39.683
  30
0.000
  0
VERTEX
  8
1
  6
DASHED
  10
91.150
  20
39.683
  30
0.000
  0
VERTEX
  8
1
  6
DASHED
  10
91.250
  20
39.700
  30
0.000
  0
VERTEX
  8
1
  6
DASHED
  10
91.350
  20
39.700
  30
0.000
  0
VERTEX
  8
1
  6
DASHED
  10
91.467
  20
39.700
  30
0.000
  0
VERTEX
  8
1
  6
DASHED
  10
91.567
  20
39.700
  30
0.000
  0
VERTEX
  8
1
  6
DASHED
  10
91.667
  20
39.700
  30
0.000
  0
VERTEX
  8
1
  6
DASHED
  10
91.767
  20
39.700
  30
0.000
  0
VERTEX
  8
1
  6
DASHED
  10
91.883
  20
39.700
  30
0.000
  0
VERTEX
  8
1
  6
DASHED
  10
91.983
  20
39.700
  30
0.000
  0
VERTEX
  8
1
  6
DASHED
  10
92.083
  20
39.717
  30
0.000
  0
VERTEX
  8
1
  6
DASHED
  10
92.183
  20
39.733
  30
0.000
  0
VERTEX
  8
1
  6
DASHED
  10
92.300
  20
39.750
  30
0.000
  0
VERTEX
  8
1
  6
DASHED
  10
92.400
  20
39.767
  30
0.000
  0
VERTEX
  8
1
  6
DASHED
  10
92.500
  20
39.767
  30
0.000
  0
VERTEX
  8
1
  6
DASHED
  10
92.600
  20
39.783
  30
0.000
  0
VERTEX
  8
1
  6
DASHED
  10
92.717
  20
39.783
  30
0.000
  0
VERTEX
  8
1
  6
DASHED
  10
92.817
  20
39.783
  30
0.000
  0
VERTEX
  8
1
  6
DASHED
  10
92.917
  20
39.783
  30
0.000
  0
VERTEX
  8
1
  6
DASHED
  10
93.017
  20
39.783
  30
0.000
  0
VERTEX
  8
1
  6
DASHED
  10
93.133
  20
39.783
  30
0.000
  0
VERTEX
  8
1
  6
DASHED
  10
93.233
  20
39.783
  30
0.000
  0
VERTEX
  8
1
  6
DASHED
  10
93.333
  20
39.783
  30
0.000
  0
VERTEX
  8
1
  6
DASHED
  10
93.433
  20
39.783
  30
0.000
  0
VERTEX
  8
1
  6
DASHED
  10
93.550
  20
39.783
  30
0.000
  0
VERTEX
  8
1
  6
DASHED
  10
93.650
  20
39.783
  30
0.000
  0
VERTEX
  8
1
  6
DASHED
  10
93.750
  20
39.783
  30
0.000
  0
VERTEX
  8
1
  6
DASHED
  10
93.850
  20
39.800
  30
0.000
  0
VERTEX
  8
1
  6
DASHED
  10
93.967
  20
39.817
  30
0.000
  0
VERTEX
  8
1
  6
DASHED
  10
94.067
  20
39.817
  30
0.000
  0
VERTEX
  8
1
  6
DASHED
  10
94.167
  20
39.833
  30
0.000
  0
VERTEX
  8
1
  6
DASHED
  10
94.267
  20
39.833
  30
0.000
  0
VERTEX
  8
1
  6
DASHED
  10
94.383
  20
39.850
  30
0.000
  0
VERTEX
  8
1
  6
DASHED
  10
94.483
  20
39.867
  30
0.000
  0
VERTEX
  8
1
  6
DASHED
  10
94.583
  20
39.867
  30
0.000
  0
VERTEX
  8
1
  6
DASHED
  10
94.683
  20
39.867
  30
0.000
  0
VERTEX
  8
1
  6
DASHED
  10
94.800
  20
39.883
  30
0.000
  0
VERTEX
  8
1
  6
DASHED
  10
94.900
  20
39.883
  30
0.000
  0
VERTEX
  8
1
  6
DASHED
  10
95.000
  20
39.883
  30
0.000
  0
VERTEX
  8
1
  6
DASHED
  10
95.100
  20
39.883
  30
0.000
  0
VERTEX
  8
1
  6
DASHED
  10
95.217
  20
39.883
  30
0.000
  0
VERTEX
  8
1
  6
DASHED
  10
95.317
  20
39.883
  30
0.000
  0
VERTEX
  8
1
  6
DASHED
  10
95.417
  20
39.883
  30
0.000
  0
VERTEX
  8
1
  6
DASHED
  10
95.517
  20
39.883
  30
0.000
  0
VERTEX
  8
1
  6
DASHED
  10
95.633
  20
39.883
  30
0.000
  0
VERTEX
  8
1
  6
DASHED
  10
95.733
  20
39.883
  30
0.000
  0
VERTEX
  8
1
  6
DASHED
  10
95.833
  20
39.883
  30
0.000
  0
VERTEX
  8
1
  6
DASHED
  10
95.933
  20
39.883
  30
0.000
  0
VERTEX
  8
1
  6
DASHED
  10
96.050
  20
39.883
  30
0.000
  0
VERTEX
  8
1
  6
DASHED
  10
96.150
  20
39.883
  30
0.000
  0
VERTEX
  8
1
  6
DASHED
  10
96.250
  20
39.883
  30
0.000
  0
VERTEX
  8
1
  6
DASHED
  10
96.350
  20
39.883
  30
0.000
  0
VERTEX
  8
1
  6
DASHED
  10
96.467
  20
39.883
  30
0.000
  0
VERTEX
  8
1
  6
DASHED
  10
96.567
  20
39.883
  30
0.000
  0
VERTEX
  8
1
  6
DASHED
  10
96.667
  20
39.883
  30
0.000
  0
VERTEX
  8
1
  6
DASHED
  10
96.767
  20
39.883
  30
0.000
  0
VERTEX
  8
1
  6
DASHED
  10
96.883
  20
39.883
  30
0.000
  0
VERTEX
  8
1
  6
DASHED
  10
96.983
  20
39.883
  30
0.000
  0
VERTEX
  8
1
  6
DASHED
  10
97.083
  20
39.883
  30
0.000
  0
VERTEX
  8
1
  6
DASHED
  10
97.183
  20
39.883
  30
0.000
  0
VERTEX
  8
1
  6
DASHED
  10
97.300
  20
39.883
  30
0.000
  0
VERTEX
  8
1
  6
DASHED
  10
97.400
  20
39.883
  30
0.000
  0
VERTEX
  8
1
  6
DASHED
  10
97.500
  20
39.883
  30
0.000
  0
VERTEX
  8
1
  6
DASHED
  10
97.600
  20
39.883
  30
0.000
  0
VERTEX
  8
1
  6
DASHED
  10
97.717
  20
39.883
  30
0.000
  0
VERTEX
  8
1
  6
DASHED
  10
97.817
  20
39.883
  30
0.000
  0
VERTEX
  8
1
  6
DASHED
  10
97.917
  20
39.883
  30
0.000
  0
VERTEX
  8
1
  6
DASHED
  10
98.017
  20
39.883
  30
0.000
  0
VERTEX
  8
1
  6
DASHED
  10
98.133
  20
39.883
  30
0.000
  0
VERTEX
  8
1
  6
DASHED
  10
98.233
  20
39.900
  30
0.000
  0
VERTEX
  8
1
  6
DASHED
  10
98.333
  20
39.900
  30
0.000
  0
VERTEX
  8
1
  6
DASHED
  10
98.433
  20
39.900
  30
0.000
  0
VERTEX
  8
1
  6
DASHED
  10
98.550
  20
39.900
  30
0.000
  0
VERTEX
  8
1
  6
DASHED
  10
98.650
  20
39.900
  30
0.000
  0
VERTEX
  8
1
  6
DASHED
  10
98.750
  20
39.900
  30
0.000
  0
VERTEX
  8
1
  6
DASHED
  10
98.850
  20
39.900
  30
0.000
  0
VERTEX
  8
1
  6
DASHED
  10
98.967
  20
39.900
  30
0.000
  0
VERTEX
  8
1
  6
DASHED
  10
99.067
  20
39.900
  30
0.000
  0
VERTEX
  8
1
  6
DASHED
  10
99.167
  20
39.900
  30
0.000
  0
VERTEX
  8
1
  6
DASHED
  10
99.267
  20
39.900
  30
0.000
  0
VERTEX
  8
1
  6
DASHED
  10
99.383
  20
39.900
  30
0.000
  0
VERTEX
  8
1
  6
DASHED
  10
99.483
  20
39.900
  30
0.000
  0
VERTEX
  8
1
  6
DASHED
  10
99.583
  20
39.900
  30
0.000
  0
VERTEX
  8
1
  6
DASHED
  10
99.683
  20
39.900
  30
0.000
  0
VERTEX
  8
1
  6
DASHED
  10
99.800
  20
39.900
  30
0.000
  0
VERTEX
  8
1
  6
DASHED
  10
99.900
  20
39.900
  30
0.000
  0
VERTEX
  8
1
  6
DASHED
  10
100.000
  20
39.900
  30
0.000
  0
VERTEX
  8
1
  6
DASHED
  10
100.100
  20
39.900
  30
0.000
  0
VERTEX
  8
1
  6
DASHED
  10
100.217
  20
39.900
  30
0.000
  0
VERTEX
  8
1
  6
DASHED
  10
100.317
  20
39.900
  30
0.000
  0
VERTEX
  8
1
  6
DASHED
  10
100.417
  20
39.900
  30
0.000
  0
VERTEX
  8
1
  6
DASHED
  10
100.517
  20
39.900
  30
0.000
  0
VERTEX
  8
1
  6
DASHED
  10
100.633
  20
39.900
  30
0.000
  0
VERTEX
  8
1
  6
DASHED
  10
100.733
  20
39.900
  30
0.000
  0
VERTEX
  8
1
  6
DASHED
  10
100.833
  20
39.900
  30
0.000
  0
VERTEX
  8
1
  6
DASHED
  10
100.933
  20
39.900
  30
0.000
  0
VERTEX
  8
1
  6
DASHED
  10
101.050
  20
39.900
  30
0.000
  0
VERTEX
  8
1
  6
DASHED
  10
101.150
  20
39.900
  30
0.000
  0
VERTEX
  8
1
  6
DASHED
  10
101.250
  20
39.900
  30
0.000
  0
VERTEX
  8
1
  6
DASHED
  10
101.350
  20
39.900
  30
0.000
  0
VERTEX
  8
1
  6
DASHED
  10
101.467
  20
39.917
  30
0.000
  0
VERTEX
  8
1
  6
DASHED
  10
101.567
  20
39.917
  30
0.000
  0
VERTEX
  8
1
  6
DASHED
  10
101.667
  20
39.917
  30
0.000
  0
VERTEX
  8
1
  6
DASHED
  10
101.767
  20
39.917
  30
0.000
  0
VERTEX
  8
1
  6
DASHED
  10
101.883
  20
39.917
  30
0.000
  0
VERTEX
  8
1
  6
DASHED
  10
101.983
  20
39.917
  30
0.000
  0
VERTEX
  8
1
  6
DASHED
  10
102.083
  20
39.917
  30
0.000
  0
VERTEX
  8
1
  6
DASHED
  10
102.183
  20
39.933
  30
0.000
  0
VERTEX
  8
1
  6
DASHED
  10
102.300
  20
39.967
  30
0.000
  0
VERTEX
  8
1
  6
DASHED
  10
102.400
  20
39.983
  30
0.000
  0
VERTEX
  8
1
  6
DASHED
  10
102.500
  20
40.000
  30
0.000
  0
VERTEX
  8
1
  6
DASHED
  10
102.617
  20
40.033
  30
0.000
  0
VERTEX
  8
1
  6
DASHED
  10
102.717
  20
40.050
  30
0.000
  0
VERTEX
  8
1
  6
DASHED
  10
102.817
  20
40.067
  30
0.000
  0
VERTEX
  8
1
  6
DASHED
  10
102.917
  20
40.083
  30
0.000
  0
VERTEX
  8
1
  6
DASHED
  10
103.033
  20
40.083
  30
0.000
  0
VERTEX
  8
1
  6
DASHED
  10
103.133
  20
40.083
  30
0.000
  0
VERTEX
  8
1
  6
DASHED
  10
103.233
  20
40.083
  30
0.000
  0
VERTEX
  8
1
  6
DASHED
  10
103.333
  20
40.083
  30
0.000
  0
VERTEX
  8
1
  6
DASHED
  10
103.450
  20
40.083
  30
0.000
  0
VERTEX
  8
1
  6
DASHED
  10
103.550
  20
40.083
  30
0.000
  0
VERTEX
  8
1
  6
DASHED
  10
103.650
  20
40.083
  30
0.000
  0
VERTEX
  8
1
  6
DASHED
  10
103.750
  20
40.083
  30
0.000
  0
VERTEX
  8
1
  6
DASHED
  10
103.867
  20
40.083
  30
0.000
  0
VERTEX
  8
1
  6
DASHED
  10
103.967
  20
40.100
  30
0.000
  0
VERTEX
  8
1
  6
DASHED
  10
104.067
  20
40.100
  30
0.000
  0
VERTEX
  8
1
  6
DASHED
  10
104.167
  20
40.100
  30
0.000
  0
VERTEX
  8
1
  6
DASHED
  10
104.283
  20
40.100
  30
0.000
  0
VERTEX
  8
1
  6
DASHED
  10
104.383
  20
40.100
  30
0.000
  0
VERTEX
  8
1
  6
DASHED
  10
104.483
  20
40.100
  30
0.000
  0
VERTEX
  8
1
  6
DASHED
  10
104.583
  20
40.100
  30
0.000
  0
VERTEX
  8
1
  6
DASHED
  10
104.700
  20
40.100
  30
0.000
  0
VERTEX
  8
1
  6
DASHED
  10
104.800
  20
40.100
  30
0.000
  0
VERTEX
  8
1
  6
DASHED
  10
104.900
  20
40.100
  30
0.000
  0
VERTEX
  8
1
  6
DASHED
  10
105.000
  20
40.100
  30
0.000
  0
VERTEX
  8
1
  6
DASHED
  10
105.117
  20
40.100
  30
0.000
  0
VERTEX
  8
1
  6
DASHED
  10
105.217
  20
40.100
  30
0.000
  0
VERTEX
  8
1
  6
DASHED
  10
105.317
  20
40.100
  30
0.000
  0
VERTEX
  8
1
  6
DASHED
  10
105.417
  20
40.100
  30
0.000
  0
VERTEX
  8
1
  6
DASHED
  10
105.533
  20
40.117
  30
0.000
  0
VERTEX
  8
1
  6
DASHED
  10
105.633
  20
40.117
  30
0.000
  0
VERTEX
  8
1
  6
DASHED
  10
105.733
  20
40.117
  30
0.000
  0
VERTEX
  8
1
  6
DASHED
  10
105.833
  20
40.117
  30
0.000
  0
VERTEX
  8
1
  6
DASHED
  10
105.950
  20
40.117
  30
0.000
  0
VERTEX
  8
1
  6
DASHED
  10
106.050
  20
40.117
  30
0.000
  0
VERTEX
  8
1
  6
DASHED
  10
106.150
  20
40.117
  30
0.000
  0
VERTEX
  8
1
  6
DASHED
  10
106.250
  20
40.117
  30
0.000
  0
VERTEX
  8
1
  6
DASHED
  10
106.367
  20
40.117
  30
0.000
  0
VERTEX
  8
1
  6
DASHED
  10
106.467
  20
40.117
  30
0.000
  0
VERTEX
  8
1
  6
DASHED
  10
106.567
  20
40.117
  30
0.000
  0
VERTEX
  8
1
  6
DASHED
  10
106.667
  20
40.117
  30
0.000
  0
VERTEX
  8
1
  6
DASHED
  10
106.783
  20
40.117
  30
0.000
  0
VERTEX
  8
1
  6
DASHED
  10
106.883
  20
40.117
  30
0.000
  0
VERTEX
  8
1
  6
DASHED
  10
106.983
  20
40.117
  30
0.000
  0
VERTEX
  8
1
  6
DASHED
  10
107.083
  20
40.117
  30
0.000
  0
VERTEX
  8
1
  6
DASHED
  10
107.200
  20
40.117
  30
0.000
  0
VERTEX
  8
1
  6
DASHED
  10
107.300
  20
40.117
  30
0.000
  0
VERTEX
  8
1
  6
DASHED
  10
107.400
  20
40.117
  30
0.000
  0
VERTEX
  8
1
  6
DASHED
  10
107.500
  20
40.117
  30
0.000
  0
VERTEX
  8
1
  6
DASHED
  10
107.617
  20
40.117
  30
0.000
  0
VERTEX
  8
1
  6
DASHED
  10
107.717
  20
40.117
  30
0.000
  0
VERTEX
  8
1
  6
DASHED
  10
107.817
  20
40.117
  30
0.000
  0
VERTEX
  8
1
  6
DASHED
  10
107.917
  20
40.117
  30
0.000
  0
VERTEX
  8
1
  6
DASHED
  10
108.033
  20
40.117
  30
0.000
  0
VERTEX
  8
1
  6
DASHED
  10
108.133
  20
40.117
  30
0.000
  0
VERTEX
  8
1
  6
DASHED
  10
108.233
  20
40.117
  30
0.000
  0
VERTEX
  8
1
  6
DASHED
  10
108.333
  20
40.117
  30
0.000
  0
VERTEX
  8
1
  6
DASHED
  10
108.450
  20
40.133
  30
0.000
  0
VERTEX
  8
1
  6
DASHED
  10
108.550
  20
40.133
  30
0.000
  0
VERTEX
  8
1
  6
DASHED
  10
108.650
  20
40.133
  30
0.000
  0
VERTEX
  8
1
  6
DASHED
  10
108.750
  20
40.133
  30
0.000
  0
VERTEX
  8
1
  6
DASHED
  10
108.867
  20
40.133
  30
0.000
  0
VERTEX
  8
1
  6
DASHED
  10
108.967
  20
40.133
  30
0.000
  0
VERTEX
  8
1
  6
DASHED
  10
109.067
  20
40.133
  30
0.000
  0
VERTEX
  8
1
  6
DASHED
  10
109.167
  20
40.133
  30
0.000
  0
VERTEX
  8
1
  6
DASHED
  10
109.283
  20
40.133
  30
0.000
  0
VERTEX
  8
1
  6
DASHED
  10
109.383
  20
40.133
  30
0.000
  0
VERTEX
  8
1
  6
DASHED
  10
109.483
  20
40.133
  30
0.000
  0
VERTEX
  8
1
  6
DASHED
  10
109.583
  20
40.133
  30
0.000
  0
VERTEX
  8
1
  6
DASHED
  10
109.700
  20
40.133
  30
0.000
  0
VERTEX
  8
1
  6
DASHED
  10
109.800
  20
40.133
  30
0.000
  0
VERTEX
  8
1
  6
DASHED
  10
109.900
  20
40.133
  30
0.000
  0
VERTEX
  8
1
  6
DASHED
  10
110.000
  20
40.133
  30
0.000
  0
VERTEX
  8
1
  6
DASHED
  10
110.117
  20
40.133
  30
0.000
  0
VERTEX
  8
1
  6
DASHED
  10
110.217
  20
40.133
  30
0.000
  0
VERTEX
  8
1
  6
DASHED
  10
110.317
  20
40.133
  30
0.000
  0
VERTEX
  8
1
  6
DASHED
  10
110.417
  20
40.133
  30
0.000
  0
VERTEX
  8
1
  6
DASHED
  10
110.533
  20
40.133
  30
0.000
  0
VERTEX
  8
1
  6
DASHED
  10
110.633
  20
40.133
  30
0.000
  0
VERTEX
  8
1
  6
DASHED
  10
110.733
  20
40.133
  30
0.000
  0
VERTEX
  8
1
  6
DASHED
  10
110.833
  20
40.133
  30
0.000
  0
VERTEX
  8
1
  6
DASHED
  10
110.950
  20
40.133
  30
0.000
  0
VERTEX
  8
1
  6
DASHED
  10
111.050
  20
40.150
  30
0.000
  0
VERTEX
  8
1
  6
DASHED
  10
111.150
  20
40.150
  30
0.000
  0
VERTEX
  8
1
  6
DASHED
  10
111.250
  20
40.150
  30
0.000
  0
VERTEX
  8
1
  6
DASHED
  10
111.367
  20
40.150
  30
0.000
  0
VERTEX
  8
1
  6
DASHED
  10
111.467
  20
40.150
  30
0.000
  0
VERTEX
  8
1
  6
DASHED
  10
111.567
  20
40.150
  30
0.000
  0
VERTEX
  8
1
  6
DASHED
  10
111.667
  20
40.150
  30
0.000
  0
VERTEX
  8
1
  6
DASHED
  10
111.783
  20
40.150
  30
0.000
  0
VERTEX
  8
1
  6
DASHED
  10
111.883
  20
40.150
  30
0.000
  0
VERTEX
  8
1
  6
DASHED
  10
111.983
  20
40.150
  30
0.000
  0
VERTEX
  8
1
  6
DASHED
  10
112.083
  20
40.150
  30
0.000
  0
VERTEX
  8
1
  6
DASHED
  10
112.200
  20
40.150
  30
0.000
  0
VERTEX
  8
1
  6
DASHED
  10
112.300
  20
40.167
  30
0.000
  0
VERTEX
  8
1
  6
DASHED
  10
112.400
  20
40.167
  30
0.000
  0
VERTEX
  8
1
  6
DASHED
  10
112.500
  20
40.167
  30
0.000
  0
VERTEX
  8
1
  6
DASHED
  10
112.617
  20
40.167
  30
0.000
  0
VERTEX
  8
1
  6
DASHED
  10
112.717
  20
40.167
  30
0.000
  0
VERTEX
  8
1
  6
DASHED
  10
112.817
  20
40.167
  30
0.000
  0
VERTEX
  8
1
  6
DASHED
  10
112.917
  20
40.167
  30
0.000
  0
VERTEX
  8
1
  6
DASHED
  10
113.033
  20
40.167
  30
0.000
  0
VERTEX
  8
1
  6
DASHED
  10
113.133
  20
40.167
  30
0.000
  0
VERTEX
  8
1
  6
DASHED
  10
113.233
  20
40.167
  30
0.000
  0
VERTEX
  8
1
  6
DASHED
  10
113.333
  20
40.167
  30
0.000
  0
VERTEX
  8
1
  6
DASHED
  10
113.450
  20
40.167
  30
0.000
  0
VERTEX
  8
1
  6
DASHED
  10
113.550
  20
40.167
  30
0.000
  0
VERTEX
  8
1
  6
DASHED
  10
113.650
  20
40.167
  30
0.000
  0
VERTEX
  8
1
  6
DASHED
  10
113.750
  20
40.167
  30
0.000
  0
VERTEX
  8
1
  6
DASHED
  10
113.867
  20
40.167
  30
0.000
  0
VERTEX
  8
1
  6
DASHED
  10
113.967
  20
40.167
  30
0.000
  0
VERTEX
  8
1
  6
DASHED
  10
114.067
  20
40.167
  30
0.000
  0
VERTEX
  8
1
  6
DASHED
  10
114.167
  20
40.167
  30
0.000
  0
VERTEX
  8
1
  6
DASHED
  10
114.283
  20
40.167
  30
0.000
  0
VERTEX
  8
1
  6
DASHED
  10
114.383
  20
40.167
  30
0.000
  0
VERTEX
  8
1
  6
DASHED
  10
114.483
  20
40.167
  30
0.000
  0
VERTEX
  8
1
  6
DASHED
  10
114.583
  20
40.167
  30
0.000
  0
VERTEX
  8
1
  6
DASHED
  10
114.700
  20
40.167
  30
0.000
  0
VERTEX
  8
1
  6
DASHED
  10
114.800
  20
40.167
  30
0.000
  0
VERTEX
  8
1
  6
DASHED
  10
114.900
  20
40.167
  30
0.000
  0
VERTEX
  8
1
  6
DASHED
  10
115.000
  20
40.167
  30
0.000
  0
VERTEX
  8
1
  6
DASHED
  10
115.117
  20
40.167
  30
0.000
  0
VERTEX
  8
1
  6
DASHED
  10
115.217
  20
40.167
  30
0.000
  0
VERTEX
  8
1
  6
DASHED
  10
115.317
  20
40.167
  30
0.000
  0
VERTEX
  8
1
  6
DASHED
  10
115.417
  20
40.167
  30
0.000
  0
VERTEX
  8
1
  6
DASHED
  10
115.533
  20
40.167
  30
0.000
  0
SEQEND
  0
ENDSEC
  0
EOF
