999
% GNUPLOT: dxf file for AutoCad
  0
SECTION
  2
HEADER
  9
$EXTMIN
 10
0.000
 20
0.000
  9
$EXTMAX
 10
120.000
 20
80.000
  9
$LIMMIN
 10
0.000
 20
0.000
  9
$LIMMAX
 10
120.000
 20
80.000
  9
$TEXTSTYLE
  7
STANDARD
  9
$TEXTSIZE
 40
1.456 
  9
$PLINEWID
 40
0.0351
  9
$LTSCALE
  40
1.000 
  9
$COORDS
 70
  1
  9
$CELTYPE
 6
BYLAYER
  9
$CLAYER
  8
0
  9
$CECOLOR
 62
   7
  9
$MENU
  1
acad
  0
ENDSEC
  0
SECTION
  2
TABLES
0
TABLE
  2
LTYPE
 70
    7
0
LTYPE
  2
CONTINUOUS
 70
    64
  3
Solid line
 72
    65
 73
      0
 40
0.0
  0
LTYPE
  2
DASHED
 70
    64
  3
__ __ __ __ __ __ __ __ __ __ __ __ __ __ __
 72
    65
 73
     2
 40
0.75
 49
0.5
 49
-0.25
  0
LTYPE
  2
HIDDEN
 70
    64
  3
_ _ _ _ _ _ _ _ _ _ _ _ _ _ _ _ _ _ _ _ _ _ _
 72
    65
 73
     2
 40
0.375
 49
0.25
 49
-0.125
  0
LTYPE
  2
CENTER
 70
    64
  3
____ _ ____ _ ____ _ ____ _ ____ _ ____ _ ____
 72
    65
 73
     4
 40
2.0
 49
1.25
 49
-0.25
 49
0.25
 49
-0.25
  0
LTYPE
  2
PHANTOM
 70
    64
  3
_____ _ _ _____ _ _ _____ _ _ _____ _ _ ____
 72
    65
 73
     6
 40
2.5
 49
1.25
 49
-0.25
 49
0.25
 49
-0.25
 49
0.25
 49
-0.25
  0
LTYPE
  2
DOT
 70
    64
  3
...............................................
 72
    65
 73
     2
 40
0.25
 49
0.0
 49
-0.25
  0
LTYPE
  2
DASHDOT
 70
    64
  3
__ . __ . __ . __ . __ . __ . __ . __ . __ . __
 72
    65
 73
     4
 40
1.0
 49
0.5
 49
-0.25
 49
0.0
 49
-0.25
  0
ENDTAB
  0
TABLE
  2
LAYER
 70
   7
  0
LAYER
  2
0
 70
   64
62
   7
  6
CONTINUOUS
  0
LAYER
  2
1
 70
   64
62
   1
  6
DASHED
  0
LAYER
  2
2
 70
   64
62
   2
  6
HIDDEN
  0
LAYER
  2
3
 70
   64
62
   3
  6
CENTER
  0
LAYER
  2
4
 70
   64
62
   4
  6
PHANTOM
  0
LAYER
  2
5
 70
   64
62
   5
  6
DOT
  0
LAYER
  2
6
 70
   64
62
   6
  6
DASHDOT
  0
ENDTAB
0
ENDSEC
  0
SECTION
  2
BLOCKS
  0
ENDSEC
  0
SECTION
  2
ENTITIES
  0
POLYLINE
  8
2
 66
   1
  6
HIDDEN
  0
VERTEX
  8
2
  6
HIDDEN
 10
14.767
 20
6.200 
 30
0.000
  0
VERTEX
  8
2
  6
HIDDEN
  10
15.967
  20
6.200 
  30
0.000
  0
SEQEND
  0
POLYLINE
  8
2
 66
   1
  6
HIDDEN
  0
VERTEX
  8
2
  6
HIDDEN
 10
115.633
 20
6.200 
 30
0.000
  0
VERTEX
  8
2
  6
HIDDEN
  10
114.433
  20
6.200 
  30
0.000
  0
SEQEND
  0
TEXT
  8
0
 10
7.220 
 20
5.680 
 30
0.000
 40
1.456 
  1
-0.04
 50
0.000 
  7
STANDARD
 72
2
 11
13.100
 21
5.680 
 31
0.000
  0
POLYLINE
  8
2
 66
   1
  6
HIDDEN
  0
VERTEX
  8
2
  6
HIDDEN
 10
14.767
 20
13.250
 30
0.000
  0
VERTEX
  8
2
  6
HIDDEN
  10
15.967
  20
13.250
  30
0.000
  0
SEQEND
  0
POLYLINE
  8
2
 66
   1
  6
HIDDEN
  0
VERTEX
  8
2
  6
HIDDEN
 10
115.633
 20
13.250
 30
0.000
  0
VERTEX
  8
2
  6
HIDDEN
  10
114.433
  20
13.250
  30
0.000
  0
SEQEND
  0
TEXT
  8
0
 10
7.220 
 20
12.730
 30
0.000
 40
1.456 
  1
-0.03
 50
0.000 
  7
STANDARD
 72
2
 11
13.100
 21
12.730
 31
0.000
  0
POLYLINE
  8
2
 66
   1
  6
HIDDEN
  0
VERTEX
  8
2
  6
HIDDEN
 10
14.767
 20
20.300
 30
0.000
  0
VERTEX
  8
2
  6
HIDDEN
  10
15.967
  20
20.300
  30
0.000
  0
SEQEND
  0
POLYLINE
  8
2
 66
   1
  6
HIDDEN
  0
VERTEX
  8
2
  6
HIDDEN
 10
115.633
 20
20.300
 30
0.000
  0
VERTEX
  8
2
  6
HIDDEN
  10
114.433
  20
20.300
  30
0.000
  0
SEQEND
  0
TEXT
  8
0
 10
7.220 
 20
19.780
 30
0.000
 40
1.456 
  1
-0.02
 50
0.000 
  7
STANDARD
 72
2
 11
13.100
 21
19.780
 31
0.000
  0
POLYLINE
  8
2
 66
   1
  6
HIDDEN
  0
VERTEX
  8
2
  6
HIDDEN
 10
14.767
 20
27.333
 30
0.000
  0
VERTEX
  8
2
  6
HIDDEN
  10
15.967
  20
27.333
  30
0.000
  0
SEQEND
  0
POLYLINE
  8
2
 66
   1
  6
HIDDEN
  0
VERTEX
  8
2
  6
HIDDEN
 10
115.633
 20
27.333
 30
0.000
  0
VERTEX
  8
2
  6
HIDDEN
  10
114.433
  20
27.333
  30
0.000
  0
SEQEND
  0
TEXT
  8
0
 10
7.220 
 20
26.813
 30
0.000
 40
1.456 
  1
-0.01
 50
0.000 
  7
STANDARD
 72
2
 11
13.100
 21
26.813
 31
0.000
  0
POLYLINE
  8
2
 66
   1
  6
HIDDEN
  0
VERTEX
  8
2
  6
HIDDEN
 10
14.767
 20
34.383
 30
0.000
  0
VERTEX
  8
2
  6
HIDDEN
  10
15.967
  20
34.383
  30
0.000
  0
SEQEND
  0
POLYLINE
  8
2
 66
   1
  6
HIDDEN
  0
VERTEX
  8
2
  6
HIDDEN
 10
115.633
 20
34.383
 30
0.000
  0
VERTEX
  8
2
  6
HIDDEN
  10
114.433
  20
34.383
  30
0.000
  0
SEQEND
  0
TEXT
  8
0
 10
11.924
 20
33.863
 30
0.000
 40
1.456 
  1
0
 50
0.000 
  7
STANDARD
 72
2
 11
13.100
 21
33.863
 31
0.000
  0
POLYLINE
  8
2
 66
   1
  6
HIDDEN
  0
VERTEX
  8
2
  6
HIDDEN
 10
14.767
 20
41.433
 30
0.000
  0
VERTEX
  8
2
  6
HIDDEN
  10
15.967
  20
41.433
  30
0.000
  0
SEQEND
  0
POLYLINE
  8
2
 66
   1
  6
HIDDEN
  0
VERTEX
  8
2
  6
HIDDEN
 10
115.633
 20
41.433
 30
0.000
  0
VERTEX
  8
2
  6
HIDDEN
  10
114.433
  20
41.433
  30
0.000
  0
SEQEND
  0
TEXT
  8
0
 10
8.396 
 20
40.913
 30
0.000
 40
1.456 
  1
0.01
 50
0.000 
  7
STANDARD
 72
2
 11
13.100
 21
40.913
 31
0.000
  0
POLYLINE
  8
2
 66
   1
  6
HIDDEN
  0
VERTEX
  8
2
  6
HIDDEN
 10
14.767
 20
48.483
 30
0.000
  0
VERTEX
  8
2
  6
HIDDEN
  10
15.967
  20
48.483
  30
0.000
  0
SEQEND
  0
POLYLINE
  8
2
 66
   1
  6
HIDDEN
  0
VERTEX
  8
2
  6
HIDDEN
 10
115.633
 20
48.483
 30
0.000
  0
VERTEX
  8
2
  6
HIDDEN
  10
114.433
  20
48.483
  30
0.000
  0
SEQEND
  0
TEXT
  8
0
 10
8.396 
 20
47.963
 30
0.000
 40
1.456 
  1
0.02
 50
0.000 
  7
STANDARD
 72
2
 11
13.100
 21
47.963
 31
0.000
  0
POLYLINE
  8
2
 66
   1
  6
HIDDEN
  0
VERTEX
  8
2
  6
HIDDEN
 10
14.767
 20
55.533
 30
0.000
  0
VERTEX
  8
2
  6
HIDDEN
  10
15.967
  20
55.533
  30
0.000
  0
SEQEND
  0
POLYLINE
  8
2
 66
   1
  6
HIDDEN
  0
VERTEX
  8
2
  6
HIDDEN
 10
115.633
 20
55.533
 30
0.000
  0
VERTEX
  8
2
  6
HIDDEN
  10
114.433
  20
55.533
  30
0.000
  0
SEQEND
  0
TEXT
  8
0
 10
8.396 
 20
55.013
 30
0.000
 40
1.456 
  1
0.03
 50
0.000 
  7
STANDARD
 72
2
 11
13.100
 21
55.013
 31
0.000
  0
POLYLINE
  8
2
 66
   1
  6
HIDDEN
  0
VERTEX
  8
2
  6
HIDDEN
 10
14.767
 20
62.567
 30
0.000
  0
VERTEX
  8
2
  6
HIDDEN
  10
15.967
  20
62.567
  30
0.000
  0
SEQEND
  0
POLYLINE
  8
2
 66
   1
  6
HIDDEN
  0
VERTEX
  8
2
  6
HIDDEN
 10
115.633
 20
62.567
 30
0.000
  0
VERTEX
  8
2
  6
HIDDEN
  10
114.433
  20
62.567
  30
0.000
  0
SEQEND
  0
TEXT
  8
0
 10
8.396 
 20
62.047
 30
0.000
 40
1.456 
  1
0.04
 50
0.000 
  7
STANDARD
 72
2
 11
13.100
 21
62.047
 31
0.000
  0
POLYLINE
  8
2
 66
   1
  6
HIDDEN
  0
VERTEX
  8
2
  6
HIDDEN
 10
14.767
 20
69.617
 30
0.000
  0
VERTEX
  8
2
  6
HIDDEN
  10
15.967
  20
69.617
  30
0.000
  0
SEQEND
  0
POLYLINE
  8
2
 66
   1
  6
HIDDEN
  0
VERTEX
  8
2
  6
HIDDEN
 10
115.633
 20
69.617
 30
0.000
  0
VERTEX
  8
2
  6
HIDDEN
  10
114.433
  20
69.617
  30
0.000
  0
SEQEND
  0
TEXT
  8
0
 10
8.396 
 20
69.097
 30
0.000
 40
1.456 
  1
0.05
 50
0.000 
  7
STANDARD
 72
2
 11
13.100
 21
69.097
 31
0.000
  0
POLYLINE
  8
2
 66
   1
  6
HIDDEN
  0
VERTEX
  8
2
  6
HIDDEN
 10
14.767
 20
76.667
 30
0.000
  0
VERTEX
  8
2
  6
HIDDEN
  10
15.967
  20
76.667
  30
0.000
  0
SEQEND
  0
POLYLINE
  8
2
 66
   1
  6
HIDDEN
  0
VERTEX
  8
2
  6
HIDDEN
 10
115.633
 20
76.667
 30
0.000
  0
VERTEX
  8
2
  6
HIDDEN
  10
114.433
  20
76.667
  30
0.000
  0
SEQEND
  0
TEXT
  8
0
 10
8.396 
 20
76.147
 30
0.000
 40
1.456 
  1
0.06
 50
0.000 
  7
STANDARD
 72
2
 11
13.100
 21
76.147
 31
0.000
  0
POLYLINE
  8
2
 66
   1
  6
HIDDEN
  0
VERTEX
  8
2
  6
HIDDEN
 10
14.767
 20
6.200 
 30
0.000
  0
VERTEX
  8
2
  6
HIDDEN
  10
14.767
  20
7.000 
  30
0.000
  0
SEQEND
  0
POLYLINE
  8
2
 66
   1
  6
HIDDEN
  0
VERTEX
  8
2
  6
HIDDEN
 10
14.767
 20
76.667
 30
0.000
  0
VERTEX
  8
2
  6
HIDDEN
  10
14.767
  20
75.867
  30
0.000
  0
SEQEND
  0
TEXT
  8
0
 10
14.179
 20
3.613 
 30
0.000
 40
1.456 
  1
0
 50
0.000 
  7
STANDARD
 72
1
 11
14.767
 21
3.613 
 31
0.000
  0
POLYLINE
  8
2
 66
   1
  6
HIDDEN
  0
VERTEX
  8
2
  6
HIDDEN
 10
39.983
 20
6.200 
 30
0.000
  0
VERTEX
  8
2
  6
HIDDEN
  10
39.983
  20
7.000 
  30
0.000
  0
SEQEND
  0
POLYLINE
  8
2
 66
   1
  6
HIDDEN
  0
VERTEX
  8
2
  6
HIDDEN
 10
39.983
 20
76.667
 30
0.000
  0
VERTEX
  8
2
  6
HIDDEN
  10
39.983
  20
75.867
  30
0.000
  0
SEQEND
  0
TEXT
  8
0
 10
39.395
 20
3.613 
 30
0.000
 40
1.456 
  1
5
 50
0.000 
  7
STANDARD
 72
1
 11
39.983
 21
3.613 
 31
0.000
  0
POLYLINE
  8
2
 66
   1
  6
HIDDEN
  0
VERTEX
  8
2
  6
HIDDEN
 10
65.200
 20
6.200 
 30
0.000
  0
VERTEX
  8
2
  6
HIDDEN
  10
65.200
  20
7.000 
  30
0.000
  0
SEQEND
  0
POLYLINE
  8
2
 66
   1
  6
HIDDEN
  0
VERTEX
  8
2
  6
HIDDEN
 10
65.200
 20
76.667
 30
0.000
  0
VERTEX
  8
2
  6
HIDDEN
  10
65.200
  20
75.867
  30
0.000
  0
SEQEND
  0
TEXT
  8
0
 10
64.024
 20
3.613 
 30
0.000
 40
1.456 
  1
10
 50
0.000 
  7
STANDARD
 72
1
 11
65.200
 21
3.613 
 31
0.000
  0
POLYLINE
  8
2
 66
   1
  6
HIDDEN
  0
VERTEX
  8
2
  6
HIDDEN
 10
90.417
 20
6.200 
 30
0.000
  0
VERTEX
  8
2
  6
HIDDEN
  10
90.417
  20
7.000 
  30
0.000
  0
SEQEND
  0
POLYLINE
  8
2
 66
   1
  6
HIDDEN
  0
VERTEX
  8
2
  6
HIDDEN
 10
90.417
 20
76.667
 30
0.000
  0
VERTEX
  8
2
  6
HIDDEN
  10
90.417
  20
75.867
  30
0.000
  0
SEQEND
  0
TEXT
  8
0
 10
89.241
 20
3.613 
 30
0.000
 40
1.456 
  1
15
 50
0.000 
  7
STANDARD
 72
1
 11
90.417
 21
3.613 
 31
0.000
  0
POLYLINE
  8
2
 66
   1
  6
HIDDEN
  0
VERTEX
  8
2
  6
HIDDEN
 10
115.633
 20
6.200 
 30
0.000
  0
VERTEX
  8
2
  6
HIDDEN
  10
115.633
  20
7.000 
  30
0.000
  0
SEQEND
  0
POLYLINE
  8
2
 66
   1
  6
HIDDEN
  0
VERTEX
  8
2
  6
HIDDEN
 10
115.633
 20
76.667
 30
0.000
  0
VERTEX
  8
2
  6
HIDDEN
  10
115.633
  20
75.867
  30
0.000
  0
SEQEND
  0
TEXT
  8
0
 10
114.457
 20
3.613 
 30
0.000
 40
1.456 
  1
20
 50
0.000 
  7
STANDARD
 72
1
 11
115.633
 21
3.613 
 31
0.000
  0
POLYLINE
  8
1
 66
   1
  6
DASHED
  0
VERTEX
  8
1
  6
DASHED
 10
14.767
 20
34.383
 30
0.000
  0
VERTEX
  8
1
  6
DASHED
  10
115.633
  20
34.383
  30
0.000
  0
SEQEND
  0
POLYLINE
  8
1
 66
   1
  6
DASHED
  0
VERTEX
  8
1
  6
DASHED
 10
14.767
 20
6.200 
 30
0.000
  0
VERTEX
  8
1
  6
DASHED
  10
14.767
  20
76.667
  30
0.000
  0
SEQEND
  0
POLYLINE
  8
2
 66
   1
  6
HIDDEN
  0
VERTEX
  8
2
  6
HIDDEN
 10
14.767
 20
6.200 
 30
0.000
  0
VERTEX
  8
2
  6
HIDDEN
  10
115.633
  20
6.200 
  30
0.000
  0
VERTEX
  8
2
  6
HIDDEN
  10
115.633
  20
76.667
  30
0.000
  0
VERTEX
  8
2
  6
HIDDEN
  10
14.767
  20
76.667
  30
0.000
  0
VERTEX
  8
2
  6
HIDDEN
  10
14.767
  20
6.200 
  30
0.000
  0
SEQEND
  0
TEXT
  8
0
 10
2.587 
 20
24.381
 30
0.000
 40
1.456 
  1
story deformation angle (rad)
 50
90.000
  7
STANDARD
 72
1
 11
2.587 
 21
41.433
 31
0.000
  0
TEXT
  8
0
 10
59.320
 20
0.513 
 30
0.000
 40
1.456 
  1
time (sec)
 50
0.000 
  7
STANDARD
 72
1
 11
65.200
 21
0.513 
 31
0.000
  0
TEXT
  8
0
 10
92.183
 20
74.313
 30
0.000
 40
1.456 
  1
1st story
 50
0.000 
  7
STANDARD
 72
2
 11
102.767
 21
74.313
 31
0.000
  0
POLYLINE
  8
0
 66
   1
  6
CONTINUOUS
  0
VERTEX
  8
0
  6
CONTINUOUS
 10
104.433
 20
74.833
 30
0.000
  0
VERTEX
  8
0
  6
CONTINUOUS
  10
112.300
  20
74.833
  30
0.000
  0
SEQEND
  0
POLYLINE
  8
0
 66
   1
  6
CONTINUOUS
  0
VERTEX
  8
0
  6
CONTINUOUS
 10
14.867
 20
34.383
 30
0.000
  0
VERTEX
  8
0
  6
CONTINUOUS
  10
14.867
  20
34.383
  30
0.000
  0
VERTEX
  8
0
  6
CONTINUOUS
  10
14.967
  20
34.383
  30
0.000
  0
VERTEX
  8
0
  6
CONTINUOUS
  10
15.067
  20
34.383
  30
0.000
  0
VERTEX
  8
0
  6
CONTINUOUS
  10
15.167
  20
34.383
  30
0.000
  0
VERTEX
  8
0
  6
CONTINUOUS
  10
15.267
  20
34.383
  30
0.000
  0
VERTEX
  8
0
  6
CONTINUOUS
  10
15.367
  20
34.383
  30
0.000
  0
VERTEX
  8
0
  6
CONTINUOUS
  10
15.467
  20
34.383
  30
0.000
  0
VERTEX
  8
0
  6
CONTINUOUS
  10
15.567
  20
34.400
  30
0.000
  0
VERTEX
  8
0
  6
CONTINUOUS
  10
15.667
  20
34.400
  30
0.000
  0
VERTEX
  8
0
  6
CONTINUOUS
  10
15.783
  20
34.400
  30
0.000
  0
VERTEX
  8
0
  6
CONTINUOUS
  10
15.883
  20
34.400
  30
0.000
  0
VERTEX
  8
0
  6
CONTINUOUS
  10
15.983
  20
34.400
  30
0.000
  0
VERTEX
  8
0
  6
CONTINUOUS
  10
16.083
  20
34.400
  30
0.000
  0
VERTEX
  8
0
  6
CONTINUOUS
  10
16.183
  20
34.400
  30
0.000
  0
VERTEX
  8
0
  6
CONTINUOUS
  10
16.283
  20
34.400
  30
0.000
  0
VERTEX
  8
0
  6
CONTINUOUS
  10
16.383
  20
34.400
  30
0.000
  0
VERTEX
  8
0
  6
CONTINUOUS
  10
16.483
  20
34.417
  30
0.000
  0
VERTEX
  8
0
  6
CONTINUOUS
  10
16.583
  20
34.417
  30
0.000
  0
VERTEX
  8
0
  6
CONTINUOUS
  10
16.683
  20
34.433
  30
0.000
  0
VERTEX
  8
0
  6
CONTINUOUS
  10
16.783
  20
34.433
  30
0.000
  0
VERTEX
  8
0
  6
CONTINUOUS
  10
16.883
  20
34.433
  30
0.000
  0
VERTEX
  8
0
  6
CONTINUOUS
  10
16.983
  20
34.433
  30
0.000
  0
VERTEX
  8
0
  6
CONTINUOUS
  10
17.083
  20
34.433
  30
0.000
  0
VERTEX
  8
0
  6
CONTINUOUS
  10
17.183
  20
34.450
  30
0.000
  0
VERTEX
  8
0
  6
CONTINUOUS
  10
17.283
  20
34.450
  30
0.000
  0
VERTEX
  8
0
  6
CONTINUOUS
  10
17.383
  20
34.433
  30
0.000
  0
VERTEX
  8
0
  6
CONTINUOUS
  10
17.483
  20
34.417
  30
0.000
  0
VERTEX
  8
0
  6
CONTINUOUS
  10
17.583
  20
34.400
  30
0.000
  0
VERTEX
  8
0
  6
CONTINUOUS
  10
17.700
  20
34.367
  30
0.000
  0
VERTEX
  8
0
  6
CONTINUOUS
  10
17.800
  20
34.333
  30
0.000
  0
VERTEX
  8
0
  6
CONTINUOUS
  10
17.900
  20
34.300
  30
0.000
  0
VERTEX
  8
0
  6
CONTINUOUS
  10
18.000
  20
34.267
  30
0.000
  0
VERTEX
  8
0
  6
CONTINUOUS
  10
18.100
  20
34.250
  30
0.000
  0
VERTEX
  8
0
  6
CONTINUOUS
  10
18.200
  20
34.267
  30
0.000
  0
VERTEX
  8
0
  6
CONTINUOUS
  10
18.300
  20
34.267
  30
0.000
  0
VERTEX
  8
0
  6
CONTINUOUS
  10
18.400
  20
34.267
  30
0.000
  0
VERTEX
  8
0
  6
CONTINUOUS
  10
18.500
  20
34.283
  30
0.000
  0
VERTEX
  8
0
  6
CONTINUOUS
  10
18.600
  20
34.283
  30
0.000
  0
VERTEX
  8
0
  6
CONTINUOUS
  10
18.700
  20
34.300
  30
0.000
  0
VERTEX
  8
0
  6
CONTINUOUS
  10
18.800
  20
34.300
  30
0.000
  0
VERTEX
  8
0
  6
CONTINUOUS
  10
18.900
  20
34.300
  30
0.000
  0
VERTEX
  8
0
  6
CONTINUOUS
  10
19.000
  20
34.267
  30
0.000
  0
VERTEX
  8
0
  6
CONTINUOUS
  10
19.100
  20
34.217
  30
0.000
  0
VERTEX
  8
0
  6
CONTINUOUS
  10
19.200
  20
34.183
  30
0.000
  0
VERTEX
  8
0
  6
CONTINUOUS
  10
19.300
  20
34.150
  30
0.000
  0
VERTEX
  8
0
  6
CONTINUOUS
  10
19.400
  20
34.150
  30
0.000
  0
VERTEX
  8
0
  6
CONTINUOUS
  10
19.500
  20
34.167
  30
0.000
  0
VERTEX
  8
0
  6
CONTINUOUS
  10
19.600
  20
34.183
  30
0.000
  0
VERTEX
  8
0
  6
CONTINUOUS
  10
19.717
  20
34.200
  30
0.000
  0
VERTEX
  8
0
  6
CONTINUOUS
  10
19.817
  20
34.267
  30
0.000
  0
VERTEX
  8
0
  6
CONTINUOUS
  10
19.917
  20
34.367
  30
0.000
  0
VERTEX
  8
0
  6
CONTINUOUS
  10
20.017
  20
34.483
  30
0.000
  0
VERTEX
  8
0
  6
CONTINUOUS
  10
20.117
  20
34.600
  30
0.000
  0
VERTEX
  8
0
  6
CONTINUOUS
  10
20.217
  20
34.700
  30
0.000
  0
VERTEX
  8
0
  6
CONTINUOUS
  10
20.317
  20
34.783
  30
0.000
  0
VERTEX
  8
0
  6
CONTINUOUS
  10
20.417
  20
34.833
  30
0.000
  0
VERTEX
  8
0
  6
CONTINUOUS
  10
20.517
  20
34.883
  30
0.000
  0
VERTEX
  8
0
  6
CONTINUOUS
  10
20.617
  20
34.933
  30
0.000
  0
VERTEX
  8
0
  6
CONTINUOUS
  10
20.717
  20
34.983
  30
0.000
  0
VERTEX
  8
0
  6
CONTINUOUS
  10
20.817
  20
35.000
  30
0.000
  0
VERTEX
  8
0
  6
CONTINUOUS
  10
20.917
  20
34.967
  30
0.000
  0
VERTEX
  8
0
  6
CONTINUOUS
  10
21.017
  20
34.883
  30
0.000
  0
VERTEX
  8
0
  6
CONTINUOUS
  10
21.117
  20
34.783
  30
0.000
  0
VERTEX
  8
0
  6
CONTINUOUS
  10
21.217
  20
34.650
  30
0.000
  0
VERTEX
  8
0
  6
CONTINUOUS
  10
21.317
  20
34.533
  30
0.000
  0
VERTEX
  8
0
  6
CONTINUOUS
  10
21.417
  20
34.433
  30
0.000
  0
VERTEX
  8
0
  6
CONTINUOUS
  10
21.517
  20
34.317
  30
0.000
  0
VERTEX
  8
0
  6
CONTINUOUS
  10
21.633
  20
34.233
  30
0.000
  0
VERTEX
  8
0
  6
CONTINUOUS
  10
21.733
  20
34.150
  30
0.000
  0
VERTEX
  8
0
  6
CONTINUOUS
  10
21.833
  20
34.100
  30
0.000
  0
VERTEX
  8
0
  6
CONTINUOUS
  10
21.933
  20
34.067
  30
0.000
  0
VERTEX
  8
0
  6
CONTINUOUS
  10
22.033
  20
34.083
  30
0.000
  0
VERTEX
  8
0
  6
CONTINUOUS
  10
22.133
  20
34.133
  30
0.000
  0
VERTEX
  8
0
  6
CONTINUOUS
  10
22.233
  20
34.150
  30
0.000
  0
VERTEX
  8
0
  6
CONTINUOUS
  10
22.333
  20
34.133
  30
0.000
  0
VERTEX
  8
0
  6
CONTINUOUS
  10
22.433
  20
34.100
  30
0.000
  0
VERTEX
  8
0
  6
CONTINUOUS
  10
22.533
  20
34.100
  30
0.000
  0
VERTEX
  8
0
  6
CONTINUOUS
  10
22.633
  20
34.133
  30
0.000
  0
VERTEX
  8
0
  6
CONTINUOUS
  10
22.733
  20
34.200
  30
0.000
  0
VERTEX
  8
0
  6
CONTINUOUS
  10
22.833
  20
34.250
  30
0.000
  0
VERTEX
  8
0
  6
CONTINUOUS
  10
22.933
  20
34.300
  30
0.000
  0
VERTEX
  8
0
  6
CONTINUOUS
  10
23.033
  20
34.350
  30
0.000
  0
VERTEX
  8
0
  6
CONTINUOUS
  10
23.133
  20
34.433
  30
0.000
  0
VERTEX
  8
0
  6
CONTINUOUS
  10
23.233
  20
34.517
  30
0.000
  0
VERTEX
  8
0
  6
CONTINUOUS
  10
23.333
  20
34.583
  30
0.000
  0
VERTEX
  8
0
  6
CONTINUOUS
  10
23.433
  20
34.650
  30
0.000
  0
VERTEX
  8
0
  6
CONTINUOUS
  10
23.550
  20
34.683
  30
0.000
  0
VERTEX
  8
0
  6
CONTINUOUS
  10
23.650
  20
34.683
  30
0.000
  0
VERTEX
  8
0
  6
CONTINUOUS
  10
23.750
  20
34.667
  30
0.000
  0
VERTEX
  8
0
  6
CONTINUOUS
  10
23.850
  20
34.617
  30
0.000
  0
VERTEX
  8
0
  6
CONTINUOUS
  10
23.950
  20
34.533
  30
0.000
  0
VERTEX
  8
0
  6
CONTINUOUS
  10
24.050
  20
34.417
  30
0.000
  0
VERTEX
  8
0
  6
CONTINUOUS
  10
24.150
  20
34.300
  30
0.000
  0
VERTEX
  8
0
  6
CONTINUOUS
  10
24.250
  20
34.183
  30
0.000
  0
VERTEX
  8
0
  6
CONTINUOUS
  10
24.350
  20
34.117
  30
0.000
  0
VERTEX
  8
0
  6
CONTINUOUS
  10
24.450
  20
34.100
  30
0.000
  0
VERTEX
  8
0
  6
CONTINUOUS
  10
24.550
  20
34.100
  30
0.000
  0
VERTEX
  8
0
  6
CONTINUOUS
  10
24.650
  20
34.083
  30
0.000
  0
VERTEX
  8
0
  6
CONTINUOUS
  10
24.750
  20
34.050
  30
0.000
  0
VERTEX
  8
0
  6
CONTINUOUS
  10
24.850
  20
34.000
  30
0.000
  0
VERTEX
  8
0
  6
CONTINUOUS
  10
24.950
  20
33.983
  30
0.000
  0
VERTEX
  8
0
  6
CONTINUOUS
  10
25.050
  20
33.983
  30
0.000
  0
VERTEX
  8
0
  6
CONTINUOUS
  10
25.150
  20
34.017
  30
0.000
  0
VERTEX
  8
0
  6
CONTINUOUS
  10
25.250
  20
34.067
  30
0.000
  0
VERTEX
  8
0
  6
CONTINUOUS
  10
25.350
  20
34.183
  30
0.000
  0
VERTEX
  8
0
  6
CONTINUOUS
  10
25.467
  20
34.333
  30
0.000
  0
VERTEX
  8
0
  6
CONTINUOUS
  10
25.567
  20
34.483
  30
0.000
  0
VERTEX
  8
0
  6
CONTINUOUS
  10
25.667
  20
34.633
  30
0.000
  0
VERTEX
  8
0
  6
CONTINUOUS
  10
25.767
  20
34.750
  30
0.000
  0
VERTEX
  8
0
  6
CONTINUOUS
  10
25.867
  20
34.867
  30
0.000
  0
VERTEX
  8
0
  6
CONTINUOUS
  10
25.967
  20
34.933
  30
0.000
  0
VERTEX
  8
0
  6
CONTINUOUS
  10
26.067
  20
34.983
  30
0.000
  0
VERTEX
  8
0
  6
CONTINUOUS
  10
26.167
  20
34.983
  30
0.000
  0
VERTEX
  8
0
  6
CONTINUOUS
  10
26.267
  20
34.933
  30
0.000
  0
VERTEX
  8
0
  6
CONTINUOUS
  10
26.367
  20
34.850
  30
0.000
  0
VERTEX
  8
0
  6
CONTINUOUS
  10
26.467
  20
34.750
  30
0.000
  0
VERTEX
  8
0
  6
CONTINUOUS
  10
26.567
  20
34.650
  30
0.000
  0
VERTEX
  8
0
  6
CONTINUOUS
  10
26.667
  20
34.533
  30
0.000
  0
VERTEX
  8
0
  6
CONTINUOUS
  10
26.767
  20
34.400
  30
0.000
  0
VERTEX
  8
0
  6
CONTINUOUS
  10
26.867
  20
34.250
  30
0.000
  0
VERTEX
  8
0
  6
CONTINUOUS
  10
26.967
  20
34.083
  30
0.000
  0
VERTEX
  8
0
  6
CONTINUOUS
  10
27.067
  20
33.900
  30
0.000
  0
VERTEX
  8
0
  6
CONTINUOUS
  10
27.167
  20
33.750
  30
0.000
  0
VERTEX
  8
0
  6
CONTINUOUS
  10
27.267
  20
33.650
  30
0.000
  0
VERTEX
  8
0
  6
CONTINUOUS
  10
27.383
  20
33.633
  30
0.000
  0
VERTEX
  8
0
  6
CONTINUOUS
  10
27.483
  20
33.650
  30
0.000
  0
VERTEX
  8
0
  6
CONTINUOUS
  10
27.583
  20
33.683
  30
0.000
  0
VERTEX
  8
0
  6
CONTINUOUS
  10
27.683
  20
33.750
  30
0.000
  0
VERTEX
  8
0
  6
CONTINUOUS
  10
27.783
  20
33.867
  30
0.000
  0
VERTEX
  8
0
  6
CONTINUOUS
  10
27.883
  20
34.050
  30
0.000
  0
VERTEX
  8
0
  6
CONTINUOUS
  10
27.983
  20
34.250
  30
0.000
  0
VERTEX
  8
0
  6
CONTINUOUS
  10
28.083
  20
34.467
  30
0.000
  0
VERTEX
  8
0
  6
CONTINUOUS
  10
28.183
  20
34.650
  30
0.000
  0
VERTEX
  8
0
  6
CONTINUOUS
  10
28.283
  20
34.833
  30
0.000
  0
VERTEX
  8
0
  6
CONTINUOUS
  10
28.383
  20
34.967
  30
0.000
  0
VERTEX
  8
0
  6
CONTINUOUS
  10
28.483
  20
35.017
  30
0.000
  0
VERTEX
  8
0
  6
CONTINUOUS
  10
28.583
  20
35.050
  30
0.000
  0
VERTEX
  8
0
  6
CONTINUOUS
  10
28.683
  20
35.100
  30
0.000
  0
VERTEX
  8
0
  6
CONTINUOUS
  10
28.783
  20
35.167
  30
0.000
  0
VERTEX
  8
0
  6
CONTINUOUS
  10
28.883
  20
35.183
  30
0.000
  0
VERTEX
  8
0
  6
CONTINUOUS
  10
28.983
  20
35.150
  30
0.000
  0
VERTEX
  8
0
  6
CONTINUOUS
  10
29.083
  20
35.050
  30
0.000
  0
VERTEX
  8
0
  6
CONTINUOUS
  10
29.183
  20
34.917
  30
0.000
  0
VERTEX
  8
0
  6
CONTINUOUS
  10
29.283
  20
34.717
  30
0.000
  0
VERTEX
  8
0
  6
CONTINUOUS
  10
29.400
  20
34.467
  30
0.000
  0
VERTEX
  8
0
  6
CONTINUOUS
  10
29.500
  20
34.217
  30
0.000
  0
VERTEX
  8
0
  6
CONTINUOUS
  10
29.600
  20
34.000
  30
0.000
  0
VERTEX
  8
0
  6
CONTINUOUS
  10
29.700
  20
33.850
  30
0.000
  0
VERTEX
  8
0
  6
CONTINUOUS
  10
29.800
  20
33.700
  30
0.000
  0
VERTEX
  8
0
  6
CONTINUOUS
  10
29.900
  20
33.533
  30
0.000
  0
VERTEX
  8
0
  6
CONTINUOUS
  10
30.000
  20
33.383
  30
0.000
  0
VERTEX
  8
0
  6
CONTINUOUS
  10
30.100
  20
33.250
  30
0.000
  0
VERTEX
  8
0
  6
CONTINUOUS
  10
30.200
  20
33.133
  30
0.000
  0
VERTEX
  8
0
  6
CONTINUOUS
  10
30.300
  20
33.017
  30
0.000
  0
VERTEX
  8
0
  6
CONTINUOUS
  10
30.400
  20
32.900
  30
0.000
  0
VERTEX
  8
0
  6
CONTINUOUS
  10
30.500
  20
32.850
  30
0.000
  0
VERTEX
  8
0
  6
CONTINUOUS
  10
30.600
  20
32.900
  30
0.000
  0
VERTEX
  8
0
  6
CONTINUOUS
  10
30.700
  20
33.033
  30
0.000
  0
VERTEX
  8
0
  6
CONTINUOUS
  10
30.800
  20
33.217
  30
0.000
  0
VERTEX
  8
0
  6
CONTINUOUS
  10
30.900
  20
33.417
  30
0.000
  0
VERTEX
  8
0
  6
CONTINUOUS
  10
31.000
  20
33.650
  30
0.000
  0
VERTEX
  8
0
  6
CONTINUOUS
  10
31.100
  20
33.850
  30
0.000
  0
VERTEX
  8
0
  6
CONTINUOUS
  10
31.200
  20
34.000
  30
0.000
  0
VERTEX
  8
0
  6
CONTINUOUS
  10
31.317
  20
34.033
  30
0.000
  0
VERTEX
  8
0
  6
CONTINUOUS
  10
31.417
  20
33.917
  30
0.000
  0
VERTEX
  8
0
  6
CONTINUOUS
  10
31.517
  20
33.633
  30
0.000
  0
VERTEX
  8
0
  6
CONTINUOUS
  10
31.617
  20
33.217
  30
0.000
  0
VERTEX
  8
0
  6
CONTINUOUS
  10
31.717
  20
32.683
  30
0.000
  0
VERTEX
  8
0
  6
CONTINUOUS
  10
31.817
  20
32.050
  30
0.000
  0
VERTEX
  8
0
  6
CONTINUOUS
  10
31.917
  20
31.267
  30
0.000
  0
VERTEX
  8
0
  6
CONTINUOUS
  10
32.017
  20
30.350
  30
0.000
  0
VERTEX
  8
0
  6
CONTINUOUS
  10
32.117
  20
29.350
  30
0.000
  0
VERTEX
  8
0
  6
CONTINUOUS
  10
32.217
  20
28.400
  30
0.000
  0
VERTEX
  8
0
  6
CONTINUOUS
  10
32.317
  20
27.667
  30
0.000
  0
VERTEX
  8
0
  6
CONTINUOUS
  10
32.417
  20
27.217
  30
0.000
  0
VERTEX
  8
0
  6
CONTINUOUS
  10
32.517
  20
27.167
  30
0.000
  0
VERTEX
  8
0
  6
CONTINUOUS
  10
32.617
  20
27.617
  30
0.000
  0
VERTEX
  8
0
  6
CONTINUOUS
  10
32.717
  20
28.583
  30
0.000
  0
VERTEX
  8
0
  6
CONTINUOUS
  10
32.817
  20
29.967
  30
0.000
  0
VERTEX
  8
0
  6
CONTINUOUS
  10
32.917
  20
31.750
  30
0.000
  0
VERTEX
  8
0
  6
CONTINUOUS
  10
33.017
  20
33.850
  30
0.000
  0
VERTEX
  8
0
  6
CONTINUOUS
  10
33.117
  20
36.267
  30
0.000
  0
VERTEX
  8
0
  6
CONTINUOUS
  10
33.233
  20
39.000
  30
0.000
  0
VERTEX
  8
0
  6
CONTINUOUS
  10
33.333
  20
41.917
  30
0.000
  0
VERTEX
  8
0
  6
CONTINUOUS
  10
33.433
  20
44.867
  30
0.000
  0
VERTEX
  8
0
  6
CONTINUOUS
  10
33.533
  20
47.650
  30
0.000
  0
VERTEX
  8
0
  6
CONTINUOUS
  10
33.633
  20
50.067
  30
0.000
  0
VERTEX
  8
0
  6
CONTINUOUS
  10
33.733
  20
52.000
  30
0.000
  0
VERTEX
  8
0
  6
CONTINUOUS
  10
33.833
  20
53.417
  30
0.000
  0
VERTEX
  8
0
  6
CONTINUOUS
  10
33.933
  20
54.283
  30
0.000
  0
VERTEX
  8
0
  6
CONTINUOUS
  10
34.033
  20
54.617
  30
0.000
  0
VERTEX
  8
0
  6
CONTINUOUS
  10
34.133
  20
54.450
  30
0.000
  0
VERTEX
  8
0
  6
CONTINUOUS
  10
34.233
  20
53.833
  30
0.000
  0
VERTEX
  8
0
  6
CONTINUOUS
  10
34.333
  20
52.883
  30
0.000
  0
VERTEX
  8
0
  6
CONTINUOUS
  10
34.433
  20
51.733
  30
0.000
  0
VERTEX
  8
0
  6
CONTINUOUS
  10
34.533
  20
50.483
  30
0.000
  0
VERTEX
  8
0
  6
CONTINUOUS
  10
34.633
  20
49.283
  30
0.000
  0
VERTEX
  8
0
  6
CONTINUOUS
  10
34.733
  20
48.217
  30
0.000
  0
VERTEX
  8
0
  6
CONTINUOUS
  10
34.833
  20
47.283
  30
0.000
  0
VERTEX
  8
0
  6
CONTINUOUS
  10
34.933
  20
46.400
  30
0.000
  0
VERTEX
  8
0
  6
CONTINUOUS
  10
35.033
  20
45.517
  30
0.000
  0
VERTEX
  8
0
  6
CONTINUOUS
  10
35.150
  20
44.550
  30
0.000
  0
VERTEX
  8
0
  6
CONTINUOUS
  10
35.250
  20
43.450
  30
0.000
  0
VERTEX
  8
0
  6
CONTINUOUS
  10
35.350
  20
42.217
  30
0.000
  0
VERTEX
  8
0
  6
CONTINUOUS
  10
35.450
  20
40.817
  30
0.000
  0
VERTEX
  8
0
  6
CONTINUOUS
  10
35.550
  20
39.267
  30
0.000
  0
VERTEX
  8
0
  6
CONTINUOUS
  10
35.650
  20
37.517
  30
0.000
  0
VERTEX
  8
0
  6
CONTINUOUS
  10
35.750
  20
35.567
  30
0.000
  0
VERTEX
  8
0
  6
CONTINUOUS
  10
35.850
  20
33.350
  30
0.000
  0
VERTEX
  8
0
  6
CONTINUOUS
  10
35.950
  20
30.833
  30
0.000
  0
VERTEX
  8
0
  6
CONTINUOUS
  10
36.050
  20
28.167
  30
0.000
  0
VERTEX
  8
0
  6
CONTINUOUS
  10
36.150
  20
25.467
  30
0.000
  0
VERTEX
  8
0
  6
CONTINUOUS
  10
36.250
  20
22.800
  30
0.000
  0
VERTEX
  8
0
  6
CONTINUOUS
  10
36.350
  20
20.183
  30
0.000
  0
VERTEX
  8
0
  6
CONTINUOUS
  10
36.450
  20
17.583
  30
0.000
  0
VERTEX
  8
0
  6
CONTINUOUS
  10
36.550
  20
15.067
  30
0.000
  0
VERTEX
  8
0
  6
CONTINUOUS
  10
36.650
  20
12.750
  30
0.000
  0
VERTEX
  8
0
  6
CONTINUOUS
  10
36.750
  20
10.683
  30
0.000
  0
VERTEX
  8
0
  6
CONTINUOUS
  10
36.850
  20
8.933 
  30
0.000
  0
VERTEX
  8
0
  6
CONTINUOUS
  10
36.950
  20
7.650 
  30
0.000
  0
VERTEX
  8
0
  6
CONTINUOUS
  10
37.050
  20
6.883 
  30
0.000
  0
VERTEX
  8
0
  6
CONTINUOUS
  10
37.167
  20
6.717 
  30
0.000
  0
VERTEX
  8
0
  6
CONTINUOUS
  10
37.267
  20
7.150 
  30
0.000
  0
VERTEX
  8
0
  6
CONTINUOUS
  10
37.367
  20
8.167 
  30
0.000
  0
VERTEX
  8
0
  6
CONTINUOUS
  10
37.467
  20
9.700 
  30
0.000
  0
VERTEX
  8
0
  6
CONTINUOUS
  10
37.567
  20
11.733
  30
0.000
  0
VERTEX
  8
0
  6
CONTINUOUS
  10
37.667
  20
14.300
  30
0.000
  0
VERTEX
  8
0
  6
CONTINUOUS
  10
37.767
  20
17.450
  30
0.000
  0
VERTEX
  8
0
  6
CONTINUOUS
  10
37.867
  20
21.283
  30
0.000
  0
VERTEX
  8
0
  6
CONTINUOUS
  10
37.967
  20
25.733
  30
0.000
  0
VERTEX
  8
0
  6
CONTINUOUS
  10
38.067
  20
30.633
  30
0.000
  0
VERTEX
  8
0
  6
CONTINUOUS
  10
38.167
  20
35.733
  30
0.000
  0
VERTEX
  8
0
  6
CONTINUOUS
  10
38.267
  20
40.817
  30
0.000
  0
VERTEX
  8
0
  6
CONTINUOUS
  10
38.367
  20
45.783
  30
0.000
  0
VERTEX
  8
0
  6
CONTINUOUS
  10
38.467
  20
50.550
  30
0.000
  0
VERTEX
  8
0
  6
CONTINUOUS
  10
38.567
  20
54.983
  30
0.000
  0
VERTEX
  8
0
  6
CONTINUOUS
  10
38.667
  20
58.817
  30
0.000
  0
VERTEX
  8
0
  6
CONTINUOUS
  10
38.767
  20
62.083
  30
0.000
  0
VERTEX
  8
0
  6
CONTINUOUS
  10
38.867
  20
64.733
  30
0.000
  0
VERTEX
  8
0
  6
CONTINUOUS
  10
38.967
  20
66.800
  30
0.000
  0
VERTEX
  8
0
  6
CONTINUOUS
  10
39.083
  20
68.250
  30
0.000
  0
VERTEX
  8
0
  6
CONTINUOUS
  10
39.183
  20
69.117
  30
0.000
  0
VERTEX
  8
0
  6
CONTINUOUS
  10
39.283
  20
69.383
  30
0.000
  0
VERTEX
  8
0
  6
CONTINUOUS
  10
39.383
  20
69.117
  30
0.000
  0
VERTEX
  8
0
  6
CONTINUOUS
  10
39.483
  20
68.400
  30
0.000
  0
VERTEX
  8
0
  6
CONTINUOUS
  10
39.583
  20
67.417
  30
0.000
  0
VERTEX
  8
0
  6
CONTINUOUS
  10
39.683
  20
66.333
  30
0.000
  0
VERTEX
  8
0
  6
CONTINUOUS
  10
39.783
  20
65.233
  30
0.000
  0
VERTEX
  8
0
  6
CONTINUOUS
  10
39.883
  20
64.183
  30
0.000
  0
VERTEX
  8
0
  6
CONTINUOUS
  10
39.983
  20
63.217
  30
0.000
  0
VERTEX
  8
0
  6
CONTINUOUS
  10
40.083
  20
62.300
  30
0.000
  0
VERTEX
  8
0
  6
CONTINUOUS
  10
40.183
  20
61.450
  30
0.000
  0
VERTEX
  8
0
  6
CONTINUOUS
  10
40.283
  20
60.650
  30
0.000
  0
VERTEX
  8
0
  6
CONTINUOUS
  10
40.383
  20
59.917
  30
0.000
  0
VERTEX
  8
0
  6
CONTINUOUS
  10
40.483
  20
59.267
  30
0.000
  0
VERTEX
  8
0
  6
CONTINUOUS
  10
40.583
  20
58.683
  30
0.000
  0
VERTEX
  8
0
  6
CONTINUOUS
  10
40.683
  20
58.150
  30
0.000
  0
VERTEX
  8
0
  6
CONTINUOUS
  10
40.783
  20
57.617
  30
0.000
  0
VERTEX
  8
0
  6
CONTINUOUS
  10
40.883
  20
57.000
  30
0.000
  0
VERTEX
  8
0
  6
CONTINUOUS
  10
41.000
  20
56.233
  30
0.000
  0
VERTEX
  8
0
  6
CONTINUOUS
  10
41.100
  20
55.300
  30
0.000
  0
VERTEX
  8
0
  6
CONTINUOUS
  10
41.200
  20
54.200
  30
0.000
  0
VERTEX
  8
0
  6
CONTINUOUS
  10
41.300
  20
52.917
  30
0.000
  0
VERTEX
  8
0
  6
CONTINUOUS
  10
41.400
  20
51.550
  30
0.000
  0
VERTEX
  8
0
  6
CONTINUOUS
  10
41.500
  20
50.150
  30
0.000
  0
VERTEX
  8
0
  6
CONTINUOUS
  10
41.600
  20
48.767
  30
0.000
  0
VERTEX
  8
0
  6
CONTINUOUS
  10
41.700
  20
47.433
  30
0.000
  0
VERTEX
  8
0
  6
CONTINUOUS
  10
41.800
  20
46.133
  30
0.000
  0
VERTEX
  8
0
  6
CONTINUOUS
  10
41.900
  20
44.800
  30
0.000
  0
VERTEX
  8
0
  6
CONTINUOUS
  10
42.000
  20
43.433
  30
0.000
  0
VERTEX
  8
0
  6
CONTINUOUS
  10
42.100
  20
42.033
  30
0.000
  0
VERTEX
  8
0
  6
CONTINUOUS
  10
42.200
  20
40.600
  30
0.000
  0
VERTEX
  8
0
  6
CONTINUOUS
  10
42.300
  20
39.067
  30
0.000
  0
VERTEX
  8
0
  6
CONTINUOUS
  10
42.400
  20
37.450
  30
0.000
  0
VERTEX
  8
0
  6
CONTINUOUS
  10
42.500
  20
35.733
  30
0.000
  0
VERTEX
  8
0
  6
CONTINUOUS
  10
42.600
  20
33.950
  30
0.000
  0
VERTEX
  8
0
  6
CONTINUOUS
  10
42.700
  20
32.133
  30
0.000
  0
VERTEX
  8
0
  6
CONTINUOUS
  10
42.800
  20
30.350
  30
0.000
  0
VERTEX
  8
0
  6
CONTINUOUS
  10
42.917
  20
28.667
  30
0.000
  0
VERTEX
  8
0
  6
CONTINUOUS
  10
43.017
  20
27.100
  30
0.000
  0
VERTEX
  8
0
  6
CONTINUOUS
  10
43.117
  20
25.733
  30
0.000
  0
VERTEX
  8
0
  6
CONTINUOUS
  10
43.217
  20
24.567
  30
0.000
  0
VERTEX
  8
0
  6
CONTINUOUS
  10
43.317
  20
23.633
  30
0.000
  0
VERTEX
  8
0
  6
CONTINUOUS
  10
43.417
  20
22.900
  30
0.000
  0
VERTEX
  8
0
  6
CONTINUOUS
  10
43.517
  20
22.367
  30
0.000
  0
VERTEX
  8
0
  6
CONTINUOUS
  10
43.617
  20
22.033
  30
0.000
  0
VERTEX
  8
0
  6
CONTINUOUS
  10
43.717
  20
21.833
  30
0.000
  0
VERTEX
  8
0
  6
CONTINUOUS
  10
43.817
  20
21.767
  30
0.000
  0
VERTEX
  8
0
  6
CONTINUOUS
  10
43.917
  20
21.817
  30
0.000
  0
VERTEX
  8
0
  6
CONTINUOUS
  10
44.017
  20
21.967
  30
0.000
  0
VERTEX
  8
0
  6
CONTINUOUS
  10
44.117
  20
22.217
  30
0.000
  0
VERTEX
  8
0
  6
CONTINUOUS
  10
44.217
  20
22.517
  30
0.000
  0
VERTEX
  8
0
  6
CONTINUOUS
  10
44.317
  20
22.833
  30
0.000
  0
VERTEX
  8
0
  6
CONTINUOUS
  10
44.417
  20
23.167
  30
0.000
  0
VERTEX
  8
0
  6
CONTINUOUS
  10
44.517
  20
23.517
  30
0.000
  0
VERTEX
  8
0
  6
CONTINUOUS
  10
44.617
  20
23.917
  30
0.000
  0
VERTEX
  8
0
  6
CONTINUOUS
  10
44.717
  20
24.450
  30
0.000
  0
VERTEX
  8
0
  6
CONTINUOUS
  10
44.817
  20
25.200
  30
0.000
  0
VERTEX
  8
0
  6
CONTINUOUS
  10
44.933
  20
26.183
  30
0.000
  0
VERTEX
  8
0
  6
CONTINUOUS
  10
45.033
  20
27.367
  30
0.000
  0
VERTEX
  8
0
  6
CONTINUOUS
  10
45.133
  20
28.667
  30
0.000
  0
VERTEX
  8
0
  6
CONTINUOUS
  10
45.233
  20
30.050
  30
0.000
  0
VERTEX
  8
0
  6
CONTINUOUS
  10
45.333
  20
31.500
  30
0.000
  0
VERTEX
  8
0
  6
CONTINUOUS
  10
45.433
  20
32.950
  30
0.000
  0
VERTEX
  8
0
  6
CONTINUOUS
  10
45.533
  20
34.400
  30
0.000
  0
VERTEX
  8
0
  6
CONTINUOUS
  10
45.633
  20
35.833
  30
0.000
  0
VERTEX
  8
0
  6
CONTINUOUS
  10
45.733
  20
37.167
  30
0.000
  0
VERTEX
  8
0
  6
CONTINUOUS
  10
45.833
  20
38.300
  30
0.000
  0
VERTEX
  8
0
  6
CONTINUOUS
  10
45.933
  20
39.200
  30
0.000
  0
VERTEX
  8
0
  6
CONTINUOUS
  10
46.033
  20
39.883
  30
0.000
  0
VERTEX
  8
0
  6
CONTINUOUS
  10
46.133
  20
40.433
  30
0.000
  0
VERTEX
  8
0
  6
CONTINUOUS
  10
46.233
  20
40.917
  30
0.000
  0
VERTEX
  8
0
  6
CONTINUOUS
  10
46.333
  20
41.400
  30
0.000
  0
VERTEX
  8
0
  6
CONTINUOUS
  10
46.433
  20
41.967
  30
0.000
  0
VERTEX
  8
0
  6
CONTINUOUS
  10
46.533
  20
42.700
  30
0.000
  0
VERTEX
  8
0
  6
CONTINUOUS
  10
46.633
  20
43.700
  30
0.000
  0
VERTEX
  8
0
  6
CONTINUOUS
  10
46.733
  20
45.017
  30
0.000
  0
VERTEX
  8
0
  6
CONTINUOUS
  10
46.850
  20
46.750
  30
0.000
  0
VERTEX
  8
0
  6
CONTINUOUS
  10
46.950
  20
48.900
  30
0.000
  0
VERTEX
  8
0
  6
CONTINUOUS
  10
47.050
  20
51.483
  30
0.000
  0
VERTEX
  8
0
  6
CONTINUOUS
  10
47.150
  20
54.533
  30
0.000
  0
VERTEX
  8
0
  6
CONTINUOUS
  10
47.250
  20
58.033
  30
0.000
  0
VERTEX
  8
0
  6
CONTINUOUS
  10
47.350
  20
61.883
  30
0.000
  0
VERTEX
  8
0
  6
CONTINUOUS
  10
47.450
  20
65.833
  30
0.000
  0
VERTEX
  8
0
  6
CONTINUOUS
  10
47.550
  20
69.500
  30
0.000
  0
VERTEX
  8
0
  6
CONTINUOUS
  10
47.650
  20
72.450
  30
0.000
  0
VERTEX
  8
0
  6
CONTINUOUS
  10
47.750
  20
74.567
  30
0.000
  0
VERTEX
  8
0
  6
CONTINUOUS
  10
47.850
  20
75.883
  30
0.000
  0
VERTEX
  8
0
  6
CONTINUOUS
  10
47.950
  20
76.467
  30
0.000
  0
VERTEX
  8
0
  6
CONTINUOUS
  10
48.050
  20
76.417
  30
0.000
  0
VERTEX
  8
0
  6
CONTINUOUS
  10
48.150
  20
75.850
  30
0.000
  0
VERTEX
  8
0
  6
CONTINUOUS
  10
48.250
  20
74.983
  30
0.000
  0
VERTEX
  8
0
  6
CONTINUOUS
  10
48.350
  20
74.033
  30
0.000
  0
VERTEX
  8
0
  6
CONTINUOUS
  10
48.450
  20
73.183
  30
0.000
  0
VERTEX
  8
0
  6
CONTINUOUS
  10
48.550
  20
72.583
  30
0.000
  0
VERTEX
  8
0
  6
CONTINUOUS
  10
48.650
  20
72.250
  30
0.000
  0
VERTEX
  8
0
  6
CONTINUOUS
  10
48.767
  20
72.183
  30
0.000
  0
VERTEX
  8
0
  6
CONTINUOUS
  10
48.867
  20
72.267
  30
0.000
  0
VERTEX
  8
0
  6
CONTINUOUS
  10
48.967
  20
72.367
  30
0.000
  0
VERTEX
  8
0
  6
CONTINUOUS
  10
49.067
  20
72.317
  30
0.000
  0
VERTEX
  8
0
  6
CONTINUOUS
  10
49.167
  20
72.000
  30
0.000
  0
VERTEX
  8
0
  6
CONTINUOUS
  10
49.267
  20
71.300
  30
0.000
  0
VERTEX
  8
0
  6
CONTINUOUS
  10
49.367
  20
70.200
  30
0.000
  0
VERTEX
  8
0
  6
CONTINUOUS
  10
49.467
  20
68.633
  30
0.000
  0
VERTEX
  8
0
  6
CONTINUOUS
  10
49.567
  20
66.567
  30
0.000
  0
VERTEX
  8
0
  6
CONTINUOUS
  10
49.667
  20
63.983
  30
0.000
  0
VERTEX
  8
0
  6
CONTINUOUS
  10
49.767
  20
60.917
  30
0.000
  0
VERTEX
  8
0
  6
CONTINUOUS
  10
49.867
  20
57.400
  30
0.000
  0
VERTEX
  8
0
  6
CONTINUOUS
  10
49.967
  20
53.533
  30
0.000
  0
VERTEX
  8
0
  6
CONTINUOUS
  10
50.067
  20
49.450
  30
0.000
  0
VERTEX
  8
0
  6
CONTINUOUS
  10
50.167
  20
45.283
  30
0.000
  0
VERTEX
  8
0
  6
CONTINUOUS
  10
50.267
  20
41.167
  30
0.000
  0
VERTEX
  8
0
  6
CONTINUOUS
  10
50.367
  20
37.233
  30
0.000
  0
VERTEX
  8
0
  6
CONTINUOUS
  10
50.467
  20
33.617
  30
0.000
  0
VERTEX
  8
0
  6
CONTINUOUS
  10
50.567
  20
30.500
  30
0.000
  0
VERTEX
  8
0
  6
CONTINUOUS
  10
50.683
  20
27.983
  30
0.000
  0
VERTEX
  8
0
  6
CONTINUOUS
  10
50.783
  20
26.083
  30
0.000
  0
VERTEX
  8
0
  6
CONTINUOUS
  10
50.883
  20
24.700
  30
0.000
  0
VERTEX
  8
0
  6
CONTINUOUS
  10
50.983
  20
23.733
  30
0.000
  0
VERTEX
  8
0
  6
CONTINUOUS
  10
51.083
  20
23.183
  30
0.000
  0
VERTEX
  8
0
  6
CONTINUOUS
  10
51.183
  20
23.050
  30
0.000
  0
VERTEX
  8
0
  6
CONTINUOUS
  10
51.283
  20
23.350
  30
0.000
  0
VERTEX
  8
0
  6
CONTINUOUS
  10
51.383
  20
24.017
  30
0.000
  0
VERTEX
  8
0
  6
CONTINUOUS
  10
51.483
  20
24.850
  30
0.000
  0
VERTEX
  8
0
  6
CONTINUOUS
  10
51.583
  20
25.683
  30
0.000
  0
VERTEX
  8
0
  6
CONTINUOUS
  10
51.683
  20
26.467
  30
0.000
  0
VERTEX
  8
0
  6
CONTINUOUS
  10
51.783
  20
27.217
  30
0.000
  0
VERTEX
  8
0
  6
CONTINUOUS
  10
51.883
  20
27.950
  30
0.000
  0
VERTEX
  8
0
  6
CONTINUOUS
  10
51.983
  20
28.750
  30
0.000
  0
VERTEX
  8
0
  6
CONTINUOUS
  10
52.083
  20
29.600
  30
0.000
  0
VERTEX
  8
0
  6
CONTINUOUS
  10
52.183
  20
30.550
  30
0.000
  0
VERTEX
  8
0
  6
CONTINUOUS
  10
52.283
  20
31.617
  30
0.000
  0
VERTEX
  8
0
  6
CONTINUOUS
  10
52.383
  20
32.817
  30
0.000
  0
VERTEX
  8
0
  6
CONTINUOUS
  10
52.483
  20
34.150
  30
0.000
  0
VERTEX
  8
0
  6
CONTINUOUS
  10
52.600
  20
35.550
  30
0.000
  0
VERTEX
  8
0
  6
CONTINUOUS
  10
52.700
  20
36.883
  30
0.000
  0
VERTEX
  8
0
  6
CONTINUOUS
  10
52.800
  20
38.100
  30
0.000
  0
VERTEX
  8
0
  6
CONTINUOUS
  10
52.900
  20
39.133
  30
0.000
  0
VERTEX
  8
0
  6
CONTINUOUS
  10
53.000
  20
39.983
  30
0.000
  0
VERTEX
  8
0
  6
CONTINUOUS
  10
53.100
  20
40.533
  30
0.000
  0
VERTEX
  8
0
  6
CONTINUOUS
  10
53.200
  20
40.733
  30
0.000
  0
VERTEX
  8
0
  6
CONTINUOUS
  10
53.300
  20
40.567
  30
0.000
  0
VERTEX
  8
0
  6
CONTINUOUS
  10
53.400
  20
40.150
  30
0.000
  0
VERTEX
  8
0
  6
CONTINUOUS
  10
53.500
  20
39.650
  30
0.000
  0
VERTEX
  8
0
  6
CONTINUOUS
  10
53.600
  20
39.317
  30
0.000
  0
VERTEX
  8
0
  6
CONTINUOUS
  10
53.700
  20
39.350
  30
0.000
  0
VERTEX
  8
0
  6
CONTINUOUS
  10
53.800
  20
39.850
  30
0.000
  0
VERTEX
  8
0
  6
CONTINUOUS
  10
53.900
  20
40.900
  30
0.000
  0
VERTEX
  8
0
  6
CONTINUOUS
  10
54.000
  20
42.433
  30
0.000
  0
VERTEX
  8
0
  6
CONTINUOUS
  10
54.100
  20
44.383
  30
0.000
  0
VERTEX
  8
0
  6
CONTINUOUS
  10
54.200
  20
46.650
  30
0.000
  0
VERTEX
  8
0
  6
CONTINUOUS
  10
54.300
  20
49.083
  30
0.000
  0
VERTEX
  8
0
  6
CONTINUOUS
  10
54.400
  20
51.583
  30
0.000
  0
VERTEX
  8
0
  6
CONTINUOUS
  10
54.500
  20
54.067
  30
0.000
  0
VERTEX
  8
0
  6
CONTINUOUS
  10
54.617
  20
56.433
  30
0.000
  0
VERTEX
  8
0
  6
CONTINUOUS
  10
54.717
  20
58.617
  30
0.000
  0
VERTEX
  8
0
  6
CONTINUOUS
  10
54.817
  20
60.550
  30
0.000
  0
VERTEX
  8
0
  6
CONTINUOUS
  10
54.917
  20
62.233
  30
0.000
  0
VERTEX
  8
0
  6
CONTINUOUS
  10
55.017
  20
63.750
  30
0.000
  0
VERTEX
  8
0
  6
CONTINUOUS
  10
55.117
  20
65.217
  30
0.000
  0
VERTEX
  8
0
  6
CONTINUOUS
  10
55.217
  20
66.683
  30
0.000
  0
VERTEX
  8
0
  6
CONTINUOUS
  10
55.317
  20
68.117
  30
0.000
  0
VERTEX
  8
0
  6
CONTINUOUS
  10
55.417
  20
69.450
  30
0.000
  0
VERTEX
  8
0
  6
CONTINUOUS
  10
55.517
  20
70.567
  30
0.000
  0
VERTEX
  8
0
  6
CONTINUOUS
  10
55.617
  20
71.450
  30
0.000
  0
VERTEX
  8
0
  6
CONTINUOUS
  10
55.717
  20
71.950
  30
0.000
  0
VERTEX
  8
0
  6
CONTINUOUS
  10
55.817
  20
72.017
  30
0.000
  0
VERTEX
  8
0
  6
CONTINUOUS
  10
55.917
  20
71.567
  30
0.000
  0
VERTEX
  8
0
  6
CONTINUOUS
  10
56.017
  20
70.667
  30
0.000
  0
VERTEX
  8
0
  6
CONTINUOUS
  10
56.117
  20
69.367
  30
0.000
  0
VERTEX
  8
0
  6
CONTINUOUS
  10
56.217
  20
67.767
  30
0.000
  0
VERTEX
  8
0
  6
CONTINUOUS
  10
56.317
  20
65.867
  30
0.000
  0
VERTEX
  8
0
  6
CONTINUOUS
  10
56.417
  20
63.700
  30
0.000
  0
VERTEX
  8
0
  6
CONTINUOUS
  10
56.533
  20
61.300
  30
0.000
  0
VERTEX
  8
0
  6
CONTINUOUS
  10
56.633
  20
58.717
  30
0.000
  0
VERTEX
  8
0
  6
CONTINUOUS
  10
56.733
  20
56.017
  30
0.000
  0
VERTEX
  8
0
  6
CONTINUOUS
  10
56.833
  20
53.350
  30
0.000
  0
VERTEX
  8
0
  6
CONTINUOUS
  10
56.933
  20
50.850
  30
0.000
  0
VERTEX
  8
0
  6
CONTINUOUS
  10
57.033
  20
48.650
  30
0.000
  0
VERTEX
  8
0
  6
CONTINUOUS
  10
57.133
  20
46.850
  30
0.000
  0
VERTEX
  8
0
  6
CONTINUOUS
  10
57.233
  20
45.517
  30
0.000
  0
VERTEX
  8
0
  6
CONTINUOUS
  10
57.333
  20
44.633
  30
0.000
  0
VERTEX
  8
0
  6
CONTINUOUS
  10
57.433
  20
44.167
  30
0.000
  0
VERTEX
  8
0
  6
CONTINUOUS
  10
57.533
  20
44.000
  30
0.000
  0
VERTEX
  8
0
  6
CONTINUOUS
  10
57.633
  20
43.983
  30
0.000
  0
VERTEX
  8
0
  6
CONTINUOUS
  10
57.733
  20
44.050
  30
0.000
  0
VERTEX
  8
0
  6
CONTINUOUS
  10
57.833
  20
44.100
  30
0.000
  0
VERTEX
  8
0
  6
CONTINUOUS
  10
57.933
  20
44.050
  30
0.000
  0
VERTEX
  8
0
  6
CONTINUOUS
  10
58.033
  20
43.933
  30
0.000
  0
VERTEX
  8
0
  6
CONTINUOUS
  10
58.133
  20
43.767
  30
0.000
  0
VERTEX
  8
0
  6
CONTINUOUS
  10
58.233
  20
43.600
  30
0.000
  0
VERTEX
  8
0
  6
CONTINUOUS
  10
58.333
  20
43.500
  30
0.000
  0
VERTEX
  8
0
  6
CONTINUOUS
  10
58.450
  20
43.517
  30
0.000
  0
VERTEX
  8
0
  6
CONTINUOUS
  10
58.550
  20
43.667
  30
0.000
  0
VERTEX
  8
0
  6
CONTINUOUS
  10
58.650
  20
43.983
  30
0.000
  0
VERTEX
  8
0
  6
CONTINUOUS
  10
58.750
  20
44.467
  30
0.000
  0
VERTEX
  8
0
  6
CONTINUOUS
  10
58.850
  20
45.167
  30
0.000
  0
VERTEX
  8
0
  6
CONTINUOUS
  10
58.950
  20
46.083
  30
0.000
  0
VERTEX
  8
0
  6
CONTINUOUS
  10
59.050
  20
47.200
  30
0.000
  0
VERTEX
  8
0
  6
CONTINUOUS
  10
59.150
  20
48.483
  30
0.000
  0
VERTEX
  8
0
  6
CONTINUOUS
  10
59.250
  20
49.867
  30
0.000
  0
VERTEX
  8
0
  6
CONTINUOUS
  10
59.350
  20
51.283
  30
0.000
  0
VERTEX
  8
0
  6
CONTINUOUS
  10
59.450
  20
52.700
  30
0.000
  0
VERTEX
  8
0
  6
CONTINUOUS
  10
59.550
  20
54.067
  30
0.000
  0
VERTEX
  8
0
  6
CONTINUOUS
  10
59.650
  20
55.383
  30
0.000
  0
VERTEX
  8
0
  6
CONTINUOUS
  10
59.750
  20
56.600
  30
0.000
  0
VERTEX
  8
0
  6
CONTINUOUS
  10
59.850
  20
57.633
  30
0.000
  0
VERTEX
  8
0
  6
CONTINUOUS
  10
59.950
  20
58.433
  30
0.000
  0
VERTEX
  8
0
  6
CONTINUOUS
  10
60.050
  20
58.933
  30
0.000
  0
VERTEX
  8
0
  6
CONTINUOUS
  10
60.150
  20
59.083
  30
0.000
  0
VERTEX
  8
0
  6
CONTINUOUS
  10
60.250
  20
58.933
  30
0.000
  0
VERTEX
  8
0
  6
CONTINUOUS
  10
60.367
  20
58.483
  30
0.000
  0
VERTEX
  8
0
  6
CONTINUOUS
  10
60.467
  20
57.883
  30
0.000
  0
VERTEX
  8
0
  6
CONTINUOUS
  10
60.567
  20
57.217
  30
0.000
  0
VERTEX
  8
0
  6
CONTINUOUS
  10
60.667
  20
56.533
  30
0.000
  0
VERTEX
  8
0
  6
CONTINUOUS
  10
60.767
  20
55.867
  30
0.000
  0
VERTEX
  8
0
  6
CONTINUOUS
  10
60.867
  20
55.183
  30
0.000
  0
VERTEX
  8
0
  6
CONTINUOUS
  10
60.967
  20
54.500
  30
0.000
  0
VERTEX
  8
0
  6
CONTINUOUS
  10
61.067
  20
53.750
  30
0.000
  0
VERTEX
  8
0
  6
CONTINUOUS
  10
61.167
  20
52.950
  30
0.000
  0
VERTEX
  8
0
  6
CONTINUOUS
  10
61.267
  20
52.067
  30
0.000
  0
VERTEX
  8
0
  6
CONTINUOUS
  10
61.367
  20
51.133
  30
0.000
  0
VERTEX
  8
0
  6
CONTINUOUS
  10
61.467
  20
50.133
  30
0.000
  0
VERTEX
  8
0
  6
CONTINUOUS
  10
61.567
  20
49.067
  30
0.000
  0
VERTEX
  8
0
  6
CONTINUOUS
  10
61.667
  20
47.933
  30
0.000
  0
VERTEX
  8
0
  6
CONTINUOUS
  10
61.767
  20
46.750
  30
0.000
  0
VERTEX
  8
0
  6
CONTINUOUS
  10
61.867
  20
45.567
  30
0.000
  0
VERTEX
  8
0
  6
CONTINUOUS
  10
61.967
  20
44.417
  30
0.000
  0
VERTEX
  8
0
  6
CONTINUOUS
  10
62.067
  20
43.417
  30
0.000
  0
VERTEX
  8
0
  6
CONTINUOUS
  10
62.167
  20
42.667
  30
0.000
  0
VERTEX
  8
0
  6
CONTINUOUS
  10
62.267
  20
42.233
  30
0.000
  0
VERTEX
  8
0
  6
CONTINUOUS
  10
62.383
  20
42.133
  30
0.000
  0
VERTEX
  8
0
  6
CONTINUOUS
  10
62.483
  20
42.317
  30
0.000
  0
VERTEX
  8
0
  6
CONTINUOUS
  10
62.583
  20
42.700
  30
0.000
  0
VERTEX
  8
0
  6
CONTINUOUS
  10
62.683
  20
43.183
  30
0.000
  0
VERTEX
  8
0
  6
CONTINUOUS
  10
62.783
  20
43.683
  30
0.000
  0
VERTEX
  8
0
  6
CONTINUOUS
  10
62.883
  20
44.100
  30
0.000
  0
VERTEX
  8
0
  6
CONTINUOUS
  10
62.983
  20
44.450
  30
0.000
  0
VERTEX
  8
0
  6
CONTINUOUS
  10
63.083
  20
44.683
  30
0.000
  0
VERTEX
  8
0
  6
CONTINUOUS
  10
63.183
  20
44.833
  30
0.000
  0
VERTEX
  8
0
  6
CONTINUOUS
  10
63.283
  20
44.883
  30
0.000
  0
VERTEX
  8
0
  6
CONTINUOUS
  10
63.383
  20
44.850
  30
0.000
  0
VERTEX
  8
0
  6
CONTINUOUS
  10
63.483
  20
44.783
  30
0.000
  0
VERTEX
  8
0
  6
CONTINUOUS
  10
63.583
  20
44.683
  30
0.000
  0
VERTEX
  8
0
  6
CONTINUOUS
  10
63.683
  20
44.567
  30
0.000
  0
VERTEX
  8
0
  6
CONTINUOUS
  10
63.783
  20
44.433
  30
0.000
  0
VERTEX
  8
0
  6
CONTINUOUS
  10
63.883
  20
44.250
  30
0.000
  0
VERTEX
  8
0
  6
CONTINUOUS
  10
63.983
  20
44.033
  30
0.000
  0
VERTEX
  8
0
  6
CONTINUOUS
  10
64.083
  20
43.750
  30
0.000
  0
VERTEX
  8
0
  6
CONTINUOUS
  10
64.183
  20
43.500
  30
0.000
  0
VERTEX
  8
0
  6
CONTINUOUS
  10
64.300
  20
43.317
  30
0.000
  0
VERTEX
  8
0
  6
CONTINUOUS
  10
64.400
  20
43.250
  30
0.000
  0
VERTEX
  8
0
  6
CONTINUOUS
  10
64.500
  20
43.367
  30
0.000
  0
VERTEX
  8
0
  6
CONTINUOUS
  10
64.600
  20
43.667
  30
0.000
  0
VERTEX
  8
0
  6
CONTINUOUS
  10
64.700
  20
44.150
  30
0.000
  0
VERTEX
  8
0
  6
CONTINUOUS
  10
64.800
  20
44.767
  30
0.000
  0
VERTEX
  8
0
  6
CONTINUOUS
  10
64.900
  20
45.483
  30
0.000
  0
VERTEX
  8
0
  6
CONTINUOUS
  10
65.000
  20
46.233
  30
0.000
  0
VERTEX
  8
0
  6
CONTINUOUS
  10
65.100
  20
46.950
  30
0.000
  0
VERTEX
  8
0
  6
CONTINUOUS
  10
65.200
  20
47.600
  30
0.000
  0
VERTEX
  8
0
  6
CONTINUOUS
  10
65.300
  20
48.167
  30
0.000
  0
VERTEX
  8
0
  6
CONTINUOUS
  10
65.400
  20
48.583
  30
0.000
  0
VERTEX
  8
0
  6
CONTINUOUS
  10
65.500
  20
48.850
  30
0.000
  0
VERTEX
  8
0
  6
CONTINUOUS
  10
65.600
  20
48.950
  30
0.000
  0
VERTEX
  8
0
  6
CONTINUOUS
  10
65.700
  20
48.917
  30
0.000
  0
VERTEX
  8
0
  6
CONTINUOUS
  10
65.800
  20
48.767
  30
0.000
  0
VERTEX
  8
0
  6
CONTINUOUS
  10
65.900
  20
48.600
  30
0.000
  0
VERTEX
  8
0
  6
CONTINUOUS
  10
66.000
  20
48.450
  30
0.000
  0
VERTEX
  8
0
  6
CONTINUOUS
  10
66.100
  20
48.383
  30
0.000
  0
VERTEX
  8
0
  6
CONTINUOUS
  10
66.217
  20
48.450
  30
0.000
  0
VERTEX
  8
0
  6
CONTINUOUS
  10
66.317
  20
48.667
  30
0.000
  0
VERTEX
  8
0
  6
CONTINUOUS
  10
66.417
  20
49.000
  30
0.000
  0
VERTEX
  8
0
  6
CONTINUOUS
  10
66.517
  20
49.450
  30
0.000
  0
VERTEX
  8
0
  6
CONTINUOUS
  10
66.617
  20
50.033
  30
0.000
  0
VERTEX
  8
0
  6
CONTINUOUS
  10
66.717
  20
50.717
  30
0.000
  0
VERTEX
  8
0
  6
CONTINUOUS
  10
66.817
  20
51.467
  30
0.000
  0
VERTEX
  8
0
  6
CONTINUOUS
  10
66.917
  20
52.250
  30
0.000
  0
VERTEX
  8
0
  6
CONTINUOUS
  10
67.017
  20
53.033
  30
0.000
  0
VERTEX
  8
0
  6
CONTINUOUS
  10
67.117
  20
53.750
  30
0.000
  0
VERTEX
  8
0
  6
CONTINUOUS
  10
67.217
  20
54.350
  30
0.000
  0
VERTEX
  8
0
  6
CONTINUOUS
  10
67.317
  20
54.767
  30
0.000
  0
VERTEX
  8
0
  6
CONTINUOUS
  10
67.417
  20
54.967
  30
0.000
  0
VERTEX
  8
0
  6
CONTINUOUS
  10
67.517
  20
54.900
  30
0.000
  0
VERTEX
  8
0
  6
CONTINUOUS
  10
67.617
  20
54.600
  30
0.000
  0
VERTEX
  8
0
  6
CONTINUOUS
  10
67.717
  20
54.100
  30
0.000
  0
VERTEX
  8
0
  6
CONTINUOUS
  10
67.817
  20
53.517
  30
0.000
  0
VERTEX
  8
0
  6
CONTINUOUS
  10
67.917
  20
52.933
  30
0.000
  0
VERTEX
  8
0
  6
CONTINUOUS
  10
68.017
  20
52.417
  30
0.000
  0
VERTEX
  8
0
  6
CONTINUOUS
  10
68.133
  20
51.967
  30
0.000
  0
VERTEX
  8
0
  6
CONTINUOUS
  10
68.233
  20
51.583
  30
0.000
  0
VERTEX
  8
0
  6
CONTINUOUS
  10
68.333
  20
51.250
  30
0.000
  0
VERTEX
  8
0
  6
CONTINUOUS
  10
68.433
  20
51.000
  30
0.000
  0
VERTEX
  8
0
  6
CONTINUOUS
  10
68.533
  20
50.867
  30
0.000
  0
VERTEX
  8
0
  6
CONTINUOUS
  10
68.633
  20
50.867
  30
0.000
  0
VERTEX
  8
0
  6
CONTINUOUS
  10
68.733
  20
51.017
  30
0.000
  0
VERTEX
  8
0
  6
CONTINUOUS
  10
68.833
  20
51.300
  30
0.000
  0
VERTEX
  8
0
  6
CONTINUOUS
  10
68.933
  20
51.683
  30
0.000
  0
VERTEX
  8
0
  6
CONTINUOUS
  10
69.033
  20
52.117
  30
0.000
  0
VERTEX
  8
0
  6
CONTINUOUS
  10
69.133
  20
52.483
  30
0.000
  0
VERTEX
  8
0
  6
CONTINUOUS
  10
69.233
  20
52.750
  30
0.000
  0
VERTEX
  8
0
  6
CONTINUOUS
  10
69.333
  20
52.883
  30
0.000
  0
VERTEX
  8
0
  6
CONTINUOUS
  10
69.433
  20
52.883
  30
0.000
  0
VERTEX
  8
0
  6
CONTINUOUS
  10
69.533
  20
52.733
  30
0.000
  0
VERTEX
  8
0
  6
CONTINUOUS
  10
69.633
  20
52.433
  30
0.000
  0
VERTEX
  8
0
  6
CONTINUOUS
  10
69.733
  20
52.000
  30
0.000
  0
VERTEX
  8
0
  6
CONTINUOUS
  10
69.833
  20
51.500
  30
0.000
  0
VERTEX
  8
0
  6
CONTINUOUS
  10
69.933
  20
50.983
  30
0.000
  0
VERTEX
  8
0
  6
CONTINUOUS
  10
70.033
  20
50.500
  30
0.000
  0
VERTEX
  8
0
  6
CONTINUOUS
  10
70.150
  20
50.067
  30
0.000
  0
VERTEX
  8
0
  6
CONTINUOUS
  10
70.250
  20
49.700
  30
0.000
  0
VERTEX
  8
0
  6
CONTINUOUS
  10
70.350
  20
49.417
  30
0.000
  0
VERTEX
  8
0
  6
CONTINUOUS
  10
70.450
  20
49.183
  30
0.000
  0
VERTEX
  8
0
  6
CONTINUOUS
  10
70.550
  20
49.033
  30
0.000
  0
VERTEX
  8
0
  6
CONTINUOUS
  10
70.650
  20
48.950
  30
0.000
  0
VERTEX
  8
0
  6
CONTINUOUS
  10
70.750
  20
48.917
  30
0.000
  0
VERTEX
  8
0
  6
CONTINUOUS
  10
70.850
  20
48.900
  30
0.000
  0
VERTEX
  8
0
  6
CONTINUOUS
  10
70.950
  20
48.867
  30
0.000
  0
VERTEX
  8
0
  6
CONTINUOUS
  10
71.050
  20
48.800
  30
0.000
  0
VERTEX
  8
0
  6
CONTINUOUS
  10
71.150
  20
48.700
  30
0.000
  0
VERTEX
  8
0
  6
CONTINUOUS
  10
71.250
  20
48.533
  30
0.000
  0
VERTEX
  8
0
  6
CONTINUOUS
  10
71.350
  20
48.300
  30
0.000
  0
VERTEX
  8
0
  6
CONTINUOUS
  10
71.450
  20
48.033
  30
0.000
  0
VERTEX
  8
0
  6
CONTINUOUS
  10
71.550
  20
47.767
  30
0.000
  0
VERTEX
  8
0
  6
CONTINUOUS
  10
71.650
  20
47.500
  30
0.000
  0
VERTEX
  8
0
  6
CONTINUOUS
  10
71.750
  20
47.300
  30
0.000
  0
VERTEX
  8
0
  6
CONTINUOUS
  10
71.850
  20
47.167
  30
0.000
  0
VERTEX
  8
0
  6
CONTINUOUS
  10
71.950
  20
47.133
  30
0.000
  0
VERTEX
  8
0
  6
CONTINUOUS
  10
72.067
  20
47.233
  30
0.000
  0
VERTEX
  8
0
  6
CONTINUOUS
  10
72.167
  20
47.450
  30
0.000
  0
VERTEX
  8
0
  6
CONTINUOUS
  10
72.267
  20
47.783
  30
0.000
  0
VERTEX
  8
0
  6
CONTINUOUS
  10
72.367
  20
48.200
  30
0.000
  0
VERTEX
  8
0
  6
CONTINUOUS
  10
72.467
  20
48.650
  30
0.000
  0
VERTEX
  8
0
  6
CONTINUOUS
  10
72.567
  20
49.100
  30
0.000
  0
VERTEX
  8
0
  6
CONTINUOUS
  10
72.667
  20
49.517
  30
0.000
  0
VERTEX
  8
0
  6
CONTINUOUS
  10
72.767
  20
49.900
  30
0.000
  0
VERTEX
  8
0
  6
CONTINUOUS
  10
72.867
  20
50.217
  30
0.000
  0
VERTEX
  8
0
  6
CONTINUOUS
  10
72.967
  20
50.450
  30
0.000
  0
VERTEX
  8
0
  6
CONTINUOUS
  10
73.067
  20
50.583
  30
0.000
  0
VERTEX
  8
0
  6
CONTINUOUS
  10
73.167
  20
50.650
  30
0.000
  0
VERTEX
  8
0
  6
CONTINUOUS
  10
73.267
  20
50.617
  30
0.000
  0
VERTEX
  8
0
  6
CONTINUOUS
  10
73.367
  20
50.483
  30
0.000
  0
VERTEX
  8
0
  6
CONTINUOUS
  10
73.467
  20
50.283
  30
0.000
  0
VERTEX
  8
0
  6
CONTINUOUS
  10
73.567
  20
50.017
  30
0.000
  0
VERTEX
  8
0
  6
CONTINUOUS
  10
73.667
  20
49.733
  30
0.000
  0
VERTEX
  8
0
  6
CONTINUOUS
  10
73.767
  20
49.433
  30
0.000
  0
VERTEX
  8
0
  6
CONTINUOUS
  10
73.867
  20
49.150
  30
0.000
  0
VERTEX
  8
0
  6
CONTINUOUS
  10
73.983
  20
48.850
  30
0.000
  0
VERTEX
  8
0
  6
CONTINUOUS
  10
74.083
  20
48.550
  30
0.000
  0
VERTEX
  8
0
  6
CONTINUOUS
  10
74.183
  20
48.250
  30
0.000
  0
VERTEX
  8
0
  6
CONTINUOUS
  10
74.283
  20
47.983
  30
0.000
  0
VERTEX
  8
0
  6
CONTINUOUS
  10
74.383
  20
47.750
  30
0.000
  0
VERTEX
  8
0
  6
CONTINUOUS
  10
74.483
  20
47.583
  30
0.000
  0
VERTEX
  8
0
  6
CONTINUOUS
  10
74.583
  20
47.500
  30
0.000
  0
VERTEX
  8
0
  6
CONTINUOUS
  10
74.683
  20
47.483
  30
0.000
  0
VERTEX
  8
0
  6
CONTINUOUS
  10
74.783
  20
47.567
  30
0.000
  0
VERTEX
  8
0
  6
CONTINUOUS
  10
74.883
  20
47.733
  30
0.000
  0
VERTEX
  8
0
  6
CONTINUOUS
  10
74.983
  20
47.950
  30
0.000
  0
VERTEX
  8
0
  6
CONTINUOUS
  10
75.083
  20
48.217
  30
0.000
  0
VERTEX
  8
0
  6
CONTINUOUS
  10
75.183
  20
48.500
  30
0.000
  0
VERTEX
  8
0
  6
CONTINUOUS
  10
75.283
  20
48.800
  30
0.000
  0
VERTEX
  8
0
  6
CONTINUOUS
  10
75.383
  20
49.133
  30
0.000
  0
VERTEX
  8
0
  6
CONTINUOUS
  10
75.483
  20
49.483
  30
0.000
  0
VERTEX
  8
0
  6
CONTINUOUS
  10
75.583
  20
49.867
  30
0.000
  0
VERTEX
  8
0
  6
CONTINUOUS
  10
75.683
  20
50.300
  30
0.000
  0
VERTEX
  8
0
  6
CONTINUOUS
  10
75.783
  20
50.767
  30
0.000
  0
VERTEX
  8
0
  6
CONTINUOUS
  10
75.900
  20
51.267
  30
0.000
  0
VERTEX
  8
0
  6
CONTINUOUS
  10
76.000
  20
51.750
  30
0.000
  0
VERTEX
  8
0
  6
CONTINUOUS
  10
76.100
  20
52.217
  30
0.000
  0
VERTEX
  8
0
  6
CONTINUOUS
  10
76.200
  20
52.633
  30
0.000
  0
VERTEX
  8
0
  6
CONTINUOUS
  10
76.300
  20
53.017
  30
0.000
  0
VERTEX
  8
0
  6
CONTINUOUS
  10
76.400
  20
53.300
  30
0.000
  0
VERTEX
  8
0
  6
CONTINUOUS
  10
76.500
  20
53.483
  30
0.000
  0
VERTEX
  8
0
  6
CONTINUOUS
  10
76.600
  20
53.550
  30
0.000
  0
VERTEX
  8
0
  6
CONTINUOUS
  10
76.700
  20
53.483
  30
0.000
  0
VERTEX
  8
0
  6
CONTINUOUS
  10
76.800
  20
53.300
  30
0.000
  0
VERTEX
  8
0
  6
CONTINUOUS
  10
76.900
  20
53.017
  30
0.000
  0
VERTEX
  8
0
  6
CONTINUOUS
  10
77.000
  20
52.683
  30
0.000
  0
VERTEX
  8
0
  6
CONTINUOUS
  10
77.100
  20
52.350
  30
0.000
  0
VERTEX
  8
0
  6
CONTINUOUS
  10
77.200
  20
52.050
  30
0.000
  0
VERTEX
  8
0
  6
CONTINUOUS
  10
77.300
  20
51.817
  30
0.000
  0
VERTEX
  8
0
  6
CONTINUOUS
  10
77.400
  20
51.650
  30
0.000
  0
VERTEX
  8
0
  6
CONTINUOUS
  10
77.500
  20
51.583
  30
0.000
  0
VERTEX
  8
0
  6
CONTINUOUS
  10
77.600
  20
51.600
  30
0.000
  0
VERTEX
  8
0
  6
CONTINUOUS
  10
77.700
  20
51.683
  30
0.000
  0
VERTEX
  8
0
  6
CONTINUOUS
  10
77.817
  20
51.850
  30
0.000
  0
VERTEX
  8
0
  6
CONTINUOUS
  10
77.917
  20
52.050
  30
0.000
  0
VERTEX
  8
0
  6
CONTINUOUS
  10
78.017
  20
52.233
  30
0.000
  0
VERTEX
  8
0
  6
CONTINUOUS
  10
78.117
  20
52.400
  30
0.000
  0
VERTEX
  8
0
  6
CONTINUOUS
  10
78.217
  20
52.533
  30
0.000
  0
VERTEX
  8
0
  6
CONTINUOUS
  10
78.317
  20
52.600
  30
0.000
  0
VERTEX
  8
0
  6
CONTINUOUS
  10
78.417
  20
52.600
  30
0.000
  0
VERTEX
  8
0
  6
CONTINUOUS
  10
78.517
  20
52.550
  30
0.000
  0
VERTEX
  8
0
  6
CONTINUOUS
  10
78.617
  20
52.467
  30
0.000
  0
VERTEX
  8
0
  6
CONTINUOUS
  10
78.717
  20
52.300
  30
0.000
  0
VERTEX
  8
0
  6
CONTINUOUS
  10
78.817
  20
52.100
  30
0.000
  0
VERTEX
  8
0
  6
CONTINUOUS
  10
78.917
  20
51.883
  30
0.000
  0
VERTEX
  8
0
  6
CONTINUOUS
  10
79.017
  20
51.683
  30
0.000
  0
VERTEX
  8
0
  6
CONTINUOUS
  10
79.117
  20
51.533
  30
0.000
  0
VERTEX
  8
0
  6
CONTINUOUS
  10
79.217
  20
51.450
  30
0.000
  0
VERTEX
  8
0
  6
CONTINUOUS
  10
79.317
  20
51.400
  30
0.000
  0
VERTEX
  8
0
  6
CONTINUOUS
  10
79.417
  20
51.400
  30
0.000
  0
VERTEX
  8
0
  6
CONTINUOUS
  10
79.517
  20
51.467
  30
0.000
  0
VERTEX
  8
0
  6
CONTINUOUS
  10
79.617
  20
51.600
  30
0.000
  0
VERTEX
  8
0
  6
CONTINUOUS
  10
79.717
  20
51.817
  30
0.000
  0
VERTEX
  8
0
  6
CONTINUOUS
  10
79.833
  20
52.067
  30
0.000
  0
VERTEX
  8
0
  6
CONTINUOUS
  10
79.933
  20
52.350
  30
0.000
  0
VERTEX
  8
0
  6
CONTINUOUS
  10
80.033
  20
52.600
  30
0.000
  0
VERTEX
  8
0
  6
CONTINUOUS
  10
80.133
  20
52.833
  30
0.000
  0
VERTEX
  8
0
  6
CONTINUOUS
  10
80.233
  20
53.017
  30
0.000
  0
VERTEX
  8
0
  6
CONTINUOUS
  10
80.333
  20
53.150
  30
0.000
  0
VERTEX
  8
0
  6
CONTINUOUS
  10
80.433
  20
53.250
  30
0.000
  0
VERTEX
  8
0
  6
CONTINUOUS
  10
80.533
  20
53.283
  30
0.000
  0
VERTEX
  8
0
  6
CONTINUOUS
  10
80.633
  20
53.233
  30
0.000
  0
VERTEX
  8
0
  6
CONTINUOUS
  10
80.733
  20
53.167
  30
0.000
  0
VERTEX
  8
0
  6
CONTINUOUS
  10
80.833
  20
53.033
  30
0.000
  0
VERTEX
  8
0
  6
CONTINUOUS
  10
80.933
  20
52.867
  30
0.000
  0
VERTEX
  8
0
  6
CONTINUOUS
  10
81.033
  20
52.667
  30
0.000
  0
VERTEX
  8
0
  6
CONTINUOUS
  10
81.133
  20
52.467
  30
0.000
  0
VERTEX
  8
0
  6
CONTINUOUS
  10
81.233
  20
52.267
  30
0.000
  0
VERTEX
  8
0
  6
CONTINUOUS
  10
81.333
  20
52.067
  30
0.000
  0
VERTEX
  8
0
  6
CONTINUOUS
  10
81.433
  20
51.883
  30
0.000
  0
VERTEX
  8
0
  6
CONTINUOUS
  10
81.533
  20
51.717
  30
0.000
  0
VERTEX
  8
0
  6
CONTINUOUS
  10
81.633
  20
51.550
  30
0.000
  0
VERTEX
  8
0
  6
CONTINUOUS
  10
81.750
  20
51.417
  30
0.000
  0
VERTEX
  8
0
  6
CONTINUOUS
  10
81.850
  20
51.300
  30
0.000
  0
VERTEX
  8
0
  6
CONTINUOUS
  10
81.950
  20
51.233
  30
0.000
  0
VERTEX
  8
0
  6
CONTINUOUS
  10
82.050
  20
51.233
  30
0.000
  0
VERTEX
  8
0
  6
CONTINUOUS
  10
82.150
  20
51.283
  30
0.000
  0
VERTEX
  8
0
  6
CONTINUOUS
  10
82.250
  20
51.400
  30
0.000
  0
VERTEX
  8
0
  6
CONTINUOUS
  10
82.350
  20
51.567
  30
0.000
  0
VERTEX
  8
0
  6
CONTINUOUS
  10
82.450
  20
51.767
  30
0.000
  0
VERTEX
  8
0
  6
CONTINUOUS
  10
82.550
  20
51.950
  30
0.000
  0
VERTEX
  8
0
  6
CONTINUOUS
  10
82.650
  20
52.083
  30
0.000
  0
VERTEX
  8
0
  6
CONTINUOUS
  10
82.750
  20
52.133
  30
0.000
  0
VERTEX
  8
0
  6
CONTINUOUS
  10
82.850
  20
52.083
  30
0.000
  0
VERTEX
  8
0
  6
CONTINUOUS
  10
82.950
  20
51.950
  30
0.000
  0
VERTEX
  8
0
  6
CONTINUOUS
  10
83.050
  20
51.733
  30
0.000
  0
VERTEX
  8
0
  6
CONTINUOUS
  10
83.150
  20
51.500
  30
0.000
  0
VERTEX
  8
0
  6
CONTINUOUS
  10
83.250
  20
51.250
  30
0.000
  0
VERTEX
  8
0
  6
CONTINUOUS
  10
83.350
  20
51.033
  30
0.000
  0
VERTEX
  8
0
  6
CONTINUOUS
  10
83.450
  20
50.850
  30
0.000
  0
VERTEX
  8
0
  6
CONTINUOUS
  10
83.550
  20
50.683
  30
0.000
  0
VERTEX
  8
0
  6
CONTINUOUS
  10
83.667
  20
50.567
  30
0.000
  0
VERTEX
  8
0
  6
CONTINUOUS
  10
83.767
  20
50.500
  30
0.000
  0
VERTEX
  8
0
  6
CONTINUOUS
  10
83.867
  20
50.483
  30
0.000
  0
VERTEX
  8
0
  6
CONTINUOUS
  10
83.967
  20
50.533
  30
0.000
  0
VERTEX
  8
0
  6
CONTINUOUS
  10
84.067
  20
50.667
  30
0.000
  0
VERTEX
  8
0
  6
CONTINUOUS
  10
84.167
  20
50.867
  30
0.000
  0
VERTEX
  8
0
  6
CONTINUOUS
  10
84.267
  20
51.117
  30
0.000
  0
VERTEX
  8
0
  6
CONTINUOUS
  10
84.367
  20
51.400
  30
0.000
  0
VERTEX
  8
0
  6
CONTINUOUS
  10
84.467
  20
51.650
  30
0.000
  0
VERTEX
  8
0
  6
CONTINUOUS
  10
84.567
  20
51.883
  30
0.000
  0
VERTEX
  8
0
  6
CONTINUOUS
  10
84.667
  20
52.067
  30
0.000
  0
VERTEX
  8
0
  6
CONTINUOUS
  10
84.767
  20
52.200
  30
0.000
  0
VERTEX
  8
0
  6
CONTINUOUS
  10
84.867
  20
52.317
  30
0.000
  0
VERTEX
  8
0
  6
CONTINUOUS
  10
84.967
  20
52.383
  30
0.000
  0
VERTEX
  8
0
  6
CONTINUOUS
  10
85.067
  20
52.433
  30
0.000
  0
VERTEX
  8
0
  6
CONTINUOUS
  10
85.167
  20
52.517
  30
0.000
  0
VERTEX
  8
0
  6
CONTINUOUS
  10
85.267
  20
52.600
  30
0.000
  0
VERTEX
  8
0
  6
CONTINUOUS
  10
85.367
  20
52.717
  30
0.000
  0
VERTEX
  8
0
  6
CONTINUOUS
  10
85.467
  20
52.867
  30
0.000
  0
VERTEX
  8
0
  6
CONTINUOUS
  10
85.583
  20
53.033
  30
0.000
  0
VERTEX
  8
0
  6
CONTINUOUS
  10
85.683
  20
53.233
  30
0.000
  0
VERTEX
  8
0
  6
CONTINUOUS
  10
85.783
  20
53.467
  30
0.000
  0
VERTEX
  8
0
  6
CONTINUOUS
  10
85.883
  20
53.700
  30
0.000
  0
VERTEX
  8
0
  6
CONTINUOUS
  10
85.983
  20
53.900
  30
0.000
  0
VERTEX
  8
0
  6
CONTINUOUS
  10
86.083
  20
54.067
  30
0.000
  0
VERTEX
  8
0
  6
CONTINUOUS
  10
86.183
  20
54.133
  30
0.000
  0
VERTEX
  8
0
  6
CONTINUOUS
  10
86.283
  20
54.100
  30
0.000
  0
VERTEX
  8
0
  6
CONTINUOUS
  10
86.383
  20
53.900
  30
0.000
  0
VERTEX
  8
0
  6
CONTINUOUS
  10
86.483
  20
53.567
  30
0.000
  0
VERTEX
  8
0
  6
CONTINUOUS
  10
86.583
  20
53.083
  30
0.000
  0
VERTEX
  8
0
  6
CONTINUOUS
  10
86.683
  20
52.467
  30
0.000
  0
VERTEX
  8
0
  6
CONTINUOUS
  10
86.783
  20
51.750
  30
0.000
  0
VERTEX
  8
0
  6
CONTINUOUS
  10
86.883
  20
50.917
  30
0.000
  0
VERTEX
  8
0
  6
CONTINUOUS
  10
86.983
  20
49.983
  30
0.000
  0
VERTEX
  8
0
  6
CONTINUOUS
  10
87.083
  20
48.950
  30
0.000
  0
VERTEX
  8
0
  6
CONTINUOUS
  10
87.183
  20
47.867
  30
0.000
  0
VERTEX
  8
0
  6
CONTINUOUS
  10
87.283
  20
46.800
  30
0.000
  0
VERTEX
  8
0
  6
CONTINUOUS
  10
87.383
  20
45.750
  30
0.000
  0
VERTEX
  8
0
  6
CONTINUOUS
  10
87.483
  20
44.800
  30
0.000
  0
VERTEX
  8
0
  6
CONTINUOUS
  10
87.600
  20
43.950
  30
0.000
  0
VERTEX
  8
0
  6
CONTINUOUS
  10
87.700
  20
43.250
  30
0.000
  0
VERTEX
  8
0
  6
CONTINUOUS
  10
87.800
  20
42.700
  30
0.000
  0
VERTEX
  8
0
  6
CONTINUOUS
  10
87.900
  20
42.300
  30
0.000
  0
VERTEX
  8
0
  6
CONTINUOUS
  10
88.000
  20
42.050
  30
0.000
  0
VERTEX
  8
0
  6
CONTINUOUS
  10
88.100
  20
41.933
  30
0.000
  0
VERTEX
  8
0
  6
CONTINUOUS
  10
88.200
  20
41.933
  30
0.000
  0
VERTEX
  8
0
  6
CONTINUOUS
  10
88.300
  20
42.050
  30
0.000
  0
VERTEX
  8
0
  6
CONTINUOUS
  10
88.400
  20
42.217
  30
0.000
  0
VERTEX
  8
0
  6
CONTINUOUS
  10
88.500
  20
42.450
  30
0.000
  0
VERTEX
  8
0
  6
CONTINUOUS
  10
88.600
  20
42.700
  30
0.000
  0
VERTEX
  8
0
  6
CONTINUOUS
  10
88.700
  20
42.967
  30
0.000
  0
VERTEX
  8
0
  6
CONTINUOUS
  10
88.800
  20
43.217
  30
0.000
  0
VERTEX
  8
0
  6
CONTINUOUS
  10
88.900
  20
43.483
  30
0.000
  0
VERTEX
  8
0
  6
CONTINUOUS
  10
89.000
  20
43.733
  30
0.000
  0
VERTEX
  8
0
  6
CONTINUOUS
  10
89.100
  20
44.033
  30
0.000
  0
VERTEX
  8
0
  6
CONTINUOUS
  10
89.200
  20
44.383
  30
0.000
  0
VERTEX
  8
0
  6
CONTINUOUS
  10
89.300
  20
44.783
  30
0.000
  0
VERTEX
  8
0
  6
CONTINUOUS
  10
89.400
  20
45.200
  30
0.000
  0
VERTEX
  8
0
  6
CONTINUOUS
  10
89.517
  20
45.650
  30
0.000
  0
VERTEX
  8
0
  6
CONTINUOUS
  10
89.617
  20
46.100
  30
0.000
  0
VERTEX
  8
0
  6
CONTINUOUS
  10
89.717
  20
46.517
  30
0.000
  0
VERTEX
  8
0
  6
CONTINUOUS
  10
89.817
  20
46.850
  30
0.000
  0
VERTEX
  8
0
  6
CONTINUOUS
  10
89.917
  20
47.083
  30
0.000
  0
VERTEX
  8
0
  6
CONTINUOUS
  10
90.017
  20
47.200
  30
0.000
  0
VERTEX
  8
0
  6
CONTINUOUS
  10
90.117
  20
47.183
  30
0.000
  0
VERTEX
  8
0
  6
CONTINUOUS
  10
90.217
  20
47.050
  30
0.000
  0
VERTEX
  8
0
  6
CONTINUOUS
  10
90.317
  20
46.850
  30
0.000
  0
VERTEX
  8
0
  6
CONTINUOUS
  10
90.417
  20
46.633
  30
0.000
  0
VERTEX
  8
0
  6
CONTINUOUS
  10
90.517
  20
46.433
  30
0.000
  0
VERTEX
  8
0
  6
CONTINUOUS
  10
90.617
  20
46.317
  30
0.000
  0
VERTEX
  8
0
  6
CONTINUOUS
  10
90.717
  20
46.267
  30
0.000
  0
VERTEX
  8
0
  6
CONTINUOUS
  10
90.817
  20
46.333
  30
0.000
  0
VERTEX
  8
0
  6
CONTINUOUS
  10
90.917
  20
46.483
  30
0.000
  0
VERTEX
  8
0
  6
CONTINUOUS
  10
91.017
  20
46.717
  30
0.000
  0
VERTEX
  8
0
  6
CONTINUOUS
  10
91.117
  20
47.000
  30
0.000
  0
VERTEX
  8
0
  6
CONTINUOUS
  10
91.217
  20
47.317
  30
0.000
  0
VERTEX
  8
0
  6
CONTINUOUS
  10
91.317
  20
47.617
  30
0.000
  0
VERTEX
  8
0
  6
CONTINUOUS
  10
91.433
  20
47.933
  30
0.000
  0
VERTEX
  8
0
  6
CONTINUOUS
  10
91.533
  20
48.200
  30
0.000
  0
VERTEX
  8
0
  6
CONTINUOUS
  10
91.633
  20
48.450
  30
0.000
  0
VERTEX
  8
0
  6
CONTINUOUS
  10
91.733
  20
48.633
  30
0.000
  0
VERTEX
  8
0
  6
CONTINUOUS
  10
91.833
  20
48.750
  30
0.000
  0
VERTEX
  8
0
  6
CONTINUOUS
  10
91.933
  20
48.767
  30
0.000
  0
VERTEX
  8
0
  6
CONTINUOUS
  10
92.033
  20
48.717
  30
0.000
  0
VERTEX
  8
0
  6
CONTINUOUS
  10
92.133
  20
48.600
  30
0.000
  0
VERTEX
  8
0
  6
CONTINUOUS
  10
92.233
  20
48.400
  30
0.000
  0
VERTEX
  8
0
  6
CONTINUOUS
  10
92.333
  20
48.167
  30
0.000
  0
VERTEX
  8
0
  6
CONTINUOUS
  10
92.433
  20
47.933
  30
0.000
  0
VERTEX
  8
0
  6
CONTINUOUS
  10
92.533
  20
47.717
  30
0.000
  0
VERTEX
  8
0
  6
CONTINUOUS
  10
92.633
  20
47.533
  30
0.000
  0
VERTEX
  8
0
  6
CONTINUOUS
  10
92.733
  20
47.383
  30
0.000
  0
VERTEX
  8
0
  6
CONTINUOUS
  10
92.833
  20
47.250
  30
0.000
  0
VERTEX
  8
0
  6
CONTINUOUS
  10
92.933
  20
47.133
  30
0.000
  0
VERTEX
  8
0
  6
CONTINUOUS
  10
93.033
  20
47.050
  30
0.000
  0
VERTEX
  8
0
  6
CONTINUOUS
  10
93.133
  20
47.000
  30
0.000
  0
VERTEX
  8
0
  6
CONTINUOUS
  10
93.233
  20
46.983
  30
0.000
  0
VERTEX
  8
0
  6
CONTINUOUS
  10
93.350
  20
47.000
  30
0.000
  0
VERTEX
  8
0
  6
CONTINUOUS
  10
93.450
  20
47.100
  30
0.000
  0
VERTEX
  8
0
  6
CONTINUOUS
  10
93.550
  20
47.233
  30
0.000
  0
VERTEX
  8
0
  6
CONTINUOUS
  10
93.650
  20
47.433
  30
0.000
  0
VERTEX
  8
0
  6
CONTINUOUS
  10
93.750
  20
47.700
  30
0.000
  0
VERTEX
  8
0
  6
CONTINUOUS
  10
93.850
  20
48.017
  30
0.000
  0
VERTEX
  8
0
  6
CONTINUOUS
  10
93.950
  20
48.367
  30
0.000
  0
VERTEX
  8
0
  6
CONTINUOUS
  10
94.050
  20
48.767
  30
0.000
  0
VERTEX
  8
0
  6
CONTINUOUS
  10
94.150
  20
49.167
  30
0.000
  0
VERTEX
  8
0
  6
CONTINUOUS
  10
94.250
  20
49.583
  30
0.000
  0
VERTEX
  8
0
  6
CONTINUOUS
  10
94.350
  20
50.000
  30
0.000
  0
VERTEX
  8
0
  6
CONTINUOUS
  10
94.450
  20
50.417
  30
0.000
  0
VERTEX
  8
0
  6
CONTINUOUS
  10
94.550
  20
50.800
  30
0.000
  0
VERTEX
  8
0
  6
CONTINUOUS
  10
94.650
  20
51.183
  30
0.000
  0
VERTEX
  8
0
  6
CONTINUOUS
  10
94.750
  20
51.517
  30
0.000
  0
VERTEX
  8
0
  6
CONTINUOUS
  10
94.850
  20
51.850
  30
0.000
  0
VERTEX
  8
0
  6
CONTINUOUS
  10
94.950
  20
52.150
  30
0.000
  0
VERTEX
  8
0
  6
CONTINUOUS
  10
95.050
  20
52.433
  30
0.000
  0
VERTEX
  8
0
  6
CONTINUOUS
  10
95.150
  20
52.683
  30
0.000
  0
VERTEX
  8
0
  6
CONTINUOUS
  10
95.250
  20
52.900
  30
0.000
  0
VERTEX
  8
0
  6
CONTINUOUS
  10
95.367
  20
53.033
  30
0.000
  0
VERTEX
  8
0
  6
CONTINUOUS
  10
95.467
  20
53.083
  30
0.000
  0
VERTEX
  8
0
  6
CONTINUOUS
  10
95.567
  20
53.083
  30
0.000
  0
VERTEX
  8
0
  6
CONTINUOUS
  10
95.667
  20
53.000
  30
0.000
  0
VERTEX
  8
0
  6
CONTINUOUS
  10
95.767
  20
52.883
  30
0.000
  0
VERTEX
  8
0
  6
CONTINUOUS
  10
95.867
  20
52.717
  30
0.000
  0
VERTEX
  8
0
  6
CONTINUOUS
  10
95.967
  20
52.567
  30
0.000
  0
VERTEX
  8
0
  6
CONTINUOUS
  10
96.067
  20
52.400
  30
0.000
  0
VERTEX
  8
0
  6
CONTINUOUS
  10
96.167
  20
52.250
  30
0.000
  0
VERTEX
  8
0
  6
CONTINUOUS
  10
96.267
  20
52.133
  30
0.000
  0
VERTEX
  8
0
  6
CONTINUOUS
  10
96.367
  20
52.033
  30
0.000
  0
VERTEX
  8
0
  6
CONTINUOUS
  10
96.467
  20
51.950
  30
0.000
  0
VERTEX
  8
0
  6
CONTINUOUS
  10
96.567
  20
51.883
  30
0.000
  0
VERTEX
  8
0
  6
CONTINUOUS
  10
96.667
  20
51.800
  30
0.000
  0
VERTEX
  8
0
  6
CONTINUOUS
  10
96.767
  20
51.717
  30
0.000
  0
VERTEX
  8
0
  6
CONTINUOUS
  10
96.867
  20
51.633
  30
0.000
  0
VERTEX
  8
0
  6
CONTINUOUS
  10
96.967
  20
51.533
  30
0.000
  0
VERTEX
  8
0
  6
CONTINUOUS
  10
97.067
  20
51.417
  30
0.000
  0
VERTEX
  8
0
  6
CONTINUOUS
  10
97.167
  20
51.300
  30
0.000
  0
VERTEX
  8
0
  6
CONTINUOUS
  10
97.283
  20
51.200
  30
0.000
  0
VERTEX
  8
0
  6
CONTINUOUS
  10
97.383
  20
51.117
  30
0.000
  0
VERTEX
  8
0
  6
CONTINUOUS
  10
97.483
  20
51.067
  30
0.000
  0
VERTEX
  8
0
  6
CONTINUOUS
  10
97.583
  20
51.067
  30
0.000
  0
VERTEX
  8
0
  6
CONTINUOUS
  10
97.683
  20
51.133
  30
0.000
  0
VERTEX
  8
0
  6
CONTINUOUS
  10
97.783
  20
51.250
  30
0.000
  0
VERTEX
  8
0
  6
CONTINUOUS
  10
97.883
  20
51.400
  30
0.000
  0
VERTEX
  8
0
  6
CONTINUOUS
  10
97.983
  20
51.567
  30
0.000
  0
VERTEX
  8
0
  6
CONTINUOUS
  10
98.083
  20
51.750
  30
0.000
  0
VERTEX
  8
0
  6
CONTINUOUS
  10
98.183
  20
51.950
  30
0.000
  0
VERTEX
  8
0
  6
CONTINUOUS
  10
98.283
  20
52.117
  30
0.000
  0
VERTEX
  8
0
  6
CONTINUOUS
  10
98.383
  20
52.267
  30
0.000
  0
VERTEX
  8
0
  6
CONTINUOUS
  10
98.483
  20
52.383
  30
0.000
  0
VERTEX
  8
0
  6
CONTINUOUS
  10
98.583
  20
52.467
  30
0.000
  0
VERTEX
  8
0
  6
CONTINUOUS
  10
98.683
  20
52.517
  30
0.000
  0
VERTEX
  8
0
  6
CONTINUOUS
  10
98.783
  20
52.550
  30
0.000
  0
VERTEX
  8
0
  6
CONTINUOUS
  10
98.883
  20
52.550
  30
0.000
  0
VERTEX
  8
0
  6
CONTINUOUS
  10
98.983
  20
52.517
  30
0.000
  0
VERTEX
  8
0
  6
CONTINUOUS
  10
99.083
  20
52.450
  30
0.000
  0
VERTEX
  8
0
  6
CONTINUOUS
  10
99.200
  20
52.367
  30
0.000
  0
VERTEX
  8
0
  6
CONTINUOUS
  10
99.300
  20
52.267
  30
0.000
  0
VERTEX
  8
0
  6
CONTINUOUS
  10
99.400
  20
52.150
  30
0.000
  0
VERTEX
  8
0
  6
CONTINUOUS
  10
99.500
  20
52.033
  30
0.000
  0
VERTEX
  8
0
  6
CONTINUOUS
  10
99.600
  20
51.917
  30
0.000
  0
VERTEX
  8
0
  6
CONTINUOUS
  10
99.700
  20
51.817
  30
0.000
  0
VERTEX
  8
0
  6
CONTINUOUS
  10
99.800
  20
51.717
  30
0.000
  0
VERTEX
  8
0
  6
CONTINUOUS
  10
99.900
  20
51.650
  30
0.000
  0
VERTEX
  8
0
  6
CONTINUOUS
  10
100.000
  20
51.617
  30
0.000
  0
VERTEX
  8
0
  6
CONTINUOUS
  10
100.100
  20
51.567
  30
0.000
  0
VERTEX
  8
0
  6
CONTINUOUS
  10
100.200
  20
51.533
  30
0.000
  0
VERTEX
  8
0
  6
CONTINUOUS
  10
100.300
  20
51.467
  30
0.000
  0
VERTEX
  8
0
  6
CONTINUOUS
  10
100.400
  20
51.367
  30
0.000
  0
VERTEX
  8
0
  6
CONTINUOUS
  10
100.500
  20
51.267
  30
0.000
  0
VERTEX
  8
0
  6
CONTINUOUS
  10
100.600
  20
51.183
  30
0.000
  0
VERTEX
  8
0
  6
CONTINUOUS
  10
100.700
  20
51.133
  30
0.000
  0
VERTEX
  8
0
  6
CONTINUOUS
  10
100.800
  20
51.133
  30
0.000
  0
VERTEX
  8
0
  6
CONTINUOUS
  10
100.900
  20
51.217
  30
0.000
  0
VERTEX
  8
0
  6
CONTINUOUS
  10
101.000
  20
51.350
  30
0.000
  0
VERTEX
  8
0
  6
CONTINUOUS
  10
101.117
  20
51.567
  30
0.000
  0
VERTEX
  8
0
  6
CONTINUOUS
  10
101.217
  20
51.800
  30
0.000
  0
VERTEX
  8
0
  6
CONTINUOUS
  10
101.317
  20
52.067
  30
0.000
  0
VERTEX
  8
0
  6
CONTINUOUS
  10
101.417
  20
52.283
  30
0.000
  0
VERTEX
  8
0
  6
CONTINUOUS
  10
101.517
  20
52.450
  30
0.000
  0
VERTEX
  8
0
  6
CONTINUOUS
  10
101.617
  20
52.517
  30
0.000
  0
VERTEX
  8
0
  6
CONTINUOUS
  10
101.717
  20
52.467
  30
0.000
  0
VERTEX
  8
0
  6
CONTINUOUS
  10
101.817
  20
52.300
  30
0.000
  0
VERTEX
  8
0
  6
CONTINUOUS
  10
101.917
  20
52.000
  30
0.000
  0
VERTEX
  8
0
  6
CONTINUOUS
  10
102.017
  20
51.617
  30
0.000
  0
VERTEX
  8
0
  6
CONTINUOUS
  10
102.117
  20
51.133
  30
0.000
  0
VERTEX
  8
0
  6
CONTINUOUS
  10
102.217
  20
50.617
  30
0.000
  0
VERTEX
  8
0
  6
CONTINUOUS
  10
102.317
  20
50.050
  30
0.000
  0
VERTEX
  8
0
  6
CONTINUOUS
  10
102.417
  20
49.450
  30
0.000
  0
VERTEX
  8
0
  6
CONTINUOUS
  10
102.517
  20
48.850
  30
0.000
  0
VERTEX
  8
0
  6
CONTINUOUS
  10
102.617
  20
48.250
  30
0.000
  0
VERTEX
  8
0
  6
CONTINUOUS
  10
102.717
  20
47.717
  30
0.000
  0
VERTEX
  8
0
  6
CONTINUOUS
  10
102.817
  20
47.283
  30
0.000
  0
VERTEX
  8
0
  6
CONTINUOUS
  10
102.917
  20
46.983
  30
0.000
  0
VERTEX
  8
0
  6
CONTINUOUS
  10
103.033
  20
46.833
  30
0.000
  0
VERTEX
  8
0
  6
CONTINUOUS
  10
103.133
  20
46.850
  30
0.000
  0
VERTEX
  8
0
  6
CONTINUOUS
  10
103.233
  20
47.017
  30
0.000
  0
VERTEX
  8
0
  6
CONTINUOUS
  10
103.333
  20
47.317
  30
0.000
  0
VERTEX
  8
0
  6
CONTINUOUS
  10
103.433
  20
47.667
  30
0.000
  0
VERTEX
  8
0
  6
CONTINUOUS
  10
103.533
  20
48.050
  30
0.000
  0
VERTEX
  8
0
  6
CONTINUOUS
  10
103.633
  20
48.383
  30
0.000
  0
VERTEX
  8
0
  6
CONTINUOUS
  10
103.733
  20
48.667
  30
0.000
  0
VERTEX
  8
0
  6
CONTINUOUS
  10
103.833
  20
48.883
  30
0.000
  0
VERTEX
  8
0
  6
CONTINUOUS
  10
103.933
  20
49.017
  30
0.000
  0
VERTEX
  8
0
  6
CONTINUOUS
  10
104.033
  20
49.083
  30
0.000
  0
VERTEX
  8
0
  6
CONTINUOUS
  10
104.133
  20
49.067
  30
0.000
  0
VERTEX
  8
0
  6
CONTINUOUS
  10
104.233
  20
49.000
  30
0.000
  0
VERTEX
  8
0
  6
CONTINUOUS
  10
104.333
  20
48.900
  30
0.000
  0
VERTEX
  8
0
  6
CONTINUOUS
  10
104.433
  20
48.800
  30
0.000
  0
VERTEX
  8
0
  6
CONTINUOUS
  10
104.533
  20
48.767
  30
0.000
  0
VERTEX
  8
0
  6
CONTINUOUS
  10
104.633
  20
48.783
  30
0.000
  0
VERTEX
  8
0
  6
CONTINUOUS
  10
104.733
  20
48.883
  30
0.000
  0
VERTEX
  8
0
  6
CONTINUOUS
  10
104.833
  20
49.050
  30
0.000
  0
VERTEX
  8
0
  6
CONTINUOUS
  10
104.933
  20
49.283
  30
0.000
  0
VERTEX
  8
0
  6
CONTINUOUS
  10
105.050
  20
49.567
  30
0.000
  0
VERTEX
  8
0
  6
CONTINUOUS
  10
105.150
  20
49.867
  30
0.000
  0
VERTEX
  8
0
  6
CONTINUOUS
  10
105.250
  20
50.183
  30
0.000
  0
VERTEX
  8
0
  6
CONTINUOUS
  10
105.350
  20
50.483
  30
0.000
  0
VERTEX
  8
0
  6
CONTINUOUS
  10
105.450
  20
50.717
  30
0.000
  0
VERTEX
  8
0
  6
CONTINUOUS
  10
105.550
  20
50.900
  30
0.000
  0
VERTEX
  8
0
  6
CONTINUOUS
  10
105.650
  20
50.983
  30
0.000
  0
VERTEX
  8
0
  6
CONTINUOUS
  10
105.750
  20
51.000
  30
0.000
  0
VERTEX
  8
0
  6
CONTINUOUS
  10
105.850
  20
50.917
  30
0.000
  0
VERTEX
  8
0
  6
CONTINUOUS
  10
105.950
  20
50.783
  30
0.000
  0
VERTEX
  8
0
  6
CONTINUOUS
  10
106.050
  20
50.600
  30
0.000
  0
VERTEX
  8
0
  6
CONTINUOUS
  10
106.150
  20
50.400
  30
0.000
  0
VERTEX
  8
0
  6
CONTINUOUS
  10
106.250
  20
50.217
  30
0.000
  0
VERTEX
  8
0
  6
CONTINUOUS
  10
106.350
  20
50.067
  30
0.000
  0
VERTEX
  8
0
  6
CONTINUOUS
  10
106.450
  20
49.967
  30
0.000
  0
VERTEX
  8
0
  6
CONTINUOUS
  10
106.550
  20
49.900
  30
0.000
  0
VERTEX
  8
0
  6
CONTINUOUS
  10
106.650
  20
49.867
  30
0.000
  0
VERTEX
  8
0
  6
CONTINUOUS
  10
106.750
  20
49.850
  30
0.000
  0
VERTEX
  8
0
  6
CONTINUOUS
  10
106.850
  20
49.833
  30
0.000
  0
VERTEX
  8
0
  6
CONTINUOUS
  10
106.967
  20
49.800
  30
0.000
  0
VERTEX
  8
0
  6
CONTINUOUS
  10
107.067
  20
49.733
  30
0.000
  0
VERTEX
  8
0
  6
CONTINUOUS
  10
107.167
  20
49.667
  30
0.000
  0
VERTEX
  8
0
  6
CONTINUOUS
  10
107.267
  20
49.583
  30
0.000
  0
VERTEX
  8
0
  6
CONTINUOUS
  10
107.367
  20
49.517
  30
0.000
  0
VERTEX
  8
0
  6
CONTINUOUS
  10
107.467
  20
49.500
  30
0.000
  0
VERTEX
  8
0
  6
CONTINUOUS
  10
107.567
  20
49.533
  30
0.000
  0
VERTEX
  8
0
  6
CONTINUOUS
  10
107.667
  20
49.633
  30
0.000
  0
VERTEX
  8
0
  6
CONTINUOUS
  10
107.767
  20
49.800
  30
0.000
  0
VERTEX
  8
0
  6
CONTINUOUS
  10
107.867
  20
50.050
  30
0.000
  0
VERTEX
  8
0
  6
CONTINUOUS
  10
107.967
  20
50.333
  30
0.000
  0
VERTEX
  8
0
  6
CONTINUOUS
  10
108.067
  20
50.600
  30
0.000
  0
VERTEX
  8
0
  6
CONTINUOUS
  10
108.167
  20
50.833
  30
0.000
  0
VERTEX
  8
0
  6
CONTINUOUS
  10
108.267
  20
51.000
  30
0.000
  0
VERTEX
  8
0
  6
CONTINUOUS
  10
108.367
  20
51.100
  30
0.000
  0
VERTEX
  8
0
  6
CONTINUOUS
  10
108.467
  20
51.150
  30
0.000
  0
VERTEX
  8
0
  6
CONTINUOUS
  10
108.567
  20
51.117
  30
0.000
  0
VERTEX
  8
0
  6
CONTINUOUS
  10
108.667
  20
51.017
  30
0.000
  0
VERTEX
  8
0
  6
CONTINUOUS
  10
108.767
  20
50.867
  30
0.000
  0
VERTEX
  8
0
  6
CONTINUOUS
  10
108.883
  20
50.683
  30
0.000
  0
VERTEX
  8
0
  6
CONTINUOUS
  10
108.983
  20
50.517
  30
0.000
  0
VERTEX
  8
0
  6
CONTINUOUS
  10
109.083
  20
50.383
  30
0.000
  0
VERTEX
  8
0
  6
CONTINUOUS
  10
109.183
  20
50.267
  30
0.000
  0
VERTEX
  8
0
  6
CONTINUOUS
  10
109.283
  20
50.167
  30
0.000
  0
VERTEX
  8
0
  6
CONTINUOUS
  10
109.383
  20
50.083
  30
0.000
  0
VERTEX
  8
0
  6
CONTINUOUS
  10
109.483
  20
49.983
  30
0.000
  0
VERTEX
  8
0
  6
CONTINUOUS
  10
109.583
  20
49.883
  30
0.000
  0
VERTEX
  8
0
  6
CONTINUOUS
  10
109.683
  20
49.783
  30
0.000
  0
VERTEX
  8
0
  6
CONTINUOUS
  10
109.783
  20
49.683
  30
0.000
  0
VERTEX
  8
0
  6
CONTINUOUS
  10
109.883
  20
49.633
  30
0.000
  0
VERTEX
  8
0
  6
CONTINUOUS
  10
109.983
  20
49.600
  30
0.000
  0
VERTEX
  8
0
  6
CONTINUOUS
  10
110.083
  20
49.617
  30
0.000
  0
VERTEX
  8
0
  6
CONTINUOUS
  10
110.183
  20
49.683
  30
0.000
  0
VERTEX
  8
0
  6
CONTINUOUS
  10
110.283
  20
49.783
  30
0.000
  0
VERTEX
  8
0
  6
CONTINUOUS
  10
110.383
  20
49.933
  30
0.000
  0
VERTEX
  8
0
  6
CONTINUOUS
  10
110.483
  20
50.117
  30
0.000
  0
VERTEX
  8
0
  6
CONTINUOUS
  10
110.583
  20
50.333
  30
0.000
  0
VERTEX
  8
0
  6
CONTINUOUS
  10
110.683
  20
50.533
  30
0.000
  0
VERTEX
  8
0
  6
CONTINUOUS
  10
110.800
  20
50.733
  30
0.000
  0
VERTEX
  8
0
  6
CONTINUOUS
  10
110.900
  20
50.900
  30
0.000
  0
VERTEX
  8
0
  6
CONTINUOUS
  10
111.000
  20
51.050
  30
0.000
  0
VERTEX
  8
0
  6
CONTINUOUS
  10
111.100
  20
51.150
  30
0.000
  0
VERTEX
  8
0
  6
CONTINUOUS
  10
111.200
  20
51.200
  30
0.000
  0
VERTEX
  8
0
  6
CONTINUOUS
  10
111.300
  20
51.183
  30
0.000
  0
VERTEX
  8
0
  6
CONTINUOUS
  10
111.400
  20
51.133
  30
0.000
  0
VERTEX
  8
0
  6
CONTINUOUS
  10
111.500
  20
51.017
  30
0.000
  0
VERTEX
  8
0
  6
CONTINUOUS
  10
111.600
  20
50.850
  30
0.000
  0
VERTEX
  8
0
  6
CONTINUOUS
  10
111.700
  20
50.683
  30
0.000
  0
VERTEX
  8
0
  6
CONTINUOUS
  10
111.800
  20
50.483
  30
0.000
  0
VERTEX
  8
0
  6
CONTINUOUS
  10
111.900
  20
50.300
  30
0.000
  0
VERTEX
  8
0
  6
CONTINUOUS
  10
112.000
  20
50.133
  30
0.000
  0
VERTEX
  8
0
  6
CONTINUOUS
  10
112.100
  20
50.000
  30
0.000
  0
VERTEX
  8
0
  6
CONTINUOUS
  10
112.200
  20
49.917
  30
0.000
  0
VERTEX
  8
0
  6
CONTINUOUS
  10
112.300
  20
49.900
  30
0.000
  0
VERTEX
  8
0
  6
CONTINUOUS
  10
112.400
  20
49.900
  30
0.000
  0
VERTEX
  8
0
  6
CONTINUOUS
  10
112.500
  20
49.950
  30
0.000
  0
VERTEX
  8
0
  6
CONTINUOUS
  10
112.600
  20
50.017
  30
0.000
  0
VERTEX
  8
0
  6
CONTINUOUS
  10
112.700
  20
50.133
  30
0.000
  0
VERTEX
  8
0
  6
CONTINUOUS
  10
112.817
  20
50.267
  30
0.000
  0
VERTEX
  8
0
  6
CONTINUOUS
  10
112.917
  20
50.417
  30
0.000
  0
VERTEX
  8
0
  6
CONTINUOUS
  10
113.017
  20
50.567
  30
0.000
  0
VERTEX
  8
0
  6
CONTINUOUS
  10
113.117
  20
50.733
  30
0.000
  0
VERTEX
  8
0
  6
CONTINUOUS
  10
113.217
  20
50.867
  30
0.000
  0
VERTEX
  8
0
  6
CONTINUOUS
  10
113.317
  20
50.967
  30
0.000
  0
VERTEX
  8
0
  6
CONTINUOUS
  10
113.417
  20
51.033
  30
0.000
  0
VERTEX
  8
0
  6
CONTINUOUS
  10
113.517
  20
51.067
  30
0.000
  0
VERTEX
  8
0
  6
CONTINUOUS
  10
113.617
  20
51.050
  30
0.000
  0
VERTEX
  8
0
  6
CONTINUOUS
  10
113.717
  20
50.983
  30
0.000
  0
VERTEX
  8
0
  6
CONTINUOUS
  10
113.817
  20
50.900
  30
0.000
  0
VERTEX
  8
0
  6
CONTINUOUS
  10
113.917
  20
50.800
  30
0.000
  0
VERTEX
  8
0
  6
CONTINUOUS
  10
114.017
  20
50.683
  30
0.000
  0
VERTEX
  8
0
  6
CONTINUOUS
  10
114.117
  20
50.567
  30
0.000
  0
VERTEX
  8
0
  6
CONTINUOUS
  10
114.217
  20
50.433
  30
0.000
  0
VERTEX
  8
0
  6
CONTINUOUS
  10
114.317
  20
50.283
  30
0.000
  0
VERTEX
  8
0
  6
CONTINUOUS
  10
114.417
  20
50.150
  30
0.000
  0
VERTEX
  8
0
  6
CONTINUOUS
  10
114.517
  20
50.000
  30
0.000
  0
VERTEX
  8
0
  6
CONTINUOUS
  10
114.617
  20
49.867
  30
0.000
  0
VERTEX
  8
0
  6
CONTINUOUS
  10
114.733
  20
49.733
  30
0.000
  0
VERTEX
  8
0
  6
CONTINUOUS
  10
114.833
  20
49.633
  30
0.000
  0
VERTEX
  8
0
  6
CONTINUOUS
  10
114.933
  20
49.550
  30
0.000
  0
VERTEX
  8
0
  6
CONTINUOUS
  10
115.033
  20
49.500
  30
0.000
  0
VERTEX
  8
0
  6
CONTINUOUS
  10
115.133
  20
49.450
  30
0.000
  0
VERTEX
  8
0
  6
CONTINUOUS
  10
115.233
  20
49.450
  30
0.000
  0
VERTEX
  8
0
  6
CONTINUOUS
  10
115.333
  20
49.467
  30
0.000
  0
VERTEX
  8
0
  6
CONTINUOUS
  10
115.433
  20
49.550
  30
0.000
  0
VERTEX
  8
0
  6
CONTINUOUS
  10
115.533
  20
49.667
  30
0.000
  0
SEQEND
  0
TEXT
  8
0
 10
92.183
 20
72.247
 30
0.000
 40
1.456 
  1
2nd story
 50
0.000 
  7
STANDARD
 72
2
 11
102.767
 21
72.247
 31
0.000
  0
POLYLINE
  8
1
 66
   1
  6
DASHED
  0
VERTEX
  8
1
  6
DASHED
 10
104.433
 20
72.767
 30
0.000
  0
VERTEX
  8
1
  6
DASHED
  10
112.300
  20
72.767
  30
0.000
  0
SEQEND
  0
POLYLINE
  8
1
 66
   1
  6
DASHED
  0
VERTEX
  8
1
  6
DASHED
 10
14.867
 20
34.383
 30
0.000
  0
VERTEX
  8
1
  6
DASHED
  10
14.867
  20
34.383
  30
0.000
  0
VERTEX
  8
1
  6
DASHED
  10
14.967
  20
34.383
  30
0.000
  0
VERTEX
  8
1
  6
DASHED
  10
15.067
  20
34.383
  30
0.000
  0
VERTEX
  8
1
  6
DASHED
  10
15.167
  20
34.383
  30
0.000
  0
VERTEX
  8
1
  6
DASHED
  10
15.267
  20
34.383
  30
0.000
  0
VERTEX
  8
1
  6
DASHED
  10
15.367
  20
34.383
  30
0.000
  0
VERTEX
  8
1
  6
DASHED
  10
15.467
  20
34.383
  30
0.000
  0
VERTEX
  8
1
  6
DASHED
  10
15.567
  20
34.383
  30
0.000
  0
VERTEX
  8
1
  6
DASHED
  10
15.667
  20
34.383
  30
0.000
  0
VERTEX
  8
1
  6
DASHED
  10
15.783
  20
34.400
  30
0.000
  0
VERTEX
  8
1
  6
DASHED
  10
15.883
  20
34.400
  30
0.000
  0
VERTEX
  8
1
  6
DASHED
  10
15.983
  20
34.400
  30
0.000
  0
VERTEX
  8
1
  6
DASHED
  10
16.083
  20
34.400
  30
0.000
  0
VERTEX
  8
1
  6
DASHED
  10
16.183
  20
34.400
  30
0.000
  0
VERTEX
  8
1
  6
DASHED
  10
16.283
  20
34.400
  30
0.000
  0
VERTEX
  8
1
  6
DASHED
  10
16.383
  20
34.400
  30
0.000
  0
VERTEX
  8
1
  6
DASHED
  10
16.483
  20
34.400
  30
0.000
  0
VERTEX
  8
1
  6
DASHED
  10
16.583
  20
34.400
  30
0.000
  0
VERTEX
  8
1
  6
DASHED
  10
16.683
  20
34.400
  30
0.000
  0
VERTEX
  8
1
  6
DASHED
  10
16.783
  20
34.400
  30
0.000
  0
VERTEX
  8
1
  6
DASHED
  10
16.883
  20
34.417
  30
0.000
  0
VERTEX
  8
1
  6
DASHED
  10
16.983
  20
34.433
  30
0.000
  0
VERTEX
  8
1
  6
DASHED
  10
17.083
  20
34.433
  30
0.000
  0
VERTEX
  8
1
  6
DASHED
  10
17.183
  20
34.433
  30
0.000
  0
VERTEX
  8
1
  6
DASHED
  10
17.283
  20
34.433
  30
0.000
  0
VERTEX
  8
1
  6
DASHED
  10
17.383
  20
34.433
  30
0.000
  0
VERTEX
  8
1
  6
DASHED
  10
17.483
  20
34.433
  30
0.000
  0
VERTEX
  8
1
  6
DASHED
  10
17.583
  20
34.417
  30
0.000
  0
VERTEX
  8
1
  6
DASHED
  10
17.700
  20
34.400
  30
0.000
  0
VERTEX
  8
1
  6
DASHED
  10
17.800
  20
34.383
  30
0.000
  0
VERTEX
  8
1
  6
DASHED
  10
17.900
  20
34.350
  30
0.000
  0
VERTEX
  8
1
  6
DASHED
  10
18.000
  20
34.317
  30
0.000
  0
VERTEX
  8
1
  6
DASHED
  10
18.100
  20
34.283
  30
0.000
  0
VERTEX
  8
1
  6
DASHED
  10
18.200
  20
34.250
  30
0.000
  0
VERTEX
  8
1
  6
DASHED
  10
18.300
  20
34.233
  30
0.000
  0
VERTEX
  8
1
  6
DASHED
  10
18.400
  20
34.233
  30
0.000
  0
VERTEX
  8
1
  6
DASHED
  10
18.500
  20
34.250
  30
0.000
  0
VERTEX
  8
1
  6
DASHED
  10
18.600
  20
34.283
  30
0.000
  0
VERTEX
  8
1
  6
DASHED
  10
18.700
  20
34.317
  30
0.000
  0
VERTEX
  8
1
  6
DASHED
  10
18.800
  20
34.350
  30
0.000
  0
VERTEX
  8
1
  6
DASHED
  10
18.900
  20
34.383
  30
0.000
  0
VERTEX
  8
1
  6
DASHED
  10
19.000
  20
34.383
  30
0.000
  0
VERTEX
  8
1
  6
DASHED
  10
19.100
  20
34.367
  30
0.000
  0
VERTEX
  8
1
  6
DASHED
  10
19.200
  20
34.333
  30
0.000
  0
VERTEX
  8
1
  6
DASHED
  10
19.300
  20
34.283
  30
0.000
  0
VERTEX
  8
1
  6
DASHED
  10
19.400
  20
34.217
  30
0.000
  0
VERTEX
  8
1
  6
DASHED
  10
19.500
  20
34.167
  30
0.000
  0
VERTEX
  8
1
  6
DASHED
  10
19.600
  20
34.133
  30
0.000
  0
VERTEX
  8
1
  6
DASHED
  10
19.717
  20
34.133
  30
0.000
  0
VERTEX
  8
1
  6
DASHED
  10
19.817
  20
34.150
  30
0.000
  0
VERTEX
  8
1
  6
DASHED
  10
19.917
  20
34.217
  30
0.000
  0
VERTEX
  8
1
  6
DASHED
  10
20.017
  20
34.317
  30
0.000
  0
VERTEX
  8
1
  6
DASHED
  10
20.117
  20
34.450
  30
0.000
  0
VERTEX
  8
1
  6
DASHED
  10
20.217
  20
34.583
  30
0.000
  0
VERTEX
  8
1
  6
DASHED
  10
20.317
  20
34.717
  30
0.000
  0
VERTEX
  8
1
  6
DASHED
  10
20.417
  20
34.833
  30
0.000
  0
VERTEX
  8
1
  6
DASHED
  10
20.517
  20
34.917
  30
0.000
  0
VERTEX
  8
1
  6
DASHED
  10
20.617
  20
34.950
  30
0.000
  0
VERTEX
  8
1
  6
DASHED
  10
20.717
  20
34.933
  30
0.000
  0
VERTEX
  8
1
  6
DASHED
  10
20.817
  20
34.900
  30
0.000
  0
VERTEX
  8
1
  6
DASHED
  10
20.917
  20
34.850
  30
0.000
  0
VERTEX
  8
1
  6
DASHED
  10
21.017
  20
34.783
  30
0.000
  0
VERTEX
  8
1
  6
DASHED
  10
21.117
  20
34.700
  30
0.000
  0
VERTEX
  8
1
  6
DASHED
  10
21.217
  20
34.617
  30
0.000
  0
VERTEX
  8
1
  6
DASHED
  10
21.317
  20
34.517
  30
0.000
  0
VERTEX
  8
1
  6
DASHED
  10
21.417
  20
34.417
  30
0.000
  0
VERTEX
  8
1
  6
DASHED
  10
21.517
  20
34.317
  30
0.000
  0
VERTEX
  8
1
  6
DASHED
  10
21.633
  20
34.233
  30
0.000
  0
VERTEX
  8
1
  6
DASHED
  10
21.733
  20
34.150
  30
0.000
  0
VERTEX
  8
1
  6
DASHED
  10
21.833
  20
34.083
  30
0.000
  0
VERTEX
  8
1
  6
DASHED
  10
21.933
  20
34.050
  30
0.000
  0
VERTEX
  8
1
  6
DASHED
  10
22.033
  20
34.050
  30
0.000
  0
VERTEX
  8
1
  6
DASHED
  10
22.133
  20
34.067
  30
0.000
  0
VERTEX
  8
1
  6
DASHED
  10
22.233
  20
34.133
  30
0.000
  0
VERTEX
  8
1
  6
DASHED
  10
22.333
  20
34.200
  30
0.000
  0
VERTEX
  8
1
  6
DASHED
  10
22.433
  20
34.267
  30
0.000
  0
VERTEX
  8
1
  6
DASHED
  10
22.533
  20
34.300
  30
0.000
  0
VERTEX
  8
1
  6
DASHED
  10
22.633
  20
34.317
  30
0.000
  0
VERTEX
  8
1
  6
DASHED
  10
22.733
  20
34.317
  30
0.000
  0
VERTEX
  8
1
  6
DASHED
  10
22.833
  20
34.300
  30
0.000
  0
VERTEX
  8
1
  6
DASHED
  10
22.933
  20
34.283
  30
0.000
  0
VERTEX
  8
1
  6
DASHED
  10
23.033
  20
34.283
  30
0.000
  0
VERTEX
  8
1
  6
DASHED
  10
23.133
  20
34.300
  30
0.000
  0
VERTEX
  8
1
  6
DASHED
  10
23.233
  20
34.350
  30
0.000
  0
VERTEX
  8
1
  6
DASHED
  10
23.333
  20
34.433
  30
0.000
  0
VERTEX
  8
1
  6
DASHED
  10
23.433
  20
34.533
  30
0.000
  0
VERTEX
  8
1
  6
DASHED
  10
23.550
  20
34.617
  30
0.000
  0
VERTEX
  8
1
  6
DASHED
  10
23.650
  20
34.700
  30
0.000
  0
VERTEX
  8
1
  6
DASHED
  10
23.750
  20
34.767
  30
0.000
  0
VERTEX
  8
1
  6
DASHED
  10
23.850
  20
34.767
  30
0.000
  0
VERTEX
  8
1
  6
DASHED
  10
23.950
  20
34.717
  30
0.000
  0
VERTEX
  8
1
  6
DASHED
  10
24.050
  20
34.617
  30
0.000
  0
VERTEX
  8
1
  6
DASHED
  10
24.150
  20
34.467
  30
0.000
  0
VERTEX
  8
1
  6
DASHED
  10
24.250
  20
34.300
  30
0.000
  0
VERTEX
  8
1
  6
DASHED
  10
24.350
  20
34.133
  30
0.000
  0
VERTEX
  8
1
  6
DASHED
  10
24.450
  20
33.983
  30
0.000
  0
VERTEX
  8
1
  6
DASHED
  10
24.550
  20
33.900
  30
0.000
  0
VERTEX
  8
1
  6
DASHED
  10
24.650
  20
33.883
  30
0.000
  0
VERTEX
  8
1
  6
DASHED
  10
24.750
  20
33.933
  30
0.000
  0
VERTEX
  8
1
  6
DASHED
  10
24.850
  20
34.017
  30
0.000
  0
VERTEX
  8
1
  6
DASHED
  10
24.950
  20
34.117
  30
0.000
  0
VERTEX
  8
1
  6
DASHED
  10
25.050
  20
34.217
  30
0.000
  0
VERTEX
  8
1
  6
DASHED
  10
25.150
  20
34.267
  30
0.000
  0
VERTEX
  8
1
  6
DASHED
  10
25.250
  20
34.283
  30
0.000
  0
VERTEX
  8
1
  6
DASHED
  10
25.350
  20
34.300
  30
0.000
  0
VERTEX
  8
1
  6
DASHED
  10
25.467
  20
34.283
  30
0.000
  0
VERTEX
  8
1
  6
DASHED
  10
25.567
  20
34.317
  30
0.000
  0
VERTEX
  8
1
  6
DASHED
  10
25.667
  20
34.367
  30
0.000
  0
VERTEX
  8
1
  6
DASHED
  10
25.767
  20
34.483
  30
0.000
  0
VERTEX
  8
1
  6
DASHED
  10
25.867
  20
34.617
  30
0.000
  0
VERTEX
  8
1
  6
DASHED
  10
25.967
  20
34.767
  30
0.000
  0
VERTEX
  8
1
  6
DASHED
  10
26.067
  20
34.917
  30
0.000
  0
VERTEX
  8
1
  6
DASHED
  10
26.167
  20
35.017
  30
0.000
  0
VERTEX
  8
1
  6
DASHED
  10
26.267
  20
35.067
  30
0.000
  0
VERTEX
  8
1
  6
DASHED
  10
26.367
  20
35.050
  30
0.000
  0
VERTEX
  8
1
  6
DASHED
  10
26.467
  20
34.933
  30
0.000
  0
VERTEX
  8
1
  6
DASHED
  10
26.567
  20
34.767
  30
0.000
  0
VERTEX
  8
1
  6
DASHED
  10
26.667
  20
34.567
  30
0.000
  0
VERTEX
  8
1
  6
DASHED
  10
26.767
  20
34.367
  30
0.000
  0
VERTEX
  8
1
  6
DASHED
  10
26.867
  20
34.167
  30
0.000
  0
VERTEX
  8
1
  6
DASHED
  10
26.967
  20
34.017
  30
0.000
  0
VERTEX
  8
1
  6
DASHED
  10
27.067
  20
33.900
  30
0.000
  0
VERTEX
  8
1
  6
DASHED
  10
27.167
  20
33.800
  30
0.000
  0
VERTEX
  8
1
  6
DASHED
  10
27.267
  20
33.750
  30
0.000
  0
VERTEX
  8
1
  6
DASHED
  10
27.383
  20
33.733
  30
0.000
  0
VERTEX
  8
1
  6
DASHED
  10
27.483
  20
33.733
  30
0.000
  0
VERTEX
  8
1
  6
DASHED
  10
27.583
  20
33.783
  30
0.000
  0
VERTEX
  8
1
  6
DASHED
  10
27.683
  20
33.850
  30
0.000
  0
VERTEX
  8
1
  6
DASHED
  10
27.783
  20
33.933
  30
0.000
  0
VERTEX
  8
1
  6
DASHED
  10
27.883
  20
34.050
  30
0.000
  0
VERTEX
  8
1
  6
DASHED
  10
27.983
  20
34.200
  30
0.000
  0
VERTEX
  8
1
  6
DASHED
  10
28.083
  20
34.367
  30
0.000
  0
VERTEX
  8
1
  6
DASHED
  10
28.183
  20
34.550
  30
0.000
  0
VERTEX
  8
1
  6
DASHED
  10
28.283
  20
34.733
  30
0.000
  0
VERTEX
  8
1
  6
DASHED
  10
28.383
  20
34.900
  30
0.000
  0
VERTEX
  8
1
  6
DASHED
  10
28.483
  20
35.050
  30
0.000
  0
VERTEX
  8
1
  6
DASHED
  10
28.583
  20
35.133
  30
0.000
  0
VERTEX
  8
1
  6
DASHED
  10
28.683
  20
35.150
  30
0.000
  0
VERTEX
  8
1
  6
DASHED
  10
28.783
  20
35.117
  30
0.000
  0
VERTEX
  8
1
  6
DASHED
  10
28.883
  20
35.050
  30
0.000
  0
VERTEX
  8
1
  6
DASHED
  10
28.983
  20
34.967
  30
0.000
  0
VERTEX
  8
1
  6
DASHED
  10
29.083
  20
34.867
  30
0.000
  0
VERTEX
  8
1
  6
DASHED
  10
29.183
  20
34.767
  30
0.000
  0
VERTEX
  8
1
  6
DASHED
  10
29.283
  20
34.650
  30
0.000
  0
VERTEX
  8
1
  6
DASHED
  10
29.400
  20
34.533
  30
0.000
  0
VERTEX
  8
1
  6
DASHED
  10
29.500
  20
34.383
  30
0.000
  0
VERTEX
  8
1
  6
DASHED
  10
29.600
  20
34.200
  30
0.000
  0
VERTEX
  8
1
  6
DASHED
  10
29.700
  20
34.017
  30
0.000
  0
VERTEX
  8
1
  6
DASHED
  10
29.800
  20
33.817
  30
0.000
  0
VERTEX
  8
1
  6
DASHED
  10
29.900
  20
33.667
  30
0.000
  0
VERTEX
  8
1
  6
DASHED
  10
30.000
  20
33.550
  30
0.000
  0
VERTEX
  8
1
  6
DASHED
  10
30.100
  20
33.467
  30
0.000
  0
VERTEX
  8
1
  6
DASHED
  10
30.200
  20
33.433
  30
0.000
  0
VERTEX
  8
1
  6
DASHED
  10
30.300
  20
33.433
  30
0.000
  0
VERTEX
  8
1
  6
DASHED
  10
30.400
  20
33.433
  30
0.000
  0
VERTEX
  8
1
  6
DASHED
  10
30.500
  20
33.467
  30
0.000
  0
VERTEX
  8
1
  6
DASHED
  10
30.600
  20
33.500
  30
0.000
  0
VERTEX
  8
1
  6
DASHED
  10
30.700
  20
33.533
  30
0.000
  0
VERTEX
  8
1
  6
DASHED
  10
30.800
  20
33.617
  30
0.000
  0
VERTEX
  8
1
  6
DASHED
  10
30.900
  20
33.717
  30
0.000
  0
VERTEX
  8
1
  6
DASHED
  10
31.000
  20
33.867
  30
0.000
  0
VERTEX
  8
1
  6
DASHED
  10
31.100
  20
34.067
  30
0.000
  0
VERTEX
  8
1
  6
DASHED
  10
31.200
  20
34.283
  30
0.000
  0
VERTEX
  8
1
  6
DASHED
  10
31.317
  20
34.483
  30
0.000
  0
VERTEX
  8
1
  6
DASHED
  10
31.417
  20
34.633
  30
0.000
  0
VERTEX
  8
1
  6
DASHED
  10
31.517
  20
34.667
  30
0.000
  0
VERTEX
  8
1
  6
DASHED
  10
31.617
  20
34.533
  30
0.000
  0
VERTEX
  8
1
  6
DASHED
  10
31.717
  20
34.217
  30
0.000
  0
VERTEX
  8
1
  6
DASHED
  10
31.817
  20
33.717
  30
0.000
  0
VERTEX
  8
1
  6
DASHED
  10
31.917
  20
33.117
  30
0.000
  0
VERTEX
  8
1
  6
DASHED
  10
32.017
  20
32.450
  30
0.000
  0
VERTEX
  8
1
  6
DASHED
  10
32.117
  20
31.717
  30
0.000
  0
VERTEX
  8
1
  6
DASHED
  10
32.217
  20
30.950
  30
0.000
  0
VERTEX
  8
1
  6
DASHED
  10
32.317
  20
30.150
  30
0.000
  0
VERTEX
  8
1
  6
DASHED
  10
32.417
  20
29.400
  30
0.000
  0
VERTEX
  8
1
  6
DASHED
  10
32.517
  20
28.817
  30
0.000
  0
VERTEX
  8
1
  6
DASHED
  10
32.617
  20
28.450
  30
0.000
  0
VERTEX
  8
1
  6
DASHED
  10
32.717
  20
28.417
  30
0.000
  0
VERTEX
  8
1
  6
DASHED
  10
32.817
  20
28.850
  30
0.000
  0
VERTEX
  8
1
  6
DASHED
  10
32.917
  20
29.733
  30
0.000
  0
VERTEX
  8
1
  6
DASHED
  10
33.017
  20
31.000
  30
0.000
  0
VERTEX
  8
1
  6
DASHED
  10
33.117
  20
32.600
  30
0.000
  0
VERTEX
  8
1
  6
DASHED
  10
33.233
  20
34.467
  30
0.000
  0
VERTEX
  8
1
  6
DASHED
  10
33.333
  20
36.667
  30
0.000
  0
VERTEX
  8
1
  6
DASHED
  10
33.433
  20
39.200
  30
0.000
  0
VERTEX
  8
1
  6
DASHED
  10
33.533
  20
42.083
  30
0.000
  0
VERTEX
  8
1
  6
DASHED
  10
33.633
  20
45.217
  30
0.000
  0
VERTEX
  8
1
  6
DASHED
  10
33.733
  20
48.533
  30
0.000
  0
VERTEX
  8
1
  6
DASHED
  10
33.833
  20
51.933
  30
0.000
  0
VERTEX
  8
1
  6
DASHED
  10
33.933
  20
55.300
  30
0.000
  0
VERTEX
  8
1
  6
DASHED
  10
34.033
  20
58.567
  30
0.000
  0
VERTEX
  8
1
  6
DASHED
  10
34.133
  20
61.633
  30
0.000
  0
VERTEX
  8
1
  6
DASHED
  10
34.233
  20
64.467
  30
0.000
  0
VERTEX
  8
1
  6
DASHED
  10
34.333
  20
66.967
  30
0.000
  0
VERTEX
  8
1
  6
DASHED
  10
34.433
  20
69.050
  30
0.000
  0
VERTEX
  8
1
  6
DASHED
  10
34.533
  20
70.667
  30
0.000
  0
VERTEX
  8
1
  6
DASHED
  10
34.633
  20
71.767
  30
0.000
  0
VERTEX
  8
1
  6
DASHED
  10
34.733
  20
72.317
  30
0.000
  0
VERTEX
  8
1
  6
DASHED
  10
34.833
  20
72.350
  30
0.000
  0
VERTEX
  8
1
  6
DASHED
  10
34.933
  20
71.917
  30
0.000
  0
VERTEX
  8
1
  6
DASHED
  10
35.033
  20
71.083
  30
0.000
  0
VERTEX
  8
1
  6
DASHED
  10
35.150
  20
70.017
  30
0.000
  0
VERTEX
  8
1
  6
DASHED
  10
35.250
  20
68.733
  30
0.000
  0
VERTEX
  8
1
  6
DASHED
  10
35.350
  20
67.283
  30
0.000
  0
VERTEX
  8
1
  6
DASHED
  10
35.450
  20
65.650
  30
0.000
  0
VERTEX
  8
1
  6
DASHED
  10
35.550
  20
63.850
  30
0.000
  0
VERTEX
  8
1
  6
DASHED
  10
35.650
  20
61.917
  30
0.000
  0
VERTEX
  8
1
  6
DASHED
  10
35.750
  20
59.833
  30
0.000
  0
VERTEX
  8
1
  6
DASHED
  10
35.850
  20
57.617
  30
0.000
  0
VERTEX
  8
1
  6
DASHED
  10
35.950
  20
55.250
  30
0.000
  0
VERTEX
  8
1
  6
DASHED
  10
36.050
  20
52.650
  30
0.000
  0
VERTEX
  8
1
  6
DASHED
  10
36.150
  20
49.700
  30
0.000
  0
VERTEX
  8
1
  6
DASHED
  10
36.250
  20
46.383
  30
0.000
  0
VERTEX
  8
1
  6
DASHED
  10
36.350
  20
42.783
  30
0.000
  0
VERTEX
  8
1
  6
DASHED
  10
36.450
  20
38.967
  30
0.000
  0
VERTEX
  8
1
  6
DASHED
  10
36.550
  20
35.017
  30
0.000
  0
VERTEX
  8
1
  6
DASHED
  10
36.650
  20
31.017
  30
0.000
  0
VERTEX
  8
1
  6
DASHED
  10
36.750
  20
27.283
  30
0.000
  0
VERTEX
  8
1
  6
DASHED
  10
36.850
  20
24.083
  30
0.000
  0
VERTEX
  8
1
  6
DASHED
  10
36.950
  20
21.450
  30
0.000
  0
VERTEX
  8
1
  6
DASHED
  10
37.050
  20
19.350
  30
0.000
  0
VERTEX
  8
1
  6
DASHED
  10
37.167
  20
17.767
  30
0.000
  0
VERTEX
  8
1
  6
DASHED
  10
37.267
  20
16.700
  30
0.000
  0
VERTEX
  8
1
  6
DASHED
  10
37.367
  20
16.200
  30
0.000
  0
VERTEX
  8
1
  6
DASHED
  10
37.467
  20
16.383
  30
0.000
  0
VERTEX
  8
1
  6
DASHED
  10
37.567
  20
17.300
  30
0.000
  0
VERTEX
  8
1
  6
DASHED
  10
37.667
  20
18.867
  30
0.000
  0
VERTEX
  8
1
  6
DASHED
  10
37.767
  20
20.900
  30
0.000
  0
VERTEX
  8
1
  6
DASHED
  10
37.867
  20
23.283
  30
0.000
  0
VERTEX
  8
1
  6
DASHED
  10
37.967
  20
25.933
  30
0.000
  0
VERTEX
  8
1
  6
DASHED
  10
38.067
  20
28.900
  30
0.000
  0
VERTEX
  8
1
  6
DASHED
  10
38.167
  20
32.183
  30
0.000
  0
VERTEX
  8
1
  6
DASHED
  10
38.267
  20
35.767
  30
0.000
  0
VERTEX
  8
1
  6
DASHED
  10
38.367
  20
39.517
  30
0.000
  0
VERTEX
  8
1
  6
DASHED
  10
38.467
  20
43.100
  30
0.000
  0
VERTEX
  8
1
  6
DASHED
  10
38.567
  20
46.567
  30
0.000
  0
VERTEX
  8
1
  6
DASHED
  10
38.667
  20
50.050
  30
0.000
  0
VERTEX
  8
1
  6
DASHED
  10
38.767
  20
53.450
  30
0.000
  0
VERTEX
  8
1
  6
DASHED
  10
38.867
  20
56.633
  30
0.000
  0
VERTEX
  8
1
  6
DASHED
  10
38.967
  20
59.517
  30
0.000
  0
VERTEX
  8
1
  6
DASHED
  10
39.083
  20
62.000
  30
0.000
  0
VERTEX
  8
1
  6
DASHED
  10
39.183
  20
64.050
  30
0.000
  0
VERTEX
  8
1
  6
DASHED
  10
39.283
  20
65.600
  30
0.000
  0
VERTEX
  8
1
  6
DASHED
  10
39.383
  20
66.683
  30
0.000
  0
VERTEX
  8
1
  6
DASHED
  10
39.483
  20
67.267
  30
0.000
  0
VERTEX
  8
1
  6
DASHED
  10
39.583
  20
67.267
  30
0.000
  0
VERTEX
  8
1
  6
DASHED
  10
39.683
  20
66.650
  30
0.000
  0
VERTEX
  8
1
  6
DASHED
  10
39.783
  20
65.517
  30
0.000
  0
VERTEX
  8
1
  6
DASHED
  10
39.883
  20
64.033
  30
0.000
  0
VERTEX
  8
1
  6
DASHED
  10
39.983
  20
62.333
  30
0.000
  0
VERTEX
  8
1
  6
DASHED
  10
40.083
  20
60.550
  30
0.000
  0
VERTEX
  8
1
  6
DASHED
  10
40.183
  20
58.767
  30
0.000
  0
VERTEX
  8
1
  6
DASHED
  10
40.283
  20
57.033
  30
0.000
  0
VERTEX
  8
1
  6
DASHED
  10
40.383
  20
55.367
  30
0.000
  0
VERTEX
  8
1
  6
DASHED
  10
40.483
  20
53.783
  30
0.000
  0
VERTEX
  8
1
  6
DASHED
  10
40.583
  20
52.317
  30
0.000
  0
VERTEX
  8
1
  6
DASHED
  10
40.683
  20
50.983
  30
0.000
  0
VERTEX
  8
1
  6
DASHED
  10
40.783
  20
49.800
  30
0.000
  0
VERTEX
  8
1
  6
DASHED
  10
40.883
  20
48.767
  30
0.000
  0
VERTEX
  8
1
  6
DASHED
  10
41.000
  20
47.883
  30
0.000
  0
VERTEX
  8
1
  6
DASHED
  10
41.100
  20
47.133
  30
0.000
  0
VERTEX
  8
1
  6
DASHED
  10
41.200
  20
46.483
  30
0.000
  0
VERTEX
  8
1
  6
DASHED
  10
41.300
  20
45.933
  30
0.000
  0
VERTEX
  8
1
  6
DASHED
  10
41.400
  20
45.450
  30
0.000
  0
VERTEX
  8
1
  6
DASHED
  10
41.500
  20
45.000
  30
0.000
  0
VERTEX
  8
1
  6
DASHED
  10
41.600
  20
44.567
  30
0.000
  0
VERTEX
  8
1
  6
DASHED
  10
41.700
  20
44.150
  30
0.000
  0
VERTEX
  8
1
  6
DASHED
  10
41.800
  20
43.733
  30
0.000
  0
VERTEX
  8
1
  6
DASHED
  10
41.900
  20
43.300
  30
0.000
  0
VERTEX
  8
1
  6
DASHED
  10
42.000
  20
42.850
  30
0.000
  0
VERTEX
  8
1
  6
DASHED
  10
42.100
  20
42.350
  30
0.000
  0
VERTEX
  8
1
  6
DASHED
  10
42.200
  20
41.800
  30
0.000
  0
VERTEX
  8
1
  6
DASHED
  10
42.300
  20
41.200
  30
0.000
  0
VERTEX
  8
1
  6
DASHED
  10
42.400
  20
40.517
  30
0.000
  0
VERTEX
  8
1
  6
DASHED
  10
42.500
  20
39.750
  30
0.000
  0
VERTEX
  8
1
  6
DASHED
  10
42.600
  20
38.883
  30
0.000
  0
VERTEX
  8
1
  6
DASHED
  10
42.700
  20
37.933
  30
0.000
  0
VERTEX
  8
1
  6
DASHED
  10
42.800
  20
36.867
  30
0.000
  0
VERTEX
  8
1
  6
DASHED
  10
42.917
  20
35.733
  30
0.000
  0
VERTEX
  8
1
  6
DASHED
  10
43.017
  20
34.517
  30
0.000
  0
VERTEX
  8
1
  6
DASHED
  10
43.117
  20
33.233
  30
0.000
  0
VERTEX
  8
1
  6
DASHED
  10
43.217
  20
31.933
  30
0.000
  0
VERTEX
  8
1
  6
DASHED
  10
43.317
  20
30.617
  30
0.000
  0
VERTEX
  8
1
  6
DASHED
  10
43.417
  20
29.350
  30
0.000
  0
VERTEX
  8
1
  6
DASHED
  10
43.517
  20
28.117
  30
0.000
  0
VERTEX
  8
1
  6
DASHED
  10
43.617
  20
26.983
  30
0.000
  0
VERTEX
  8
1
  6
DASHED
  10
43.717
  20
25.967
  30
0.000
  0
VERTEX
  8
1
  6
DASHED
  10
43.817
  20
25.083
  30
0.000
  0
VERTEX
  8
1
  6
DASHED
  10
43.917
  20
24.350
  30
0.000
  0
VERTEX
  8
1
  6
DASHED
  10
44.017
  20
23.800
  30
0.000
  0
VERTEX
  8
1
  6
DASHED
  10
44.117
  20
23.433
  30
0.000
  0
VERTEX
  8
1
  6
DASHED
  10
44.217
  20
23.283
  30
0.000
  0
VERTEX
  8
1
  6
DASHED
  10
44.317
  20
23.367
  30
0.000
  0
VERTEX
  8
1
  6
DASHED
  10
44.417
  20
23.667
  30
0.000
  0
VERTEX
  8
1
  6
DASHED
  10
44.517
  20
24.167
  30
0.000
  0
VERTEX
  8
1
  6
DASHED
  10
44.617
  20
24.783
  30
0.000
  0
VERTEX
  8
1
  6
DASHED
  10
44.717
  20
25.450
  30
0.000
  0
VERTEX
  8
1
  6
DASHED
  10
44.817
  20
26.167
  30
0.000
  0
VERTEX
  8
1
  6
DASHED
  10
44.933
  20
26.917
  30
0.000
  0
VERTEX
  8
1
  6
DASHED
  10
45.033
  20
27.733
  30
0.000
  0
VERTEX
  8
1
  6
DASHED
  10
45.133
  20
28.617
  30
0.000
  0
VERTEX
  8
1
  6
DASHED
  10
45.233
  20
29.550
  30
0.000
  0
VERTEX
  8
1
  6
DASHED
  10
45.333
  20
30.550
  30
0.000
  0
VERTEX
  8
1
  6
DASHED
  10
45.433
  20
31.617
  30
0.000
  0
VERTEX
  8
1
  6
DASHED
  10
45.533
  20
32.733
  30
0.000
  0
VERTEX
  8
1
  6
DASHED
  10
45.633
  20
33.900
  30
0.000
  0
VERTEX
  8
1
  6
DASHED
  10
45.733
  20
35.117
  30
0.000
  0
VERTEX
  8
1
  6
DASHED
  10
45.833
  20
36.367
  30
0.000
  0
VERTEX
  8
1
  6
DASHED
  10
45.933
  20
37.617
  30
0.000
  0
VERTEX
  8
1
  6
DASHED
  10
46.033
  20
38.850
  30
0.000
  0
VERTEX
  8
1
  6
DASHED
  10
46.133
  20
40.033
  30
0.000
  0
VERTEX
  8
1
  6
DASHED
  10
46.233
  20
41.133
  30
0.000
  0
VERTEX
  8
1
  6
DASHED
  10
46.333
  20
42.150
  30
0.000
  0
VERTEX
  8
1
  6
DASHED
  10
46.433
  20
43.083
  30
0.000
  0
VERTEX
  8
1
  6
DASHED
  10
46.533
  20
43.917
  30
0.000
  0
VERTEX
  8
1
  6
DASHED
  10
46.633
  20
44.667
  30
0.000
  0
VERTEX
  8
1
  6
DASHED
  10
46.733
  20
45.383
  30
0.000
  0
VERTEX
  8
1
  6
DASHED
  10
46.850
  20
46.083
  30
0.000
  0
VERTEX
  8
1
  6
DASHED
  10
46.950
  20
46.800
  30
0.000
  0
VERTEX
  8
1
  6
DASHED
  10
47.050
  20
47.583
  30
0.000
  0
VERTEX
  8
1
  6
DASHED
  10
47.150
  20
48.483
  30
0.000
  0
VERTEX
  8
1
  6
DASHED
  10
47.250
  20
49.567
  30
0.000
  0
VERTEX
  8
1
  6
DASHED
  10
47.350
  20
50.850
  30
0.000
  0
VERTEX
  8
1
  6
DASHED
  10
47.450
  20
52.383
  30
0.000
  0
VERTEX
  8
1
  6
DASHED
  10
47.550
  20
54.300
  30
0.000
  0
VERTEX
  8
1
  6
DASHED
  10
47.650
  20
56.700
  30
0.000
  0
VERTEX
  8
1
  6
DASHED
  10
47.750
  20
59.450
  30
0.000
  0
VERTEX
  8
1
  6
DASHED
  10
47.850
  20
62.400
  30
0.000
  0
VERTEX
  8
1
  6
DASHED
  10
47.950
  20
65.333
  30
0.000
  0
VERTEX
  8
1
  6
DASHED
  10
48.050
  20
67.883
  30
0.000
  0
VERTEX
  8
1
  6
DASHED
  10
48.150
  20
69.850
  30
0.000
  0
VERTEX
  8
1
  6
DASHED
  10
48.250
  20
71.167
  30
0.000
  0
VERTEX
  8
1
  6
DASHED
  10
48.350
  20
71.767
  30
0.000
  0
VERTEX
  8
1
  6
DASHED
  10
48.450
  20
71.617
  30
0.000
  0
VERTEX
  8
1
  6
DASHED
  10
48.550
  20
70.817
  30
0.000
  0
VERTEX
  8
1
  6
DASHED
  10
48.650
  20
69.567
  30
0.000
  0
VERTEX
  8
1
  6
DASHED
  10
48.767
  20
68.067
  30
0.000
  0
VERTEX
  8
1
  6
DASHED
  10
48.867
  20
66.533
  30
0.000
  0
VERTEX
  8
1
  6
DASHED
  10
48.967
  20
65.100
  30
0.000
  0
VERTEX
  8
1
  6
DASHED
  10
49.067
  20
63.867
  30
0.000
  0
VERTEX
  8
1
  6
DASHED
  10
49.167
  20
62.800
  30
0.000
  0
VERTEX
  8
1
  6
DASHED
  10
49.267
  20
61.867
  30
0.000
  0
VERTEX
  8
1
  6
DASHED
  10
49.367
  20
61.000
  30
0.000
  0
VERTEX
  8
1
  6
DASHED
  10
49.467
  20
60.117
  30
0.000
  0
VERTEX
  8
1
  6
DASHED
  10
49.567
  20
59.183
  30
0.000
  0
VERTEX
  8
1
  6
DASHED
  10
49.667
  20
58.183
  30
0.000
  0
VERTEX
  8
1
  6
DASHED
  10
49.767
  20
57.050
  30
0.000
  0
VERTEX
  8
1
  6
DASHED
  10
49.867
  20
55.767
  30
0.000
  0
VERTEX
  8
1
  6
DASHED
  10
49.967
  20
54.283
  30
0.000
  0
VERTEX
  8
1
  6
DASHED
  10
50.067
  20
52.567
  30
0.000
  0
VERTEX
  8
1
  6
DASHED
  10
50.167
  20
50.617
  30
0.000
  0
VERTEX
  8
1
  6
DASHED
  10
50.267
  20
48.400
  30
0.000
  0
VERTEX
  8
1
  6
DASHED
  10
50.367
  20
45.933
  30
0.000
  0
VERTEX
  8
1
  6
DASHED
  10
50.467
  20
43.283
  30
0.000
  0
VERTEX
  8
1
  6
DASHED
  10
50.567
  20
40.450
  30
0.000
  0
VERTEX
  8
1
  6
DASHED
  10
50.683
  20
37.533
  30
0.000
  0
VERTEX
  8
1
  6
DASHED
  10
50.783
  20
34.617
  30
0.000
  0
VERTEX
  8
1
  6
DASHED
  10
50.883
  20
31.833
  30
0.000
  0
VERTEX
  8
1
  6
DASHED
  10
50.983
  20
29.250
  30
0.000
  0
VERTEX
  8
1
  6
DASHED
  10
51.083
  20
26.933
  30
0.000
  0
VERTEX
  8
1
  6
DASHED
  10
51.183
  20
24.967
  30
0.000
  0
VERTEX
  8
1
  6
DASHED
  10
51.283
  20
23.383
  30
0.000
  0
VERTEX
  8
1
  6
DASHED
  10
51.383
  20
22.200
  30
0.000
  0
VERTEX
  8
1
  6
DASHED
  10
51.483
  20
21.467
  30
0.000
  0
VERTEX
  8
1
  6
DASHED
  10
51.583
  20
21.250
  30
0.000
  0
VERTEX
  8
1
  6
DASHED
  10
51.683
  20
21.517
  30
0.000
  0
VERTEX
  8
1
  6
DASHED
  10
51.783
  20
22.167
  30
0.000
  0
VERTEX
  8
1
  6
DASHED
  10
51.883
  20
23.067
  30
0.000
  0
VERTEX
  8
1
  6
DASHED
  10
51.983
  20
24.083
  30
0.000
  0
VERTEX
  8
1
  6
DASHED
  10
52.083
  20
25.233
  30
0.000
  0
VERTEX
  8
1
  6
DASHED
  10
52.183
  20
26.483
  30
0.000
  0
VERTEX
  8
1
  6
DASHED
  10
52.283
  20
27.817
  30
0.000
  0
VERTEX
  8
1
  6
DASHED
  10
52.383
  20
29.233
  30
0.000
  0
VERTEX
  8
1
  6
DASHED
  10
52.483
  20
30.733
  30
0.000
  0
VERTEX
  8
1
  6
DASHED
  10
52.600
  20
32.283
  30
0.000
  0
VERTEX
  8
1
  6
DASHED
  10
52.700
  20
33.867
  30
0.000
  0
VERTEX
  8
1
  6
DASHED
  10
52.800
  20
35.500
  30
0.000
  0
VERTEX
  8
1
  6
DASHED
  10
52.900
  20
37.117
  30
0.000
  0
VERTEX
  8
1
  6
DASHED
  10
53.000
  20
38.700
  30
0.000
  0
VERTEX
  8
1
  6
DASHED
  10
53.100
  20
40.217
  30
0.000
  0
VERTEX
  8
1
  6
DASHED
  10
53.200
  20
41.617
  30
0.000
  0
VERTEX
  8
1
  6
DASHED
  10
53.300
  20
42.850
  30
0.000
  0
VERTEX
  8
1
  6
DASHED
  10
53.400
  20
43.883
  30
0.000
  0
VERTEX
  8
1
  6
DASHED
  10
53.500
  20
44.633
  30
0.000
  0
VERTEX
  8
1
  6
DASHED
  10
53.600
  20
45.083
  30
0.000
  0
VERTEX
  8
1
  6
DASHED
  10
53.700
  20
45.233
  30
0.000
  0
VERTEX
  8
1
  6
DASHED
  10
53.800
  20
45.117
  30
0.000
  0
VERTEX
  8
1
  6
DASHED
  10
53.900
  20
44.883
  30
0.000
  0
VERTEX
  8
1
  6
DASHED
  10
54.000
  20
44.683
  30
0.000
  0
VERTEX
  8
1
  6
DASHED
  10
54.100
  20
44.583
  30
0.000
  0
VERTEX
  8
1
  6
DASHED
  10
54.200
  20
44.667
  30
0.000
  0
VERTEX
  8
1
  6
DASHED
  10
54.300
  20
44.950
  30
0.000
  0
VERTEX
  8
1
  6
DASHED
  10
54.400
  20
45.433
  30
0.000
  0
VERTEX
  8
1
  6
DASHED
  10
54.500
  20
46.083
  30
0.000
  0
VERTEX
  8
1
  6
DASHED
  10
54.617
  20
46.933
  30
0.000
  0
VERTEX
  8
1
  6
DASHED
  10
54.717
  20
47.967
  30
0.000
  0
VERTEX
  8
1
  6
DASHED
  10
54.817
  20
49.150
  30
0.000
  0
VERTEX
  8
1
  6
DASHED
  10
54.917
  20
50.467
  30
0.000
  0
VERTEX
  8
1
  6
DASHED
  10
55.017
  20
51.900
  30
0.000
  0
VERTEX
  8
1
  6
DASHED
  10
55.117
  20
53.400
  30
0.000
  0
VERTEX
  8
1
  6
DASHED
  10
55.217
  20
54.967
  30
0.000
  0
VERTEX
  8
1
  6
DASHED
  10
55.317
  20
56.583
  30
0.000
  0
VERTEX
  8
1
  6
DASHED
  10
55.417
  20
58.217
  30
0.000
  0
VERTEX
  8
1
  6
DASHED
  10
55.517
  20
59.850
  30
0.000
  0
VERTEX
  8
1
  6
DASHED
  10
55.617
  20
61.417
  30
0.000
  0
VERTEX
  8
1
  6
DASHED
  10
55.717
  20
62.883
  30
0.000
  0
VERTEX
  8
1
  6
DASHED
  10
55.817
  20
64.183
  30
0.000
  0
VERTEX
  8
1
  6
DASHED
  10
55.917
  20
65.267
  30
0.000
  0
VERTEX
  8
1
  6
DASHED
  10
56.017
  20
66.050
  30
0.000
  0
VERTEX
  8
1
  6
DASHED
  10
56.117
  20
66.450
  30
0.000
  0
VERTEX
  8
1
  6
DASHED
  10
56.217
  20
66.433
  30
0.000
  0
VERTEX
  8
1
  6
DASHED
  10
56.317
  20
65.983
  30
0.000
  0
VERTEX
  8
1
  6
DASHED
  10
56.417
  20
65.183
  30
0.000
  0
VERTEX
  8
1
  6
DASHED
  10
56.533
  20
64.133
  30
0.000
  0
VERTEX
  8
1
  6
DASHED
  10
56.633
  20
62.833
  30
0.000
  0
VERTEX
  8
1
  6
DASHED
  10
56.733
  20
61.283
  30
0.000
  0
VERTEX
  8
1
  6
DASHED
  10
56.833
  20
59.500
  30
0.000
  0
VERTEX
  8
1
  6
DASHED
  10
56.933
  20
57.483
  30
0.000
  0
VERTEX
  8
1
  6
DASHED
  10
57.033
  20
55.283
  30
0.000
  0
VERTEX
  8
1
  6
DASHED
  10
57.133
  20
52.917
  30
0.000
  0
VERTEX
  8
1
  6
DASHED
  10
57.233
  20
50.450
  30
0.000
  0
VERTEX
  8
1
  6
DASHED
  10
57.333
  20
47.983
  30
0.000
  0
VERTEX
  8
1
  6
DASHED
  10
57.433
  20
45.567
  30
0.000
  0
VERTEX
  8
1
  6
DASHED
  10
57.533
  20
43.267
  30
0.000
  0
VERTEX
  8
1
  6
DASHED
  10
57.633
  20
41.167
  30
0.000
  0
VERTEX
  8
1
  6
DASHED
  10
57.733
  20
39.283
  30
0.000
  0
VERTEX
  8
1
  6
DASHED
  10
57.833
  20
37.650
  30
0.000
  0
VERTEX
  8
1
  6
DASHED
  10
57.933
  20
36.317
  30
0.000
  0
VERTEX
  8
1
  6
DASHED
  10
58.033
  20
35.233
  30
0.000
  0
VERTEX
  8
1
  6
DASHED
  10
58.133
  20
34.433
  30
0.000
  0
VERTEX
  8
1
  6
DASHED
  10
58.233
  20
33.883
  30
0.000
  0
VERTEX
  8
1
  6
DASHED
  10
58.333
  20
33.567
  30
0.000
  0
VERTEX
  8
1
  6
DASHED
  10
58.450
  20
33.483
  30
0.000
  0
VERTEX
  8
1
  6
DASHED
  10
58.550
  20
33.633
  30
0.000
  0
VERTEX
  8
1
  6
DASHED
  10
58.650
  20
34.000
  30
0.000
  0
VERTEX
  8
1
  6
DASHED
  10
58.750
  20
34.533
  30
0.000
  0
VERTEX
  8
1
  6
DASHED
  10
58.850
  20
35.217
  30
0.000
  0
VERTEX
  8
1
  6
DASHED
  10
58.950
  20
36.033
  30
0.000
  0
VERTEX
  8
1
  6
DASHED
  10
59.050
  20
36.983
  30
0.000
  0
VERTEX
  8
1
  6
DASHED
  10
59.150
  20
38.067
  30
0.000
  0
VERTEX
  8
1
  6
DASHED
  10
59.250
  20
39.267
  30
0.000
  0
VERTEX
  8
1
  6
DASHED
  10
59.350
  20
40.583
  30
0.000
  0
VERTEX
  8
1
  6
DASHED
  10
59.450
  20
42.000
  30
0.000
  0
VERTEX
  8
1
  6
DASHED
  10
59.550
  20
43.500
  30
0.000
  0
VERTEX
  8
1
  6
DASHED
  10
59.650
  20
45.050
  30
0.000
  0
VERTEX
  8
1
  6
DASHED
  10
59.750
  20
46.650
  30
0.000
  0
VERTEX
  8
1
  6
DASHED
  10
59.850
  20
48.250
  30
0.000
  0
VERTEX
  8
1
  6
DASHED
  10
59.950
  20
49.833
  30
0.000
  0
VERTEX
  8
1
  6
DASHED
  10
60.050
  20
51.333
  30
0.000
  0
VERTEX
  8
1
  6
DASHED
  10
60.150
  20
52.750
  30
0.000
  0
VERTEX
  8
1
  6
DASHED
  10
60.250
  20
54.000
  30
0.000
  0
VERTEX
  8
1
  6
DASHED
  10
60.367
  20
55.050
  30
0.000
  0
VERTEX
  8
1
  6
DASHED
  10
60.467
  20
55.817
  30
0.000
  0
VERTEX
  8
1
  6
DASHED
  10
60.567
  20
56.267
  30
0.000
  0
VERTEX
  8
1
  6
DASHED
  10
60.667
  20
56.367
  30
0.000
  0
VERTEX
  8
1
  6
DASHED
  10
60.767
  20
56.150
  30
0.000
  0
VERTEX
  8
1
  6
DASHED
  10
60.867
  20
55.667
  30
0.000
  0
VERTEX
  8
1
  6
DASHED
  10
60.967
  20
55.000
  30
0.000
  0
VERTEX
  8
1
  6
DASHED
  10
61.067
  20
54.233
  30
0.000
  0
VERTEX
  8
1
  6
DASHED
  10
61.167
  20
53.400
  30
0.000
  0
VERTEX
  8
1
  6
DASHED
  10
61.267
  20
52.500
  30
0.000
  0
VERTEX
  8
1
  6
DASHED
  10
61.367
  20
51.550
  30
0.000
  0
VERTEX
  8
1
  6
DASHED
  10
61.467
  20
50.550
  30
0.000
  0
VERTEX
  8
1
  6
DASHED
  10
61.567
  20
49.517
  30
0.000
  0
VERTEX
  8
1
  6
DASHED
  10
61.667
  20
48.450
  30
0.000
  0
VERTEX
  8
1
  6
DASHED
  10
61.767
  20
47.333
  30
0.000
  0
VERTEX
  8
1
  6
DASHED
  10
61.867
  20
46.200
  30
0.000
  0
VERTEX
  8
1
  6
DASHED
  10
61.967
  20
45.033
  30
0.000
  0
VERTEX
  8
1
  6
DASHED
  10
62.067
  20
43.850
  30
0.000
  0
VERTEX
  8
1
  6
DASHED
  10
62.167
  20
42.683
  30
0.000
  0
VERTEX
  8
1
  6
DASHED
  10
62.267
  20
41.550
  30
0.000
  0
VERTEX
  8
1
  6
DASHED
  10
62.383
  20
40.483
  30
0.000
  0
VERTEX
  8
1
  6
DASHED
  10
62.483
  20
39.550
  30
0.000
  0
VERTEX
  8
1
  6
DASHED
  10
62.583
  20
38.767
  30
0.000
  0
VERTEX
  8
1
  6
DASHED
  10
62.683
  20
38.200
  30
0.000
  0
VERTEX
  8
1
  6
DASHED
  10
62.783
  20
37.900
  30
0.000
  0
VERTEX
  8
1
  6
DASHED
  10
62.883
  20
37.867
  30
0.000
  0
VERTEX
  8
1
  6
DASHED
  10
62.983
  20
38.100
  30
0.000
  0
VERTEX
  8
1
  6
DASHED
  10
63.083
  20
38.517
  30
0.000
  0
VERTEX
  8
1
  6
DASHED
  10
63.183
  20
39.067
  30
0.000
  0
VERTEX
  8
1
  6
DASHED
  10
63.283
  20
39.633
  30
0.000
  0
VERTEX
  8
1
  6
DASHED
  10
63.383
  20
40.167
  30
0.000
  0
VERTEX
  8
1
  6
DASHED
  10
63.483
  20
40.683
  30
0.000
  0
VERTEX
  8
1
  6
DASHED
  10
63.583
  20
41.133
  30
0.000
  0
VERTEX
  8
1
  6
DASHED
  10
63.683
  20
41.517
  30
0.000
  0
VERTEX
  8
1
  6
DASHED
  10
63.783
  20
41.817
  30
0.000
  0
VERTEX
  8
1
  6
DASHED
  10
63.883
  20
42.033
  30
0.000
  0
VERTEX
  8
1
  6
DASHED
  10
63.983
  20
42.133
  30
0.000
  0
VERTEX
  8
1
  6
DASHED
  10
64.083
  20
42.117
  30
0.000
  0
VERTEX
  8
1
  6
DASHED
  10
64.183
  20
41.950
  30
0.000
  0
VERTEX
  8
1
  6
DASHED
  10
64.300
  20
41.650
  30
0.000
  0
VERTEX
  8
1
  6
DASHED
  10
64.400
  20
41.283
  30
0.000
  0
VERTEX
  8
1
  6
DASHED
  10
64.500
  20
40.917
  30
0.000
  0
VERTEX
  8
1
  6
DASHED
  10
64.600
  20
40.617
  30
0.000
  0
VERTEX
  8
1
  6
DASHED
  10
64.700
  20
40.450
  30
0.000
  0
VERTEX
  8
1
  6
DASHED
  10
64.800
  20
40.467
  30
0.000
  0
VERTEX
  8
1
  6
DASHED
  10
64.900
  20
40.700
  30
0.000
  0
VERTEX
  8
1
  6
DASHED
  10
65.000
  20
41.133
  30
0.000
  0
VERTEX
  8
1
  6
DASHED
  10
65.100
  20
41.683
  30
0.000
  0
VERTEX
  8
1
  6
DASHED
  10
65.200
  20
42.267
  30
0.000
  0
VERTEX
  8
1
  6
DASHED
  10
65.300
  20
42.850
  30
0.000
  0
VERTEX
  8
1
  6
DASHED
  10
65.400
  20
43.433
  30
0.000
  0
VERTEX
  8
1
  6
DASHED
  10
65.500
  20
43.983
  30
0.000
  0
VERTEX
  8
1
  6
DASHED
  10
65.600
  20
44.500
  30
0.000
  0
VERTEX
  8
1
  6
DASHED
  10
65.700
  20
44.950
  30
0.000
  0
VERTEX
  8
1
  6
DASHED
  10
65.800
  20
45.350
  30
0.000
  0
VERTEX
  8
1
  6
DASHED
  10
65.900
  20
45.650
  30
0.000
  0
VERTEX
  8
1
  6
DASHED
  10
66.000
  20
45.867
  30
0.000
  0
VERTEX
  8
1
  6
DASHED
  10
66.100
  20
45.950
  30
0.000
  0
VERTEX
  8
1
  6
DASHED
  10
66.217
  20
45.950
  30
0.000
  0
VERTEX
  8
1
  6
DASHED
  10
66.317
  20
45.883
  30
0.000
  0
VERTEX
  8
1
  6
DASHED
  10
66.417
  20
45.783
  30
0.000
  0
VERTEX
  8
1
  6
DASHED
  10
66.517
  20
45.700
  30
0.000
  0
VERTEX
  8
1
  6
DASHED
  10
66.617
  20
45.683
  30
0.000
  0
VERTEX
  8
1
  6
DASHED
  10
66.717
  20
45.717
  30
0.000
  0
VERTEX
  8
1
  6
DASHED
  10
66.817
  20
45.817
  30
0.000
  0
VERTEX
  8
1
  6
DASHED
  10
66.917
  20
45.967
  30
0.000
  0
VERTEX
  8
1
  6
DASHED
  10
67.017
  20
46.183
  30
0.000
  0
VERTEX
  8
1
  6
DASHED
  10
67.117
  20
46.433
  30
0.000
  0
VERTEX
  8
1
  6
DASHED
  10
67.217
  20
46.717
  30
0.000
  0
VERTEX
  8
1
  6
DASHED
  10
67.317
  20
47.033
  30
0.000
  0
VERTEX
  8
1
  6
DASHED
  10
67.417
  20
47.367
  30
0.000
  0
VERTEX
  8
1
  6
DASHED
  10
67.517
  20
47.700
  30
0.000
  0
VERTEX
  8
1
  6
DASHED
  10
67.617
  20
48.000
  30
0.000
  0
VERTEX
  8
1
  6
DASHED
  10
67.717
  20
48.217
  30
0.000
  0
VERTEX
  8
1
  6
DASHED
  10
67.817
  20
48.283
  30
0.000
  0
VERTEX
  8
1
  6
DASHED
  10
67.917
  20
48.200
  30
0.000
  0
VERTEX
  8
1
  6
DASHED
  10
68.017
  20
47.950
  30
0.000
  0
VERTEX
  8
1
  6
DASHED
  10
68.133
  20
47.583
  30
0.000
  0
VERTEX
  8
1
  6
DASHED
  10
68.233
  20
47.167
  30
0.000
  0
VERTEX
  8
1
  6
DASHED
  10
68.333
  20
46.767
  30
0.000
  0
VERTEX
  8
1
  6
DASHED
  10
68.433
  20
46.417
  30
0.000
  0
VERTEX
  8
1
  6
DASHED
  10
68.533
  20
46.133
  30
0.000
  0
VERTEX
  8
1
  6
DASHED
  10
68.633
  20
45.917
  30
0.000
  0
VERTEX
  8
1
  6
DASHED
  10
68.733
  20
45.783
  30
0.000
  0
VERTEX
  8
1
  6
DASHED
  10
68.833
  20
45.733
  30
0.000
  0
VERTEX
  8
1
  6
DASHED
  10
68.933
  20
45.817
  30
0.000
  0
VERTEX
  8
1
  6
DASHED
  10
69.033
  20
46.050
  30
0.000
  0
VERTEX
  8
1
  6
DASHED
  10
69.133
  20
46.417
  30
0.000
  0
VERTEX
  8
1
  6
DASHED
  10
69.233
  20
46.867
  30
0.000
  0
VERTEX
  8
1
  6
DASHED
  10
69.333
  20
47.350
  30
0.000
  0
VERTEX
  8
1
  6
DASHED
  10
69.433
  20
47.783
  30
0.000
  0
VERTEX
  8
1
  6
DASHED
  10
69.533
  20
48.150
  30
0.000
  0
VERTEX
  8
1
  6
DASHED
  10
69.633
  20
48.433
  30
0.000
  0
VERTEX
  8
1
  6
DASHED
  10
69.733
  20
48.617
  30
0.000
  0
VERTEX
  8
1
  6
DASHED
  10
69.833
  20
48.617
  30
0.000
  0
VERTEX
  8
1
  6
DASHED
  10
69.933
  20
48.433
  30
0.000
  0
VERTEX
  8
1
  6
DASHED
  10
70.033
  20
48.083
  30
0.000
  0
VERTEX
  8
1
  6
DASHED
  10
70.150
  20
47.633
  30
0.000
  0
VERTEX
  8
1
  6
DASHED
  10
70.250
  20
47.150
  30
0.000
  0
VERTEX
  8
1
  6
DASHED
  10
70.350
  20
46.700
  30
0.000
  0
VERTEX
  8
1
  6
DASHED
  10
70.450
  20
46.300
  30
0.000
  0
VERTEX
  8
1
  6
DASHED
  10
70.550
  20
45.933
  30
0.000
  0
VERTEX
  8
1
  6
DASHED
  10
70.650
  20
45.633
  30
0.000
  0
VERTEX
  8
1
  6
DASHED
  10
70.750
  20
45.383
  30
0.000
  0
VERTEX
  8
1
  6
DASHED
  10
70.850
  20
45.183
  30
0.000
  0
VERTEX
  8
1
  6
DASHED
  10
70.950
  20
45.050
  30
0.000
  0
VERTEX
  8
1
  6
DASHED
  10
71.050
  20
44.950
  30
0.000
  0
VERTEX
  8
1
  6
DASHED
  10
71.150
  20
44.917
  30
0.000
  0
VERTEX
  8
1
  6
DASHED
  10
71.250
  20
44.917
  30
0.000
  0
VERTEX
  8
1
  6
DASHED
  10
71.350
  20
44.933
  30
0.000
  0
VERTEX
  8
1
  6
DASHED
  10
71.450
  20
44.967
  30
0.000
  0
VERTEX
  8
1
  6
DASHED
  10
71.550
  20
45.017
  30
0.000
  0
VERTEX
  8
1
  6
DASHED
  10
71.650
  20
45.050
  30
0.000
  0
VERTEX
  8
1
  6
DASHED
  10
71.750
  20
45.067
  30
0.000
  0
VERTEX
  8
1
  6
DASHED
  10
71.850
  20
45.083
  30
0.000
  0
VERTEX
  8
1
  6
DASHED
  10
71.950
  20
45.083
  30
0.000
  0
VERTEX
  8
1
  6
DASHED
  10
72.067
  20
45.100
  30
0.000
  0
VERTEX
  8
1
  6
DASHED
  10
72.167
  20
45.117
  30
0.000
  0
VERTEX
  8
1
  6
DASHED
  10
72.267
  20
45.167
  30
0.000
  0
VERTEX
  8
1
  6
DASHED
  10
72.367
  20
45.300
  30
0.000
  0
VERTEX
  8
1
  6
DASHED
  10
72.467
  20
45.517
  30
0.000
  0
VERTEX
  8
1
  6
DASHED
  10
72.567
  20
45.817
  30
0.000
  0
VERTEX
  8
1
  6
DASHED
  10
72.667
  20
46.167
  30
0.000
  0
VERTEX
  8
1
  6
DASHED
  10
72.767
  20
46.500
  30
0.000
  0
VERTEX
  8
1
  6
DASHED
  10
72.867
  20
46.817
  30
0.000
  0
VERTEX
  8
1
  6
DASHED
  10
72.967
  20
47.083
  30
0.000
  0
VERTEX
  8
1
  6
DASHED
  10
73.067
  20
47.300
  30
0.000
  0
VERTEX
  8
1
  6
DASHED
  10
73.167
  20
47.483
  30
0.000
  0
VERTEX
  8
1
  6
DASHED
  10
73.267
  20
47.617
  30
0.000
  0
VERTEX
  8
1
  6
DASHED
  10
73.367
  20
47.683
  30
0.000
  0
VERTEX
  8
1
  6
DASHED
  10
73.467
  20
47.683
  30
0.000
  0
VERTEX
  8
1
  6
DASHED
  10
73.567
  20
47.583
  30
0.000
  0
VERTEX
  8
1
  6
DASHED
  10
73.667
  20
47.400
  30
0.000
  0
VERTEX
  8
1
  6
DASHED
  10
73.767
  20
47.117
  30
0.000
  0
VERTEX
  8
1
  6
DASHED
  10
73.867
  20
46.783
  30
0.000
  0
VERTEX
  8
1
  6
DASHED
  10
73.983
  20
46.383
  30
0.000
  0
VERTEX
  8
1
  6
DASHED
  10
74.083
  20
46.017
  30
0.000
  0
VERTEX
  8
1
  6
DASHED
  10
74.183
  20
45.667
  30
0.000
  0
VERTEX
  8
1
  6
DASHED
  10
74.283
  20
45.367
  30
0.000
  0
VERTEX
  8
1
  6
DASHED
  10
74.383
  20
45.100
  30
0.000
  0
VERTEX
  8
1
  6
DASHED
  10
74.483
  20
44.867
  30
0.000
  0
VERTEX
  8
1
  6
DASHED
  10
74.583
  20
44.667
  30
0.000
  0
VERTEX
  8
1
  6
DASHED
  10
74.683
  20
44.533
  30
0.000
  0
VERTEX
  8
1
  6
DASHED
  10
74.783
  20
44.433
  30
0.000
  0
VERTEX
  8
1
  6
DASHED
  10
74.883
  20
44.400
  30
0.000
  0
VERTEX
  8
1
  6
DASHED
  10
74.983
  20
44.433
  30
0.000
  0
VERTEX
  8
1
  6
DASHED
  10
75.083
  20
44.567
  30
0.000
  0
VERTEX
  8
1
  6
DASHED
  10
75.183
  20
44.783
  30
0.000
  0
VERTEX
  8
1
  6
DASHED
  10
75.283
  20
45.083
  30
0.000
  0
VERTEX
  8
1
  6
DASHED
  10
75.383
  20
45.450
  30
0.000
  0
VERTEX
  8
1
  6
DASHED
  10
75.483
  20
45.817
  30
0.000
  0
VERTEX
  8
1
  6
DASHED
  10
75.583
  20
46.183
  30
0.000
  0
VERTEX
  8
1
  6
DASHED
  10
75.683
  20
46.517
  30
0.000
  0
VERTEX
  8
1
  6
DASHED
  10
75.783
  20
46.833
  30
0.000
  0
VERTEX
  8
1
  6
DASHED
  10
75.900
  20
47.117
  30
0.000
  0
VERTEX
  8
1
  6
DASHED
  10
76.000
  20
47.383
  30
0.000
  0
VERTEX
  8
1
  6
DASHED
  10
76.100
  20
47.650
  30
0.000
  0
VERTEX
  8
1
  6
DASHED
  10
76.200
  20
47.900
  30
0.000
  0
VERTEX
  8
1
  6
DASHED
  10
76.300
  20
48.133
  30
0.000
  0
VERTEX
  8
1
  6
DASHED
  10
76.400
  20
48.350
  30
0.000
  0
VERTEX
  8
1
  6
DASHED
  10
76.500
  20
48.533
  30
0.000
  0
VERTEX
  8
1
  6
DASHED
  10
76.600
  20
48.717
  30
0.000
  0
VERTEX
  8
1
  6
DASHED
  10
76.700
  20
48.850
  30
0.000
  0
VERTEX
  8
1
  6
DASHED
  10
76.800
  20
48.917
  30
0.000
  0
VERTEX
  8
1
  6
DASHED
  10
76.900
  20
48.933
  30
0.000
  0
VERTEX
  8
1
  6
DASHED
  10
77.000
  20
48.850
  30
0.000
  0
VERTEX
  8
1
  6
DASHED
  10
77.100
  20
48.650
  30
0.000
  0
VERTEX
  8
1
  6
DASHED
  10
77.200
  20
48.367
  30
0.000
  0
VERTEX
  8
1
  6
DASHED
  10
77.300
  20
47.983
  30
0.000
  0
VERTEX
  8
1
  6
DASHED
  10
77.400
  20
47.600
  30
0.000
  0
VERTEX
  8
1
  6
DASHED
  10
77.500
  20
47.250
  30
0.000
  0
VERTEX
  8
1
  6
DASHED
  10
77.600
  20
46.983
  30
0.000
  0
VERTEX
  8
1
  6
DASHED
  10
77.700
  20
46.767
  30
0.000
  0
VERTEX
  8
1
  6
DASHED
  10
77.817
  20
46.650
  30
0.000
  0
VERTEX
  8
1
  6
DASHED
  10
77.917
  20
46.617
  30
0.000
  0
VERTEX
  8
1
  6
DASHED
  10
78.017
  20
46.717
  30
0.000
  0
VERTEX
  8
1
  6
DASHED
  10
78.117
  20
46.900
  30
0.000
  0
VERTEX
  8
1
  6
DASHED
  10
78.217
  20
47.167
  30
0.000
  0
VERTEX
  8
1
  6
DASHED
  10
78.317
  20
47.483
  30
0.000
  0
VERTEX
  8
1
  6
DASHED
  10
78.417
  20
47.800
  30
0.000
  0
VERTEX
  8
1
  6
DASHED
  10
78.517
  20
48.067
  30
0.000
  0
VERTEX
  8
1
  6
DASHED
  10
78.617
  20
48.250
  30
0.000
  0
VERTEX
  8
1
  6
DASHED
  10
78.717
  20
48.333
  30
0.000
  0
VERTEX
  8
1
  6
DASHED
  10
78.817
  20
48.300
  30
0.000
  0
VERTEX
  8
1
  6
DASHED
  10
78.917
  20
48.150
  30
0.000
  0
VERTEX
  8
1
  6
DASHED
  10
79.017
  20
47.900
  30
0.000
  0
VERTEX
  8
1
  6
DASHED
  10
79.117
  20
47.567
  30
0.000
  0
VERTEX
  8
1
  6
DASHED
  10
79.217
  20
47.200
  30
0.000
  0
VERTEX
  8
1
  6
DASHED
  10
79.317
  20
46.850
  30
0.000
  0
VERTEX
  8
1
  6
DASHED
  10
79.417
  20
46.583
  30
0.000
  0
VERTEX
  8
1
  6
DASHED
  10
79.517
  20
46.383
  30
0.000
  0
VERTEX
  8
1
  6
DASHED
  10
79.617
  20
46.250
  30
0.000
  0
VERTEX
  8
1
  6
DASHED
  10
79.717
  20
46.233
  30
0.000
  0
VERTEX
  8
1
  6
DASHED
  10
79.833
  20
46.317
  30
0.000
  0
VERTEX
  8
1
  6
DASHED
  10
79.933
  20
46.533
  30
0.000
  0
VERTEX
  8
1
  6
DASHED
  10
80.033
  20
46.833
  30
0.000
  0
VERTEX
  8
1
  6
DASHED
  10
80.133
  20
47.217
  30
0.000
  0
VERTEX
  8
1
  6
DASHED
  10
80.233
  20
47.633
  30
0.000
  0
VERTEX
  8
1
  6
DASHED
  10
80.333
  20
48.017
  30
0.000
  0
VERTEX
  8
1
  6
DASHED
  10
80.433
  20
48.367
  30
0.000
  0
VERTEX
  8
1
  6
DASHED
  10
80.533
  20
48.683
  30
0.000
  0
VERTEX
  8
1
  6
DASHED
  10
80.633
  20
48.933
  30
0.000
  0
VERTEX
  8
1
  6
DASHED
  10
80.733
  20
49.133
  30
0.000
  0
VERTEX
  8
1
  6
DASHED
  10
80.833
  20
49.267
  30
0.000
  0
VERTEX
  8
1
  6
DASHED
  10
80.933
  20
49.317
  30
0.000
  0
VERTEX
  8
1
  6
DASHED
  10
81.033
  20
49.267
  30
0.000
  0
VERTEX
  8
1
  6
DASHED
  10
81.133
  20
49.133
  30
0.000
  0
VERTEX
  8
1
  6
DASHED
  10
81.233
  20
48.900
  30
0.000
  0
VERTEX
  8
1
  6
DASHED
  10
81.333
  20
48.617
  30
0.000
  0
VERTEX
  8
1
  6
DASHED
  10
81.433
  20
48.267
  30
0.000
  0
VERTEX
  8
1
  6
DASHED
  10
81.533
  20
47.933
  30
0.000
  0
VERTEX
  8
1
  6
DASHED
  10
81.633
  20
47.617
  30
0.000
  0
VERTEX
  8
1
  6
DASHED
  10
81.750
  20
47.367
  30
0.000
  0
VERTEX
  8
1
  6
DASHED
  10
81.850
  20
47.150
  30
0.000
  0
VERTEX
  8
1
  6
DASHED
  10
81.950
  20
46.983
  30
0.000
  0
VERTEX
  8
1
  6
DASHED
  10
82.050
  20
46.867
  30
0.000
  0
VERTEX
  8
1
  6
DASHED
  10
82.150
  20
46.817
  30
0.000
  0
VERTEX
  8
1
  6
DASHED
  10
82.250
  20
46.817
  30
0.000
  0
VERTEX
  8
1
  6
DASHED
  10
82.350
  20
46.867
  30
0.000
  0
VERTEX
  8
1
  6
DASHED
  10
82.450
  20
47.000
  30
0.000
  0
VERTEX
  8
1
  6
DASHED
  10
82.550
  20
47.200
  30
0.000
  0
VERTEX
  8
1
  6
DASHED
  10
82.650
  20
47.433
  30
0.000
  0
VERTEX
  8
1
  6
DASHED
  10
82.750
  20
47.700
  30
0.000
  0
VERTEX
  8
1
  6
DASHED
  10
82.850
  20
47.950
  30
0.000
  0
VERTEX
  8
1
  6
DASHED
  10
82.950
  20
48.117
  30
0.000
  0
VERTEX
  8
1
  6
DASHED
  10
83.050
  20
48.183
  30
0.000
  0
VERTEX
  8
1
  6
DASHED
  10
83.150
  20
48.133
  30
0.000
  0
VERTEX
  8
1
  6
DASHED
  10
83.250
  20
47.950
  30
0.000
  0
VERTEX
  8
1
  6
DASHED
  10
83.350
  20
47.650
  30
0.000
  0
VERTEX
  8
1
  6
DASHED
  10
83.450
  20
47.283
  30
0.000
  0
VERTEX
  8
1
  6
DASHED
  10
83.550
  20
46.900
  30
0.000
  0
VERTEX
  8
1
  6
DASHED
  10
83.667
  20
46.567
  30
0.000
  0
VERTEX
  8
1
  6
DASHED
  10
83.767
  20
46.283
  30
0.000
  0
VERTEX
  8
1
  6
DASHED
  10
83.867
  20
46.083
  30
0.000
  0
VERTEX
  8
1
  6
DASHED
  10
83.967
  20
45.933
  30
0.000
  0
VERTEX
  8
1
  6
DASHED
  10
84.067
  20
45.850
  30
0.000
  0
VERTEX
  8
1
  6
DASHED
  10
84.167
  20
45.867
  30
0.000
  0
VERTEX
  8
1
  6
DASHED
  10
84.267
  20
45.967
  30
0.000
  0
VERTEX
  8
1
  6
DASHED
  10
84.367
  20
46.183
  30
0.000
  0
VERTEX
  8
1
  6
DASHED
  10
84.467
  20
46.467
  30
0.000
  0
VERTEX
  8
1
  6
DASHED
  10
84.567
  20
46.833
  30
0.000
  0
VERTEX
  8
1
  6
DASHED
  10
84.667
  20
47.217
  30
0.000
  0
VERTEX
  8
1
  6
DASHED
  10
84.767
  20
47.583
  30
0.000
  0
VERTEX
  8
1
  6
DASHED
  10
84.867
  20
47.900
  30
0.000
  0
VERTEX
  8
1
  6
DASHED
  10
84.967
  20
48.183
  30
0.000
  0
VERTEX
  8
1
  6
DASHED
  10
85.067
  20
48.400
  30
0.000
  0
VERTEX
  8
1
  6
DASHED
  10
85.167
  20
48.600
  30
0.000
  0
VERTEX
  8
1
  6
DASHED
  10
85.267
  20
48.733
  30
0.000
  0
VERTEX
  8
1
  6
DASHED
  10
85.367
  20
48.833
  30
0.000
  0
VERTEX
  8
1
  6
DASHED
  10
85.467
  20
48.917
  30
0.000
  0
VERTEX
  8
1
  6
DASHED
  10
85.583
  20
48.950
  30
0.000
  0
VERTEX
  8
1
  6
DASHED
  10
85.683
  20
48.967
  30
0.000
  0
VERTEX
  8
1
  6
DASHED
  10
85.783
  20
48.967
  30
0.000
  0
VERTEX
  8
1
  6
DASHED
  10
85.883
  20
48.967
  30
0.000
  0
VERTEX
  8
1
  6
DASHED
  10
85.983
  20
48.950
  30
0.000
  0
VERTEX
  8
1
  6
DASHED
  10
86.083
  20
48.933
  30
0.000
  0
VERTEX
  8
1
  6
DASHED
  10
86.183
  20
48.900
  30
0.000
  0
VERTEX
  8
1
  6
DASHED
  10
86.283
  20
48.883
  30
0.000
  0
VERTEX
  8
1
  6
DASHED
  10
86.383
  20
48.833
  30
0.000
  0
VERTEX
  8
1
  6
DASHED
  10
86.483
  20
48.767
  30
0.000
  0
VERTEX
  8
1
  6
DASHED
  10
86.583
  20
48.617
  30
0.000
  0
VERTEX
  8
1
  6
DASHED
  10
86.683
  20
48.383
  30
0.000
  0
VERTEX
  8
1
  6
DASHED
  10
86.783
  20
48.050
  30
0.000
  0
VERTEX
  8
1
  6
DASHED
  10
86.883
  20
47.650
  30
0.000
  0
VERTEX
  8
1
  6
DASHED
  10
86.983
  20
47.233
  30
0.000
  0
VERTEX
  8
1
  6
DASHED
  10
87.083
  20
46.817
  30
0.000
  0
VERTEX
  8
1
  6
DASHED
  10
87.183
  20
46.367
  30
0.000
  0
VERTEX
  8
1
  6
DASHED
  10
87.283
  20
45.900
  30
0.000
  0
VERTEX
  8
1
  6
DASHED
  10
87.383
  20
45.400
  30
0.000
  0
VERTEX
  8
1
  6
DASHED
  10
87.483
  20
44.883
  30
0.000
  0
VERTEX
  8
1
  6
DASHED
  10
87.600
  20
44.350
  30
0.000
  0
VERTEX
  8
1
  6
DASHED
  10
87.700
  20
43.817
  30
0.000
  0
VERTEX
  8
1
  6
DASHED
  10
87.800
  20
43.267
  30
0.000
  0
VERTEX
  8
1
  6
DASHED
  10
87.900
  20
42.733
  30
0.000
  0
VERTEX
  8
1
  6
DASHED
  10
88.000
  20
42.217
  30
0.000
  0
VERTEX
  8
1
  6
DASHED
  10
88.100
  20
41.750
  30
0.000
  0
VERTEX
  8
1
  6
DASHED
  10
88.200
  20
41.317
  30
0.000
  0
VERTEX
  8
1
  6
DASHED
  10
88.300
  20
40.950
  30
0.000
  0
VERTEX
  8
1
  6
DASHED
  10
88.400
  20
40.650
  30
0.000
  0
VERTEX
  8
1
  6
DASHED
  10
88.500
  20
40.450
  30
0.000
  0
VERTEX
  8
1
  6
DASHED
  10
88.600
  20
40.350
  30
0.000
  0
VERTEX
  8
1
  6
DASHED
  10
88.700
  20
40.400
  30
0.000
  0
VERTEX
  8
1
  6
DASHED
  10
88.800
  20
40.583
  30
0.000
  0
VERTEX
  8
1
  6
DASHED
  10
88.900
  20
40.900
  30
0.000
  0
VERTEX
  8
1
  6
DASHED
  10
89.000
  20
41.300
  30
0.000
  0
VERTEX
  8
1
  6
DASHED
  10
89.100
  20
41.717
  30
0.000
  0
VERTEX
  8
1
  6
DASHED
  10
89.200
  20
42.117
  30
0.000
  0
VERTEX
  8
1
  6
DASHED
  10
89.300
  20
42.483
  30
0.000
  0
VERTEX
  8
1
  6
DASHED
  10
89.400
  20
42.817
  30
0.000
  0
VERTEX
  8
1
  6
DASHED
  10
89.517
  20
43.117
  30
0.000
  0
VERTEX
  8
1
  6
DASHED
  10
89.617
  20
43.400
  30
0.000
  0
VERTEX
  8
1
  6
DASHED
  10
89.717
  20
43.650
  30
0.000
  0
VERTEX
  8
1
  6
DASHED
  10
89.817
  20
43.867
  30
0.000
  0
VERTEX
  8
1
  6
DASHED
  10
89.917
  20
44.083
  30
0.000
  0
VERTEX
  8
1
  6
DASHED
  10
90.017
  20
44.250
  30
0.000
  0
VERTEX
  8
1
  6
DASHED
  10
90.117
  20
44.367
  30
0.000
  0
VERTEX
  8
1
  6
DASHED
  10
90.217
  20
44.450
  30
0.000
  0
VERTEX
  8
1
  6
DASHED
  10
90.317
  20
44.467
  30
0.000
  0
VERTEX
  8
1
  6
DASHED
  10
90.417
  20
44.400
  30
0.000
  0
VERTEX
  8
1
  6
DASHED
  10
90.517
  20
44.250
  30
0.000
  0
VERTEX
  8
1
  6
DASHED
  10
90.617
  20
44.033
  30
0.000
  0
VERTEX
  8
1
  6
DASHED
  10
90.717
  20
43.767
  30
0.000
  0
VERTEX
  8
1
  6
DASHED
  10
90.817
  20
43.517
  30
0.000
  0
VERTEX
  8
1
  6
DASHED
  10
90.917
  20
43.300
  30
0.000
  0
VERTEX
  8
1
  6
DASHED
  10
91.017
  20
43.183
  30
0.000
  0
VERTEX
  8
1
  6
DASHED
  10
91.117
  20
43.200
  30
0.000
  0
VERTEX
  8
1
  6
DASHED
  10
91.217
  20
43.367
  30
0.000
  0
VERTEX
  8
1
  6
DASHED
  10
91.317
  20
43.650
  30
0.000
  0
VERTEX
  8
1
  6
DASHED
  10
91.433
  20
44.033
  30
0.000
  0
VERTEX
  8
1
  6
DASHED
  10
91.533
  20
44.433
  30
0.000
  0
VERTEX
  8
1
  6
DASHED
  10
91.633
  20
44.800
  30
0.000
  0
VERTEX
  8
1
  6
DASHED
  10
91.733
  20
45.133
  30
0.000
  0
VERTEX
  8
1
  6
DASHED
  10
91.833
  20
45.417
  30
0.000
  0
VERTEX
  8
1
  6
DASHED
  10
91.933
  20
45.650
  30
0.000
  0
VERTEX
  8
1
  6
DASHED
  10
92.033
  20
45.833
  30
0.000
  0
VERTEX
  8
1
  6
DASHED
  10
92.133
  20
45.967
  30
0.000
  0
VERTEX
  8
1
  6
DASHED
  10
92.233
  20
46.000
  30
0.000
  0
VERTEX
  8
1
  6
DASHED
  10
92.333
  20
45.950
  30
0.000
  0
VERTEX
  8
1
  6
DASHED
  10
92.433
  20
45.800
  30
0.000
  0
VERTEX
  8
1
  6
DASHED
  10
92.533
  20
45.550
  30
0.000
  0
VERTEX
  8
1
  6
DASHED
  10
92.633
  20
45.233
  30
0.000
  0
VERTEX
  8
1
  6
DASHED
  10
92.733
  20
44.900
  30
0.000
  0
VERTEX
  8
1
  6
DASHED
  10
92.833
  20
44.550
  30
0.000
  0
VERTEX
  8
1
  6
DASHED
  10
92.933
  20
44.250
  30
0.000
  0
VERTEX
  8
1
  6
DASHED
  10
93.033
  20
43.983
  30
0.000
  0
VERTEX
  8
1
  6
DASHED
  10
93.133
  20
43.783
  30
0.000
  0
VERTEX
  8
1
  6
DASHED
  10
93.233
  20
43.633
  30
0.000
  0
VERTEX
  8
1
  6
DASHED
  10
93.350
  20
43.533
  30
0.000
  0
VERTEX
  8
1
  6
DASHED
  10
93.450
  20
43.483
  30
0.000
  0
VERTEX
  8
1
  6
DASHED
  10
93.550
  20
43.500
  30
0.000
  0
VERTEX
  8
1
  6
DASHED
  10
93.650
  20
43.583
  30
0.000
  0
VERTEX
  8
1
  6
DASHED
  10
93.750
  20
43.750
  30
0.000
  0
VERTEX
  8
1
  6
DASHED
  10
93.850
  20
43.983
  30
0.000
  0
VERTEX
  8
1
  6
DASHED
  10
93.950
  20
44.300
  30
0.000
  0
VERTEX
  8
1
  6
DASHED
  10
94.050
  20
44.667
  30
0.000
  0
VERTEX
  8
1
  6
DASHED
  10
94.150
  20
45.033
  30
0.000
  0
VERTEX
  8
1
  6
DASHED
  10
94.250
  20
45.400
  30
0.000
  0
VERTEX
  8
1
  6
DASHED
  10
94.350
  20
45.733
  30
0.000
  0
VERTEX
  8
1
  6
DASHED
  10
94.450
  20
46.033
  30
0.000
  0
VERTEX
  8
1
  6
DASHED
  10
94.550
  20
46.333
  30
0.000
  0
VERTEX
  8
1
  6
DASHED
  10
94.650
  20
46.600
  30
0.000
  0
VERTEX
  8
1
  6
DASHED
  10
94.750
  20
46.850
  30
0.000
  0
VERTEX
  8
1
  6
DASHED
  10
94.850
  20
47.083
  30
0.000
  0
VERTEX
  8
1
  6
DASHED
  10
94.950
  20
47.300
  30
0.000
  0
VERTEX
  8
1
  6
DASHED
  10
95.050
  20
47.483
  30
0.000
  0
VERTEX
  8
1
  6
DASHED
  10
95.150
  20
47.667
  30
0.000
  0
VERTEX
  8
1
  6
DASHED
  10
95.250
  20
47.817
  30
0.000
  0
VERTEX
  8
1
  6
DASHED
  10
95.367
  20
47.950
  30
0.000
  0
VERTEX
  8
1
  6
DASHED
  10
95.467
  20
48.067
  30
0.000
  0
VERTEX
  8
1
  6
DASHED
  10
95.567
  20
48.150
  30
0.000
  0
VERTEX
  8
1
  6
DASHED
  10
95.667
  20
48.200
  30
0.000
  0
VERTEX
  8
1
  6
DASHED
  10
95.767
  20
48.200
  30
0.000
  0
VERTEX
  8
1
  6
DASHED
  10
95.867
  20
48.150
  30
0.000
  0
VERTEX
  8
1
  6
DASHED
  10
95.967
  20
48.050
  30
0.000
  0
VERTEX
  8
1
  6
DASHED
  10
96.067
  20
47.883
  30
0.000
  0
VERTEX
  8
1
  6
DASHED
  10
96.167
  20
47.683
  30
0.000
  0
VERTEX
  8
1
  6
DASHED
  10
96.267
  20
47.467
  30
0.000
  0
VERTEX
  8
1
  6
DASHED
  10
96.367
  20
47.250
  30
0.000
  0
VERTEX
  8
1
  6
DASHED
  10
96.467
  20
47.050
  30
0.000
  0
VERTEX
  8
1
  6
DASHED
  10
96.567
  20
46.883
  30
0.000
  0
VERTEX
  8
1
  6
DASHED
  10
96.667
  20
46.783
  30
0.000
  0
VERTEX
  8
1
  6
DASHED
  10
96.767
  20
46.733
  30
0.000
  0
VERTEX
  8
1
  6
DASHED
  10
96.867
  20
46.733
  30
0.000
  0
VERTEX
  8
1
  6
DASHED
  10
96.967
  20
46.767
  30
0.000
  0
VERTEX
  8
1
  6
DASHED
  10
97.067
  20
46.817
  30
0.000
  0
VERTEX
  8
1
  6
DASHED
  10
97.167
  20
46.900
  30
0.000
  0
VERTEX
  8
1
  6
DASHED
  10
97.283
  20
46.967
  30
0.000
  0
VERTEX
  8
1
  6
DASHED
  10
97.383
  20
47.017
  30
0.000
  0
VERTEX
  8
1
  6
DASHED
  10
97.483
  20
47.067
  30
0.000
  0
VERTEX
  8
1
  6
DASHED
  10
97.583
  20
47.083
  30
0.000
  0
VERTEX
  8
1
  6
DASHED
  10
97.683
  20
47.100
  30
0.000
  0
VERTEX
  8
1
  6
DASHED
  10
97.783
  20
47.100
  30
0.000
  0
VERTEX
  8
1
  6
DASHED
  10
97.883
  20
47.100
  30
0.000
  0
VERTEX
  8
1
  6
DASHED
  10
97.983
  20
47.133
  30
0.000
  0
VERTEX
  8
1
  6
DASHED
  10
98.083
  20
47.200
  30
0.000
  0
VERTEX
  8
1
  6
DASHED
  10
98.183
  20
47.300
  30
0.000
  0
VERTEX
  8
1
  6
DASHED
  10
98.283
  20
47.450
  30
0.000
  0
VERTEX
  8
1
  6
DASHED
  10
98.383
  20
47.633
  30
0.000
  0
VERTEX
  8
1
  6
DASHED
  10
98.483
  20
47.833
  30
0.000
  0
VERTEX
  8
1
  6
DASHED
  10
98.583
  20
48.017
  30
0.000
  0
VERTEX
  8
1
  6
DASHED
  10
98.683
  20
48.183
  30
0.000
  0
VERTEX
  8
1
  6
DASHED
  10
98.783
  20
48.317
  30
0.000
  0
VERTEX
  8
1
  6
DASHED
  10
98.883
  20
48.400
  30
0.000
  0
VERTEX
  8
1
  6
DASHED
  10
98.983
  20
48.433
  30
0.000
  0
VERTEX
  8
1
  6
DASHED
  10
99.083
  20
48.433
  30
0.000
  0
VERTEX
  8
1
  6
DASHED
  10
99.200
  20
48.383
  30
0.000
  0
VERTEX
  8
1
  6
DASHED
  10
99.300
  20
48.300
  30
0.000
  0
VERTEX
  8
1
  6
DASHED
  10
99.400
  20
48.167
  30
0.000
  0
VERTEX
  8
1
  6
DASHED
  10
99.500
  20
48.000
  30
0.000
  0
VERTEX
  8
1
  6
DASHED
  10
99.600
  20
47.817
  30
0.000
  0
VERTEX
  8
1
  6
DASHED
  10
99.700
  20
47.650
  30
0.000
  0
VERTEX
  8
1
  6
DASHED
  10
99.800
  20
47.483
  30
0.000
  0
VERTEX
  8
1
  6
DASHED
  10
99.900
  20
47.367
  30
0.000
  0
VERTEX
  8
1
  6
DASHED
  10
100.000
  20
47.267
  30
0.000
  0
VERTEX
  8
1
  6
DASHED
  10
100.100
  20
47.233
  30
0.000
  0
VERTEX
  8
1
  6
DASHED
  10
100.200
  20
47.233
  30
0.000
  0
VERTEX
  8
1
  6
DASHED
  10
100.300
  20
47.267
  30
0.000
  0
VERTEX
  8
1
  6
DASHED
  10
100.400
  20
47.317
  30
0.000
  0
VERTEX
  8
1
  6
DASHED
  10
100.500
  20
47.367
  30
0.000
  0
VERTEX
  8
1
  6
DASHED
  10
100.600
  20
47.400
  30
0.000
  0
VERTEX
  8
1
  6
DASHED
  10
100.700
  20
47.400
  30
0.000
  0
VERTEX
  8
1
  6
DASHED
  10
100.800
  20
47.383
  30
0.000
  0
VERTEX
  8
1
  6
DASHED
  10
100.900
  20
47.333
  30
0.000
  0
VERTEX
  8
1
  6
DASHED
  10
101.000
  20
47.300
  30
0.000
  0
VERTEX
  8
1
  6
DASHED
  10
101.117
  20
47.283
  30
0.000
  0
VERTEX
  8
1
  6
DASHED
  10
101.217
  20
47.317
  30
0.000
  0
VERTEX
  8
1
  6
DASHED
  10
101.317
  20
47.417
  30
0.000
  0
VERTEX
  8
1
  6
DASHED
  10
101.417
  20
47.600
  30
0.000
  0
VERTEX
  8
1
  6
DASHED
  10
101.517
  20
47.817
  30
0.000
  0
VERTEX
  8
1
  6
DASHED
  10
101.617
  20
48.067
  30
0.000
  0
VERTEX
  8
1
  6
DASHED
  10
101.717
  20
48.317
  30
0.000
  0
VERTEX
  8
1
  6
DASHED
  10
101.817
  20
48.517
  30
0.000
  0
VERTEX
  8
1
  6
DASHED
  10
101.917
  20
48.617
  30
0.000
  0
VERTEX
  8
1
  6
DASHED
  10
102.017
  20
48.600
  30
0.000
  0
VERTEX
  8
1
  6
DASHED
  10
102.117
  20
48.417
  30
0.000
  0
VERTEX
  8
1
  6
DASHED
  10
102.217
  20
48.083
  30
0.000
  0
VERTEX
  8
1
  6
DASHED
  10
102.317
  20
47.633
  30
0.000
  0
VERTEX
  8
1
  6
DASHED
  10
102.417
  20
47.133
  30
0.000
  0
VERTEX
  8
1
  6
DASHED
  10
102.517
  20
46.650
  30
0.000
  0
VERTEX
  8
1
  6
DASHED
  10
102.617
  20
46.167
  30
0.000
  0
VERTEX
  8
1
  6
DASHED
  10
102.717
  20
45.700
  30
0.000
  0
VERTEX
  8
1
  6
DASHED
  10
102.817
  20
45.250
  30
0.000
  0
VERTEX
  8
1
  6
DASHED
  10
102.917
  20
44.833
  30
0.000
  0
VERTEX
  8
1
  6
DASHED
  10
103.033
  20
44.450
  30
0.000
  0
VERTEX
  8
1
  6
DASHED
  10
103.133
  20
44.117
  30
0.000
  0
VERTEX
  8
1
  6
DASHED
  10
103.233
  20
43.867
  30
0.000
  0
VERTEX
  8
1
  6
DASHED
  10
103.333
  20
43.683
  30
0.000
  0
VERTEX
  8
1
  6
DASHED
  10
103.433
  20
43.633
  30
0.000
  0
VERTEX
  8
1
  6
DASHED
  10
103.533
  20
43.733
  30
0.000
  0
VERTEX
  8
1
  6
DASHED
  10
103.633
  20
43.983
  30
0.000
  0
VERTEX
  8
1
  6
DASHED
  10
103.733
  20
44.367
  30
0.000
  0
VERTEX
  8
1
  6
DASHED
  10
103.833
  20
44.800
  30
0.000
  0
VERTEX
  8
1
  6
DASHED
  10
103.933
  20
45.233
  30
0.000
  0
VERTEX
  8
1
  6
DASHED
  10
104.033
  20
45.617
  30
0.000
  0
VERTEX
  8
1
  6
DASHED
  10
104.133
  20
45.933
  30
0.000
  0
VERTEX
  8
1
  6
DASHED
  10
104.233
  20
46.183
  30
0.000
  0
VERTEX
  8
1
  6
DASHED
  10
104.333
  20
46.367
  30
0.000
  0
VERTEX
  8
1
  6
DASHED
  10
104.433
  20
46.467
  30
0.000
  0
VERTEX
  8
1
  6
DASHED
  10
104.533
  20
46.483
  30
0.000
  0
VERTEX
  8
1
  6
DASHED
  10
104.633
  20
46.417
  30
0.000
  0
VERTEX
  8
1
  6
DASHED
  10
104.733
  20
46.300
  30
0.000
  0
VERTEX
  8
1
  6
DASHED
  10
104.833
  20
46.167
  30
0.000
  0
VERTEX
  8
1
  6
DASHED
  10
104.933
  20
46.050
  30
0.000
  0
VERTEX
  8
1
  6
DASHED
  10
105.050
  20
45.983
  30
0.000
  0
VERTEX
  8
1
  6
DASHED
  10
105.150
  20
45.983
  30
0.000
  0
VERTEX
  8
1
  6
DASHED
  10
105.250
  20
46.033
  30
0.000
  0
VERTEX
  8
1
  6
DASHED
  10
105.350
  20
46.133
  30
0.000
  0
VERTEX
  8
1
  6
DASHED
  10
105.450
  20
46.267
  30
0.000
  0
VERTEX
  8
1
  6
DASHED
  10
105.550
  20
46.400
  30
0.000
  0
VERTEX
  8
1
  6
DASHED
  10
105.650
  20
46.533
  30
0.000
  0
VERTEX
  8
1
  6
DASHED
  10
105.750
  20
46.633
  30
0.000
  0
VERTEX
  8
1
  6
DASHED
  10
105.850
  20
46.700
  30
0.000
  0
VERTEX
  8
1
  6
DASHED
  10
105.950
  20
46.717
  30
0.000
  0
VERTEX
  8
1
  6
DASHED
  10
106.050
  20
46.683
  30
0.000
  0
VERTEX
  8
1
  6
DASHED
  10
106.150
  20
46.583
  30
0.000
  0
VERTEX
  8
1
  6
DASHED
  10
106.250
  20
46.417
  30
0.000
  0
VERTEX
  8
1
  6
DASHED
  10
106.350
  20
46.200
  30
0.000
  0
VERTEX
  8
1
  6
DASHED
  10
106.450
  20
45.967
  30
0.000
  0
VERTEX
  8
1
  6
DASHED
  10
106.550
  20
45.717
  30
0.000
  0
VERTEX
  8
1
  6
DASHED
  10
106.650
  20
45.500
  30
0.000
  0
VERTEX
  8
1
  6
DASHED
  10
106.750
  20
45.350
  30
0.000
  0
VERTEX
  8
1
  6
DASHED
  10
106.850
  20
45.267
  30
0.000
  0
VERTEX
  8
1
  6
DASHED
  10
106.967
  20
45.250
  30
0.000
  0
VERTEX
  8
1
  6
DASHED
  10
107.067
  20
45.300
  30
0.000
  0
VERTEX
  8
1
  6
DASHED
  10
107.167
  20
45.400
  30
0.000
  0
VERTEX
  8
1
  6
DASHED
  10
107.267
  20
45.517
  30
0.000
  0
VERTEX
  8
1
  6
DASHED
  10
107.367
  20
45.617
  30
0.000
  0
VERTEX
  8
1
  6
DASHED
  10
107.467
  20
45.700
  30
0.000
  0
VERTEX
  8
1
  6
DASHED
  10
107.567
  20
45.750
  30
0.000
  0
VERTEX
  8
1
  6
DASHED
  10
107.667
  20
45.767
  30
0.000
  0
VERTEX
  8
1
  6
DASHED
  10
107.767
  20
45.783
  30
0.000
  0
VERTEX
  8
1
  6
DASHED
  10
107.867
  20
45.800
  30
0.000
  0
VERTEX
  8
1
  6
DASHED
  10
107.967
  20
45.850
  30
0.000
  0
VERTEX
  8
1
  6
DASHED
  10
108.067
  20
45.933
  30
0.000
  0
VERTEX
  8
1
  6
DASHED
  10
108.167
  20
46.100
  30
0.000
  0
VERTEX
  8
1
  6
DASHED
  10
108.267
  20
46.300
  30
0.000
  0
VERTEX
  8
1
  6
DASHED
  10
108.367
  20
46.533
  30
0.000
  0
VERTEX
  8
1
  6
DASHED
  10
108.467
  20
46.750
  30
0.000
  0
VERTEX
  8
1
  6
DASHED
  10
108.567
  20
46.933
  30
0.000
  0
VERTEX
  8
1
  6
DASHED
  10
108.667
  20
47.067
  30
0.000
  0
VERTEX
  8
1
  6
DASHED
  10
108.767
  20
47.133
  30
0.000
  0
VERTEX
  8
1
  6
DASHED
  10
108.883
  20
47.133
  30
0.000
  0
VERTEX
  8
1
  6
DASHED
  10
108.983
  20
47.033
  30
0.000
  0
VERTEX
  8
1
  6
DASHED
  10
109.083
  20
46.883
  30
0.000
  0
VERTEX
  8
1
  6
DASHED
  10
109.183
  20
46.650
  30
0.000
  0
VERTEX
  8
1
  6
DASHED
  10
109.283
  20
46.400
  30
0.000
  0
VERTEX
  8
1
  6
DASHED
  10
109.383
  20
46.150
  30
0.000
  0
VERTEX
  8
1
  6
DASHED
  10
109.483
  20
45.917
  30
0.000
  0
VERTEX
  8
1
  6
DASHED
  10
109.583
  20
45.733
  30
0.000
  0
VERTEX
  8
1
  6
DASHED
  10
109.683
  20
45.600
  30
0.000
  0
VERTEX
  8
1
  6
DASHED
  10
109.783
  20
45.517
  30
0.000
  0
VERTEX
  8
1
  6
DASHED
  10
109.883
  20
45.483
  30
0.000
  0
VERTEX
  8
1
  6
DASHED
  10
109.983
  20
45.483
  30
0.000
  0
VERTEX
  8
1
  6
DASHED
  10
110.083
  20
45.517
  30
0.000
  0
VERTEX
  8
1
  6
DASHED
  10
110.183
  20
45.583
  30
0.000
  0
VERTEX
  8
1
  6
DASHED
  10
110.283
  20
45.683
  30
0.000
  0
VERTEX
  8
1
  6
DASHED
  10
110.383
  20
45.800
  30
0.000
  0
VERTEX
  8
1
  6
DASHED
  10
110.483
  20
45.950
  30
0.000
  0
VERTEX
  8
1
  6
DASHED
  10
110.583
  20
46.117
  30
0.000
  0
VERTEX
  8
1
  6
DASHED
  10
110.683
  20
46.300
  30
0.000
  0
VERTEX
  8
1
  6
DASHED
  10
110.800
  20
46.483
  30
0.000
  0
VERTEX
  8
1
  6
DASHED
  10
110.900
  20
46.683
  30
0.000
  0
VERTEX
  8
1
  6
DASHED
  10
111.000
  20
46.850
  30
0.000
  0
VERTEX
  8
1
  6
DASHED
  10
111.100
  20
47.000
  30
0.000
  0
VERTEX
  8
1
  6
DASHED
  10
111.200
  20
47.133
  30
0.000
  0
VERTEX
  8
1
  6
DASHED
  10
111.300
  20
47.200
  30
0.000
  0
VERTEX
  8
1
  6
DASHED
  10
111.400
  20
47.250
  30
0.000
  0
VERTEX
  8
1
  6
DASHED
  10
111.500
  20
47.250
  30
0.000
  0
VERTEX
  8
1
  6
DASHED
  10
111.600
  20
47.183
  30
0.000
  0
VERTEX
  8
1
  6
DASHED
  10
111.700
  20
47.067
  30
0.000
  0
VERTEX
  8
1
  6
DASHED
  10
111.800
  20
46.900
  30
0.000
  0
VERTEX
  8
1
  6
DASHED
  10
111.900
  20
46.667
  30
0.000
  0
VERTEX
  8
1
  6
DASHED
  10
112.000
  20
46.433
  30
0.000
  0
VERTEX
  8
1
  6
DASHED
  10
112.100
  20
46.167
  30
0.000
  0
VERTEX
  8
1
  6
DASHED
  10
112.200
  20
45.950
  30
0.000
  0
VERTEX
  8
1
  6
DASHED
  10
112.300
  20
45.767
  30
0.000
  0
VERTEX
  8
1
  6
DASHED
  10
112.400
  20
45.633
  30
0.000
  0
VERTEX
  8
1
  6
DASHED
  10
112.500
  20
45.583
  30
0.000
  0
VERTEX
  8
1
  6
DASHED
  10
112.600
  20
45.600
  30
0.000
  0
VERTEX
  8
1
  6
DASHED
  10
112.700
  20
45.683
  30
0.000
  0
VERTEX
  8
1
  6
DASHED
  10
112.817
  20
45.833
  30
0.000
  0
VERTEX
  8
1
  6
DASHED
  10
112.917
  20
46.017
  30
0.000
  0
VERTEX
  8
1
  6
DASHED
  10
113.017
  20
46.250
  30
0.000
  0
VERTEX
  8
1
  6
DASHED
  10
113.117
  20
46.500
  30
0.000
  0
VERTEX
  8
1
  6
DASHED
  10
113.217
  20
46.733
  30
0.000
  0
VERTEX
  8
1
  6
DASHED
  10
113.317
  20
46.933
  30
0.000
  0
VERTEX
  8
1
  6
DASHED
  10
113.417
  20
47.100
  30
0.000
  0
VERTEX
  8
1
  6
DASHED
  10
113.517
  20
47.217
  30
0.000
  0
VERTEX
  8
1
  6
DASHED
  10
113.617
  20
47.267
  30
0.000
  0
VERTEX
  8
1
  6
DASHED
  10
113.717
  20
47.267
  30
0.000
  0
VERTEX
  8
1
  6
DASHED
  10
113.817
  20
47.217
  30
0.000
  0
VERTEX
  8
1
  6
DASHED
  10
113.917
  20
47.117
  30
0.000
  0
VERTEX
  8
1
  6
DASHED
  10
114.017
  20
46.967
  30
0.000
  0
VERTEX
  8
1
  6
DASHED
  10
114.117
  20
46.783
  30
0.000
  0
VERTEX
  8
1
  6
DASHED
  10
114.217
  20
46.583
  30
0.000
  0
VERTEX
  8
1
  6
DASHED
  10
114.317
  20
46.400
  30
0.000
  0
VERTEX
  8
1
  6
DASHED
  10
114.417
  20
46.217
  30
0.000
  0
VERTEX
  8
1
  6
DASHED
  10
114.517
  20
46.050
  30
0.000
  0
VERTEX
  8
1
  6
DASHED
  10
114.617
  20
45.933
  30
0.000
  0
VERTEX
  8
1
  6
DASHED
  10
114.733
  20
45.833
  30
0.000
  0
VERTEX
  8
1
  6
DASHED
  10
114.833
  20
45.767
  30
0.000
  0
VERTEX
  8
1
  6
DASHED
  10
114.933
  20
45.733
  30
0.000
  0
VERTEX
  8
1
  6
DASHED
  10
115.033
  20
45.733
  30
0.000
  0
VERTEX
  8
1
  6
DASHED
  10
115.133
  20
45.767
  30
0.000
  0
VERTEX
  8
1
  6
DASHED
  10
115.233
  20
45.817
  30
0.000
  0
VERTEX
  8
1
  6
DASHED
  10
115.333
  20
45.867
  30
0.000
  0
VERTEX
  8
1
  6
DASHED
  10
115.433
  20
45.950
  30
0.000
  0
VERTEX
  8
1
  6
DASHED
  10
115.533
  20
46.033
  30
0.000
  0
SEQEND
  0
ENDSEC
  0
EOF
