999
% GNUPLOT: dxf file for AutoCad
  0
SECTION
  2
HEADER
  9
$EXTMIN
 10
0.000
 20
0.000
  9
$EXTMAX
 10
120.000
 20
80.000
  9
$LIMMIN
 10
0.000
 20
0.000
  9
$LIMMAX
 10
120.000
 20
80.000
  9
$TEXTSTYLE
  7
STANDARD
  9
$TEXTSIZE
 40
1.456 
  9
$PLINEWID
 40
0.0351
  9
$LTSCALE
  40
1.000 
  9
$COORDS
 70
  1
  9
$CELTYPE
 6
BYLAYER
  9
$CLAYER
  8
0
  9
$CECOLOR
 62
   7
  9
$MENU
  1
acad
  0
ENDSEC
  0
SECTION
  2
TABLES
0
TABLE
  2
LTYPE
 70
    7
0
LTYPE
  2
CONTINUOUS
 70
    64
  3
Solid line
 72
    65
 73
      0
 40
0.0
  0
LTYPE
  2
DASHED
 70
    64
  3
__ __ __ __ __ __ __ __ __ __ __ __ __ __ __
 72
    65
 73
     2
 40
0.75
 49
0.5
 49
-0.25
  0
LTYPE
  2
HIDDEN
 70
    64
  3
_ _ _ _ _ _ _ _ _ _ _ _ _ _ _ _ _ _ _ _ _ _ _
 72
    65
 73
     2
 40
0.375
 49
0.25
 49
-0.125
  0
LTYPE
  2
CENTER
 70
    64
  3
____ _ ____ _ ____ _ ____ _ ____ _ ____ _ ____
 72
    65
 73
     4
 40
2.0
 49
1.25
 49
-0.25
 49
0.25
 49
-0.25
  0
LTYPE
  2
PHANTOM
 70
    64
  3
_____ _ _ _____ _ _ _____ _ _ _____ _ _ ____
 72
    65
 73
     6
 40
2.5
 49
1.25
 49
-0.25
 49
0.25
 49
-0.25
 49
0.25
 49
-0.25
  0
LTYPE
  2
DOT
 70
    64
  3
...............................................
 72
    65
 73
     2
 40
0.25
 49
0.0
 49
-0.25
  0
LTYPE
  2
DASHDOT
 70
    64
  3
__ . __ . __ . __ . __ . __ . __ . __ . __ . __
 72
    65
 73
     4
 40
1.0
 49
0.5
 49
-0.25
 49
0.0
 49
-0.25
  0
ENDTAB
  0
TABLE
  2
LAYER
 70
   7
  0
LAYER
  2
0
 70
   64
62
   7
  6
CONTINUOUS
  0
LAYER
  2
1
 70
   64
62
   1
  6
DASHED
  0
LAYER
  2
2
 70
   64
62
   2
  6
HIDDEN
  0
LAYER
  2
3
 70
   64
62
   3
  6
CENTER
  0
LAYER
  2
4
 70
   64
62
   4
  6
PHANTOM
  0
LAYER
  2
5
 70
   64
62
   5
  6
DOT
  0
LAYER
  2
6
 70
   64
62
   6
  6
DASHDOT
  0
ENDTAB
0
ENDSEC
  0
SECTION
  2
BLOCKS
  0
ENDSEC
  0
SECTION
  2
ENTITIES
  0
POLYLINE
  8
2
 66
   1
  6
HIDDEN
  0
VERTEX
  8
2
  6
HIDDEN
 10
11.433
 20
6.200 
 30
0.000
  0
VERTEX
  8
2
  6
HIDDEN
  10
12.633
  20
6.200 
  30
0.000
  0
SEQEND
  0
POLYLINE
  8
2
 66
   1
  6
HIDDEN
  0
VERTEX
  8
2
  6
HIDDEN
 10
115.633
 20
6.200 
 30
0.000
  0
VERTEX
  8
2
  6
HIDDEN
  10
114.433
  20
6.200 
  30
0.000
  0
SEQEND
  0
TEXT
  8
0
 10
6.239 
 20
5.680 
 30
0.000
 40
1.456 
  1
-20
 50
0.000 
  7
STANDARD
 72
2
 11
9.767 
 21
5.680 
 31
0.000
  0
POLYLINE
  8
2
 66
   1
  6
HIDDEN
  0
VERTEX
  8
2
  6
HIDDEN
 10
11.433
 20
15.017
 30
0.000
  0
VERTEX
  8
2
  6
HIDDEN
  10
12.633
  20
15.017
  30
0.000
  0
SEQEND
  0
POLYLINE
  8
2
 66
   1
  6
HIDDEN
  0
VERTEX
  8
2
  6
HIDDEN
 10
115.633
 20
15.017
 30
0.000
  0
VERTEX
  8
2
  6
HIDDEN
  10
114.433
  20
15.017
  30
0.000
  0
SEQEND
  0
TEXT
  8
0
 10
6.239 
 20
14.497
 30
0.000
 40
1.456 
  1
-15
 50
0.000 
  7
STANDARD
 72
2
 11
9.767 
 21
14.497
 31
0.000
  0
POLYLINE
  8
2
 66
   1
  6
HIDDEN
  0
VERTEX
  8
2
  6
HIDDEN
 10
11.433
 20
23.817
 30
0.000
  0
VERTEX
  8
2
  6
HIDDEN
  10
12.633
  20
23.817
  30
0.000
  0
SEQEND
  0
POLYLINE
  8
2
 66
   1
  6
HIDDEN
  0
VERTEX
  8
2
  6
HIDDEN
 10
115.633
 20
23.817
 30
0.000
  0
VERTEX
  8
2
  6
HIDDEN
  10
114.433
  20
23.817
  30
0.000
  0
SEQEND
  0
TEXT
  8
0
 10
6.239 
 20
23.297
 30
0.000
 40
1.456 
  1
-10
 50
0.000 
  7
STANDARD
 72
2
 11
9.767 
 21
23.297
 31
0.000
  0
POLYLINE
  8
2
 66
   1
  6
HIDDEN
  0
VERTEX
  8
2
  6
HIDDEN
 10
11.433
 20
32.633
 30
0.000
  0
VERTEX
  8
2
  6
HIDDEN
  10
12.633
  20
32.633
  30
0.000
  0
SEQEND
  0
POLYLINE
  8
2
 66
   1
  6
HIDDEN
  0
VERTEX
  8
2
  6
HIDDEN
 10
115.633
 20
32.633
 30
0.000
  0
VERTEX
  8
2
  6
HIDDEN
  10
114.433
  20
32.633
  30
0.000
  0
SEQEND
  0
TEXT
  8
0
 10
7.415 
 20
32.113
 30
0.000
 40
1.456 
  1
-5
 50
0.000 
  7
STANDARD
 72
2
 11
9.767 
 21
32.113
 31
0.000
  0
POLYLINE
  8
2
 66
   1
  6
HIDDEN
  0
VERTEX
  8
2
  6
HIDDEN
 10
11.433
 20
41.433
 30
0.000
  0
VERTEX
  8
2
  6
HIDDEN
  10
12.633
  20
41.433
  30
0.000
  0
SEQEND
  0
POLYLINE
  8
2
 66
   1
  6
HIDDEN
  0
VERTEX
  8
2
  6
HIDDEN
 10
115.633
 20
41.433
 30
0.000
  0
VERTEX
  8
2
  6
HIDDEN
  10
114.433
  20
41.433
  30
0.000
  0
SEQEND
  0
TEXT
  8
0
 10
8.591 
 20
40.913
 30
0.000
 40
1.456 
  1
0
 50
0.000 
  7
STANDARD
 72
2
 11
9.767 
 21
40.913
 31
0.000
  0
POLYLINE
  8
2
 66
   1
  6
HIDDEN
  0
VERTEX
  8
2
  6
HIDDEN
 10
11.433
 20
50.250
 30
0.000
  0
VERTEX
  8
2
  6
HIDDEN
  10
12.633
  20
50.250
  30
0.000
  0
SEQEND
  0
POLYLINE
  8
2
 66
   1
  6
HIDDEN
  0
VERTEX
  8
2
  6
HIDDEN
 10
115.633
 20
50.250
 30
0.000
  0
VERTEX
  8
2
  6
HIDDEN
  10
114.433
  20
50.250
  30
0.000
  0
SEQEND
  0
TEXT
  8
0
 10
8.591 
 20
49.730
 30
0.000
 40
1.456 
  1
5
 50
0.000 
  7
STANDARD
 72
2
 11
9.767 
 21
49.730
 31
0.000
  0
POLYLINE
  8
2
 66
   1
  6
HIDDEN
  0
VERTEX
  8
2
  6
HIDDEN
 10
11.433
 20
59.050
 30
0.000
  0
VERTEX
  8
2
  6
HIDDEN
  10
12.633
  20
59.050
  30
0.000
  0
SEQEND
  0
POLYLINE
  8
2
 66
   1
  6
HIDDEN
  0
VERTEX
  8
2
  6
HIDDEN
 10
115.633
 20
59.050
 30
0.000
  0
VERTEX
  8
2
  6
HIDDEN
  10
114.433
  20
59.050
  30
0.000
  0
SEQEND
  0
TEXT
  8
0
 10
7.415 
 20
58.530
 30
0.000
 40
1.456 
  1
10
 50
0.000 
  7
STANDARD
 72
2
 11
9.767 
 21
58.530
 31
0.000
  0
POLYLINE
  8
2
 66
   1
  6
HIDDEN
  0
VERTEX
  8
2
  6
HIDDEN
 10
11.433
 20
67.867
 30
0.000
  0
VERTEX
  8
2
  6
HIDDEN
  10
12.633
  20
67.867
  30
0.000
  0
SEQEND
  0
POLYLINE
  8
2
 66
   1
  6
HIDDEN
  0
VERTEX
  8
2
  6
HIDDEN
 10
115.633
 20
67.867
 30
0.000
  0
VERTEX
  8
2
  6
HIDDEN
  10
114.433
  20
67.867
  30
0.000
  0
SEQEND
  0
TEXT
  8
0
 10
7.415 
 20
67.347
 30
0.000
 40
1.456 
  1
15
 50
0.000 
  7
STANDARD
 72
2
 11
9.767 
 21
67.347
 31
0.000
  0
POLYLINE
  8
2
 66
   1
  6
HIDDEN
  0
VERTEX
  8
2
  6
HIDDEN
 10
11.433
 20
76.667
 30
0.000
  0
VERTEX
  8
2
  6
HIDDEN
  10
12.633
  20
76.667
  30
0.000
  0
SEQEND
  0
POLYLINE
  8
2
 66
   1
  6
HIDDEN
  0
VERTEX
  8
2
  6
HIDDEN
 10
115.633
 20
76.667
 30
0.000
  0
VERTEX
  8
2
  6
HIDDEN
  10
114.433
  20
76.667
  30
0.000
  0
SEQEND
  0
TEXT
  8
0
 10
7.415 
 20
76.147
 30
0.000
 40
1.456 
  1
20
 50
0.000 
  7
STANDARD
 72
2
 11
9.767 
 21
76.147
 31
0.000
  0
POLYLINE
  8
2
 66
   1
  6
HIDDEN
  0
VERTEX
  8
2
  6
HIDDEN
 10
11.433
 20
6.200 
 30
0.000
  0
VERTEX
  8
2
  6
HIDDEN
  10
11.433
  20
7.000 
  30
0.000
  0
SEQEND
  0
POLYLINE
  8
2
 66
   1
  6
HIDDEN
  0
VERTEX
  8
2
  6
HIDDEN
 10
11.433
 20
76.667
 30
0.000
  0
VERTEX
  8
2
  6
HIDDEN
  10
11.433
  20
75.867
  30
0.000
  0
SEQEND
  0
TEXT
  8
0
 10
8.493 
 20
3.613 
 30
0.000
 40
1.456 
  1
-0.06
 50
0.000 
  7
STANDARD
 72
1
 11
11.433
 21
3.613 
 31
0.000
  0
POLYLINE
  8
2
 66
   1
  6
HIDDEN
  0
VERTEX
  8
2
  6
HIDDEN
 10
28.800
 20
6.200 
 30
0.000
  0
VERTEX
  8
2
  6
HIDDEN
  10
28.800
  20
7.000 
  30
0.000
  0
SEQEND
  0
POLYLINE
  8
2
 66
   1
  6
HIDDEN
  0
VERTEX
  8
2
  6
HIDDEN
 10
28.800
 20
76.667
 30
0.000
  0
VERTEX
  8
2
  6
HIDDEN
  10
28.800
  20
75.867
  30
0.000
  0
SEQEND
  0
TEXT
  8
0
 10
25.860
 20
3.613 
 30
0.000
 40
1.456 
  1
-0.04
 50
0.000 
  7
STANDARD
 72
1
 11
28.800
 21
3.613 
 31
0.000
  0
POLYLINE
  8
2
 66
   1
  6
HIDDEN
  0
VERTEX
  8
2
  6
HIDDEN
 10
46.167
 20
6.200 
 30
0.000
  0
VERTEX
  8
2
  6
HIDDEN
  10
46.167
  20
7.000 
  30
0.000
  0
SEQEND
  0
POLYLINE
  8
2
 66
   1
  6
HIDDEN
  0
VERTEX
  8
2
  6
HIDDEN
 10
46.167
 20
76.667
 30
0.000
  0
VERTEX
  8
2
  6
HIDDEN
  10
46.167
  20
75.867
  30
0.000
  0
SEQEND
  0
TEXT
  8
0
 10
43.227
 20
3.613 
 30
0.000
 40
1.456 
  1
-0.02
 50
0.000 
  7
STANDARD
 72
1
 11
46.167
 21
3.613 
 31
0.000
  0
POLYLINE
  8
2
 66
   1
  6
HIDDEN
  0
VERTEX
  8
2
  6
HIDDEN
 10
63.533
 20
6.200 
 30
0.000
  0
VERTEX
  8
2
  6
HIDDEN
  10
63.533
  20
7.000 
  30
0.000
  0
SEQEND
  0
POLYLINE
  8
2
 66
   1
  6
HIDDEN
  0
VERTEX
  8
2
  6
HIDDEN
 10
63.533
 20
76.667
 30
0.000
  0
VERTEX
  8
2
  6
HIDDEN
  10
63.533
  20
75.867
  30
0.000
  0
SEQEND
  0
TEXT
  8
0
 10
62.945
 20
3.613 
 30
0.000
 40
1.456 
  1
0
 50
0.000 
  7
STANDARD
 72
1
 11
63.533
 21
3.613 
 31
0.000
  0
POLYLINE
  8
2
 66
   1
  6
HIDDEN
  0
VERTEX
  8
2
  6
HIDDEN
 10
80.900
 20
6.200 
 30
0.000
  0
VERTEX
  8
2
  6
HIDDEN
  10
80.900
  20
7.000 
  30
0.000
  0
SEQEND
  0
POLYLINE
  8
2
 66
   1
  6
HIDDEN
  0
VERTEX
  8
2
  6
HIDDEN
 10
80.900
 20
76.667
 30
0.000
  0
VERTEX
  8
2
  6
HIDDEN
  10
80.900
  20
75.867
  30
0.000
  0
SEQEND
  0
TEXT
  8
0
 10
78.548
 20
3.613 
 30
0.000
 40
1.456 
  1
0.02
 50
0.000 
  7
STANDARD
 72
1
 11
80.900
 21
3.613 
 31
0.000
  0
POLYLINE
  8
2
 66
   1
  6
HIDDEN
  0
VERTEX
  8
2
  6
HIDDEN
 10
98.267
 20
6.200 
 30
0.000
  0
VERTEX
  8
2
  6
HIDDEN
  10
98.267
  20
7.000 
  30
0.000
  0
SEQEND
  0
POLYLINE
  8
2
 66
   1
  6
HIDDEN
  0
VERTEX
  8
2
  6
HIDDEN
 10
98.267
 20
76.667
 30
0.000
  0
VERTEX
  8
2
  6
HIDDEN
  10
98.267
  20
75.867
  30
0.000
  0
SEQEND
  0
TEXT
  8
0
 10
95.915
 20
3.613 
 30
0.000
 40
1.456 
  1
0.04
 50
0.000 
  7
STANDARD
 72
1
 11
98.267
 21
3.613 
 31
0.000
  0
POLYLINE
  8
2
 66
   1
  6
HIDDEN
  0
VERTEX
  8
2
  6
HIDDEN
 10
115.633
 20
6.200 
 30
0.000
  0
VERTEX
  8
2
  6
HIDDEN
  10
115.633
  20
7.000 
  30
0.000
  0
SEQEND
  0
POLYLINE
  8
2
 66
   1
  6
HIDDEN
  0
VERTEX
  8
2
  6
HIDDEN
 10
115.633
 20
76.667
 30
0.000
  0
VERTEX
  8
2
  6
HIDDEN
  10
115.633
  20
75.867
  30
0.000
  0
SEQEND
  0
TEXT
  8
0
 10
113.281
 20
3.613 
 30
0.000
 40
1.456 
  1
0.06
 50
0.000 
  7
STANDARD
 72
1
 11
115.633
 21
3.613 
 31
0.000
  0
POLYLINE
  8
1
 66
   1
  6
DASHED
  0
VERTEX
  8
1
  6
DASHED
 10
11.433
 20
41.433
 30
0.000
  0
VERTEX
  8
1
  6
DASHED
  10
115.633
  20
41.433
  30
0.000
  0
SEQEND
  0
POLYLINE
  8
1
 66
   1
  6
DASHED
  0
VERTEX
  8
1
  6
DASHED
 10
63.533
 20
6.200 
 30
0.000
  0
VERTEX
  8
1
  6
DASHED
  10
63.533
  20
76.667
  30
0.000
  0
SEQEND
  0
POLYLINE
  8
2
 66
   1
  6
HIDDEN
  0
VERTEX
  8
2
  6
HIDDEN
 10
11.433
 20
6.200 
 30
0.000
  0
VERTEX
  8
2
  6
HIDDEN
  10
115.633
  20
6.200 
  30
0.000
  0
VERTEX
  8
2
  6
HIDDEN
  10
115.633
  20
76.667
  30
0.000
  0
VERTEX
  8
2
  6
HIDDEN
  10
11.433
  20
76.667
  30
0.000
  0
VERTEX
  8
2
  6
HIDDEN
  10
11.433
  20
6.200 
  30
0.000
  0
SEQEND
  0
TEXT
  8
0
 10
2.587 
 20
24.969
 30
0.000
 40
1.456 
  1
story restoring force (tonf)
 50
90.000
  7
STANDARD
 72
1
 11
2.587 
 21
41.433
 31
0.000
  0
TEXT
  8
0
 10
46.481
 20
0.513 
 30
0.000
 40
1.456 
  1
story deformation angle (rad)
 50
0.000 
  7
STANDARD
 72
1
 11
63.533
 21
0.513 
 31
0.000
  0
TEXT
  8
0
 10
92.183
 20
9.580 
 30
0.000
 40
1.456 
  1
1st story
 50
0.000 
  7
STANDARD
 72
2
 11
102.767
 21
9.580 
 31
0.000
  0
POLYLINE
  8
0
 66
   1
  6
CONTINUOUS
  0
VERTEX
  8
0
  6
CONTINUOUS
 10
104.433
 20
10.100
 30
0.000
  0
VERTEX
  8
0
  6
CONTINUOUS
  10
112.300
  20
10.100
  30
0.000
  0
SEQEND
  0
POLYLINE
  8
0
 66
   1
  6
CONTINUOUS
  0
VERTEX
  8
0
  6
CONTINUOUS
 10
63.533
 20
41.433
 30
0.000
  0
VERTEX
  8
0
  6
CONTINUOUS
  10
63.533
  20
41.433
  30
0.000
  0
VERTEX
  8
0
  6
CONTINUOUS
  10
63.533
  20
41.433
  30
0.000
  0
VERTEX
  8
0
  6
CONTINUOUS
  10
63.533
  20
41.433
  30
0.000
  0
VERTEX
  8
0
  6
CONTINUOUS
  10
63.533
  20
41.433
  30
0.000
  0
VERTEX
  8
0
  6
CONTINUOUS
  10
63.533
  20
41.433
  30
0.000
  0
VERTEX
  8
0
  6
CONTINUOUS
  10
63.533
  20
41.433
  30
0.000
  0
VERTEX
  8
0
  6
CONTINUOUS
  10
63.533
  20
41.450
  30
0.000
  0
VERTEX
  8
0
  6
CONTINUOUS
  10
63.550
  20
41.483
  30
0.000
  0
VERTEX
  8
0
  6
CONTINUOUS
  10
63.550
  20
41.500
  30
0.000
  0
VERTEX
  8
0
  6
CONTINUOUS
  10
63.550
  20
41.517
  30
0.000
  0
VERTEX
  8
0
  6
CONTINUOUS
  10
63.550
  20
41.517
  30
0.000
  0
VERTEX
  8
0
  6
CONTINUOUS
  10
63.550
  20
41.517
  30
0.000
  0
VERTEX
  8
0
  6
CONTINUOUS
  10
63.550
  20
41.483
  30
0.000
  0
VERTEX
  8
0
  6
CONTINUOUS
  10
63.533
  20
41.467
  30
0.000
  0
VERTEX
  8
0
  6
CONTINUOUS
  10
63.550
  20
41.483
  30
0.000
  0
VERTEX
  8
0
  6
CONTINUOUS
  10
63.550
  20
41.517
  30
0.000
  0
VERTEX
  8
0
  6
CONTINUOUS
  10
63.567
  20
41.567
  30
0.000
  0
VERTEX
  8
0
  6
CONTINUOUS
  10
63.583
  20
41.617
  30
0.000
  0
VERTEX
  8
0
  6
CONTINUOUS
  10
63.583
  20
41.650
  30
0.000
  0
VERTEX
  8
0
  6
CONTINUOUS
  10
63.583
  20
41.667
  30
0.000
  0
VERTEX
  8
0
  6
CONTINUOUS
  10
63.583
  20
41.667
  30
0.000
  0
VERTEX
  8
0
  6
CONTINUOUS
  10
63.583
  20
41.667
  30
0.000
  0
VERTEX
  8
0
  6
CONTINUOUS
  10
63.600
  20
41.683
  30
0.000
  0
VERTEX
  8
0
  6
CONTINUOUS
  10
63.600
  20
41.733
  30
0.000
  0
VERTEX
  8
0
  6
CONTINUOUS
  10
63.600
  20
41.733
  30
0.000
  0
VERTEX
  8
0
  6
CONTINUOUS
  10
63.600
  20
41.700
  30
0.000
  0
VERTEX
  8
0
  6
CONTINUOUS
  10
63.583
  20
41.633
  30
0.000
  0
VERTEX
  8
0
  6
CONTINUOUS
  10
63.550
  20
41.500
  30
0.000
  0
VERTEX
  8
0
  6
CONTINUOUS
  10
63.500
  20
41.333
  30
0.000
  0
VERTEX
  8
0
  6
CONTINUOUS
  10
63.467
  20
41.133
  30
0.000
  0
VERTEX
  8
0
  6
CONTINUOUS
  10
63.417
  20
40.950
  30
0.000
  0
VERTEX
  8
0
  6
CONTINUOUS
  10
63.383
  20
40.817
  30
0.000
  0
VERTEX
  8
0
  6
CONTINUOUS
  10
63.367
  20
40.750
  30
0.000
  0
VERTEX
  8
0
  6
CONTINUOUS
  10
63.383
  20
40.783
  30
0.000
  0
VERTEX
  8
0
  6
CONTINUOUS
  10
63.400
  20
40.833
  30
0.000
  0
VERTEX
  8
0
  6
CONTINUOUS
  10
63.400
  20
40.833
  30
0.000
  0
VERTEX
  8
0
  6
CONTINUOUS
  10
63.400
  20
40.850
  30
0.000
  0
VERTEX
  8
0
  6
CONTINUOUS
  10
63.417
  20
40.900
  30
0.000
  0
VERTEX
  8
0
  6
CONTINUOUS
  10
63.433
  20
40.983
  30
0.000
  0
VERTEX
  8
0
  6
CONTINUOUS
  10
63.433
  20
41.000
  30
0.000
  0
VERTEX
  8
0
  6
CONTINUOUS
  10
63.417
  20
40.950
  30
0.000
  0
VERTEX
  8
0
  6
CONTINUOUS
  10
63.383
  20
40.800
  30
0.000
  0
VERTEX
  8
0
  6
CONTINUOUS
  10
63.333
  20
40.550
  30
0.000
  0
VERTEX
  8
0
  6
CONTINUOUS
  10
63.267
  20
40.333
  30
0.000
  0
VERTEX
  8
0
  6
CONTINUOUS
  10
63.250
  20
40.217
  30
0.000
  0
VERTEX
  8
0
  6
CONTINUOUS
  10
63.250
  20
40.233
  30
0.000
  0
VERTEX
  8
0
  6
CONTINUOUS
  10
63.267
  20
40.300
  30
0.000
  0
VERTEX
  8
0
  6
CONTINUOUS
  10
63.283
  20
40.367
  30
0.000
  0
VERTEX
  8
0
  6
CONTINUOUS
  10
63.317
  20
40.483
  30
0.000
  0
VERTEX
  8
0
  6
CONTINUOUS
  10
63.383
  20
40.767
  30
0.000
  0
VERTEX
  8
0
  6
CONTINUOUS
  10
63.500
  20
41.283
  30
0.000
  0
VERTEX
  8
0
  6
CONTINUOUS
  10
63.650
  20
41.900
  30
0.000
  0
VERTEX
  8
0
  6
CONTINUOUS
  10
63.800
  20
42.533
  30
0.000
  0
VERTEX
  8
0
  6
CONTINUOUS
  10
63.917
  20
43.083
  30
0.000
  0
VERTEX
  8
0
  6
CONTINUOUS
  10
64.017
  20
43.483
  30
0.000
  0
VERTEX
  8
0
  6
CONTINUOUS
  10
64.083
  20
43.767
  30
0.000
  0
VERTEX
  8
0
  6
CONTINUOUS
  10
64.133
  20
44.017
  30
0.000
  0
VERTEX
  8
0
  6
CONTINUOUS
  10
64.200
  20
44.300
  30
0.000
  0
VERTEX
  8
0
  6
CONTINUOUS
  10
64.267
  20
44.533
  30
0.000
  0
VERTEX
  8
0
  6
CONTINUOUS
  10
64.283
  20
44.617
  30
0.000
  0
VERTEX
  8
0
  6
CONTINUOUS
  10
64.250
  20
44.483
  30
0.000
  0
VERTEX
  8
0
  6
CONTINUOUS
  10
64.150
  20
44.067
  30
0.000
  0
VERTEX
  8
0
  6
CONTINUOUS
  10
64.017
  20
43.500
  30
0.000
  0
VERTEX
  8
0
  6
CONTINUOUS
  10
63.867
  20
42.867
  30
0.000
  0
VERTEX
  8
0
  6
CONTINUOUS
  10
63.717
  20
42.233
  30
0.000
  0
VERTEX
  8
0
  6
CONTINUOUS
  10
63.583
  20
41.633
  30
0.000
  0
VERTEX
  8
0
  6
CONTINUOUS
  10
63.450
  20
41.100
  30
0.000
  0
VERTEX
  8
0
  6
CONTINUOUS
  10
63.333
  20
40.617
  30
0.000
  0
VERTEX
  8
0
  6
CONTINUOUS
  10
63.250
  20
40.200
  30
0.000
  0
VERTEX
  8
0
  6
CONTINUOUS
  10
63.183
  20
39.917
  30
0.000
  0
VERTEX
  8
0
  6
CONTINUOUS
  10
63.150
  20
39.783
  30
0.000
  0
VERTEX
  8
0
  6
CONTINUOUS
  10
63.167
  20
39.850
  30
0.000
  0
VERTEX
  8
0
  6
CONTINUOUS
  10
63.217
  20
40.067
  30
0.000
  0
VERTEX
  8
0
  6
CONTINUOUS
  10
63.250
  20
40.200
  30
0.000
  0
VERTEX
  8
0
  6
CONTINUOUS
  10
63.233
  20
40.117
  30
0.000
  0
VERTEX
  8
0
  6
CONTINUOUS
  10
63.183
  20
39.933
  30
0.000
  0
VERTEX
  8
0
  6
CONTINUOUS
  10
63.183
  20
39.900
  30
0.000
  0
VERTEX
  8
0
  6
CONTINUOUS
  10
63.217
  20
40.100
  30
0.000
  0
VERTEX
  8
0
  6
CONTINUOUS
  10
63.300
  20
40.400
  30
0.000
  0
VERTEX
  8
0
  6
CONTINUOUS
  10
63.350
  20
40.683
  30
0.000
  0
VERTEX
  8
0
  6
CONTINUOUS
  10
63.417
  20
40.933
  30
0.000
  0
VERTEX
  8
0
  6
CONTINUOUS
  10
63.483
  20
41.250
  30
0.000
  0
VERTEX
  8
0
  6
CONTINUOUS
  10
63.583
  20
41.633
  30
0.000
  0
VERTEX
  8
0
  6
CONTINUOUS
  10
63.683
  20
42.067
  30
0.000
  0
VERTEX
  8
0
  6
CONTINUOUS
  10
63.783
  20
42.467
  30
0.000
  0
VERTEX
  8
0
  6
CONTINUOUS
  10
63.850
  20
42.783
  30
0.000
  0
VERTEX
  8
0
  6
CONTINUOUS
  10
63.900
  20
43.000
  30
0.000
  0
VERTEX
  8
0
  6
CONTINUOUS
  10
63.917
  20
43.033
  30
0.000
  0
VERTEX
  8
0
  6
CONTINUOUS
  10
63.883
  20
42.900
  30
0.000
  0
VERTEX
  8
0
  6
CONTINUOUS
  10
63.817
  20
42.617
  30
0.000
  0
VERTEX
  8
0
  6
CONTINUOUS
  10
63.700
  20
42.167
  30
0.000
  0
VERTEX
  8
0
  6
CONTINUOUS
  10
63.567
  20
41.617
  30
0.000
  0
VERTEX
  8
0
  6
CONTINUOUS
  10
63.417
  20
40.983
  30
0.000
  0
VERTEX
  8
0
  6
CONTINUOUS
  10
63.283
  20
40.400
  30
0.000
  0
VERTEX
  8
0
  6
CONTINUOUS
  10
63.200
  20
40.033
  30
0.000
  0
VERTEX
  8
0
  6
CONTINUOUS
  10
63.183
  20
39.933
  30
0.000
  0
VERTEX
  8
0
  6
CONTINUOUS
  10
63.183
  20
39.933
  30
0.000
  0
VERTEX
  8
0
  6
CONTINUOUS
  10
63.150
  20
39.833
  30
0.000
  0
VERTEX
  8
0
  6
CONTINUOUS
  10
63.117
  20
39.633
  30
0.000
  0
VERTEX
  8
0
  6
CONTINUOUS
  10
63.067
  20
39.450
  30
0.000
  0
VERTEX
  8
0
  6
CONTINUOUS
  10
63.033
  20
39.333
  30
0.000
  0
VERTEX
  8
0
  6
CONTINUOUS
  10
63.033
  20
39.333
  30
0.000
  0
VERTEX
  8
0
  6
CONTINUOUS
  10
63.067
  20
39.467
  30
0.000
  0
VERTEX
  8
0
  6
CONTINUOUS
  10
63.150
  20
39.783
  30
0.000
  0
VERTEX
  8
0
  6
CONTINUOUS
  10
63.283
  20
40.350
  30
0.000
  0
VERTEX
  8
0
  6
CONTINUOUS
  10
63.467
  20
41.117
  30
0.000
  0
VERTEX
  8
0
  6
CONTINUOUS
  10
63.650
  20
41.933
  30
0.000
  0
VERTEX
  8
0
  6
CONTINUOUS
  10
63.833
  20
42.700
  30
0.000
  0
VERTEX
  8
0
  6
CONTINUOUS
  10
63.983
  20
43.383
  30
0.000
  0
VERTEX
  8
0
  6
CONTINUOUS
  10
64.117
  20
43.933
  30
0.000
  0
VERTEX
  8
0
  6
CONTINUOUS
  10
64.217
  20
44.333
  30
0.000
  0
VERTEX
  8
0
  6
CONTINUOUS
  10
64.267
  20
44.567
  30
0.000
  0
VERTEX
  8
0
  6
CONTINUOUS
  10
64.267
  20
44.567
  30
0.000
  0
VERTEX
  8
0
  6
CONTINUOUS
  10
64.217
  20
44.333
  30
0.000
  0
VERTEX
  8
0
  6
CONTINUOUS
  10
64.117
  20
43.900
  30
0.000
  0
VERTEX
  8
0
  6
CONTINUOUS
  10
63.983
  20
43.367
  30
0.000
  0
VERTEX
  8
0
  6
CONTINUOUS
  10
63.850
  20
42.800
  30
0.000
  0
VERTEX
  8
0
  6
CONTINUOUS
  10
63.717
  20
42.233
  30
0.000
  0
VERTEX
  8
0
  6
CONTINUOUS
  10
63.550
  20
41.550
  30
0.000
  0
VERTEX
  8
0
  6
CONTINUOUS
  10
63.367
  20
40.717
  30
0.000
  0
VERTEX
  8
0
  6
CONTINUOUS
  10
63.150
  20
39.817
  30
0.000
  0
VERTEX
  8
0
  6
CONTINUOUS
  10
62.933
  20
38.917
  30
0.000
  0
VERTEX
  8
0
  6
CONTINUOUS
  10
62.750
  20
38.100
  30
0.000
  0
VERTEX
  8
0
  6
CONTINUOUS
  10
62.633
  20
37.583
  30
0.000
  0
VERTEX
  8
0
  6
CONTINUOUS
  10
62.600
  20
37.517
  30
0.000
  0
VERTEX
  8
0
  6
CONTINUOUS
  10
62.617
  20
37.633
  30
0.000
  0
VERTEX
  8
0
  6
CONTINUOUS
  10
62.667
  20
37.833
  30
0.000
  0
VERTEX
  8
0
  6
CONTINUOUS
  10
62.750
  20
38.167
  30
0.000
  0
VERTEX
  8
0
  6
CONTINUOUS
  10
62.900
  20
38.783
  30
0.000
  0
VERTEX
  8
0
  6
CONTINUOUS
  10
63.117
  20
39.733
  30
0.000
  0
VERTEX
  8
0
  6
CONTINUOUS
  10
63.367
  20
40.817
  30
0.000
  0
VERTEX
  8
0
  6
CONTINUOUS
  10
63.617
  20
41.883
  30
0.000
  0
VERTEX
  8
0
  6
CONTINUOUS
  10
63.867
  20
42.900
  30
0.000
  0
VERTEX
  8
0
  6
CONTINUOUS
  10
64.083
  20
43.850
  30
0.000
  0
VERTEX
  8
0
  6
CONTINUOUS
  10
64.250
  20
44.533
  30
0.000
  0
VERTEX
  8
0
  6
CONTINUOUS
  10
64.317
  20
44.850
  30
0.000
  0
VERTEX
  8
0
  6
CONTINUOUS
  10
64.350
  20
45.000
  30
0.000
  0
VERTEX
  8
0
  6
CONTINUOUS
  10
64.400
  20
45.233
  30
0.000
  0
VERTEX
  8
0
  6
CONTINUOUS
  10
64.483
  20
45.383
  30
0.000
  0
VERTEX
  8
0
  6
CONTINUOUS
  10
64.517
  20
45.450
  30
0.000
  0
VERTEX
  8
0
  6
CONTINUOUS
  10
64.483
  20
45.250
  30
0.000
  0
VERTEX
  8
0
  6
CONTINUOUS
  10
64.350
  20
44.750
  30
0.000
  0
VERTEX
  8
0
  6
CONTINUOUS
  10
64.183
  20
44.017
  30
0.000
  0
VERTEX
  8
0
  6
CONTINUOUS
  10
63.950
  20
43.000
  30
0.000
  0
VERTEX
  8
0
  6
CONTINUOUS
  10
63.650
  20
41.700
  30
0.000
  0
VERTEX
  8
0
  6
CONTINUOUS
  10
63.333
  20
40.350
  30
0.000
  0
VERTEX
  8
0
  6
CONTINUOUS
  10
63.067
  20
39.250
  30
0.000
  0
VERTEX
  8
0
  6
CONTINUOUS
  10
62.883
  20
38.433
  30
0.000
  0
VERTEX
  8
0
  6
CONTINUOUS
  10
62.700
  20
37.717
  30
0.000
  0
VERTEX
  8
0
  6
CONTINUOUS
  10
62.483
  20
37.317
  30
0.000
  0
VERTEX
  8
0
  6
CONTINUOUS
  10
62.283
  20
36.933
  30
0.000
  0
VERTEX
  8
0
  6
CONTINUOUS
  10
62.133
  20
36.633
  30
0.000
  0
VERTEX
  8
0
  6
CONTINUOUS
  10
61.983
  20
36.367
  30
0.000
  0
VERTEX
  8
0
  6
CONTINUOUS
  10
61.833
  20
36.067
  30
0.000
  0
VERTEX
  8
0
  6
CONTINUOUS
  10
61.700
  20
35.800
  30
0.000
  0
VERTEX
  8
0
  6
CONTINUOUS
  10
61.633
  20
35.683
  30
0.000
  0
VERTEX
  8
0
  6
CONTINUOUS
  10
61.700
  20
35.967
  30
0.000
  0
VERTEX
  8
0
  6
CONTINUOUS
  10
61.867
  20
36.667
  30
0.000
  0
VERTEX
  8
0
  6
CONTINUOUS
  10
62.083
  20
37.600
  30
0.000
  0
VERTEX
  8
0
  6
CONTINUOUS
  10
62.333
  20
38.683
  30
0.000
  0
VERTEX
  8
0
  6
CONTINUOUS
  10
62.617
  20
39.867
  30
0.000
  0
VERTEX
  8
0
  6
CONTINUOUS
  10
62.883
  20
40.967
  30
0.000
  0
VERTEX
  8
0
  6
CONTINUOUS
  10
63.067
  20
41.750
  30
0.000
  0
VERTEX
  8
0
  6
CONTINUOUS
  10
63.100
  20
41.917
  30
0.000
  0
VERTEX
  8
0
  6
CONTINUOUS
  10
62.950
  20
41.267
  30
0.000
  0
VERTEX
  8
0
  6
CONTINUOUS
  10
62.600
  20
39.817
  30
0.000
  0
VERTEX
  8
0
  6
CONTINUOUS
  10
62.100
  20
37.667
  30
0.000
  0
VERTEX
  8
0
  6
CONTINUOUS
  10
61.433
  20
35.333
  30
0.000
  0
VERTEX
  8
0
  6
CONTINUOUS
  10
60.650
  20
33.817
  30
0.000
  0
VERTEX
  8
0
  6
CONTINUOUS
  10
59.683
  20
32.000
  30
0.000
  0
VERTEX
  8
0
  6
CONTINUOUS
  10
58.550
  20
29.850
  30
0.000
  0
VERTEX
  8
0
  6
CONTINUOUS
  10
57.317
  20
27.500
  30
0.000
  0
VERTEX
  8
0
  6
CONTINUOUS
  10
56.167
  20
25.467
  30
0.000
  0
VERTEX
  8
0
  6
CONTINUOUS
  10
55.250
  20
25.033
  30
0.000
  0
VERTEX
  8
0
  6
CONTINUOUS
  10
54.700
  20
24.767
  30
0.000
  0
VERTEX
  8
0
  6
CONTINUOUS
  10
54.633
  20
24.867
  30
0.000
  0
VERTEX
  8
0
  6
CONTINUOUS
  10
55.183
  20
27.167
  30
0.000
  0
VERTEX
  8
0
  6
CONTINUOUS
  10
56.367
  20
32.200
  30
0.000
  0
VERTEX
  8
0
  6
CONTINUOUS
  10
58.100
  20
35.583
  30
0.000
  0
VERTEX
  8
0
  6
CONTINUOUS
  10
60.283
  20
39.733
  30
0.000
  0
VERTEX
  8
0
  6
CONTINUOUS
  10
62.867
  20
43.117
  30
0.000
  0
VERTEX
  8
0
  6
CONTINUOUS
  10
65.867
  20
47.767
  30
0.000
  0
VERTEX
  8
0
  6
CONTINUOUS
  10
69.217
  20
54.150
  30
0.000
  0
VERTEX
  8
0
  6
CONTINUOUS
  10
72.800
  20
58.283
  30
0.000
  0
VERTEX
  8
0
  6
CONTINUOUS
  10
76.433
  20
60.017
  30
0.000
  0
VERTEX
  8
0
  6
CONTINUOUS
  10
79.867
  20
61.650
  30
0.000
  0
VERTEX
  8
0
  6
CONTINUOUS
  10
82.850
  20
63.067
  30
0.000
  0
VERTEX
  8
0
  6
CONTINUOUS
  10
85.233
  20
64.217
  30
0.000
  0
VERTEX
  8
0
  6
CONTINUOUS
  10
86.983
  20
65.050
  30
0.000
  0
VERTEX
  8
0
  6
CONTINUOUS
  10
88.050
  20
65.550
  30
0.000
  0
VERTEX
  8
0
  6
CONTINUOUS
  10
88.467
  20
65.767
  30
0.000
  0
VERTEX
  8
0
  6
CONTINUOUS
  10
88.267
  20
64.900
  30
0.000
  0
VERTEX
  8
0
  6
CONTINUOUS
  10
87.500
  20
61.683
  30
0.000
  0
VERTEX
  8
0
  6
CONTINUOUS
  10
86.333
  20
57.450
  30
0.000
  0
VERTEX
  8
0
  6
CONTINUOUS
  10
84.900
  20
54.733
  30
0.000
  0
VERTEX
  8
0
  6
CONTINUOUS
  10
83.383
  20
51.833
  30
0.000
  0
VERTEX
  8
0
  6
CONTINUOUS
  10
81.900
  20
49.017
  30
0.000
  0
VERTEX
  8
0
  6
CONTINUOUS
  10
80.583
  20
47.500
  30
0.000
  0
VERTEX
  8
0
  6
CONTINUOUS
  10
79.417
  20
47.083
  30
0.000
  0
VERTEX
  8
0
  6
CONTINUOUS
  10
78.333
  20
46.700
  30
0.000
  0
VERTEX
  8
0
  6
CONTINUOUS
  10
77.250
  20
46.317
  30
0.000
  0
VERTEX
  8
0
  6
CONTINUOUS
  10
76.050
  20
45.900
  30
0.000
  0
VERTEX
  8
0
  6
CONTINUOUS
  10
74.700
  20
45.417
  30
0.000
  0
VERTEX
  8
0
  6
CONTINUOUS
  10
73.183
  20
44.783
  30
0.000
  0
VERTEX
  8
0
  6
CONTINUOUS
  10
71.467
  20
43.967
  30
0.000
  0
VERTEX
  8
0
  6
CONTINUOUS
  10
69.550
  20
43.067
  30
0.000
  0
VERTEX
  8
0
  6
CONTINUOUS
  10
67.400
  20
42.033
  30
0.000
  0
VERTEX
  8
0
  6
CONTINUOUS
  10
64.983
  20
40.900
  30
0.000
  0
VERTEX
  8
0
  6
CONTINUOUS
  10
62.250
  20
39.583
  30
0.000
  0
VERTEX
  8
0
  6
CONTINUOUS
  10
59.167
  20
33.983
  30
0.000
  0
VERTEX
  8
0
  6
CONTINUOUS
  10
55.867
  20
27.300
  30
0.000
  0
VERTEX
  8
0
  6
CONTINUOUS
  10
52.533
  20
23.767
  30
0.000
  0
VERTEX
  8
0
  6
CONTINUOUS
  10
49.267
  20
22.200
  30
0.000
  0
VERTEX
  8
0
  6
CONTINUOUS
  10
46.017
  20
20.650
  30
0.000
  0
VERTEX
  8
0
  6
CONTINUOUS
  10
42.833
  20
19.133
  30
0.000
  0
VERTEX
  8
0
  6
CONTINUOUS
  10
39.733
  20
17.667
  30
0.000
  0
VERTEX
  8
0
  6
CONTINUOUS
  10
36.867
  20
16.300
  30
0.000
  0
VERTEX
  8
0
  6
CONTINUOUS
  10
34.317
  20
15.217
  30
0.000
  0
VERTEX
  8
0
  6
CONTINUOUS
  10
32.167
  20
15.300
  30
0.000
  0
VERTEX
  8
0
  6
CONTINUOUS
  10
30.583
  20
15.367
  30
0.000
  0
VERTEX
  8
0
  6
CONTINUOUS
  10
29.650
  20
15.400
  30
0.000
  0
VERTEX
  8
0
  6
CONTINUOUS
  10
29.433
  20
15.417
  30
0.000
  0
VERTEX
  8
0
  6
CONTINUOUS
  10
29.967
  20
17.667
  30
0.000
  0
VERTEX
  8
0
  6
CONTINUOUS
  10
31.233
  20
23.000
  30
0.000
  0
VERTEX
  8
0
  6
CONTINUOUS
  10
33.117
  20
26.650
  30
0.000
  0
VERTEX
  8
0
  6
CONTINUOUS
  10
35.617
  20
31.400
  30
0.000
  0
VERTEX
  8
0
  6
CONTINUOUS
  10
38.767
  20
34.183
  30
0.000
  0
VERTEX
  8
0
  6
CONTINUOUS
  10
42.667
  20
35.550
  30
0.000
  0
VERTEX
  8
0
  6
CONTINUOUS
  10
47.383
  20
37.633
  30
0.000
  0
VERTEX
  8
0
  6
CONTINUOUS
  10
52.867
  20
40.233
  30
0.000
  0
VERTEX
  8
0
  6
CONTINUOUS
  10
58.900
  20
43.100
  30
0.000
  0
VERTEX
  8
0
  6
CONTINUOUS
  10
65.183
  20
46.100
  30
0.000
  0
VERTEX
  8
0
  6
CONTINUOUS
  10
71.467
  20
49.083
  30
0.000
  0
VERTEX
  8
0
  6
CONTINUOUS
  10
77.567
  20
52.000
  30
0.000
  0
VERTEX
  8
0
  6
CONTINUOUS
  10
83.467
  20
58.183
  30
0.000
  0
VERTEX
  8
0
  6
CONTINUOUS
  10
88.900
  20
67.817
  30
0.000
  0
VERTEX
  8
0
  6
CONTINUOUS
  10
93.633
  20
67.617
  30
0.000
  0
VERTEX
  8
0
  6
CONTINUOUS
  10
97.650
  20
67.467
  30
0.000
  0
VERTEX
  8
0
  6
CONTINUOUS
  10
100.933
  20
67.317
  30
0.000
  0
VERTEX
  8
0
  6
CONTINUOUS
  10
103.483
  20
67.217
  30
0.000
  0
VERTEX
  8
0
  6
CONTINUOUS
  10
105.267
  20
67.150
  30
0.000
  0
VERTEX
  8
0
  6
CONTINUOUS
  10
106.317
  20
67.100
  30
0.000
  0
VERTEX
  8
0
  6
CONTINUOUS
  10
106.650
  20
67.150
  30
0.000
  0
VERTEX
  8
0
  6
CONTINUOUS
  10
106.333
  20
65.767
  30
0.000
  0
VERTEX
  8
0
  6
CONTINUOUS
  10
105.450
  20
62.083
  30
0.000
  0
VERTEX
  8
0
  6
CONTINUOUS
  10
104.250
  20
58.300
  30
0.000
  0
VERTEX
  8
0
  6
CONTINUOUS
  10
102.900
  20
55.733
  30
0.000
  0
VERTEX
  8
0
  6
CONTINUOUS
  10
101.550
  20
53.167
  30
0.000
  0
VERTEX
  8
0
  6
CONTINUOUS
  10
100.250
  20
50.700
  30
0.000
  0
VERTEX
  8
0
  6
CONTINUOUS
  10
99.050
  20
48.950
  30
0.000
  0
VERTEX
  8
0
  6
CONTINUOUS
  10
97.933
  20
48.550
  30
0.000
  0
VERTEX
  8
0
  6
CONTINUOUS
  10
96.883
  20
48.183
  30
0.000
  0
VERTEX
  8
0
  6
CONTINUOUS
  10
95.900
  20
47.833
  30
0.000
  0
VERTEX
  8
0
  6
CONTINUOUS
  10
95.000
  20
47.517
  30
0.000
  0
VERTEX
  8
0
  6
CONTINUOUS
  10
94.200
  20
47.233
  30
0.000
  0
VERTEX
  8
0
  6
CONTINUOUS
  10
93.483
  20
46.983
  30
0.000
  0
VERTEX
  8
0
  6
CONTINUOUS
  10
92.817
  20
46.750
  30
0.000
  0
VERTEX
  8
0
  6
CONTINUOUS
  10
92.167
  20
46.517
  30
0.000
  0
VERTEX
  8
0
  6
CONTINUOUS
  10
91.400
  20
46.167
  30
0.000
  0
VERTEX
  8
0
  6
CONTINUOUS
  10
90.467
  20
45.717
  30
0.000
  0
VERTEX
  8
0
  6
CONTINUOUS
  10
89.317
  20
45.167
  30
0.000
  0
VERTEX
  8
0
  6
CONTINUOUS
  10
87.933
  20
44.517
  30
0.000
  0
VERTEX
  8
0
  6
CONTINUOUS
  10
86.367
  20
43.767
  30
0.000
  0
VERTEX
  8
0
  6
CONTINUOUS
  10
84.667
  20
42.967
  30
0.000
  0
VERTEX
  8
0
  6
CONTINUOUS
  10
82.950
  20
42.133
  30
0.000
  0
VERTEX
  8
0
  6
CONTINUOUS
  10
81.267
  20
41.333
  30
0.000
  0
VERTEX
  8
0
  6
CONTINUOUS
  10
79.617
  20
40.550
  30
0.000
  0
VERTEX
  8
0
  6
CONTINUOUS
  10
78.000
  20
39.783
  30
0.000
  0
VERTEX
  8
0
  6
CONTINUOUS
  10
76.367
  20
39.000
  30
0.000
  0
VERTEX
  8
0
  6
CONTINUOUS
  10
74.683
  20
38.200
  30
0.000
  0
VERTEX
  8
0
  6
CONTINUOUS
  10
72.967
  20
37.383
  30
0.000
  0
VERTEX
  8
0
  6
CONTINUOUS
  10
71.183
  20
36.533
  30
0.000
  0
VERTEX
  8
0
  6
CONTINUOUS
  10
69.300
  20
35.650
  30
0.000
  0
VERTEX
  8
0
  6
CONTINUOUS
  10
67.317
  20
34.700
  30
0.000
  0
VERTEX
  8
0
  6
CONTINUOUS
  10
65.200
  20
33.700
  30
0.000
  0
VERTEX
  8
0
  6
CONTINUOUS
  10
63.000
  20
32.650
  30
0.000
  0
VERTEX
  8
0
  6
CONTINUOUS
  10
60.750
  20
31.583
  30
0.000
  0
VERTEX
  8
0
  6
CONTINUOUS
  10
58.567
  20
30.533
  30
0.000
  0
VERTEX
  8
0
  6
CONTINUOUS
  10
56.467
  20
29.550
  30
0.000
  0
VERTEX
  8
0
  6
CONTINUOUS
  10
54.550
  20
28.633
  30
0.000
  0
VERTEX
  8
0
  6
CONTINUOUS
  10
52.867
  20
27.817
  30
0.000
  0
VERTEX
  8
0
  6
CONTINUOUS
  10
51.433
  20
27.133
  30
0.000
  0
VERTEX
  8
0
  6
CONTINUOUS
  10
50.267
  20
26.583
  30
0.000
  0
VERTEX
  8
0
  6
CONTINUOUS
  10
49.367
  20
26.150
  30
0.000
  0
VERTEX
  8
0
  6
CONTINUOUS
  10
48.717
  20
25.850
  30
0.000
  0
VERTEX
  8
0
  6
CONTINUOUS
  10
48.300
  20
25.850
  30
0.000
  0
VERTEX
  8
0
  6
CONTINUOUS
  10
48.067
  20
25.867
  30
0.000
  0
VERTEX
  8
0
  6
CONTINUOUS
  10
47.983
  20
25.867
  30
0.000
  0
VERTEX
  8
0
  6
CONTINUOUS
  10
48.033
  20
25.983
  30
0.000
  0
VERTEX
  8
0
  6
CONTINUOUS
  10
48.217
  20
26.483
  30
0.000
  0
VERTEX
  8
0
  6
CONTINUOUS
  10
48.533
  20
27.317
  30
0.000
  0
VERTEX
  8
0
  6
CONTINUOUS
  10
48.900
  20
28.333
  30
0.000
  0
VERTEX
  8
0
  6
CONTINUOUS
  10
49.300
  20
29.400
  30
0.000
  0
VERTEX
  8
0
  6
CONTINUOUS
  10
49.700
  20
30.500
  30
0.000
  0
VERTEX
  8
0
  6
CONTINUOUS
  10
50.133
  20
30.900
  30
0.000
  0
VERTEX
  8
0
  6
CONTINUOUS
  10
50.617
  20
31.067
  30
0.000
  0
VERTEX
  8
0
  6
CONTINUOUS
  10
51.283
  20
31.300
  30
0.000
  0
VERTEX
  8
0
  6
CONTINUOUS
  10
52.217
  20
31.617
  30
0.000
  0
VERTEX
  8
0
  6
CONTINUOUS
  10
53.433
  20
32.050
  30
0.000
  0
VERTEX
  8
0
  6
CONTINUOUS
  10
54.883
  20
32.567
  30
0.000
  0
VERTEX
  8
0
  6
CONTINUOUS
  10
56.483
  20
33.133
  30
0.000
  0
VERTEX
  8
0
  6
CONTINUOUS
  10
58.200
  20
33.733
  30
0.000
  0
VERTEX
  8
0
  6
CONTINUOUS
  10
59.967
  20
34.367
  30
0.000
  0
VERTEX
  8
0
  6
CONTINUOUS
  10
61.750
  20
34.983
  30
0.000
  0
VERTEX
  8
0
  6
CONTINUOUS
  10
63.550
  20
35.750
  30
0.000
  0
VERTEX
  8
0
  6
CONTINUOUS
  10
65.317
  20
36.600
  30
0.000
  0
VERTEX
  8
0
  6
CONTINUOUS
  10
66.950
  20
37.383
  30
0.000
  0
VERTEX
  8
0
  6
CONTINUOUS
  10
68.367
  20
38.050
  30
0.000
  0
VERTEX
  8
0
  6
CONTINUOUS
  10
69.467
  20
38.583
  30
0.000
  0
VERTEX
  8
0
  6
CONTINUOUS
  10
70.317
  20
38.983
  30
0.000
  0
VERTEX
  8
0
  6
CONTINUOUS
  10
70.983
  20
39.300
  30
0.000
  0
VERTEX
  8
0
  6
CONTINUOUS
  10
71.583
  20
39.583
  30
0.000
  0
VERTEX
  8
0
  6
CONTINUOUS
  10
72.183
  20
39.867
  30
0.000
  0
VERTEX
  8
0
  6
CONTINUOUS
  10
72.883
  20
40.200
  30
0.000
  0
VERTEX
  8
0
  6
CONTINUOUS
  10
73.783
  20
40.633
  30
0.000
  0
VERTEX
  8
0
  6
CONTINUOUS
  10
75.000
  20
41.200
  30
0.000
  0
VERTEX
  8
0
  6
CONTINUOUS
  10
76.633
  20
41.983
  30
0.000
  0
VERTEX
  8
0
  6
CONTINUOUS
  10
78.767
  20
43.000
  30
0.000
  0
VERTEX
  8
0
  6
CONTINUOUS
  10
81.417
  20
44.250
  30
0.000
  0
VERTEX
  8
0
  6
CONTINUOUS
  10
84.600
  20
45.767
  30
0.000
  0
VERTEX
  8
0
  6
CONTINUOUS
  10
88.350
  20
47.550
  30
0.000
  0
VERTEX
  8
0
  6
CONTINUOUS
  10
92.667
  20
49.600
  30
0.000
  0
VERTEX
  8
0
  6
CONTINUOUS
  10
97.417
  20
51.850
  30
0.000
  0
VERTEX
  8
0
  6
CONTINUOUS
  10
102.300
  20
58.567
  30
0.000
  0
VERTEX
  8
0
  6
CONTINUOUS
  10
106.800
  20
67.083
  30
0.000
  0
VERTEX
  8
0
  6
CONTINUOUS
  10
110.433
  20
66.933
  30
0.000
  0
VERTEX
  8
0
  6
CONTINUOUS
  10
113.050
  20
66.833
  30
0.000
  0
VERTEX
  8
0
  6
CONTINUOUS
  10
114.667
  20
66.767
  30
0.000
  0
VERTEX
  8
0
  6
CONTINUOUS
  10
115.400
  20
66.733
  30
0.000
  0
VERTEX
  8
0
  6
CONTINUOUS
  10
115.333
  20
66.283
  30
0.000
  0
VERTEX
  8
0
  6
CONTINUOUS
  10
114.633
  20
63.333
  30
0.000
  0
VERTEX
  8
0
  6
CONTINUOUS
  10
113.567
  20
58.950
  30
0.000
  0
VERTEX
  8
0
  6
CONTINUOUS
  10
112.400
  20
56.733
  30
0.000
  0
VERTEX
  8
0
  6
CONTINUOUS
  10
111.350
  20
54.733
  30
0.000
  0
VERTEX
  8
0
  6
CONTINUOUS
  10
110.600
  20
53.300
  30
0.000
  0
VERTEX
  8
0
  6
CONTINUOUS
  10
110.200
  20
52.533
  30
0.000
  0
VERTEX
  8
0
  6
CONTINUOUS
  10
110.100
  20
52.350
  30
0.000
  0
VERTEX
  8
0
  6
CONTINUOUS
  10
110.217
  20
52.817
  30
0.000
  0
VERTEX
  8
0
  6
CONTINUOUS
  10
110.333
  20
53.350
  30
0.000
  0
VERTEX
  8
0
  6
CONTINUOUS
  10
110.283
  20
53.083
  30
0.000
  0
VERTEX
  8
0
  6
CONTINUOUS
  10
109.867
  20
51.933
  30
0.000
  0
VERTEX
  8
0
  6
CONTINUOUS
  10
109.017
  20
50.317
  30
0.000
  0
VERTEX
  8
0
  6
CONTINUOUS
  10
107.667
  20
48.500
  30
0.000
  0
VERTEX
  8
0
  6
CONTINUOUS
  10
105.733
  20
47.833
  30
0.000
  0
VERTEX
  8
0
  6
CONTINUOUS
  10
103.183
  20
46.933
  30
0.000
  0
VERTEX
  8
0
  6
CONTINUOUS
  10
100.017
  20
45.700
  30
0.000
  0
VERTEX
  8
0
  6
CONTINUOUS
  10
96.233
  20
43.900
  30
0.000
  0
VERTEX
  8
0
  6
CONTINUOUS
  10
91.900
  20
41.833
  30
0.000
  0
VERTEX
  8
0
  6
CONTINUOUS
  10
87.133
  20
39.583
  30
0.000
  0
VERTEX
  8
0
  6
CONTINUOUS
  10
82.100
  20
37.183
  30
0.000
  0
VERTEX
  8
0
  6
CONTINUOUS
  10
76.967
  20
34.733
  30
0.000
  0
VERTEX
  8
0
  6
CONTINUOUS
  10
71.883
  20
32.317
  30
0.000
  0
VERTEX
  8
0
  6
CONTINUOUS
  10
67.033
  20
30.017
  30
0.000
  0
VERTEX
  8
0
  6
CONTINUOUS
  10
62.583
  20
27.883
  30
0.000
  0
VERTEX
  8
0
  6
CONTINUOUS
  10
58.733
  20
26.050
  30
0.000
  0
VERTEX
  8
0
  6
CONTINUOUS
  10
55.650
  20
25.550
  30
0.000
  0
VERTEX
  8
0
  6
CONTINUOUS
  10
53.300
  20
25.650
  30
0.000
  0
VERTEX
  8
0
  6
CONTINUOUS
  10
51.600
  20
25.717
  30
0.000
  0
VERTEX
  8
0
  6
CONTINUOUS
  10
50.417
  20
25.767
  30
0.000
  0
VERTEX
  8
0
  6
CONTINUOUS
  10
49.733
  20
25.800
  30
0.000
  0
VERTEX
  8
0
  6
CONTINUOUS
  10
49.567
  20
25.817
  30
0.000
  0
VERTEX
  8
0
  6
CONTINUOUS
  10
49.933
  20
26.817
  30
0.000
  0
VERTEX
  8
0
  6
CONTINUOUS
  10
50.750
  20
29.000
  30
0.000
  0
VERTEX
  8
0
  6
CONTINUOUS
  10
51.783
  20
30.850
  30
0.000
  0
VERTEX
  8
0
  6
CONTINUOUS
  10
52.817
  20
31.217
  30
0.000
  0
VERTEX
  8
0
  6
CONTINUOUS
  10
53.783
  20
31.567
  30
0.000
  0
VERTEX
  8
0
  6
CONTINUOUS
  10
54.700
  20
31.883
  30
0.000
  0
VERTEX
  8
0
  6
CONTINUOUS
  10
55.617
  20
32.200
  30
0.000
  0
VERTEX
  8
0
  6
CONTINUOUS
  10
56.583
  20
32.550
  30
0.000
  0
VERTEX
  8
0
  6
CONTINUOUS
  10
57.633
  20
32.917
  30
0.000
  0
VERTEX
  8
0
  6
CONTINUOUS
  10
58.800
  20
33.333
  30
0.000
  0
VERTEX
  8
0
  6
CONTINUOUS
  10
60.117
  20
33.800
  30
0.000
  0
VERTEX
  8
0
  6
CONTINUOUS
  10
61.600
  20
34.317
  30
0.000
  0
VERTEX
  8
0
  6
CONTINUOUS
  10
63.233
  20
34.900
  30
0.000
  0
VERTEX
  8
0
  6
CONTINUOUS
  10
64.967
  20
35.617
  30
0.000
  0
VERTEX
  8
0
  6
CONTINUOUS
  10
66.617
  20
36.400
  30
0.000
  0
VERTEX
  8
0
  6
CONTINUOUS
  10
68.100
  20
37.117
  30
0.000
  0
VERTEX
  8
0
  6
CONTINUOUS
  10
69.400
  20
37.733
  30
0.000
  0
VERTEX
  8
0
  6
CONTINUOUS
  10
70.417
  20
38.217
  30
0.000
  0
VERTEX
  8
0
  6
CONTINUOUS
  10
71.117
  20
38.550
  30
0.000
  0
VERTEX
  8
0
  6
CONTINUOUS
  10
71.350
  20
38.667
  30
0.000
  0
VERTEX
  8
0
  6
CONTINUOUS
  10
71.150
  20
38.150
  30
0.000
  0
VERTEX
  8
0
  6
CONTINUOUS
  10
70.633
  20
36.733
  30
0.000
  0
VERTEX
  8
0
  6
CONTINUOUS
  10
70.017
  20
35.083
  30
0.000
  0
VERTEX
  8
0
  6
CONTINUOUS
  10
69.617
  20
33.967
  30
0.000
  0
VERTEX
  8
0
  6
CONTINUOUS
  10
69.650
  20
34.050
  30
0.000
  0
VERTEX
  8
0
  6
CONTINUOUS
  10
70.283
  20
35.733
  30
0.000
  0
VERTEX
  8
0
  6
CONTINUOUS
  10
71.550
  20
38.750
  30
0.000
  0
VERTEX
  8
0
  6
CONTINUOUS
  10
73.450
  20
39.650
  30
0.000
  0
VERTEX
  8
0
  6
CONTINUOUS
  10
75.867
  20
40.800
  30
0.000
  0
VERTEX
  8
0
  6
CONTINUOUS
  10
78.650
  20
42.117
  30
0.000
  0
VERTEX
  8
0
  6
CONTINUOUS
  10
81.650
  20
43.550
  30
0.000
  0
VERTEX
  8
0
  6
CONTINUOUS
  10
84.717
  20
45.017
  30
0.000
  0
VERTEX
  8
0
  6
CONTINUOUS
  10
87.783
  20
46.467
  30
0.000
  0
VERTEX
  8
0
  6
CONTINUOUS
  10
90.700
  20
47.867
  30
0.000
  0
VERTEX
  8
0
  6
CONTINUOUS
  10
93.400
  20
49.133
  30
0.000
  0
VERTEX
  8
0
  6
CONTINUOUS
  10
95.783
  20
50.283
  30
0.000
  0
VERTEX
  8
0
  6
CONTINUOUS
  10
97.850
  20
51.267
  30
0.000
  0
VERTEX
  8
0
  6
CONTINUOUS
  10
99.717
  20
52.150
  30
0.000
  0
VERTEX
  8
0
  6
CONTINUOUS
  10
101.517
  20
53.017
  30
0.000
  0
VERTEX
  8
0
  6
CONTINUOUS
  10
103.333
  20
53.867
  30
0.000
  0
VERTEX
  8
0
  6
CONTINUOUS
  10
105.100
  20
54.717
  30
0.000
  0
VERTEX
  8
0
  6
CONTINUOUS
  10
106.733
  20
55.500
  30
0.000
  0
VERTEX
  8
0
  6
CONTINUOUS
  10
108.117
  20
55.817
  30
0.000
  0
VERTEX
  8
0
  6
CONTINUOUS
  10
109.200
  20
55.767
  30
0.000
  0
VERTEX
  8
0
  6
CONTINUOUS
  10
109.833
  20
55.750
  30
0.000
  0
VERTEX
  8
0
  6
CONTINUOUS
  10
109.900
  20
55.633
  30
0.000
  0
VERTEX
  8
0
  6
CONTINUOUS
  10
109.350
  20
54.183
  30
0.000
  0
VERTEX
  8
0
  6
CONTINUOUS
  10
108.233
  20
51.150
  30
0.000
  0
VERTEX
  8
0
  6
CONTINUOUS
  10
106.650
  20
50.317
  30
0.000
  0
VERTEX
  8
0
  6
CONTINUOUS
  10
104.667
  20
49.617
  30
0.000
  0
VERTEX
  8
0
  6
CONTINUOUS
  10
102.317
  20
48.800
  30
0.000
  0
VERTEX
  8
0
  6
CONTINUOUS
  10
99.667
  20
47.850
  30
0.000
  0
VERTEX
  8
0
  6
CONTINUOUS
  10
96.700
  20
46.817
  30
0.000
  0
VERTEX
  8
0
  6
CONTINUOUS
  10
93.517
  20
45.450
  30
0.000
  0
VERTEX
  8
0
  6
CONTINUOUS
  10
90.183
  20
43.867
  30
0.000
  0
VERTEX
  8
0
  6
CONTINUOUS
  10
86.900
  20
42.300
  30
0.000
  0
VERTEX
  8
0
  6
CONTINUOUS
  10
83.817
  20
40.833
  30
0.000
  0
VERTEX
  8
0
  6
CONTINUOUS
  10
81.117
  20
39.550
  30
0.000
  0
VERTEX
  8
0
  6
CONTINUOUS
  10
78.883
  20
38.483
  30
0.000
  0
VERTEX
  8
0
  6
CONTINUOUS
  10
77.233
  20
37.700
  30
0.000
  0
VERTEX
  8
0
  6
CONTINUOUS
  10
76.167
  20
37.183
  30
0.000
  0
VERTEX
  8
0
  6
CONTINUOUS
  10
75.600
  20
36.900
  30
0.000
  0
VERTEX
  8
0
  6
CONTINUOUS
  10
75.367
  20
36.800
  30
0.000
  0
VERTEX
  8
0
  6
CONTINUOUS
  10
75.367
  20
36.817
  30
0.000
  0
VERTEX
  8
0
  6
CONTINUOUS
  10
75.450
  20
37.050
  30
0.000
  0
VERTEX
  8
0
  6
CONTINUOUS
  10
75.500
  20
37.200
  30
0.000
  0
VERTEX
  8
0
  6
CONTINUOUS
  10
75.450
  20
37.050
  30
0.000
  0
VERTEX
  8
0
  6
CONTINUOUS
  10
75.300
  20
36.767
  30
0.000
  0
VERTEX
  8
0
  6
CONTINUOUS
  10
75.083
  20
36.667
  30
0.000
  0
VERTEX
  8
0
  6
CONTINUOUS
  10
74.883
  20
36.567
  30
0.000
  0
VERTEX
  8
0
  6
CONTINUOUS
  10
74.767
  20
36.517
  30
0.000
  0
VERTEX
  8
0
  6
CONTINUOUS
  10
74.783
  20
36.567
  30
0.000
  0
VERTEX
  8
0
  6
CONTINUOUS
  10
74.967
  20
37.067
  30
0.000
  0
VERTEX
  8
0
  6
CONTINUOUS
  10
75.350
  20
38.100
  30
0.000
  0
VERTEX
  8
0
  6
CONTINUOUS
  10
75.967
  20
39.767
  30
0.000
  0
VERTEX
  8
0
  6
CONTINUOUS
  10
76.817
  20
41.500
  30
0.000
  0
VERTEX
  8
0
  6
CONTINUOUS
  10
77.950
  20
41.900
  30
0.000
  0
VERTEX
  8
0
  6
CONTINUOUS
  10
79.333
  20
42.383
  30
0.000
  0
VERTEX
  8
0
  6
CONTINUOUS
  10
80.900
  20
42.933
  30
0.000
  0
VERTEX
  8
0
  6
CONTINUOUS
  10
82.600
  20
43.533
  30
0.000
  0
VERTEX
  8
0
  6
CONTINUOUS
  10
84.350
  20
44.150
  30
0.000
  0
VERTEX
  8
0
  6
CONTINUOUS
  10
86.100
  20
44.767
  30
0.000
  0
VERTEX
  8
0
  6
CONTINUOUS
  10
87.783
  20
45.367
  30
0.000
  0
VERTEX
  8
0
  6
CONTINUOUS
  10
89.417
  20
45.967
  30
0.000
  0
VERTEX
  8
0
  6
CONTINUOUS
  10
90.917
  20
46.683
  30
0.000
  0
VERTEX
  8
0
  6
CONTINUOUS
  10
92.183
  20
47.283
  30
0.000
  0
VERTEX
  8
0
  6
CONTINUOUS
  10
93.167
  20
47.750
  30
0.000
  0
VERTEX
  8
0
  6
CONTINUOUS
  10
93.767
  20
48.050
  30
0.000
  0
VERTEX
  8
0
  6
CONTINUOUS
  10
93.983
  20
48.150
  30
0.000
  0
VERTEX
  8
0
  6
CONTINUOUS
  10
93.767
  20
47.617
  30
0.000
  0
VERTEX
  8
0
  6
CONTINUOUS
  10
93.233
  20
46.167
  30
0.000
  0
VERTEX
  8
0
  6
CONTINUOUS
  10
92.483
  20
44.133
  30
0.000
  0
VERTEX
  8
0
  6
CONTINUOUS
  10
91.667
  20
43.067
  30
0.000
  0
VERTEX
  8
0
  6
CONTINUOUS
  10
90.833
  20
42.767
  30
0.000
  0
VERTEX
  8
0
  6
CONTINUOUS
  10
90.000
  20
42.467
  30
0.000
  0
VERTEX
  8
0
  6
CONTINUOUS
  10
89.167
  20
42.183
  30
0.000
  0
VERTEX
  8
0
  6
CONTINUOUS
  10
88.317
  20
41.883
  30
0.000
  0
VERTEX
  8
0
  6
CONTINUOUS
  10
87.400
  20
41.550
  30
0.000
  0
VERTEX
  8
0
  6
CONTINUOUS
  10
86.400
  20
41.200
  30
0.000
  0
VERTEX
  8
0
  6
CONTINUOUS
  10
85.333
  20
40.833
  30
0.000
  0
VERTEX
  8
0
  6
CONTINUOUS
  10
84.167
  20
40.417
  30
0.000
  0
VERTEX
  8
0
  6
CONTINUOUS
  10
82.933
  20
39.983
  30
0.000
  0
VERTEX
  8
0
  6
CONTINUOUS
  10
81.617
  20
39.517
  30
0.000
  0
VERTEX
  8
0
  6
CONTINUOUS
  10
80.217
  20
39.033
  30
0.000
  0
VERTEX
  8
0
  6
CONTINUOUS
  10
78.767
  20
38.433
  30
0.000
  0
VERTEX
  8
0
  6
CONTINUOUS
  10
77.300
  20
37.733
  30
0.000
  0
VERTEX
  8
0
  6
CONTINUOUS
  10
75.900
  20
37.050
  30
0.000
  0
VERTEX
  8
0
  6
CONTINUOUS
  10
74.667
  20
36.467
  30
0.000
  0
VERTEX
  8
0
  6
CONTINUOUS
  10
73.750
  20
36.033
  30
0.000
  0
VERTEX
  8
0
  6
CONTINUOUS
  10
73.200
  20
35.767
  30
0.000
  0
VERTEX
  8
0
  6
CONTINUOUS
  10
73.083
  20
35.700
  30
0.000
  0
VERTEX
  8
0
  6
CONTINUOUS
  10
73.317
  20
36.317
  30
0.000
  0
VERTEX
  8
0
  6
CONTINUOUS
  10
73.783
  20
37.600
  30
0.000
  0
VERTEX
  8
0
  6
CONTINUOUS
  10
74.383
  20
39.200
  30
0.000
  0
VERTEX
  8
0
  6
CONTINUOUS
  10
74.983
  20
40.650
  30
0.000
  0
VERTEX
  8
0
  6
CONTINUOUS
  10
75.500
  20
40.833
  30
0.000
  0
VERTEX
  8
0
  6
CONTINUOUS
  10
75.933
  20
40.983
  30
0.000
  0
VERTEX
  8
0
  6
CONTINUOUS
  10
76.233
  20
41.100
  30
0.000
  0
VERTEX
  8
0
  6
CONTINUOUS
  10
76.400
  20
41.150
  30
0.000
  0
VERTEX
  8
0
  6
CONTINUOUS
  10
76.467
  20
41.167
  30
0.000
  0
VERTEX
  8
0
  6
CONTINUOUS
  10
76.433
  20
41.083
  30
0.000
  0
VERTEX
  8
0
  6
CONTINUOUS
  10
76.350
  20
40.867
  30
0.000
  0
VERTEX
  8
0
  6
CONTINUOUS
  10
76.233
  20
40.550
  30
0.000
  0
VERTEX
  8
0
  6
CONTINUOUS
  10
76.083
  20
40.167
  30
0.000
  0
VERTEX
  8
0
  6
CONTINUOUS
  10
75.917
  20
39.700
  30
0.000
  0
VERTEX
  8
0
  6
CONTINUOUS
  10
75.700
  20
39.100
  30
0.000
  0
VERTEX
  8
0
  6
CONTINUOUS
  10
75.417
  20
38.333
  30
0.000
  0
VERTEX
  8
0
  6
CONTINUOUS
  10
75.083
  20
37.433
  30
0.000
  0
VERTEX
  8
0
  6
CONTINUOUS
  10
74.767
  20
36.567
  30
0.000
  0
VERTEX
  8
0
  6
CONTINUOUS
  10
74.533
  20
36.217
  30
0.000
  0
VERTEX
  8
0
  6
CONTINUOUS
  10
74.467
  20
36.200
  30
0.000
  0
VERTEX
  8
0
  6
CONTINUOUS
  10
74.600
  20
36.583
  30
0.000
  0
VERTEX
  8
0
  6
CONTINUOUS
  10
74.983
  20
37.583
  30
0.000
  0
VERTEX
  8
0
  6
CONTINUOUS
  10
75.567
  20
39.183
  30
0.000
  0
VERTEX
  8
0
  6
CONTINUOUS
  10
76.333
  20
41.133
  30
0.000
  0
VERTEX
  8
0
  6
CONTINUOUS
  10
77.200
  20
41.433
  30
0.000
  0
VERTEX
  8
0
  6
CONTINUOUS
  10
78.117
  20
41.750
  30
0.000
  0
VERTEX
  8
0
  6
CONTINUOUS
  10
79.017
  20
42.067
  30
0.000
  0
VERTEX
  8
0
  6
CONTINUOUS
  10
79.833
  20
42.367
  30
0.000
  0
VERTEX
  8
0
  6
CONTINUOUS
  10
80.517
  20
42.600
  30
0.000
  0
VERTEX
  8
0
  6
CONTINUOUS
  10
81.033
  20
42.783
  30
0.000
  0
VERTEX
  8
0
  6
CONTINUOUS
  10
81.350
  20
42.900
  30
0.000
  0
VERTEX
  8
0
  6
CONTINUOUS
  10
81.483
  20
42.950
  30
0.000
  0
VERTEX
  8
0
  6
CONTINUOUS
  10
81.433
  20
42.833
  30
0.000
  0
VERTEX
  8
0
  6
CONTINUOUS
  10
81.267
  20
42.367
  30
0.000
  0
VERTEX
  8
0
  6
CONTINUOUS
  10
81.050
  20
41.767
  30
0.000
  0
VERTEX
  8
0
  6
CONTINUOUS
  10
80.867
  20
41.283
  30
0.000
  0
VERTEX
  8
0
  6
CONTINUOUS
  10
80.783
  20
41.067
  30
0.000
  0
VERTEX
  8
0
  6
CONTINUOUS
  10
80.867
  20
41.283
  30
0.000
  0
VERTEX
  8
0
  6
CONTINUOUS
  10
81.117
  20
41.983
  30
0.000
  0
VERTEX
  8
0
  6
CONTINUOUS
  10
81.533
  20
42.967
  30
0.000
  0
VERTEX
  8
0
  6
CONTINUOUS
  10
82.100
  20
43.167
  30
0.000
  0
VERTEX
  8
0
  6
CONTINUOUS
  10
82.800
  20
43.417
  30
0.000
  0
VERTEX
  8
0
  6
CONTINUOUS
  10
83.650
  20
43.700
  30
0.000
  0
VERTEX
  8
0
  6
CONTINUOUS
  10
84.583
  20
44.033
  30
0.000
  0
VERTEX
  8
0
  6
CONTINUOUS
  10
85.550
  20
44.383
  30
0.000
  0
VERTEX
  8
0
  6
CONTINUOUS
  10
86.517
  20
44.717
  30
0.000
  0
VERTEX
  8
0
  6
CONTINUOUS
  10
87.400
  20
45.033
  30
0.000
  0
VERTEX
  8
0
  6
CONTINUOUS
  10
88.133
  20
45.367
  30
0.000
  0
VERTEX
  8
0
  6
CONTINUOUS
  10
88.650
  20
45.617
  30
0.000
  0
VERTEX
  8
0
  6
CONTINUOUS
  10
88.883
  20
45.733
  30
0.000
  0
VERTEX
  8
0
  6
CONTINUOUS
  10
88.817
  20
45.500
  30
0.000
  0
VERTEX
  8
0
  6
CONTINUOUS
  10
88.433
  20
44.483
  30
0.000
  0
VERTEX
  8
0
  6
CONTINUOUS
  10
87.817
  20
42.817
  30
0.000
  0
VERTEX
  8
0
  6
CONTINUOUS
  10
87.100
  20
40.850
  30
0.000
  0
VERTEX
  8
0
  6
CONTINUOUS
  10
86.383
  20
40.567
  30
0.000
  0
VERTEX
  8
0
  6
CONTINUOUS
  10
85.750
  20
40.350
  30
0.000
  0
VERTEX
  8
0
  6
CONTINUOUS
  10
85.200
  20
40.150
  30
0.000
  0
VERTEX
  8
0
  6
CONTINUOUS
  10
84.733
  20
39.983
  30
0.000
  0
VERTEX
  8
0
  6
CONTINUOUS
  10
84.317
  20
39.850
  30
0.000
  0
VERTEX
  8
0
  6
CONTINUOUS
  10
84.017
  20
39.733
  30
0.000
  0
VERTEX
  8
0
  6
CONTINUOUS
  10
83.850
  20
39.667
  30
0.000
  0
VERTEX
  8
0
  6
CONTINUOUS
  10
83.850
  20
39.717
  30
0.000
  0
VERTEX
  8
0
  6
CONTINUOUS
  10
84.017
  20
40.183
  30
0.000
  0
VERTEX
  8
0
  6
CONTINUOUS
  10
84.367
  20
41.133
  30
0.000
  0
VERTEX
  8
0
  6
CONTINUOUS
  10
84.850
  20
42.433
  30
0.000
  0
VERTEX
  8
0
  6
CONTINUOUS
  10
85.367
  20
43.850
  30
0.000
  0
VERTEX
  8
0
  6
CONTINUOUS
  10
85.833
  20
44.650
  30
0.000
  0
VERTEX
  8
0
  6
CONTINUOUS
  10
86.150
  20
44.767
  30
0.000
  0
VERTEX
  8
0
  6
CONTINUOUS
  10
86.317
  20
44.817
  30
0.000
  0
VERTEX
  8
0
  6
CONTINUOUS
  10
86.317
  20
44.783
  30
0.000
  0
VERTEX
  8
0
  6
CONTINUOUS
  10
86.133
  20
44.283
  30
0.000
  0
VERTEX
  8
0
  6
CONTINUOUS
  10
85.767
  20
43.283
  30
0.000
  0
VERTEX
  8
0
  6
CONTINUOUS
  10
85.233
  20
41.850
  30
0.000
  0
VERTEX
  8
0
  6
CONTINUOUS
  10
84.617
  20
40.150
  30
0.000
  0
VERTEX
  8
0
  6
CONTINUOUS
  10
83.983
  20
39.717
  30
0.000
  0
VERTEX
  8
0
  6
CONTINUOUS
  10
83.383
  20
39.517
  30
0.000
  0
VERTEX
  8
0
  6
CONTINUOUS
  10
82.850
  20
39.333
  30
0.000
  0
VERTEX
  8
0
  6
CONTINUOUS
  10
82.417
  20
39.167
  30
0.000
  0
VERTEX
  8
0
  6
CONTINUOUS
  10
82.050
  20
39.033
  30
0.000
  0
VERTEX
  8
0
  6
CONTINUOUS
  10
81.767
  20
38.950
  30
0.000
  0
VERTEX
  8
0
  6
CONTINUOUS
  10
81.583
  20
38.883
  30
0.000
  0
VERTEX
  8
0
  6
CONTINUOUS
  10
81.483
  20
38.833
  30
0.000
  0
VERTEX
  8
0
  6
CONTINUOUS
  10
81.433
  20
38.833
  30
0.000
  0
VERTEX
  8
0
  6
CONTINUOUS
  10
81.417
  20
38.817
  30
0.000
  0
VERTEX
  8
0
  6
CONTINUOUS
  10
81.383
  20
38.800
  30
0.000
  0
VERTEX
  8
0
  6
CONTINUOUS
  10
81.300
  20
38.783
  30
0.000
  0
VERTEX
  8
0
  6
CONTINUOUS
  10
81.167
  20
38.733
  30
0.000
  0
VERTEX
  8
0
  6
CONTINUOUS
  10
80.950
  20
38.650
  30
0.000
  0
VERTEX
  8
0
  6
CONTINUOUS
  10
80.683
  20
38.550
  30
0.000
  0
VERTEX
  8
0
  6
CONTINUOUS
  10
80.350
  20
38.450
  30
0.000
  0
VERTEX
  8
0
  6
CONTINUOUS
  10
80.017
  20
38.317
  30
0.000
  0
VERTEX
  8
0
  6
CONTINUOUS
  10
79.700
  20
38.217
  30
0.000
  0
VERTEX
  8
0
  6
CONTINUOUS
  10
79.433
  20
38.117
  30
0.000
  0
VERTEX
  8
0
  6
CONTINUOUS
  10
79.267
  20
38.067
  30
0.000
  0
VERTEX
  8
0
  6
CONTINUOUS
  10
79.233
  20
38.050
  30
0.000
  0
VERTEX
  8
0
  6
CONTINUOUS
  10
79.350
  20
38.367
  30
0.000
  0
VERTEX
  8
0
  6
CONTINUOUS
  10
79.633
  20
39.100
  30
0.000
  0
VERTEX
  8
0
  6
CONTINUOUS
  10
80.033
  20
40.200
  30
0.000
  0
VERTEX
  8
0
  6
CONTINUOUS
  10
80.550
  20
41.600
  30
0.000
  0
VERTEX
  8
0
  6
CONTINUOUS
  10
81.117
  20
42.983
  30
0.000
  0
VERTEX
  8
0
  6
CONTINUOUS
  10
81.667
  20
43.167
  30
0.000
  0
VERTEX
  8
0
  6
CONTINUOUS
  10
82.183
  20
43.350
  30
0.000
  0
VERTEX
  8
0
  6
CONTINUOUS
  10
82.650
  20
43.517
  30
0.000
  0
VERTEX
  8
0
  6
CONTINUOUS
  10
83.033
  20
43.650
  30
0.000
  0
VERTEX
  8
0
  6
CONTINUOUS
  10
83.317
  20
43.767
  30
0.000
  0
VERTEX
  8
0
  6
CONTINUOUS
  10
83.500
  20
43.817
  30
0.000
  0
VERTEX
  8
0
  6
CONTINUOUS
  10
83.567
  20
43.850
  30
0.000
  0
VERTEX
  8
0
  6
CONTINUOUS
  10
83.533
  20
43.733
  30
0.000
  0
VERTEX
  8
0
  6
CONTINUOUS
  10
83.367
  20
43.333
  30
0.000
  0
VERTEX
  8
0
  6
CONTINUOUS
  10
83.117
  20
42.633
  30
0.000
  0
VERTEX
  8
0
  6
CONTINUOUS
  10
82.800
  20
41.783
  30
0.000
  0
VERTEX
  8
0
  6
CONTINUOUS
  10
82.450
  20
40.817
  30
0.000
  0
VERTEX
  8
0
  6
CONTINUOUS
  10
82.083
  20
39.833
  30
0.000
  0
VERTEX
  8
0
  6
CONTINUOUS
  10
81.717
  20
38.917
  30
0.000
  0
VERTEX
  8
0
  6
CONTINUOUS
  10
81.350
  20
38.800
  30
0.000
  0
VERTEX
  8
0
  6
CONTINUOUS
  10
80.983
  20
38.667
  30
0.000
  0
VERTEX
  8
0
  6
CONTINUOUS
  10
80.633
  20
38.533
  30
0.000
  0
VERTEX
  8
0
  6
CONTINUOUS
  10
80.283
  20
38.417
  30
0.000
  0
VERTEX
  8
0
  6
CONTINUOUS
  10
80.000
  20
38.317
  30
0.000
  0
VERTEX
  8
0
  6
CONTINUOUS
  10
79.800
  20
38.250
  30
0.000
  0
VERTEX
  8
0
  6
CONTINUOUS
  10
79.683
  20
38.200
  30
0.000
  0
VERTEX
  8
0
  6
CONTINUOUS
  10
79.683
  20
38.217
  30
0.000
  0
VERTEX
  8
0
  6
CONTINUOUS
  10
79.783
  20
38.500
  30
0.000
  0
VERTEX
  8
0
  6
CONTINUOUS
  10
79.983
  20
39.033
  30
0.000
  0
VERTEX
  8
0
  6
CONTINUOUS
  10
80.250
  20
39.783
  30
0.000
  0
VERTEX
  8
0
  6
CONTINUOUS
  10
80.583
  20
40.650
  30
0.000
  0
VERTEX
  8
0
  6
CONTINUOUS
  10
80.933
  20
41.600
  30
0.000
  0
VERTEX
  8
0
  6
CONTINUOUS
  10
81.300
  20
42.617
  30
0.000
  0
VERTEX
  8
0
  6
CONTINUOUS
  10
81.700
  20
43.183
  30
0.000
  0
VERTEX
  8
0
  6
CONTINUOUS
  10
82.133
  20
43.333
  30
0.000
  0
VERTEX
  8
0
  6
CONTINUOUS
  10
82.617
  20
43.517
  30
0.000
  0
VERTEX
  8
0
  6
CONTINUOUS
  10
83.150
  20
43.700
  30
0.000
  0
VERTEX
  8
0
  6
CONTINUOUS
  10
83.717
  20
43.900
  30
0.000
  0
VERTEX
  8
0
  6
CONTINUOUS
  10
84.333
  20
44.117
  30
0.000
  0
VERTEX
  8
0
  6
CONTINUOUS
  10
84.933
  20
44.333
  30
0.000
  0
VERTEX
  8
0
  6
CONTINUOUS
  10
85.500
  20
44.533
  30
0.000
  0
VERTEX
  8
0
  6
CONTINUOUS
  10
86.017
  20
44.717
  30
0.000
  0
VERTEX
  8
0
  6
CONTINUOUS
  10
86.483
  20
44.867
  30
0.000
  0
VERTEX
  8
0
  6
CONTINUOUS
  10
86.833
  20
45.000
  30
0.000
  0
VERTEX
  8
0
  6
CONTINUOUS
  10
87.067
  20
45.083
  30
0.000
  0
VERTEX
  8
0
  6
CONTINUOUS
  10
87.150
  20
45.117
  30
0.000
  0
VERTEX
  8
0
  6
CONTINUOUS
  10
87.067
  20
44.900
  30
0.000
  0
VERTEX
  8
0
  6
CONTINUOUS
  10
86.833
  20
44.283
  30
0.000
  0
VERTEX
  8
0
  6
CONTINUOUS
  10
86.500
  20
43.367
  30
0.000
  0
VERTEX
  8
0
  6
CONTINUOUS
  10
86.083
  20
42.250
  30
0.000
  0
VERTEX
  8
0
  6
CONTINUOUS
  10
85.667
  20
41.133
  30
0.000
  0
VERTEX
  8
0
  6
CONTINUOUS
  10
85.300
  20
40.183
  30
0.000
  0
VERTEX
  8
0
  6
CONTINUOUS
  10
85.017
  20
40.083
  30
0.000
  0
VERTEX
  8
0
  6
CONTINUOUS
  10
84.817
  20
40.017
  30
0.000
  0
VERTEX
  8
0
  6
CONTINUOUS
  10
84.717
  20
39.983
  30
0.000
  0
VERTEX
  8
0
  6
CONTINUOUS
  10
84.733
  20
40.033
  30
0.000
  0
VERTEX
  8
0
  6
CONTINUOUS
  10
84.850
  20
40.350
  30
0.000
  0
VERTEX
  8
0
  6
CONTINUOUS
  10
85.050
  20
40.900
  30
0.000
  0
VERTEX
  8
0
  6
CONTINUOUS
  10
85.300
  20
41.550
  30
0.000
  0
VERTEX
  8
0
  6
CONTINUOUS
  10
85.533
  20
42.200
  30
0.000
  0
VERTEX
  8
0
  6
CONTINUOUS
  10
85.733
  20
42.750
  30
0.000
  0
VERTEX
  8
0
  6
CONTINUOUS
  10
85.883
  20
43.167
  30
0.000
  0
VERTEX
  8
0
  6
CONTINUOUS
  10
85.967
  20
43.383
  30
0.000
  0
VERTEX
  8
0
  6
CONTINUOUS
  10
85.983
  20
43.400
  30
0.000
  0
VERTEX
  8
0
  6
CONTINUOUS
  10
85.933
  20
43.267
  30
0.000
  0
VERTEX
  8
0
  6
CONTINUOUS
  10
85.800
  20
42.950
  30
0.000
  0
VERTEX
  8
0
  6
CONTINUOUS
  10
85.617
  20
42.417
  30
0.000
  0
VERTEX
  8
0
  6
CONTINUOUS
  10
85.367
  20
41.750
  30
0.000
  0
VERTEX
  8
0
  6
CONTINUOUS
  10
85.100
  20
41.033
  30
0.000
  0
VERTEX
  8
0
  6
CONTINUOUS
  10
84.850
  20
40.367
  30
0.000
  0
VERTEX
  8
0
  6
CONTINUOUS
  10
84.667
  20
39.967
  30
0.000
  0
VERTEX
  8
0
  6
CONTINUOUS
  10
84.550
  20
39.917
  30
0.000
  0
VERTEX
  8
0
  6
CONTINUOUS
  10
84.500
  20
39.900
  30
0.000
  0
VERTEX
  8
0
  6
CONTINUOUS
  10
84.500
  20
39.933
  30
0.000
  0
VERTEX
  8
0
  6
CONTINUOUS
  10
84.583
  20
40.150
  30
0.000
  0
VERTEX
  8
0
  6
CONTINUOUS
  10
84.750
  20
40.617
  30
0.000
  0
VERTEX
  8
0
  6
CONTINUOUS
  10
85.000
  20
41.300
  30
0.000
  0
VERTEX
  8
0
  6
CONTINUOUS
  10
85.317
  20
42.150
  30
0.000
  0
VERTEX
  8
0
  6
CONTINUOUS
  10
85.667
  20
43.067
  30
0.000
  0
VERTEX
  8
0
  6
CONTINUOUS
  10
85.983
  20
43.950
  30
0.000
  0
VERTEX
  8
0
  6
CONTINUOUS
  10
86.267
  20
44.717
  30
0.000
  0
VERTEX
  8
0
  6
CONTINUOUS
  10
86.483
  20
44.883
  30
0.000
  0
VERTEX
  8
0
  6
CONTINUOUS
  10
86.667
  20
44.933
  30
0.000
  0
VERTEX
  8
0
  6
CONTINUOUS
  10
86.783
  20
44.983
  30
0.000
  0
VERTEX
  8
0
  6
CONTINUOUS
  10
86.817
  20
45.000
  30
0.000
  0
VERTEX
  8
0
  6
CONTINUOUS
  10
86.767
  20
44.883
  30
0.000
  0
VERTEX
  8
0
  6
CONTINUOUS
  10
86.667
  20
44.617
  30
0.000
  0
VERTEX
  8
0
  6
CONTINUOUS
  10
86.517
  20
44.183
  30
0.000
  0
VERTEX
  8
0
  6
CONTINUOUS
  10
86.300
  20
43.633
  30
0.000
  0
VERTEX
  8
0
  6
CONTINUOUS
  10
86.067
  20
42.983
  30
0.000
  0
VERTEX
  8
0
  6
CONTINUOUS
  10
85.800
  20
42.283
  30
0.000
  0
VERTEX
  8
0
  6
CONTINUOUS
  10
85.550
  20
41.600
  30
0.000
  0
VERTEX
  8
0
  6
CONTINUOUS
  10
85.317
  20
40.950
  30
0.000
  0
VERTEX
  8
0
  6
CONTINUOUS
  10
85.100
  20
40.350
  30
0.000
  0
VERTEX
  8
0
  6
CONTINUOUS
  10
84.883
  20
40.050
  30
0.000
  0
VERTEX
  8
0
  6
CONTINUOUS
  10
84.683
  20
39.967
  30
0.000
  0
VERTEX
  8
0
  6
CONTINUOUS
  10
84.517
  20
39.917
  30
0.000
  0
VERTEX
  8
0
  6
CONTINUOUS
  10
84.367
  20
39.867
  30
0.000
  0
VERTEX
  8
0
  6
CONTINUOUS
  10
84.300
  20
39.833
  30
0.000
  0
VERTEX
  8
0
  6
CONTINUOUS
  10
84.283
  20
39.833
  30
0.000
  0
VERTEX
  8
0
  6
CONTINUOUS
  10
84.350
  20
40.017
  30
0.000
  0
VERTEX
  8
0
  6
CONTINUOUS
  10
84.500
  20
40.400
  30
0.000
  0
VERTEX
  8
0
  6
CONTINUOUS
  10
84.700
  20
40.950
  30
0.000
  0
VERTEX
  8
0
  6
CONTINUOUS
  10
84.950
  20
41.617
  30
0.000
  0
VERTEX
  8
0
  6
CONTINUOUS
  10
85.183
  20
42.233
  30
0.000
  0
VERTEX
  8
0
  6
CONTINUOUS
  10
85.350
  20
42.700
  30
0.000
  0
VERTEX
  8
0
  6
CONTINUOUS
  10
85.400
  20
42.867
  30
0.000
  0
VERTEX
  8
0
  6
CONTINUOUS
  10
85.350
  20
42.717
  30
0.000
  0
VERTEX
  8
0
  6
CONTINUOUS
  10
85.167
  20
42.233
  30
0.000
  0
VERTEX
  8
0
  6
CONTINUOUS
  10
84.917
  20
41.533
  30
0.000
  0
VERTEX
  8
0
  6
CONTINUOUS
  10
84.617
  20
40.733
  30
0.000
  0
VERTEX
  8
0
  6
CONTINUOUS
  10
84.317
  20
39.933
  30
0.000
  0
VERTEX
  8
0
  6
CONTINUOUS
  10
84.050
  20
39.750
  30
0.000
  0
VERTEX
  8
0
  6
CONTINUOUS
  10
83.817
  20
39.667
  30
0.000
  0
VERTEX
  8
0
  6
CONTINUOUS
  10
83.617
  20
39.600
  30
0.000
  0
VERTEX
  8
0
  6
CONTINUOUS
  10
83.467
  20
39.550
  30
0.000
  0
VERTEX
  8
0
  6
CONTINUOUS
  10
83.383
  20
39.517
  30
0.000
  0
VERTEX
  8
0
  6
CONTINUOUS
  10
83.367
  20
39.517
  30
0.000
  0
VERTEX
  8
0
  6
CONTINUOUS
  10
83.433
  20
39.683
  30
0.000
  0
VERTEX
  8
0
  6
CONTINUOUS
  10
83.600
  20
40.100
  30
0.000
  0
VERTEX
  8
0
  6
CONTINUOUS
  10
83.850
  20
40.783
  30
0.000
  0
VERTEX
  8
0
  6
CONTINUOUS
  10
84.150
  20
41.633
  30
0.000
  0
VERTEX
  8
0
  6
CONTINUOUS
  10
84.483
  20
42.533
  30
0.000
  0
VERTEX
  8
0
  6
CONTINUOUS
  10
84.800
  20
43.383
  30
0.000
  0
VERTEX
  8
0
  6
CONTINUOUS
  10
85.083
  20
44.150
  30
0.000
  0
VERTEX
  8
0
  6
CONTINUOUS
  10
85.317
  20
44.467
  30
0.000
  0
VERTEX
  8
0
  6
CONTINUOUS
  10
85.500
  20
44.533
  30
0.000
  0
VERTEX
  8
0
  6
CONTINUOUS
  10
85.617
  20
44.567
  30
0.000
  0
VERTEX
  8
0
  6
CONTINUOUS
  10
85.700
  20
44.600
  30
0.000
  0
VERTEX
  8
0
  6
CONTINUOUS
  10
85.783
  20
44.633
  30
0.000
  0
VERTEX
  8
0
  6
CONTINUOUS
  10
85.867
  20
44.667
  30
0.000
  0
VERTEX
  8
0
  6
CONTINUOUS
  10
85.983
  20
44.700
  30
0.000
  0
VERTEX
  8
0
  6
CONTINUOUS
  10
86.133
  20
44.750
  30
0.000
  0
VERTEX
  8
0
  6
CONTINUOUS
  10
86.300
  20
44.817
  30
0.000
  0
VERTEX
  8
0
  6
CONTINUOUS
  10
86.517
  20
44.883
  30
0.000
  0
VERTEX
  8
0
  6
CONTINUOUS
  10
86.750
  20
44.967
  30
0.000
  0
VERTEX
  8
0
  6
CONTINUOUS
  10
87.033
  20
45.067
  30
0.000
  0
VERTEX
  8
0
  6
CONTINUOUS
  10
87.317
  20
45.167
  30
0.000
  0
VERTEX
  8
0
  6
CONTINUOUS
  10
87.583
  20
45.267
  30
0.000
  0
VERTEX
  8
0
  6
CONTINUOUS
  10
87.783
  20
45.333
  30
0.000
  0
VERTEX
  8
0
  6
CONTINUOUS
  10
87.867
  20
45.367
  30
0.000
  0
VERTEX
  8
0
  6
CONTINUOUS
  10
87.817
  20
45.217
  30
0.000
  0
VERTEX
  8
0
  6
CONTINUOUS
  10
87.583
  20
44.600
  30
0.000
  0
VERTEX
  8
0
  6
CONTINUOUS
  10
87.167
  20
43.467
  30
0.000
  0
VERTEX
  8
0
  6
CONTINUOUS
  10
86.567
  20
41.833
  30
0.000
  0
VERTEX
  8
0
  6
CONTINUOUS
  10
85.800
  20
40.367
  30
0.000
  0
VERTEX
  8
0
  6
CONTINUOUS
  10
84.917
  20
40.050
  30
0.000
  0
VERTEX
  8
0
  6
CONTINUOUS
  10
83.900
  20
39.700
  30
0.000
  0
VERTEX
  8
0
  6
CONTINUOUS
  10
82.750
  20
39.300
  30
0.000
  0
VERTEX
  8
0
  6
CONTINUOUS
  10
81.483
  20
38.850
  30
0.000
  0
VERTEX
  8
0
  6
CONTINUOUS
  10
80.150
  20
38.383
  30
0.000
  0
VERTEX
  8
0
  6
CONTINUOUS
  10
78.817
  20
37.900
  30
0.000
  0
VERTEX
  8
0
  6
CONTINUOUS
  10
77.533
  20
37.450
  30
0.000
  0
VERTEX
  8
0
  6
CONTINUOUS
  10
76.367
  20
37.033
  30
0.000
  0
VERTEX
  8
0
  6
CONTINUOUS
  10
75.317
  20
36.667
  30
0.000
  0
VERTEX
  8
0
  6
CONTINUOUS
  10
74.450
  20
36.367
  30
0.000
  0
VERTEX
  8
0
  6
CONTINUOUS
  10
73.767
  20
36.050
  30
0.000
  0
VERTEX
  8
0
  6
CONTINUOUS
  10
73.283
  20
35.800
  30
0.000
  0
VERTEX
  8
0
  6
CONTINUOUS
  10
72.983
  20
35.667
  30
0.000
  0
VERTEX
  8
0
  6
CONTINUOUS
  10
72.833
  20
35.600
  30
0.000
  0
VERTEX
  8
0
  6
CONTINUOUS
  10
72.833
  20
35.633
  30
0.000
  0
VERTEX
  8
0
  6
CONTINUOUS
  10
72.967
  20
35.983
  30
0.000
  0
VERTEX
  8
0
  6
CONTINUOUS
  10
73.183
  20
36.567
  30
0.000
  0
VERTEX
  8
0
  6
CONTINUOUS
  10
73.467
  20
37.317
  30
0.000
  0
VERTEX
  8
0
  6
CONTINUOUS
  10
73.767
  20
38.167
  30
0.000
  0
VERTEX
  8
0
  6
CONTINUOUS
  10
74.100
  20
39.050
  30
0.000
  0
VERTEX
  8
0
  6
CONTINUOUS
  10
74.417
  20
39.917
  30
0.000
  0
VERTEX
  8
0
  6
CONTINUOUS
  10
74.733
  20
40.533
  30
0.000
  0
VERTEX
  8
0
  6
CONTINUOUS
  10
75.067
  20
40.650
  30
0.000
  0
VERTEX
  8
0
  6
CONTINUOUS
  10
75.433
  20
40.783
  30
0.000
  0
VERTEX
  8
0
  6
CONTINUOUS
  10
75.867
  20
40.933
  30
0.000
  0
VERTEX
  8
0
  6
CONTINUOUS
  10
76.350
  20
41.100
  30
0.000
  0
VERTEX
  8
0
  6
CONTINUOUS
  10
76.867
  20
41.283
  30
0.000
  0
VERTEX
  8
0
  6
CONTINUOUS
  10
77.417
  20
41.483
  30
0.000
  0
VERTEX
  8
0
  6
CONTINUOUS
  10
77.967
  20
41.667
  30
0.000
  0
VERTEX
  8
0
  6
CONTINUOUS
  10
78.483
  20
41.850
  30
0.000
  0
VERTEX
  8
0
  6
CONTINUOUS
  10
78.900
  20
42.000
  30
0.000
  0
VERTEX
  8
0
  6
CONTINUOUS
  10
79.183
  20
42.100
  30
0.000
  0
VERTEX
  8
0
  6
CONTINUOUS
  10
79.317
  20
42.150
  30
0.000
  0
VERTEX
  8
0
  6
CONTINUOUS
  10
79.300
  20
42.083
  30
0.000
  0
VERTEX
  8
0
  6
CONTINUOUS
  10
79.133
  20
41.667
  30
0.000
  0
VERTEX
  8
0
  6
CONTINUOUS
  10
78.900
  20
41.000
  30
0.000
  0
VERTEX
  8
0
  6
CONTINUOUS
  10
78.617
  20
40.250
  30
0.000
  0
VERTEX
  8
0
  6
CONTINUOUS
  10
78.383
  20
39.600
  30
0.000
  0
VERTEX
  8
0
  6
CONTINUOUS
  10
78.233
  20
39.183
  30
0.000
  0
VERTEX
  8
0
  6
CONTINUOUS
  10
78.183
  20
39.050
  30
0.000
  0
VERTEX
  8
0
  6
CONTINUOUS
  10
78.250
  20
39.233
  30
0.000
  0
VERTEX
  8
0
  6
CONTINUOUS
  10
78.433
  20
39.733
  30
0.000
  0
VERTEX
  8
0
  6
CONTINUOUS
  10
78.717
  20
40.500
  30
0.000
  0
VERTEX
  8
0
  6
CONTINUOUS
  10
79.083
  20
41.467
  30
0.000
  0
VERTEX
  8
0
  6
CONTINUOUS
  10
79.467
  20
42.200
  30
0.000
  0
VERTEX
  8
0
  6
CONTINUOUS
  10
79.850
  20
42.333
  30
0.000
  0
VERTEX
  8
0
  6
CONTINUOUS
  10
80.217
  20
42.467
  30
0.000
  0
VERTEX
  8
0
  6
CONTINUOUS
  10
80.567
  20
42.583
  30
0.000
  0
VERTEX
  8
0
  6
CONTINUOUS
  10
80.867
  20
42.700
  30
0.000
  0
VERTEX
  8
0
  6
CONTINUOUS
  10
81.083
  20
42.767
  30
0.000
  0
VERTEX
  8
0
  6
CONTINUOUS
  10
81.217
  20
42.817
  30
0.000
  0
VERTEX
  8
0
  6
CONTINUOUS
  10
81.267
  20
42.850
  30
0.000
  0
VERTEX
  8
0
  6
CONTINUOUS
  10
81.200
  20
42.667
  30
0.000
  0
VERTEX
  8
0
  6
CONTINUOUS
  10
81.033
  20
42.250
  30
0.000
  0
VERTEX
  8
0
  6
CONTINUOUS
  10
80.800
  20
41.600
  30
0.000
  0
VERTEX
  8
0
  6
CONTINUOUS
  10
80.517
  20
40.833
  30
0.000
  0
VERTEX
  8
0
  6
CONTINUOUS
  10
80.233
  20
40.050
  30
0.000
  0
VERTEX
  8
0
  6
CONTINUOUS
  10
79.967
  20
39.317
  30
0.000
  0
VERTEX
  8
0
  6
CONTINUOUS
  10
79.733
  20
38.700
  30
0.000
  0
VERTEX
  8
0
  6
CONTINUOUS
  10
79.550
  20
38.200
  30
0.000
  0
VERTEX
  8
0
  6
CONTINUOUS
  10
79.383
  20
37.900
  30
0.000
  0
VERTEX
  8
0
  6
CONTINUOUS
  10
79.250
  20
37.850
  30
0.000
  0
VERTEX
  8
0
  6
CONTINUOUS
  10
79.133
  20
37.817
  30
0.000
  0
VERTEX
  8
0
  6
CONTINUOUS
  10
79.067
  20
37.783
  30
0.000
  0
VERTEX
  8
0
  6
CONTINUOUS
  10
79.050
  20
37.783
  30
0.000
  0
VERTEX
  8
0
  6
CONTINUOUS
  10
79.083
  20
37.883
  30
0.000
  0
VERTEX
  8
0
  6
CONTINUOUS
  10
79.200
  20
38.167
  30
0.000
  0
VERTEX
  8
0
  6
CONTINUOUS
  10
79.367
  20
38.650
  30
0.000
  0
VERTEX
  8
0
  6
CONTINUOUS
  10
79.617
  20
39.317
  30
0.000
  0
VERTEX
  8
0
  6
CONTINUOUS
  10
79.933
  20
40.183
  30
0.000
  0
VERTEX
  8
0
  6
CONTINUOUS
  10
80.317
  20
41.217
  30
0.000
  0
VERTEX
  8
0
  6
CONTINUOUS
  10
80.767
  20
42.433
  30
0.000
  0
VERTEX
  8
0
  6
CONTINUOUS
  10
81.250
  20
42.833
  30
0.000
  0
VERTEX
  8
0
  6
CONTINUOUS
  10
81.750
  20
43.000
  30
0.000
  0
VERTEX
  8
0
  6
CONTINUOUS
  10
82.250
  20
43.183
  30
0.000
  0
VERTEX
  8
0
  6
CONTINUOUS
  10
82.767
  20
43.367
  30
0.000
  0
VERTEX
  8
0
  6
CONTINUOUS
  10
83.283
  20
43.550
  30
0.000
  0
VERTEX
  8
0
  6
CONTINUOUS
  10
83.767
  20
43.717
  30
0.000
  0
VERTEX
  8
0
  6
CONTINUOUS
  10
84.217
  20
43.883
  30
0.000
  0
VERTEX
  8
0
  6
CONTINUOUS
  10
84.650
  20
44.033
  30
0.000
  0
VERTEX
  8
0
  6
CONTINUOUS
  10
85.050
  20
44.167
  30
0.000
  0
VERTEX
  8
0
  6
CONTINUOUS
  10
85.417
  20
44.300
  30
0.000
  0
VERTEX
  8
0
  6
CONTINUOUS
  10
85.783
  20
44.433
  30
0.000
  0
VERTEX
  8
0
  6
CONTINUOUS
  10
86.083
  20
44.533
  30
0.000
  0
VERTEX
  8
0
  6
CONTINUOUS
  10
86.333
  20
44.633
  30
0.000
  0
VERTEX
  8
0
  6
CONTINUOUS
  10
86.500
  20
44.683
  30
0.000
  0
VERTEX
  8
0
  6
CONTINUOUS
  10
86.583
  20
44.717
  30
0.000
  0
VERTEX
  8
0
  6
CONTINUOUS
  10
86.567
  20
44.683
  30
0.000
  0
VERTEX
  8
0
  6
CONTINUOUS
  10
86.483
  20
44.433
  30
0.000
  0
VERTEX
  8
0
  6
CONTINUOUS
  10
86.317
  20
44.017
  30
0.000
  0
VERTEX
  8
0
  6
CONTINUOUS
  10
86.133
  20
43.483
  30
0.000
  0
VERTEX
  8
0
  6
CONTINUOUS
  10
85.933
  20
42.933
  30
0.000
  0
VERTEX
  8
0
  6
CONTINUOUS
  10
85.733
  20
42.400
  30
0.000
  0
VERTEX
  8
0
  6
CONTINUOUS
  10
85.550
  20
41.917
  30
0.000
  0
VERTEX
  8
0
  6
CONTINUOUS
  10
85.400
  20
41.517
  30
0.000
  0
VERTEX
  8
0
  6
CONTINUOUS
  10
85.283
  20
41.200
  30
0.000
  0
VERTEX
  8
0
  6
CONTINUOUS
  10
85.183
  20
40.917
  30
0.000
  0
VERTEX
  8
0
  6
CONTINUOUS
  10
85.083
  20
40.650
  30
0.000
  0
VERTEX
  8
0
  6
CONTINUOUS
  10
84.983
  20
40.400
  30
0.000
  0
VERTEX
  8
0
  6
CONTINUOUS
  10
84.883
  20
40.117
  30
0.000
  0
VERTEX
  8
0
  6
CONTINUOUS
  10
84.783
  20
39.817
  30
0.000
  0
VERTEX
  8
0
  6
CONTINUOUS
  10
84.667
  20
39.767
  30
0.000
  0
VERTEX
  8
0
  6
CONTINUOUS
  10
84.533
  20
39.717
  30
0.000
  0
VERTEX
  8
0
  6
CONTINUOUS
  10
84.383
  20
39.667
  30
0.000
  0
VERTEX
  8
0
  6
CONTINUOUS
  10
84.250
  20
39.617
  30
0.000
  0
VERTEX
  8
0
  6
CONTINUOUS
  10
84.150
  20
39.583
  30
0.000
  0
VERTEX
  8
0
  6
CONTINUOUS
  10
84.083
  20
39.567
  30
0.000
  0
VERTEX
  8
0
  6
CONTINUOUS
  10
84.100
  20
39.583
  30
0.000
  0
VERTEX
  8
0
  6
CONTINUOUS
  10
84.167
  20
39.783
  30
0.000
  0
VERTEX
  8
0
  6
CONTINUOUS
  10
84.300
  20
40.167
  30
0.000
  0
VERTEX
  8
0
  6
CONTINUOUS
  10
84.500
  20
40.667
  30
0.000
  0
VERTEX
  8
0
  6
CONTINUOUS
  10
84.717
  20
41.250
  30
0.000
  0
VERTEX
  8
0
  6
CONTINUOUS
  10
84.933
  20
41.883
  30
0.000
  0
VERTEX
  8
0
  6
CONTINUOUS
  10
85.167
  20
42.500
  30
0.000
  0
VERTEX
  8
0
  6
CONTINUOUS
  10
85.383
  20
43.067
  30
0.000
  0
VERTEX
  8
0
  6
CONTINUOUS
  10
85.567
  20
43.567
  30
0.000
  0
VERTEX
  8
0
  6
CONTINUOUS
  10
85.700
  20
43.950
  30
0.000
  0
VERTEX
  8
0
  6
CONTINUOUS
  10
85.817
  20
44.250
  30
0.000
  0
VERTEX
  8
0
  6
CONTINUOUS
  10
85.883
  20
44.450
  30
0.000
  0
VERTEX
  8
0
  6
CONTINUOUS
  10
85.917
  20
44.483
  30
0.000
  0
VERTEX
  8
0
  6
CONTINUOUS
  10
85.900
  20
44.450
  30
0.000
  0
VERTEX
  8
0
  6
CONTINUOUS
  10
85.867
  20
44.333
  30
0.000
  0
VERTEX
  8
0
  6
CONTINUOUS
  10
85.783
  20
44.133
  30
0.000
  0
VERTEX
  8
0
  6
CONTINUOUS
  10
85.683
  20
43.850
  30
0.000
  0
VERTEX
  8
0
  6
CONTINUOUS
  10
85.567
  20
43.517
  30
0.000
  0
VERTEX
  8
0
  6
CONTINUOUS
  10
85.417
  20
43.150
  30
0.000
  0
VERTEX
  8
0
  6
CONTINUOUS
  10
85.283
  20
42.750
  30
0.000
  0
VERTEX
  8
0
  6
CONTINUOUS
  10
85.133
  20
42.350
  30
0.000
  0
VERTEX
  8
0
  6
CONTINUOUS
  10
85.000
  20
42.017
  30
0.000
  0
VERTEX
  8
0
  6
CONTINUOUS
  10
84.900
  20
41.717
  30
0.000
  0
VERTEX
  8
0
  6
CONTINUOUS
  10
84.817
  20
41.500
  30
0.000
  0
VERTEX
  8
0
  6
CONTINUOUS
  10
84.750
  20
41.333
  30
0.000
  0
VERTEX
  8
0
  6
CONTINUOUS
  10
84.700
  20
41.200
  30
0.000
  0
VERTEX
  8
0
  6
CONTINUOUS
  10
84.650
  20
41.050
  30
0.000
  0
VERTEX
  8
0
  6
CONTINUOUS
  10
84.567
  20
40.833
  30
0.000
  0
VERTEX
  8
0
  6
CONTINUOUS
  10
84.467
  20
40.550
  30
0.000
  0
VERTEX
  8
0
  6
CONTINUOUS
  10
84.333
  20
40.200
  30
0.000
  0
VERTEX
  8
0
  6
CONTINUOUS
  10
84.233
  20
39.900
  30
0.000
  0
VERTEX
  8
0
  6
CONTINUOUS
  10
84.167
  20
39.717
  30
0.000
  0
VERTEX
  8
0
  6
CONTINUOUS
  10
84.167
  20
39.733
  30
0.000
  0
VERTEX
  8
0
  6
CONTINUOUS
  10
84.267
  20
39.983
  30
0.000
  0
VERTEX
  8
0
  6
CONTINUOUS
  10
84.450
  20
40.483
  30
0.000
  0
VERTEX
  8
0
  6
CONTINUOUS
  10
84.700
  20
41.167
  30
0.000
  0
VERTEX
  8
0
  6
CONTINUOUS
  10
85.000
  20
41.983
  30
0.000
  0
VERTEX
  8
0
  6
CONTINUOUS
  10
85.317
  20
42.833
  30
0.000
  0
VERTEX
  8
0
  6
CONTINUOUS
  10
85.583
  20
43.583
  30
0.000
  0
VERTEX
  8
0
  6
CONTINUOUS
  10
85.783
  20
44.117
  30
0.000
  0
VERTEX
  8
0
  6
CONTINUOUS
  10
85.867
  20
44.350
  30
0.000
  0
VERTEX
  8
0
  6
CONTINUOUS
  10
85.817
  20
44.200
  30
0.000
  0
VERTEX
  8
0
  6
CONTINUOUS
  10
85.600
  20
43.650
  30
0.000
  0
VERTEX
  8
0
  6
CONTINUOUS
  10
85.250
  20
42.667
  30
0.000
  0
VERTEX
  8
0
  6
CONTINUOUS
  10
84.750
  20
41.333
  30
0.000
  0
VERTEX
  8
0
  6
CONTINUOUS
  10
84.167
  20
39.750
  30
0.000
  0
VERTEX
  8
0
  6
CONTINUOUS
  10
83.533
  20
39.367
  30
0.000
  0
VERTEX
  8
0
  6
CONTINUOUS
  10
82.833
  20
39.117
  30
0.000
  0
VERTEX
  8
0
  6
CONTINUOUS
  10
82.100
  20
38.867
  30
0.000
  0
VERTEX
  8
0
  6
CONTINUOUS
  10
81.350
  20
38.600
  30
0.000
  0
VERTEX
  8
0
  6
CONTINUOUS
  10
80.617
  20
38.333
  30
0.000
  0
VERTEX
  8
0
  6
CONTINUOUS
  10
79.950
  20
38.100
  30
0.000
  0
VERTEX
  8
0
  6
CONTINUOUS
  10
79.417
  20
37.917
  30
0.000
  0
VERTEX
  8
0
  6
CONTINUOUS
  10
79.050
  20
37.783
  30
0.000
  0
VERTEX
  8
0
  6
CONTINUOUS
  10
78.867
  20
37.717
  30
0.000
  0
VERTEX
  8
0
  6
CONTINUOUS
  10
78.883
  20
37.800
  30
0.000
  0
VERTEX
  8
0
  6
CONTINUOUS
  10
79.100
  20
38.383
  30
0.000
  0
VERTEX
  8
0
  6
CONTINUOUS
  10
79.467
  20
39.350
  30
0.000
  0
VERTEX
  8
0
  6
CONTINUOUS
  10
79.900
  20
40.550
  30
0.000
  0
VERTEX
  8
0
  6
CONTINUOUS
  10
80.367
  20
41.783
  30
0.000
  0
VERTEX
  8
0
  6
CONTINUOUS
  10
80.783
  20
42.667
  30
0.000
  0
VERTEX
  8
0
  6
CONTINUOUS
  10
81.133
  20
42.783
  30
0.000
  0
VERTEX
  8
0
  6
CONTINUOUS
  10
81.383
  20
42.883
  30
0.000
  0
VERTEX
  8
0
  6
CONTINUOUS
  10
81.567
  20
42.950
  30
0.000
  0
VERTEX
  8
0
  6
CONTINUOUS
  10
81.650
  20
42.967
  30
0.000
  0
VERTEX
  8
0
  6
CONTINUOUS
  10
81.633
  20
42.917
  30
0.000
  0
VERTEX
  8
0
  6
CONTINUOUS
  10
81.533
  20
42.667
  30
0.000
  0
VERTEX
  8
0
  6
CONTINUOUS
  10
81.417
  20
42.333
  30
0.000
  0
VERTEX
  8
0
  6
CONTINUOUS
  10
81.300
  20
42.033
  30
0.000
  0
VERTEX
  8
0
  6
CONTINUOUS
  10
81.250
  20
41.883
  30
0.000
  0
VERTEX
  8
0
  6
CONTINUOUS
  10
81.267
  20
41.950
  30
0.000
  0
VERTEX
  8
0
  6
CONTINUOUS
  10
81.400
  20
42.283
  30
0.000
  0
VERTEX
  8
0
  6
CONTINUOUS
  10
81.617
  20
42.867
  30
0.000
  0
VERTEX
  8
0
  6
CONTINUOUS
  10
81.900
  20
43.067
  30
0.000
  0
VERTEX
  8
0
  6
CONTINUOUS
  10
82.233
  20
43.183
  30
0.000
  0
VERTEX
  8
0
  6
CONTINUOUS
  10
82.617
  20
43.317
  30
0.000
  0
VERTEX
  8
0
  6
CONTINUOUS
  10
83.000
  20
43.450
  30
0.000
  0
VERTEX
  8
0
  6
CONTINUOUS
  10
83.367
  20
43.583
  30
0.000
  0
VERTEX
  8
0
  6
CONTINUOUS
  10
83.667
  20
43.683
  30
0.000
  0
VERTEX
  8
0
  6
CONTINUOUS
  10
83.867
  20
43.750
  30
0.000
  0
VERTEX
  8
0
  6
CONTINUOUS
  10
83.983
  20
43.800
  30
0.000
  0
VERTEX
  8
0
  6
CONTINUOUS
  10
84.000
  20
43.783
  30
0.000
  0
VERTEX
  8
0
  6
CONTINUOUS
  10
83.900
  20
43.533
  30
0.000
  0
VERTEX
  8
0
  6
CONTINUOUS
  10
83.733
  20
43.067
  30
0.000
  0
VERTEX
  8
0
  6
CONTINUOUS
  10
83.517
  20
42.467
  30
0.000
  0
VERTEX
  8
0
  6
CONTINUOUS
  10
83.267
  20
41.817
  30
0.000
  0
VERTEX
  8
0
  6
CONTINUOUS
  10
83.050
  20
41.217
  30
0.000
  0
VERTEX
  8
0
  6
CONTINUOUS
  10
82.867
  20
40.717
  30
0.000
  0
VERTEX
  8
0
  6
CONTINUOUS
  10
82.733
  20
40.367
  30
0.000
  0
VERTEX
  8
0
  6
CONTINUOUS
  10
82.650
  20
40.150
  30
0.000
  0
VERTEX
  8
0
  6
CONTINUOUS
  10
82.617
  20
40.033
  30
0.000
  0
VERTEX
  8
0
  6
CONTINUOUS
  10
82.583
  20
39.967
  30
0.000
  0
VERTEX
  8
0
  6
CONTINUOUS
  10
82.567
  20
39.917
  30
0.000
  0
VERTEX
  8
0
  6
CONTINUOUS
  10
82.533
  20
39.800
  30
0.000
  0
VERTEX
  8
0
  6
CONTINUOUS
  10
82.450
  20
39.600
  30
0.000
  0
VERTEX
  8
0
  6
CONTINUOUS
  10
82.350
  20
39.333
  30
0.000
  0
VERTEX
  8
0
  6
CONTINUOUS
  10
82.267
  20
39.083
  30
0.000
  0
VERTEX
  8
0
  6
CONTINUOUS
  10
82.183
  20
38.883
  30
0.000
  0
VERTEX
  8
0
  6
CONTINUOUS
  10
82.150
  20
38.883
  30
0.000
  0
VERTEX
  8
0
  6
CONTINUOUS
  10
82.183
  20
38.983
  30
0.000
  0
VERTEX
  8
0
  6
CONTINUOUS
  10
82.317
  20
39.317
  30
0.000
  0
VERTEX
  8
0
  6
CONTINUOUS
  10
82.533
  20
39.900
  30
0.000
  0
VERTEX
  8
0
  6
CONTINUOUS
  10
82.833
  20
40.717
  30
0.000
  0
VERTEX
  8
0
  6
CONTINUOUS
  10
83.183
  20
41.650
  30
0.000
  0
VERTEX
  8
0
  6
CONTINUOUS
  10
83.517
  20
42.567
  30
0.000
  0
VERTEX
  8
0
  6
CONTINUOUS
  10
83.800
  20
43.350
  30
0.000
  0
VERTEX
  8
0
  6
CONTINUOUS
  10
84.017
  20
43.800
  30
0.000
  0
VERTEX
  8
0
  6
CONTINUOUS
  10
84.133
  20
43.850
  30
0.000
  0
VERTEX
  8
0
  6
CONTINUOUS
  10
84.183
  20
43.867
  30
0.000
  0
VERTEX
  8
0
  6
CONTINUOUS
  10
84.150
  20
43.767
  30
0.000
  0
VERTEX
  8
0
  6
CONTINUOUS
  10
84.017
  20
43.433
  30
0.000
  0
VERTEX
  8
0
  6
CONTINUOUS
  10
83.833
  20
42.917
  30
0.000
  0
VERTEX
  8
0
  6
CONTINUOUS
  10
83.617
  20
42.350
  30
0.000
  0
VERTEX
  8
0
  6
CONTINUOUS
  10
83.417
  20
41.800
  30
0.000
  0
VERTEX
  8
0
  6
CONTINUOUS
  10
83.250
  20
41.333
  30
0.000
  0
VERTEX
  8
0
  6
CONTINUOUS
  10
83.100
  20
40.950
  30
0.000
  0
VERTEX
  8
0
  6
CONTINUOUS
  10
82.983
  20
40.633
  30
0.000
  0
VERTEX
  8
0
  6
CONTINUOUS
  10
82.867
  20
40.317
  30
0.000
  0
VERTEX
  8
0
  6
CONTINUOUS
  10
82.750
  20
40.000
  30
0.000
  0
VERTEX
  8
0
  6
CONTINUOUS
  10
82.633
  20
39.650
  30
0.000
  0
VERTEX
  8
0
  6
CONTINUOUS
  10
82.500
  20
39.300
  30
0.000
  0
VERTEX
  8
0
  6
CONTINUOUS
  10
82.383
  20
39.000
  30
0.000
  0
VERTEX
  8
0
  6
CONTINUOUS
  10
82.317
  20
38.933
  30
0.000
  0
VERTEX
  8
0
  6
CONTINUOUS
  10
82.283
  20
38.933
  30
0.000
  0
VERTEX
  8
0
  6
CONTINUOUS
  10
82.317
  20
38.983
  30
0.000
  0
VERTEX
  8
0
  6
CONTINUOUS
  10
82.383
  20
39.167
  30
0.000
  0
VERTEX
  8
0
  6
CONTINUOUS
  10
82.500
  20
39.517
  30
0.000
  0
VERTEX
  8
0
  6
CONTINUOUS
  10
82.683
  20
40.000
  30
0.000
  0
VERTEX
  8
0
  6
CONTINUOUS
  10
82.917
  20
40.633
  30
0.000
  0
VERTEX
  8
0
  6
CONTINUOUS
  10
83.183
  20
41.333
  30
0.000
  0
VERTEX
  8
0
  6
CONTINUOUS
  10
83.433
  20
42.033
  30
0.000
  0
VERTEX
  8
0
  6
CONTINUOUS
  10
83.683
  20
42.683
  30
0.000
  0
VERTEX
  8
0
  6
CONTINUOUS
  10
83.883
  20
43.267
  30
0.000
  0
VERTEX
  8
0
  6
CONTINUOUS
  10
84.067
  20
43.733
  30
0.000
  0
VERTEX
  8
0
  6
CONTINUOUS
  10
84.183
  20
43.867
  30
0.000
  0
VERTEX
  8
0
  6
CONTINUOUS
  10
84.250
  20
43.883
  30
0.000
  0
VERTEX
  8
0
  6
CONTINUOUS
  10
84.233
  20
43.867
  30
0.000
  0
VERTEX
  8
0
  6
CONTINUOUS
  10
84.167
  20
43.650
  30
0.000
  0
VERTEX
  8
0
  6
CONTINUOUS
  10
84.017
  20
43.267
  30
0.000
  0
VERTEX
  8
0
  6
CONTINUOUS
  10
83.833
  20
42.750
  30
0.000
  0
VERTEX
  8
0
  6
CONTINUOUS
  10
83.600
  20
42.150
  30
0.000
  0
VERTEX
  8
0
  6
CONTINUOUS
  10
83.367
  20
41.500
  30
0.000
  0
VERTEX
  8
0
  6
CONTINUOUS
  10
83.133
  20
40.867
  30
0.000
  0
VERTEX
  8
0
  6
CONTINUOUS
  10
82.933
  20
40.317
  30
0.000
  0
VERTEX
  8
0
  6
CONTINUOUS
  10
82.767
  20
39.883
  30
0.000
  0
VERTEX
  8
0
  6
CONTINUOUS
  10
82.683
  20
39.617
  30
0.000
  0
VERTEX
  8
0
  6
CONTINUOUS
  10
82.633
  20
39.517
  30
0.000
  0
VERTEX
  8
0
  6
CONTINUOUS
  10
82.650
  20
39.550
  30
0.000
  0
VERTEX
  8
0
  6
CONTINUOUS
  10
82.700
  20
39.700
  30
0.000
  0
VERTEX
  8
0
  6
CONTINUOUS
  10
82.800
  20
39.950
  30
0.000
  0
VERTEX
  8
0
  6
CONTINUOUS
  10
82.933
  20
40.300
  30
0.000
  0
VERTEX
  8
0
  6
CONTINUOUS
  10
83.100
  20
40.733
  30
0.000
  0
VERTEX
  8
0
  6
CONTINUOUS
  10
83.283
  20
41.250
  30
0.000
  0
VERTEX
  8
0
  6
CONTINUOUS
  10
83.483
  20
41.783
  30
0.000
  0
VERTEX
  8
0
  6
CONTINUOUS
  10
83.667
  20
42.300
  30
0.000
  0
VERTEX
  8
0
  6
CONTINUOUS
  10
83.833
  20
42.750
  30
0.000
  0
VERTEX
  8
0
  6
CONTINUOUS
  10
83.967
  20
43.100
  30
0.000
  0
VERTEX
  8
0
  6
CONTINUOUS
  10
84.050
  20
43.333
  30
0.000
  0
VERTEX
  8
0
  6
CONTINUOUS
  10
84.083
  20
43.417
  30
0.000
  0
VERTEX
  8
0
  6
CONTINUOUS
  10
84.050
  20
43.367
  30
0.000
  0
VERTEX
  8
0
  6
CONTINUOUS
  10
83.983
  20
43.183
  30
0.000
  0
VERTEX
  8
0
  6
CONTINUOUS
  10
83.883
  20
42.900
  30
0.000
  0
VERTEX
  8
0
  6
CONTINUOUS
  10
83.767
  20
42.567
  30
0.000
  0
VERTEX
  8
0
  6
CONTINUOUS
  10
83.617
  20
42.183
  30
0.000
  0
VERTEX
  8
0
  6
CONTINUOUS
  10
83.467
  20
41.767
  30
0.000
  0
VERTEX
  8
0
  6
CONTINUOUS
  10
83.300
  20
41.317
  30
0.000
  0
VERTEX
  8
0
  6
CONTINUOUS
  10
83.133
  20
40.850
  30
0.000
  0
VERTEX
  8
0
  6
CONTINUOUS
  10
82.950
  20
40.367
  30
0.000
  0
VERTEX
  8
0
  6
CONTINUOUS
  10
82.767
  20
39.883
  30
0.000
  0
VERTEX
  8
0
  6
CONTINUOUS
  10
82.600
  20
39.417
  30
0.000
  0
VERTEX
  8
0
  6
CONTINUOUS
  10
82.450
  20
39.017
  30
0.000
  0
VERTEX
  8
0
  6
CONTINUOUS
  10
82.333
  20
38.933
  30
0.000
  0
VERTEX
  8
0
  6
CONTINUOUS
  10
82.233
  20
38.900
  30
0.000
  0
VERTEX
  8
0
  6
CONTINUOUS
  10
82.150
  20
38.883
  30
0.000
  0
VERTEX
  8
0
  6
CONTINUOUS
  10
82.100
  20
38.867
  30
0.000
  0
VERTEX
  8
0
  6
CONTINUOUS
  10
82.083
  20
38.850
  30
0.000
  0
VERTEX
  8
0
  6
CONTINUOUS
  10
82.117
  20
38.950
  30
0.000
  0
VERTEX
  8
0
  6
CONTINUOUS
  10
82.217
  20
39.183
  30
0.000
  0
VERTEX
  8
0
  6
CONTINUOUS
  10
82.350
  20
39.583
  30
0.000
  0
SEQEND
  0
TEXT
  8
0
 10
92.183
 20
7.513 
 30
0.000
 40
1.456 
  1
2nd story
 50
0.000 
  7
STANDARD
 72
2
 11
102.767
 21
7.513 
 31
0.000
  0
POLYLINE
  8
1
 66
   1
  6
DASHED
  0
VERTEX
  8
1
  6
DASHED
 10
104.433
 20
8.033 
 30
0.000
  0
VERTEX
  8
1
  6
DASHED
  10
112.300
  20
8.033 
  30
0.000
  0
SEQEND
  0
POLYLINE
  8
1
 66
   1
  6
DASHED
  0
VERTEX
  8
1
  6
DASHED
 10
63.533
 20
41.433
 30
0.000
  0
VERTEX
  8
1
  6
DASHED
  10
63.533
  20
41.433
  30
0.000
  0
VERTEX
  8
1
  6
DASHED
  10
63.533
  20
41.433
  30
0.000
  0
VERTEX
  8
1
  6
DASHED
  10
63.533
  20
41.433
  30
0.000
  0
VERTEX
  8
1
  6
DASHED
  10
63.533
  20
41.433
  30
0.000
  0
VERTEX
  8
1
  6
DASHED
  10
63.533
  20
41.433
  30
0.000
  0
VERTEX
  8
1
  6
DASHED
  10
63.533
  20
41.433
  30
0.000
  0
VERTEX
  8
1
  6
DASHED
  10
63.533
  20
41.433
  30
0.000
  0
VERTEX
  8
1
  6
DASHED
  10
63.533
  20
41.433
  30
0.000
  0
VERTEX
  8
1
  6
DASHED
  10
63.533
  20
41.450
  30
0.000
  0
VERTEX
  8
1
  6
DASHED
  10
63.550
  20
41.450
  30
0.000
  0
VERTEX
  8
1
  6
DASHED
  10
63.550
  20
41.467
  30
0.000
  0
VERTEX
  8
1
  6
DASHED
  10
63.550
  20
41.483
  30
0.000
  0
VERTEX
  8
1
  6
DASHED
  10
63.550
  20
41.500
  30
0.000
  0
VERTEX
  8
1
  6
DASHED
  10
63.550
  20
41.483
  30
0.000
  0
VERTEX
  8
1
  6
DASHED
  10
63.550
  20
41.483
  30
0.000
  0
VERTEX
  8
1
  6
DASHED
  10
63.550
  20
41.467
  30
0.000
  0
VERTEX
  8
1
  6
DASHED
  10
63.533
  20
41.450
  30
0.000
  0
VERTEX
  8
1
  6
DASHED
  10
63.533
  20
41.450
  30
0.000
  0
VERTEX
  8
1
  6
DASHED
  10
63.550
  20
41.467
  30
0.000
  0
VERTEX
  8
1
  6
DASHED
  10
63.567
  20
41.500
  30
0.000
  0
VERTEX
  8
1
  6
DASHED
  10
63.567
  20
41.533
  30
0.000
  0
VERTEX
  8
1
  6
DASHED
  10
63.583
  20
41.567
  30
0.000
  0
VERTEX
  8
1
  6
DASHED
  10
63.583
  20
41.583
  30
0.000
  0
VERTEX
  8
1
  6
DASHED
  10
63.600
  20
41.600
  30
0.000
  0
VERTEX
  8
1
  6
DASHED
  10
63.600
  20
41.600
  30
0.000
  0
VERTEX
  8
1
  6
DASHED
  10
63.600
  20
41.600
  30
0.000
  0
VERTEX
  8
1
  6
DASHED
  10
63.583
  20
41.583
  30
0.000
  0
VERTEX
  8
1
  6
DASHED
  10
63.583
  20
41.550
  30
0.000
  0
VERTEX
  8
1
  6
DASHED
  10
63.550
  20
41.500
  30
0.000
  0
VERTEX
  8
1
  6
DASHED
  10
63.533
  20
41.417
  30
0.000
  0
VERTEX
  8
1
  6
DASHED
  10
63.483
  20
41.300
  30
0.000
  0
VERTEX
  8
1
  6
DASHED
  10
63.433
  20
41.183
  30
0.000
  0
VERTEX
  8
1
  6
DASHED
  10
63.400
  20
41.067
  30
0.000
  0
VERTEX
  8
1
  6
DASHED
  10
63.367
  20
40.983
  30
0.000
  0
VERTEX
  8
1
  6
DASHED
  10
63.350
  20
40.933
  30
0.000
  0
VERTEX
  8
1
  6
DASHED
  10
63.350
  20
40.950
  30
0.000
  0
VERTEX
  8
1
  6
DASHED
  10
63.367
  20
41.017
  30
0.000
  0
VERTEX
  8
1
  6
DASHED
  10
63.417
  20
41.100
  30
0.000
  0
VERTEX
  8
1
  6
DASHED
  10
63.450
  20
41.217
  30
0.000
  0
VERTEX
  8
1
  6
DASHED
  10
63.500
  20
41.317
  30
0.000
  0
VERTEX
  8
1
  6
DASHED
  10
63.517
  20
41.400
  30
0.000
  0
VERTEX
  8
1
  6
DASHED
  10
63.533
  20
41.433
  30
0.000
  0
VERTEX
  8
1
  6
DASHED
  10
63.517
  20
41.383
  30
0.000
  0
VERTEX
  8
1
  6
DASHED
  10
63.467
  20
41.267
  30
0.000
  0
VERTEX
  8
1
  6
DASHED
  10
63.400
  20
41.083
  30
0.000
  0
VERTEX
  8
1
  6
DASHED
  10
63.317
  20
40.867
  30
0.000
  0
VERTEX
  8
1
  6
DASHED
  10
63.250
  20
40.700
  30
0.000
  0
VERTEX
  8
1
  6
DASHED
  10
63.217
  20
40.583
  30
0.000
  0
VERTEX
  8
1
  6
DASHED
  10
63.217
  20
40.583
  30
0.000
  0
VERTEX
  8
1
  6
DASHED
  10
63.250
  20
40.683
  30
0.000
  0
VERTEX
  8
1
  6
DASHED
  10
63.333
  20
40.900
  30
0.000
  0
VERTEX
  8
1
  6
DASHED
  10
63.450
  20
41.217
  30
0.000
  0
VERTEX
  8
1
  6
DASHED
  10
63.600
  20
41.617
  30
0.000
  0
VERTEX
  8
1
  6
DASHED
  10
63.783
  20
42.083
  30
0.000
  0
VERTEX
  8
1
  6
DASHED
  10
63.950
  20
42.533
  30
0.000
  0
VERTEX
  8
1
  6
DASHED
  10
64.083
  20
42.900
  30
0.000
  0
VERTEX
  8
1
  6
DASHED
  10
64.183
  20
43.150
  30
0.000
  0
VERTEX
  8
1
  6
DASHED
  10
64.217
  20
43.250
  30
0.000
  0
VERTEX
  8
1
  6
DASHED
  10
64.217
  20
43.233
  30
0.000
  0
VERTEX
  8
1
  6
DASHED
  10
64.167
  20
43.117
  30
0.000
  0
VERTEX
  8
1
  6
DASHED
  10
64.100
  20
42.950
  30
0.000
  0
VERTEX
  8
1
  6
DASHED
  10
64.017
  20
42.733
  30
0.000
  0
VERTEX
  8
1
  6
DASHED
  10
63.933
  20
42.483
  30
0.000
  0
VERTEX
  8
1
  6
DASHED
  10
63.817
  20
42.200
  30
0.000
  0
VERTEX
  8
1
  6
DASHED
  10
63.700
  20
41.883
  30
0.000
  0
VERTEX
  8
1
  6
DASHED
  10
63.583
  20
41.550
  30
0.000
  0
VERTEX
  8
1
  6
DASHED
  10
63.450
  20
41.217
  30
0.000
  0
VERTEX
  8
1
  6
DASHED
  10
63.333
  20
40.917
  30
0.000
  0
VERTEX
  8
1
  6
DASHED
  10
63.233
  20
40.650
  30
0.000
  0
VERTEX
  8
1
  6
DASHED
  10
63.167
  20
40.467
  30
0.000
  0
VERTEX
  8
1
  6
DASHED
  10
63.117
  20
40.350
  30
0.000
  0
VERTEX
  8
1
  6
DASHED
  10
63.117
  20
40.333
  30
0.000
  0
VERTEX
  8
1
  6
DASHED
  10
63.150
  20
40.400
  30
0.000
  0
VERTEX
  8
1
  6
DASHED
  10
63.217
  20
40.583
  30
0.000
  0
VERTEX
  8
1
  6
DASHED
  10
63.300
  20
40.817
  30
0.000
  0
VERTEX
  8
1
  6
DASHED
  10
63.383
  20
41.017
  30
0.000
  0
VERTEX
  8
1
  6
DASHED
  10
63.433
  20
41.167
  30
0.000
  0
VERTEX
  8
1
  6
DASHED
  10
63.450
  20
41.200
  30
0.000
  0
VERTEX
  8
1
  6
DASHED
  10
63.433
  20
41.183
  30
0.000
  0
VERTEX
  8
1
  6
DASHED
  10
63.417
  20
41.133
  30
0.000
  0
VERTEX
  8
1
  6
DASHED
  10
63.400
  20
41.083
  30
0.000
  0
VERTEX
  8
1
  6
DASHED
  10
63.400
  20
41.083
  30
0.000
  0
VERTEX
  8
1
  6
DASHED
  10
63.433
  20
41.167
  30
0.000
  0
VERTEX
  8
1
  6
DASHED
  10
63.500
  20
41.317
  30
0.000
  0
VERTEX
  8
1
  6
DASHED
  10
63.583
  20
41.567
  30
0.000
  0
VERTEX
  8
1
  6
DASHED
  10
63.700
  20
41.883
  30
0.000
  0
VERTEX
  8
1
  6
DASHED
  10
63.833
  20
42.200
  30
0.000
  0
VERTEX
  8
1
  6
DASHED
  10
63.933
  20
42.483
  30
0.000
  0
VERTEX
  8
1
  6
DASHED
  10
64.000
  20
42.650
  30
0.000
  0
VERTEX
  8
1
  6
DASHED
  10
64.000
  20
42.667
  30
0.000
  0
VERTEX
  8
1
  6
DASHED
  10
63.933
  20
42.500
  30
0.000
  0
VERTEX
  8
1
  6
DASHED
  10
63.817
  20
42.167
  30
0.000
  0
VERTEX
  8
1
  6
DASHED
  10
63.633
  20
41.700
  30
0.000
  0
VERTEX
  8
1
  6
DASHED
  10
63.417
  20
41.150
  30
0.000
  0
VERTEX
  8
1
  6
DASHED
  10
63.217
  20
40.583
  30
0.000
  0
VERTEX
  8
1
  6
DASHED
  10
63.033
  20
40.133
  30
0.000
  0
VERTEX
  8
1
  6
DASHED
  10
62.933
  20
39.850
  30
0.000
  0
VERTEX
  8
1
  6
DASHED
  10
62.917
  20
39.800
  30
0.000
  0
VERTEX
  8
1
  6
DASHED
  10
62.983
  20
39.967
  30
0.000
  0
VERTEX
  8
1
  6
DASHED
  10
63.083
  20
40.250
  30
0.000
  0
VERTEX
  8
1
  6
DASHED
  10
63.200
  20
40.567
  30
0.000
  0
VERTEX
  8
1
  6
DASHED
  10
63.317
  20
40.850
  30
0.000
  0
VERTEX
  8
1
  6
DASHED
  10
63.383
  20
41.050
  30
0.000
  0
VERTEX
  8
1
  6
DASHED
  10
63.417
  20
41.117
  30
0.000
  0
VERTEX
  8
1
  6
DASHED
  10
63.417
  20
41.133
  30
0.000
  0
VERTEX
  8
1
  6
DASHED
  10
63.417
  20
41.117
  30
0.000
  0
VERTEX
  8
1
  6
DASHED
  10
63.450
  20
41.183
  30
0.000
  0
VERTEX
  8
1
  6
DASHED
  10
63.517
  20
41.383
  30
0.000
  0
VERTEX
  8
1
  6
DASHED
  10
63.650
  20
41.717
  30
0.000
  0
VERTEX
  8
1
  6
DASHED
  10
63.817
  20
42.167
  30
0.000
  0
VERTEX
  8
1
  6
DASHED
  10
64.000
  20
42.667
  30
0.000
  0
VERTEX
  8
1
  6
DASHED
  10
64.183
  20
43.150
  30
0.000
  0
VERTEX
  8
1
  6
DASHED
  10
64.317
  20
43.500
  30
0.000
  0
VERTEX
  8
1
  6
DASHED
  10
64.367
  20
43.667
  30
0.000
  0
VERTEX
  8
1
  6
DASHED
  10
64.333
  20
43.567
  30
0.000
  0
VERTEX
  8
1
  6
DASHED
  10
64.217
  20
43.233
  30
0.000
  0
VERTEX
  8
1
  6
DASHED
  10
64.017
  20
42.700
  30
0.000
  0
VERTEX
  8
1
  6
DASHED
  10
63.767
  20
42.033
  30
0.000
  0
VERTEX
  8
1
  6
DASHED
  10
63.500
  20
41.350
  30
0.000
  0
VERTEX
  8
1
  6
DASHED
  10
63.267
  20
40.733
  30
0.000
  0
VERTEX
  8
1
  6
DASHED
  10
63.067
  20
40.217
  30
0.000
  0
VERTEX
  8
1
  6
DASHED
  10
62.917
  20
39.817
  30
0.000
  0
VERTEX
  8
1
  6
DASHED
  10
62.817
  20
39.550
  30
0.000
  0
VERTEX
  8
1
  6
DASHED
  10
62.750
  20
39.367
  30
0.000
  0
VERTEX
  8
1
  6
DASHED
  10
62.717
  20
39.300
  30
0.000
  0
VERTEX
  8
1
  6
DASHED
  10
62.733
  20
39.317
  30
0.000
  0
VERTEX
  8
1
  6
DASHED
  10
62.783
  20
39.450
  30
0.000
  0
VERTEX
  8
1
  6
DASHED
  10
62.867
  20
39.667
  30
0.000
  0
VERTEX
  8
1
  6
DASHED
  10
62.983
  20
39.983
  30
0.000
  0
VERTEX
  8
1
  6
DASHED
  10
63.133
  20
40.350
  30
0.000
  0
VERTEX
  8
1
  6
DASHED
  10
63.300
  20
40.817
  30
0.000
  0
VERTEX
  8
1
  6
DASHED
  10
63.500
  20
41.350
  30
0.000
  0
VERTEX
  8
1
  6
DASHED
  10
63.733
  20
41.950
  30
0.000
  0
VERTEX
  8
1
  6
DASHED
  10
63.950
  20
42.550
  30
0.000
  0
VERTEX
  8
1
  6
DASHED
  10
64.167
  20
43.117
  30
0.000
  0
VERTEX
  8
1
  6
DASHED
  10
64.350
  20
43.567
  30
0.000
  0
VERTEX
  8
1
  6
DASHED
  10
64.450
  20
43.833
  30
0.000
  0
VERTEX
  8
1
  6
DASHED
  10
64.467
  20
43.867
  30
0.000
  0
VERTEX
  8
1
  6
DASHED
  10
64.433
  20
43.767
  30
0.000
  0
VERTEX
  8
1
  6
DASHED
  10
64.350
  20
43.550
  30
0.000
  0
VERTEX
  8
1
  6
DASHED
  10
64.250
  20
43.267
  30
0.000
  0
VERTEX
  8
1
  6
DASHED
  10
64.133
  20
42.950
  30
0.000
  0
VERTEX
  8
1
  6
DASHED
  10
64.000
  20
42.617
  30
0.000
  0
VERTEX
  8
1
  6
DASHED
  10
63.867
  20
42.267
  30
0.000
  0
VERTEX
  8
1
  6
DASHED
  10
63.717
  20
41.867
  30
0.000
  0
VERTEX
  8
1
  6
DASHED
  10
63.533
  20
41.383
  30
0.000
  0
VERTEX
  8
1
  6
DASHED
  10
63.300
  20
40.800
  30
0.000
  0
VERTEX
  8
1
  6
DASHED
  10
63.067
  20
40.167
  30
0.000
  0
VERTEX
  8
1
  6
DASHED
  10
62.833
  20
39.550
  30
0.000
  0
VERTEX
  8
1
  6
DASHED
  10
62.650
  20
39.050
  30
0.000
  0
VERTEX
  8
1
  6
DASHED
  10
62.500
  20
38.883
  30
0.000
  0
VERTEX
  8
1
  6
DASHED
  10
62.400
  20
38.783
  30
0.000
  0
VERTEX
  8
1
  6
DASHED
  10
62.367
  20
38.717
  30
0.000
  0
VERTEX
  8
1
  6
DASHED
  10
62.350
  20
38.717
  30
0.000
  0
VERTEX
  8
1
  6
DASHED
  10
62.367
  20
38.750
  30
0.000
  0
VERTEX
  8
1
  6
DASHED
  10
62.400
  20
38.833
  30
0.000
  0
VERTEX
  8
1
  6
DASHED
  10
62.433
  20
38.933
  30
0.000
  0
VERTEX
  8
1
  6
DASHED
  10
62.483
  20
39.067
  30
0.000
  0
VERTEX
  8
1
  6
DASHED
  10
62.567
  20
39.300
  30
0.000
  0
VERTEX
  8
1
  6
DASHED
  10
62.717
  20
39.650
  30
0.000
  0
VERTEX
  8
1
  6
DASHED
  10
62.900
  20
40.150
  30
0.000
  0
VERTEX
  8
1
  6
DASHED
  10
63.133
  20
40.783
  30
0.000
  0
VERTEX
  8
1
  6
DASHED
  10
63.400
  20
41.483
  30
0.000
  0
VERTEX
  8
1
  6
DASHED
  10
63.650
  20
42.167
  30
0.000
  0
VERTEX
  8
1
  6
DASHED
  10
63.833
  20
42.650
  30
0.000
  0
VERTEX
  8
1
  6
DASHED
  10
63.883
  20
42.750
  30
0.000
  0
VERTEX
  8
1
  6
DASHED
  10
63.717
  20
42.333
  30
0.000
  0
VERTEX
  8
1
  6
DASHED
  10
63.317
  20
41.283
  30
0.000
  0
VERTEX
  8
1
  6
DASHED
  10
62.700
  20
39.683
  30
0.000
  0
VERTEX
  8
1
  6
DASHED
  10
61.967
  20
38.267
  30
0.000
  0
VERTEX
  8
1
  6
DASHED
  10
61.150
  20
37.300
  30
0.000
  0
VERTEX
  8
1
  6
DASHED
  10
60.250
  20
36.250
  30
0.000
  0
VERTEX
  8
1
  6
DASHED
  10
59.283
  20
35.117
  30
0.000
  0
VERTEX
  8
1
  6
DASHED
  10
58.300
  20
33.967
  30
0.000
  0
VERTEX
  8
1
  6
DASHED
  10
57.400
  20
32.883
  30
0.000
  0
VERTEX
  8
1
  6
DASHED
  10
56.667
  20
32.033
  30
0.000
  0
VERTEX
  8
1
  6
DASHED
  10
56.217
  20
31.567
  30
0.000
  0
VERTEX
  8
1
  6
DASHED
  10
56.167
  20
31.650
  30
0.000
  0
VERTEX
  8
1
  6
DASHED
  10
56.700
  20
33.033
  30
0.000
  0
VERTEX
  8
1
  6
DASHED
  10
57.800
  20
35.917
  30
0.000
  0
VERTEX
  8
1
  6
DASHED
  10
59.367
  20
37.983
  30
0.000
  0
VERTEX
  8
1
  6
DASHED
  10
61.317
  20
40.283
  30
0.000
  0
VERTEX
  8
1
  6
DASHED
  10
63.633
  20
42.767
  30
0.000
  0
VERTEX
  8
1
  6
DASHED
  10
66.333
  20
43.333
  30
0.000
  0
VERTEX
  8
1
  6
DASHED
  10
69.467
  20
44.017
  30
0.000
  0
VERTEX
  8
1
  6
DASHED
  10
73.017
  20
44.950
  30
0.000
  0
VERTEX
  8
1
  6
DASHED
  10
76.883
  20
46.067
  30
0.000
  0
VERTEX
  8
1
  6
DASHED
  10
80.967
  20
47.250
  30
0.000
  0
VERTEX
  8
1
  6
DASHED
  10
85.150
  20
48.467
  30
0.000
  0
VERTEX
  8
1
  6
DASHED
  10
89.317
  20
49.667
  30
0.000
  0
VERTEX
  8
1
  6
DASHED
  10
93.317
  20
50.583
  30
0.000
  0
VERTEX
  8
1
  6
DASHED
  10
97.100
  20
50.467
  30
0.000
  0
VERTEX
  8
1
  6
DASHED
  10
100.600
  20
50.350
  30
0.000
  0
VERTEX
  8
1
  6
DASHED
  10
103.683
  20
50.250
  30
0.000
  0
VERTEX
  8
1
  6
DASHED
  10
106.250
  20
50.183
  30
0.000
  0
VERTEX
  8
1
  6
DASHED
  10
108.250
  20
50.117
  30
0.000
  0
VERTEX
  8
1
  6
DASHED
  10
109.600
  20
50.067
  30
0.000
  0
VERTEX
  8
1
  6
DASHED
  10
110.283
  20
50.050
  30
0.000
  0
VERTEX
  8
1
  6
DASHED
  10
110.317
  20
49.967
  30
0.000
  0
VERTEX
  8
1
  6
DASHED
  10
109.767
  20
49.067
  30
0.000
  0
VERTEX
  8
1
  6
DASHED
  10
108.767
  20
47.367
  30
0.000
  0
VERTEX
  8
1
  6
DASHED
  10
107.433
  20
46.783
  30
0.000
  0
VERTEX
  8
1
  6
DASHED
  10
105.867
  20
46.450
  30
0.000
  0
VERTEX
  8
1
  6
DASHED
  10
104.067
  20
46.050
  30
0.000
  0
VERTEX
  8
1
  6
DASHED
  10
102.050
  20
45.633
  30
0.000
  0
VERTEX
  8
1
  6
DASHED
  10
99.850
  20
45.167
  30
0.000
  0
VERTEX
  8
1
  6
DASHED
  10
97.467
  20
44.650
  30
0.000
  0
VERTEX
  8
1
  6
DASHED
  10
94.900
  20
44.033
  30
0.000
  0
VERTEX
  8
1
  6
DASHED
  10
92.167
  20
43.233
  30
0.000
  0
VERTEX
  8
1
  6
DASHED
  10
89.250
  20
42.383
  30
0.000
  0
VERTEX
  8
1
  6
DASHED
  10
86.033
  20
41.467
  30
0.000
  0
VERTEX
  8
1
  6
DASHED
  10
82.400
  20
40.400
  30
0.000
  0
VERTEX
  8
1
  6
DASHED
  10
78.317
  20
39.217
  30
0.000
  0
VERTEX
  8
1
  6
DASHED
  10
73.883
  20
37.933
  30
0.000
  0
VERTEX
  8
1
  6
DASHED
  10
69.183
  20
36.567
  30
0.000
  0
VERTEX
  8
1
  6
DASHED
  10
64.300
  20
35.167
  30
0.000
  0
VERTEX
  8
1
  6
DASHED
  10
59.383
  20
29.933
  30
0.000
  0
VERTEX
  8
1
  6
DASHED
  10
54.783
  20
25.417
  30
0.000
  0
VERTEX
  8
1
  6
DASHED
  10
50.850
  20
24.783
  30
0.000
  0
VERTEX
  8
1
  6
DASHED
  10
47.583
  20
24.883
  30
0.000
  0
VERTEX
  8
1
  6
DASHED
  10
45.000
  20
24.967
  30
0.000
  0
VERTEX
  8
1
  6
DASHED
  10
43.050
  20
25.033
  30
0.000
  0
VERTEX
  8
1
  6
DASHED
  10
41.733
  20
25.067
  30
0.000
  0
VERTEX
  8
1
  6
DASHED
  10
41.117
  20
25.083
  30
0.000
  0
VERTEX
  8
1
  6
DASHED
  10
41.350
  20
25.750
  30
0.000
  0
VERTEX
  8
1
  6
DASHED
  10
42.483
  20
28.717
  30
0.000
  0
VERTEX
  8
1
  6
DASHED
  10
44.400
  20
31.600
  30
0.000
  0
VERTEX
  8
1
  6
DASHED
  10
46.917
  20
34.567
  30
0.000
  0
VERTEX
  8
1
  6
DASHED
  10
49.850
  20
36.583
  30
0.000
  0
VERTEX
  8
1
  6
DASHED
  10
53.117
  20
37.267
  30
0.000
  0
VERTEX
  8
1
  6
DASHED
  10
56.767
  20
38.133
  30
0.000
  0
VERTEX
  8
1
  6
DASHED
  10
60.817
  20
39.317
  30
0.000
  0
VERTEX
  8
1
  6
DASHED
  10
65.233
  20
42.217
  30
0.000
  0
VERTEX
  8
1
  6
DASHED
  10
69.850
  20
48.000
  30
0.000
  0
VERTEX
  8
1
  6
DASHED
  10
74.283
  20
50.183
  30
0.000
  0
VERTEX
  8
1
  6
DASHED
  10
78.550
  20
51.433
  30
0.000
  0
VERTEX
  8
1
  6
DASHED
  10
82.833
  20
52.683
  30
0.000
  0
VERTEX
  8
1
  6
DASHED
  10
87.017
  20
53.883
  30
0.000
  0
VERTEX
  8
1
  6
DASHED
  10
90.950
  20
55.033
  30
0.000
  0
VERTEX
  8
1
  6
DASHED
  10
94.500
  20
56.067
  30
0.000
  0
VERTEX
  8
1
  6
DASHED
  10
97.567
  20
56.950
  30
0.000
  0
VERTEX
  8
1
  6
DASHED
  10
100.083
  20
57.350
  30
0.000
  0
VERTEX
  8
1
  6
DASHED
  10
102.000
  20
57.283
  30
0.000
  0
VERTEX
  8
1
  6
DASHED
  10
103.333
  20
57.233
  30
0.000
  0
VERTEX
  8
1
  6
DASHED
  10
104.067
  20
57.217
  30
0.000
  0
VERTEX
  8
1
  6
DASHED
  10
104.067
  20
57.033
  30
0.000
  0
VERTEX
  8
1
  6
DASHED
  10
103.300
  20
55.017
  30
0.000
  0
VERTEX
  8
1
  6
DASHED
  10
101.900
  20
51.967
  30
0.000
  0
VERTEX
  8
1
  6
DASHED
  10
100.067
  20
49.817
  30
0.000
  0
VERTEX
  8
1
  6
DASHED
  10
97.967
  20
47.350
  30
0.000
  0
VERTEX
  8
1
  6
DASHED
  10
95.767
  20
45.800
  30
0.000
  0
VERTEX
  8
1
  6
DASHED
  10
93.583
  20
45.333
  30
0.000
  0
VERTEX
  8
1
  6
DASHED
  10
91.450
  20
44.883
  30
0.000
  0
VERTEX
  8
1
  6
DASHED
  10
89.400
  20
44.417
  30
0.000
  0
VERTEX
  8
1
  6
DASHED
  10
87.450
  20
43.850
  30
0.000
  0
VERTEX
  8
1
  6
DASHED
  10
85.633
  20
43.333
  30
0.000
  0
VERTEX
  8
1
  6
DASHED
  10
83.983
  20
42.850
  30
0.000
  0
VERTEX
  8
1
  6
DASHED
  10
82.517
  20
42.417
  30
0.000
  0
VERTEX
  8
1
  6
DASHED
  10
81.250
  20
42.050
  30
0.000
  0
VERTEX
  8
1
  6
DASHED
  10
80.167
  20
41.733
  30
0.000
  0
VERTEX
  8
1
  6
DASHED
  10
79.233
  20
41.467
  30
0.000
  0
VERTEX
  8
1
  6
DASHED
  10
78.450
  20
41.233
  30
0.000
  0
VERTEX
  8
1
  6
DASHED
  10
77.767
  20
41.050
  30
0.000
  0
VERTEX
  8
1
  6
DASHED
  10
77.167
  20
40.867
  30
0.000
  0
VERTEX
  8
1
  6
DASHED
  10
76.600
  20
40.700
  30
0.000
  0
VERTEX
  8
1
  6
DASHED
  10
76.083
  20
40.550
  30
0.000
  0
VERTEX
  8
1
  6
DASHED
  10
75.567
  20
40.400
  30
0.000
  0
VERTEX
  8
1
  6
DASHED
  10
75.050
  20
40.250
  30
0.000
  0
VERTEX
  8
1
  6
DASHED
  10
74.533
  20
40.100
  30
0.000
  0
VERTEX
  8
1
  6
DASHED
  10
73.967
  20
39.933
  30
0.000
  0
VERTEX
  8
1
  6
DASHED
  10
73.350
  20
39.767
  30
0.000
  0
VERTEX
  8
1
  6
DASHED
  10
72.667
  20
39.567
  30
0.000
  0
VERTEX
  8
1
  6
DASHED
  10
71.917
  20
39.350
  30
0.000
  0
VERTEX
  8
1
  6
DASHED
  10
71.083
  20
39.100
  30
0.000
  0
VERTEX
  8
1
  6
DASHED
  10
70.133
  20
38.833
  30
0.000
  0
VERTEX
  8
1
  6
DASHED
  10
69.083
  20
38.517
  30
0.000
  0
VERTEX
  8
1
  6
DASHED
  10
67.900
  20
38.183
  30
0.000
  0
VERTEX
  8
1
  6
DASHED
  10
66.600
  20
37.800
  30
0.000
  0
VERTEX
  8
1
  6
DASHED
  10
65.183
  20
37.400
  30
0.000
  0
VERTEX
  8
1
  6
DASHED
  10
63.683
  20
36.967
  30
0.000
  0
VERTEX
  8
1
  6
DASHED
  10
62.117
  20
36.500
  30
0.000
  0
VERTEX
  8
1
  6
DASHED
  10
60.500
  20
36.033
  30
0.000
  0
VERTEX
  8
1
  6
DASHED
  10
58.900
  20
35.567
  30
0.000
  0
VERTEX
  8
1
  6
DASHED
  10
57.317
  20
35.117
  30
0.000
  0
VERTEX
  8
1
  6
DASHED
  10
55.817
  20
34.683
  30
0.000
  0
VERTEX
  8
1
  6
DASHED
  10
54.417
  20
34.267
  30
0.000
  0
VERTEX
  8
1
  6
DASHED
  10
53.150
  20
33.900
  30
0.000
  0
VERTEX
  8
1
  6
DASHED
  10
52.067
  20
33.583
  30
0.000
  0
VERTEX
  8
1
  6
DASHED
  10
51.167
  20
33.333
  30
0.000
  0
VERTEX
  8
1
  6
DASHED
  10
50.483
  20
33.133
  30
0.000
  0
VERTEX
  8
1
  6
DASHED
  10
50.033
  20
33.000
  30
0.000
  0
VERTEX
  8
1
  6
DASHED
  10
49.850
  20
32.950
  30
0.000
  0
VERTEX
  8
1
  6
DASHED
  10
49.950
  20
33.083
  30
0.000
  0
VERTEX
  8
1
  6
DASHED
  10
50.317
  20
33.700
  30
0.000
  0
VERTEX
  8
1
  6
DASHED
  10
50.933
  20
34.733
  30
0.000
  0
VERTEX
  8
1
  6
DASHED
  10
51.700
  20
35.983
  30
0.000
  0
VERTEX
  8
1
  6
DASHED
  10
52.517
  20
36.167
  30
0.000
  0
VERTEX
  8
1
  6
DASHED
  10
53.400
  20
36.350
  30
0.000
  0
VERTEX
  8
1
  6
DASHED
  10
54.333
  20
36.550
  30
0.000
  0
VERTEX
  8
1
  6
DASHED
  10
55.333
  20
36.767
  30
0.000
  0
VERTEX
  8
1
  6
DASHED
  10
56.417
  20
37.000
  30
0.000
  0
VERTEX
  8
1
  6
DASHED
  10
57.583
  20
37.250
  30
0.000
  0
VERTEX
  8
1
  6
DASHED
  10
58.817
  20
37.517
  30
0.000
  0
VERTEX
  8
1
  6
DASHED
  10
60.117
  20
37.783
  30
0.000
  0
VERTEX
  8
1
  6
DASHED
  10
61.500
  20
38.083
  30
0.000
  0
VERTEX
  8
1
  6
DASHED
  10
62.933
  20
38.383
  30
0.000
  0
VERTEX
  8
1
  6
DASHED
  10
64.433
  20
38.717
  30
0.000
  0
VERTEX
  8
1
  6
DASHED
  10
65.967
  20
39.167
  30
0.000
  0
VERTEX
  8
1
  6
DASHED
  10
67.517
  20
39.617
  30
0.000
  0
VERTEX
  8
1
  6
DASHED
  10
69.033
  20
40.050
  30
0.000
  0
VERTEX
  8
1
  6
DASHED
  10
70.483
  20
40.467
  30
0.000
  0
VERTEX
  8
1
  6
DASHED
  10
71.850
  20
40.867
  30
0.000
  0
VERTEX
  8
1
  6
DASHED
  10
73.100
  20
41.233
  30
0.000
  0
VERTEX
  8
1
  6
DASHED
  10
74.233
  20
41.567
  30
0.000
  0
VERTEX
  8
1
  6
DASHED
  10
75.267
  20
41.867
  30
0.000
  0
VERTEX
  8
1
  6
DASHED
  10
76.217
  20
42.133
  30
0.000
  0
VERTEX
  8
1
  6
DASHED
  10
77.083
  20
42.383
  30
0.000
  0
VERTEX
  8
1
  6
DASHED
  10
77.933
  20
42.633
  30
0.000
  0
VERTEX
  8
1
  6
DASHED
  10
78.833
  20
42.900
  30
0.000
  0
VERTEX
  8
1
  6
DASHED
  10
79.800
  20
43.183
  30
0.000
  0
VERTEX
  8
1
  6
DASHED
  10
80.917
  20
43.500
  30
0.000
  0
VERTEX
  8
1
  6
DASHED
  10
82.233
  20
43.883
  30
0.000
  0
VERTEX
  8
1
  6
DASHED
  10
83.817
  20
44.333
  30
0.000
  0
VERTEX
  8
1
  6
DASHED
  10
85.700
  20
44.883
  30
0.000
  0
VERTEX
  8
1
  6
DASHED
  10
88.067
  20
45.567
  30
0.000
  0
VERTEX
  8
1
  6
DASHED
  10
91.017
  20
46.433
  30
0.000
  0
VERTEX
  8
1
  6
DASHED
  10
94.417
  20
47.417
  30
0.000
  0
VERTEX
  8
1
  6
DASHED
  10
98.050
  20
49.533
  30
0.000
  0
VERTEX
  8
1
  6
DASHED
  10
101.667
  20
54.050
  30
0.000
  0
VERTEX
  8
1
  6
DASHED
  10
104.817
  20
57.200
  30
0.000
  0
VERTEX
  8
1
  6
DASHED
  10
107.250
  20
57.117
  30
0.000
  0
VERTEX
  8
1
  6
DASHED
  10
108.867
  20
57.067
  30
0.000
  0
VERTEX
  8
1
  6
DASHED
  10
109.583
  20
57.050
  30
0.000
  0
VERTEX
  8
1
  6
DASHED
  10
109.417
  20
56.517
  30
0.000
  0
VERTEX
  8
1
  6
DASHED
  10
108.433
  20
53.917
  30
0.000
  0
VERTEX
  8
1
  6
DASHED
  10
106.883
  20
51.183
  30
0.000
  0
VERTEX
  8
1
  6
DASHED
  10
105.050
  20
49.033
  30
0.000
  0
VERTEX
  8
1
  6
DASHED
  10
103.133
  20
46.783
  30
0.000
  0
VERTEX
  8
1
  6
DASHED
  10
101.383
  20
45.667
  30
0.000
  0
VERTEX
  8
1
  6
DASHED
  10
99.850
  20
45.333
  30
0.000
  0
VERTEX
  8
1
  6
DASHED
  10
98.550
  20
45.050
  30
0.000
  0
VERTEX
  8
1
  6
DASHED
  10
97.400
  20
44.817
  30
0.000
  0
VERTEX
  8
1
  6
DASHED
  10
96.317
  20
44.583
  30
0.000
  0
VERTEX
  8
1
  6
DASHED
  10
95.233
  20
44.350
  30
0.000
  0
VERTEX
  8
1
  6
DASHED
  10
94.083
  20
44.017
  30
0.000
  0
VERTEX
  8
1
  6
DASHED
  10
92.850
  20
43.667
  30
0.000
  0
VERTEX
  8
1
  6
DASHED
  10
91.467
  20
43.267
  30
0.000
  0
VERTEX
  8
1
  6
DASHED
  10
89.883
  20
42.800
  30
0.000
  0
VERTEX
  8
1
  6
DASHED
  10
88.067
  20
42.283
  30
0.000
  0
VERTEX
  8
1
  6
DASHED
  10
85.950
  20
41.667
  30
0.000
  0
VERTEX
  8
1
  6
DASHED
  10
83.517
  20
40.967
  30
0.000
  0
VERTEX
  8
1
  6
DASHED
  10
80.800
  20
40.167
  30
0.000
  0
VERTEX
  8
1
  6
DASHED
  10
77.767
  20
39.300
  30
0.000
  0
VERTEX
  8
1
  6
DASHED
  10
74.483
  20
38.350
  30
0.000
  0
VERTEX
  8
1
  6
DASHED
  10
71.000
  20
37.333
  30
0.000
  0
VERTEX
  8
1
  6
DASHED
  10
67.400
  20
36.283
  30
0.000
  0
VERTEX
  8
1
  6
DASHED
  10
63.817
  20
35.250
  30
0.000
  0
VERTEX
  8
1
  6
DASHED
  10
60.383
  20
34.250
  30
0.000
  0
VERTEX
  8
1
  6
DASHED
  10
57.200
  20
33.317
  30
0.000
  0
VERTEX
  8
1
  6
DASHED
  10
54.350
  20
32.500
  30
0.000
  0
VERTEX
  8
1
  6
DASHED
  10
51.933
  20
31.800
  30
0.000
  0
VERTEX
  8
1
  6
DASHED
  10
49.967
  20
31.783
  30
0.000
  0
VERTEX
  8
1
  6
DASHED
  10
48.517
  20
31.833
  30
0.000
  0
VERTEX
  8
1
  6
DASHED
  10
47.617
  20
31.167
  30
0.000
  0
VERTEX
  8
1
  6
DASHED
  10
47.350
  20
30.900
  30
0.000
  0
VERTEX
  8
1
  6
DASHED
  10
47.683
  20
31.767
  30
0.000
  0
VERTEX
  8
1
  6
DASHED
  10
48.483
  20
33.750
  30
0.000
  0
VERTEX
  8
1
  6
DASHED
  10
49.583
  20
35.000
  30
0.000
  0
VERTEX
  8
1
  6
DASHED
  10
50.850
  20
35.267
  30
0.000
  0
VERTEX
  8
1
  6
DASHED
  10
52.250
  20
35.567
  30
0.000
  0
VERTEX
  8
1
  6
DASHED
  10
53.783
  20
35.883
  30
0.000
  0
VERTEX
  8
1
  6
DASHED
  10
55.433
  20
36.250
  30
0.000
  0
VERTEX
  8
1
  6
DASHED
  10
57.183
  20
36.617
  30
0.000
  0
VERTEX
  8
1
  6
DASHED
  10
59.017
  20
37.000
  30
0.000
  0
VERTEX
  8
1
  6
DASHED
  10
60.933
  20
37.417
  30
0.000
  0
VERTEX
  8
1
  6
DASHED
  10
62.900
  20
37.917
  30
0.000
  0
VERTEX
  8
1
  6
DASHED
  10
64.900
  20
38.500
  30
0.000
  0
VERTEX
  8
1
  6
DASHED
  10
66.900
  20
39.083
  30
0.000
  0
VERTEX
  8
1
  6
DASHED
  10
68.850
  20
39.650
  30
0.000
  0
VERTEX
  8
1
  6
DASHED
  10
70.717
  20
40.183
  30
0.000
  0
VERTEX
  8
1
  6
DASHED
  10
72.433
  20
40.683
  30
0.000
  0
VERTEX
  8
1
  6
DASHED
  10
73.967
  20
41.133
  30
0.000
  0
VERTEX
  8
1
  6
DASHED
  10
75.233
  20
41.500
  30
0.000
  0
VERTEX
  8
1
  6
DASHED
  10
76.167
  20
41.767
  30
0.000
  0
VERTEX
  8
1
  6
DASHED
  10
76.717
  20
41.933
  30
0.000
  0
VERTEX
  8
1
  6
DASHED
  10
76.900
  20
41.983
  30
0.000
  0
VERTEX
  8
1
  6
DASHED
  10
76.767
  20
41.783
  30
0.000
  0
VERTEX
  8
1
  6
DASHED
  10
76.467
  20
41.300
  30
0.000
  0
VERTEX
  8
1
  6
DASHED
  10
76.217
  20
40.867
  30
0.000
  0
VERTEX
  8
1
  6
DASHED
  10
76.100
  20
40.667
  30
0.000
  0
VERTEX
  8
1
  6
DASHED
  10
76.200
  20
40.833
  30
0.000
  0
VERTEX
  8
1
  6
DASHED
  10
76.550
  20
41.417
  30
0.000
  0
VERTEX
  8
1
  6
DASHED
  10
77.150
  20
42.050
  30
0.000
  0
VERTEX
  8
1
  6
DASHED
  10
77.950
  20
42.283
  30
0.000
  0
VERTEX
  8
1
  6
DASHED
  10
79.000
  20
42.583
  30
0.000
  0
VERTEX
  8
1
  6
DASHED
  10
80.250
  20
42.950
  30
0.000
  0
VERTEX
  8
1
  6
DASHED
  10
81.717
  20
43.383
  30
0.000
  0
VERTEX
  8
1
  6
DASHED
  10
83.350
  20
43.850
  30
0.000
  0
VERTEX
  8
1
  6
DASHED
  10
85.100
  20
44.367
  30
0.000
  0
VERTEX
  8
1
  6
DASHED
  10
86.967
  20
44.900
  30
0.000
  0
VERTEX
  8
1
  6
DASHED
  10
88.900
  20
45.467
  30
0.000
  0
VERTEX
  8
1
  6
DASHED
  10
90.883
  20
46.033
  30
0.000
  0
VERTEX
  8
1
  6
DASHED
  10
92.900
  20
46.617
  30
0.000
  0
VERTEX
  8
1
  6
DASHED
  10
94.900
  20
47.200
  30
0.000
  0
VERTEX
  8
1
  6
DASHED
  10
96.833
  20
47.767
  30
0.000
  0
VERTEX
  8
1
  6
DASHED
  10
98.650
  20
48.283
  30
0.000
  0
VERTEX
  8
1
  6
DASHED
  10
100.250
  20
48.750
  30
0.000
  0
VERTEX
  8
1
  6
DASHED
  10
101.583
  20
49.150
  30
0.000
  0
VERTEX
  8
1
  6
DASHED
  10
102.567
  20
49.433
  30
0.000
  0
VERTEX
  8
1
  6
DASHED
  10
103.050
  20
49.567
  30
0.000
  0
VERTEX
  8
1
  6
DASHED
  10
103.017
  20
49.450
  30
0.000
  0
VERTEX
  8
1
  6
DASHED
  10
102.467
  20
48.550
  30
0.000
  0
VERTEX
  8
1
  6
DASHED
  10
101.483
  20
46.917
  30
0.000
  0
VERTEX
  8
1
  6
DASHED
  10
100.183
  20
46.317
  30
0.000
  0
VERTEX
  8
1
  6
DASHED
  10
98.583
  20
45.967
  30
0.000
  0
VERTEX
  8
1
  6
DASHED
  10
96.683
  20
45.567
  30
0.000
  0
VERTEX
  8
1
  6
DASHED
  10
94.483
  20
45.100
  30
0.000
  0
VERTEX
  8
1
  6
DASHED
  10
92.000
  20
44.567
  30
0.000
  0
VERTEX
  8
1
  6
DASHED
  10
89.283
  20
43.983
  30
0.000
  0
VERTEX
  8
1
  6
DASHED
  10
86.367
  20
43.183
  30
0.000
  0
VERTEX
  8
1
  6
DASHED
  10
83.333
  20
42.317
  30
0.000
  0
VERTEX
  8
1
  6
DASHED
  10
80.283
  20
41.433
  30
0.000
  0
VERTEX
  8
1
  6
DASHED
  10
77.300
  20
40.567
  30
0.000
  0
VERTEX
  8
1
  6
DASHED
  10
74.483
  20
39.750
  30
0.000
  0
VERTEX
  8
1
  6
DASHED
  10
71.883
  20
38.983
  30
0.000
  0
VERTEX
  8
1
  6
DASHED
  10
69.567
  20
38.317
  30
0.000
  0
VERTEX
  8
1
  6
DASHED
  10
67.567
  20
37.733
  30
0.000
  0
VERTEX
  8
1
  6
DASHED
  10
65.900
  20
37.250
  30
0.000
  0
VERTEX
  8
1
  6
DASHED
  10
64.583
  20
36.867
  30
0.000
  0
VERTEX
  8
1
  6
DASHED
  10
63.583
  20
36.583
  30
0.000
  0
VERTEX
  8
1
  6
DASHED
  10
62.900
  20
36.383
  30
0.000
  0
VERTEX
  8
1
  6
DASHED
  10
62.517
  20
36.267
  30
0.000
  0
VERTEX
  8
1
  6
DASHED
  10
62.433
  20
36.250
  30
0.000
  0
VERTEX
  8
1
  6
DASHED
  10
62.617
  20
36.550
  30
0.000
  0
VERTEX
  8
1
  6
DASHED
  10
63.050
  20
37.283
  30
0.000
  0
VERTEX
  8
1
  6
DASHED
  10
63.717
  20
38.383
  30
0.000
  0
VERTEX
  8
1
  6
DASHED
  10
64.550
  20
39.350
  30
0.000
  0
VERTEX
  8
1
  6
DASHED
  10
65.567
  20
39.567
  30
0.000
  0
VERTEX
  8
1
  6
DASHED
  10
66.733
  20
39.817
  30
0.000
  0
VERTEX
  8
1
  6
DASHED
  10
68.067
  20
40.100
  30
0.000
  0
VERTEX
  8
1
  6
DASHED
  10
69.550
  20
40.417
  30
0.000
  0
VERTEX
  8
1
  6
DASHED
  10
71.167
  20
40.767
  30
0.000
  0
VERTEX
  8
1
  6
DASHED
  10
72.917
  20
41.133
  30
0.000
  0
VERTEX
  8
1
  6
DASHED
  10
74.767
  20
41.517
  30
0.000
  0
VERTEX
  8
1
  6
DASHED
  10
76.683
  20
41.933
  30
0.000
  0
VERTEX
  8
1
  6
DASHED
  10
78.633
  20
42.483
  30
0.000
  0
VERTEX
  8
1
  6
DASHED
  10
80.617
  20
43.050
  30
0.000
  0
VERTEX
  8
1
  6
DASHED
  10
82.567
  20
43.617
  30
0.000
  0
VERTEX
  8
1
  6
DASHED
  10
84.433
  20
44.167
  30
0.000
  0
VERTEX
  8
1
  6
DASHED
  10
86.150
  20
44.667
  30
0.000
  0
VERTEX
  8
1
  6
DASHED
  10
87.700
  20
45.117
  30
0.000
  0
VERTEX
  8
1
  6
DASHED
  10
88.983
  20
45.483
  30
0.000
  0
VERTEX
  8
1
  6
DASHED
  10
89.950
  20
45.767
  30
0.000
  0
VERTEX
  8
1
  6
DASHED
  10
90.500
  20
45.933
  30
0.000
  0
VERTEX
  8
1
  6
DASHED
  10
90.617
  20
45.967
  30
0.000
  0
VERTEX
  8
1
  6
DASHED
  10
90.350
  20
45.517
  30
0.000
  0
VERTEX
  8
1
  6
DASHED
  10
89.750
  20
44.517
  30
0.000
  0
VERTEX
  8
1
  6
DASHED
  10
88.933
  20
43.133
  30
0.000
  0
VERTEX
  8
1
  6
DASHED
  10
87.983
  20
42.750
  30
0.000
  0
VERTEX
  8
1
  6
DASHED
  10
86.950
  20
42.533
  30
0.000
  0
VERTEX
  8
1
  6
DASHED
  10
85.850
  20
42.300
  30
0.000
  0
VERTEX
  8
1
  6
DASHED
  10
84.683
  20
42.050
  30
0.000
  0
VERTEX
  8
1
  6
DASHED
  10
83.467
  20
41.783
  30
0.000
  0
VERTEX
  8
1
  6
DASHED
  10
82.183
  20
41.517
  30
0.000
  0
VERTEX
  8
1
  6
DASHED
  10
80.850
  20
41.233
  30
0.000
  0
VERTEX
  8
1
  6
DASHED
  10
79.483
  20
40.933
  30
0.000
  0
VERTEX
  8
1
  6
DASHED
  10
78.083
  20
40.633
  30
0.000
  0
VERTEX
  8
1
  6
DASHED
  10
76.650
  20
40.333
  30
0.000
  0
VERTEX
  8
1
  6
DASHED
  10
75.200
  20
39.950
  30
0.000
  0
VERTEX
  8
1
  6
DASHED
  10
73.750
  20
39.533
  30
0.000
  0
VERTEX
  8
1
  6
DASHED
  10
72.350
  20
39.117
  30
0.000
  0
VERTEX
  8
1
  6
DASHED
  10
71.050
  20
38.750
  30
0.000
  0
VERTEX
  8
1
  6
DASHED
  10
69.883
  20
38.400
  30
0.000
  0
VERTEX
  8
1
  6
DASHED
  10
68.933
  20
38.133
  30
0.000
  0
VERTEX
  8
1
  6
DASHED
  10
68.233
  20
37.917
  30
0.000
  0
VERTEX
  8
1
  6
DASHED
  10
67.867
  20
37.817
  30
0.000
  0
VERTEX
  8
1
  6
DASHED
  10
67.817
  20
37.833
  30
0.000
  0
VERTEX
  8
1
  6
DASHED
  10
68.100
  20
38.300
  30
0.000
  0
VERTEX
  8
1
  6
DASHED
  10
68.617
  20
39.167
  30
0.000
  0
VERTEX
  8
1
  6
DASHED
  10
69.283
  20
40.283
  30
0.000
  0
VERTEX
  8
1
  6
DASHED
  10
69.983
  20
40.917
  30
0.000
  0
VERTEX
  8
1
  6
DASHED
  10
70.667
  20
41.067
  30
0.000
  0
VERTEX
  8
1
  6
DASHED
  10
71.283
  20
41.200
  30
0.000
  0
VERTEX
  8
1
  6
DASHED
  10
71.850
  20
41.317
  30
0.000
  0
VERTEX
  8
1
  6
DASHED
  10
72.317
  20
41.417
  30
0.000
  0
VERTEX
  8
1
  6
DASHED
  10
72.700
  20
41.500
  30
0.000
  0
VERTEX
  8
1
  6
DASHED
  10
72.967
  20
41.550
  30
0.000
  0
VERTEX
  8
1
  6
DASHED
  10
73.083
  20
41.583
  30
0.000
  0
VERTEX
  8
1
  6
DASHED
  10
73.050
  20
41.517
  30
0.000
  0
VERTEX
  8
1
  6
DASHED
  10
72.850
  20
41.183
  30
0.000
  0
VERTEX
  8
1
  6
DASHED
  10
72.483
  20
40.583
  30
0.000
  0
VERTEX
  8
1
  6
DASHED
  10
72.033
  20
39.817
  30
0.000
  0
VERTEX
  8
1
  6
DASHED
  10
71.583
  20
39.050
  30
0.000
  0
VERTEX
  8
1
  6
DASHED
  10
71.200
  20
38.517
  30
0.000
  0
VERTEX
  8
1
  6
DASHED
  10
71.000
  20
38.483
  30
0.000
  0
VERTEX
  8
1
  6
DASHED
  10
71.017
  20
38.550
  30
0.000
  0
VERTEX
  8
1
  6
DASHED
  10
71.317
  20
39.050
  30
0.000
  0
VERTEX
  8
1
  6
DASHED
  10
71.850
  20
39.933
  30
0.000
  0
VERTEX
  8
1
  6
DASHED
  10
72.517
  20
41.067
  30
0.000
  0
VERTEX
  8
1
  6
DASHED
  10
73.250
  20
41.617
  30
0.000
  0
VERTEX
  8
1
  6
DASHED
  10
73.967
  20
41.767
  30
0.000
  0
VERTEX
  8
1
  6
DASHED
  10
74.683
  20
41.917
  30
0.000
  0
VERTEX
  8
1
  6
DASHED
  10
75.367
  20
42.067
  30
0.000
  0
VERTEX
  8
1
  6
DASHED
  10
76.000
  20
42.200
  30
0.000
  0
VERTEX
  8
1
  6
DASHED
  10
76.567
  20
42.317
  30
0.000
  0
VERTEX
  8
1
  6
DASHED
  10
77.050
  20
42.433
  30
0.000
  0
VERTEX
  8
1
  6
DASHED
  10
77.417
  20
42.500
  30
0.000
  0
VERTEX
  8
1
  6
DASHED
  10
77.667
  20
42.567
  30
0.000
  0
VERTEX
  8
1
  6
DASHED
  10
77.783
  20
42.583
  30
0.000
  0
VERTEX
  8
1
  6
DASHED
  10
77.783
  20
42.567
  30
0.000
  0
VERTEX
  8
1
  6
DASHED
  10
77.700
  20
42.417
  30
0.000
  0
VERTEX
  8
1
  6
DASHED
  10
77.567
  20
42.217
  30
0.000
  0
VERTEX
  8
1
  6
DASHED
  10
77.483
  20
42.050
  30
0.000
  0
VERTEX
  8
1
  6
DASHED
  10
77.450
  20
42.000
  30
0.000
  0
VERTEX
  8
1
  6
DASHED
  10
77.483
  20
42.067
  30
0.000
  0
VERTEX
  8
1
  6
DASHED
  10
77.617
  20
42.283
  30
0.000
  0
VERTEX
  8
1
  6
DASHED
  10
77.817
  20
42.583
  30
0.000
  0
VERTEX
  8
1
  6
DASHED
  10
78.067
  20
42.650
  30
0.000
  0
VERTEX
  8
1
  6
DASHED
  10
78.367
  20
42.717
  30
0.000
  0
VERTEX
  8
1
  6
DASHED
  10
78.733
  20
42.783
  30
0.000
  0
VERTEX
  8
1
  6
DASHED
  10
79.117
  20
42.867
  30
0.000
  0
VERTEX
  8
1
  6
DASHED
  10
79.533
  20
42.950
  30
0.000
  0
VERTEX
  8
1
  6
DASHED
  10
79.933
  20
43.050
  30
0.000
  0
VERTEX
  8
1
  6
DASHED
  10
80.300
  20
43.117
  30
0.000
  0
VERTEX
  8
1
  6
DASHED
  10
80.567
  20
43.183
  30
0.000
  0
VERTEX
  8
1
  6
DASHED
  10
80.667
  20
43.200
  30
0.000
  0
VERTEX
  8
1
  6
DASHED
  10
80.550
  20
43.017
  30
0.000
  0
VERTEX
  8
1
  6
DASHED
  10
80.233
  20
42.483
  30
0.000
  0
VERTEX
  8
1
  6
DASHED
  10
79.783
  20
41.733
  30
0.000
  0
VERTEX
  8
1
  6
DASHED
  10
79.283
  20
40.883
  30
0.000
  0
VERTEX
  8
1
  6
DASHED
  10
78.783
  20
40.150
  30
0.000
  0
VERTEX
  8
1
  6
DASHED
  10
78.350
  20
40.050
  30
0.000
  0
VERTEX
  8
1
  6
DASHED
  10
78.000
  20
39.983
  30
0.000
  0
VERTEX
  8
1
  6
DASHED
  10
77.733
  20
39.917
  30
0.000
  0
VERTEX
  8
1
  6
DASHED
  10
77.567
  20
39.883
  30
0.000
  0
VERTEX
  8
1
  6
DASHED
  10
77.517
  20
39.867
  30
0.000
  0
VERTEX
  8
1
  6
DASHED
  10
77.617
  20
40.050
  30
0.000
  0
VERTEX
  8
1
  6
DASHED
  10
77.900
  20
40.517
  30
0.000
  0
VERTEX
  8
1
  6
DASHED
  10
78.350
  20
41.267
  30
0.000
  0
VERTEX
  8
1
  6
DASHED
  10
78.917
  20
42.217
  30
0.000
  0
VERTEX
  8
1
  6
DASHED
  10
79.500
  20
42.950
  30
0.000
  0
VERTEX
  8
1
  6
DASHED
  10
80.033
  20
43.067
  30
0.000
  0
VERTEX
  8
1
  6
DASHED
  10
80.500
  20
43.167
  30
0.000
  0
VERTEX
  8
1
  6
DASHED
  10
80.850
  20
43.233
  30
0.000
  0
VERTEX
  8
1
  6
DASHED
  10
81.067
  20
43.283
  30
0.000
  0
VERTEX
  8
1
  6
DASHED
  10
81.067
  20
43.250
  30
0.000
  0
VERTEX
  8
1
  6
DASHED
  10
80.850
  20
42.883
  30
0.000
  0
VERTEX
  8
1
  6
DASHED
  10
80.417
  20
42.167
  30
0.000
  0
VERTEX
  8
1
  6
DASHED
  10
79.867
  20
41.233
  30
0.000
  0
VERTEX
  8
1
  6
DASHED
  10
79.267
  20
40.283
  30
0.000
  0
VERTEX
  8
1
  6
DASHED
  10
78.717
  20
40.133
  30
0.000
  0
VERTEX
  8
1
  6
DASHED
  10
78.217
  20
40.017
  30
0.000
  0
VERTEX
  8
1
  6
DASHED
  10
77.767
  20
39.933
  30
0.000
  0
VERTEX
  8
1
  6
DASHED
  10
77.383
  20
39.850
  30
0.000
  0
VERTEX
  8
1
  6
DASHED
  10
77.067
  20
39.783
  30
0.000
  0
VERTEX
  8
1
  6
DASHED
  10
76.833
  20
39.733
  30
0.000
  0
VERTEX
  8
1
  6
DASHED
  10
76.667
  20
39.683
  30
0.000
  0
VERTEX
  8
1
  6
DASHED
  10
76.567
  20
39.667
  30
0.000
  0
VERTEX
  8
1
  6
DASHED
  10
76.500
  20
39.650
  30
0.000
  0
VERTEX
  8
1
  6
DASHED
  10
76.500
  20
39.650
  30
0.000
  0
VERTEX
  8
1
  6
DASHED
  10
76.533
  20
39.700
  30
0.000
  0
VERTEX
  8
1
  6
DASHED
  10
76.567
  20
39.767
  30
0.000
  0
VERTEX
  8
1
  6
DASHED
  10
76.633
  20
39.867
  30
0.000
  0
VERTEX
  8
1
  6
DASHED
  10
76.667
  20
39.933
  30
0.000
  0
VERTEX
  8
1
  6
DASHED
  10
76.700
  20
39.983
  30
0.000
  0
VERTEX
  8
1
  6
DASHED
  10
76.717
  20
40.017
  30
0.000
  0
VERTEX
  8
1
  6
DASHED
  10
76.717
  20
40.017
  30
0.000
  0
VERTEX
  8
1
  6
DASHED
  10
76.733
  20
40.033
  30
0.000
  0
VERTEX
  8
1
  6
DASHED
  10
76.750
  20
40.067
  30
0.000
  0
VERTEX
  8
1
  6
DASHED
  10
76.817
  20
40.183
  30
0.000
  0
VERTEX
  8
1
  6
DASHED
  10
76.983
  20
40.450
  30
0.000
  0
VERTEX
  8
1
  6
DASHED
  10
77.250
  20
40.900
  30
0.000
  0
VERTEX
  8
1
  6
DASHED
  10
77.617
  20
41.517
  30
0.000
  0
VERTEX
  8
1
  6
DASHED
  10
78.050
  20
42.233
  30
0.000
  0
VERTEX
  8
1
  6
DASHED
  10
78.467
  20
42.733
  30
0.000
  0
VERTEX
  8
1
  6
DASHED
  10
78.850
  20
42.817
  30
0.000
  0
VERTEX
  8
1
  6
DASHED
  10
79.167
  20
42.883
  30
0.000
  0
VERTEX
  8
1
  6
DASHED
  10
79.450
  20
42.933
  30
0.000
  0
VERTEX
  8
1
  6
DASHED
  10
79.667
  20
42.983
  30
0.000
  0
VERTEX
  8
1
  6
DASHED
  10
79.833
  20
43.017
  30
0.000
  0
VERTEX
  8
1
  6
DASHED
  10
79.917
  20
43.033
  30
0.000
  0
VERTEX
  8
1
  6
DASHED
  10
79.917
  20
43.017
  30
0.000
  0
VERTEX
  8
1
  6
DASHED
  10
79.800
  20
42.833
  30
0.000
  0
VERTEX
  8
1
  6
DASHED
  10
79.567
  20
42.450
  30
0.000
  0
VERTEX
  8
1
  6
DASHED
  10
79.233
  20
41.883
  30
0.000
  0
VERTEX
  8
1
  6
DASHED
  10
78.800
  20
41.167
  30
0.000
  0
VERTEX
  8
1
  6
DASHED
  10
78.333
  20
40.367
  30
0.000
  0
VERTEX
  8
1
  6
DASHED
  10
77.867
  20
39.950
  30
0.000
  0
VERTEX
  8
1
  6
DASHED
  10
77.450
  20
39.850
  30
0.000
  0
VERTEX
  8
1
  6
DASHED
  10
77.067
  20
39.783
  30
0.000
  0
VERTEX
  8
1
  6
DASHED
  10
76.733
  20
39.700
  30
0.000
  0
VERTEX
  8
1
  6
DASHED
  10
76.450
  20
39.650
  30
0.000
  0
VERTEX
  8
1
  6
DASHED
  10
76.217
  20
39.600
  30
0.000
  0
VERTEX
  8
1
  6
DASHED
  10
76.033
  20
39.550
  30
0.000
  0
VERTEX
  8
1
  6
DASHED
  10
75.917
  20
39.533
  30
0.000
  0
VERTEX
  8
1
  6
DASHED
  10
75.867
  20
39.517
  30
0.000
  0
VERTEX
  8
1
  6
DASHED
  10
75.917
  20
39.600
  30
0.000
  0
VERTEX
  8
1
  6
DASHED
  10
76.083
  20
39.867
  30
0.000
  0
VERTEX
  8
1
  6
DASHED
  10
76.350
  20
40.317
  30
0.000
  0
VERTEX
  8
1
  6
DASHED
  10
76.717
  20
40.933
  30
0.000
  0
VERTEX
  8
1
  6
DASHED
  10
77.150
  20
41.683
  30
0.000
  0
VERTEX
  8
1
  6
DASHED
  10
77.633
  20
42.467
  30
0.000
  0
VERTEX
  8
1
  6
DASHED
  10
78.067
  20
42.650
  30
0.000
  0
VERTEX
  8
1
  6
DASHED
  10
78.483
  20
42.733
  30
0.000
  0
VERTEX
  8
1
  6
DASHED
  10
78.867
  20
42.817
  30
0.000
  0
VERTEX
  8
1
  6
DASHED
  10
79.217
  20
42.883
  30
0.000
  0
VERTEX
  8
1
  6
DASHED
  10
79.550
  20
42.967
  30
0.000
  0
VERTEX
  8
1
  6
DASHED
  10
79.883
  20
43.033
  30
0.000
  0
VERTEX
  8
1
  6
DASHED
  10
80.183
  20
43.100
  30
0.000
  0
VERTEX
  8
1
  6
DASHED
  10
80.467
  20
43.150
  30
0.000
  0
VERTEX
  8
1
  6
DASHED
  10
80.733
  20
43.217
  30
0.000
  0
VERTEX
  8
1
  6
DASHED
  10
80.983
  20
43.267
  30
0.000
  0
VERTEX
  8
1
  6
DASHED
  10
81.183
  20
43.317
  30
0.000
  0
VERTEX
  8
1
  6
DASHED
  10
81.350
  20
43.350
  30
0.000
  0
VERTEX
  8
1
  6
DASHED
  10
81.450
  20
43.367
  30
0.000
  0
VERTEX
  8
1
  6
DASHED
  10
81.467
  20
43.367
  30
0.000
  0
VERTEX
  8
1
  6
DASHED
  10
81.350
  20
43.183
  30
0.000
  0
VERTEX
  8
1
  6
DASHED
  10
81.117
  20
42.783
  30
0.000
  0
VERTEX
  8
1
  6
DASHED
  10
80.750
  20
42.183
  30
0.000
  0
VERTEX
  8
1
  6
DASHED
  10
80.300
  20
41.417
  30
0.000
  0
VERTEX
  8
1
  6
DASHED
  10
79.817
  20
40.600
  30
0.000
  0
VERTEX
  8
1
  6
DASHED
  10
79.400
  20
40.267
  30
0.000
  0
VERTEX
  8
1
  6
DASHED
  10
79.050
  20
40.200
  30
0.000
  0
VERTEX
  8
1
  6
DASHED
  10
78.800
  20
40.150
  30
0.000
  0
VERTEX
  8
1
  6
DASHED
  10
78.650
  20
40.117
  30
0.000
  0
VERTEX
  8
1
  6
DASHED
  10
78.617
  20
40.100
  30
0.000
  0
VERTEX
  8
1
  6
DASHED
  10
78.717
  20
40.283
  30
0.000
  0
VERTEX
  8
1
  6
DASHED
  10
78.950
  20
40.667
  30
0.000
  0
VERTEX
  8
1
  6
DASHED
  10
79.283
  20
41.233
  30
0.000
  0
VERTEX
  8
1
  6
DASHED
  10
79.683
  20
41.883
  30
0.000
  0
VERTEX
  8
1
  6
DASHED
  10
80.067
  20
42.533
  30
0.000
  0
VERTEX
  8
1
  6
DASHED
  10
80.400
  20
43.100
  30
0.000
  0
VERTEX
  8
1
  6
DASHED
  10
80.617
  20
43.183
  30
0.000
  0
VERTEX
  8
1
  6
DASHED
  10
80.717
  20
43.217
  30
0.000
  0
VERTEX
  8
1
  6
DASHED
  10
80.683
  20
43.150
  30
0.000
  0
VERTEX
  8
1
  6
DASHED
  10
80.500
  20
42.833
  30
0.000
  0
VERTEX
  8
1
  6
DASHED
  10
80.183
  20
42.317
  30
0.000
  0
VERTEX
  8
1
  6
DASHED
  10
79.767
  20
41.617
  30
0.000
  0
VERTEX
  8
1
  6
DASHED
  10
79.317
  20
40.867
  30
0.000
  0
VERTEX
  8
1
  6
DASHED
  10
78.900
  20
40.167
  30
0.000
  0
VERTEX
  8
1
  6
DASHED
  10
78.550
  20
40.100
  30
0.000
  0
VERTEX
  8
1
  6
DASHED
  10
78.300
  20
40.033
  30
0.000
  0
VERTEX
  8
1
  6
DASHED
  10
78.167
  20
40.017
  30
0.000
  0
VERTEX
  8
1
  6
DASHED
  10
78.133
  20
40.017
  30
0.000
  0
VERTEX
  8
1
  6
DASHED
  10
78.250
  20
40.183
  30
0.000
  0
VERTEX
  8
1
  6
DASHED
  10
78.500
  20
40.600
  30
0.000
  0
VERTEX
  8
1
  6
DASHED
  10
78.867
  20
41.233
  30
0.000
  0
VERTEX
  8
1
  6
DASHED
  10
79.333
  20
42.033
  30
0.000
  0
VERTEX
  8
1
  6
DASHED
  10
79.850
  20
42.883
  30
0.000
  0
VERTEX
  8
1
  6
DASHED
  10
80.333
  20
43.133
  30
0.000
  0
VERTEX
  8
1
  6
DASHED
  10
80.767
  20
43.217
  30
0.000
  0
VERTEX
  8
1
  6
DASHED
  10
81.150
  20
43.300
  30
0.000
  0
VERTEX
  8
1
  6
DASHED
  10
81.450
  20
43.367
  30
0.000
  0
VERTEX
  8
1
  6
DASHED
  10
81.700
  20
43.417
  30
0.000
  0
VERTEX
  8
1
  6
DASHED
  10
81.867
  20
43.450
  30
0.000
  0
VERTEX
  8
1
  6
DASHED
  10
81.917
  20
43.467
  30
0.000
  0
VERTEX
  8
1
  6
DASHED
  10
81.867
  20
43.400
  30
0.000
  0
VERTEX
  8
1
  6
DASHED
  10
81.700
  20
43.117
  30
0.000
  0
VERTEX
  8
1
  6
DASHED
  10
81.417
  20
42.650
  30
0.000
  0
VERTEX
  8
1
  6
DASHED
  10
81.067
  20
42.033
  30
0.000
  0
VERTEX
  8
1
  6
DASHED
  10
80.650
  20
41.333
  30
0.000
  0
VERTEX
  8
1
  6
DASHED
  10
80.233
  20
40.633
  30
0.000
  0
VERTEX
  8
1
  6
DASHED
  10
79.850
  20
40.367
  30
0.000
  0
VERTEX
  8
1
  6
DASHED
  10
79.533
  20
40.300
  30
0.000
  0
VERTEX
  8
1
  6
DASHED
  10
79.267
  20
40.250
  30
0.000
  0
VERTEX
  8
1
  6
DASHED
  10
79.067
  20
40.200
  30
0.000
  0
VERTEX
  8
1
  6
DASHED
  10
78.917
  20
40.167
  30
0.000
  0
VERTEX
  8
1
  6
DASHED
  10
78.850
  20
40.150
  30
0.000
  0
VERTEX
  8
1
  6
DASHED
  10
78.833
  20
40.167
  30
0.000
  0
VERTEX
  8
1
  6
DASHED
  10
78.917
  20
40.283
  30
0.000
  0
VERTEX
  8
1
  6
DASHED
  10
79.083
  20
40.567
  30
0.000
  0
VERTEX
  8
1
  6
DASHED
  10
79.317
  20
40.967
  30
0.000
  0
VERTEX
  8
1
  6
DASHED
  10
79.617
  20
41.467
  30
0.000
  0
VERTEX
  8
1
  6
DASHED
  10
79.950
  20
42.017
  30
0.000
  0
VERTEX
  8
1
  6
DASHED
  10
80.233
  20
42.517
  30
0.000
  0
VERTEX
  8
1
  6
DASHED
  10
80.450
  20
42.867
  30
0.000
  0
VERTEX
  8
1
  6
DASHED
  10
80.550
  20
43.033
  30
0.000
  0
VERTEX
  8
1
  6
DASHED
  10
80.467
  20
42.917
  30
0.000
  0
VERTEX
  8
1
  6
DASHED
  10
80.250
  20
42.533
  30
0.000
  0
VERTEX
  8
1
  6
DASHED
  10
79.867
  20
41.917
  30
0.000
  0
VERTEX
  8
1
  6
DASHED
  10
79.417
  20
41.150
  30
0.000
  0
VERTEX
  8
1
  6
DASHED
  10
78.950
  20
40.367
  30
0.000
  0
VERTEX
  8
1
  6
DASHED
  10
78.550
  20
40.100
  30
0.000
  0
VERTEX
  8
1
  6
DASHED
  10
78.200
  20
40.017
  30
0.000
  0
VERTEX
  8
1
  6
DASHED
  10
77.933
  20
39.967
  30
0.000
  0
VERTEX
  8
1
  6
DASHED
  10
77.767
  20
39.917
  30
0.000
  0
VERTEX
  8
1
  6
DASHED
  10
77.667
  20
39.900
  30
0.000
  0
VERTEX
  8
1
  6
DASHED
  10
77.683
  20
39.933
  30
0.000
  0
VERTEX
  8
1
  6
DASHED
  10
77.800
  20
40.150
  30
0.000
  0
VERTEX
  8
1
  6
DASHED
  10
78.067
  20
40.567
  30
0.000
  0
VERTEX
  8
1
  6
DASHED
  10
78.417
  20
41.183
  30
0.000
  0
VERTEX
  8
1
  6
DASHED
  10
78.867
  20
41.917
  30
0.000
  0
VERTEX
  8
1
  6
DASHED
  10
79.333
  20
42.717
  30
0.000
  0
VERTEX
  8
1
  6
DASHED
  10
79.783
  20
43.017
  30
0.000
  0
VERTEX
  8
1
  6
DASHED
  10
80.183
  20
43.100
  30
0.000
  0
VERTEX
  8
1
  6
DASHED
  10
80.533
  20
43.167
  30
0.000
  0
VERTEX
  8
1
  6
DASHED
  10
80.817
  20
43.233
  30
0.000
  0
VERTEX
  8
1
  6
DASHED
  10
81.033
  20
43.283
  30
0.000
  0
VERTEX
  8
1
  6
DASHED
  10
81.217
  20
43.317
  30
0.000
  0
VERTEX
  8
1
  6
DASHED
  10
81.350
  20
43.350
  30
0.000
  0
VERTEX
  8
1
  6
DASHED
  10
81.433
  20
43.367
  30
0.000
  0
VERTEX
  8
1
  6
DASHED
  10
81.483
  20
43.383
  30
0.000
  0
VERTEX
  8
1
  6
DASHED
  10
81.500
  20
43.383
  30
0.000
  0
VERTEX
  8
1
  6
DASHED
  10
81.500
  20
43.383
  30
0.000
  0
VERTEX
  8
1
  6
DASHED
  10
81.500
  20
43.367
  30
0.000
  0
VERTEX
  8
1
  6
DASHED
  10
81.483
  20
43.333
  30
0.000
  0
VERTEX
  8
1
  6
DASHED
  10
81.450
  20
43.300
  30
0.000
  0
VERTEX
  8
1
  6
DASHED
  10
81.433
  20
43.250
  30
0.000
  0
VERTEX
  8
1
  6
DASHED
  10
81.400
  20
43.200
  30
0.000
  0
VERTEX
  8
1
  6
DASHED
  10
81.350
  20
43.117
  30
0.000
  0
VERTEX
  8
1
  6
DASHED
  10
81.250
  20
42.950
  30
0.000
  0
VERTEX
  8
1
  6
DASHED
  10
81.067
  20
42.667
  30
0.000
  0
VERTEX
  8
1
  6
DASHED
  10
80.783
  20
42.183
  30
0.000
  0
VERTEX
  8
1
  6
DASHED
  10
80.367
  20
41.483
  30
0.000
  0
VERTEX
  8
1
  6
DASHED
  10
79.883
  20
40.667
  30
0.000
  0
VERTEX
  8
1
  6
DASHED
  10
79.367
  20
40.267
  30
0.000
  0
VERTEX
  8
1
  6
DASHED
  10
78.850
  20
40.150
  30
0.000
  0
VERTEX
  8
1
  6
DASHED
  10
78.300
  20
40.033
  30
0.000
  0
VERTEX
  8
1
  6
DASHED
  10
77.717
  20
39.917
  30
0.000
  0
VERTEX
  8
1
  6
DASHED
  10
77.117
  20
39.783
  30
0.000
  0
VERTEX
  8
1
  6
DASHED
  10
76.483
  20
39.650
  30
0.000
  0
VERTEX
  8
1
  6
DASHED
  10
75.817
  20
39.517
  30
0.000
  0
VERTEX
  8
1
  6
DASHED
  10
75.150
  20
39.367
  30
0.000
  0
VERTEX
  8
1
  6
DASHED
  10
74.483
  20
39.217
  30
0.000
  0
VERTEX
  8
1
  6
DASHED
  10
73.817
  20
39.083
  30
0.000
  0
VERTEX
  8
1
  6
DASHED
  10
73.183
  20
38.950
  30
0.000
  0
VERTEX
  8
1
  6
DASHED
  10
72.600
  20
38.817
  30
0.000
  0
VERTEX
  8
1
  6
DASHED
  10
72.067
  20
38.717
  30
0.000
  0
VERTEX
  8
1
  6
DASHED
  10
71.617
  20
38.617
  30
0.000
  0
VERTEX
  8
1
  6
DASHED
  10
71.250
  20
38.533
  30
0.000
  0
VERTEX
  8
1
  6
DASHED
  10
71.000
  20
38.483
  30
0.000
  0
VERTEX
  8
1
  6
DASHED
  10
70.883
  20
38.450
  30
0.000
  0
VERTEX
  8
1
  6
DASHED
  10
70.950
  20
38.550
  30
0.000
  0
VERTEX
  8
1
  6
DASHED
  10
71.167
  20
38.933
  30
0.000
  0
VERTEX
  8
1
  6
DASHED
  10
71.550
  20
39.567
  30
0.000
  0
VERTEX
  8
1
  6
DASHED
  10
72.050
  20
40.383
  30
0.000
  0
VERTEX
  8
1
  6
DASHED
  10
72.567
  20
41.267
  30
0.000
  0
VERTEX
  8
1
  6
DASHED
  10
73.067
  20
41.583
  30
0.000
  0
VERTEX
  8
1
  6
DASHED
  10
73.517
  20
41.667
  30
0.000
  0
VERTEX
  8
1
  6
DASHED
  10
73.917
  20
41.767
  30
0.000
  0
VERTEX
  8
1
  6
DASHED
  10
74.283
  20
41.833
  30
0.000
  0
VERTEX
  8
1
  6
DASHED
  10
74.633
  20
41.917
  30
0.000
  0
VERTEX
  8
1
  6
DASHED
  10
74.950
  20
41.983
  30
0.000
  0
VERTEX
  8
1
  6
DASHED
  10
75.217
  20
42.033
  30
0.000
  0
VERTEX
  8
1
  6
DASHED
  10
75.467
  20
42.083
  30
0.000
  0
VERTEX
  8
1
  6
DASHED
  10
75.683
  20
42.133
  30
0.000
  0
VERTEX
  8
1
  6
DASHED
  10
75.833
  20
42.167
  30
0.000
  0
VERTEX
  8
1
  6
DASHED
  10
75.933
  20
42.183
  30
0.000
  0
VERTEX
  8
1
  6
DASHED
  10
75.950
  20
42.200
  30
0.000
  0
VERTEX
  8
1
  6
DASHED
  10
75.883
  20
42.067
  30
0.000
  0
VERTEX
  8
1
  6
DASHED
  10
75.700
  20
41.750
  30
0.000
  0
VERTEX
  8
1
  6
DASHED
  10
75.417
  20
41.300
  30
0.000
  0
VERTEX
  8
1
  6
DASHED
  10
75.100
  20
40.750
  30
0.000
  0
VERTEX
  8
1
  6
DASHED
  10
74.783
  20
40.217
  30
0.000
  0
VERTEX
  8
1
  6
DASHED
  10
74.517
  20
39.783
  30
0.000
  0
VERTEX
  8
1
  6
DASHED
  10
74.383
  20
39.533
  30
0.000
  0
VERTEX
  8
1
  6
DASHED
  10
74.400
  20
39.567
  30
0.000
  0
VERTEX
  8
1
  6
DASHED
  10
74.583
  20
39.883
  30
0.000
  0
VERTEX
  8
1
  6
DASHED
  10
74.950
  20
40.500
  30
0.000
  0
VERTEX
  8
1
  6
DASHED
  10
75.417
  20
41.267
  30
0.000
  0
VERTEX
  8
1
  6
DASHED
  10
75.900
  20
42.100
  30
0.000
  0
VERTEX
  8
1
  6
DASHED
  10
76.367
  20
42.283
  30
0.000
  0
VERTEX
  8
1
  6
DASHED
  10
76.783
  20
42.367
  30
0.000
  0
VERTEX
  8
1
  6
DASHED
  10
77.133
  20
42.450
  30
0.000
  0
VERTEX
  8
1
  6
DASHED
  10
77.417
  20
42.500
  30
0.000
  0
VERTEX
  8
1
  6
DASHED
  10
77.650
  20
42.550
  30
0.000
  0
VERTEX
  8
1
  6
DASHED
  10
77.800
  20
42.583
  30
0.000
  0
VERTEX
  8
1
  6
DASHED
  10
77.850
  20
42.600
  30
0.000
  0
VERTEX
  8
1
  6
DASHED
  10
77.783
  20
42.500
  30
0.000
  0
VERTEX
  8
1
  6
DASHED
  10
77.600
  20
42.183
  30
0.000
  0
VERTEX
  8
1
  6
DASHED
  10
77.300
  20
41.683
  30
0.000
  0
VERTEX
  8
1
  6
DASHED
  10
76.900
  20
41.033
  30
0.000
  0
VERTEX
  8
1
  6
DASHED
  10
76.483
  20
40.317
  30
0.000
  0
VERTEX
  8
1
  6
DASHED
  10
76.050
  20
39.600
  30
0.000
  0
VERTEX
  8
1
  6
DASHED
  10
75.683
  20
39.483
  30
0.000
  0
VERTEX
  8
1
  6
DASHED
  10
75.367
  20
39.417
  30
0.000
  0
VERTEX
  8
1
  6
DASHED
  10
75.117
  20
39.367
  30
0.000
  0
VERTEX
  8
1
  6
DASHED
  10
74.917
  20
39.317
  30
0.000
  0
VERTEX
  8
1
  6
DASHED
  10
74.800
  20
39.283
  30
0.000
  0
VERTEX
  8
1
  6
DASHED
  10
74.733
  20
39.283
  30
0.000
  0
VERTEX
  8
1
  6
DASHED
  10
74.750
  20
39.317
  30
0.000
  0
VERTEX
  8
1
  6
DASHED
  10
74.867
  20
39.483
  30
0.000
  0
VERTEX
  8
1
  6
DASHED
  10
75.067
  20
39.833
  30
0.000
  0
VERTEX
  8
1
  6
DASHED
  10
75.367
  20
40.333
  30
0.000
  0
VERTEX
  8
1
  6
DASHED
  10
75.750
  20
40.967
  30
0.000
  0
VERTEX
  8
1
  6
DASHED
  10
76.200
  20
41.717
  30
0.000
  0
VERTEX
  8
1
  6
DASHED
  10
76.667
  20
42.350
  30
0.000
  0
VERTEX
  8
1
  6
DASHED
  10
77.100
  20
42.433
  30
0.000
  0
VERTEX
  8
1
  6
DASHED
  10
77.500
  20
42.533
  30
0.000
  0
VERTEX
  8
1
  6
DASHED
  10
77.900
  20
42.600
  30
0.000
  0
VERTEX
  8
1
  6
DASHED
  10
78.250
  20
42.683
  30
0.000
  0
VERTEX
  8
1
  6
DASHED
  10
78.583
  20
42.750
  30
0.000
  0
VERTEX
  8
1
  6
DASHED
  10
78.900
  20
42.817
  30
0.000
  0
VERTEX
  8
1
  6
DASHED
  10
79.183
  20
42.883
  30
0.000
  0
VERTEX
  8
1
  6
DASHED
  10
79.433
  20
42.933
  30
0.000
  0
VERTEX
  8
1
  6
DASHED
  10
79.683
  20
42.983
  30
0.000
  0
VERTEX
  8
1
  6
DASHED
  10
79.900
  20
43.033
  30
0.000
  0
VERTEX
  8
1
  6
DASHED
  10
80.083
  20
43.083
  30
0.000
  0
VERTEX
  8
1
  6
DASHED
  10
80.250
  20
43.117
  30
0.000
  0
VERTEX
  8
1
  6
DASHED
  10
80.383
  20
43.133
  30
0.000
  0
VERTEX
  8
1
  6
DASHED
  10
80.483
  20
43.167
  30
0.000
  0
VERTEX
  8
1
  6
DASHED
  10
80.550
  20
43.183
  30
0.000
  0
VERTEX
  8
1
  6
DASHED
  10
80.550
  20
43.183
  30
0.000
  0
VERTEX
  8
1
  6
DASHED
  10
80.500
  20
43.083
  30
0.000
  0
VERTEX
  8
1
  6
DASHED
  10
80.367
  20
42.867
  30
0.000
  0
VERTEX
  8
1
  6
DASHED
  10
80.167
  20
42.550
  30
0.000
  0
VERTEX
  8
1
  6
DASHED
  10
79.933
  20
42.133
  30
0.000
  0
VERTEX
  8
1
  6
DASHED
  10
79.650
  20
41.667
  30
0.000
  0
VERTEX
  8
1
  6
DASHED
  10
79.383
  20
41.200
  30
0.000
  0
VERTEX
  8
1
  6
DASHED
  10
79.133
  20
40.783
  30
0.000
  0
VERTEX
  8
1
  6
DASHED
  10
78.933
  20
40.467
  30
0.000
  0
VERTEX
  8
1
  6
DASHED
  10
78.817
  20
40.250
  30
0.000
  0
VERTEX
  8
1
  6
DASHED
  10
78.750
  20
40.133
  30
0.000
  0
VERTEX
  8
1
  6
DASHED
  10
78.750
  20
40.150
  30
0.000
  0
VERTEX
  8
1
  6
DASHED
  10
78.783
  20
40.217
  30
0.000
  0
VERTEX
  8
1
  6
DASHED
  10
78.867
  20
40.333
  30
0.000
  0
VERTEX
  8
1
  6
DASHED
  10
78.950
  20
40.483
  30
0.000
  0
VERTEX
  8
1
  6
DASHED
  10
79.033
  20
40.617
  30
0.000
  0
VERTEX
  8
1
  6
DASHED
  10
79.100
  20
40.750
  30
0.000
  0
VERTEX
  8
1
  6
DASHED
  10
79.150
  20
40.833
  30
0.000
  0
VERTEX
  8
1
  6
DASHED
  10
79.183
  20
40.883
  30
0.000
  0
VERTEX
  8
1
  6
DASHED
  10
79.183
  20
40.883
  30
0.000
  0
VERTEX
  8
1
  6
DASHED
  10
79.183
  20
40.900
  30
0.000
  0
VERTEX
  8
1
  6
DASHED
  10
79.200
  20
40.917
  30
0.000
  0
VERTEX
  8
1
  6
DASHED
  10
79.233
  20
40.967
  30
0.000
  0
VERTEX
  8
1
  6
DASHED
  10
79.317
  20
41.117
  30
0.000
  0
VERTEX
  8
1
  6
DASHED
  10
79.450
  20
41.333
  30
0.000
  0
VERTEX
  8
1
  6
DASHED
  10
79.633
  20
41.633
  30
0.000
  0
VERTEX
  8
1
  6
DASHED
  10
79.850
  20
42.000
  30
0.000
  0
VERTEX
  8
1
  6
DASHED
  10
80.100
  20
42.400
  30
0.000
  0
VERTEX
  8
1
  6
DASHED
  10
80.333
  20
42.800
  30
0.000
  0
VERTEX
  8
1
  6
DASHED
  10
80.533
  20
43.150
  30
0.000
  0
VERTEX
  8
1
  6
DASHED
  10
80.700
  20
43.200
  30
0.000
  0
VERTEX
  8
1
  6
DASHED
  10
80.800
  20
43.233
  30
0.000
  0
VERTEX
  8
1
  6
DASHED
  10
80.850
  20
43.233
  30
0.000
  0
VERTEX
  8
1
  6
DASHED
  10
80.850
  20
43.233
  30
0.000
  0
VERTEX
  8
1
  6
DASHED
  10
80.783
  20
43.133
  30
0.000
  0
VERTEX
  8
1
  6
DASHED
  10
80.667
  20
42.933
  30
0.000
  0
VERTEX
  8
1
  6
DASHED
  10
80.500
  20
42.650
  30
0.000
  0
VERTEX
  8
1
  6
DASHED
  10
80.300
  20
42.317
  30
0.000
  0
VERTEX
  8
1
  6
DASHED
  10
80.083
  20
41.950
  30
0.000
  0
VERTEX
  8
1
  6
DASHED
  10
79.883
  20
41.600
  30
0.000
  0
VERTEX
  8
1
  6
DASHED
  10
79.683
  20
41.267
  30
0.000
  0
VERTEX
  8
1
  6
DASHED
  10
79.517
  20
41.000
  30
0.000
  0
VERTEX
  8
1
  6
DASHED
  10
79.417
  20
40.817
  30
0.000
  0
VERTEX
  8
1
  6
DASHED
  10
79.350
  20
40.717
  30
0.000
  0
VERTEX
  8
1
  6
DASHED
  10
79.350
  20
40.717
  30
0.000
  0
VERTEX
  8
1
  6
DASHED
  10
79.400
  20
40.783
  30
0.000
  0
VERTEX
  8
1
  6
DASHED
  10
79.467
  20
40.883
  30
0.000
  0
VERTEX
  8
1
  6
DASHED
  10
79.517
  20
41.000
  30
0.000
  0
VERTEX
  8
1
  6
DASHED
  10
79.567
  20
41.067
  30
0.000
  0
VERTEX
  8
1
  6
DASHED
  10
79.567
  20
41.083
  30
0.000
  0
VERTEX
  8
1
  6
DASHED
  10
79.550
  20
41.033
  30
0.000
  0
VERTEX
  8
1
  6
DASHED
  10
79.500
  20
40.950
  30
0.000
  0
VERTEX
  8
1
  6
DASHED
  10
79.450
  20
40.867
  30
0.000
  0
VERTEX
  8
1
  6
DASHED
  10
79.433
  20
40.850
  30
0.000
  0
VERTEX
  8
1
  6
DASHED
  10
79.483
  20
40.917
  30
0.000
  0
VERTEX
  8
1
  6
DASHED
  10
79.600
  20
41.117
  30
0.000
  0
VERTEX
  8
1
  6
DASHED
  10
79.800
  20
41.467
  30
0.000
  0
VERTEX
  8
1
  6
DASHED
  10
80.083
  20
41.933
  30
0.000
  0
VERTEX
  8
1
  6
DASHED
  10
80.400
  20
42.467
  30
0.000
  0
VERTEX
  8
1
  6
DASHED
  10
80.700
  20
42.983
  30
0.000
  0
VERTEX
  8
1
  6
DASHED
  10
80.950
  20
43.267
  30
0.000
  0
VERTEX
  8
1
  6
DASHED
  10
81.067
  20
43.283
  30
0.000
  0
VERTEX
  8
1
  6
DASHED
  10
81.033
  20
43.233
  30
0.000
  0
VERTEX
  8
1
  6
DASHED
  10
80.833
  20
42.867
  30
0.000
  0
VERTEX
  8
1
  6
DASHED
  10
80.417
  20
42.183
  30
0.000
  0
VERTEX
  8
1
  6
DASHED
  10
79.867
  20
41.267
  30
0.000
  0
VERTEX
  8
1
  6
DASHED
  10
79.250
  20
40.250
  30
0.000
  0
VERTEX
  8
1
  6
DASHED
  10
78.633
  20
40.117
  30
0.000
  0
VERTEX
  8
1
  6
DASHED
  10
78.050
  20
39.983
  30
0.000
  0
VERTEX
  8
1
  6
DASHED
  10
77.467
  20
39.867
  30
0.000
  0
VERTEX
  8
1
  6
DASHED
  10
76.917
  20
39.750
  30
0.000
  0
VERTEX
  8
1
  6
DASHED
  10
76.400
  20
39.633
  30
0.000
  0
VERTEX
  8
1
  6
DASHED
  10
75.933
  20
39.533
  30
0.000
  0
VERTEX
  8
1
  6
DASHED
  10
75.533
  20
39.450
  30
0.000
  0
VERTEX
  8
1
  6
DASHED
  10
75.200
  20
39.383
  30
0.000
  0
VERTEX
  8
1
  6
DASHED
  10
75.000
  20
39.333
  30
0.000
  0
VERTEX
  8
1
  6
DASHED
  10
74.933
  20
39.317
  30
0.000
  0
VERTEX
  8
1
  6
DASHED
  10
75.050
  20
39.517
  30
0.000
  0
VERTEX
  8
1
  6
DASHED
  10
75.350
  20
40.033
  30
0.000
  0
VERTEX
  8
1
  6
DASHED
  10
75.817
  20
40.800
  30
0.000
  0
VERTEX
  8
1
  6
DASHED
  10
76.367
  20
41.717
  30
0.000
  0
VERTEX
  8
1
  6
DASHED
  10
76.900
  20
42.400
  30
0.000
  0
VERTEX
  8
1
  6
DASHED
  10
77.367
  20
42.500
  30
0.000
  0
VERTEX
  8
1
  6
DASHED
  10
77.767
  20
42.583
  30
0.000
  0
VERTEX
  8
1
  6
DASHED
  10
78.083
  20
42.650
  30
0.000
  0
VERTEX
  8
1
  6
DASHED
  10
78.300
  20
42.700
  30
0.000
  0
VERTEX
  8
1
  6
DASHED
  10
78.417
  20
42.717
  30
0.000
  0
VERTEX
  8
1
  6
DASHED
  10
78.433
  20
42.717
  30
0.000
  0
VERTEX
  8
1
  6
DASHED
  10
78.350
  20
42.583
  30
0.000
  0
VERTEX
  8
1
  6
DASHED
  10
78.200
  20
42.350
  30
0.000
  0
VERTEX
  8
1
  6
DASHED
  10
78.050
  20
42.067
  30
0.000
  0
VERTEX
  8
1
  6
DASHED
  10
77.900
  20
41.850
  30
0.000
  0
VERTEX
  8
1
  6
DASHED
  10
77.833
  20
41.700
  30
0.000
  0
VERTEX
  8
1
  6
DASHED
  10
77.817
  20
41.683
  30
0.000
  0
VERTEX
  8
1
  6
DASHED
  10
77.883
  20
41.800
  30
0.000
  0
VERTEX
  8
1
  6
DASHED
  10
78.000
  20
42.000
  30
0.000
  0
VERTEX
  8
1
  6
DASHED
  10
78.167
  20
42.283
  30
0.000
  0
VERTEX
  8
1
  6
DASHED
  10
78.350
  20
42.567
  30
0.000
  0
VERTEX
  8
1
  6
DASHED
  10
78.500
  20
42.733
  30
0.000
  0
VERTEX
  8
1
  6
DASHED
  10
78.617
  20
42.767
  30
0.000
  0
VERTEX
  8
1
  6
DASHED
  10
78.700
  20
42.783
  30
0.000
  0
VERTEX
  8
1
  6
DASHED
  10
78.733
  20
42.783
  30
0.000
  0
VERTEX
  8
1
  6
DASHED
  10
78.700
  20
42.717
  30
0.000
  0
VERTEX
  8
1
  6
DASHED
  10
78.567
  20
42.517
  30
0.000
  0
VERTEX
  8
1
  6
DASHED
  10
78.367
  20
42.167
  30
0.000
  0
VERTEX
  8
1
  6
DASHED
  10
78.100
  20
41.733
  30
0.000
  0
VERTEX
  8
1
  6
DASHED
  10
77.800
  20
41.217
  30
0.000
  0
VERTEX
  8
1
  6
DASHED
  10
77.500
  20
40.700
  30
0.000
  0
VERTEX
  8
1
  6
DASHED
  10
77.233
  20
40.267
  30
0.000
  0
VERTEX
  8
1
  6
DASHED
  10
77.033
  20
39.933
  30
0.000
  0
VERTEX
  8
1
  6
DASHED
  10
76.933
  20
39.767
  30
0.000
  0
VERTEX
  8
1
  6
DASHED
  10
76.917
  20
39.750
  30
0.000
  0
VERTEX
  8
1
  6
DASHED
  10
76.983
  20
39.867
  30
0.000
  0
VERTEX
  8
1
  6
DASHED
  10
77.100
  20
40.067
  30
0.000
  0
VERTEX
  8
1
  6
DASHED
  10
77.250
  20
40.300
  30
0.000
  0
VERTEX
  8
1
  6
DASHED
  10
77.383
  20
40.517
  30
0.000
  0
VERTEX
  8
1
  6
DASHED
  10
77.483
  20
40.683
  30
0.000
  0
VERTEX
  8
1
  6
DASHED
  10
77.533
  20
40.800
  30
0.000
  0
VERTEX
  8
1
  6
DASHED
  10
77.567
  20
40.833
  30
0.000
  0
VERTEX
  8
1
  6
DASHED
  10
77.583
  20
40.850
  30
0.000
  0
VERTEX
  8
1
  6
DASHED
  10
77.600
  20
40.883
  30
0.000
  0
VERTEX
  8
1
  6
DASHED
  10
77.650
  20
40.983
  30
0.000
  0
VERTEX
  8
1
  6
DASHED
  10
77.767
  20
41.183
  30
0.000
  0
VERTEX
  8
1
  6
DASHED
  10
77.967
  20
41.500
  30
0.000
  0
VERTEX
  8
1
  6
DASHED
  10
78.217
  20
41.933
  30
0.000
  0
VERTEX
  8
1
  6
DASHED
  10
78.500
  20
42.400
  30
0.000
  0
VERTEX
  8
1
  6
DASHED
  10
78.767
  20
42.800
  30
0.000
  0
VERTEX
  8
1
  6
DASHED
  10
78.983
  20
42.850
  30
0.000
  0
VERTEX
  8
1
  6
DASHED
  10
79.150
  20
42.883
  30
0.000
  0
VERTEX
  8
1
  6
DASHED
  10
79.233
  20
42.900
  30
0.000
  0
VERTEX
  8
1
  6
DASHED
  10
79.233
  20
42.883
  30
0.000
  0
VERTEX
  8
1
  6
DASHED
  10
79.133
  20
42.700
  30
0.000
  0
VERTEX
  8
1
  6
DASHED
  10
78.933
  20
42.367
  30
0.000
  0
VERTEX
  8
1
  6
DASHED
  10
78.650
  20
41.900
  30
0.000
  0
VERTEX
  8
1
  6
DASHED
  10
78.333
  20
41.383
  30
0.000
  0
VERTEX
  8
1
  6
DASHED
  10
78.017
  20
40.850
  30
0.000
  0
VERTEX
  8
1
  6
DASHED
  10
77.733
  20
40.367
  30
0.000
  0
VERTEX
  8
1
  6
DASHED
  10
77.500
  20
39.983
  30
0.000
  0
VERTEX
  8
1
  6
DASHED
  10
77.350
  20
39.833
  30
0.000
  0
VERTEX
  8
1
  6
DASHED
  10
77.250
  20
39.817
  30
0.000
  0
VERTEX
  8
1
  6
DASHED
  10
77.200
  20
39.800
  30
0.000
  0
VERTEX
  8
1
  6
DASHED
  10
77.200
  20
39.817
  30
0.000
  0
VERTEX
  8
1
  6
DASHED
  10
77.250
  20
39.900
  30
0.000
  0
VERTEX
  8
1
  6
DASHED
  10
77.333
  20
40.033
  30
0.000
  0
VERTEX
  8
1
  6
DASHED
  10
77.450
  20
40.233
  30
0.000
  0
VERTEX
  8
1
  6
DASHED
  10
77.600
  20
40.483
  30
0.000
  0
VERTEX
  8
1
  6
DASHED
  10
77.783
  20
40.783
  30
0.000
  0
VERTEX
  8
1
  6
DASHED
  10
77.983
  20
41.117
  30
0.000
  0
VERTEX
  8
1
  6
DASHED
  10
78.200
  20
41.500
  30
0.000
  0
VERTEX
  8
1
  6
DASHED
  10
78.450
  20
41.883
  30
0.000
  0
VERTEX
  8
1
  6
DASHED
  10
78.683
  20
42.283
  30
0.000
  0
VERTEX
  8
1
  6
DASHED
  10
78.900
  20
42.650
  30
0.000
  0
VERTEX
  8
1
  6
DASHED
  10
79.083
  20
42.867
  30
0.000
  0
VERTEX
  8
1
  6
DASHED
  10
79.233
  20
42.900
  30
0.000
  0
VERTEX
  8
1
  6
DASHED
  10
79.333
  20
42.917
  30
0.000
  0
VERTEX
  8
1
  6
DASHED
  10
79.383
  20
42.933
  30
0.000
  0
VERTEX
  8
1
  6
DASHED
  10
79.383
  20
42.917
  30
0.000
  0
VERTEX
  8
1
  6
DASHED
  10
79.300
  20
42.783
  30
0.000
  0
VERTEX
  8
1
  6
DASHED
  10
79.167
  20
42.550
  30
0.000
  0
VERTEX
  8
1
  6
DASHED
  10
78.950
  20
42.183
  30
0.000
  0
VERTEX
  8
1
  6
DASHED
  10
78.667
  20
41.733
  30
0.000
  0
VERTEX
  8
1
  6
DASHED
  10
78.367
  20
41.217
  30
0.000
  0
VERTEX
  8
1
  6
DASHED
  10
78.050
  20
40.700
  30
0.000
  0
VERTEX
  8
1
  6
DASHED
  10
77.767
  20
40.217
  30
0.000
  0
VERTEX
  8
1
  6
DASHED
  10
77.550
  20
39.883
  30
0.000
  0
VERTEX
  8
1
  6
DASHED
  10
77.400
  20
39.850
  30
0.000
  0
VERTEX
  8
1
  6
DASHED
  10
77.333
  20
39.833
  30
0.000
  0
VERTEX
  8
1
  6
DASHED
  10
77.350
  20
39.867
  30
0.000
  0
VERTEX
  8
1
  6
DASHED
  10
77.450
  20
40.033
  30
0.000
  0
VERTEX
  8
1
  6
DASHED
  10
77.633
  20
40.333
  30
0.000
  0
VERTEX
  8
1
  6
DASHED
  10
77.867
  20
40.733
  30
0.000
  0
VERTEX
  8
1
  6
DASHED
  10
78.150
  20
41.200
  30
0.000
  0
VERTEX
  8
1
  6
DASHED
  10
78.450
  20
41.717
  30
0.000
  0
VERTEX
  8
1
  6
DASHED
  10
78.750
  20
42.200
  30
0.000
  0
VERTEX
  8
1
  6
DASHED
  10
79.000
  20
42.633
  30
0.000
  0
VERTEX
  8
1
  6
DASHED
  10
79.200
  20
42.883
  30
0.000
  0
VERTEX
  8
1
  6
DASHED
  10
79.333
  20
42.917
  30
0.000
  0
VERTEX
  8
1
  6
DASHED
  10
79.400
  20
42.933
  30
0.000
  0
VERTEX
  8
1
  6
DASHED
  10
79.400
  20
42.917
  30
0.000
  0
VERTEX
  8
1
  6
DASHED
  10
79.333
  20
42.817
  30
0.000
  0
VERTEX
  8
1
  6
DASHED
  10
79.217
  20
42.600
  30
0.000
  0
VERTEX
  8
1
  6
DASHED
  10
79.033
  20
42.283
  30
0.000
  0
VERTEX
  8
1
  6
DASHED
  10
78.817
  20
41.917
  30
0.000
  0
VERTEX
  8
1
  6
DASHED
  10
78.567
  20
41.517
  30
0.000
  0
VERTEX
  8
1
  6
DASHED
  10
78.333
  20
41.117
  30
0.000
  0
VERTEX
  8
1
  6
DASHED
  10
78.100
  20
40.750
  30
0.000
  0
VERTEX
  8
1
  6
DASHED
  10
77.917
  20
40.417
  30
0.000
  0
VERTEX
  8
1
  6
DASHED
  10
77.750
  20
40.150
  30
0.000
  0
VERTEX
  8
1
  6
DASHED
  10
77.633
  20
39.950
  30
0.000
  0
VERTEX
  8
1
  6
DASHED
  10
77.550
  20
39.883
  30
0.000
  0
VERTEX
  8
1
  6
DASHED
  10
77.517
  20
39.867
  30
0.000
  0
VERTEX
  8
1
  6
DASHED
  10
77.517
  20
39.883
  30
0.000
  0
VERTEX
  8
1
  6
DASHED
  10
77.550
  20
39.933
  30
0.000
  0
VERTEX
  8
1
  6
DASHED
  10
77.617
  20
40.033
  30
0.000
  0
VERTEX
  8
1
  6
DASHED
  10
77.683
  20
40.167
  30
0.000
  0
VERTEX
  8
1
  6
DASHED
  10
77.783
  20
40.317
  30
0.000
  0
VERTEX
  8
1
  6
DASHED
  10
77.883
  20
40.500
  30
0.000
  0
SEQEND
  0
ENDSEC
  0
EOF
