999
% GNUPLOT: dxf file for AutoCad
  0
SECTION
  2
HEADER
  9
$EXTMIN
 10
0.000
 20
0.000
  9
$EXTMAX
 10
120.000
 20
80.000
  9
$LIMMIN
 10
0.000
 20
0.000
  9
$LIMMAX
 10
120.000
 20
80.000
  9
$TEXTSTYLE
  7
STANDARD
  9
$TEXTSIZE
 40
1.456 
  9
$PLINEWID
 40
0.0351
  9
$LTSCALE
  40
1.000 
  9
$COORDS
 70
  1
  9
$CELTYPE
 6
BYLAYER
  9
$CLAYER
  8
0
  9
$CECOLOR
 62
   7
  9
$MENU
  1
acad
  0
ENDSEC
  0
SECTION
  2
TABLES
0
TABLE
  2
LTYPE
 70
    7
0
LTYPE
  2
CONTINUOUS
 70
    64
  3
Solid line
 72
    65
 73
      0
 40
0.0
  0
LTYPE
  2
DASHED
 70
    64
  3
__ __ __ __ __ __ __ __ __ __ __ __ __ __ __
 72
    65
 73
     2
 40
0.75
 49
0.5
 49
-0.25
  0
LTYPE
  2
HIDDEN
 70
    64
  3
_ _ _ _ _ _ _ _ _ _ _ _ _ _ _ _ _ _ _ _ _ _ _
 72
    65
 73
     2
 40
0.375
 49
0.25
 49
-0.125
  0
LTYPE
  2
CENTER
 70
    64
  3
____ _ ____ _ ____ _ ____ _ ____ _ ____ _ ____
 72
    65
 73
     4
 40
2.0
 49
1.25
 49
-0.25
 49
0.25
 49
-0.25
  0
LTYPE
  2
PHANTOM
 70
    64
  3
_____ _ _ _____ _ _ _____ _ _ _____ _ _ ____
 72
    65
 73
     6
 40
2.5
 49
1.25
 49
-0.25
 49
0.25
 49
-0.25
 49
0.25
 49
-0.25
  0
LTYPE
  2
DOT
 70
    64
  3
...............................................
 72
    65
 73
     2
 40
0.25
 49
0.0
 49
-0.25
  0
LTYPE
  2
DASHDOT
 70
    64
  3
__ . __ . __ . __ . __ . __ . __ . __ . __ . __
 72
    65
 73
     4
 40
1.0
 49
0.5
 49
-0.25
 49
0.0
 49
-0.25
  0
ENDTAB
  0
TABLE
  2
LAYER
 70
   7
  0
LAYER
  2
0
 70
   64
62
   7
  6
CONTINUOUS
  0
LAYER
  2
1
 70
   64
62
   1
  6
DASHED
  0
LAYER
  2
2
 70
   64
62
   2
  6
HIDDEN
  0
LAYER
  2
3
 70
   64
62
   3
  6
CENTER
  0
LAYER
  2
4
 70
   64
62
   4
  6
PHANTOM
  0
LAYER
  2
5
 70
   64
62
   5
  6
DOT
  0
LAYER
  2
6
 70
   64
62
   6
  6
DASHDOT
  0
ENDTAB
0
ENDSEC
  0
SECTION
  2
BLOCKS
  0
ENDSEC
  0
SECTION
  2
ENTITIES
  0
POLYLINE
  8
2
 66
   1
  6
HIDDEN
  0
VERTEX
  8
2
  6
HIDDEN
 10
13.100
 20
6.200 
 30
0.000
  0
VERTEX
  8
2
  6
HIDDEN
  10
14.300
  20
6.200 
  30
0.000
  0
SEQEND
  0
POLYLINE
  8
2
 66
   1
  6
HIDDEN
  0
VERTEX
  8
2
  6
HIDDEN
 10
115.633
 20
6.200 
 30
0.000
  0
VERTEX
  8
2
  6
HIDDEN
  10
114.433
  20
6.200 
  30
0.000
  0
SEQEND
  0
TEXT
  8
0
 10
6.729 
 20
5.680 
 30
0.000
 40
1.456 
  1
-100
 50
0.000 
  7
STANDARD
 72
2
 11
11.433
 21
5.680 
 31
0.000
  0
POLYLINE
  8
2
 66
   1
  6
HIDDEN
  0
VERTEX
  8
2
  6
HIDDEN
 10
13.100
 20
12.600
 30
0.000
  0
VERTEX
  8
2
  6
HIDDEN
  10
14.300
  20
12.600
  30
0.000
  0
SEQEND
  0
POLYLINE
  8
2
 66
   1
  6
HIDDEN
  0
VERTEX
  8
2
  6
HIDDEN
 10
115.633
 20
12.600
 30
0.000
  0
VERTEX
  8
2
  6
HIDDEN
  10
114.433
  20
12.600
  30
0.000
  0
SEQEND
  0
TEXT
  8
0
 10
7.905 
 20
12.080
 30
0.000
 40
1.456 
  1
-80
 50
0.000 
  7
STANDARD
 72
2
 11
11.433
 21
12.080
 31
0.000
  0
POLYLINE
  8
2
 66
   1
  6
HIDDEN
  0
VERTEX
  8
2
  6
HIDDEN
 10
13.100
 20
19.017
 30
0.000
  0
VERTEX
  8
2
  6
HIDDEN
  10
14.300
  20
19.017
  30
0.000
  0
SEQEND
  0
POLYLINE
  8
2
 66
   1
  6
HIDDEN
  0
VERTEX
  8
2
  6
HIDDEN
 10
115.633
 20
19.017
 30
0.000
  0
VERTEX
  8
2
  6
HIDDEN
  10
114.433
  20
19.017
  30
0.000
  0
SEQEND
  0
TEXT
  8
0
 10
7.905 
 20
18.497
 30
0.000
 40
1.456 
  1
-60
 50
0.000 
  7
STANDARD
 72
2
 11
11.433
 21
18.497
 31
0.000
  0
POLYLINE
  8
2
 66
   1
  6
HIDDEN
  0
VERTEX
  8
2
  6
HIDDEN
 10
13.100
 20
25.417
 30
0.000
  0
VERTEX
  8
2
  6
HIDDEN
  10
14.300
  20
25.417
  30
0.000
  0
SEQEND
  0
POLYLINE
  8
2
 66
   1
  6
HIDDEN
  0
VERTEX
  8
2
  6
HIDDEN
 10
115.633
 20
25.417
 30
0.000
  0
VERTEX
  8
2
  6
HIDDEN
  10
114.433
  20
25.417
  30
0.000
  0
SEQEND
  0
TEXT
  8
0
 10
7.905 
 20
24.897
 30
0.000
 40
1.456 
  1
-40
 50
0.000 
  7
STANDARD
 72
2
 11
11.433
 21
24.897
 31
0.000
  0
POLYLINE
  8
2
 66
   1
  6
HIDDEN
  0
VERTEX
  8
2
  6
HIDDEN
 10
13.100
 20
31.817
 30
0.000
  0
VERTEX
  8
2
  6
HIDDEN
  10
14.300
  20
31.817
  30
0.000
  0
SEQEND
  0
POLYLINE
  8
2
 66
   1
  6
HIDDEN
  0
VERTEX
  8
2
  6
HIDDEN
 10
115.633
 20
31.817
 30
0.000
  0
VERTEX
  8
2
  6
HIDDEN
  10
114.433
  20
31.817
  30
0.000
  0
SEQEND
  0
TEXT
  8
0
 10
7.905 
 20
31.297
 30
0.000
 40
1.456 
  1
-20
 50
0.000 
  7
STANDARD
 72
2
 11
11.433
 21
31.297
 31
0.000
  0
POLYLINE
  8
2
 66
   1
  6
HIDDEN
  0
VERTEX
  8
2
  6
HIDDEN
 10
13.100
 20
38.233
 30
0.000
  0
VERTEX
  8
2
  6
HIDDEN
  10
14.300
  20
38.233
  30
0.000
  0
SEQEND
  0
POLYLINE
  8
2
 66
   1
  6
HIDDEN
  0
VERTEX
  8
2
  6
HIDDEN
 10
115.633
 20
38.233
 30
0.000
  0
VERTEX
  8
2
  6
HIDDEN
  10
114.433
  20
38.233
  30
0.000
  0
SEQEND
  0
TEXT
  8
0
 10
10.257
 20
37.713
 30
0.000
 40
1.456 
  1
0
 50
0.000 
  7
STANDARD
 72
2
 11
11.433
 21
37.713
 31
0.000
  0
POLYLINE
  8
2
 66
   1
  6
HIDDEN
  0
VERTEX
  8
2
  6
HIDDEN
 10
13.100
 20
44.633
 30
0.000
  0
VERTEX
  8
2
  6
HIDDEN
  10
14.300
  20
44.633
  30
0.000
  0
SEQEND
  0
POLYLINE
  8
2
 66
   1
  6
HIDDEN
  0
VERTEX
  8
2
  6
HIDDEN
 10
115.633
 20
44.633
 30
0.000
  0
VERTEX
  8
2
  6
HIDDEN
  10
114.433
  20
44.633
  30
0.000
  0
SEQEND
  0
TEXT
  8
0
 10
9.081 
 20
44.113
 30
0.000
 40
1.456 
  1
20
 50
0.000 
  7
STANDARD
 72
2
 11
11.433
 21
44.113
 31
0.000
  0
POLYLINE
  8
2
 66
   1
  6
HIDDEN
  0
VERTEX
  8
2
  6
HIDDEN
 10
13.100
 20
51.050
 30
0.000
  0
VERTEX
  8
2
  6
HIDDEN
  10
14.300
  20
51.050
  30
0.000
  0
SEQEND
  0
POLYLINE
  8
2
 66
   1
  6
HIDDEN
  0
VERTEX
  8
2
  6
HIDDEN
 10
115.633
 20
51.050
 30
0.000
  0
VERTEX
  8
2
  6
HIDDEN
  10
114.433
  20
51.050
  30
0.000
  0
SEQEND
  0
TEXT
  8
0
 10
9.081 
 20
50.530
 30
0.000
 40
1.456 
  1
40
 50
0.000 
  7
STANDARD
 72
2
 11
11.433
 21
50.530
 31
0.000
  0
POLYLINE
  8
2
 66
   1
  6
HIDDEN
  0
VERTEX
  8
2
  6
HIDDEN
 10
13.100
 20
57.450
 30
0.000
  0
VERTEX
  8
2
  6
HIDDEN
  10
14.300
  20
57.450
  30
0.000
  0
SEQEND
  0
POLYLINE
  8
2
 66
   1
  6
HIDDEN
  0
VERTEX
  8
2
  6
HIDDEN
 10
115.633
 20
57.450
 30
0.000
  0
VERTEX
  8
2
  6
HIDDEN
  10
114.433
  20
57.450
  30
0.000
  0
SEQEND
  0
TEXT
  8
0
 10
9.081 
 20
56.930
 30
0.000
 40
1.456 
  1
60
 50
0.000 
  7
STANDARD
 72
2
 11
11.433
 21
56.930
 31
0.000
  0
POLYLINE
  8
2
 66
   1
  6
HIDDEN
  0
VERTEX
  8
2
  6
HIDDEN
 10
13.100
 20
63.850
 30
0.000
  0
VERTEX
  8
2
  6
HIDDEN
  10
14.300
  20
63.850
  30
0.000
  0
SEQEND
  0
POLYLINE
  8
2
 66
   1
  6
HIDDEN
  0
VERTEX
  8
2
  6
HIDDEN
 10
115.633
 20
63.850
 30
0.000
  0
VERTEX
  8
2
  6
HIDDEN
  10
114.433
  20
63.850
  30
0.000
  0
SEQEND
  0
TEXT
  8
0
 10
9.081 
 20
63.330
 30
0.000
 40
1.456 
  1
80
 50
0.000 
  7
STANDARD
 72
2
 11
11.433
 21
63.330
 31
0.000
  0
POLYLINE
  8
2
 66
   1
  6
HIDDEN
  0
VERTEX
  8
2
  6
HIDDEN
 10
13.100
 20
70.267
 30
0.000
  0
VERTEX
  8
2
  6
HIDDEN
  10
14.300
  20
70.267
  30
0.000
  0
SEQEND
  0
POLYLINE
  8
2
 66
   1
  6
HIDDEN
  0
VERTEX
  8
2
  6
HIDDEN
 10
115.633
 20
70.267
 30
0.000
  0
VERTEX
  8
2
  6
HIDDEN
  10
114.433
  20
70.267
  30
0.000
  0
SEQEND
  0
TEXT
  8
0
 10
7.905 
 20
69.747
 30
0.000
 40
1.456 
  1
100
 50
0.000 
  7
STANDARD
 72
2
 11
11.433
 21
69.747
 31
0.000
  0
POLYLINE
  8
2
 66
   1
  6
HIDDEN
  0
VERTEX
  8
2
  6
HIDDEN
 10
13.100
 20
76.667
 30
0.000
  0
VERTEX
  8
2
  6
HIDDEN
  10
14.300
  20
76.667
  30
0.000
  0
SEQEND
  0
POLYLINE
  8
2
 66
   1
  6
HIDDEN
  0
VERTEX
  8
2
  6
HIDDEN
 10
115.633
 20
76.667
 30
0.000
  0
VERTEX
  8
2
  6
HIDDEN
  10
114.433
  20
76.667
  30
0.000
  0
SEQEND
  0
TEXT
  8
0
 10
7.905 
 20
76.147
 30
0.000
 40
1.456 
  1
120
 50
0.000 
  7
STANDARD
 72
2
 11
11.433
 21
76.147
 31
0.000
  0
POLYLINE
  8
2
 66
   1
  6
HIDDEN
  0
VERTEX
  8
2
  6
HIDDEN
 10
13.100
 20
6.200 
 30
0.000
  0
VERTEX
  8
2
  6
HIDDEN
  10
13.100
  20
7.000 
  30
0.000
  0
SEQEND
  0
POLYLINE
  8
2
 66
   1
  6
HIDDEN
  0
VERTEX
  8
2
  6
HIDDEN
 10
13.100
 20
76.667
 30
0.000
  0
VERTEX
  8
2
  6
HIDDEN
  10
13.100
  20
75.867
  30
0.000
  0
SEQEND
  0
TEXT
  8
0
 10
12.512
 20
3.613 
 30
0.000
 40
1.456 
  1
0
 50
0.000 
  7
STANDARD
 72
1
 11
13.100
 21
3.613 
 31
0.000
  0
POLYLINE
  8
2
 66
   1
  6
HIDDEN
  0
VERTEX
  8
2
  6
HIDDEN
 10
38.733
 20
6.200 
 30
0.000
  0
VERTEX
  8
2
  6
HIDDEN
  10
38.733
  20
7.000 
  30
0.000
  0
SEQEND
  0
POLYLINE
  8
2
 66
   1
  6
HIDDEN
  0
VERTEX
  8
2
  6
HIDDEN
 10
38.733
 20
76.667
 30
0.000
  0
VERTEX
  8
2
  6
HIDDEN
  10
38.733
  20
75.867
  30
0.000
  0
SEQEND
  0
TEXT
  8
0
 10
38.145
 20
3.613 
 30
0.000
 40
1.456 
  1
5
 50
0.000 
  7
STANDARD
 72
1
 11
38.733
 21
3.613 
 31
0.000
  0
POLYLINE
  8
2
 66
   1
  6
HIDDEN
  0
VERTEX
  8
2
  6
HIDDEN
 10
64.367
 20
6.200 
 30
0.000
  0
VERTEX
  8
2
  6
HIDDEN
  10
64.367
  20
7.000 
  30
0.000
  0
SEQEND
  0
POLYLINE
  8
2
 66
   1
  6
HIDDEN
  0
VERTEX
  8
2
  6
HIDDEN
 10
64.367
 20
76.667
 30
0.000
  0
VERTEX
  8
2
  6
HIDDEN
  10
64.367
  20
75.867
  30
0.000
  0
SEQEND
  0
TEXT
  8
0
 10
63.191
 20
3.613 
 30
0.000
 40
1.456 
  1
10
 50
0.000 
  7
STANDARD
 72
1
 11
64.367
 21
3.613 
 31
0.000
  0
POLYLINE
  8
2
 66
   1
  6
HIDDEN
  0
VERTEX
  8
2
  6
HIDDEN
 10
90.000
 20
6.200 
 30
0.000
  0
VERTEX
  8
2
  6
HIDDEN
  10
90.000
  20
7.000 
  30
0.000
  0
SEQEND
  0
POLYLINE
  8
2
 66
   1
  6
HIDDEN
  0
VERTEX
  8
2
  6
HIDDEN
 10
90.000
 20
76.667
 30
0.000
  0
VERTEX
  8
2
  6
HIDDEN
  10
90.000
  20
75.867
  30
0.000
  0
SEQEND
  0
TEXT
  8
0
 10
88.824
 20
3.613 
 30
0.000
 40
1.456 
  1
15
 50
0.000 
  7
STANDARD
 72
1
 11
90.000
 21
3.613 
 31
0.000
  0
POLYLINE
  8
2
 66
   1
  6
HIDDEN
  0
VERTEX
  8
2
  6
HIDDEN
 10
115.633
 20
6.200 
 30
0.000
  0
VERTEX
  8
2
  6
HIDDEN
  10
115.633
  20
7.000 
  30
0.000
  0
SEQEND
  0
POLYLINE
  8
2
 66
   1
  6
HIDDEN
  0
VERTEX
  8
2
  6
HIDDEN
 10
115.633
 20
76.667
 30
0.000
  0
VERTEX
  8
2
  6
HIDDEN
  10
115.633
  20
75.867
  30
0.000
  0
SEQEND
  0
TEXT
  8
0
 10
114.457
 20
3.613 
 30
0.000
 40
1.456 
  1
20
 50
0.000 
  7
STANDARD
 72
1
 11
115.633
 21
3.613 
 31
0.000
  0
POLYLINE
  8
1
 66
   1
  6
DASHED
  0
VERTEX
  8
1
  6
DASHED
 10
13.100
 20
38.233
 30
0.000
  0
VERTEX
  8
1
  6
DASHED
  10
115.633
  20
38.233
  30
0.000
  0
SEQEND
  0
POLYLINE
  8
1
 66
   1
  6
DASHED
  0
VERTEX
  8
1
  6
DASHED
 10
13.100
 20
6.200 
 30
0.000
  0
VERTEX
  8
1
  6
DASHED
  10
13.100
  20
76.667
  30
0.000
  0
SEQEND
  0
POLYLINE
  8
2
 66
   1
  6
HIDDEN
  0
VERTEX
  8
2
  6
HIDDEN
 10
13.100
 20
6.200 
 30
0.000
  0
VERTEX
  8
2
  6
HIDDEN
  10
115.633
  20
6.200 
  30
0.000
  0
VERTEX
  8
2
  6
HIDDEN
  10
115.633
  20
76.667
  30
0.000
  0
VERTEX
  8
2
  6
HIDDEN
  10
13.100
  20
76.667
  30
0.000
  0
VERTEX
  8
2
  6
HIDDEN
  10
13.100
  20
6.200 
  30
0.000
  0
SEQEND
  0
TEXT
  8
0
 10
2.587 
 20
32.613
 30
0.000
 40
1.456 
  1
velocity (kine)
 50
90.000
  7
STANDARD
 72
1
 11
2.587 
 21
41.433
 31
0.000
  0
TEXT
  8
0
 10
58.487
 20
0.513 
 30
0.000
 40
1.456 
  1
time (sec)
 50
0.000 
  7
STANDARD
 72
1
 11
64.367
 21
0.513 
 31
0.000
  0
TEXT
  8
0
 10
92.183
 20
74.313
 30
0.000
 40
1.456 
  1
1st story
 50
0.000 
  7
STANDARD
 72
2
 11
102.767
 21
74.313
 31
0.000
  0
POLYLINE
  8
0
 66
   1
  6
CONTINUOUS
  0
VERTEX
  8
0
  6
CONTINUOUS
 10
104.433
 20
74.833
 30
0.000
  0
VERTEX
  8
0
  6
CONTINUOUS
  10
112.300
  20
74.833
  30
0.000
  0
SEQEND
  0
POLYLINE
  8
0
 66
   1
  6
CONTINUOUS
  0
VERTEX
  8
0
  6
CONTINUOUS
 10
13.200
 20
38.233
 30
0.000
  0
VERTEX
  8
0
  6
CONTINUOUS
  10
13.200
  20
38.233
  30
0.000
  0
VERTEX
  8
0
  6
CONTINUOUS
  10
13.300
  20
38.233
  30
0.000
  0
VERTEX
  8
0
  6
CONTINUOUS
  10
13.400
  20
38.233
  30
0.000
  0
VERTEX
  8
0
  6
CONTINUOUS
  10
13.517
  20
38.233
  30
0.000
  0
VERTEX
  8
0
  6
CONTINUOUS
  10
13.617
  20
38.233
  30
0.000
  0
VERTEX
  8
0
  6
CONTINUOUS
  10
13.717
  20
38.250
  30
0.000
  0
VERTEX
  8
0
  6
CONTINUOUS
  10
13.817
  20
38.267
  30
0.000
  0
VERTEX
  8
0
  6
CONTINUOUS
  10
13.917
  20
38.267
  30
0.000
  0
VERTEX
  8
0
  6
CONTINUOUS
  10
14.017
  20
38.250
  30
0.000
  0
VERTEX
  8
0
  6
CONTINUOUS
  10
14.133
  20
38.250
  30
0.000
  0
VERTEX
  8
0
  6
CONTINUOUS
  10
14.233
  20
38.233
  30
0.000
  0
VERTEX
  8
0
  6
CONTINUOUS
  10
14.333
  20
38.200
  30
0.000
  0
VERTEX
  8
0
  6
CONTINUOUS
  10
14.433
  20
38.200
  30
0.000
  0
VERTEX
  8
0
  6
CONTINUOUS
  10
14.533
  20
38.233
  30
0.000
  0
VERTEX
  8
0
  6
CONTINUOUS
  10
14.633
  20
38.267
  30
0.000
  0
VERTEX
  8
0
  6
CONTINUOUS
  10
14.733
  20
38.283
  30
0.000
  0
VERTEX
  8
0
  6
CONTINUOUS
  10
14.850
  20
38.300
  30
0.000
  0
VERTEX
  8
0
  6
CONTINUOUS
  10
14.950
  20
38.283
  30
0.000
  0
VERTEX
  8
0
  6
CONTINUOUS
  10
15.050
  20
38.267
  30
0.000
  0
VERTEX
  8
0
  6
CONTINUOUS
  10
15.150
  20
38.233
  30
0.000
  0
VERTEX
  8
0
  6
CONTINUOUS
  10
15.250
  20
38.217
  30
0.000
  0
VERTEX
  8
0
  6
CONTINUOUS
  10
15.350
  20
38.250
  30
0.000
  0
VERTEX
  8
0
  6
CONTINUOUS
  10
15.450
  20
38.283
  30
0.000
  0
VERTEX
  8
0
  6
CONTINUOUS
  10
15.567
  20
38.267
  30
0.000
  0
VERTEX
  8
0
  6
CONTINUOUS
  10
15.667
  20
38.217
  30
0.000
  0
VERTEX
  8
0
  6
CONTINUOUS
  10
15.767
  20
38.167
  30
0.000
  0
VERTEX
  8
0
  6
CONTINUOUS
  10
15.867
  20
38.117
  30
0.000
  0
VERTEX
  8
0
  6
CONTINUOUS
  10
15.967
  20
38.050
  30
0.000
  0
VERTEX
  8
0
  6
CONTINUOUS
  10
16.067
  20
38.000
  30
0.000
  0
VERTEX
  8
0
  6
CONTINUOUS
  10
16.183
  20
38.000
  30
0.000
  0
VERTEX
  8
0
  6
CONTINUOUS
  10
16.283
  20
38.033
  30
0.000
  0
VERTEX
  8
0
  6
CONTINUOUS
  10
16.383
  20
38.100
  30
0.000
  0
VERTEX
  8
0
  6
CONTINUOUS
  10
16.483
  20
38.217
  30
0.000
  0
VERTEX
  8
0
  6
CONTINUOUS
  10
16.583
  20
38.300
  30
0.000
  0
VERTEX
  8
0
  6
CONTINUOUS
  10
16.683
  20
38.267
  30
0.000
  0
VERTEX
  8
0
  6
CONTINUOUS
  10
16.783
  20
38.233
  30
0.000
  0
VERTEX
  8
0
  6
CONTINUOUS
  10
16.900
  20
38.267
  30
0.000
  0
VERTEX
  8
0
  6
CONTINUOUS
  10
17.000
  20
38.317
  30
0.000
  0
VERTEX
  8
0
  6
CONTINUOUS
  10
17.100
  20
38.300
  30
0.000
  0
VERTEX
  8
0
  6
CONTINUOUS
  10
17.200
  20
38.217
  30
0.000
  0
VERTEX
  8
0
  6
CONTINUOUS
  10
17.300
  20
38.100
  30
0.000
  0
VERTEX
  8
0
  6
CONTINUOUS
  10
17.400
  20
37.967
  30
0.000
  0
VERTEX
  8
0
  6
CONTINUOUS
  10
17.517
  20
37.933
  30
0.000
  0
VERTEX
  8
0
  6
CONTINUOUS
  10
17.617
  20
38.017
  30
0.000
  0
VERTEX
  8
0
  6
CONTINUOUS
  10
17.717
  20
38.167
  30
0.000
  0
VERTEX
  8
0
  6
CONTINUOUS
  10
17.817
  20
38.300
  30
0.000
  0
VERTEX
  8
0
  6
CONTINUOUS
  10
17.917
  20
38.317
  30
0.000
  0
VERTEX
  8
0
  6
CONTINUOUS
  10
18.017
  20
38.300
  30
0.000
  0
VERTEX
  8
0
  6
CONTINUOUS
  10
18.117
  20
38.450
  30
0.000
  0
VERTEX
  8
0
  6
CONTINUOUS
  10
18.233
  20
38.717
  30
0.000
  0
VERTEX
  8
0
  6
CONTINUOUS
  10
18.333
  20
38.933
  30
0.000
  0
VERTEX
  8
0
  6
CONTINUOUS
  10
18.433
  20
39.000
  30
0.000
  0
VERTEX
  8
0
  6
CONTINUOUS
  10
18.533
  20
38.933
  30
0.000
  0
VERTEX
  8
0
  6
CONTINUOUS
  10
18.633
  20
38.800
  30
0.000
  0
VERTEX
  8
0
  6
CONTINUOUS
  10
18.733
  20
38.617
  30
0.000
  0
VERTEX
  8
0
  6
CONTINUOUS
  10
18.850
  20
38.533
  30
0.000
  0
VERTEX
  8
0
  6
CONTINUOUS
  10
18.950
  20
38.550
  30
0.000
  0
VERTEX
  8
0
  6
CONTINUOUS
  10
19.050
  20
38.550
  30
0.000
  0
VERTEX
  8
0
  6
CONTINUOUS
  10
19.150
  20
38.450
  30
0.000
  0
VERTEX
  8
0
  6
CONTINUOUS
  10
19.250
  20
38.217
  30
0.000
  0
VERTEX
  8
0
  6
CONTINUOUS
  10
19.350
  20
37.883
  30
0.000
  0
VERTEX
  8
0
  6
CONTINUOUS
  10
19.450
  20
37.617
  30
0.000
  0
VERTEX
  8
0
  6
CONTINUOUS
  10
19.567
  20
37.500
  30
0.000
  0
VERTEX
  8
0
  6
CONTINUOUS
  10
19.667
  20
37.467
  30
0.000
  0
VERTEX
  8
0
  6
CONTINUOUS
  10
19.767
  20
37.500
  30
0.000
  0
VERTEX
  8
0
  6
CONTINUOUS
  10
19.867
  20
37.550
  30
0.000
  0
VERTEX
  8
0
  6
CONTINUOUS
  10
19.967
  20
37.617
  30
0.000
  0
VERTEX
  8
0
  6
CONTINUOUS
  10
20.067
  20
37.700
  30
0.000
  0
VERTEX
  8
0
  6
CONTINUOUS
  10
20.167
  20
37.800
  30
0.000
  0
VERTEX
  8
0
  6
CONTINUOUS
  10
20.283
  20
37.967
  30
0.000
  0
VERTEX
  8
0
  6
CONTINUOUS
  10
20.383
  20
38.200
  30
0.000
  0
VERTEX
  8
0
  6
CONTINUOUS
  10
20.483
  20
38.433
  30
0.000
  0
VERTEX
  8
0
  6
CONTINUOUS
  10
20.583
  20
38.483
  30
0.000
  0
VERTEX
  8
0
  6
CONTINUOUS
  10
20.683
  20
38.267
  30
0.000
  0
VERTEX
  8
0
  6
CONTINUOUS
  10
20.783
  20
38.017
  30
0.000
  0
VERTEX
  8
0
  6
CONTINUOUS
  10
20.900
  20
38.067
  30
0.000
  0
VERTEX
  8
0
  6
CONTINUOUS
  10
21.000
  20
38.333
  30
0.000
  0
VERTEX
  8
0
  6
CONTINUOUS
  10
21.100
  20
38.567
  30
0.000
  0
VERTEX
  8
0
  6
CONTINUOUS
  10
21.200
  20
38.583
  30
0.000
  0
VERTEX
  8
0
  6
CONTINUOUS
  10
21.300
  20
38.533
  30
0.000
  0
VERTEX
  8
0
  6
CONTINUOUS
  10
21.400
  20
38.550
  30
0.000
  0
VERTEX
  8
0
  6
CONTINUOUS
  10
21.500
  20
38.650
  30
0.000
  0
VERTEX
  8
0
  6
CONTINUOUS
  10
21.617
  20
38.733
  30
0.000
  0
VERTEX
  8
0
  6
CONTINUOUS
  10
21.717
  20
38.750
  30
0.000
  0
VERTEX
  8
0
  6
CONTINUOUS
  10
21.817
  20
38.667
  30
0.000
  0
VERTEX
  8
0
  6
CONTINUOUS
  10
21.917
  20
38.550
  30
0.000
  0
VERTEX
  8
0
  6
CONTINUOUS
  10
22.017
  20
38.383
  30
0.000
  0
VERTEX
  8
0
  6
CONTINUOUS
  10
22.117
  20
38.167
  30
0.000
  0
VERTEX
  8
0
  6
CONTINUOUS
  10
22.233
  20
37.983
  30
0.000
  0
VERTEX
  8
0
  6
CONTINUOUS
  10
22.333
  20
37.783
  30
0.000
  0
VERTEX
  8
0
  6
CONTINUOUS
  10
22.433
  20
37.633
  30
0.000
  0
VERTEX
  8
0
  6
CONTINUOUS
  10
22.533
  20
37.500
  30
0.000
  0
VERTEX
  8
0
  6
CONTINUOUS
  10
22.633
  20
37.467
  30
0.000
  0
VERTEX
  8
0
  6
CONTINUOUS
  10
22.733
  20
37.650
  30
0.000
  0
VERTEX
  8
0
  6
CONTINUOUS
  10
22.833
  20
37.967
  30
0.000
  0
VERTEX
  8
0
  6
CONTINUOUS
  10
22.950
  20
38.217
  30
0.000
  0
VERTEX
  8
0
  6
CONTINUOUS
  10
23.050
  20
38.200
  30
0.000
  0
VERTEX
  8
0
  6
CONTINUOUS
  10
23.150
  20
38.033
  30
0.000
  0
VERTEX
  8
0
  6
CONTINUOUS
  10
23.250
  20
37.983
  30
0.000
  0
VERTEX
  8
0
  6
CONTINUOUS
  10
23.350
  20
38.033
  30
0.000
  0
VERTEX
  8
0
  6
CONTINUOUS
  10
23.450
  20
38.167
  30
0.000
  0
VERTEX
  8
0
  6
CONTINUOUS
  10
23.567
  20
38.300
  30
0.000
  0
VERTEX
  8
0
  6
CONTINUOUS
  10
23.667
  20
38.483
  30
0.000
  0
VERTEX
  8
0
  6
CONTINUOUS
  10
23.767
  20
38.767
  30
0.000
  0
VERTEX
  8
0
  6
CONTINUOUS
  10
23.867
  20
39.050
  30
0.000
  0
VERTEX
  8
0
  6
CONTINUOUS
  10
23.967
  20
39.200
  30
0.000
  0
VERTEX
  8
0
  6
CONTINUOUS
  10
24.067
  20
39.183
  30
0.000
  0
VERTEX
  8
0
  6
CONTINUOUS
  10
24.167
  20
39.083
  30
0.000
  0
VERTEX
  8
0
  6
CONTINUOUS
  10
24.283
  20
38.983
  30
0.000
  0
VERTEX
  8
0
  6
CONTINUOUS
  10
24.383
  20
38.800
  30
0.000
  0
VERTEX
  8
0
  6
CONTINUOUS
  10
24.483
  20
38.600
  30
0.000
  0
VERTEX
  8
0
  6
CONTINUOUS
  10
24.583
  20
38.367
  30
0.000
  0
VERTEX
  8
0
  6
CONTINUOUS
  10
24.683
  20
38.083
  30
0.000
  0
VERTEX
  8
0
  6
CONTINUOUS
  10
24.783
  20
37.817
  30
0.000
  0
VERTEX
  8
0
  6
CONTINUOUS
  10
24.883
  20
37.633
  30
0.000
  0
VERTEX
  8
0
  6
CONTINUOUS
  10
25.000
  20
37.567
  30
0.000
  0
VERTEX
  8
0
  6
CONTINUOUS
  10
25.100
  20
37.567
  30
0.000
  0
VERTEX
  8
0
  6
CONTINUOUS
  10
25.200
  20
37.500
  30
0.000
  0
VERTEX
  8
0
  6
CONTINUOUS
  10
25.300
  20
37.333
  30
0.000
  0
VERTEX
  8
0
  6
CONTINUOUS
  10
25.400
  20
37.183
  30
0.000
  0
VERTEX
  8
0
  6
CONTINUOUS
  10
25.500
  20
37.133
  30
0.000
  0
VERTEX
  8
0
  6
CONTINUOUS
  10
25.617
  20
37.183
  30
0.000
  0
VERTEX
  8
0
  6
CONTINUOUS
  10
25.717
  20
37.417
  30
0.000
  0
VERTEX
  8
0
  6
CONTINUOUS
  10
25.817
  20
37.833
  30
0.000
  0
VERTEX
  8
0
  6
CONTINUOUS
  10
25.917
  20
38.250
  30
0.000
  0
VERTEX
  8
0
  6
CONTINUOUS
  10
26.017
  20
38.450
  30
0.000
  0
VERTEX
  8
0
  6
CONTINUOUS
  10
26.117
  20
38.517
  30
0.000
  0
VERTEX
  8
0
  6
CONTINUOUS
  10
26.217
  20
38.767
  30
0.000
  0
VERTEX
  8
0
  6
CONTINUOUS
  10
26.333
  20
39.200
  30
0.000
  0
VERTEX
  8
0
  6
CONTINUOUS
  10
26.433
  20
39.483
  30
0.000
  0
VERTEX
  8
0
  6
CONTINUOUS
  10
26.533
  20
39.517
  30
0.000
  0
VERTEX
  8
0
  6
CONTINUOUS
  10
26.633
  20
39.467
  30
0.000
  0
VERTEX
  8
0
  6
CONTINUOUS
  10
26.733
  20
39.417
  30
0.000
  0
VERTEX
  8
0
  6
CONTINUOUS
  10
26.833
  20
39.233
  30
0.000
  0
VERTEX
  8
0
  6
CONTINUOUS
  10
26.950
  20
38.800
  30
0.000
  0
VERTEX
  8
0
  6
CONTINUOUS
  10
27.050
  20
38.433
  30
0.000
  0
VERTEX
  8
0
  6
CONTINUOUS
  10
27.150
  20
38.433
  30
0.000
  0
VERTEX
  8
0
  6
CONTINUOUS
  10
27.250
  20
38.617
  30
0.000
  0
VERTEX
  8
0
  6
CONTINUOUS
  10
27.350
  20
38.583
  30
0.000
  0
VERTEX
  8
0
  6
CONTINUOUS
  10
27.450
  20
38.217
  30
0.000
  0
VERTEX
  8
0
  6
CONTINUOUS
  10
27.550
  20
37.783
  30
0.000
  0
VERTEX
  8
0
  6
CONTINUOUS
  10
27.667
  20
37.500
  30
0.000
  0
VERTEX
  8
0
  6
CONTINUOUS
  10
27.767
  20
37.200
  30
0.000
  0
VERTEX
  8
0
  6
CONTINUOUS
  10
27.867
  20
36.833
  30
0.000
  0
VERTEX
  8
0
  6
CONTINUOUS
  10
27.967
  20
36.600
  30
0.000
  0
VERTEX
  8
0
  6
CONTINUOUS
  10
28.067
  20
36.733
  30
0.000
  0
VERTEX
  8
0
  6
CONTINUOUS
  10
28.167
  20
37.117
  30
0.000
  0
VERTEX
  8
0
  6
CONTINUOUS
  10
28.267
  20
37.350
  30
0.000
  0
VERTEX
  8
0
  6
CONTINUOUS
  10
28.383
  20
37.250
  30
0.000
  0
VERTEX
  8
0
  6
CONTINUOUS
  10
28.483
  20
37.150
  30
0.000
  0
VERTEX
  8
0
  6
CONTINUOUS
  10
28.583
  20
37.300
  30
0.000
  0
VERTEX
  8
0
  6
CONTINUOUS
  10
28.683
  20
37.500
  30
0.000
  0
VERTEX
  8
0
  6
CONTINUOUS
  10
28.783
  20
37.500
  30
0.000
  0
VERTEX
  8
0
  6
CONTINUOUS
  10
28.883
  20
37.433
  30
0.000
  0
VERTEX
  8
0
  6
CONTINUOUS
  10
29.000
  20
37.667
  30
0.000
  0
VERTEX
  8
0
  6
CONTINUOUS
  10
29.100
  20
38.250
  30
0.000
  0
VERTEX
  8
0
  6
CONTINUOUS
  10
29.200
  20
38.867
  30
0.000
  0
VERTEX
  8
0
  6
CONTINUOUS
  10
29.300
  20
39.233
  30
0.000
  0
VERTEX
  8
0
  6
CONTINUOUS
  10
29.400
  20
39.433
  30
0.000
  0
VERTEX
  8
0
  6
CONTINUOUS
  10
29.500
  20
39.600
  30
0.000
  0
VERTEX
  8
0
  6
CONTINUOUS
  10
29.600
  20
39.633
  30
0.000
  0
VERTEX
  8
0
  6
CONTINUOUS
  10
29.717
  20
39.400
  30
0.000
  0
VERTEX
  8
0
  6
CONTINUOUS
  10
29.817
  20
38.833
  30
0.000
  0
VERTEX
  8
0
  6
CONTINUOUS
  10
29.917
  20
37.967
  30
0.000
  0
VERTEX
  8
0
  6
CONTINUOUS
  10
30.017
  20
36.967
  30
0.000
  0
VERTEX
  8
0
  6
CONTINUOUS
  10
30.117
  20
36.050
  30
0.000
  0
VERTEX
  8
0
  6
CONTINUOUS
  10
30.217
  20
35.267
  30
0.000
  0
VERTEX
  8
0
  6
CONTINUOUS
  10
30.333
  20
34.583
  30
0.000
  0
VERTEX
  8
0
  6
CONTINUOUS
  10
30.433
  20
33.800
  30
0.000
  0
VERTEX
  8
0
  6
CONTINUOUS
  10
30.533
  20
32.883
  30
0.000
  0
VERTEX
  8
0
  6
CONTINUOUS
  10
30.633
  20
32.133
  30
0.000
  0
VERTEX
  8
0
  6
CONTINUOUS
  10
30.733
  20
32.017
  30
0.000
  0
VERTEX
  8
0
  6
CONTINUOUS
  10
30.833
  20
32.867
  30
0.000
  0
VERTEX
  8
0
  6
CONTINUOUS
  10
30.933
  20
34.450
  30
0.000
  0
VERTEX
  8
0
  6
CONTINUOUS
  10
31.050
  20
36.567
  30
0.000
  0
VERTEX
  8
0
  6
CONTINUOUS
  10
31.150
  20
39.367
  30
0.000
  0
VERTEX
  8
0
  6
CONTINUOUS
  10
31.250
  20
42.667
  30
0.000
  0
VERTEX
  8
0
  6
CONTINUOUS
  10
31.350
  20
45.700
  30
0.000
  0
VERTEX
  8
0
  6
CONTINUOUS
  10
31.450
  20
48.183
  30
0.000
  0
VERTEX
  8
0
  6
CONTINUOUS
  10
31.550
  20
50.383
  30
0.000
  0
VERTEX
  8
0
  6
CONTINUOUS
  10
31.667
  20
52.367
  30
0.000
  0
VERTEX
  8
0
  6
CONTINUOUS
  10
31.767
  20
54.367
  30
0.000
  0
VERTEX
  8
0
  6
CONTINUOUS
  10
31.867
  20
56.000
  30
0.000
  0
VERTEX
  8
0
  6
CONTINUOUS
  10
31.967
  20
56.750
  30
0.000
  0
VERTEX
  8
0
  6
CONTINUOUS
  10
32.067
  20
56.367
  30
0.000
  0
VERTEX
  8
0
  6
CONTINUOUS
  10
32.167
  20
54.633
  30
0.000
  0
VERTEX
  8
0
  6
CONTINUOUS
  10
32.267
  20
51.917
  30
0.000
  0
VERTEX
  8
0
  6
CONTINUOUS
  10
32.383
  20
48.733
  30
0.000
  0
VERTEX
  8
0
  6
CONTINUOUS
  10
32.483
  20
45.383
  30
0.000
  0
VERTEX
  8
0
  6
CONTINUOUS
  10
32.583
  20
41.967
  30
0.000
  0
VERTEX
  8
0
  6
CONTINUOUS
  10
32.683
  20
38.733
  30
0.000
  0
VERTEX
  8
0
  6
CONTINUOUS
  10
32.783
  20
35.717
  30
0.000
  0
VERTEX
  8
0
  6
CONTINUOUS
  10
32.883
  20
33.183
  30
0.000
  0
VERTEX
  8
0
  6
CONTINUOUS
  10
32.983
  20
31.500
  30
0.000
  0
VERTEX
  8
0
  6
CONTINUOUS
  10
33.100
  20
30.617
  30
0.000
  0
VERTEX
  8
0
  6
CONTINUOUS
  10
33.200
  20
30.500
  30
0.000
  0
VERTEX
  8
0
  6
CONTINUOUS
  10
33.300
  20
31.083
  30
0.000
  0
VERTEX
  8
0
  6
CONTINUOUS
  10
33.400
  20
31.983
  30
0.000
  0
VERTEX
  8
0
  6
CONTINUOUS
  10
33.500
  20
32.600
  30
0.000
  0
VERTEX
  8
0
  6
CONTINUOUS
  10
33.600
  20
32.800
  30
0.000
  0
VERTEX
  8
0
  6
CONTINUOUS
  10
33.717
  20
32.517
  30
0.000
  0
VERTEX
  8
0
  6
CONTINUOUS
  10
33.817
  20
31.833
  30
0.000
  0
VERTEX
  8
0
  6
CONTINUOUS
  10
33.917
  20
30.983
  30
0.000
  0
VERTEX
  8
0
  6
CONTINUOUS
  10
34.017
  20
30.017
  30
0.000
  0
VERTEX
  8
0
  6
CONTINUOUS
  10
34.117
  20
29.017
  30
0.000
  0
VERTEX
  8
0
  6
CONTINUOUS
  10
34.217
  20
27.950
  30
0.000
  0
VERTEX
  8
0
  6
CONTINUOUS
  10
34.317
  20
26.717
  30
0.000
  0
VERTEX
  8
0
  6
CONTINUOUS
  10
34.433
  20
25.200
  30
0.000
  0
VERTEX
  8
0
  6
CONTINUOUS
  10
34.533
  20
23.433
  30
0.000
  0
VERTEX
  8
0
  6
CONTINUOUS
  10
34.633
  20
21.883
  30
0.000
  0
VERTEX
  8
0
  6
CONTINUOUS
  10
34.733
  20
21.283
  30
0.000
  0
VERTEX
  8
0
  6
CONTINUOUS
  10
34.833
  20
21.483
  30
0.000
  0
VERTEX
  8
0
  6
CONTINUOUS
  10
34.933
  20
21.717
  30
0.000
  0
VERTEX
  8
0
  6
CONTINUOUS
  10
35.050
  20
21.900
  30
0.000
  0
VERTEX
  8
0
  6
CONTINUOUS
  10
35.150
  20
22.200
  30
0.000
  0
VERTEX
  8
0
  6
CONTINUOUS
  10
35.250
  20
23.017
  30
0.000
  0
VERTEX
  8
0
  6
CONTINUOUS
  10
35.350
  20
24.450
  30
0.000
  0
VERTEX
  8
0
  6
CONTINUOUS
  10
35.450
  20
26.183
  30
0.000
  0
VERTEX
  8
0
  6
CONTINUOUS
  10
35.550
  20
28.650
  30
0.000
  0
VERTEX
  8
0
  6
CONTINUOUS
  10
35.650
  20
31.767
  30
0.000
  0
VERTEX
  8
0
  6
CONTINUOUS
  10
35.767
  20
35.283
  30
0.000
  0
VERTEX
  8
0
  6
CONTINUOUS
  10
35.867
  20
39.033
  30
0.000
  0
VERTEX
  8
0
  6
CONTINUOUS
  10
35.967
  20
42.850
  30
0.000
  0
VERTEX
  8
0
  6
CONTINUOUS
  10
36.067
  20
46.267
  30
0.000
  0
VERTEX
  8
0
  6
CONTINUOUS
  10
36.167
  20
49.350
  30
0.000
  0
VERTEX
  8
0
  6
CONTINUOUS
  10
36.267
  20
52.517
  30
0.000
  0
VERTEX
  8
0
  6
CONTINUOUS
  10
36.383
  20
56.000
  30
0.000
  0
VERTEX
  8
0
  6
CONTINUOUS
  10
36.483
  20
60.017
  30
0.000
  0
VERTEX
  8
0
  6
CONTINUOUS
  10
36.583
  20
64.250
  30
0.000
  0
VERTEX
  8
0
  6
CONTINUOUS
  10
36.683
  20
67.683
  30
0.000
  0
VERTEX
  8
0
  6
CONTINUOUS
  10
36.783
  20
69.733
  30
0.000
  0
VERTEX
  8
0
  6
CONTINUOUS
  10
36.883
  20
70.300
  30
0.000
  0
VERTEX
  8
0
  6
CONTINUOUS
  10
36.983
  20
69.683
  30
0.000
  0
VERTEX
  8
0
  6
CONTINUOUS
  10
37.100
  20
68.700
  30
0.000
  0
VERTEX
  8
0
  6
CONTINUOUS
  10
37.200
  20
67.283
  30
0.000
  0
VERTEX
  8
0
  6
CONTINUOUS
  10
37.300
  20
64.133
  30
0.000
  0
VERTEX
  8
0
  6
CONTINUOUS
  10
37.400
  20
60.417
  30
0.000
  0
VERTEX
  8
0
  6
CONTINUOUS
  10
37.500
  20
56.750
  30
0.000
  0
VERTEX
  8
0
  6
CONTINUOUS
  10
37.600
  20
53.000
  30
0.000
  0
VERTEX
  8
0
  6
CONTINUOUS
  10
37.700
  20
49.217
  30
0.000
  0
VERTEX
  8
0
  6
CONTINUOUS
  10
37.817
  20
45.433
  30
0.000
  0
VERTEX
  8
0
  6
CONTINUOUS
  10
37.917
  20
41.717
  30
0.000
  0
VERTEX
  8
0
  6
CONTINUOUS
  10
38.017
  20
38.183
  30
0.000
  0
VERTEX
  8
0
  6
CONTINUOUS
  10
38.117
  20
35.050
  30
0.000
  0
VERTEX
  8
0
  6
CONTINUOUS
  10
38.217
  20
32.750
  30
0.000
  0
VERTEX
  8
0
  6
CONTINUOUS
  10
38.317
  20
31.600
  30
0.000
  0
VERTEX
  8
0
  6
CONTINUOUS
  10
38.433
  20
31.317
  30
0.000
  0
VERTEX
  8
0
  6
CONTINUOUS
  10
38.533
  20
31.483
  30
0.000
  0
VERTEX
  8
0
  6
CONTINUOUS
  10
38.633
  20
31.900
  30
0.000
  0
VERTEX
  8
0
  6
CONTINUOUS
  10
38.733
  20
32.383
  30
0.000
  0
VERTEX
  8
0
  6
CONTINUOUS
  10
38.833
  20
32.700
  30
0.000
  0
VERTEX
  8
0
  6
CONTINUOUS
  10
38.933
  20
33.067
  30
0.000
  0
VERTEX
  8
0
  6
CONTINUOUS
  10
39.033
  20
33.467
  30
0.000
  0
VERTEX
  8
0
  6
CONTINUOUS
  10
39.150
  20
33.900
  30
0.000
  0
VERTEX
  8
0
  6
CONTINUOUS
  10
39.250
  20
34.367
  30
0.000
  0
VERTEX
  8
0
  6
CONTINUOUS
  10
39.350
  20
34.783
  30
0.000
  0
VERTEX
  8
0
  6
CONTINUOUS
  10
39.450
  20
34.967
  30
0.000
  0
VERTEX
  8
0
  6
CONTINUOUS
  10
39.550
  20
34.717
  30
0.000
  0
VERTEX
  8
0
  6
CONTINUOUS
  10
39.650
  20
33.967
  30
0.000
  0
VERTEX
  8
0
  6
CONTINUOUS
  10
39.767
  20
32.933
  30
0.000
  0
VERTEX
  8
0
  6
CONTINUOUS
  10
39.867
  20
31.833
  30
0.000
  0
VERTEX
  8
0
  6
CONTINUOUS
  10
39.967
  20
30.733
  30
0.000
  0
VERTEX
  8
0
  6
CONTINUOUS
  10
40.067
  20
29.867
  30
0.000
  0
VERTEX
  8
0
  6
CONTINUOUS
  10
40.167
  20
29.483
  30
0.000
  0
VERTEX
  8
0
  6
CONTINUOUS
  10
40.267
  20
29.533
  30
0.000
  0
VERTEX
  8
0
  6
CONTINUOUS
  10
40.367
  20
29.800
  30
0.000
  0
VERTEX
  8
0
  6
CONTINUOUS
  10
40.483
  20
30.000
  30
0.000
  0
VERTEX
  8
0
  6
CONTINUOUS
  10
40.583
  20
29.983
  30
0.000
  0
VERTEX
  8
0
  6
CONTINUOUS
  10
40.683
  20
29.833
  30
0.000
  0
VERTEX
  8
0
  6
CONTINUOUS
  10
40.783
  20
29.633
  30
0.000
  0
VERTEX
  8
0
  6
CONTINUOUS
  10
40.883
  20
29.367
  30
0.000
  0
VERTEX
  8
0
  6
CONTINUOUS
  10
40.983
  20
28.983
  30
0.000
  0
VERTEX
  8
0
  6
CONTINUOUS
  10
41.083
  20
28.433
  30
0.000
  0
VERTEX
  8
0
  6
CONTINUOUS
  10
41.200
  20
27.817
  30
0.000
  0
VERTEX
  8
0
  6
CONTINUOUS
  10
41.300
  20
27.233
  30
0.000
  0
VERTEX
  8
0
  6
CONTINUOUS
  10
41.400
  20
26.900
  30
0.000
  0
VERTEX
  8
0
  6
CONTINUOUS
  10
41.500
  20
26.917
  30
0.000
  0
VERTEX
  8
0
  6
CONTINUOUS
  10
41.600
  20
27.317
  30
0.000
  0
VERTEX
  8
0
  6
CONTINUOUS
  10
41.700
  20
28.017
  30
0.000
  0
VERTEX
  8
0
  6
CONTINUOUS
  10
41.817
  20
29.033
  30
0.000
  0
VERTEX
  8
0
  6
CONTINUOUS
  10
41.917
  20
30.300
  30
0.000
  0
VERTEX
  8
0
  6
CONTINUOUS
  10
42.017
  20
31.667
  30
0.000
  0
VERTEX
  8
0
  6
CONTINUOUS
  10
42.117
  20
33.000
  30
0.000
  0
VERTEX
  8
0
  6
CONTINUOUS
  10
42.217
  20
34.283
  30
0.000
  0
VERTEX
  8
0
  6
CONTINUOUS
  10
42.317
  20
35.550
  30
0.000
  0
VERTEX
  8
0
  6
CONTINUOUS
  10
42.417
  20
36.650
  30
0.000
  0
VERTEX
  8
0
  6
CONTINUOUS
  10
42.533
  20
37.467
  30
0.000
  0
VERTEX
  8
0
  6
CONTINUOUS
  10
42.633
  20
38.133
  30
0.000
  0
VERTEX
  8
0
  6
CONTINUOUS
  10
42.733
  20
38.817
  30
0.000
  0
VERTEX
  8
0
  6
CONTINUOUS
  10
42.833
  20
39.517
  30
0.000
  0
VERTEX
  8
0
  6
CONTINUOUS
  10
42.933
  20
40.017
  30
0.000
  0
VERTEX
  8
0
  6
CONTINUOUS
  10
43.033
  20
40.200
  30
0.000
  0
VERTEX
  8
0
  6
CONTINUOUS
  10
43.150
  20
40.233
  30
0.000
  0
VERTEX
  8
0
  6
CONTINUOUS
  10
43.250
  20
40.350
  30
0.000
  0
VERTEX
  8
0
  6
CONTINUOUS
  10
43.350
  20
40.500
  30
0.000
  0
VERTEX
  8
0
  6
CONTINUOUS
  10
43.450
  20
41.050
  30
0.000
  0
VERTEX
  8
0
  6
CONTINUOUS
  10
43.550
  20
42.200
  30
0.000
  0
VERTEX
  8
0
  6
CONTINUOUS
  10
43.650
  20
43.700
  30
0.000
  0
VERTEX
  8
0
  6
CONTINUOUS
  10
43.750
  20
45.083
  30
0.000
  0
VERTEX
  8
0
  6
CONTINUOUS
  10
43.867
  20
46.033
  30
0.000
  0
VERTEX
  8
0
  6
CONTINUOUS
  10
43.967
  20
46.667
  30
0.000
  0
VERTEX
  8
0
  6
CONTINUOUS
  10
44.067
  20
47.083
  30
0.000
  0
VERTEX
  8
0
  6
CONTINUOUS
  10
44.167
  20
47.283
  30
0.000
  0
VERTEX
  8
0
  6
CONTINUOUS
  10
44.267
  20
47.333
  30
0.000
  0
VERTEX
  8
0
  6
CONTINUOUS
  10
44.367
  20
47.300
  30
0.000
  0
VERTEX
  8
0
  6
CONTINUOUS
  10
44.483
  20
46.967
  30
0.000
  0
VERTEX
  8
0
  6
CONTINUOUS
  10
44.583
  20
46.033
  30
0.000
  0
VERTEX
  8
0
  6
CONTINUOUS
  10
44.683
  20
44.617
  30
0.000
  0
VERTEX
  8
0
  6
CONTINUOUS
  10
44.783
  20
43.133
  30
0.000
  0
VERTEX
  8
0
  6
CONTINUOUS
  10
44.883
  20
42.000
  30
0.000
  0
VERTEX
  8
0
  6
CONTINUOUS
  10
44.983
  20
41.367
  30
0.000
  0
VERTEX
  8
0
  6
CONTINUOUS
  10
45.083
  20
41.183
  30
0.000
  0
VERTEX
  8
0
  6
CONTINUOUS
  10
45.200
  20
41.450
  30
0.000
  0
VERTEX
  8
0
  6
CONTINUOUS
  10
45.300
  20
42.183
  30
0.000
  0
VERTEX
  8
0
  6
CONTINUOUS
  10
45.400
  20
43.500
  30
0.000
  0
VERTEX
  8
0
  6
CONTINUOUS
  10
45.500
  20
45.400
  30
0.000
  0
VERTEX
  8
0
  6
CONTINUOUS
  10
45.600
  20
47.733
  30
0.000
  0
VERTEX
  8
0
  6
CONTINUOUS
  10
45.700
  20
50.300
  30
0.000
  0
VERTEX
  8
0
  6
CONTINUOUS
  10
45.800
  20
53.000
  30
0.000
  0
VERTEX
  8
0
  6
CONTINUOUS
  10
45.917
  20
55.817
  30
0.000
  0
VERTEX
  8
0
  6
CONTINUOUS
  10
46.017
  20
58.733
  30
0.000
  0
VERTEX
  8
0
  6
CONTINUOUS
  10
46.117
  20
61.367
  30
0.000
  0
VERTEX
  8
0
  6
CONTINUOUS
  10
46.217
  20
62.967
  30
0.000
  0
VERTEX
  8
0
  6
CONTINUOUS
  10
46.317
  20
62.583
  30
0.000
  0
VERTEX
  8
0
  6
CONTINUOUS
  10
46.417
  20
59.150
  30
0.000
  0
VERTEX
  8
0
  6
CONTINUOUS
  10
46.533
  20
54.067
  30
0.000
  0
VERTEX
  8
0
  6
CONTINUOUS
  10
46.633
  20
48.883
  30
0.000
  0
VERTEX
  8
0
  6
CONTINUOUS
  10
46.733
  20
44.100
  30
0.000
  0
VERTEX
  8
0
  6
CONTINUOUS
  10
46.833
  20
39.800
  30
0.000
  0
VERTEX
  8
0
  6
CONTINUOUS
  10
46.933
  20
36.117
  30
0.000
  0
VERTEX
  8
0
  6
CONTINUOUS
  10
47.033
  20
33.517
  30
0.000
  0
VERTEX
  8
0
  6
CONTINUOUS
  10
47.133
  20
32.350
  30
0.000
  0
VERTEX
  8
0
  6
CONTINUOUS
  10
47.250
  20
32.450
  30
0.000
  0
VERTEX
  8
0
  6
CONTINUOUS
  10
47.350
  20
33.567
  30
0.000
  0
VERTEX
  8
0
  6
CONTINUOUS
  10
47.450
  20
35.317
  30
0.000
  0
VERTEX
  8
0
  6
CONTINUOUS
  10
47.550
  20
37.033
  30
0.000
  0
VERTEX
  8
0
  6
CONTINUOUS
  10
47.650
  20
38.400
  30
0.000
  0
VERTEX
  8
0
  6
CONTINUOUS
  10
47.750
  20
39.000
  30
0.000
  0
VERTEX
  8
0
  6
CONTINUOUS
  10
47.867
  20
38.533
  30
0.000
  0
VERTEX
  8
0
  6
CONTINUOUS
  10
47.967
  20
37.150
  30
0.000
  0
VERTEX
  8
0
  6
CONTINUOUS
  10
48.067
  20
35.133
  30
0.000
  0
VERTEX
  8
0
  6
CONTINUOUS
  10
48.167
  20
32.667
  30
0.000
  0
VERTEX
  8
0
  6
CONTINUOUS
  10
48.267
  20
29.933
  30
0.000
  0
VERTEX
  8
0
  6
CONTINUOUS
  10
48.367
  20
26.900
  30
0.000
  0
VERTEX
  8
0
  6
CONTINUOUS
  10
48.467
  20
23.717
  30
0.000
  0
VERTEX
  8
0
  6
CONTINUOUS
  10
48.583
  20
20.567
  30
0.000
  0
VERTEX
  8
0
  6
CONTINUOUS
  10
48.683
  20
17.567
  30
0.000
  0
VERTEX
  8
0
  6
CONTINUOUS
  10
48.783
  20
15.033
  30
0.000
  0
VERTEX
  8
0
  6
CONTINUOUS
  10
48.883
  20
13.233
  30
0.000
  0
VERTEX
  8
0
  6
CONTINUOUS
  10
48.983
  20
12.300
  30
0.000
  0
VERTEX
  8
0
  6
CONTINUOUS
  10
49.083
  20
12.217
  30
0.000
  0
VERTEX
  8
0
  6
CONTINUOUS
  10
49.200
  20
12.917
  30
0.000
  0
VERTEX
  8
0
  6
CONTINUOUS
  10
49.300
  20
14.467
  30
0.000
  0
VERTEX
  8
0
  6
CONTINUOUS
  10
49.400
  20
17.017
  30
0.000
  0
VERTEX
  8
0
  6
CONTINUOUS
  10
49.500
  20
20.567
  30
0.000
  0
VERTEX
  8
0
  6
CONTINUOUS
  10
49.600
  20
24.533
  30
0.000
  0
VERTEX
  8
0
  6
CONTINUOUS
  10
49.700
  20
28.083
  30
0.000
  0
VERTEX
  8
0
  6
CONTINUOUS
  10
49.800
  20
30.967
  30
0.000
  0
VERTEX
  8
0
  6
CONTINUOUS
  10
49.917
  20
33.483
  30
0.000
  0
VERTEX
  8
0
  6
CONTINUOUS
  10
50.017
  20
36.050
  30
0.000
  0
VERTEX
  8
0
  6
CONTINUOUS
  10
50.117
  20
38.800
  30
0.000
  0
VERTEX
  8
0
  6
CONTINUOUS
  10
50.217
  20
41.350
  30
0.000
  0
VERTEX
  8
0
  6
CONTINUOUS
  10
50.317
  20
43.100
  30
0.000
  0
VERTEX
  8
0
  6
CONTINUOUS
  10
50.417
  20
43.617
  30
0.000
  0
VERTEX
  8
0
  6
CONTINUOUS
  10
50.517
  20
43.350
  30
0.000
  0
VERTEX
  8
0
  6
CONTINUOUS
  10
50.633
  20
42.933
  30
0.000
  0
VERTEX
  8
0
  6
CONTINUOUS
  10
50.733
  20
42.817
  30
0.000
  0
VERTEX
  8
0
  6
CONTINUOUS
  10
50.833
  20
43.000
  30
0.000
  0
VERTEX
  8
0
  6
CONTINUOUS
  10
50.933
  20
43.333
  30
0.000
  0
VERTEX
  8
0
  6
CONTINUOUS
  10
51.033
  20
43.833
  30
0.000
  0
VERTEX
  8
0
  6
CONTINUOUS
  10
51.133
  20
44.500
  30
0.000
  0
VERTEX
  8
0
  6
CONTINUOUS
  10
51.250
  20
45.317
  30
0.000
  0
VERTEX
  8
0
  6
CONTINUOUS
  10
51.350
  20
46.200
  30
0.000
  0
VERTEX
  8
0
  6
CONTINUOUS
  10
51.450
  20
46.867
  30
0.000
  0
VERTEX
  8
0
  6
CONTINUOUS
  10
51.550
  20
46.900
  30
0.000
  0
VERTEX
  8
0
  6
CONTINUOUS
  10
51.650
  20
46.267
  30
0.000
  0
VERTEX
  8
0
  6
CONTINUOUS
  10
51.750
  20
45.300
  30
0.000
  0
VERTEX
  8
0
  6
CONTINUOUS
  10
51.850
  20
44.167
  30
0.000
  0
VERTEX
  8
0
  6
CONTINUOUS
  10
51.967
  20
42.683
  30
0.000
  0
VERTEX
  8
0
  6
CONTINUOUS
  10
52.067
  20
40.650
  30
0.000
  0
VERTEX
  8
0
  6
CONTINUOUS
  10
52.167
  20
38.300
  30
0.000
  0
VERTEX
  8
0
  6
CONTINUOUS
  10
52.267
  20
36.217
  30
0.000
  0
VERTEX
  8
0
  6
CONTINUOUS
  10
52.367
  20
35.117
  30
0.000
  0
VERTEX
  8
0
  6
CONTINUOUS
  10
52.467
  20
35.433
  30
0.000
  0
VERTEX
  8
0
  6
CONTINUOUS
  10
52.583
  20
37.117
  30
0.000
  0
VERTEX
  8
0
  6
CONTINUOUS
  10
52.683
  20
39.800
  30
0.000
  0
VERTEX
  8
0
  6
CONTINUOUS
  10
52.783
  20
43.067
  30
0.000
  0
VERTEX
  8
0
  6
CONTINUOUS
  10
52.883
  20
46.300
  30
0.000
  0
VERTEX
  8
0
  6
CONTINUOUS
  10
52.983
  20
49.267
  30
0.000
  0
VERTEX
  8
0
  6
CONTINUOUS
  10
53.083
  20
51.583
  30
0.000
  0
VERTEX
  8
0
  6
CONTINUOUS
  10
53.183
  20
53.017
  30
0.000
  0
VERTEX
  8
0
  6
CONTINUOUS
  10
53.300
  20
53.700
  30
0.000
  0
VERTEX
  8
0
  6
CONTINUOUS
  10
53.400
  20
53.883
  30
0.000
  0
VERTEX
  8
0
  6
CONTINUOUS
  10
53.500
  20
53.500
  30
0.000
  0
VERTEX
  8
0
  6
CONTINUOUS
  10
53.600
  20
52.550
  30
0.000
  0
VERTEX
  8
0
  6
CONTINUOUS
  10
53.700
  20
51.133
  30
0.000
  0
VERTEX
  8
0
  6
CONTINUOUS
  10
53.800
  20
49.467
  30
0.000
  0
VERTEX
  8
0
  6
CONTINUOUS
  10
53.900
  20
48.100
  30
0.000
  0
VERTEX
  8
0
  6
CONTINUOUS
  10
54.017
  20
47.450
  30
0.000
  0
VERTEX
  8
0
  6
CONTINUOUS
  10
54.117
  20
47.400
  30
0.000
  0
VERTEX
  8
0
  6
CONTINUOUS
  10
54.217
  20
47.383
  30
0.000
  0
VERTEX
  8
0
  6
CONTINUOUS
  10
54.317
  20
46.933
  30
0.000
  0
VERTEX
  8
0
  6
CONTINUOUS
  10
54.417
  20
45.967
  30
0.000
  0
VERTEX
  8
0
  6
CONTINUOUS
  10
54.517
  20
44.567
  30
0.000
  0
VERTEX
  8
0
  6
CONTINUOUS
  10
54.633
  20
42.650
  30
0.000
  0
VERTEX
  8
0
  6
CONTINUOUS
  10
54.733
  20
40.100
  30
0.000
  0
VERTEX
  8
0
  6
CONTINUOUS
  10
54.833
  20
37.050
  30
0.000
  0
VERTEX
  8
0
  6
CONTINUOUS
  10
54.933
  20
33.933
  30
0.000
  0
VERTEX
  8
0
  6
CONTINUOUS
  10
55.033
  20
31.283
  30
0.000
  0
VERTEX
  8
0
  6
CONTINUOUS
  10
55.133
  20
29.117
  30
0.000
  0
VERTEX
  8
0
  6
CONTINUOUS
  10
55.233
  20
27.217
  30
0.000
  0
VERTEX
  8
0
  6
CONTINUOUS
  10
55.350
  20
25.533
  30
0.000
  0
VERTEX
  8
0
  6
CONTINUOUS
  10
55.450
  20
23.967
  30
0.000
  0
VERTEX
  8
0
  6
CONTINUOUS
  10
55.550
  20
22.550
  30
0.000
  0
VERTEX
  8
0
  6
CONTINUOUS
  10
55.650
  20
21.583
  30
0.000
  0
VERTEX
  8
0
  6
CONTINUOUS
  10
55.750
  20
21.317
  30
0.000
  0
VERTEX
  8
0
  6
CONTINUOUS
  10
55.850
  20
21.933
  30
0.000
  0
VERTEX
  8
0
  6
CONTINUOUS
  10
55.967
  20
23.417
  30
0.000
  0
VERTEX
  8
0
  6
CONTINUOUS
  10
56.067
  20
25.633
  30
0.000
  0
VERTEX
  8
0
  6
CONTINUOUS
  10
56.167
  20
28.383
  30
0.000
  0
VERTEX
  8
0
  6
CONTINUOUS
  10
56.267
  20
31.367
  30
0.000
  0
VERTEX
  8
0
  6
CONTINUOUS
  10
56.367
  20
34.150
  30
0.000
  0
VERTEX
  8
0
  6
CONTINUOUS
  10
56.467
  20
36.333
  30
0.000
  0
VERTEX
  8
0
  6
CONTINUOUS
  10
56.567
  20
37.750
  30
0.000
  0
VERTEX
  8
0
  6
CONTINUOUS
  10
56.683
  20
38.533
  30
0.000
  0
VERTEX
  8
0
  6
CONTINUOUS
  10
56.783
  20
38.667
  30
0.000
  0
VERTEX
  8
0
  6
CONTINUOUS
  10
56.883
  20
38.267
  30
0.000
  0
VERTEX
  8
0
  6
CONTINUOUS
  10
56.983
  20
37.683
  30
0.000
  0
VERTEX
  8
0
  6
CONTINUOUS
  10
57.083
  20
37.250
  30
0.000
  0
VERTEX
  8
0
  6
CONTINUOUS
  10
57.183
  20
37.150
  30
0.000
  0
VERTEX
  8
0
  6
CONTINUOUS
  10
57.300
  20
37.367
  30
0.000
  0
VERTEX
  8
0
  6
CONTINUOUS
  10
57.400
  20
37.917
  30
0.000
  0
VERTEX
  8
0
  6
CONTINUOUS
  10
57.500
  20
38.717
  30
0.000
  0
VERTEX
  8
0
  6
CONTINUOUS
  10
57.600
  20
39.650
  30
0.000
  0
VERTEX
  8
0
  6
CONTINUOUS
  10
57.700
  20
40.733
  30
0.000
  0
VERTEX
  8
0
  6
CONTINUOUS
  10
57.800
  20
41.950
  30
0.000
  0
VERTEX
  8
0
  6
CONTINUOUS
  10
57.900
  20
43.267
  30
0.000
  0
VERTEX
  8
0
  6
CONTINUOUS
  10
58.017
  20
44.600
  30
0.000
  0
VERTEX
  8
0
  6
CONTINUOUS
  10
58.117
  20
45.767
  30
0.000
  0
VERTEX
  8
0
  6
CONTINUOUS
  10
58.217
  20
46.600
  30
0.000
  0
VERTEX
  8
0
  6
CONTINUOUS
  10
58.317
  20
47.033
  30
0.000
  0
VERTEX
  8
0
  6
CONTINUOUS
  10
58.417
  20
47.117
  30
0.000
  0
VERTEX
  8
0
  6
CONTINUOUS
  10
58.517
  20
46.967
  30
0.000
  0
VERTEX
  8
0
  6
CONTINUOUS
  10
58.617
  20
46.700
  30
0.000
  0
VERTEX
  8
0
  6
CONTINUOUS
  10
58.733
  20
46.200
  30
0.000
  0
VERTEX
  8
0
  6
CONTINUOUS
  10
58.833
  20
45.317
  30
0.000
  0
VERTEX
  8
0
  6
CONTINUOUS
  10
58.933
  20
44.017
  30
0.000
  0
VERTEX
  8
0
  6
CONTINUOUS
  10
59.033
  20
42.300
  30
0.000
  0
VERTEX
  8
0
  6
CONTINUOUS
  10
59.133
  20
40.317
  30
0.000
  0
VERTEX
  8
0
  6
CONTINUOUS
  10
59.233
  20
38.200
  30
0.000
  0
VERTEX
  8
0
  6
CONTINUOUS
  10
59.350
  20
36.267
  30
0.000
  0
VERTEX
  8
0
  6
CONTINUOUS
  10
59.450
  20
34.850
  30
0.000
  0
VERTEX
  8
0
  6
CONTINUOUS
  10
59.550
  20
34.150
  30
0.000
  0
VERTEX
  8
0
  6
CONTINUOUS
  10
59.650
  20
34.000
  30
0.000
  0
VERTEX
  8
0
  6
CONTINUOUS
  10
59.750
  20
33.983
  30
0.000
  0
VERTEX
  8
0
  6
CONTINUOUS
  10
59.850
  20
34.017
  30
0.000
  0
VERTEX
  8
0
  6
CONTINUOUS
  10
59.950
  20
34.000
  30
0.000
  0
VERTEX
  8
0
  6
CONTINUOUS
  10
60.067
  20
33.783
  30
0.000
  0
VERTEX
  8
0
  6
CONTINUOUS
  10
60.167
  20
33.400
  30
0.000
  0
VERTEX
  8
0
  6
CONTINUOUS
  10
60.267
  20
32.983
  30
0.000
  0
VERTEX
  8
0
  6
CONTINUOUS
  10
60.367
  20
32.567
  30
0.000
  0
VERTEX
  8
0
  6
CONTINUOUS
  10
60.467
  20
32.150
  30
0.000
  0
VERTEX
  8
0
  6
CONTINUOUS
  10
60.567
  20
31.750
  30
0.000
  0
VERTEX
  8
0
  6
CONTINUOUS
  10
60.683
  20
31.367
  30
0.000
  0
VERTEX
  8
0
  6
CONTINUOUS
  10
60.783
  20
31.000
  30
0.000
  0
VERTEX
  8
0
  6
CONTINUOUS
  10
60.883
  20
30.767
  30
0.000
  0
VERTEX
  8
0
  6
CONTINUOUS
  10
60.983
  20
30.850
  30
0.000
  0
VERTEX
  8
0
  6
CONTINUOUS
  10
61.083
  20
31.450
  30
0.000
  0
VERTEX
  8
0
  6
CONTINUOUS
  10
61.183
  20
32.683
  30
0.000
  0
VERTEX
  8
0
  6
CONTINUOUS
  10
61.283
  20
34.483
  30
0.000
  0
VERTEX
  8
0
  6
CONTINUOUS
  10
61.400
  20
36.583
  30
0.000
  0
VERTEX
  8
0
  6
CONTINUOUS
  10
61.500
  20
38.567
  30
0.000
  0
VERTEX
  8
0
  6
CONTINUOUS
  10
61.600
  20
40.117
  30
0.000
  0
VERTEX
  8
0
  6
CONTINUOUS
  10
61.700
  20
41.050
  30
0.000
  0
VERTEX
  8
0
  6
CONTINUOUS
  10
61.800
  20
41.350
  30
0.000
  0
VERTEX
  8
0
  6
CONTINUOUS
  10
61.900
  20
41.133
  30
0.000
  0
VERTEX
  8
0
  6
CONTINUOUS
  10
62.017
  20
40.650
  30
0.000
  0
VERTEX
  8
0
  6
CONTINUOUS
  10
62.117
  20
40.083
  30
0.000
  0
VERTEX
  8
0
  6
CONTINUOUS
  10
62.217
  20
39.433
  30
0.000
  0
VERTEX
  8
0
  6
CONTINUOUS
  10
62.317
  20
38.783
  30
0.000
  0
VERTEX
  8
0
  6
CONTINUOUS
  10
62.417
  20
38.267
  30
0.000
  0
VERTEX
  8
0
  6
CONTINUOUS
  10
62.517
  20
37.900
  30
0.000
  0
VERTEX
  8
0
  6
CONTINUOUS
  10
62.617
  20
37.717
  30
0.000
  0
VERTEX
  8
0
  6
CONTINUOUS
  10
62.733
  20
37.583
  30
0.000
  0
VERTEX
  8
0
  6
CONTINUOUS
  10
62.833
  20
37.433
  30
0.000
  0
VERTEX
  8
0
  6
CONTINUOUS
  10
62.933
  20
37.250
  30
0.000
  0
VERTEX
  8
0
  6
CONTINUOUS
  10
63.033
  20
36.967
  30
0.000
  0
VERTEX
  8
0
  6
CONTINUOUS
  10
63.133
  20
36.650
  30
0.000
  0
VERTEX
  8
0
  6
CONTINUOUS
  10
63.233
  20
36.517
  30
0.000
  0
VERTEX
  8
0
  6
CONTINUOUS
  10
63.333
  20
36.767
  30
0.000
  0
VERTEX
  8
0
  6
CONTINUOUS
  10
63.450
  20
37.433
  30
0.000
  0
VERTEX
  8
0
  6
CONTINUOUS
  10
63.550
  20
38.383
  30
0.000
  0
VERTEX
  8
0
  6
CONTINUOUS
  10
63.650
  20
39.533
  30
0.000
  0
VERTEX
  8
0
  6
CONTINUOUS
  10
63.750
  20
40.700
  30
0.000
  0
VERTEX
  8
0
  6
CONTINUOUS
  10
63.850
  20
41.733
  30
0.000
  0
VERTEX
  8
0
  6
CONTINUOUS
  10
63.950
  20
42.433
  30
0.000
  0
VERTEX
  8
0
  6
CONTINUOUS
  10
64.067
  20
42.833
  30
0.000
  0
VERTEX
  8
0
  6
CONTINUOUS
  10
64.167
  20
42.867
  30
0.000
  0
VERTEX
  8
0
  6
CONTINUOUS
  10
64.267
  20
42.583
  30
0.000
  0
VERTEX
  8
0
  6
CONTINUOUS
  10
64.367
  20
42.067
  30
0.000
  0
VERTEX
  8
0
  6
CONTINUOUS
  10
64.467
  20
41.300
  30
0.000
  0
VERTEX
  8
0
  6
CONTINUOUS
  10
64.567
  20
40.383
  30
0.000
  0
VERTEX
  8
0
  6
CONTINUOUS
  10
64.667
  20
39.367
  30
0.000
  0
VERTEX
  8
0
  6
CONTINUOUS
  10
64.783
  20
38.417
  30
0.000
  0
VERTEX
  8
0
  6
CONTINUOUS
  10
64.883
  20
37.617
  30
0.000
  0
VERTEX
  8
0
  6
CONTINUOUS
  10
64.983
  20
37.167
  30
0.000
  0
VERTEX
  8
0
  6
CONTINUOUS
  10
65.083
  20
37.133
  30
0.000
  0
VERTEX
  8
0
  6
CONTINUOUS
  10
65.183
  20
37.533
  30
0.000
  0
VERTEX
  8
0
  6
CONTINUOUS
  10
65.283
  20
38.217
  30
0.000
  0
VERTEX
  8
0
  6
CONTINUOUS
  10
65.400
  20
39.083
  30
0.000
  0
VERTEX
  8
0
  6
CONTINUOUS
  10
65.500
  20
39.950
  30
0.000
  0
VERTEX
  8
0
  6
CONTINUOUS
  10
65.600
  20
40.717
  30
0.000
  0
VERTEX
  8
0
  6
CONTINUOUS
  10
65.700
  20
41.450
  30
0.000
  0
VERTEX
  8
0
  6
CONTINUOUS
  10
65.800
  20
42.183
  30
0.000
  0
VERTEX
  8
0
  6
CONTINUOUS
  10
65.900
  20
42.767
  30
0.000
  0
VERTEX
  8
0
  6
CONTINUOUS
  10
66.000
  20
43.083
  30
0.000
  0
VERTEX
  8
0
  6
CONTINUOUS
  10
66.117
  20
43.167
  30
0.000
  0
VERTEX
  8
0
  6
CONTINUOUS
  10
66.217
  20
42.983
  30
0.000
  0
VERTEX
  8
0
  6
CONTINUOUS
  10
66.317
  20
42.417
  30
0.000
  0
VERTEX
  8
0
  6
CONTINUOUS
  10
66.417
  20
41.483
  30
0.000
  0
VERTEX
  8
0
  6
CONTINUOUS
  10
66.517
  20
40.183
  30
0.000
  0
VERTEX
  8
0
  6
CONTINUOUS
  10
66.617
  20
38.633
  30
0.000
  0
VERTEX
  8
0
  6
CONTINUOUS
  10
66.717
  20
37.033
  30
0.000
  0
VERTEX
  8
0
  6
CONTINUOUS
  10
66.833
  20
35.633
  30
0.000
  0
VERTEX
  8
0
  6
CONTINUOUS
  10
66.933
  20
34.733
  30
0.000
  0
VERTEX
  8
0
  6
CONTINUOUS
  10
67.033
  20
34.500
  30
0.000
  0
VERTEX
  8
0
  6
CONTINUOUS
  10
67.133
  20
34.783
  30
0.000
  0
VERTEX
  8
0
  6
CONTINUOUS
  10
67.233
  20
35.233
  30
0.000
  0
VERTEX
  8
0
  6
CONTINUOUS
  10
67.333
  20
35.650
  30
0.000
  0
VERTEX
  8
0
  6
CONTINUOUS
  10
67.450
  20
35.983
  30
0.000
  0
VERTEX
  8
0
  6
CONTINUOUS
  10
67.550
  20
36.383
  30
0.000
  0
VERTEX
  8
0
  6
CONTINUOUS
  10
67.650
  20
36.983
  30
0.000
  0
VERTEX
  8
0
  6
CONTINUOUS
  10
67.750
  20
37.783
  30
0.000
  0
VERTEX
  8
0
  6
CONTINUOUS
  10
67.850
  20
38.667
  30
0.000
  0
VERTEX
  8
0
  6
CONTINUOUS
  10
67.950
  20
39.583
  30
0.000
  0
VERTEX
  8
0
  6
CONTINUOUS
  10
68.050
  20
40.400
  30
0.000
  0
VERTEX
  8
0
  6
CONTINUOUS
  10
68.167
  20
40.867
  30
0.000
  0
VERTEX
  8
0
  6
CONTINUOUS
  10
68.267
  20
40.800
  30
0.000
  0
VERTEX
  8
0
  6
CONTINUOUS
  10
68.367
  20
40.233
  30
0.000
  0
VERTEX
  8
0
  6
CONTINUOUS
  10
68.467
  20
39.500
  30
0.000
  0
VERTEX
  8
0
  6
CONTINUOUS
  10
68.567
  20
38.683
  30
0.000
  0
VERTEX
  8
0
  6
CONTINUOUS
  10
68.667
  20
37.767
  30
0.000
  0
VERTEX
  8
0
  6
CONTINUOUS
  10
68.783
  20
36.800
  30
0.000
  0
VERTEX
  8
0
  6
CONTINUOUS
  10
68.883
  20
35.900
  30
0.000
  0
VERTEX
  8
0
  6
CONTINUOUS
  10
68.983
  20
35.250
  30
0.000
  0
VERTEX
  8
0
  6
CONTINUOUS
  10
69.083
  20
34.983
  30
0.000
  0
VERTEX
  8
0
  6
CONTINUOUS
  10
69.183
  20
35.067
  30
0.000
  0
VERTEX
  8
0
  6
CONTINUOUS
  10
69.283
  20
35.350
  30
0.000
  0
VERTEX
  8
0
  6
CONTINUOUS
  10
69.383
  20
35.767
  30
0.000
  0
VERTEX
  8
0
  6
CONTINUOUS
  10
69.500
  20
36.183
  30
0.000
  0
VERTEX
  8
0
  6
CONTINUOUS
  10
69.600
  20
36.600
  30
0.000
  0
VERTEX
  8
0
  6
CONTINUOUS
  10
69.700
  20
37.050
  30
0.000
  0
VERTEX
  8
0
  6
CONTINUOUS
  10
69.800
  20
37.517
  30
0.000
  0
VERTEX
  8
0
  6
CONTINUOUS
  10
69.900
  20
37.900
  30
0.000
  0
VERTEX
  8
0
  6
CONTINUOUS
  10
70.000
  20
38.117
  30
0.000
  0
VERTEX
  8
0
  6
CONTINUOUS
  10
70.117
  20
38.117
  30
0.000
  0
VERTEX
  8
0
  6
CONTINUOUS
  10
70.217
  20
37.950
  30
0.000
  0
VERTEX
  8
0
  6
CONTINUOUS
  10
70.317
  20
37.683
  30
0.000
  0
VERTEX
  8
0
  6
CONTINUOUS
  10
70.417
  20
37.350
  30
0.000
  0
VERTEX
  8
0
  6
CONTINUOUS
  10
70.517
  20
37.000
  30
0.000
  0
VERTEX
  8
0
  6
CONTINUOUS
  10
70.617
  20
36.683
  30
0.000
  0
VERTEX
  8
0
  6
CONTINUOUS
  10
70.717
  20
36.517
  30
0.000
  0
VERTEX
  8
0
  6
CONTINUOUS
  10
70.833
  20
36.533
  30
0.000
  0
VERTEX
  8
0
  6
CONTINUOUS
  10
70.933
  20
36.733
  30
0.000
  0
VERTEX
  8
0
  6
CONTINUOUS
  10
71.033
  20
37.117
  30
0.000
  0
VERTEX
  8
0
  6
CONTINUOUS
  10
71.133
  20
37.717
  30
0.000
  0
VERTEX
  8
0
  6
CONTINUOUS
  10
71.233
  20
38.433
  30
0.000
  0
VERTEX
  8
0
  6
CONTINUOUS
  10
71.333
  20
39.217
  30
0.000
  0
VERTEX
  8
0
  6
CONTINUOUS
  10
71.433
  20
39.983
  30
0.000
  0
VERTEX
  8
0
  6
CONTINUOUS
  10
71.550
  20
40.617
  30
0.000
  0
VERTEX
  8
0
  6
CONTINUOUS
  10
71.650
  20
41.000
  30
0.000
  0
VERTEX
  8
0
  6
CONTINUOUS
  10
71.750
  20
41.083
  30
0.000
  0
VERTEX
  8
0
  6
CONTINUOUS
  10
71.850
  20
40.967
  30
0.000
  0
VERTEX
  8
0
  6
CONTINUOUS
  10
71.950
  20
40.733
  30
0.000
  0
VERTEX
  8
0
  6
CONTINUOUS
  10
72.050
  20
40.417
  30
0.000
  0
VERTEX
  8
0
  6
CONTINUOUS
  10
72.167
  20
39.967
  30
0.000
  0
VERTEX
  8
0
  6
CONTINUOUS
  10
72.267
  20
39.417
  30
0.000
  0
VERTEX
  8
0
  6
CONTINUOUS
  10
72.367
  20
38.850
  30
0.000
  0
VERTEX
  8
0
  6
CONTINUOUS
  10
72.467
  20
38.300
  30
0.000
  0
VERTEX
  8
0
  6
CONTINUOUS
  10
72.567
  20
37.733
  30
0.000
  0
VERTEX
  8
0
  6
CONTINUOUS
  10
72.667
  20
37.183
  30
0.000
  0
VERTEX
  8
0
  6
CONTINUOUS
  10
72.767
  20
36.750
  30
0.000
  0
VERTEX
  8
0
  6
CONTINUOUS
  10
72.883
  20
36.500
  30
0.000
  0
VERTEX
  8
0
  6
CONTINUOUS
  10
72.983
  20
36.400
  30
0.000
  0
VERTEX
  8
0
  6
CONTINUOUS
  10
73.083
  20
36.367
  30
0.000
  0
VERTEX
  8
0
  6
CONTINUOUS
  10
73.183
  20
36.400
  30
0.000
  0
VERTEX
  8
0
  6
CONTINUOUS
  10
73.283
  20
36.383
  30
0.000
  0
VERTEX
  8
0
  6
CONTINUOUS
  10
73.383
  20
36.367
  30
0.000
  0
VERTEX
  8
0
  6
CONTINUOUS
  10
73.500
  20
36.450
  30
0.000
  0
VERTEX
  8
0
  6
CONTINUOUS
  10
73.600
  20
36.633
  30
0.000
  0
VERTEX
  8
0
  6
CONTINUOUS
  10
73.700
  20
36.933
  30
0.000
  0
VERTEX
  8
0
  6
CONTINUOUS
  10
73.800
  20
37.400
  30
0.000
  0
VERTEX
  8
0
  6
CONTINUOUS
  10
73.900
  20
37.950
  30
0.000
  0
VERTEX
  8
0
  6
CONTINUOUS
  10
74.000
  20
38.483
  30
0.000
  0
VERTEX
  8
0
  6
CONTINUOUS
  10
74.100
  20
39.017
  30
0.000
  0
VERTEX
  8
0
  6
CONTINUOUS
  10
74.217
  20
39.467
  30
0.000
  0
VERTEX
  8
0
  6
CONTINUOUS
  10
74.317
  20
39.750
  30
0.000
  0
VERTEX
  8
0
  6
CONTINUOUS
  10
74.417
  20
39.933
  30
0.000
  0
VERTEX
  8
0
  6
CONTINUOUS
  10
74.517
  20
40.067
  30
0.000
  0
VERTEX
  8
0
  6
CONTINUOUS
  10
74.617
  20
40.200
  30
0.000
  0
VERTEX
  8
0
  6
CONTINUOUS
  10
74.717
  20
40.317
  30
0.000
  0
VERTEX
  8
0
  6
CONTINUOUS
  10
74.833
  20
40.550
  30
0.000
  0
VERTEX
  8
0
  6
CONTINUOUS
  10
74.933
  20
40.800
  30
0.000
  0
VERTEX
  8
0
  6
CONTINUOUS
  10
75.033
  20
41.050
  30
0.000
  0
VERTEX
  8
0
  6
CONTINUOUS
  10
75.133
  20
41.250
  30
0.000
  0
VERTEX
  8
0
  6
CONTINUOUS
  10
75.233
  20
41.317
  30
0.000
  0
VERTEX
  8
0
  6
CONTINUOUS
  10
75.333
  20
41.217
  30
0.000
  0
VERTEX
  8
0
  6
CONTINUOUS
  10
75.433
  20
41.033
  30
0.000
  0
VERTEX
  8
0
  6
CONTINUOUS
  10
75.550
  20
40.733
  30
0.000
  0
VERTEX
  8
0
  6
CONTINUOUS
  10
75.650
  20
40.317
  30
0.000
  0
VERTEX
  8
0
  6
CONTINUOUS
  10
75.750
  20
39.733
  30
0.000
  0
VERTEX
  8
0
  6
CONTINUOUS
  10
75.850
  20
39.017
  30
0.000
  0
VERTEX
  8
0
  6
CONTINUOUS
  10
75.950
  20
38.217
  30
0.000
  0
VERTEX
  8
0
  6
CONTINUOUS
  10
76.050
  20
37.433
  30
0.000
  0
VERTEX
  8
0
  6
CONTINUOUS
  10
76.150
  20
36.750
  30
0.000
  0
VERTEX
  8
0
  6
CONTINUOUS
  10
76.267
  20
36.283
  30
0.000
  0
VERTEX
  8
0
  6
CONTINUOUS
  10
76.367
  20
36.100
  30
0.000
  0
VERTEX
  8
0
  6
CONTINUOUS
  10
76.467
  20
36.200
  30
0.000
  0
VERTEX
  8
0
  6
CONTINUOUS
  10
76.567
  20
36.533
  30
0.000
  0
VERTEX
  8
0
  6
CONTINUOUS
  10
76.667
  20
36.983
  30
0.000
  0
VERTEX
  8
0
  6
CONTINUOUS
  10
76.767
  20
37.500
  30
0.000
  0
VERTEX
  8
0
  6
CONTINUOUS
  10
76.883
  20
38.017
  30
0.000
  0
VERTEX
  8
0
  6
CONTINUOUS
  10
76.983
  20
38.567
  30
0.000
  0
VERTEX
  8
0
  6
CONTINUOUS
  10
77.083
  20
39.067
  30
0.000
  0
VERTEX
  8
0
  6
CONTINUOUS
  10
77.183
  20
39.383
  30
0.000
  0
VERTEX
  8
0
  6
CONTINUOUS
  10
77.283
  20
39.483
  30
0.000
  0
VERTEX
  8
0
  6
CONTINUOUS
  10
77.383
  20
39.383
  30
0.000
  0
VERTEX
  8
0
  6
CONTINUOUS
  10
77.483
  20
39.150
  30
0.000
  0
VERTEX
  8
0
  6
CONTINUOUS
  10
77.600
  20
38.800
  30
0.000
  0
VERTEX
  8
0
  6
CONTINUOUS
  10
77.700
  20
38.450
  30
0.000
  0
VERTEX
  8
0
  6
CONTINUOUS
  10
77.800
  20
38.117
  30
0.000
  0
VERTEX
  8
0
  6
CONTINUOUS
  10
77.900
  20
37.800
  30
0.000
  0
VERTEX
  8
0
  6
CONTINUOUS
  10
78.000
  20
37.433
  30
0.000
  0
VERTEX
  8
0
  6
CONTINUOUS
  10
78.100
  20
37.083
  30
0.000
  0
VERTEX
  8
0
  6
CONTINUOUS
  10
78.217
  20
36.900
  30
0.000
  0
VERTEX
  8
0
  6
CONTINUOUS
  10
78.317
  20
36.900
  30
0.000
  0
VERTEX
  8
0
  6
CONTINUOUS
  10
78.417
  20
37.117
  30
0.000
  0
VERTEX
  8
0
  6
CONTINUOUS
  10
78.517
  20
37.450
  30
0.000
  0
VERTEX
  8
0
  6
CONTINUOUS
  10
78.617
  20
37.800
  30
0.000
  0
VERTEX
  8
0
  6
CONTINUOUS
  10
78.717
  20
38.083
  30
0.000
  0
VERTEX
  8
0
  6
CONTINUOUS
  10
78.817
  20
38.433
  30
0.000
  0
VERTEX
  8
0
  6
CONTINUOUS
  10
78.933
  20
38.867
  30
0.000
  0
VERTEX
  8
0
  6
CONTINUOUS
  10
79.033
  20
39.317
  30
0.000
  0
VERTEX
  8
0
  6
CONTINUOUS
  10
79.133
  20
39.700
  30
0.000
  0
VERTEX
  8
0
  6
CONTINUOUS
  10
79.233
  20
39.933
  30
0.000
  0
VERTEX
  8
0
  6
CONTINUOUS
  10
79.333
  20
39.950
  30
0.000
  0
VERTEX
  8
0
  6
CONTINUOUS
  10
79.433
  20
39.783
  30
0.000
  0
VERTEX
  8
0
  6
CONTINUOUS
  10
79.533
  20
39.517
  30
0.000
  0
VERTEX
  8
0
  6
CONTINUOUS
  10
79.650
  20
39.250
  30
0.000
  0
VERTEX
  8
0
  6
CONTINUOUS
  10
79.750
  20
38.983
  30
0.000
  0
VERTEX
  8
0
  6
CONTINUOUS
  10
79.850
  20
38.600
  30
0.000
  0
VERTEX
  8
0
  6
CONTINUOUS
  10
79.950
  20
38.200
  30
0.000
  0
VERTEX
  8
0
  6
CONTINUOUS
  10
80.050
  20
37.850
  30
0.000
  0
VERTEX
  8
0
  6
CONTINUOUS
  10
80.150
  20
37.583
  30
0.000
  0
VERTEX
  8
0
  6
CONTINUOUS
  10
80.267
  20
37.300
  30
0.000
  0
VERTEX
  8
0
  6
CONTINUOUS
  10
80.367
  20
37.067
  30
0.000
  0
VERTEX
  8
0
  6
CONTINUOUS
  10
80.467
  20
36.950
  30
0.000
  0
VERTEX
  8
0
  6
CONTINUOUS
  10
80.567
  20
36.933
  30
0.000
  0
VERTEX
  8
0
  6
CONTINUOUS
  10
80.667
  20
36.983
  30
0.000
  0
VERTEX
  8
0
  6
CONTINUOUS
  10
80.767
  20
37.050
  30
0.000
  0
VERTEX
  8
0
  6
CONTINUOUS
  10
80.867
  20
37.133
  30
0.000
  0
VERTEX
  8
0
  6
CONTINUOUS
  10
80.983
  20
37.217
  30
0.000
  0
VERTEX
  8
0
  6
CONTINUOUS
  10
81.083
  20
37.267
  30
0.000
  0
VERTEX
  8
0
  6
CONTINUOUS
  10
81.183
  20
37.417
  30
0.000
  0
VERTEX
  8
0
  6
CONTINUOUS
  10
81.283
  20
37.683
  30
0.000
  0
VERTEX
  8
0
  6
CONTINUOUS
  10
81.383
  20
38.017
  30
0.000
  0
VERTEX
  8
0
  6
CONTINUOUS
  10
81.483
  20
38.383
  30
0.000
  0
VERTEX
  8
0
  6
CONTINUOUS
  10
81.600
  20
38.750
  30
0.000
  0
VERTEX
  8
0
  6
CONTINUOUS
  10
81.700
  20
39.117
  30
0.000
  0
VERTEX
  8
0
  6
CONTINUOUS
  10
81.800
  20
39.400
  30
0.000
  0
VERTEX
  8
0
  6
CONTINUOUS
  10
81.900
  20
39.483
  30
0.000
  0
VERTEX
  8
0
  6
CONTINUOUS
  10
82.000
  20
39.283
  30
0.000
  0
VERTEX
  8
0
  6
CONTINUOUS
  10
82.100
  20
38.833
  30
0.000
  0
VERTEX
  8
0
  6
CONTINUOUS
  10
82.200
  20
38.250
  30
0.000
  0
VERTEX
  8
0
  6
CONTINUOUS
  10
82.317
  20
37.617
  30
0.000
  0
VERTEX
  8
0
  6
CONTINUOUS
  10
82.417
  20
37.100
  30
0.000
  0
VERTEX
  8
0
  6
CONTINUOUS
  10
82.517
  20
36.783
  30
0.000
  0
VERTEX
  8
0
  6
CONTINUOUS
  10
82.617
  20
36.700
  30
0.000
  0
VERTEX
  8
0
  6
CONTINUOUS
  10
82.717
  20
36.783
  30
0.000
  0
VERTEX
  8
0
  6
CONTINUOUS
  10
82.817
  20
36.950
  30
0.000
  0
VERTEX
  8
0
  6
CONTINUOUS
  10
82.933
  20
37.133
  30
0.000
  0
VERTEX
  8
0
  6
CONTINUOUS
  10
83.033
  20
37.350
  30
0.000
  0
VERTEX
  8
0
  6
CONTINUOUS
  10
83.133
  20
37.633
  30
0.000
  0
VERTEX
  8
0
  6
CONTINUOUS
  10
83.233
  20
37.967
  30
0.000
  0
VERTEX
  8
0
  6
CONTINUOUS
  10
83.333
  20
38.350
  30
0.000
  0
VERTEX
  8
0
  6
CONTINUOUS
  10
83.433
  20
38.783
  30
0.000
  0
VERTEX
  8
0
  6
CONTINUOUS
  10
83.533
  20
39.283
  30
0.000
  0
VERTEX
  8
0
  6
CONTINUOUS
  10
83.650
  20
39.700
  30
0.000
  0
VERTEX
  8
0
  6
CONTINUOUS
  10
83.750
  20
39.900
  30
0.000
  0
VERTEX
  8
0
  6
CONTINUOUS
  10
83.850
  20
39.900
  30
0.000
  0
VERTEX
  8
0
  6
CONTINUOUS
  10
83.950
  20
39.750
  30
0.000
  0
VERTEX
  8
0
  6
CONTINUOUS
  10
84.050
  20
39.533
  30
0.000
  0
VERTEX
  8
0
  6
CONTINUOUS
  10
84.150
  20
39.267
  30
0.000
  0
VERTEX
  8
0
  6
CONTINUOUS
  10
84.250
  20
39.000
  30
0.000
  0
VERTEX
  8
0
  6
CONTINUOUS
  10
84.367
  20
38.750
  30
0.000
  0
VERTEX
  8
0
  6
CONTINUOUS
  10
84.467
  20
38.617
  30
0.000
  0
VERTEX
  8
0
  6
CONTINUOUS
  10
84.567
  20
38.633
  30
0.000
  0
VERTEX
  8
0
  6
CONTINUOUS
  10
84.667
  20
38.733
  30
0.000
  0
VERTEX
  8
0
  6
CONTINUOUS
  10
84.767
  20
38.867
  30
0.000
  0
VERTEX
  8
0
  6
CONTINUOUS
  10
84.867
  20
39.033
  30
0.000
  0
VERTEX
  8
0
  6
CONTINUOUS
  10
84.983
  20
39.200
  30
0.000
  0
VERTEX
  8
0
  6
CONTINUOUS
  10
85.083
  20
39.383
  30
0.000
  0
VERTEX
  8
0
  6
CONTINUOUS
  10
85.183
  20
39.583
  30
0.000
  0
VERTEX
  8
0
  6
CONTINUOUS
  10
85.283
  20
39.683
  30
0.000
  0
VERTEX
  8
0
  6
CONTINUOUS
  10
85.383
  20
39.650
  30
0.000
  0
VERTEX
  8
0
  6
CONTINUOUS
  10
85.483
  20
39.417
  30
0.000
  0
VERTEX
  8
0
  6
CONTINUOUS
  10
85.583
  20
38.983
  30
0.000
  0
VERTEX
  8
0
  6
CONTINUOUS
  10
85.700
  20
38.350
  30
0.000
  0
VERTEX
  8
0
  6
CONTINUOUS
  10
85.800
  20
37.533
  30
0.000
  0
VERTEX
  8
0
  6
CONTINUOUS
  10
85.900
  20
36.583
  30
0.000
  0
VERTEX
  8
0
  6
CONTINUOUS
  10
86.000
  20
35.617
  30
0.000
  0
VERTEX
  8
0
  6
CONTINUOUS
  10
86.100
  20
34.750
  30
0.000
  0
VERTEX
  8
0
  6
CONTINUOUS
  10
86.200
  20
34.083
  30
0.000
  0
VERTEX
  8
0
  6
CONTINUOUS
  10
86.317
  20
33.433
  30
0.000
  0
VERTEX
  8
0
  6
CONTINUOUS
  10
86.417
  20
32.717
  30
0.000
  0
VERTEX
  8
0
  6
CONTINUOUS
  10
86.517
  20
32.033
  30
0.000
  0
VERTEX
  8
0
  6
CONTINUOUS
  10
86.617
  20
31.583
  30
0.000
  0
VERTEX
  8
0
  6
CONTINUOUS
  10
86.717
  20
31.433
  30
0.000
  0
VERTEX
  8
0
  6
CONTINUOUS
  10
86.817
  20
31.567
  30
0.000
  0
VERTEX
  8
0
  6
CONTINUOUS
  10
86.917
  20
31.950
  30
0.000
  0
VERTEX
  8
0
  6
CONTINUOUS
  10
87.033
  20
32.567
  30
0.000
  0
VERTEX
  8
0
  6
CONTINUOUS
  10
87.133
  20
33.383
  30
0.000
  0
VERTEX
  8
0
  6
CONTINUOUS
  10
87.233
  20
34.300
  30
0.000
  0
VERTEX
  8
0
  6
CONTINUOUS
  10
87.333
  20
35.267
  30
0.000
  0
VERTEX
  8
0
  6
CONTINUOUS
  10
87.433
  20
36.217
  30
0.000
  0
VERTEX
  8
0
  6
CONTINUOUS
  10
87.533
  20
37.100
  30
0.000
  0
VERTEX
  8
0
  6
CONTINUOUS
  10
87.650
  20
37.900
  30
0.000
  0
VERTEX
  8
0
  6
CONTINUOUS
  10
87.750
  20
38.600
  30
0.000
  0
VERTEX
  8
0
  6
CONTINUOUS
  10
87.850
  20
39.150
  30
0.000
  0
VERTEX
  8
0
  6
CONTINUOUS
  10
87.950
  20
39.517
  30
0.000
  0
VERTEX
  8
0
  6
CONTINUOUS
  10
88.050
  20
39.733
  30
0.000
  0
VERTEX
  8
0
  6
CONTINUOUS
  10
88.150
  20
39.867
  30
0.000
  0
VERTEX
  8
0
  6
CONTINUOUS
  10
88.250
  20
39.883
  30
0.000
  0
VERTEX
  8
0
  6
CONTINUOUS
  10
88.367
  20
39.850
  30
0.000
  0
VERTEX
  8
0
  6
CONTINUOUS
  10
88.467
  20
39.817
  30
0.000
  0
VERTEX
  8
0
  6
CONTINUOUS
  10
88.567
  20
39.950
  30
0.000
  0
VERTEX
  8
0
  6
CONTINUOUS
  10
88.667
  20
40.250
  30
0.000
  0
VERTEX
  8
0
  6
CONTINUOUS
  10
88.767
  20
40.567
  30
0.000
  0
VERTEX
  8
0
  6
CONTINUOUS
  10
88.867
  20
40.800
  30
0.000
  0
VERTEX
  8
0
  6
CONTINUOUS
  10
88.967
  20
40.967
  30
0.000
  0
VERTEX
  8
0
  6
CONTINUOUS
  10
89.083
  20
41.067
  30
0.000
  0
VERTEX
  8
0
  6
CONTINUOUS
  10
89.183
  20
40.967
  30
0.000
  0
VERTEX
  8
0
  6
CONTINUOUS
  10
89.283
  20
40.617
  30
0.000
  0
VERTEX
  8
0
  6
CONTINUOUS
  10
89.383
  20
40.017
  30
0.000
  0
VERTEX
  8
0
  6
CONTINUOUS
  10
89.483
  20
39.300
  30
0.000
  0
VERTEX
  8
0
  6
CONTINUOUS
  10
89.583
  20
38.517
  30
0.000
  0
VERTEX
  8
0
  6
CONTINUOUS
  10
89.700
  20
37.767
  30
0.000
  0
VERTEX
  8
0
  6
CONTINUOUS
  10
89.800
  20
37.167
  30
0.000
  0
VERTEX
  8
0
  6
CONTINUOUS
  10
89.900
  20
36.867
  30
0.000
  0
VERTEX
  8
0
  6
CONTINUOUS
  10
90.000
  20
36.883
  30
0.000
  0
VERTEX
  8
0
  6
CONTINUOUS
  10
90.100
  20
37.200
  30
0.000
  0
VERTEX
  8
0
  6
CONTINUOUS
  10
90.200
  20
37.700
  30
0.000
  0
VERTEX
  8
0
  6
CONTINUOUS
  10
90.300
  20
38.300
  30
0.000
  0
VERTEX
  8
0
  6
CONTINUOUS
  10
90.417
  20
38.883
  30
0.000
  0
VERTEX
  8
0
  6
CONTINUOUS
  10
90.517
  20
39.433
  30
0.000
  0
VERTEX
  8
0
  6
CONTINUOUS
  10
90.617
  20
39.883
  30
0.000
  0
VERTEX
  8
0
  6
CONTINUOUS
  10
90.717
  20
40.150
  30
0.000
  0
VERTEX
  8
0
  6
CONTINUOUS
  10
90.817
  20
40.200
  30
0.000
  0
VERTEX
  8
0
  6
CONTINUOUS
  10
90.917
  20
40.150
  30
0.000
  0
VERTEX
  8
0
  6
CONTINUOUS
  10
91.033
  20
40.050
  30
0.000
  0
VERTEX
  8
0
  6
CONTINUOUS
  10
91.133
  20
39.883
  30
0.000
  0
VERTEX
  8
0
  6
CONTINUOUS
  10
91.233
  20
39.600
  30
0.000
  0
VERTEX
  8
0
  6
CONTINUOUS
  10
91.333
  20
39.167
  30
0.000
  0
VERTEX
  8
0
  6
CONTINUOUS
  10
91.433
  20
38.667
  30
0.000
  0
VERTEX
  8
0
  6
CONTINUOUS
  10
91.533
  20
38.167
  30
0.000
  0
VERTEX
  8
0
  6
CONTINUOUS
  10
91.633
  20
37.667
  30
0.000
  0
VERTEX
  8
0
  6
CONTINUOUS
  10
91.750
  20
37.200
  30
0.000
  0
VERTEX
  8
0
  6
CONTINUOUS
  10
91.850
  20
36.867
  30
0.000
  0
VERTEX
  8
0
  6
CONTINUOUS
  10
91.950
  20
36.750
  30
0.000
  0
VERTEX
  8
0
  6
CONTINUOUS
  10
92.050
  20
36.800
  30
0.000
  0
VERTEX
  8
0
  6
CONTINUOUS
  10
92.150
  20
36.967
  30
0.000
  0
VERTEX
  8
0
  6
CONTINUOUS
  10
92.250
  20
37.183
  30
0.000
  0
VERTEX
  8
0
  6
CONTINUOUS
  10
92.350
  20
37.367
  30
0.000
  0
VERTEX
  8
0
  6
CONTINUOUS
  10
92.467
  20
37.483
  30
0.000
  0
VERTEX
  8
0
  6
CONTINUOUS
  10
92.567
  20
37.583
  30
0.000
  0
VERTEX
  8
0
  6
CONTINUOUS
  10
92.667
  20
37.750
  30
0.000
  0
VERTEX
  8
0
  6
CONTINUOUS
  10
92.767
  20
37.983
  30
0.000
  0
VERTEX
  8
0
  6
CONTINUOUS
  10
92.867
  20
38.267
  30
0.000
  0
VERTEX
  8
0
  6
CONTINUOUS
  10
92.967
  20
38.600
  30
0.000
  0
VERTEX
  8
0
  6
CONTINUOUS
  10
93.083
  20
38.950
  30
0.000
  0
VERTEX
  8
0
  6
CONTINUOUS
  10
93.183
  20
39.300
  30
0.000
  0
VERTEX
  8
0
  6
CONTINUOUS
  10
93.283
  20
39.667
  30
0.000
  0
VERTEX
  8
0
  6
CONTINUOUS
  10
93.383
  20
40.017
  30
0.000
  0
VERTEX
  8
0
  6
CONTINUOUS
  10
93.483
  20
40.350
  30
0.000
  0
VERTEX
  8
0
  6
CONTINUOUS
  10
93.583
  20
40.600
  30
0.000
  0
VERTEX
  8
0
  6
CONTINUOUS
  10
93.683
  20
40.717
  30
0.000
  0
VERTEX
  8
0
  6
CONTINUOUS
  10
93.800
  20
40.817
  30
0.000
  0
VERTEX
  8
0
  6
CONTINUOUS
  10
93.900
  20
40.833
  30
0.000
  0
VERTEX
  8
0
  6
CONTINUOUS
  10
94.000
  20
40.833
  30
0.000
  0
VERTEX
  8
0
  6
CONTINUOUS
  10
94.100
  20
40.767
  30
0.000
  0
VERTEX
  8
0
  6
CONTINUOUS
  10
94.200
  20
40.633
  30
0.000
  0
VERTEX
  8
0
  6
CONTINUOUS
  10
94.300
  20
40.467
  30
0.000
  0
VERTEX
  8
0
  6
CONTINUOUS
  10
94.417
  20
40.300
  30
0.000
  0
VERTEX
  8
0
  6
CONTINUOUS
  10
94.517
  20
40.200
  30
0.000
  0
VERTEX
  8
0
  6
CONTINUOUS
  10
94.617
  20
40.100
  30
0.000
  0
VERTEX
  8
0
  6
CONTINUOUS
  10
94.717
  20
39.933
  30
0.000
  0
VERTEX
  8
0
  6
CONTINUOUS
  10
94.817
  20
39.667
  30
0.000
  0
VERTEX
  8
0
  6
CONTINUOUS
  10
94.917
  20
39.300
  30
0.000
  0
VERTEX
  8
0
  6
CONTINUOUS
  10
95.017
  20
38.850
  30
0.000
  0
VERTEX
  8
0
  6
CONTINUOUS
  10
95.133
  20
38.400
  30
0.000
  0
VERTEX
  8
0
  6
CONTINUOUS
  10
95.233
  20
37.967
  30
0.000
  0
VERTEX
  8
0
  6
CONTINUOUS
  10
95.333
  20
37.583
  30
0.000
  0
VERTEX
  8
0
  6
CONTINUOUS
  10
95.433
  20
37.317
  30
0.000
  0
VERTEX
  8
0
  6
CONTINUOUS
  10
95.533
  20
37.200
  30
0.000
  0
VERTEX
  8
0
  6
CONTINUOUS
  10
95.633
  20
37.200
  30
0.000
  0
VERTEX
  8
0
  6
CONTINUOUS
  10
95.750
  20
37.267
  30
0.000
  0
VERTEX
  8
0
  6
CONTINUOUS
  10
95.850
  20
37.400
  30
0.000
  0
VERTEX
  8
0
  6
CONTINUOUS
  10
95.950
  20
37.567
  30
0.000
  0
VERTEX
  8
0
  6
CONTINUOUS
  10
96.050
  20
37.683
  30
0.000
  0
VERTEX
  8
0
  6
CONTINUOUS
  10
96.150
  20
37.733
  30
0.000
  0
VERTEX
  8
0
  6
CONTINUOUS
  10
96.250
  20
37.733
  30
0.000
  0
VERTEX
  8
0
  6
CONTINUOUS
  10
96.350
  20
37.733
  30
0.000
  0
VERTEX
  8
0
  6
CONTINUOUS
  10
96.467
  20
37.700
  30
0.000
  0
VERTEX
  8
0
  6
CONTINUOUS
  10
96.567
  20
37.650
  30
0.000
  0
VERTEX
  8
0
  6
CONTINUOUS
  10
96.667
  20
37.583
  30
0.000
  0
VERTEX
  8
0
  6
CONTINUOUS
  10
96.767
  20
37.533
  30
0.000
  0
VERTEX
  8
0
  6
CONTINUOUS
  10
96.867
  20
37.517
  30
0.000
  0
VERTEX
  8
0
  6
CONTINUOUS
  10
96.967
  20
37.600
  30
0.000
  0
VERTEX
  8
0
  6
CONTINUOUS
  10
97.067
  20
37.800
  30
0.000
  0
VERTEX
  8
0
  6
CONTINUOUS
  10
97.183
  20
38.100
  30
0.000
  0
VERTEX
  8
0
  6
CONTINUOUS
  10
97.283
  20
38.433
  30
0.000
  0
VERTEX
  8
0
  6
CONTINUOUS
  10
97.383
  20
38.783
  30
0.000
  0
VERTEX
  8
0
  6
CONTINUOUS
  10
97.483
  20
39.067
  30
0.000
  0
VERTEX
  8
0
  6
CONTINUOUS
  10
97.583
  20
39.267
  30
0.000
  0
VERTEX
  8
0
  6
CONTINUOUS
  10
97.683
  20
39.383
  30
0.000
  0
VERTEX
  8
0
  6
CONTINUOUS
  10
97.800
  20
39.417
  30
0.000
  0
VERTEX
  8
0
  6
CONTINUOUS
  10
97.900
  20
39.367
  30
0.000
  0
VERTEX
  8
0
  6
CONTINUOUS
  10
98.000
  20
39.217
  30
0.000
  0
VERTEX
  8
0
  6
CONTINUOUS
  10
98.100
  20
39.050
  30
0.000
  0
VERTEX
  8
0
  6
CONTINUOUS
  10
98.200
  20
38.883
  30
0.000
  0
VERTEX
  8
0
  6
CONTINUOUS
  10
98.300
  20
38.683
  30
0.000
  0
VERTEX
  8
0
  6
CONTINUOUS
  10
98.400
  20
38.483
  30
0.000
  0
VERTEX
  8
0
  6
CONTINUOUS
  10
98.517
  20
38.283
  30
0.000
  0
VERTEX
  8
0
  6
CONTINUOUS
  10
98.617
  20
38.100
  30
0.000
  0
VERTEX
  8
0
  6
CONTINUOUS
  10
98.717
  20
37.917
  30
0.000
  0
VERTEX
  8
0
  6
CONTINUOUS
  10
98.817
  20
37.767
  30
0.000
  0
VERTEX
  8
0
  6
CONTINUOUS
  10
98.917
  20
37.650
  30
0.000
  0
VERTEX
  8
0
  6
CONTINUOUS
  10
99.017
  20
37.567
  30
0.000
  0
VERTEX
  8
0
  6
CONTINUOUS
  10
99.133
  20
37.500
  30
0.000
  0
VERTEX
  8
0
  6
CONTINUOUS
  10
99.233
  20
37.483
  30
0.000
  0
VERTEX
  8
0
  6
CONTINUOUS
  10
99.333
  20
37.533
  30
0.000
  0
VERTEX
  8
0
  6
CONTINUOUS
  10
99.433
  20
37.633
  30
0.000
  0
VERTEX
  8
0
  6
CONTINUOUS
  10
99.533
  20
37.750
  30
0.000
  0
VERTEX
  8
0
  6
CONTINUOUS
  10
99.633
  20
37.867
  30
0.000
  0
VERTEX
  8
0
  6
CONTINUOUS
  10
99.733
  20
37.967
  30
0.000
  0
VERTEX
  8
0
  6
CONTINUOUS
  10
99.850
  20
37.983
  30
0.000
  0
VERTEX
  8
0
  6
CONTINUOUS
  10
99.950
  20
37.900
  30
0.000
  0
VERTEX
  8
0
  6
CONTINUOUS
  10
100.050
  20
37.750
  30
0.000
  0
VERTEX
  8
0
  6
CONTINUOUS
  10
100.150
  20
37.617
  30
0.000
  0
VERTEX
  8
0
  6
CONTINUOUS
  10
100.250
  20
37.600
  30
0.000
  0
VERTEX
  8
0
  6
CONTINUOUS
  10
100.350
  20
37.750
  30
0.000
  0
VERTEX
  8
0
  6
CONTINUOUS
  10
100.467
  20
38.067
  30
0.000
  0
VERTEX
  8
0
  6
CONTINUOUS
  10
100.567
  20
38.483
  30
0.000
  0
VERTEX
  8
0
  6
CONTINUOUS
  10
100.667
  20
38.933
  30
0.000
  0
VERTEX
  8
0
  6
CONTINUOUS
  10
100.767
  20
39.350
  30
0.000
  0
VERTEX
  8
0
  6
CONTINUOUS
  10
100.867
  20
39.667
  30
0.000
  0
VERTEX
  8
0
  6
CONTINUOUS
  10
100.967
  20
39.817
  30
0.000
  0
VERTEX
  8
0
  6
CONTINUOUS
  10
101.067
  20
39.750
  30
0.000
  0
VERTEX
  8
0
  6
CONTINUOUS
  10
101.183
  20
39.467
  30
0.000
  0
VERTEX
  8
0
  6
CONTINUOUS
  10
101.283
  20
38.983
  30
0.000
  0
VERTEX
  8
0
  6
CONTINUOUS
  10
101.383
  20
38.333
  30
0.000
  0
VERTEX
  8
0
  6
CONTINUOUS
  10
101.483
  20
37.567
  30
0.000
  0
VERTEX
  8
0
  6
CONTINUOUS
  10
101.583
  20
36.783
  30
0.000
  0
VERTEX
  8
0
  6
CONTINUOUS
  10
101.683
  20
36.050
  30
0.000
  0
VERTEX
  8
0
  6
CONTINUOUS
  10
101.783
  20
35.467
  30
0.000
  0
VERTEX
  8
0
  6
CONTINUOUS
  10
101.900
  20
35.100
  30
0.000
  0
VERTEX
  8
0
  6
CONTINUOUS
  10
102.000
  20
34.850
  30
0.000
  0
VERTEX
  8
0
  6
CONTINUOUS
  10
102.100
  20
34.617
  30
0.000
  0
VERTEX
  8
0
  6
CONTINUOUS
  10
102.200
  20
34.417
  30
0.000
  0
VERTEX
  8
0
  6
CONTINUOUS
  10
102.300
  20
34.400
  30
0.000
  0
VERTEX
  8
0
  6
CONTINUOUS
  10
102.400
  20
34.667
  30
0.000
  0
VERTEX
  8
0
  6
CONTINUOUS
  10
102.517
  20
35.183
  30
0.000
  0
VERTEX
  8
0
  6
CONTINUOUS
  10
102.617
  20
35.917
  30
0.000
  0
VERTEX
  8
0
  6
CONTINUOUS
  10
102.717
  20
36.817
  30
0.000
  0
VERTEX
  8
0
  6
CONTINUOUS
  10
102.817
  20
37.817
  30
0.000
  0
VERTEX
  8
0
  6
CONTINUOUS
  10
102.917
  20
38.850
  30
0.000
  0
VERTEX
  8
0
  6
CONTINUOUS
  10
103.017
  20
39.733
  30
0.000
  0
VERTEX
  8
0
  6
CONTINUOUS
  10
103.117
  20
40.317
  30
0.000
  0
VERTEX
  8
0
  6
CONTINUOUS
  10
103.233
  20
40.567
  30
0.000
  0
VERTEX
  8
0
  6
CONTINUOUS
  10
103.333
  20
40.500
  30
0.000
  0
VERTEX
  8
0
  6
CONTINUOUS
  10
103.433
  20
40.183
  30
0.000
  0
VERTEX
  8
0
  6
CONTINUOUS
  10
103.533
  20
39.783
  30
0.000
  0
VERTEX
  8
0
  6
CONTINUOUS
  10
103.633
  20
39.333
  30
0.000
  0
VERTEX
  8
0
  6
CONTINUOUS
  10
103.733
  20
38.883
  30
0.000
  0
VERTEX
  8
0
  6
CONTINUOUS
  10
103.850
  20
38.400
  30
0.000
  0
VERTEX
  8
0
  6
CONTINUOUS
  10
103.950
  20
37.933
  30
0.000
  0
VERTEX
  8
0
  6
CONTINUOUS
  10
104.050
  20
37.633
  30
0.000
  0
VERTEX
  8
0
  6
CONTINUOUS
  10
104.150
  20
37.583
  30
0.000
  0
VERTEX
  8
0
  6
CONTINUOUS
  10
104.250
  20
37.783
  30
0.000
  0
VERTEX
  8
0
  6
CONTINUOUS
  10
104.350
  20
38.150
  30
0.000
  0
VERTEX
  8
0
  6
CONTINUOUS
  10
104.450
  20
38.617
  30
0.000
  0
VERTEX
  8
0
  6
CONTINUOUS
  10
104.567
  20
39.100
  30
0.000
  0
VERTEX
  8
0
  6
CONTINUOUS
  10
104.667
  20
39.500
  30
0.000
  0
VERTEX
  8
0
  6
CONTINUOUS
  10
104.767
  20
39.833
  30
0.000
  0
VERTEX
  8
0
  6
CONTINUOUS
  10
104.867
  20
40.083
  30
0.000
  0
VERTEX
  8
0
  6
CONTINUOUS
  10
104.967
  20
40.217
  30
0.000
  0
VERTEX
  8
0
  6
CONTINUOUS
  10
105.067
  20
40.150
  30
0.000
  0
VERTEX
  8
0
  6
CONTINUOUS
  10
105.167
  20
39.917
  30
0.000
  0
VERTEX
  8
0
  6
CONTINUOUS
  10
105.283
  20
39.533
  30
0.000
  0
VERTEX
  8
0
  6
CONTINUOUS
  10
105.383
  20
39.067
  30
0.000
  0
VERTEX
  8
0
  6
CONTINUOUS
  10
105.483
  20
38.550
  30
0.000
  0
VERTEX
  8
0
  6
CONTINUOUS
  10
105.583
  20
38.017
  30
0.000
  0
VERTEX
  8
0
  6
CONTINUOUS
  10
105.683
  20
37.533
  30
0.000
  0
VERTEX
  8
0
  6
CONTINUOUS
  10
105.783
  20
37.200
  30
0.000
  0
VERTEX
  8
0
  6
CONTINUOUS
  10
105.900
  20
37.033
  30
0.000
  0
VERTEX
  8
0
  6
CONTINUOUS
  10
106.000
  20
37.033
  30
0.000
  0
VERTEX
  8
0
  6
CONTINUOUS
  10
106.100
  20
37.183
  30
0.000
  0
VERTEX
  8
0
  6
CONTINUOUS
  10
106.200
  20
37.450
  30
0.000
  0
VERTEX
  8
0
  6
CONTINUOUS
  10
106.300
  20
37.700
  30
0.000
  0
VERTEX
  8
0
  6
CONTINUOUS
  10
106.400
  20
37.933
  30
0.000
  0
VERTEX
  8
0
  6
CONTINUOUS
  10
106.500
  20
38.083
  30
0.000
  0
VERTEX
  8
0
  6
CONTINUOUS
  10
106.617
  20
38.150
  30
0.000
  0
VERTEX
  8
0
  6
CONTINUOUS
  10
106.717
  20
38.083
  30
0.000
  0
VERTEX
  8
0
  6
CONTINUOUS
  10
106.817
  20
37.933
  30
0.000
  0
VERTEX
  8
0
  6
CONTINUOUS
  10
106.917
  20
37.783
  30
0.000
  0
VERTEX
  8
0
  6
CONTINUOUS
  10
107.017
  20
37.733
  30
0.000
  0
VERTEX
  8
0
  6
CONTINUOUS
  10
107.117
  20
37.767
  30
0.000
  0
VERTEX
  8
0
  6
CONTINUOUS
  10
107.233
  20
37.933
  30
0.000
  0
VERTEX
  8
0
  6
CONTINUOUS
  10
107.333
  20
38.217
  30
0.000
  0
VERTEX
  8
0
  6
CONTINUOUS
  10
107.433
  20
38.633
  30
0.000
  0
VERTEX
  8
0
  6
CONTINUOUS
  10
107.533
  20
39.100
  30
0.000
  0
VERTEX
  8
0
  6
CONTINUOUS
  10
107.633
  20
39.567
  30
0.000
  0
VERTEX
  8
0
  6
CONTINUOUS
  10
107.733
  20
39.900
  30
0.000
  0
VERTEX
  8
0
  6
CONTINUOUS
  10
107.833
  20
40.017
  30
0.000
  0
VERTEX
  8
0
  6
CONTINUOUS
  10
107.950
  20
39.850
  30
0.000
  0
VERTEX
  8
0
  6
CONTINUOUS
  10
108.050
  20
39.500
  30
0.000
  0
VERTEX
  8
0
  6
CONTINUOUS
  10
108.150
  20
39.083
  30
0.000
  0
VERTEX
  8
0
  6
CONTINUOUS
  10
108.250
  20
38.683
  30
0.000
  0
VERTEX
  8
0
  6
CONTINUOUS
  10
108.350
  20
38.250
  30
0.000
  0
VERTEX
  8
0
  6
CONTINUOUS
  10
108.450
  20
37.800
  30
0.000
  0
VERTEX
  8
0
  6
CONTINUOUS
  10
108.567
  20
37.417
  30
0.000
  0
VERTEX
  8
0
  6
CONTINUOUS
  10
108.667
  20
37.183
  30
0.000
  0
VERTEX
  8
0
  6
CONTINUOUS
  10
108.767
  20
37.150
  30
0.000
  0
VERTEX
  8
0
  6
CONTINUOUS
  10
108.867
  20
37.283
  30
0.000
  0
VERTEX
  8
0
  6
CONTINUOUS
  10
108.967
  20
37.450
  30
0.000
  0
VERTEX
  8
0
  6
CONTINUOUS
  10
109.067
  20
37.583
  30
0.000
  0
VERTEX
  8
0
  6
CONTINUOUS
  10
109.167
  20
37.650
  30
0.000
  0
VERTEX
  8
0
  6
CONTINUOUS
  10
109.283
  20
37.667
  30
0.000
  0
VERTEX
  8
0
  6
CONTINUOUS
  10
109.383
  20
37.600
  30
0.000
  0
VERTEX
  8
0
  6
CONTINUOUS
  10
109.483
  20
37.550
  30
0.000
  0
VERTEX
  8
0
  6
CONTINUOUS
  10
109.583
  20
37.600
  30
0.000
  0
VERTEX
  8
0
  6
CONTINUOUS
  10
109.683
  20
37.750
  30
0.000
  0
VERTEX
  8
0
  6
CONTINUOUS
  10
109.783
  20
37.983
  30
0.000
  0
VERTEX
  8
0
  6
CONTINUOUS
  10
109.883
  20
38.217
  30
0.000
  0
VERTEX
  8
0
  6
CONTINUOUS
  10
110.000
  20
38.450
  30
0.000
  0
VERTEX
  8
0
  6
CONTINUOUS
  10
110.100
  20
38.717
  30
0.000
  0
VERTEX
  8
0
  6
CONTINUOUS
  10
110.200
  20
39.017
  30
0.000
  0
VERTEX
  8
0
  6
CONTINUOUS
  10
110.300
  20
39.300
  30
0.000
  0
VERTEX
  8
0
  6
CONTINUOUS
  10
110.400
  20
39.483
  30
0.000
  0
VERTEX
  8
0
  6
CONTINUOUS
  10
110.500
  20
39.550
  30
0.000
  0
VERTEX
  8
0
  6
CONTINUOUS
  10
110.617
  20
39.517
  30
0.000
  0
VERTEX
  8
0
  6
CONTINUOUS
  10
110.717
  20
39.383
  30
0.000
  0
VERTEX
  8
0
  6
CONTINUOUS
  10
110.817
  20
39.217
  30
0.000
  0
VERTEX
  8
0
  6
CONTINUOUS
  10
110.917
  20
38.983
  30
0.000
  0
VERTEX
  8
0
  6
CONTINUOUS
  10
111.017
  20
38.717
  30
0.000
  0
VERTEX
  8
0
  6
CONTINUOUS
  10
111.117
  20
38.383
  30
0.000
  0
VERTEX
  8
0
  6
CONTINUOUS
  10
111.217
  20
38.017
  30
0.000
  0
VERTEX
  8
0
  6
CONTINUOUS
  10
111.333
  20
37.667
  30
0.000
  0
VERTEX
  8
0
  6
CONTINUOUS
  10
111.433
  20
37.367
  30
0.000
  0
VERTEX
  8
0
  6
CONTINUOUS
  10
111.533
  20
37.167
  30
0.000
  0
VERTEX
  8
0
  6
CONTINUOUS
  10
111.633
  20
37.050
  30
0.000
  0
VERTEX
  8
0
  6
CONTINUOUS
  10
111.733
  20
37.017
  30
0.000
  0
VERTEX
  8
0
  6
CONTINUOUS
  10
111.833
  20
37.100
  30
0.000
  0
VERTEX
  8
0
  6
CONTINUOUS
  10
111.950
  20
37.300
  30
0.000
  0
VERTEX
  8
0
  6
CONTINUOUS
  10
112.050
  20
37.567
  30
0.000
  0
VERTEX
  8
0
  6
CONTINUOUS
  10
112.150
  20
37.900
  30
0.000
  0
VERTEX
  8
0
  6
CONTINUOUS
  10
112.250
  20
38.183
  30
0.000
  0
VERTEX
  8
0
  6
CONTINUOUS
  10
112.350
  20
38.400
  30
0.000
  0
VERTEX
  8
0
  6
CONTINUOUS
  10
112.450
  20
38.600
  30
0.000
  0
VERTEX
  8
0
  6
CONTINUOUS
  10
112.550
  20
38.783
  30
0.000
  0
VERTEX
  8
0
  6
CONTINUOUS
  10
112.667
  20
38.983
  30
0.000
  0
VERTEX
  8
0
  6
CONTINUOUS
  10
112.767
  20
39.133
  30
0.000
  0
VERTEX
  8
0
  6
CONTINUOUS
  10
112.867
  20
39.233
  30
0.000
  0
VERTEX
  8
0
  6
CONTINUOUS
  10
112.967
  20
39.233
  30
0.000
  0
VERTEX
  8
0
  6
CONTINUOUS
  10
113.067
  20
39.150
  30
0.000
  0
VERTEX
  8
0
  6
CONTINUOUS
  10
113.167
  20
38.983
  30
0.000
  0
VERTEX
  8
0
  6
CONTINUOUS
  10
113.283
  20
38.767
  30
0.000
  0
VERTEX
  8
0
  6
CONTINUOUS
  10
113.383
  20
38.533
  30
0.000
  0
VERTEX
  8
0
  6
CONTINUOUS
  10
113.483
  20
38.267
  30
0.000
  0
VERTEX
  8
0
  6
CONTINUOUS
  10
113.583
  20
38.000
  30
0.000
  0
VERTEX
  8
0
  6
CONTINUOUS
  10
113.683
  20
37.783
  30
0.000
  0
VERTEX
  8
0
  6
CONTINUOUS
  10
113.783
  20
37.633
  30
0.000
  0
VERTEX
  8
0
  6
CONTINUOUS
  10
113.883
  20
37.550
  30
0.000
  0
VERTEX
  8
0
  6
CONTINUOUS
  10
114.000
  20
37.483
  30
0.000
  0
VERTEX
  8
0
  6
CONTINUOUS
  10
114.100
  20
37.417
  30
0.000
  0
VERTEX
  8
0
  6
CONTINUOUS
  10
114.200
  20
37.383
  30
0.000
  0
VERTEX
  8
0
  6
CONTINUOUS
  10
114.300
  20
37.350
  30
0.000
  0
VERTEX
  8
0
  6
CONTINUOUS
  10
114.400
  20
37.317
  30
0.000
  0
VERTEX
  8
0
  6
CONTINUOUS
  10
114.500
  20
37.333
  30
0.000
  0
VERTEX
  8
0
  6
CONTINUOUS
  10
114.600
  20
37.417
  30
0.000
  0
VERTEX
  8
0
  6
CONTINUOUS
  10
114.717
  20
37.533
  30
0.000
  0
VERTEX
  8
0
  6
CONTINUOUS
  10
114.817
  20
37.650
  30
0.000
  0
VERTEX
  8
0
  6
CONTINUOUS
  10
114.917
  20
37.783
  30
0.000
  0
VERTEX
  8
0
  6
CONTINUOUS
  10
115.017
  20
37.917
  30
0.000
  0
VERTEX
  8
0
  6
CONTINUOUS
  10
115.117
  20
38.067
  30
0.000
  0
VERTEX
  8
0
  6
CONTINUOUS
  10
115.217
  20
38.267
  30
0.000
  0
VERTEX
  8
0
  6
CONTINUOUS
  10
115.333
  20
38.550
  30
0.000
  0
VERTEX
  8
0
  6
CONTINUOUS
  10
115.433
  20
38.833
  30
0.000
  0
VERTEX
  8
0
  6
CONTINUOUS
  10
115.533
  20
39.067
  30
0.000
  0
SEQEND
  0
TEXT
  8
0
 10
92.183
 20
72.247
 30
0.000
 40
1.456 
  1
2nd story
 50
0.000 
  7
STANDARD
 72
2
 11
102.767
 21
72.247
 31
0.000
  0
POLYLINE
  8
1
 66
   1
  6
DASHED
  0
VERTEX
  8
1
  6
DASHED
 10
104.433
 20
72.767
 30
0.000
  0
VERTEX
  8
1
  6
DASHED
  10
112.300
  20
72.767
  30
0.000
  0
SEQEND
  0
POLYLINE
  8
1
 66
   1
  6
DASHED
  0
VERTEX
  8
1
  6
DASHED
 10
13.200
 20
38.233
 30
0.000
  0
VERTEX
  8
1
  6
DASHED
  10
13.200
  20
38.233
  30
0.000
  0
VERTEX
  8
1
  6
DASHED
  10
13.300
  20
38.233
  30
0.000
  0
VERTEX
  8
1
  6
DASHED
  10
13.400
  20
38.233
  30
0.000
  0
VERTEX
  8
1
  6
DASHED
  10
13.517
  20
38.233
  30
0.000
  0
VERTEX
  8
1
  6
DASHED
  10
13.617
  20
38.233
  30
0.000
  0
VERTEX
  8
1
  6
DASHED
  10
13.717
  20
38.233
  30
0.000
  0
VERTEX
  8
1
  6
DASHED
  10
13.817
  20
38.233
  30
0.000
  0
VERTEX
  8
1
  6
DASHED
  10
13.917
  20
38.233
  30
0.000
  0
VERTEX
  8
1
  6
DASHED
  10
14.017
  20
38.250
  30
0.000
  0
VERTEX
  8
1
  6
DASHED
  10
14.133
  20
38.250
  30
0.000
  0
VERTEX
  8
1
  6
DASHED
  10
14.233
  20
38.250
  30
0.000
  0
VERTEX
  8
1
  6
DASHED
  10
14.333
  20
38.250
  30
0.000
  0
VERTEX
  8
1
  6
DASHED
  10
14.433
  20
38.233
  30
0.000
  0
VERTEX
  8
1
  6
DASHED
  10
14.533
  20
38.217
  30
0.000
  0
VERTEX
  8
1
  6
DASHED
  10
14.633
  20
38.200
  30
0.000
  0
VERTEX
  8
1
  6
DASHED
  10
14.733
  20
38.200
  30
0.000
  0
VERTEX
  8
1
  6
DASHED
  10
14.850
  20
38.217
  30
0.000
  0
VERTEX
  8
1
  6
DASHED
  10
14.950
  20
38.250
  30
0.000
  0
VERTEX
  8
1
  6
DASHED
  10
15.050
  20
38.267
  30
0.000
  0
VERTEX
  8
1
  6
DASHED
  10
15.150
  20
38.283
  30
0.000
  0
VERTEX
  8
1
  6
DASHED
  10
15.250
  20
38.283
  30
0.000
  0
VERTEX
  8
1
  6
DASHED
  10
15.350
  20
38.283
  30
0.000
  0
VERTEX
  8
1
  6
DASHED
  10
15.450
  20
38.267
  30
0.000
  0
VERTEX
  8
1
  6
DASHED
  10
15.567
  20
38.250
  30
0.000
  0
VERTEX
  8
1
  6
DASHED
  10
15.667
  20
38.233
  30
0.000
  0
VERTEX
  8
1
  6
DASHED
  10
15.767
  20
38.217
  30
0.000
  0
VERTEX
  8
1
  6
DASHED
  10
15.867
  20
38.183
  30
0.000
  0
VERTEX
  8
1
  6
DASHED
  10
15.967
  20
38.150
  30
0.000
  0
VERTEX
  8
1
  6
DASHED
  10
16.067
  20
38.117
  30
0.000
  0
VERTEX
  8
1
  6
DASHED
  10
16.183
  20
38.067
  30
0.000
  0
VERTEX
  8
1
  6
DASHED
  10
16.283
  20
38.033
  30
0.000
  0
VERTEX
  8
1
  6
DASHED
  10
16.383
  20
38.017
  30
0.000
  0
VERTEX
  8
1
  6
DASHED
  10
16.483
  20
38.033
  30
0.000
  0
VERTEX
  8
1
  6
DASHED
  10
16.583
  20
38.100
  30
0.000
  0
VERTEX
  8
1
  6
DASHED
  10
16.683
  20
38.200
  30
0.000
  0
VERTEX
  8
1
  6
DASHED
  10
16.783
  20
38.300
  30
0.000
  0
VERTEX
  8
1
  6
DASHED
  10
16.900
  20
38.367
  30
0.000
  0
VERTEX
  8
1
  6
DASHED
  10
17.000
  20
38.417
  30
0.000
  0
VERTEX
  8
1
  6
DASHED
  10
17.100
  20
38.433
  30
0.000
  0
VERTEX
  8
1
  6
DASHED
  10
17.200
  20
38.400
  30
0.000
  0
VERTEX
  8
1
  6
DASHED
  10
17.300
  20
38.333
  30
0.000
  0
VERTEX
  8
1
  6
DASHED
  10
17.400
  20
38.217
  30
0.000
  0
VERTEX
  8
1
  6
DASHED
  10
17.517
  20
38.083
  30
0.000
  0
VERTEX
  8
1
  6
DASHED
  10
17.617
  20
37.950
  30
0.000
  0
VERTEX
  8
1
  6
DASHED
  10
17.717
  20
37.867
  30
0.000
  0
VERTEX
  8
1
  6
DASHED
  10
17.817
  20
37.883
  30
0.000
  0
VERTEX
  8
1
  6
DASHED
  10
17.917
  20
37.983
  30
0.000
  0
VERTEX
  8
1
  6
DASHED
  10
18.017
  20
38.133
  30
0.000
  0
VERTEX
  8
1
  6
DASHED
  10
18.117
  20
38.317
  30
0.000
  0
VERTEX
  8
1
  6
DASHED
  10
18.233
  20
38.500
  30
0.000
  0
VERTEX
  8
1
  6
DASHED
  10
18.333
  20
38.700
  30
0.000
  0
VERTEX
  8
1
  6
DASHED
  10
18.433
  20
38.867
  30
0.000
  0
VERTEX
  8
1
  6
DASHED
  10
18.533
  20
39.000
  30
0.000
  0
VERTEX
  8
1
  6
DASHED
  10
18.633
  20
39.033
  30
0.000
  0
VERTEX
  8
1
  6
DASHED
  10
18.733
  20
38.967
  30
0.000
  0
VERTEX
  8
1
  6
DASHED
  10
18.850
  20
38.783
  30
0.000
  0
VERTEX
  8
1
  6
DASHED
  10
18.950
  20
38.533
  30
0.000
  0
VERTEX
  8
1
  6
DASHED
  10
19.050
  20
38.300
  30
0.000
  0
VERTEX
  8
1
  6
DASHED
  10
19.150
  20
38.100
  30
0.000
  0
VERTEX
  8
1
  6
DASHED
  10
19.250
  20
37.967
  30
0.000
  0
VERTEX
  8
1
  6
DASHED
  10
19.350
  20
37.883
  30
0.000
  0
VERTEX
  8
1
  6
DASHED
  10
19.450
  20
37.833
  30
0.000
  0
VERTEX
  8
1
  6
DASHED
  10
19.567
  20
37.767
  30
0.000
  0
VERTEX
  8
1
  6
DASHED
  10
19.667
  20
37.700
  30
0.000
  0
VERTEX
  8
1
  6
DASHED
  10
19.767
  20
37.667
  30
0.000
  0
VERTEX
  8
1
  6
DASHED
  10
19.867
  20
37.650
  30
0.000
  0
VERTEX
  8
1
  6
DASHED
  10
19.967
  20
37.667
  30
0.000
  0
VERTEX
  8
1
  6
DASHED
  10
20.067
  20
37.733
  30
0.000
  0
VERTEX
  8
1
  6
DASHED
  10
20.167
  20
37.833
  30
0.000
  0
VERTEX
  8
1
  6
DASHED
  10
20.283
  20
37.967
  30
0.000
  0
VERTEX
  8
1
  6
DASHED
  10
20.383
  20
38.117
  30
0.000
  0
VERTEX
  8
1
  6
DASHED
  10
20.483
  20
38.283
  30
0.000
  0
VERTEX
  8
1
  6
DASHED
  10
20.583
  20
38.467
  30
0.000
  0
VERTEX
  8
1
  6
DASHED
  10
20.683
  20
38.600
  30
0.000
  0
VERTEX
  8
1
  6
DASHED
  10
20.783
  20
38.633
  30
0.000
  0
VERTEX
  8
1
  6
DASHED
  10
20.900
  20
38.550
  30
0.000
  0
VERTEX
  8
1
  6
DASHED
  10
21.000
  20
38.383
  30
0.000
  0
VERTEX
  8
1
  6
DASHED
  10
21.100
  20
38.233
  30
0.000
  0
VERTEX
  8
1
  6
DASHED
  10
21.200
  20
38.150
  30
0.000
  0
VERTEX
  8
1
  6
DASHED
  10
21.300
  20
38.133
  30
0.000
  0
VERTEX
  8
1
  6
DASHED
  10
21.400
  20
38.183
  30
0.000
  0
VERTEX
  8
1
  6
DASHED
  10
21.500
  20
38.283
  30
0.000
  0
VERTEX
  8
1
  6
DASHED
  10
21.617
  20
38.433
  30
0.000
  0
VERTEX
  8
1
  6
DASHED
  10
21.717
  20
38.600
  30
0.000
  0
VERTEX
  8
1
  6
DASHED
  10
21.817
  20
38.733
  30
0.000
  0
VERTEX
  8
1
  6
DASHED
  10
21.917
  20
38.800
  30
0.000
  0
VERTEX
  8
1
  6
DASHED
  10
22.017
  20
38.767
  30
0.000
  0
VERTEX
  8
1
  6
DASHED
  10
22.117
  20
38.633
  30
0.000
  0
VERTEX
  8
1
  6
DASHED
  10
22.233
  20
38.400
  30
0.000
  0
VERTEX
  8
1
  6
DASHED
  10
22.333
  20
38.100
  30
0.000
  0
VERTEX
  8
1
  6
DASHED
  10
22.433
  20
37.800
  30
0.000
  0
VERTEX
  8
1
  6
DASHED
  10
22.533
  20
37.517
  30
0.000
  0
VERTEX
  8
1
  6
DASHED
  10
22.633
  20
37.317
  30
0.000
  0
VERTEX
  8
1
  6
DASHED
  10
22.733
  20
37.233
  30
0.000
  0
VERTEX
  8
1
  6
DASHED
  10
22.833
  20
37.317
  30
0.000
  0
VERTEX
  8
1
  6
DASHED
  10
22.950
  20
37.567
  30
0.000
  0
VERTEX
  8
1
  6
DASHED
  10
23.050
  20
37.950
  30
0.000
  0
VERTEX
  8
1
  6
DASHED
  10
23.150
  20
38.333
  30
0.000
  0
VERTEX
  8
1
  6
DASHED
  10
23.250
  20
38.633
  30
0.000
  0
VERTEX
  8
1
  6
DASHED
  10
23.350
  20
38.783
  30
0.000
  0
VERTEX
  8
1
  6
DASHED
  10
23.450
  20
38.783
  30
0.000
  0
VERTEX
  8
1
  6
DASHED
  10
23.567
  20
38.650
  30
0.000
  0
VERTEX
  8
1
  6
DASHED
  10
23.667
  20
38.467
  30
0.000
  0
VERTEX
  8
1
  6
DASHED
  10
23.767
  20
38.283
  30
0.000
  0
VERTEX
  8
1
  6
DASHED
  10
23.867
  20
38.200
  30
0.000
  0
VERTEX
  8
1
  6
DASHED
  10
23.967
  20
38.267
  30
0.000
  0
VERTEX
  8
1
  6
DASHED
  10
24.067
  20
38.450
  30
0.000
  0
VERTEX
  8
1
  6
DASHED
  10
24.167
  20
38.700
  30
0.000
  0
VERTEX
  8
1
  6
DASHED
  10
24.283
  20
38.933
  30
0.000
  0
VERTEX
  8
1
  6
DASHED
  10
24.383
  20
39.083
  30
0.000
  0
VERTEX
  8
1
  6
DASHED
  10
24.483
  20
39.100
  30
0.000
  0
VERTEX
  8
1
  6
DASHED
  10
24.583
  20
38.967
  30
0.000
  0
VERTEX
  8
1
  6
DASHED
  10
24.683
  20
38.683
  30
0.000
  0
VERTEX
  8
1
  6
DASHED
  10
24.783
  20
38.300
  30
0.000
  0
VERTEX
  8
1
  6
DASHED
  10
24.883
  20
37.850
  30
0.000
  0
VERTEX
  8
1
  6
DASHED
  10
25.000
  20
37.450
  30
0.000
  0
VERTEX
  8
1
  6
DASHED
  10
25.100
  20
37.150
  30
0.000
  0
VERTEX
  8
1
  6
DASHED
  10
25.200
  20
37.033
  30
0.000
  0
VERTEX
  8
1
  6
DASHED
  10
25.300
  20
37.067
  30
0.000
  0
VERTEX
  8
1
  6
DASHED
  10
25.400
  20
37.233
  30
0.000
  0
VERTEX
  8
1
  6
DASHED
  10
25.500
  20
37.450
  30
0.000
  0
VERTEX
  8
1
  6
DASHED
  10
25.617
  20
37.667
  30
0.000
  0
VERTEX
  8
1
  6
DASHED
  10
25.717
  20
37.850
  30
0.000
  0
VERTEX
  8
1
  6
DASHED
  10
25.817
  20
38.000
  30
0.000
  0
VERTEX
  8
1
  6
DASHED
  10
25.917
  20
38.183
  30
0.000
  0
VERTEX
  8
1
  6
DASHED
  10
26.017
  20
38.367
  30
0.000
  0
VERTEX
  8
1
  6
DASHED
  10
26.117
  20
38.550
  30
0.000
  0
VERTEX
  8
1
  6
DASHED
  10
26.217
  20
38.700
  30
0.000
  0
VERTEX
  8
1
  6
DASHED
  10
26.333
  20
38.817
  30
0.000
  0
VERTEX
  8
1
  6
DASHED
  10
26.433
  20
38.967
  30
0.000
  0
VERTEX
  8
1
  6
DASHED
  10
26.533
  20
39.100
  30
0.000
  0
VERTEX
  8
1
  6
DASHED
  10
26.633
  20
39.233
  30
0.000
  0
VERTEX
  8
1
  6
DASHED
  10
26.733
  20
39.283
  30
0.000
  0
VERTEX
  8
1
  6
DASHED
  10
26.833
  20
39.267
  30
0.000
  0
VERTEX
  8
1
  6
DASHED
  10
26.950
  20
39.133
  30
0.000
  0
VERTEX
  8
1
  6
DASHED
  10
27.050
  20
38.883
  30
0.000
  0
VERTEX
  8
1
  6
DASHED
  10
27.150
  20
38.533
  30
0.000
  0
VERTEX
  8
1
  6
DASHED
  10
27.250
  20
38.183
  30
0.000
  0
VERTEX
  8
1
  6
DASHED
  10
27.350
  20
37.933
  30
0.000
  0
VERTEX
  8
1
  6
DASHED
  10
27.450
  20
37.783
  30
0.000
  0
VERTEX
  8
1
  6
DASHED
  10
27.550
  20
37.700
  30
0.000
  0
VERTEX
  8
1
  6
DASHED
  10
27.667
  20
37.667
  30
0.000
  0
VERTEX
  8
1
  6
DASHED
  10
27.767
  20
37.633
  30
0.000
  0
VERTEX
  8
1
  6
DASHED
  10
27.867
  20
37.583
  30
0.000
  0
VERTEX
  8
1
  6
DASHED
  10
27.967
  20
37.450
  30
0.000
  0
VERTEX
  8
1
  6
DASHED
  10
28.067
  20
37.283
  30
0.000
  0
VERTEX
  8
1
  6
DASHED
  10
28.167
  20
37.150
  30
0.000
  0
VERTEX
  8
1
  6
DASHED
  10
28.267
  20
37.133
  30
0.000
  0
VERTEX
  8
1
  6
DASHED
  10
28.383
  20
37.217
  30
0.000
  0
VERTEX
  8
1
  6
DASHED
  10
28.483
  20
37.433
  30
0.000
  0
VERTEX
  8
1
  6
DASHED
  10
28.583
  20
37.683
  30
0.000
  0
VERTEX
  8
1
  6
DASHED
  10
28.683
  20
37.917
  30
0.000
  0
VERTEX
  8
1
  6
DASHED
  10
28.783
  20
38.117
  30
0.000
  0
VERTEX
  8
1
  6
DASHED
  10
28.883
  20
38.267
  30
0.000
  0
VERTEX
  8
1
  6
DASHED
  10
29.000
  20
38.350
  30
0.000
  0
VERTEX
  8
1
  6
DASHED
  10
29.100
  20
38.383
  30
0.000
  0
VERTEX
  8
1
  6
DASHED
  10
29.200
  20
38.433
  30
0.000
  0
VERTEX
  8
1
  6
DASHED
  10
29.300
  20
38.550
  30
0.000
  0
VERTEX
  8
1
  6
DASHED
  10
29.400
  20
38.733
  30
0.000
  0
VERTEX
  8
1
  6
DASHED
  10
29.500
  20
38.967
  30
0.000
  0
VERTEX
  8
1
  6
DASHED
  10
29.600
  20
39.217
  30
0.000
  0
VERTEX
  8
1
  6
DASHED
  10
29.717
  20
39.417
  30
0.000
  0
VERTEX
  8
1
  6
DASHED
  10
29.817
  20
39.467
  30
0.000
  0
VERTEX
  8
1
  6
DASHED
  10
29.917
  20
39.283
  30
0.000
  0
VERTEX
  8
1
  6
DASHED
  10
30.017
  20
38.800
  30
0.000
  0
VERTEX
  8
1
  6
DASHED
  10
30.117
  20
37.983
  30
0.000
  0
VERTEX
  8
1
  6
DASHED
  10
30.217
  20
36.950
  30
0.000
  0
VERTEX
  8
1
  6
DASHED
  10
30.333
  20
35.850
  30
0.000
  0
VERTEX
  8
1
  6
DASHED
  10
30.433
  20
35.050
  30
0.000
  0
VERTEX
  8
1
  6
DASHED
  10
30.533
  20
34.633
  30
0.000
  0
VERTEX
  8
1
  6
DASHED
  10
30.633
  20
34.267
  30
0.000
  0
VERTEX
  8
1
  6
DASHED
  10
30.733
  20
33.933
  30
0.000
  0
VERTEX
  8
1
  6
DASHED
  10
30.833
  20
33.683
  30
0.000
  0
VERTEX
  8
1
  6
DASHED
  10
30.933
  20
33.783
  30
0.000
  0
VERTEX
  8
1
  6
DASHED
  10
31.050
  20
34.367
  30
0.000
  0
VERTEX
  8
1
  6
DASHED
  10
31.150
  20
35.400
  30
0.000
  0
VERTEX
  8
1
  6
DASHED
  10
31.250
  20
36.983
  30
0.000
  0
VERTEX
  8
1
  6
DASHED
  10
31.350
  20
39.300
  30
0.000
  0
VERTEX
  8
1
  6
DASHED
  10
31.450
  20
42.033
  30
0.000
  0
VERTEX
  8
1
  6
DASHED
  10
31.550
  20
44.433
  30
0.000
  0
VERTEX
  8
1
  6
DASHED
  10
31.667
  20
46.433
  30
0.000
  0
VERTEX
  8
1
  6
DASHED
  10
31.767
  20
48.067
  30
0.000
  0
VERTEX
  8
1
  6
DASHED
  10
31.867
  20
49.700
  30
0.000
  0
VERTEX
  8
1
  6
DASHED
  10
31.967
  20
51.700
  30
0.000
  0
VERTEX
  8
1
  6
DASHED
  10
32.067
  20
53.667
  30
0.000
  0
VERTEX
  8
1
  6
DASHED
  10
32.167
  20
55.383
  30
0.000
  0
VERTEX
  8
1
  6
DASHED
  10
32.267
  20
56.650
  30
0.000
  0
VERTEX
  8
1
  6
DASHED
  10
32.383
  20
57.383
  30
0.000
  0
VERTEX
  8
1
  6
DASHED
  10
32.483
  20
57.567
  30
0.000
  0
VERTEX
  8
1
  6
DASHED
  10
32.583
  20
57.167
  30
0.000
  0
VERTEX
  8
1
  6
DASHED
  10
32.683
  20
56.233
  30
0.000
  0
VERTEX
  8
1
  6
DASHED
  10
32.783
  20
55.050
  30
0.000
  0
VERTEX
  8
1
  6
DASHED
  10
32.883
  20
53.517
  30
0.000
  0
VERTEX
  8
1
  6
DASHED
  10
32.983
  20
51.333
  30
0.000
  0
VERTEX
  8
1
  6
DASHED
  10
33.100
  20
48.767
  30
0.000
  0
VERTEX
  8
1
  6
DASHED
  10
33.200
  20
45.967
  30
0.000
  0
VERTEX
  8
1
  6
DASHED
  10
33.300
  20
42.950
  30
0.000
  0
VERTEX
  8
1
  6
DASHED
  10
33.400
  20
39.867
  30
0.000
  0
VERTEX
  8
1
  6
DASHED
  10
33.500
  20
37.000
  30
0.000
  0
VERTEX
  8
1
  6
DASHED
  10
33.600
  20
34.533
  30
0.000
  0
VERTEX
  8
1
  6
DASHED
  10
33.717
  20
32.733
  30
0.000
  0
VERTEX
  8
1
  6
DASHED
  10
33.817
  20
31.533
  30
0.000
  0
VERTEX
  8
1
  6
DASHED
  10
33.917
  20
30.433
  30
0.000
  0
VERTEX
  8
1
  6
DASHED
  10
34.017
  20
29.433
  30
0.000
  0
VERTEX
  8
1
  6
DASHED
  10
34.117
  20
28.517
  30
0.000
  0
VERTEX
  8
1
  6
DASHED
  10
34.217
  20
27.633
  30
0.000
  0
VERTEX
  8
1
  6
DASHED
  10
34.317
  20
26.800
  30
0.000
  0
VERTEX
  8
1
  6
DASHED
  10
34.433
  20
26.000
  30
0.000
  0
VERTEX
  8
1
  6
DASHED
  10
34.533
  20
25.250
  30
0.000
  0
VERTEX
  8
1
  6
DASHED
  10
34.633
  20
24.250
  30
0.000
  0
VERTEX
  8
1
  6
DASHED
  10
34.733
  20
22.517
  30
0.000
  0
VERTEX
  8
1
  6
DASHED
  10
34.833
  20
20.367
  30
0.000
  0
VERTEX
  8
1
  6
DASHED
  10
34.933
  20
18.533
  30
0.000
  0
VERTEX
  8
1
  6
DASHED
  10
35.050
  20
17.117
  30
0.000
  0
VERTEX
  8
1
  6
DASHED
  10
35.150
  20
16.083
  30
0.000
  0
VERTEX
  8
1
  6
DASHED
  10
35.250
  20
15.467
  30
0.000
  0
VERTEX
  8
1
  6
DASHED
  10
35.350
  20
15.933
  30
0.000
  0
VERTEX
  8
1
  6
DASHED
  10
35.450
  20
18.450
  30
0.000
  0
VERTEX
  8
1
  6
DASHED
  10
35.550
  20
21.650
  30
0.000
  0
VERTEX
  8
1
  6
DASHED
  10
35.650
  20
24.767
  30
0.000
  0
VERTEX
  8
1
  6
DASHED
  10
35.767
  20
27.767
  30
0.000
  0
VERTEX
  8
1
  6
DASHED
  10
35.867
  20
30.683
  30
0.000
  0
VERTEX
  8
1
  6
DASHED
  10
35.967
  20
33.683
  30
0.000
  0
VERTEX
  8
1
  6
DASHED
  10
36.067
  20
37.267
  30
0.000
  0
VERTEX
  8
1
  6
DASHED
  10
36.167
  20
41.433
  30
0.000
  0
VERTEX
  8
1
  6
DASHED
  10
36.267
  20
45.383
  30
0.000
  0
VERTEX
  8
1
  6
DASHED
  10
36.383
  20
48.600
  30
0.000
  0
VERTEX
  8
1
  6
DASHED
  10
36.483
  20
50.950
  30
0.000
  0
VERTEX
  8
1
  6
DASHED
  10
36.583
  20
52.500
  30
0.000
  0
VERTEX
  8
1
  6
DASHED
  10
36.683
  20
54.133
  30
0.000
  0
VERTEX
  8
1
  6
DASHED
  10
36.783
  20
55.967
  30
0.000
  0
VERTEX
  8
1
  6
DASHED
  10
36.883
  20
57.800
  30
0.000
  0
VERTEX
  8
1
  6
DASHED
  10
36.983
  20
59.350
  30
0.000
  0
VERTEX
  8
1
  6
DASHED
  10
37.100
  20
59.283
  30
0.000
  0
VERTEX
  8
1
  6
DASHED
  10
37.200
  20
58.083
  30
0.000
  0
VERTEX
  8
1
  6
DASHED
  10
37.300
  20
57.983
  30
0.000
  0
VERTEX
  8
1
  6
DASHED
  10
37.400
  20
57.867
  30
0.000
  0
VERTEX
  8
1
  6
DASHED
  10
37.500
  20
57.017
  30
0.000
  0
VERTEX
  8
1
  6
DASHED
  10
37.600
  20
55.567
  30
0.000
  0
VERTEX
  8
1
  6
DASHED
  10
37.700
  20
53.567
  30
0.000
  0
VERTEX
  8
1
  6
DASHED
  10
37.817
  20
51.150
  30
0.000
  0
VERTEX
  8
1
  6
DASHED
  10
37.917
  20
48.433
  30
0.000
  0
VERTEX
  8
1
  6
DASHED
  10
38.017
  20
45.733
  30
0.000
  0
VERTEX
  8
1
  6
DASHED
  10
38.117
  20
43.033
  30
0.000
  0
VERTEX
  8
1
  6
DASHED
  10
38.217
  20
40.000
  30
0.000
  0
VERTEX
  8
1
  6
DASHED
  10
38.317
  20
36.433
  30
0.000
  0
VERTEX
  8
1
  6
DASHED
  10
38.433
  20
33.067
  30
0.000
  0
VERTEX
  8
1
  6
DASHED
  10
38.533
  20
30.700
  30
0.000
  0
VERTEX
  8
1
  6
DASHED
  10
38.633
  20
29.067
  30
0.000
  0
VERTEX
  8
1
  6
DASHED
  10
38.733
  20
28.150
  30
0.000
  0
VERTEX
  8
1
  6
DASHED
  10
38.833
  20
28.083
  30
0.000
  0
VERTEX
  8
1
  6
DASHED
  10
38.933
  20
28.250
  30
0.000
  0
VERTEX
  8
1
  6
DASHED
  10
39.033
  20
28.550
  30
0.000
  0
VERTEX
  8
1
  6
DASHED
  10
39.150
  20
28.967
  30
0.000
  0
VERTEX
  8
1
  6
DASHED
  10
39.250
  20
29.533
  30
0.000
  0
VERTEX
  8
1
  6
DASHED
  10
39.350
  20
30.233
  30
0.000
  0
VERTEX
  8
1
  6
DASHED
  10
39.450
  20
31.050
  30
0.000
  0
VERTEX
  8
1
  6
DASHED
  10
39.550
  20
31.933
  30
0.000
  0
VERTEX
  8
1
  6
DASHED
  10
39.650
  20
32.800
  30
0.000
  0
VERTEX
  8
1
  6
DASHED
  10
39.767
  20
33.600
  30
0.000
  0
VERTEX
  8
1
  6
DASHED
  10
39.867
  20
34.300
  30
0.000
  0
VERTEX
  8
1
  6
DASHED
  10
39.967
  20
34.867
  30
0.000
  0
VERTEX
  8
1
  6
DASHED
  10
40.067
  20
35.283
  30
0.000
  0
VERTEX
  8
1
  6
DASHED
  10
40.167
  20
35.583
  30
0.000
  0
VERTEX
  8
1
  6
DASHED
  10
40.267
  20
35.750
  30
0.000
  0
VERTEX
  8
1
  6
DASHED
  10
40.367
  20
35.850
  30
0.000
  0
VERTEX
  8
1
  6
DASHED
  10
40.483
  20
35.883
  30
0.000
  0
VERTEX
  8
1
  6
DASHED
  10
40.583
  20
35.833
  30
0.000
  0
VERTEX
  8
1
  6
DASHED
  10
40.683
  20
35.717
  30
0.000
  0
VERTEX
  8
1
  6
DASHED
  10
40.783
  20
35.533
  30
0.000
  0
VERTEX
  8
1
  6
DASHED
  10
40.883
  20
35.267
  30
0.000
  0
VERTEX
  8
1
  6
DASHED
  10
40.983
  20
34.950
  30
0.000
  0
VERTEX
  8
1
  6
DASHED
  10
41.083
  20
34.567
  30
0.000
  0
VERTEX
  8
1
  6
DASHED
  10
41.200
  20
34.117
  30
0.000
  0
VERTEX
  8
1
  6
DASHED
  10
41.300
  20
33.617
  30
0.000
  0
VERTEX
  8
1
  6
DASHED
  10
41.400
  20
33.067
  30
0.000
  0
VERTEX
  8
1
  6
DASHED
  10
41.500
  20
32.517
  30
0.000
  0
VERTEX
  8
1
  6
DASHED
  10
41.600
  20
31.967
  30
0.000
  0
VERTEX
  8
1
  6
DASHED
  10
41.700
  20
31.500
  30
0.000
  0
VERTEX
  8
1
  6
DASHED
  10
41.817
  20
31.117
  30
0.000
  0
VERTEX
  8
1
  6
DASHED
  10
41.917
  20
30.867
  30
0.000
  0
VERTEX
  8
1
  6
DASHED
  10
42.017
  20
30.783
  30
0.000
  0
VERTEX
  8
1
  6
DASHED
  10
42.117
  20
30.850
  30
0.000
  0
VERTEX
  8
1
  6
DASHED
  10
42.217
  20
31.100
  30
0.000
  0
VERTEX
  8
1
  6
DASHED
  10
42.317
  20
31.500
  30
0.000
  0
VERTEX
  8
1
  6
DASHED
  10
42.417
  20
32.067
  30
0.000
  0
VERTEX
  8
1
  6
DASHED
  10
42.533
  20
32.817
  30
0.000
  0
VERTEX
  8
1
  6
DASHED
  10
42.633
  20
33.650
  30
0.000
  0
VERTEX
  8
1
  6
DASHED
  10
42.733
  20
34.567
  30
0.000
  0
VERTEX
  8
1
  6
DASHED
  10
42.833
  20
35.600
  30
0.000
  0
VERTEX
  8
1
  6
DASHED
  10
42.933
  20
36.733
  30
0.000
  0
VERTEX
  8
1
  6
DASHED
  10
43.033
  20
38.000
  30
0.000
  0
VERTEX
  8
1
  6
DASHED
  10
43.150
  20
39.317
  30
0.000
  0
VERTEX
  8
1
  6
DASHED
  10
43.250
  20
40.550
  30
0.000
  0
VERTEX
  8
1
  6
DASHED
  10
43.350
  20
41.483
  30
0.000
  0
VERTEX
  8
1
  6
DASHED
  10
43.450
  20
41.933
  30
0.000
  0
VERTEX
  8
1
  6
DASHED
  10
43.550
  20
42.150
  30
0.000
  0
VERTEX
  8
1
  6
DASHED
  10
43.650
  20
42.400
  30
0.000
  0
VERTEX
  8
1
  6
DASHED
  10
43.750
  20
42.700
  30
0.000
  0
VERTEX
  8
1
  6
DASHED
  10
43.867
  20
43.033
  30
0.000
  0
VERTEX
  8
1
  6
DASHED
  10
43.967
  20
43.400
  30
0.000
  0
VERTEX
  8
1
  6
DASHED
  10
44.067
  20
43.750
  30
0.000
  0
VERTEX
  8
1
  6
DASHED
  10
44.167
  20
44.100
  30
0.000
  0
VERTEX
  8
1
  6
DASHED
  10
44.267
  20
44.433
  30
0.000
  0
VERTEX
  8
1
  6
DASHED
  10
44.367
  20
44.733
  30
0.000
  0
VERTEX
  8
1
  6
DASHED
  10
44.483
  20
45.017
  30
0.000
  0
VERTEX
  8
1
  6
DASHED
  10
44.583
  20
45.250
  30
0.000
  0
VERTEX
  8
1
  6
DASHED
  10
44.683
  20
45.367
  30
0.000
  0
VERTEX
  8
1
  6
DASHED
  10
44.783
  20
45.317
  30
0.000
  0
VERTEX
  8
1
  6
DASHED
  10
44.883
  20
45.083
  30
0.000
  0
VERTEX
  8
1
  6
DASHED
  10
44.983
  20
44.733
  30
0.000
  0
VERTEX
  8
1
  6
DASHED
  10
45.083
  20
44.267
  30
0.000
  0
VERTEX
  8
1
  6
DASHED
  10
45.200
  20
43.750
  30
0.000
  0
VERTEX
  8
1
  6
DASHED
  10
45.300
  20
43.233
  30
0.000
  0
VERTEX
  8
1
  6
DASHED
  10
45.400
  20
42.750
  30
0.000
  0
VERTEX
  8
1
  6
DASHED
  10
45.500
  20
42.383
  30
0.000
  0
VERTEX
  8
1
  6
DASHED
  10
45.600
  20
42.183
  30
0.000
  0
VERTEX
  8
1
  6
DASHED
  10
45.700
  20
42.200
  30
0.000
  0
VERTEX
  8
1
  6
DASHED
  10
45.800
  20
42.467
  30
0.000
  0
VERTEX
  8
1
  6
DASHED
  10
45.917
  20
42.983
  30
0.000
  0
VERTEX
  8
1
  6
DASHED
  10
46.017
  20
43.800
  30
0.000
  0
VERTEX
  8
1
  6
DASHED
  10
46.117
  20
44.883
  30
0.000
  0
VERTEX
  8
1
  6
DASHED
  10
46.217
  20
46.200
  30
0.000
  0
VERTEX
  8
1
  6
DASHED
  10
46.317
  20
47.850
  30
0.000
  0
VERTEX
  8
1
  6
DASHED
  10
46.417
  20
50.533
  30
0.000
  0
VERTEX
  8
1
  6
DASHED
  10
46.533
  20
53.017
  30
0.000
  0
VERTEX
  8
1
  6
DASHED
  10
46.633
  20
54.600
  30
0.000
  0
VERTEX
  8
1
  6
DASHED
  10
46.733
  20
55.250
  30
0.000
  0
VERTEX
  8
1
  6
DASHED
  10
46.833
  20
54.117
  30
0.000
  0
VERTEX
  8
1
  6
DASHED
  10
46.933
  20
51.183
  30
0.000
  0
VERTEX
  8
1
  6
DASHED
  10
47.033
  20
47.633
  30
0.000
  0
VERTEX
  8
1
  6
DASHED
  10
47.133
  20
43.667
  30
0.000
  0
VERTEX
  8
1
  6
DASHED
  10
47.250
  20
39.483
  30
0.000
  0
VERTEX
  8
1
  6
DASHED
  10
47.350
  20
35.417
  30
0.000
  0
VERTEX
  8
1
  6
DASHED
  10
47.450
  20
32.133
  30
0.000
  0
VERTEX
  8
1
  6
DASHED
  10
47.550
  20
30.267
  30
0.000
  0
VERTEX
  8
1
  6
DASHED
  10
47.650
  20
29.433
  30
0.000
  0
VERTEX
  8
1
  6
DASHED
  10
47.750
  20
29.633
  30
0.000
  0
VERTEX
  8
1
  6
DASHED
  10
47.867
  20
30.650
  30
0.000
  0
VERTEX
  8
1
  6
DASHED
  10
47.967
  20
31.750
  30
0.000
  0
VERTEX
  8
1
  6
DASHED
  10
48.067
  20
32.617
  30
0.000
  0
VERTEX
  8
1
  6
DASHED
  10
48.167
  20
33.167
  30
0.000
  0
VERTEX
  8
1
  6
DASHED
  10
48.267
  20
33.267
  30
0.000
  0
VERTEX
  8
1
  6
DASHED
  10
48.367
  20
33.117
  30
0.000
  0
VERTEX
  8
1
  6
DASHED
  10
48.467
  20
32.767
  30
0.000
  0
VERTEX
  8
1
  6
DASHED
  10
48.583
  20
32.233
  30
0.000
  0
VERTEX
  8
1
  6
DASHED
  10
48.683
  20
31.433
  30
0.000
  0
VERTEX
  8
1
  6
DASHED
  10
48.783
  20
30.400
  30
0.000
  0
VERTEX
  8
1
  6
DASHED
  10
48.883
  20
29.167
  30
0.000
  0
VERTEX
  8
1
  6
DASHED
  10
48.983
  20
27.783
  30
0.000
  0
VERTEX
  8
1
  6
DASHED
  10
49.083
  20
26.350
  30
0.000
  0
VERTEX
  8
1
  6
DASHED
  10
49.200
  20
24.950
  30
0.000
  0
VERTEX
  8
1
  6
DASHED
  10
49.300
  20
23.650
  30
0.000
  0
VERTEX
  8
1
  6
DASHED
  10
49.400
  20
22.583
  30
0.000
  0
VERTEX
  8
1
  6
DASHED
  10
49.500
  20
21.833
  30
0.000
  0
VERTEX
  8
1
  6
DASHED
  10
49.600
  20
21.550
  30
0.000
  0
VERTEX
  8
1
  6
DASHED
  10
49.700
  20
21.933
  30
0.000
  0
VERTEX
  8
1
  6
DASHED
  10
49.800
  20
22.883
  30
0.000
  0
VERTEX
  8
1
  6
DASHED
  10
49.917
  20
24.267
  30
0.000
  0
VERTEX
  8
1
  6
DASHED
  10
50.017
  20
26.033
  30
0.000
  0
VERTEX
  8
1
  6
DASHED
  10
50.117
  20
28.100
  30
0.000
  0
VERTEX
  8
1
  6
DASHED
  10
50.217
  20
30.333
  30
0.000
  0
VERTEX
  8
1
  6
DASHED
  10
50.317
  20
32.750
  30
0.000
  0
VERTEX
  8
1
  6
DASHED
  10
50.417
  20
35.533
  30
0.000
  0
VERTEX
  8
1
  6
DASHED
  10
50.517
  20
38.417
  30
0.000
  0
VERTEX
  8
1
  6
DASHED
  10
50.633
  20
40.967
  30
0.000
  0
VERTEX
  8
1
  6
DASHED
  10
50.733
  20
42.733
  30
0.000
  0
VERTEX
  8
1
  6
DASHED
  10
50.833
  20
43.700
  30
0.000
  0
VERTEX
  8
1
  6
DASHED
  10
50.933
  20
44.417
  30
0.000
  0
VERTEX
  8
1
  6
DASHED
  10
51.033
  20
45.050
  30
0.000
  0
VERTEX
  8
1
  6
DASHED
  10
51.133
  20
45.583
  30
0.000
  0
VERTEX
  8
1
  6
DASHED
  10
51.250
  20
46.067
  30
0.000
  0
VERTEX
  8
1
  6
DASHED
  10
51.350
  20
46.500
  30
0.000
  0
VERTEX
  8
1
  6
DASHED
  10
51.450
  20
46.867
  30
0.000
  0
VERTEX
  8
1
  6
DASHED
  10
51.550
  20
47.183
  30
0.000
  0
VERTEX
  8
1
  6
DASHED
  10
51.650
  20
47.417
  30
0.000
  0
VERTEX
  8
1
  6
DASHED
  10
51.750
  20
47.483
  30
0.000
  0
VERTEX
  8
1
  6
DASHED
  10
51.850
  20
47.367
  30
0.000
  0
VERTEX
  8
1
  6
DASHED
  10
51.967
  20
47.067
  30
0.000
  0
VERTEX
  8
1
  6
DASHED
  10
52.067
  20
46.533
  30
0.000
  0
VERTEX
  8
1
  6
DASHED
  10
52.167
  20
45.767
  30
0.000
  0
VERTEX
  8
1
  6
DASHED
  10
52.267
  20
44.717
  30
0.000
  0
VERTEX
  8
1
  6
DASHED
  10
52.367
  20
43.333
  30
0.000
  0
VERTEX
  8
1
  6
DASHED
  10
52.467
  20
41.667
  30
0.000
  0
VERTEX
  8
1
  6
DASHED
  10
52.583
  20
39.883
  30
0.000
  0
VERTEX
  8
1
  6
DASHED
  10
52.683
  20
38.250
  30
0.000
  0
VERTEX
  8
1
  6
DASHED
  10
52.783
  20
37.117
  30
0.000
  0
VERTEX
  8
1
  6
DASHED
  10
52.883
  20
36.867
  30
0.000
  0
VERTEX
  8
1
  6
DASHED
  10
52.983
  20
37.300
  30
0.000
  0
VERTEX
  8
1
  6
DASHED
  10
53.083
  20
38.167
  30
0.000
  0
VERTEX
  8
1
  6
DASHED
  10
53.183
  20
39.267
  30
0.000
  0
VERTEX
  8
1
  6
DASHED
  10
53.300
  20
40.417
  30
0.000
  0
VERTEX
  8
1
  6
DASHED
  10
53.400
  20
41.450
  30
0.000
  0
VERTEX
  8
1
  6
DASHED
  10
53.500
  20
42.500
  30
0.000
  0
VERTEX
  8
1
  6
DASHED
  10
53.600
  20
43.550
  30
0.000
  0
VERTEX
  8
1
  6
DASHED
  10
53.700
  20
44.533
  30
0.000
  0
VERTEX
  8
1
  6
DASHED
  10
53.800
  20
45.383
  30
0.000
  0
VERTEX
  8
1
  6
DASHED
  10
53.900
  20
46.067
  30
0.000
  0
VERTEX
  8
1
  6
DASHED
  10
54.017
  20
46.600
  30
0.000
  0
VERTEX
  8
1
  6
DASHED
  10
54.117
  20
47.000
  30
0.000
  0
VERTEX
  8
1
  6
DASHED
  10
54.217
  20
47.300
  30
0.000
  0
VERTEX
  8
1
  6
DASHED
  10
54.317
  20
47.483
  30
0.000
  0
VERTEX
  8
1
  6
DASHED
  10
54.417
  20
47.517
  30
0.000
  0
VERTEX
  8
1
  6
DASHED
  10
54.517
  20
47.350
  30
0.000
  0
VERTEX
  8
1
  6
DASHED
  10
54.633
  20
46.900
  30
0.000
  0
VERTEX
  8
1
  6
DASHED
  10
54.733
  20
46.133
  30
0.000
  0
VERTEX
  8
1
  6
DASHED
  10
54.833
  20
45.083
  30
0.000
  0
VERTEX
  8
1
  6
DASHED
  10
54.933
  20
43.650
  30
0.000
  0
VERTEX
  8
1
  6
DASHED
  10
55.033
  20
41.667
  30
0.000
  0
VERTEX
  8
1
  6
DASHED
  10
55.133
  20
39.283
  30
0.000
  0
VERTEX
  8
1
  6
DASHED
  10
55.233
  20
36.867
  30
0.000
  0
VERTEX
  8
1
  6
DASHED
  10
55.350
  20
34.633
  30
0.000
  0
VERTEX
  8
1
  6
DASHED
  10
55.450
  20
32.883
  30
0.000
  0
VERTEX
  8
1
  6
DASHED
  10
55.550
  20
31.533
  30
0.000
  0
VERTEX
  8
1
  6
DASHED
  10
55.650
  20
30.167
  30
0.000
  0
VERTEX
  8
1
  6
DASHED
  10
55.750
  20
28.767
  30
0.000
  0
VERTEX
  8
1
  6
DASHED
  10
55.850
  20
27.417
  30
0.000
  0
VERTEX
  8
1
  6
DASHED
  10
55.967
  20
26.200
  30
0.000
  0
VERTEX
  8
1
  6
DASHED
  10
56.067
  20
25.167
  30
0.000
  0
VERTEX
  8
1
  6
DASHED
  10
56.167
  20
24.450
  30
0.000
  0
VERTEX
  8
1
  6
DASHED
  10
56.267
  20
24.133
  30
0.000
  0
VERTEX
  8
1
  6
DASHED
  10
56.367
  20
24.267
  30
0.000
  0
VERTEX
  8
1
  6
DASHED
  10
56.467
  20
24.800
  30
0.000
  0
VERTEX
  8
1
  6
DASHED
  10
56.567
  20
25.683
  30
0.000
  0
VERTEX
  8
1
  6
DASHED
  10
56.683
  20
26.867
  30
0.000
  0
VERTEX
  8
1
  6
DASHED
  10
56.783
  20
28.250
  30
0.000
  0
VERTEX
  8
1
  6
DASHED
  10
56.883
  20
29.783
  30
0.000
  0
VERTEX
  8
1
  6
DASHED
  10
56.983
  20
31.367
  30
0.000
  0
VERTEX
  8
1
  6
DASHED
  10
57.083
  20
32.900
  30
0.000
  0
VERTEX
  8
1
  6
DASHED
  10
57.183
  20
34.367
  30
0.000
  0
VERTEX
  8
1
  6
DASHED
  10
57.300
  20
35.783
  30
0.000
  0
VERTEX
  8
1
  6
DASHED
  10
57.400
  20
37.150
  30
0.000
  0
VERTEX
  8
1
  6
DASHED
  10
57.500
  20
38.450
  30
0.000
  0
VERTEX
  8
1
  6
DASHED
  10
57.600
  20
39.683
  30
0.000
  0
VERTEX
  8
1
  6
DASHED
  10
57.700
  20
40.783
  30
0.000
  0
VERTEX
  8
1
  6
DASHED
  10
57.800
  20
41.717
  30
0.000
  0
VERTEX
  8
1
  6
DASHED
  10
57.900
  20
42.500
  30
0.000
  0
VERTEX
  8
1
  6
DASHED
  10
58.017
  20
43.267
  30
0.000
  0
VERTEX
  8
1
  6
DASHED
  10
58.117
  20
44.017
  30
0.000
  0
VERTEX
  8
1
  6
DASHED
  10
58.217
  20
44.733
  30
0.000
  0
VERTEX
  8
1
  6
DASHED
  10
58.317
  20
45.400
  30
0.000
  0
VERTEX
  8
1
  6
DASHED
  10
58.417
  20
46.000
  30
0.000
  0
VERTEX
  8
1
  6
DASHED
  10
58.517
  20
46.517
  30
0.000
  0
VERTEX
  8
1
  6
DASHED
  10
58.617
  20
46.917
  30
0.000
  0
VERTEX
  8
1
  6
DASHED
  10
58.733
  20
47.200
  30
0.000
  0
VERTEX
  8
1
  6
DASHED
  10
58.833
  20
47.350
  30
0.000
  0
VERTEX
  8
1
  6
DASHED
  10
58.933
  20
47.300
  30
0.000
  0
VERTEX
  8
1
  6
DASHED
  10
59.033
  20
47.050
  30
0.000
  0
VERTEX
  8
1
  6
DASHED
  10
59.133
  20
46.550
  30
0.000
  0
VERTEX
  8
1
  6
DASHED
  10
59.233
  20
45.817
  30
0.000
  0
VERTEX
  8
1
  6
DASHED
  10
59.350
  20
44.817
  30
0.000
  0
VERTEX
  8
1
  6
DASHED
  10
59.450
  20
43.467
  30
0.000
  0
VERTEX
  8
1
  6
DASHED
  10
59.550
  20
41.750
  30
0.000
  0
VERTEX
  8
1
  6
DASHED
  10
59.650
  20
39.783
  30
0.000
  0
VERTEX
  8
1
  6
DASHED
  10
59.750
  20
37.883
  30
0.000
  0
VERTEX
  8
1
  6
DASHED
  10
59.850
  20
36.167
  30
0.000
  0
VERTEX
  8
1
  6
DASHED
  10
59.950
  20
34.850
  30
0.000
  0
VERTEX
  8
1
  6
DASHED
  10
60.067
  20
34.067
  30
0.000
  0
VERTEX
  8
1
  6
DASHED
  10
60.167
  20
33.667
  30
0.000
  0
VERTEX
  8
1
  6
DASHED
  10
60.267
  20
33.317
  30
0.000
  0
VERTEX
  8
1
  6
DASHED
  10
60.367
  20
33.000
  30
0.000
  0
VERTEX
  8
1
  6
DASHED
  10
60.467
  20
32.700
  30
0.000
  0
VERTEX
  8
1
  6
DASHED
  10
60.567
  20
32.450
  30
0.000
  0
VERTEX
  8
1
  6
DASHED
  10
60.683
  20
32.217
  30
0.000
  0
VERTEX
  8
1
  6
DASHED
  10
60.783
  20
32.017
  30
0.000
  0
VERTEX
  8
1
  6
DASHED
  10
60.883
  20
31.850
  30
0.000
  0
VERTEX
  8
1
  6
DASHED
  10
60.983
  20
31.683
  30
0.000
  0
VERTEX
  8
1
  6
DASHED
  10
61.083
  20
31.550
  30
0.000
  0
VERTEX
  8
1
  6
DASHED
  10
61.183
  20
31.517
  30
0.000
  0
VERTEX
  8
1
  6
DASHED
  10
61.283
  20
31.633
  30
0.000
  0
VERTEX
  8
1
  6
DASHED
  10
61.400
  20
31.967
  30
0.000
  0
VERTEX
  8
1
  6
DASHED
  10
61.500
  20
32.517
  30
0.000
  0
VERTEX
  8
1
  6
DASHED
  10
61.600
  20
33.300
  30
0.000
  0
VERTEX
  8
1
  6
DASHED
  10
61.700
  20
34.367
  30
0.000
  0
VERTEX
  8
1
  6
DASHED
  10
61.800
  20
35.717
  30
0.000
  0
VERTEX
  8
1
  6
DASHED
  10
61.900
  20
37.283
  30
0.000
  0
VERTEX
  8
1
  6
DASHED
  10
62.017
  20
38.833
  30
0.000
  0
VERTEX
  8
1
  6
DASHED
  10
62.117
  20
40.150
  30
0.000
  0
VERTEX
  8
1
  6
DASHED
  10
62.217
  20
41.050
  30
0.000
  0
VERTEX
  8
1
  6
DASHED
  10
62.317
  20
41.450
  30
0.000
  0
VERTEX
  8
1
  6
DASHED
  10
62.417
  20
41.400
  30
0.000
  0
VERTEX
  8
1
  6
DASHED
  10
62.517
  20
41.233
  30
0.000
  0
VERTEX
  8
1
  6
DASHED
  10
62.617
  20
40.967
  30
0.000
  0
VERTEX
  8
1
  6
DASHED
  10
62.733
  20
40.633
  30
0.000
  0
VERTEX
  8
1
  6
DASHED
  10
62.833
  20
40.217
  30
0.000
  0
VERTEX
  8
1
  6
DASHED
  10
62.933
  20
39.717
  30
0.000
  0
VERTEX
  8
1
  6
DASHED
  10
63.033
  20
39.133
  30
0.000
  0
VERTEX
  8
1
  6
DASHED
  10
63.133
  20
38.450
  30
0.000
  0
VERTEX
  8
1
  6
DASHED
  10
63.233
  20
37.683
  30
0.000
  0
VERTEX
  8
1
  6
DASHED
  10
63.333
  20
36.917
  30
0.000
  0
VERTEX
  8
1
  6
DASHED
  10
63.450
  20
36.317
  30
0.000
  0
VERTEX
  8
1
  6
DASHED
  10
63.550
  20
36.067
  30
0.000
  0
VERTEX
  8
1
  6
DASHED
  10
63.650
  20
36.233
  30
0.000
  0
VERTEX
  8
1
  6
DASHED
  10
63.750
  20
36.833
  30
0.000
  0
VERTEX
  8
1
  6
DASHED
  10
63.850
  20
37.767
  30
0.000
  0
VERTEX
  8
1
  6
DASHED
  10
63.950
  20
38.983
  30
0.000
  0
VERTEX
  8
1
  6
DASHED
  10
64.067
  20
40.183
  30
0.000
  0
VERTEX
  8
1
  6
DASHED
  10
64.167
  20
41.067
  30
0.000
  0
VERTEX
  8
1
  6
DASHED
  10
64.267
  20
41.517
  30
0.000
  0
VERTEX
  8
1
  6
DASHED
  10
64.367
  20
41.583
  30
0.000
  0
VERTEX
  8
1
  6
DASHED
  10
64.467
  20
41.550
  30
0.000
  0
VERTEX
  8
1
  6
DASHED
  10
64.567
  20
41.450
  30
0.000
  0
VERTEX
  8
1
  6
DASHED
  10
64.667
  20
41.267
  30
0.000
  0
VERTEX
  8
1
  6
DASHED
  10
64.783
  20
41.017
  30
0.000
  0
VERTEX
  8
1
  6
DASHED
  10
64.883
  20
40.667
  30
0.000
  0
VERTEX
  8
1
  6
DASHED
  10
64.983
  20
40.233
  30
0.000
  0
VERTEX
  8
1
  6
DASHED
  10
65.083
  20
39.683
  30
0.000
  0
VERTEX
  8
1
  6
DASHED
  10
65.183
  20
39.083
  30
0.000
  0
VERTEX
  8
1
  6
DASHED
  10
65.283
  20
38.483
  30
0.000
  0
VERTEX
  8
1
  6
DASHED
  10
65.400
  20
37.983
  30
0.000
  0
VERTEX
  8
1
  6
DASHED
  10
65.500
  20
37.700
  30
0.000
  0
VERTEX
  8
1
  6
DASHED
  10
65.600
  20
37.700
  30
0.000
  0
VERTEX
  8
1
  6
DASHED
  10
65.700
  20
37.917
  30
0.000
  0
VERTEX
  8
1
  6
DASHED
  10
65.800
  20
38.233
  30
0.000
  0
VERTEX
  8
1
  6
DASHED
  10
65.900
  20
38.617
  30
0.000
  0
VERTEX
  8
1
  6
DASHED
  10
66.000
  20
38.983
  30
0.000
  0
VERTEX
  8
1
  6
DASHED
  10
66.117
  20
39.267
  30
0.000
  0
VERTEX
  8
1
  6
DASHED
  10
66.217
  20
39.533
  30
0.000
  0
VERTEX
  8
1
  6
DASHED
  10
66.317
  20
39.767
  30
0.000
  0
VERTEX
  8
1
  6
DASHED
  10
66.417
  20
39.967
  30
0.000
  0
VERTEX
  8
1
  6
DASHED
  10
66.517
  20
40.100
  30
0.000
  0
VERTEX
  8
1
  6
DASHED
  10
66.617
  20
40.133
  30
0.000
  0
VERTEX
  8
1
  6
DASHED
  10
66.717
  20
40.050
  30
0.000
  0
VERTEX
  8
1
  6
DASHED
  10
66.833
  20
39.733
  30
0.000
  0
VERTEX
  8
1
  6
DASHED
  10
66.933
  20
39.117
  30
0.000
  0
VERTEX
  8
1
  6
DASHED
  10
67.033
  20
38.200
  30
0.000
  0
VERTEX
  8
1
  6
DASHED
  10
67.133
  20
37.200
  30
0.000
  0
VERTEX
  8
1
  6
DASHED
  10
67.233
  20
36.433
  30
0.000
  0
VERTEX
  8
1
  6
DASHED
  10
67.333
  20
35.967
  30
0.000
  0
VERTEX
  8
1
  6
DASHED
  10
67.450
  20
35.850
  30
0.000
  0
VERTEX
  8
1
  6
DASHED
  10
67.550
  20
36.083
  30
0.000
  0
VERTEX
  8
1
  6
DASHED
  10
67.650
  20
36.433
  30
0.000
  0
VERTEX
  8
1
  6
DASHED
  10
67.750
  20
36.800
  30
0.000
  0
VERTEX
  8
1
  6
DASHED
  10
67.850
  20
37.217
  30
0.000
  0
VERTEX
  8
1
  6
DASHED
  10
67.950
  20
37.700
  30
0.000
  0
VERTEX
  8
1
  6
DASHED
  10
68.050
  20
38.333
  30
0.000
  0
VERTEX
  8
1
  6
DASHED
  10
68.167
  20
39.117
  30
0.000
  0
VERTEX
  8
1
  6
DASHED
  10
68.267
  20
39.933
  30
0.000
  0
VERTEX
  8
1
  6
DASHED
  10
68.367
  20
40.633
  30
0.000
  0
VERTEX
  8
1
  6
DASHED
  10
68.467
  20
40.933
  30
0.000
  0
VERTEX
  8
1
  6
DASHED
  10
68.567
  20
40.817
  30
0.000
  0
VERTEX
  8
1
  6
DASHED
  10
68.667
  20
40.550
  30
0.000
  0
VERTEX
  8
1
  6
DASHED
  10
68.783
  20
40.150
  30
0.000
  0
VERTEX
  8
1
  6
DASHED
  10
68.883
  20
39.567
  30
0.000
  0
VERTEX
  8
1
  6
DASHED
  10
68.983
  20
38.767
  30
0.000
  0
VERTEX
  8
1
  6
DASHED
  10
69.083
  20
37.733
  30
0.000
  0
VERTEX
  8
1
  6
DASHED
  10
69.183
  20
36.683
  30
0.000
  0
VERTEX
  8
1
  6
DASHED
  10
69.283
  20
35.900
  30
0.000
  0
VERTEX
  8
1
  6
DASHED
  10
69.383
  20
35.517
  30
0.000
  0
VERTEX
  8
1
  6
DASHED
  10
69.500
  20
35.550
  30
0.000
  0
VERTEX
  8
1
  6
DASHED
  10
69.600
  20
35.783
  30
0.000
  0
VERTEX
  8
1
  6
DASHED
  10
69.700
  20
36.033
  30
0.000
  0
VERTEX
  8
1
  6
DASHED
  10
69.800
  20
36.333
  30
0.000
  0
VERTEX
  8
1
  6
DASHED
  10
69.900
  20
36.633
  30
0.000
  0
VERTEX
  8
1
  6
DASHED
  10
70.000
  20
36.967
  30
0.000
  0
VERTEX
  8
1
  6
DASHED
  10
70.117
  20
37.300
  30
0.000
  0
VERTEX
  8
1
  6
DASHED
  10
70.217
  20
37.600
  30
0.000
  0
VERTEX
  8
1
  6
DASHED
  10
70.317
  20
37.867
  30
0.000
  0
VERTEX
  8
1
  6
DASHED
  10
70.417
  20
38.100
  30
0.000
  0
VERTEX
  8
1
  6
DASHED
  10
70.517
  20
38.283
  30
0.000
  0
VERTEX
  8
1
  6
DASHED
  10
70.617
  20
38.417
  30
0.000
  0
VERTEX
  8
1
  6
DASHED
  10
70.717
  20
38.467
  30
0.000
  0
VERTEX
  8
1
  6
DASHED
  10
70.833
  20
38.467
  30
0.000
  0
VERTEX
  8
1
  6
DASHED
  10
70.933
  20
38.417
  30
0.000
  0
VERTEX
  8
1
  6
DASHED
  10
71.033
  20
38.333
  30
0.000
  0
VERTEX
  8
1
  6
DASHED
  10
71.133
  20
38.267
  30
0.000
  0
VERTEX
  8
1
  6
DASHED
  10
71.233
  20
38.233
  30
0.000
  0
VERTEX
  8
1
  6
DASHED
  10
71.333
  20
38.267
  30
0.000
  0
VERTEX
  8
1
  6
DASHED
  10
71.433
  20
38.433
  30
0.000
  0
VERTEX
  8
1
  6
DASHED
  10
71.550
  20
38.733
  30
0.000
  0
VERTEX
  8
1
  6
DASHED
  10
71.650
  20
39.200
  30
0.000
  0
VERTEX
  8
1
  6
DASHED
  10
71.750
  20
39.733
  30
0.000
  0
VERTEX
  8
1
  6
DASHED
  10
71.850
  20
40.117
  30
0.000
  0
VERTEX
  8
1
  6
DASHED
  10
71.950
  20
40.233
  30
0.000
  0
VERTEX
  8
1
  6
DASHED
  10
72.050
  20
40.083
  30
0.000
  0
VERTEX
  8
1
  6
DASHED
  10
72.167
  20
39.867
  30
0.000
  0
VERTEX
  8
1
  6
DASHED
  10
72.267
  20
39.633
  30
0.000
  0
VERTEX
  8
1
  6
DASHED
  10
72.367
  20
39.383
  30
0.000
  0
VERTEX
  8
1
  6
DASHED
  10
72.467
  20
39.100
  30
0.000
  0
VERTEX
  8
1
  6
DASHED
  10
72.567
  20
38.800
  30
0.000
  0
VERTEX
  8
1
  6
DASHED
  10
72.667
  20
38.433
  30
0.000
  0
VERTEX
  8
1
  6
DASHED
  10
72.767
  20
37.983
  30
0.000
  0
VERTEX
  8
1
  6
DASHED
  10
72.883
  20
37.450
  30
0.000
  0
VERTEX
  8
1
  6
DASHED
  10
72.983
  20
36.917
  30
0.000
  0
VERTEX
  8
1
  6
DASHED
  10
73.083
  20
36.433
  30
0.000
  0
VERTEX
  8
1
  6
DASHED
  10
73.183
  20
36.100
  30
0.000
  0
VERTEX
  8
1
  6
DASHED
  10
73.283
  20
36.017
  30
0.000
  0
VERTEX
  8
1
  6
DASHED
  10
73.383
  20
36.183
  30
0.000
  0
VERTEX
  8
1
  6
DASHED
  10
73.500
  20
36.383
  30
0.000
  0
VERTEX
  8
1
  6
DASHED
  10
73.600
  20
36.600
  30
0.000
  0
VERTEX
  8
1
  6
DASHED
  10
73.700
  20
36.800
  30
0.000
  0
VERTEX
  8
1
  6
DASHED
  10
73.800
  20
37.017
  30
0.000
  0
VERTEX
  8
1
  6
DASHED
  10
73.900
  20
37.267
  30
0.000
  0
VERTEX
  8
1
  6
DASHED
  10
74.000
  20
37.533
  30
0.000
  0
VERTEX
  8
1
  6
DASHED
  10
74.100
  20
37.850
  30
0.000
  0
VERTEX
  8
1
  6
DASHED
  10
74.217
  20
38.233
  30
0.000
  0
VERTEX
  8
1
  6
DASHED
  10
74.317
  20
38.717
  30
0.000
  0
VERTEX
  8
1
  6
DASHED
  10
74.417
  20
39.217
  30
0.000
  0
VERTEX
  8
1
  6
DASHED
  10
74.517
  20
39.717
  30
0.000
  0
VERTEX
  8
1
  6
DASHED
  10
74.617
  20
40.117
  30
0.000
  0
VERTEX
  8
1
  6
DASHED
  10
74.717
  20
40.383
  30
0.000
  0
VERTEX
  8
1
  6
DASHED
  10
74.833
  20
40.367
  30
0.000
  0
VERTEX
  8
1
  6
DASHED
  10
74.933
  20
40.200
  30
0.000
  0
VERTEX
  8
1
  6
DASHED
  10
75.033
  20
40.050
  30
0.000
  0
VERTEX
  8
1
  6
DASHED
  10
75.133
  20
39.933
  30
0.000
  0
VERTEX
  8
1
  6
DASHED
  10
75.233
  20
39.833
  30
0.000
  0
VERTEX
  8
1
  6
DASHED
  10
75.333
  20
39.750
  30
0.000
  0
VERTEX
  8
1
  6
DASHED
  10
75.433
  20
39.667
  30
0.000
  0
VERTEX
  8
1
  6
DASHED
  10
75.550
  20
39.600
  30
0.000
  0
VERTEX
  8
1
  6
DASHED
  10
75.650
  20
39.517
  30
0.000
  0
VERTEX
  8
1
  6
DASHED
  10
75.750
  20
39.400
  30
0.000
  0
VERTEX
  8
1
  6
DASHED
  10
75.850
  20
39.267
  30
0.000
  0
VERTEX
  8
1
  6
DASHED
  10
75.950
  20
39.100
  30
0.000
  0
VERTEX
  8
1
  6
DASHED
  10
76.050
  20
38.867
  30
0.000
  0
VERTEX
  8
1
  6
DASHED
  10
76.150
  20
38.517
  30
0.000
  0
VERTEX
  8
1
  6
DASHED
  10
76.267
  20
38.050
  30
0.000
  0
VERTEX
  8
1
  6
DASHED
  10
76.367
  20
37.450
  30
0.000
  0
VERTEX
  8
1
  6
DASHED
  10
76.467
  20
36.817
  30
0.000
  0
VERTEX
  8
1
  6
DASHED
  10
76.567
  20
36.283
  30
0.000
  0
VERTEX
  8
1
  6
DASHED
  10
76.667
  20
36.017
  30
0.000
  0
VERTEX
  8
1
  6
DASHED
  10
76.767
  20
36.100
  30
0.000
  0
VERTEX
  8
1
  6
DASHED
  10
76.883
  20
36.450
  30
0.000
  0
VERTEX
  8
1
  6
DASHED
  10
76.983
  20
36.833
  30
0.000
  0
VERTEX
  8
1
  6
DASHED
  10
77.083
  20
37.283
  30
0.000
  0
VERTEX
  8
1
  6
DASHED
  10
77.183
  20
37.800
  30
0.000
  0
VERTEX
  8
1
  6
DASHED
  10
77.283
  20
38.400
  30
0.000
  0
VERTEX
  8
1
  6
DASHED
  10
77.383
  20
39.017
  30
0.000
  0
VERTEX
  8
1
  6
DASHED
  10
77.483
  20
39.567
  30
0.000
  0
VERTEX
  8
1
  6
DASHED
  10
77.600
  20
39.950
  30
0.000
  0
VERTEX
  8
1
  6
DASHED
  10
77.700
  20
40.067
  30
0.000
  0
VERTEX
  8
1
  6
DASHED
  10
77.800
  20
39.933
  30
0.000
  0
VERTEX
  8
1
  6
DASHED
  10
77.900
  20
39.533
  30
0.000
  0
VERTEX
  8
1
  6
DASHED
  10
78.000
  20
38.983
  30
0.000
  0
VERTEX
  8
1
  6
DASHED
  10
78.100
  20
38.383
  30
0.000
  0
VERTEX
  8
1
  6
DASHED
  10
78.217
  20
37.717
  30
0.000
  0
VERTEX
  8
1
  6
DASHED
  10
78.317
  20
37.067
  30
0.000
  0
VERTEX
  8
1
  6
DASHED
  10
78.417
  20
36.517
  30
0.000
  0
VERTEX
  8
1
  6
DASHED
  10
78.517
  20
36.183
  30
0.000
  0
VERTEX
  8
1
  6
DASHED
  10
78.617
  20
36.167
  30
0.000
  0
VERTEX
  8
1
  6
DASHED
  10
78.717
  20
36.450
  30
0.000
  0
VERTEX
  8
1
  6
DASHED
  10
78.817
  20
36.867
  30
0.000
  0
VERTEX
  8
1
  6
DASHED
  10
78.933
  20
37.317
  30
0.000
  0
VERTEX
  8
1
  6
DASHED
  10
79.033
  20
37.817
  30
0.000
  0
VERTEX
  8
1
  6
DASHED
  10
79.133
  20
38.400
  30
0.000
  0
VERTEX
  8
1
  6
DASHED
  10
79.233
  20
39.067
  30
0.000
  0
VERTEX
  8
1
  6
DASHED
  10
79.333
  20
39.700
  30
0.000
  0
VERTEX
  8
1
  6
DASHED
  10
79.433
  20
40.217
  30
0.000
  0
VERTEX
  8
1
  6
DASHED
  10
79.533
  20
40.533
  30
0.000
  0
VERTEX
  8
1
  6
DASHED
  10
79.650
  20
40.567
  30
0.000
  0
VERTEX
  8
1
  6
DASHED
  10
79.750
  20
40.350
  30
0.000
  0
VERTEX
  8
1
  6
DASHED
  10
79.850
  20
40.100
  30
0.000
  0
VERTEX
  8
1
  6
DASHED
  10
79.950
  20
39.833
  30
0.000
  0
VERTEX
  8
1
  6
DASHED
  10
80.050
  20
39.517
  30
0.000
  0
VERTEX
  8
1
  6
DASHED
  10
80.150
  20
39.167
  30
0.000
  0
VERTEX
  8
1
  6
DASHED
  10
80.267
  20
38.750
  30
0.000
  0
VERTEX
  8
1
  6
DASHED
  10
80.367
  20
38.267
  30
0.000
  0
VERTEX
  8
1
  6
DASHED
  10
80.467
  20
37.717
  30
0.000
  0
VERTEX
  8
1
  6
DASHED
  10
80.567
  20
37.183
  30
0.000
  0
VERTEX
  8
1
  6
DASHED
  10
80.667
  20
36.717
  30
0.000
  0
VERTEX
  8
1
  6
DASHED
  10
80.767
  20
36.400
  30
0.000
  0
VERTEX
  8
1
  6
DASHED
  10
80.867
  20
36.267
  30
0.000
  0
VERTEX
  8
1
  6
DASHED
  10
80.983
  20
36.350
  30
0.000
  0
VERTEX
  8
1
  6
DASHED
  10
81.083
  20
36.617
  30
0.000
  0
VERTEX
  8
1
  6
DASHED
  10
81.183
  20
36.883
  30
0.000
  0
VERTEX
  8
1
  6
DASHED
  10
81.283
  20
37.167
  30
0.000
  0
VERTEX
  8
1
  6
DASHED
  10
81.383
  20
37.450
  30
0.000
  0
VERTEX
  8
1
  6
DASHED
  10
81.483
  20
37.733
  30
0.000
  0
VERTEX
  8
1
  6
DASHED
  10
81.600
  20
38.033
  30
0.000
  0
VERTEX
  8
1
  6
DASHED
  10
81.700
  20
38.383
  30
0.000
  0
VERTEX
  8
1
  6
DASHED
  10
81.800
  20
38.783
  30
0.000
  0
VERTEX
  8
1
  6
DASHED
  10
81.900
  20
39.167
  30
0.000
  0
VERTEX
  8
1
  6
DASHED
  10
82.000
  20
39.500
  30
0.000
  0
VERTEX
  8
1
  6
DASHED
  10
82.100
  20
39.700
  30
0.000
  0
VERTEX
  8
1
  6
DASHED
  10
82.200
  20
39.700
  30
0.000
  0
VERTEX
  8
1
  6
DASHED
  10
82.317
  20
39.450
  30
0.000
  0
VERTEX
  8
1
  6
DASHED
  10
82.417
  20
38.967
  30
0.000
  0
VERTEX
  8
1
  6
DASHED
  10
82.517
  20
38.300
  30
0.000
  0
VERTEX
  8
1
  6
DASHED
  10
82.617
  20
37.533
  30
0.000
  0
VERTEX
  8
1
  6
DASHED
  10
82.717
  20
36.817
  30
0.000
  0
VERTEX
  8
1
  6
DASHED
  10
82.817
  20
36.283
  30
0.000
  0
VERTEX
  8
1
  6
DASHED
  10
82.933
  20
36.067
  30
0.000
  0
VERTEX
  8
1
  6
DASHED
  10
83.033
  20
36.167
  30
0.000
  0
VERTEX
  8
1
  6
DASHED
  10
83.133
  20
36.500
  30
0.000
  0
VERTEX
  8
1
  6
DASHED
  10
83.233
  20
36.850
  30
0.000
  0
VERTEX
  8
1
  6
DASHED
  10
83.333
  20
37.200
  30
0.000
  0
VERTEX
  8
1
  6
DASHED
  10
83.433
  20
37.583
  30
0.000
  0
VERTEX
  8
1
  6
DASHED
  10
83.533
  20
38.017
  30
0.000
  0
VERTEX
  8
1
  6
DASHED
  10
83.650
  20
38.550
  30
0.000
  0
VERTEX
  8
1
  6
DASHED
  10
83.750
  20
39.117
  30
0.000
  0
VERTEX
  8
1
  6
DASHED
  10
83.850
  20
39.683
  30
0.000
  0
VERTEX
  8
1
  6
DASHED
  10
83.950
  20
40.117
  30
0.000
  0
VERTEX
  8
1
  6
DASHED
  10
84.050
  20
40.383
  30
0.000
  0
VERTEX
  8
1
  6
DASHED
  10
84.150
  20
40.400
  30
0.000
  0
VERTEX
  8
1
  6
DASHED
  10
84.250
  20
40.183
  30
0.000
  0
VERTEX
  8
1
  6
DASHED
  10
84.367
  20
39.933
  30
0.000
  0
VERTEX
  8
1
  6
DASHED
  10
84.467
  20
39.667
  30
0.000
  0
VERTEX
  8
1
  6
DASHED
  10
84.567
  20
39.417
  30
0.000
  0
VERTEX
  8
1
  6
DASHED
  10
84.667
  20
39.167
  30
0.000
  0
VERTEX
  8
1
  6
DASHED
  10
84.767
  20
38.933
  30
0.000
  0
VERTEX
  8
1
  6
DASHED
  10
84.867
  20
38.717
  30
0.000
  0
VERTEX
  8
1
  6
DASHED
  10
84.983
  20
38.550
  30
0.000
  0
VERTEX
  8
1
  6
DASHED
  10
85.083
  20
38.400
  30
0.000
  0
VERTEX
  8
1
  6
DASHED
  10
85.183
  20
38.283
  30
0.000
  0
VERTEX
  8
1
  6
DASHED
  10
85.283
  20
38.200
  30
0.000
  0
VERTEX
  8
1
  6
DASHED
  10
85.383
  20
38.150
  30
0.000
  0
VERTEX
  8
1
  6
DASHED
  10
85.483
  20
38.133
  30
0.000
  0
VERTEX
  8
1
  6
DASHED
  10
85.583
  20
38.117
  30
0.000
  0
VERTEX
  8
1
  6
DASHED
  10
85.700
  20
38.100
  30
0.000
  0
VERTEX
  8
1
  6
DASHED
  10
85.800
  20
38.050
  30
0.000
  0
VERTEX
  8
1
  6
DASHED
  10
85.900
  20
37.917
  30
0.000
  0
VERTEX
  8
1
  6
DASHED
  10
86.000
  20
37.650
  30
0.000
  0
VERTEX
  8
1
  6
DASHED
  10
86.100
  20
37.183
  30
0.000
  0
VERTEX
  8
1
  6
DASHED
  10
86.200
  20
36.583
  30
0.000
  0
VERTEX
  8
1
  6
DASHED
  10
86.317
  20
36.100
  30
0.000
  0
VERTEX
  8
1
  6
DASHED
  10
86.417
  20
35.883
  30
0.000
  0
VERTEX
  8
1
  6
DASHED
  10
86.517
  20
35.850
  30
0.000
  0
VERTEX
  8
1
  6
DASHED
  10
86.617
  20
35.767
  30
0.000
  0
VERTEX
  8
1
  6
DASHED
  10
86.717
  20
35.650
  30
0.000
  0
VERTEX
  8
1
  6
DASHED
  10
86.817
  20
35.500
  30
0.000
  0
VERTEX
  8
1
  6
DASHED
  10
86.917
  20
35.367
  30
0.000
  0
VERTEX
  8
1
  6
DASHED
  10
87.033
  20
35.233
  30
0.000
  0
VERTEX
  8
1
  6
DASHED
  10
87.133
  20
35.150
  30
0.000
  0
VERTEX
  8
1
  6
DASHED
  10
87.233
  20
35.133
  30
0.000
  0
VERTEX
  8
1
  6
DASHED
  10
87.333
  20
35.167
  30
0.000
  0
VERTEX
  8
1
  6
DASHED
  10
87.433
  20
35.250
  30
0.000
  0
VERTEX
  8
1
  6
DASHED
  10
87.533
  20
35.417
  30
0.000
  0
VERTEX
  8
1
  6
DASHED
  10
87.650
  20
35.650
  30
0.000
  0
VERTEX
  8
1
  6
DASHED
  10
87.750
  20
35.933
  30
0.000
  0
VERTEX
  8
1
  6
DASHED
  10
87.850
  20
36.317
  30
0.000
  0
VERTEX
  8
1
  6
DASHED
  10
87.950
  20
36.800
  30
0.000
  0
VERTEX
  8
1
  6
DASHED
  10
88.050
  20
37.400
  30
0.000
  0
VERTEX
  8
1
  6
DASHED
  10
88.150
  20
38.100
  30
0.000
  0
VERTEX
  8
1
  6
DASHED
  10
88.250
  20
38.883
  30
0.000
  0
VERTEX
  8
1
  6
DASHED
  10
88.367
  20
39.650
  30
0.000
  0
VERTEX
  8
1
  6
DASHED
  10
88.467
  20
40.283
  30
0.000
  0
VERTEX
  8
1
  6
DASHED
  10
88.567
  20
40.617
  30
0.000
  0
VERTEX
  8
1
  6
DASHED
  10
88.667
  20
40.617
  30
0.000
  0
VERTEX
  8
1
  6
DASHED
  10
88.767
  20
40.400
  30
0.000
  0
VERTEX
  8
1
  6
DASHED
  10
88.867
  20
40.200
  30
0.000
  0
VERTEX
  8
1
  6
DASHED
  10
88.967
  20
40.017
  30
0.000
  0
VERTEX
  8
1
  6
DASHED
  10
89.083
  20
39.867
  30
0.000
  0
VERTEX
  8
1
  6
DASHED
  10
89.183
  20
39.733
  30
0.000
  0
VERTEX
  8
1
  6
DASHED
  10
89.283
  20
39.600
  30
0.000
  0
VERTEX
  8
1
  6
DASHED
  10
89.383
  20
39.450
  30
0.000
  0
VERTEX
  8
1
  6
DASHED
  10
89.483
  20
39.283
  30
0.000
  0
VERTEX
  8
1
  6
DASHED
  10
89.583
  20
39.083
  30
0.000
  0
VERTEX
  8
1
  6
DASHED
  10
89.700
  20
38.833
  30
0.000
  0
VERTEX
  8
1
  6
DASHED
  10
89.800
  20
38.517
  30
0.000
  0
VERTEX
  8
1
  6
DASHED
  10
89.900
  20
38.100
  30
0.000
  0
VERTEX
  8
1
  6
DASHED
  10
90.000
  20
37.617
  30
0.000
  0
VERTEX
  8
1
  6
DASHED
  10
90.100
  20
37.167
  30
0.000
  0
VERTEX
  8
1
  6
DASHED
  10
90.200
  20
36.817
  30
0.000
  0
VERTEX
  8
1
  6
DASHED
  10
90.300
  20
36.700
  30
0.000
  0
VERTEX
  8
1
  6
DASHED
  10
90.417
  20
36.850
  30
0.000
  0
VERTEX
  8
1
  6
DASHED
  10
90.517
  20
37.267
  30
0.000
  0
VERTEX
  8
1
  6
DASHED
  10
90.617
  20
37.917
  30
0.000
  0
VERTEX
  8
1
  6
DASHED
  10
90.717
  20
38.717
  30
0.000
  0
VERTEX
  8
1
  6
DASHED
  10
90.817
  20
39.550
  30
0.000
  0
VERTEX
  8
1
  6
DASHED
  10
90.917
  20
40.183
  30
0.000
  0
VERTEX
  8
1
  6
DASHED
  10
91.033
  20
40.483
  30
0.000
  0
VERTEX
  8
1
  6
DASHED
  10
91.133
  20
40.467
  30
0.000
  0
VERTEX
  8
1
  6
DASHED
  10
91.233
  20
40.233
  30
0.000
  0
VERTEX
  8
1
  6
DASHED
  10
91.333
  20
40.000
  30
0.000
  0
VERTEX
  8
1
  6
DASHED
  10
91.433
  20
39.717
  30
0.000
  0
VERTEX
  8
1
  6
DASHED
  10
91.533
  20
39.433
  30
0.000
  0
VERTEX
  8
1
  6
DASHED
  10
91.633
  20
39.100
  30
0.000
  0
VERTEX
  8
1
  6
DASHED
  10
91.750
  20
38.700
  30
0.000
  0
VERTEX
  8
1
  6
DASHED
  10
91.850
  20
38.217
  30
0.000
  0
VERTEX
  8
1
  6
DASHED
  10
91.950
  20
37.650
  30
0.000
  0
VERTEX
  8
1
  6
DASHED
  10
92.050
  20
37.100
  30
0.000
  0
VERTEX
  8
1
  6
DASHED
  10
92.150
  20
36.617
  30
0.000
  0
VERTEX
  8
1
  6
DASHED
  10
92.250
  20
36.317
  30
0.000
  0
VERTEX
  8
1
  6
DASHED
  10
92.350
  20
36.233
  30
0.000
  0
VERTEX
  8
1
  6
DASHED
  10
92.467
  20
36.367
  30
0.000
  0
VERTEX
  8
1
  6
DASHED
  10
92.567
  20
36.650
  30
0.000
  0
VERTEX
  8
1
  6
DASHED
  10
92.667
  20
36.917
  30
0.000
  0
VERTEX
  8
1
  6
DASHED
  10
92.767
  20
37.200
  30
0.000
  0
VERTEX
  8
1
  6
DASHED
  10
92.867
  20
37.500
  30
0.000
  0
VERTEX
  8
1
  6
DASHED
  10
92.967
  20
37.800
  30
0.000
  0
VERTEX
  8
1
  6
DASHED
  10
93.083
  20
38.133
  30
0.000
  0
VERTEX
  8
1
  6
DASHED
  10
93.183
  20
38.517
  30
0.000
  0
VERTEX
  8
1
  6
DASHED
  10
93.283
  20
38.950
  30
0.000
  0
VERTEX
  8
1
  6
DASHED
  10
93.383
  20
39.383
  30
0.000
  0
VERTEX
  8
1
  6
DASHED
  10
93.483
  20
39.800
  30
0.000
  0
VERTEX
  8
1
  6
DASHED
  10
93.583
  20
40.167
  30
0.000
  0
VERTEX
  8
1
  6
DASHED
  10
93.683
  20
40.383
  30
0.000
  0
VERTEX
  8
1
  6
DASHED
  10
93.800
  20
40.317
  30
0.000
  0
VERTEX
  8
1
  6
DASHED
  10
93.900
  20
40.183
  30
0.000
  0
VERTEX
  8
1
  6
DASHED
  10
94.000
  20
40.067
  30
0.000
  0
VERTEX
  8
1
  6
DASHED
  10
94.100
  20
39.933
  30
0.000
  0
VERTEX
  8
1
  6
DASHED
  10
94.200
  20
39.833
  30
0.000
  0
VERTEX
  8
1
  6
DASHED
  10
94.300
  20
39.717
  30
0.000
  0
VERTEX
  8
1
  6
DASHED
  10
94.417
  20
39.600
  30
0.000
  0
VERTEX
  8
1
  6
DASHED
  10
94.517
  20
39.483
  30
0.000
  0
VERTEX
  8
1
  6
DASHED
  10
94.617
  20
39.383
  30
0.000
  0
VERTEX
  8
1
  6
DASHED
  10
94.717
  20
39.283
  30
0.000
  0
VERTEX
  8
1
  6
DASHED
  10
94.817
  20
39.167
  30
0.000
  0
VERTEX
  8
1
  6
DASHED
  10
94.917
  20
39.050
  30
0.000
  0
VERTEX
  8
1
  6
DASHED
  10
95.017
  20
38.933
  30
0.000
  0
VERTEX
  8
1
  6
DASHED
  10
95.133
  20
38.783
  30
0.000
  0
VERTEX
  8
1
  6
DASHED
  10
95.233
  20
38.600
  30
0.000
  0
VERTEX
  8
1
  6
DASHED
  10
95.333
  20
38.400
  30
0.000
  0
VERTEX
  8
1
  6
DASHED
  10
95.433
  20
38.133
  30
0.000
  0
VERTEX
  8
1
  6
DASHED
  10
95.533
  20
37.800
  30
0.000
  0
VERTEX
  8
1
  6
DASHED
  10
95.633
  20
37.483
  30
0.000
  0
VERTEX
  8
1
  6
DASHED
  10
95.750
  20
37.200
  30
0.000
  0
VERTEX
  8
1
  6
DASHED
  10
95.850
  20
37.000
  30
0.000
  0
VERTEX
  8
1
  6
DASHED
  10
95.950
  20
36.933
  30
0.000
  0
VERTEX
  8
1
  6
DASHED
  10
96.050
  20
37.017
  30
0.000
  0
VERTEX
  8
1
  6
DASHED
  10
96.150
  20
37.200
  30
0.000
  0
VERTEX
  8
1
  6
DASHED
  10
96.250
  20
37.483
  30
0.000
  0
VERTEX
  8
1
  6
DASHED
  10
96.350
  20
37.800
  30
0.000
  0
VERTEX
  8
1
  6
DASHED
  10
96.467
  20
38.100
  30
0.000
  0
VERTEX
  8
1
  6
DASHED
  10
96.567
  20
38.333
  30
0.000
  0
VERTEX
  8
1
  6
DASHED
  10
96.667
  20
38.500
  30
0.000
  0
VERTEX
  8
1
  6
DASHED
  10
96.767
  20
38.600
  30
0.000
  0
VERTEX
  8
1
  6
DASHED
  10
96.867
  20
38.633
  30
0.000
  0
VERTEX
  8
1
  6
DASHED
  10
96.967
  20
38.600
  30
0.000
  0
VERTEX
  8
1
  6
DASHED
  10
97.067
  20
38.517
  30
0.000
  0
VERTEX
  8
1
  6
DASHED
  10
97.183
  20
38.417
  30
0.000
  0
VERTEX
  8
1
  6
DASHED
  10
97.283
  20
38.300
  30
0.000
  0
VERTEX
  8
1
  6
DASHED
  10
97.383
  20
38.233
  30
0.000
  0
VERTEX
  8
1
  6
DASHED
  10
97.483
  20
38.250
  30
0.000
  0
VERTEX
  8
1
  6
DASHED
  10
97.583
  20
38.333
  30
0.000
  0
VERTEX
  8
1
  6
DASHED
  10
97.683
  20
38.500
  30
0.000
  0
VERTEX
  8
1
  6
DASHED
  10
97.800
  20
38.717
  30
0.000
  0
VERTEX
  8
1
  6
DASHED
  10
97.900
  20
38.967
  30
0.000
  0
VERTEX
  8
1
  6
DASHED
  10
98.000
  20
39.167
  30
0.000
  0
VERTEX
  8
1
  6
DASHED
  10
98.100
  20
39.300
  30
0.000
  0
VERTEX
  8
1
  6
DASHED
  10
98.200
  20
39.333
  30
0.000
  0
VERTEX
  8
1
  6
DASHED
  10
98.300
  20
39.267
  30
0.000
  0
VERTEX
  8
1
  6
DASHED
  10
98.400
  20
39.083
  30
0.000
  0
VERTEX
  8
1
  6
DASHED
  10
98.517
  20
38.833
  30
0.000
  0
VERTEX
  8
1
  6
DASHED
  10
98.617
  20
38.600
  30
0.000
  0
VERTEX
  8
1
  6
DASHED
  10
98.717
  20
38.350
  30
0.000
  0
VERTEX
  8
1
  6
DASHED
  10
98.817
  20
38.083
  30
0.000
  0
VERTEX
  8
1
  6
DASHED
  10
98.917
  20
37.817
  30
0.000
  0
VERTEX
  8
1
  6
DASHED
  10
99.017
  20
37.567
  30
0.000
  0
VERTEX
  8
1
  6
DASHED
  10
99.133
  20
37.383
  30
0.000
  0
VERTEX
  8
1
  6
DASHED
  10
99.233
  20
37.267
  30
0.000
  0
VERTEX
  8
1
  6
DASHED
  10
99.333
  20
37.217
  30
0.000
  0
VERTEX
  8
1
  6
DASHED
  10
99.433
  20
37.267
  30
0.000
  0
VERTEX
  8
1
  6
DASHED
  10
99.533
  20
37.400
  30
0.000
  0
VERTEX
  8
1
  6
DASHED
  10
99.633
  20
37.600
  30
0.000
  0
VERTEX
  8
1
  6
DASHED
  10
99.733
  20
37.850
  30
0.000
  0
VERTEX
  8
1
  6
DASHED
  10
99.850
  20
38.100
  30
0.000
  0
VERTEX
  8
1
  6
DASHED
  10
99.950
  20
38.333
  30
0.000
  0
VERTEX
  8
1
  6
DASHED
  10
100.050
  20
38.483
  30
0.000
  0
VERTEX
  8
1
  6
DASHED
  10
100.150
  20
38.533
  30
0.000
  0
VERTEX
  8
1
  6
DASHED
  10
100.250
  20
38.483
  30
0.000
  0
VERTEX
  8
1
  6
DASHED
  10
100.350
  20
38.350
  30
0.000
  0
VERTEX
  8
1
  6
DASHED
  10
100.467
  20
38.183
  30
0.000
  0
VERTEX
  8
1
  6
DASHED
  10
100.567
  20
38.033
  30
0.000
  0
VERTEX
  8
1
  6
DASHED
  10
100.667
  20
37.983
  30
0.000
  0
VERTEX
  8
1
  6
DASHED
  10
100.767
  20
38.067
  30
0.000
  0
VERTEX
  8
1
  6
DASHED
  10
100.867
  20
38.283
  30
0.000
  0
VERTEX
  8
1
  6
DASHED
  10
100.967
  20
38.600
  30
0.000
  0
VERTEX
  8
1
  6
DASHED
  10
101.067
  20
39.000
  30
0.000
  0
VERTEX
  8
1
  6
DASHED
  10
101.183
  20
39.367
  30
0.000
  0
VERTEX
  8
1
  6
DASHED
  10
101.283
  20
39.633
  30
0.000
  0
VERTEX
  8
1
  6
DASHED
  10
101.383
  20
39.700
  30
0.000
  0
VERTEX
  8
1
  6
DASHED
  10
101.483
  20
39.533
  30
0.000
  0
VERTEX
  8
1
  6
DASHED
  10
101.583
  20
39.100
  30
0.000
  0
VERTEX
  8
1
  6
DASHED
  10
101.683
  20
38.483
  30
0.000
  0
VERTEX
  8
1
  6
DASHED
  10
101.783
  20
37.700
  30
0.000
  0
VERTEX
  8
1
  6
DASHED
  10
101.900
  20
36.783
  30
0.000
  0
VERTEX
  8
1
  6
DASHED
  10
102.000
  20
35.950
  30
0.000
  0
VERTEX
  8
1
  6
DASHED
  10
102.100
  20
35.483
  30
0.000
  0
VERTEX
  8
1
  6
DASHED
  10
102.200
  20
35.383
  30
0.000
  0
VERTEX
  8
1
  6
DASHED
  10
102.300
  20
35.450
  30
0.000
  0
VERTEX
  8
1
  6
DASHED
  10
102.400
  20
35.533
  30
0.000
  0
VERTEX
  8
1
  6
DASHED
  10
102.517
  20
35.633
  30
0.000
  0
VERTEX
  8
1
  6
DASHED
  10
102.617
  20
35.767
  30
0.000
  0
VERTEX
  8
1
  6
DASHED
  10
102.717
  20
35.950
  30
0.000
  0
VERTEX
  8
1
  6
DASHED
  10
102.817
  20
36.217
  30
0.000
  0
VERTEX
  8
1
  6
DASHED
  10
102.917
  20
36.533
  30
0.000
  0
VERTEX
  8
1
  6
DASHED
  10
103.017
  20
36.967
  30
0.000
  0
VERTEX
  8
1
  6
DASHED
  10
103.117
  20
37.567
  30
0.000
  0
VERTEX
  8
1
  6
DASHED
  10
103.233
  20
38.333
  30
0.000
  0
VERTEX
  8
1
  6
DASHED
  10
103.333
  20
39.217
  30
0.000
  0
VERTEX
  8
1
  6
DASHED
  10
103.433
  20
40.067
  30
0.000
  0
VERTEX
  8
1
  6
DASHED
  10
103.533
  20
40.617
  30
0.000
  0
VERTEX
  8
1
  6
DASHED
  10
103.633
  20
40.767
  30
0.000
  0
VERTEX
  8
1
  6
DASHED
  10
103.733
  20
40.567
  30
0.000
  0
VERTEX
  8
1
  6
DASHED
  10
103.850
  20
40.233
  30
0.000
  0
VERTEX
  8
1
  6
DASHED
  10
103.950
  20
39.867
  30
0.000
  0
VERTEX
  8
1
  6
DASHED
  10
104.050
  20
39.467
  30
0.000
  0
VERTEX
  8
1
  6
DASHED
  10
104.150
  20
39.017
  30
0.000
  0
VERTEX
  8
1
  6
DASHED
  10
104.250
  20
38.533
  30
0.000
  0
VERTEX
  8
1
  6
DASHED
  10
104.350
  20
38.067
  30
0.000
  0
VERTEX
  8
1
  6
DASHED
  10
104.450
  20
37.683
  30
0.000
  0
VERTEX
  8
1
  6
DASHED
  10
104.567
  20
37.483
  30
0.000
  0
VERTEX
  8
1
  6
DASHED
  10
104.667
  20
37.500
  30
0.000
  0
VERTEX
  8
1
  6
DASHED
  10
104.767
  20
37.717
  30
0.000
  0
VERTEX
  8
1
  6
DASHED
  10
104.867
  20
38.017
  30
0.000
  0
VERTEX
  8
1
  6
DASHED
  10
104.967
  20
38.367
  30
0.000
  0
VERTEX
  8
1
  6
DASHED
  10
105.067
  20
38.667
  30
0.000
  0
VERTEX
  8
1
  6
DASHED
  10
105.167
  20
38.917
  30
0.000
  0
VERTEX
  8
1
  6
DASHED
  10
105.283
  20
39.033
  30
0.000
  0
VERTEX
  8
1
  6
DASHED
  10
105.383
  20
39.017
  30
0.000
  0
VERTEX
  8
1
  6
DASHED
  10
105.483
  20
38.883
  30
0.000
  0
VERTEX
  8
1
  6
DASHED
  10
105.583
  20
38.717
  30
0.000
  0
VERTEX
  8
1
  6
DASHED
  10
105.683
  20
38.500
  30
0.000
  0
VERTEX
  8
1
  6
DASHED
  10
105.783
  20
38.217
  30
0.000
  0
VERTEX
  8
1
  6
DASHED
  10
105.900
  20
37.850
  30
0.000
  0
VERTEX
  8
1
  6
DASHED
  10
106.000
  20
37.467
  30
0.000
  0
VERTEX
  8
1
  6
DASHED
  10
106.100
  20
37.133
  30
0.000
  0
VERTEX
  8
1
  6
DASHED
  10
106.200
  20
36.883
  30
0.000
  0
VERTEX
  8
1
  6
DASHED
  10
106.300
  20
36.800
  30
0.000
  0
VERTEX
  8
1
  6
DASHED
  10
106.400
  20
36.900
  30
0.000
  0
VERTEX
  8
1
  6
DASHED
  10
106.500
  20
37.150
  30
0.000
  0
VERTEX
  8
1
  6
DASHED
  10
106.617
  20
37.533
  30
0.000
  0
VERTEX
  8
1
  6
DASHED
  10
106.717
  20
37.967
  30
0.000
  0
VERTEX
  8
1
  6
DASHED
  10
106.817
  20
38.367
  30
0.000
  0
VERTEX
  8
1
  6
DASHED
  10
106.917
  20
38.683
  30
0.000
  0
VERTEX
  8
1
  6
DASHED
  10
107.017
  20
38.850
  30
0.000
  0
VERTEX
  8
1
  6
DASHED
  10
107.117
  20
38.883
  30
0.000
  0
VERTEX
  8
1
  6
DASHED
  10
107.233
  20
38.783
  30
0.000
  0
VERTEX
  8
1
  6
DASHED
  10
107.333
  20
38.600
  30
0.000
  0
VERTEX
  8
1
  6
DASHED
  10
107.433
  20
38.417
  30
0.000
  0
VERTEX
  8
1
  6
DASHED
  10
107.533
  20
38.300
  30
0.000
  0
VERTEX
  8
1
  6
DASHED
  10
107.633
  20
38.267
  30
0.000
  0
VERTEX
  8
1
  6
DASHED
  10
107.733
  20
38.383
  30
0.000
  0
VERTEX
  8
1
  6
DASHED
  10
107.833
  20
38.633
  30
0.000
  0
VERTEX
  8
1
  6
DASHED
  10
107.950
  20
38.950
  30
0.000
  0
VERTEX
  8
1
  6
DASHED
  10
108.050
  20
39.267
  30
0.000
  0
VERTEX
  8
1
  6
DASHED
  10
108.150
  20
39.500
  30
0.000
  0
VERTEX
  8
1
  6
DASHED
  10
108.250
  20
39.533
  30
0.000
  0
VERTEX
  8
1
  6
DASHED
  10
108.350
  20
39.367
  30
0.000
  0
VERTEX
  8
1
  6
DASHED
  10
108.450
  20
39.117
  30
0.000
  0
VERTEX
  8
1
  6
DASHED
  10
108.567
  20
38.817
  30
0.000
  0
VERTEX
  8
1
  6
DASHED
  10
108.667
  20
38.433
  30
0.000
  0
VERTEX
  8
1
  6
DASHED
  10
108.767
  20
37.983
  30
0.000
  0
VERTEX
  8
1
  6
DASHED
  10
108.867
  20
37.517
  30
0.000
  0
VERTEX
  8
1
  6
DASHED
  10
108.967
  20
37.117
  30
0.000
  0
VERTEX
  8
1
  6
DASHED
  10
109.067
  20
36.850
  30
0.000
  0
VERTEX
  8
1
  6
DASHED
  10
109.167
  20
36.750
  30
0.000
  0
VERTEX
  8
1
  6
DASHED
  10
109.283
  20
36.817
  30
0.000
  0
VERTEX
  8
1
  6
DASHED
  10
109.383
  20
37.017
  30
0.000
  0
VERTEX
  8
1
  6
DASHED
  10
109.483
  20
37.317
  30
0.000
  0
VERTEX
  8
1
  6
DASHED
  10
109.583
  20
37.650
  30
0.000
  0
VERTEX
  8
1
  6
DASHED
  10
109.683
  20
37.900
  30
0.000
  0
VERTEX
  8
1
  6
DASHED
  10
109.783
  20
38.133
  30
0.000
  0
VERTEX
  8
1
  6
DASHED
  10
109.883
  20
38.350
  30
0.000
  0
VERTEX
  8
1
  6
DASHED
  10
110.000
  20
38.533
  30
0.000
  0
VERTEX
  8
1
  6
DASHED
  10
110.100
  20
38.700
  30
0.000
  0
VERTEX
  8
1
  6
DASHED
  10
110.200
  20
38.850
  30
0.000
  0
VERTEX
  8
1
  6
DASHED
  10
110.300
  20
38.983
  30
0.000
  0
VERTEX
  8
1
  6
DASHED
  10
110.400
  20
39.100
  30
0.000
  0
VERTEX
  8
1
  6
DASHED
  10
110.500
  20
39.217
  30
0.000
  0
VERTEX
  8
1
  6
DASHED
  10
110.617
  20
39.283
  30
0.000
  0
VERTEX
  8
1
  6
DASHED
  10
110.717
  20
39.317
  30
0.000
  0
VERTEX
  8
1
  6
DASHED
  10
110.817
  20
39.283
  30
0.000
  0
VERTEX
  8
1
  6
DASHED
  10
110.917
  20
39.183
  30
0.000
  0
VERTEX
  8
1
  6
DASHED
  10
111.017
  20
39.000
  30
0.000
  0
VERTEX
  8
1
  6
DASHED
  10
111.117
  20
38.800
  30
0.000
  0
VERTEX
  8
1
  6
DASHED
  10
111.217
  20
38.583
  30
0.000
  0
VERTEX
  8
1
  6
DASHED
  10
111.333
  20
38.350
  30
0.000
  0
VERTEX
  8
1
  6
DASHED
  10
111.433
  20
38.050
  30
0.000
  0
VERTEX
  8
1
  6
DASHED
  10
111.533
  20
37.717
  30
0.000
  0
VERTEX
  8
1
  6
DASHED
  10
111.633
  20
37.383
  30
0.000
  0
VERTEX
  8
1
  6
DASHED
  10
111.733
  20
37.100
  30
0.000
  0
VERTEX
  8
1
  6
DASHED
  10
111.833
  20
36.883
  30
0.000
  0
VERTEX
  8
1
  6
DASHED
  10
111.950
  20
36.783
  30
0.000
  0
VERTEX
  8
1
  6
DASHED
  10
112.050
  20
36.833
  30
0.000
  0
VERTEX
  8
1
  6
DASHED
  10
112.150
  20
37.033
  30
0.000
  0
VERTEX
  8
1
  6
DASHED
  10
112.250
  20
37.367
  30
0.000
  0
VERTEX
  8
1
  6
DASHED
  10
112.350
  20
37.750
  30
0.000
  0
VERTEX
  8
1
  6
DASHED
  10
112.450
  20
38.117
  30
0.000
  0
VERTEX
  8
1
  6
DASHED
  10
112.550
  20
38.500
  30
0.000
  0
VERTEX
  8
1
  6
DASHED
  10
112.667
  20
38.883
  30
0.000
  0
VERTEX
  8
1
  6
DASHED
  10
112.767
  20
39.200
  30
0.000
  0
VERTEX
  8
1
  6
DASHED
  10
112.867
  20
39.450
  30
0.000
  0
VERTEX
  8
1
  6
DASHED
  10
112.967
  20
39.600
  30
0.000
  0
VERTEX
  8
1
  6
DASHED
  10
113.067
  20
39.617
  30
0.000
  0
VERTEX
  8
1
  6
DASHED
  10
113.167
  20
39.517
  30
0.000
  0
VERTEX
  8
1
  6
DASHED
  10
113.283
  20
39.300
  30
0.000
  0
VERTEX
  8
1
  6
DASHED
  10
113.383
  20
39.000
  30
0.000
  0
VERTEX
  8
1
  6
DASHED
  10
113.483
  20
38.683
  30
0.000
  0
VERTEX
  8
1
  6
DASHED
  10
113.583
  20
38.400
  30
0.000
  0
VERTEX
  8
1
  6
DASHED
  10
113.683
  20
38.083
  30
0.000
  0
VERTEX
  8
1
  6
DASHED
  10
113.783
  20
37.783
  30
0.000
  0
VERTEX
  8
1
  6
DASHED
  10
113.883
  20
37.500
  30
0.000
  0
VERTEX
  8
1
  6
DASHED
  10
114.000
  20
37.283
  30
0.000
  0
VERTEX
  8
1
  6
DASHED
  10
114.100
  20
37.150
  30
0.000
  0
VERTEX
  8
1
  6
DASHED
  10
114.200
  20
37.117
  30
0.000
  0
VERTEX
  8
1
  6
DASHED
  10
114.300
  20
37.150
  30
0.000
  0
VERTEX
  8
1
  6
DASHED
  10
114.400
  20
37.267
  30
0.000
  0
VERTEX
  8
1
  6
DASHED
  10
114.500
  20
37.417
  30
0.000
  0
VERTEX
  8
1
  6
DASHED
  10
114.600
  20
37.583
  30
0.000
  0
VERTEX
  8
1
  6
DASHED
  10
114.717
  20
37.767
  30
0.000
  0
VERTEX
  8
1
  6
DASHED
  10
114.817
  20
37.967
  30
0.000
  0
VERTEX
  8
1
  6
DASHED
  10
114.917
  20
38.133
  30
0.000
  0
VERTEX
  8
1
  6
DASHED
  10
115.017
  20
38.300
  30
0.000
  0
VERTEX
  8
1
  6
DASHED
  10
115.117
  20
38.450
  30
0.000
  0
VERTEX
  8
1
  6
DASHED
  10
115.217
  20
38.550
  30
0.000
  0
VERTEX
  8
1
  6
DASHED
  10
115.333
  20
38.633
  30
0.000
  0
VERTEX
  8
1
  6
DASHED
  10
115.433
  20
38.683
  30
0.000
  0
VERTEX
  8
1
  6
DASHED
  10
115.533
  20
38.733
  30
0.000
  0
SEQEND
  0
ENDSEC
  0
EOF
