999
% GNUPLOT: dxf file for AutoCad
  0
SECTION
  2
HEADER
  9
$EXTMIN
 10
0.000
 20
0.000
  9
$EXTMAX
 10
120.000
 20
80.000
  9
$LIMMIN
 10
0.000
 20
0.000
  9
$LIMMAX
 10
120.000
 20
80.000
  9
$TEXTSTYLE
  7
STANDARD
  9
$TEXTSIZE
 40
1.456 
  9
$PLINEWID
 40
0.0351
  9
$LTSCALE
  40
1.000 
  9
$COORDS
 70
  1
  9
$CELTYPE
 6
BYLAYER
  9
$CLAYER
  8
0
  9
$CECOLOR
 62
   7
  9
$MENU
  1
acad
  0
ENDSEC
  0
SECTION
  2
TABLES
0
TABLE
  2
LTYPE
 70
    7
0
LTYPE
  2
CONTINUOUS
 70
    64
  3
Solid line
 72
    65
 73
      0
 40
0.0
  0
LTYPE
  2
DASHED
 70
    64
  3
__ __ __ __ __ __ __ __ __ __ __ __ __ __ __
 72
    65
 73
     2
 40
0.75
 49
0.5
 49
-0.25
  0
LTYPE
  2
HIDDEN
 70
    64
  3
_ _ _ _ _ _ _ _ _ _ _ _ _ _ _ _ _ _ _ _ _ _ _
 72
    65
 73
     2
 40
0.375
 49
0.25
 49
-0.125
  0
LTYPE
  2
CENTER
 70
    64
  3
____ _ ____ _ ____ _ ____ _ ____ _ ____ _ ____
 72
    65
 73
     4
 40
2.0
 49
1.25
 49
-0.25
 49
0.25
 49
-0.25
  0
LTYPE
  2
PHANTOM
 70
    64
  3
_____ _ _ _____ _ _ _____ _ _ _____ _ _ ____
 72
    65
 73
     6
 40
2.5
 49
1.25
 49
-0.25
 49
0.25
 49
-0.25
 49
0.25
 49
-0.25
  0
LTYPE
  2
DOT
 70
    64
  3
...............................................
 72
    65
 73
     2
 40
0.25
 49
0.0
 49
-0.25
  0
LTYPE
  2
DASHDOT
 70
    64
  3
__ . __ . __ . __ . __ . __ . __ . __ . __ . __
 72
    65
 73
     4
 40
1.0
 49
0.5
 49
-0.25
 49
0.0
 49
-0.25
  0
ENDTAB
  0
TABLE
  2
LAYER
 70
   7
  0
LAYER
  2
0
 70
   64
62
   7
  6
CONTINUOUS
  0
LAYER
  2
1
 70
   64
62
   1
  6
DASHED
  0
LAYER
  2
2
 70
   64
62
   2
  6
HIDDEN
  0
LAYER
  2
3
 70
   64
62
   3
  6
CENTER
  0
LAYER
  2
4
 70
   64
62
   4
  6
PHANTOM
  0
LAYER
  2
5
 70
   64
62
   5
  6
DOT
  0
LAYER
  2
6
 70
   64
62
   6
  6
DASHDOT
  0
ENDTAB
0
ENDSEC
  0
SECTION
  2
BLOCKS
  0
ENDSEC
  0
SECTION
  2
ENTITIES
  0
POLYLINE
  8
2
 66
   1
  6
HIDDEN
  0
VERTEX
  8
2
  6
HIDDEN
 10
11.433
 20
6.200 
 30
0.000
  0
VERTEX
  8
2
  6
HIDDEN
  10
12.633
  20
6.200 
  30
0.000
  0
SEQEND
  0
POLYLINE
  8
2
 66
   1
  6
HIDDEN
  0
VERTEX
  8
2
  6
HIDDEN
 10
115.633
 20
6.200 
 30
0.000
  0
VERTEX
  8
2
  6
HIDDEN
  10
114.433
  20
6.200 
  30
0.000
  0
SEQEND
  0
TEXT
  8
0
 10
8.591 
 20
5.680 
 30
0.000
 40
1.456 
  1
0
 50
0.000 
  7
STANDARD
 72
2
 11
9.767 
 21
5.680 
 31
0.000
  0
POLYLINE
  8
2
 66
   1
  6
HIDDEN
  0
VERTEX
  8
2
  6
HIDDEN
 10
11.433
 20
26.933
 30
0.000
  0
VERTEX
  8
2
  6
HIDDEN
  10
12.633
  20
26.933
  30
0.000
  0
SEQEND
  0
POLYLINE
  8
2
 66
   1
  6
HIDDEN
  0
VERTEX
  8
2
  6
HIDDEN
 10
115.633
 20
26.933
 30
0.000
  0
VERTEX
  8
2
  6
HIDDEN
  10
114.433
  20
26.933
  30
0.000
  0
SEQEND
  0
TEXT
  8
0
 10
6.239 
 20
26.413
 30
0.000
 40
1.456 
  1
0.5
 50
0.000 
  7
STANDARD
 72
2
 11
9.767 
 21
26.413
 31
0.000
  0
POLYLINE
  8
2
 66
   1
  6
HIDDEN
  0
VERTEX
  8
2
  6
HIDDEN
 10
11.433
 20
47.650
 30
0.000
  0
VERTEX
  8
2
  6
HIDDEN
  10
12.633
  20
47.650
  30
0.000
  0
SEQEND
  0
POLYLINE
  8
2
 66
   1
  6
HIDDEN
  0
VERTEX
  8
2
  6
HIDDEN
 10
115.633
 20
47.650
 30
0.000
  0
VERTEX
  8
2
  6
HIDDEN
  10
114.433
  20
47.650
  30
0.000
  0
SEQEND
  0
TEXT
  8
0
 10
6.239 
 20
47.130
 30
0.000
 40
1.456 
  1
1.0
 50
0.000 
  7
STANDARD
 72
2
 11
9.767 
 21
47.130
 31
0.000
  0
POLYLINE
  8
2
 66
   1
  6
HIDDEN
  0
VERTEX
  8
2
  6
HIDDEN
 10
11.433
 20
55.933
 30
0.000
  0
VERTEX
  8
2
  6
HIDDEN
  10
12.633
  20
55.933
  30
0.000
  0
SEQEND
  0
POLYLINE
  8
2
 66
   1
  6
HIDDEN
  0
VERTEX
  8
2
  6
HIDDEN
 10
115.633
 20
55.933
 30
0.000
  0
VERTEX
  8
2
  6
HIDDEN
  10
114.433
  20
55.933
  30
0.000
  0
SEQEND
  0
TEXT
  8
0
 10
8.591 
 20
55.413
 30
0.000
 40
1.456 
  1
g
 50
0.000 
  7
STANDARD
 72
2
 11
9.767 
 21
55.413
 31
0.000
  0
POLYLINE
  8
2
 66
   1
  6
HIDDEN
  0
VERTEX
  8
2
  6
HIDDEN
 10
11.433
 20
68.383
 30
0.000
  0
VERTEX
  8
2
  6
HIDDEN
  10
12.633
  20
68.383
  30
0.000
  0
SEQEND
  0
POLYLINE
  8
2
 66
   1
  6
HIDDEN
  0
VERTEX
  8
2
  6
HIDDEN
 10
115.633
 20
68.383
 30
0.000
  0
VERTEX
  8
2
  6
HIDDEN
  10
114.433
  20
68.383
  30
0.000
  0
SEQEND
  0
TEXT
  8
0
 10
7.415 
 20
67.863
 30
0.000
 40
1.456 
  1
g3
 50
0.000 
  7
STANDARD
 72
2
 11
9.767 
 21
67.863
 31
0.000
  0
POLYLINE
  8
1
 66
   1
  6
DASHED
  0
VERTEX
  8
1
  6
DASHED
 10
11.433
 20
6.200 
 30
0.000
  0
VERTEX
  8
1
  6
DASHED
  10
11.433
  20
76.667
  30
0.000
  0
SEQEND
  0
POLYLINE
  8
2
 66
   1
  6
HIDDEN
  0
VERTEX
  8
2
  6
HIDDEN
 10
11.433
 20
6.200 
 30
0.000
  0
VERTEX
  8
2
  6
HIDDEN
  10
11.433
  20
7.000 
  30
0.000
  0
SEQEND
  0
POLYLINE
  8
2
 66
   1
  6
HIDDEN
  0
VERTEX
  8
2
  6
HIDDEN
 10
11.433
 20
76.667
 30
0.000
  0
VERTEX
  8
2
  6
HIDDEN
  10
11.433
  20
75.867
  30
0.000
  0
SEQEND
  0
POLYLINE
  8
1
 66
   1
  6
DASHED
  0
VERTEX
  8
1
  6
DASHED
 10
13.600
 20
6.200 
 30
0.000
  0
VERTEX
  8
1
  6
DASHED
  10
13.600
  20
76.667
  30
0.000
  0
SEQEND
  0
POLYLINE
  8
2
 66
   1
  6
HIDDEN
  0
VERTEX
  8
2
  6
HIDDEN
 10
13.600
 20
6.200 
 30
0.000
  0
VERTEX
  8
2
  6
HIDDEN
  10
13.600
  20
7.000 
  30
0.000
  0
SEQEND
  0
POLYLINE
  8
2
 66
   1
  6
HIDDEN
  0
VERTEX
  8
2
  6
HIDDEN
 10
13.600
 20
76.667
 30
0.000
  0
VERTEX
  8
2
  6
HIDDEN
  10
13.600
  20
75.867
  30
0.000
  0
SEQEND
  0
TEXT
  8
0
 10
10.660
 20
3.613 
 30
0.000
 40
1.456 
  1
1/960
 50
0.000 
  7
STANDARD
 72
1
 11
13.600
 21
3.613 
 31
0.000
  0
POLYLINE
  8
1
 66
   1
  6
DASHED
  0
VERTEX
  8
1
  6
DASHED
 10
28.800
 20
6.200 
 30
0.000
  0
VERTEX
  8
1
  6
DASHED
  10
28.800
  20
76.667
  30
0.000
  0
SEQEND
  0
POLYLINE
  8
2
 66
   1
  6
HIDDEN
  0
VERTEX
  8
2
  6
HIDDEN
 10
28.800
 20
6.200 
 30
0.000
  0
VERTEX
  8
2
  6
HIDDEN
  10
28.800
  20
7.000 
  30
0.000
  0
SEQEND
  0
POLYLINE
  8
2
 66
   1
  6
HIDDEN
  0
VERTEX
  8
2
  6
HIDDEN
 10
28.800
 20
76.667
 30
0.000
  0
VERTEX
  8
2
  6
HIDDEN
  10
28.800
  20
75.867
  30
0.000
  0
SEQEND
  0
TEXT
  8
0
 10
25.860
 20
3.613 
 30
0.000
 40
1.456 
  1
1/120
 50
0.000 
  7
STANDARD
 72
1
 11
28.800
 21
3.613 
 31
0.000
  0
POLYLINE
  8
1
 66
   1
  6
DASHED
  0
VERTEX
  8
1
  6
DASHED
 10
80.900
 20
6.200 
 30
0.000
  0
VERTEX
  8
1
  6
DASHED
  10
80.900
  20
69.667
  30
0.000
  0
SEQEND
  0
POLYLINE
  8
1
 66
   1
  6
DASHED
  0
VERTEX
  8
1
  6
DASHED
 10
80.900
 20
75.867
 30
0.000
  0
VERTEX
  8
1
  6
DASHED
  10
80.900
  20
76.667
  30
0.000
  0
SEQEND
  0
POLYLINE
  8
2
 66
   1
  6
HIDDEN
  0
VERTEX
  8
2
  6
HIDDEN
 10
80.900
 20
6.200 
 30
0.000
  0
VERTEX
  8
2
  6
HIDDEN
  10
80.900
  20
7.000 
  30
0.000
  0
SEQEND
  0
POLYLINE
  8
2
 66
   1
  6
HIDDEN
  0
VERTEX
  8
2
  6
HIDDEN
 10
80.900
 20
76.667
 30
0.000
  0
VERTEX
  8
2
  6
HIDDEN
  10
80.900
  20
75.867
  30
0.000
  0
SEQEND
  0
TEXT
  8
0
 10
78.548
 20
3.613 
 30
0.000
 40
1.456 
  1
1/30
 50
0.000 
  7
STANDARD
 72
1
 11
80.900
 21
3.613 
 31
0.000
  0
POLYLINE
  8
1
 66
   1
  6
DASHED
  0
VERTEX
  8
1
  6
DASHED
 10
115.633
 20
6.200 
 30
0.000
  0
VERTEX
  8
1
  6
DASHED
  10
115.633
  20
76.667
  30
0.000
  0
SEQEND
  0
POLYLINE
  8
2
 66
   1
  6
HIDDEN
  0
VERTEX
  8
2
  6
HIDDEN
 10
115.633
 20
6.200 
 30
0.000
  0
VERTEX
  8
2
  6
HIDDEN
  10
115.633
  20
7.000 
  30
0.000
  0
SEQEND
  0
POLYLINE
  8
2
 66
   1
  6
HIDDEN
  0
VERTEX
  8
2
  6
HIDDEN
 10
115.633
 20
76.667
 30
0.000
  0
VERTEX
  8
2
  6
HIDDEN
  10
115.633
  20
75.867
  30
0.000
  0
SEQEND
  0
TEXT
  8
0
 10
113.281
 20
3.613 
 30
0.000
 40
1.456 
  1
1/20
 50
0.000 
  7
STANDARD
 72
1
 11
115.633
 21
3.613 
 31
0.000
  0
POLYLINE
  8
1
 66
   1
  6
DASHED
  0
VERTEX
  8
1
  6
DASHED
 10
11.433
 20
6.200 
 30
0.000
  0
VERTEX
  8
1
  6
DASHED
  10
115.633
  20
6.200 
  30
0.000
  0
SEQEND
  0
POLYLINE
  8
1
 66
   1
  6
DASHED
  0
VERTEX
  8
1
  6
DASHED
 10
11.433
 20
6.200 
 30
0.000
  0
VERTEX
  8
1
  6
DASHED
  10
11.433
  20
76.667
  30
0.000
  0
SEQEND
  0
POLYLINE
  8
2
 66
   1
  6
HIDDEN
  0
VERTEX
  8
2
  6
HIDDEN
 10
11.433
 20
6.200 
 30
0.000
  0
VERTEX
  8
2
  6
HIDDEN
  10
115.633
  20
6.200 
  30
0.000
  0
VERTEX
  8
2
  6
HIDDEN
  10
115.633
  20
76.667
  30
0.000
  0
VERTEX
  8
2
  6
HIDDEN
  10
11.433
  20
76.667
  30
0.000
  0
VERTEX
  8
2
  6
HIDDEN
  10
11.433
  20
6.200 
  30
0.000
  0
SEQEND
  0
TEXT
  8
0
 10
2.587 
 20
24.969
 30
0.000
 40
1.456 
  1
standardized restoring force
 50
90.000
  7
STANDARD
 72
1
 11
2.587 
 21
41.433
 31
0.000
  0
TEXT
  8
0
 10
46.481
 20
0.513 
 30
0.000
 40
1.456 
  1
story deformation angle (rad)
 50
0.000 
  7
STANDARD
 72
1
 11
63.533
 21
0.513 
 31
0.000
  0
TEXT
  8
0
 10
78.071
 20
74.313
 30
0.000
 40
1.456 
  1
Quadri-linear element
 50
0.000 
  7
STANDARD
 72
2
 11
102.767
 21
74.313
 31
0.000
  0
POLYLINE
  8
0
 66
   1
  6
CONTINUOUS
  0
VERTEX
  8
0
  6
CONTINUOUS
 10
104.433
 20
74.833
 30
0.000
  0
VERTEX
  8
0
  6
CONTINUOUS
  10
112.300
  20
74.833
  30
0.000
  0
SEQEND
  0
POLYLINE
  8
0
 66
   1
  6
CONTINUOUS
  0
VERTEX
  8
0
  6
CONTINUOUS
 10
11.433
 20
6.200 
 30
0.000
  0
VERTEX
  8
0
  6
CONTINUOUS
  10
11.433
  20
6.200 
  30
0.000
  0
VERTEX
  8
0
  6
CONTINUOUS
  10
13.600
  20
26.933
  30
0.000
  0
VERTEX
  8
0
  6
CONTINUOUS
  10
28.800
  20
47.650
  30
0.000
  0
VERTEX
  8
0
  6
CONTINUOUS
  10
80.900
  20
68.383
  30
0.000
  0
VERTEX
  8
0
  6
CONTINUOUS
  10
115.633
  20
68.383
  30
0.000
  0
SEQEND
  0
TEXT
  8
0
 10
88.655
 20
72.247
 30
0.000
 40
1.456 
  1
Slip element
 50
0.000 
  7
STANDARD
 72
2
 11
102.767
 21
72.247
 31
0.000
  0
POLYLINE
  8
1
 66
   1
  6
DASHED
  0
VERTEX
  8
1
  6
DASHED
 10
104.433
 20
72.767
 30
0.000
  0
VERTEX
  8
1
  6
DASHED
  10
112.300
  20
72.767
  30
0.000
  0
SEQEND
  0
POLYLINE
  8
1
 66
   1
  6
DASHED
  0
VERTEX
  8
1
  6
DASHED
 10
11.433
 20
6.200 
 30
0.000
  0
VERTEX
  8
1
  6
DASHED
  10
11.433
  20
6.200 
  30
0.000
  0
VERTEX
  8
1
  6
DASHED
  10
28.800
  20
47.650
  30
0.000
  0
VERTEX
  8
1
  6
DASHED
  10
80.900
  20
47.650
  30
0.000
  0
VERTEX
  8
1
  6
DASHED
  10
115.633
  20
47.650
  30
0.000
  0
SEQEND
  0
TEXT
  8
0
 10
96.887
 20
70.180
 30
0.000
 40
1.456 
  1
Total
 50
0.000 
  7
STANDARD
 72
2
 11
102.767
 21
70.180
 31
0.000
  0
POLYLINE
  8
2
 66
   1
  6
HIDDEN
  0
VERTEX
  8
2
  6
HIDDEN
 10
104.433
 20
70.700
 30
0.000
  0
VERTEX
  8
2
  6
HIDDEN
  10
112.300
  20
70.700
  30
0.000
  0
SEQEND
  0
POLYLINE
  8
2
 66
   1
  6
HIDDEN
  0
VERTEX
  8
2
  6
HIDDEN
 10
11.433
 20
6.200 
 30
0.000
  0
VERTEX
  8
2
  6
HIDDEN
  10
11.433
  20
6.200 
  30
0.000
  0
VERTEX
  8
2
  6
HIDDEN
  10
13.600
  20
17.600
  30
0.000
  0
VERTEX
  8
2
  6
HIDDEN
  10
28.800
  20
47.650
  30
0.000
  0
VERTEX
  8
2
  6
HIDDEN
  10
80.900
  20
55.933
  30
0.000
  0
VERTEX
  8
2
  6
HIDDEN
  10
115.633
  20
55.933
  30
0.000
  0
SEQEND
  0
ENDSEC
  0
EOF
