999
% GNUPLOT: dxf file for AutoCad
  0
SECTION
  2
HEADER
  9
$EXTMIN
 10
0.000
 20
0.000
  9
$EXTMAX
 10
120.000
 20
80.000
  9
$LIMMIN
 10
0.000
 20
0.000
  9
$LIMMAX
 10
120.000
 20
80.000
  9
$TEXTSTYLE
  7
STANDARD
  9
$TEXTSIZE
 40
1.456 
  9
$PLINEWID
 40
0.0351
  9
$LTSCALE
  40
1.000 
  9
$COORDS
 70
  1
  9
$CELTYPE
 6
BYLAYER
  9
$CLAYER
  8
0
  9
$CECOLOR
 62
   7
  9
$MENU
  1
acad
  0
ENDSEC
  0
SECTION
  2
TABLES
0
TABLE
  2
LTYPE
 70
    7
0
LTYPE
  2
CONTINUOUS
 70
    64
  3
Solid line
 72
    65
 73
      0
 40
0.0
  0
LTYPE
  2
DASHED
 70
    64
  3
__ __ __ __ __ __ __ __ __ __ __ __ __ __ __
 72
    65
 73
     2
 40
0.75
 49
0.5
 49
-0.25
  0
LTYPE
  2
HIDDEN
 70
    64
  3
_ _ _ _ _ _ _ _ _ _ _ _ _ _ _ _ _ _ _ _ _ _ _
 72
    65
 73
     2
 40
0.375
 49
0.25
 49
-0.125
  0
LTYPE
  2
CENTER
 70
    64
  3
____ _ ____ _ ____ _ ____ _ ____ _ ____ _ ____
 72
    65
 73
     4
 40
2.0
 49
1.25
 49
-0.25
 49
0.25
 49
-0.25
  0
LTYPE
  2
PHANTOM
 70
    64
  3
_____ _ _ _____ _ _ _____ _ _ _____ _ _ ____
 72
    65
 73
     6
 40
2.5
 49
1.25
 49
-0.25
 49
0.25
 49
-0.25
 49
0.25
 49
-0.25
  0
LTYPE
  2
DOT
 70
    64
  3
...............................................
 72
    65
 73
     2
 40
0.25
 49
0.0
 49
-0.25
  0
LTYPE
  2
DASHDOT
 70
    64
  3
__ . __ . __ . __ . __ . __ . __ . __ . __ . __
 72
    65
 73
     4
 40
1.0
 49
0.5
 49
-0.25
 49
0.0
 49
-0.25
  0
ENDTAB
  0
TABLE
  2
LAYER
 70
   7
  0
LAYER
  2
0
 70
   64
62
   7
  6
CONTINUOUS
  0
LAYER
  2
1
 70
   64
62
   1
  6
DASHED
  0
LAYER
  2
2
 70
   64
62
   2
  6
HIDDEN
  0
LAYER
  2
3
 70
   64
62
   3
  6
CENTER
  0
LAYER
  2
4
 70
   64
62
   4
  6
PHANTOM
  0
LAYER
  2
5
 70
   64
62
   5
  6
DOT
  0
LAYER
  2
6
 70
   64
62
   6
  6
DASHDOT
  0
ENDTAB
0
ENDSEC
  0
SECTION
  2
BLOCKS
  0
ENDSEC
  0
SECTION
  2
ENTITIES
  0
POLYLINE
  8
2
 66
   1
  6
HIDDEN
  0
VERTEX
  8
2
  6
HIDDEN
 10
13.100
 20
10.350
 30
0.000
  0
VERTEX
  8
2
  6
HIDDEN
  10
14.300
  20
10.350
  30
0.000
  0
SEQEND
  0
POLYLINE
  8
2
 66
   1
  6
HIDDEN
  0
VERTEX
  8
2
  6
HIDDEN
 10
115.633
 20
10.350
 30
0.000
  0
VERTEX
  8
2
  6
HIDDEN
  10
114.433
  20
10.350
  30
0.000
  0
SEQEND
  0
POLYLINE
  8
2
 66
   1
  6
HIDDEN
  0
VERTEX
  8
2
  6
HIDDEN
 10
13.100
 20
20.700
 30
0.000
  0
VERTEX
  8
2
  6
HIDDEN
  10
14.300
  20
20.700
  30
0.000
  0
SEQEND
  0
POLYLINE
  8
2
 66
   1
  6
HIDDEN
  0
VERTEX
  8
2
  6
HIDDEN
 10
115.633
 20
20.700
 30
0.000
  0
VERTEX
  8
2
  6
HIDDEN
  10
114.433
  20
20.700
  30
0.000
  0
SEQEND
  0
TEXT
  8
0
 10
6.729 
 20
20.180
 30
0.000
 40
1.456 
  1
-1.0
 50
0.000 
  7
STANDARD
 72
2
 11
11.433
 21
20.180
 31
0.000
  0
POLYLINE
  8
2
 66
   1
  6
HIDDEN
  0
VERTEX
  8
2
  6
HIDDEN
 10
13.100
 20
31.067
 30
0.000
  0
VERTEX
  8
2
  6
HIDDEN
  10
14.300
  20
31.067
  30
0.000
  0
SEQEND
  0
POLYLINE
  8
2
 66
   1
  6
HIDDEN
  0
VERTEX
  8
2
  6
HIDDEN
 10
115.633
 20
31.067
 30
0.000
  0
VERTEX
  8
2
  6
HIDDEN
  10
114.433
  20
31.067
  30
0.000
  0
SEQEND
  0
TEXT
  8
0
 10
6.729 
 20
30.547
 30
0.000
 40
1.456 
  1
-0.5
 50
0.000 
  7
STANDARD
 72
2
 11
11.433
 21
30.547
 31
0.000
  0
POLYLINE
  8
2
 66
   1
  6
HIDDEN
  0
VERTEX
  8
2
  6
HIDDEN
 10
13.100
 20
41.433
 30
0.000
  0
VERTEX
  8
2
  6
HIDDEN
  10
14.300
  20
41.433
  30
0.000
  0
SEQEND
  0
POLYLINE
  8
2
 66
   1
  6
HIDDEN
  0
VERTEX
  8
2
  6
HIDDEN
 10
115.633
 20
41.433
 30
0.000
  0
VERTEX
  8
2
  6
HIDDEN
  10
114.433
  20
41.433
  30
0.000
  0
SEQEND
  0
TEXT
  8
0
 10
10.257
 20
40.913
 30
0.000
 40
1.456 
  1
0
 50
0.000 
  7
STANDARD
 72
2
 11
11.433
 21
40.913
 31
0.000
  0
POLYLINE
  8
2
 66
   1
  6
HIDDEN
  0
VERTEX
  8
2
  6
HIDDEN
 10
13.100
 20
51.800
 30
0.000
  0
VERTEX
  8
2
  6
HIDDEN
  10
14.300
  20
51.800
  30
0.000
  0
SEQEND
  0
POLYLINE
  8
2
 66
   1
  6
HIDDEN
  0
VERTEX
  8
2
  6
HIDDEN
 10
115.633
 20
51.800
 30
0.000
  0
VERTEX
  8
2
  6
HIDDEN
  10
114.433
  20
51.800
  30
0.000
  0
SEQEND
  0
TEXT
  8
0
 10
7.905 
 20
51.280
 30
0.000
 40
1.456 
  1
0.5
 50
0.000 
  7
STANDARD
 72
2
 11
11.433
 21
51.280
 31
0.000
  0
POLYLINE
  8
2
 66
   1
  6
HIDDEN
  0
VERTEX
  8
2
  6
HIDDEN
 10
13.100
 20
62.167
 30
0.000
  0
VERTEX
  8
2
  6
HIDDEN
  10
14.300
  20
62.167
  30
0.000
  0
SEQEND
  0
POLYLINE
  8
2
 66
   1
  6
HIDDEN
  0
VERTEX
  8
2
  6
HIDDEN
 10
115.633
 20
62.167
 30
0.000
  0
VERTEX
  8
2
  6
HIDDEN
  10
114.433
  20
62.167
  30
0.000
  0
SEQEND
  0
TEXT
  8
0
 10
7.905 
 20
61.647
 30
0.000
 40
1.456 
  1
1.0
 50
0.000 
  7
STANDARD
 72
2
 11
11.433
 21
61.647
 31
0.000
  0
POLYLINE
  8
2
 66
   1
  6
HIDDEN
  0
VERTEX
  8
2
  6
HIDDEN
 10
13.100
 20
72.517
 30
0.000
  0
VERTEX
  8
2
  6
HIDDEN
  10
14.300
  20
72.517
  30
0.000
  0
SEQEND
  0
POLYLINE
  8
2
 66
   1
  6
HIDDEN
  0
VERTEX
  8
2
  6
HIDDEN
 10
115.633
 20
72.517
 30
0.000
  0
VERTEX
  8
2
  6
HIDDEN
  10
114.433
  20
72.517
  30
0.000
  0
SEQEND
  0
TEXT
  8
0
 10
9.081 
 20
71.997
 30
0.000
 40
1.456 
  1
g3
 50
0.000 
  7
STANDARD
 72
2
 11
11.433
 21
71.997
 31
0.000
  0
POLYLINE
  8
1
 66
   1
  6
DASHED
  0
VERTEX
  8
1
  6
DASHED
 10
13.100
 20
6.200 
 30
0.000
  0
VERTEX
  8
1
  6
DASHED
  10
13.100
  20
76.667
  30
0.000
  0
SEQEND
  0
POLYLINE
  8
2
 66
   1
  6
HIDDEN
  0
VERTEX
  8
2
  6
HIDDEN
 10
13.100
 20
6.200 
 30
0.000
  0
VERTEX
  8
2
  6
HIDDEN
  10
13.100
  20
7.000 
  30
0.000
  0
SEQEND
  0
POLYLINE
  8
2
 66
   1
  6
HIDDEN
  0
VERTEX
  8
2
  6
HIDDEN
 10
13.100
 20
76.667
 30
0.000
  0
VERTEX
  8
2
  6
HIDDEN
  10
13.100
  20
75.867
  30
0.000
  0
SEQEND
  0
POLYLINE
  8
1
 66
   1
  6
DASHED
  0
VERTEX
  8
1
  6
DASHED
 10
30.183
 20
6.200 
 30
0.000
  0
VERTEX
  8
1
  6
DASHED
  10
30.183
  20
76.667
  30
0.000
  0
SEQEND
  0
POLYLINE
  8
2
 66
   1
  6
HIDDEN
  0
VERTEX
  8
2
  6
HIDDEN
 10
30.183
 20
6.200 
 30
0.000
  0
VERTEX
  8
2
  6
HIDDEN
  10
30.183
  20
7.000 
  30
0.000
  0
SEQEND
  0
POLYLINE
  8
2
 66
   1
  6
HIDDEN
  0
VERTEX
  8
2
  6
HIDDEN
 10
30.183
 20
76.667
 30
0.000
  0
VERTEX
  8
2
  6
HIDDEN
  10
30.183
  20
75.867
  30
0.000
  0
SEQEND
  0
POLYLINE
  8
1
 66
   1
  6
DASHED
  0
VERTEX
  8
1
  6
DASHED
 10
55.817
 20
6.200 
 30
0.000
  0
VERTEX
  8
1
  6
DASHED
  10
55.817
  20
76.667
  30
0.000
  0
SEQEND
  0
POLYLINE
  8
2
 66
   1
  6
HIDDEN
  0
VERTEX
  8
2
  6
HIDDEN
 10
55.817
 20
6.200 
 30
0.000
  0
VERTEX
  8
2
  6
HIDDEN
  10
55.817
  20
7.000 
  30
0.000
  0
SEQEND
  0
POLYLINE
  8
2
 66
   1
  6
HIDDEN
  0
VERTEX
  8
2
  6
HIDDEN
 10
55.817
 20
76.667
 30
0.000
  0
VERTEX
  8
2
  6
HIDDEN
  10
55.817
  20
75.867
  30
0.000
  0
SEQEND
  0
POLYLINE
  8
1
 66
   1
  6
DASHED
  0
VERTEX
  8
1
  6
DASHED
 10
64.367
 20
6.200 
 30
0.000
  0
VERTEX
  8
1
  6
DASHED
  10
64.367
  20
76.667
  30
0.000
  0
SEQEND
  0
POLYLINE
  8
2
 66
   1
  6
HIDDEN
  0
VERTEX
  8
2
  6
HIDDEN
 10
64.367
 20
6.200 
 30
0.000
  0
VERTEX
  8
2
  6
HIDDEN
  10
64.367
  20
7.000 
  30
0.000
  0
SEQEND
  0
POLYLINE
  8
2
 66
   1
  6
HIDDEN
  0
VERTEX
  8
2
  6
HIDDEN
 10
64.367
 20
76.667
 30
0.000
  0
VERTEX
  8
2
  6
HIDDEN
  10
64.367
  20
75.867
  30
0.000
  0
SEQEND
  0
TEXT
  8
0
 10
63.779
 20
3.613 
 30
0.000
 40
1.456 
  1
0
 50
0.000 
  7
STANDARD
 72
1
 11
64.367
 21
3.613 
 31
0.000
  0
POLYLINE
  8
1
 66
   1
  6
DASHED
  0
VERTEX
  8
1
  6
DASHED
 10
72.917
 20
6.200 
 30
0.000
  0
VERTEX
  8
1
  6
DASHED
  10
72.917
  20
73.800
  30
0.000
  0
SEQEND
  0
POLYLINE
  8
1
 66
   1
  6
DASHED
  0
VERTEX
  8
1
  6
DASHED
 10
72.917
 20
75.867
 30
0.000
  0
VERTEX
  8
1
  6
DASHED
  10
72.917
  20
76.667
  30
0.000
  0
SEQEND
  0
POLYLINE
  8
2
 66
   1
  6
HIDDEN
  0
VERTEX
  8
2
  6
HIDDEN
 10
72.917
 20
6.200 
 30
0.000
  0
VERTEX
  8
2
  6
HIDDEN
  10
72.917
  20
7.000 
  30
0.000
  0
SEQEND
  0
POLYLINE
  8
2
 66
   1
  6
HIDDEN
  0
VERTEX
  8
2
  6
HIDDEN
 10
72.917
 20
76.667
 30
0.000
  0
VERTEX
  8
2
  6
HIDDEN
  10
72.917
  20
75.867
  30
0.000
  0
SEQEND
  0
POLYLINE
  8
1
 66
   1
  6
DASHED
  0
VERTEX
  8
1
  6
DASHED
 10
98.550
 20
6.200 
 30
0.000
  0
VERTEX
  8
1
  6
DASHED
  10
98.550
  20
73.800
  30
0.000
  0
SEQEND
  0
POLYLINE
  8
1
 66
   1
  6
DASHED
  0
VERTEX
  8
1
  6
DASHED
 10
98.550
 20
75.867
 30
0.000
  0
VERTEX
  8
1
  6
DASHED
  10
98.550
  20
76.667
  30
0.000
  0
SEQEND
  0
POLYLINE
  8
2
 66
   1
  6
HIDDEN
  0
VERTEX
  8
2
  6
HIDDEN
 10
98.550
 20
6.200 
 30
0.000
  0
VERTEX
  8
2
  6
HIDDEN
  10
98.550
  20
7.000 
  30
0.000
  0
SEQEND
  0
POLYLINE
  8
2
 66
   1
  6
HIDDEN
  0
VERTEX
  8
2
  6
HIDDEN
 10
98.550
 20
76.667
 30
0.000
  0
VERTEX
  8
2
  6
HIDDEN
  10
98.550
  20
75.867
  30
0.000
  0
SEQEND
  0
TEXT
  8
0
 10
96.198
 20
3.613 
 30
0.000
 40
1.456 
  1
1/30
 50
0.000 
  7
STANDARD
 72
1
 11
98.550
 21
3.613 
 31
0.000
  0
POLYLINE
  8
1
 66
   1
  6
DASHED
  0
VERTEX
  8
1
  6
DASHED
 10
115.633
 20
6.200 
 30
0.000
  0
VERTEX
  8
1
  6
DASHED
  10
115.633
  20
76.667
  30
0.000
  0
SEQEND
  0
POLYLINE
  8
2
 66
   1
  6
HIDDEN
  0
VERTEX
  8
2
  6
HIDDEN
 10
115.633
 20
6.200 
 30
0.000
  0
VERTEX
  8
2
  6
HIDDEN
  10
115.633
  20
7.000 
  30
0.000
  0
SEQEND
  0
POLYLINE
  8
2
 66
   1
  6
HIDDEN
  0
VERTEX
  8
2
  6
HIDDEN
 10
115.633
 20
76.667
 30
0.000
  0
VERTEX
  8
2
  6
HIDDEN
  10
115.633
  20
75.867
  30
0.000
  0
SEQEND
  0
TEXT
  8
0
 10
113.281
 20
3.613 
 30
0.000
 40
1.456 
  1
1/20
 50
0.000 
  7
STANDARD
 72
1
 11
115.633
 21
3.613 
 31
0.000
  0
POLYLINE
  8
1
 66
   1
  6
DASHED
  0
VERTEX
  8
1
  6
DASHED
 10
13.100
 20
41.433
 30
0.000
  0
VERTEX
  8
1
  6
DASHED
  10
115.633
  20
41.433
  30
0.000
  0
SEQEND
  0
POLYLINE
  8
1
 66
   1
  6
DASHED
  0
VERTEX
  8
1
  6
DASHED
 10
64.367
 20
6.200 
 30
0.000
  0
VERTEX
  8
1
  6
DASHED
  10
64.367
  20
76.667
  30
0.000
  0
SEQEND
  0
POLYLINE
  8
2
 66
   1
  6
HIDDEN
  0
VERTEX
  8
2
  6
HIDDEN
 10
13.100
 20
6.200 
 30
0.000
  0
VERTEX
  8
2
  6
HIDDEN
  10
115.633
  20
6.200 
  30
0.000
  0
VERTEX
  8
2
  6
HIDDEN
  10
115.633
  20
76.667
  30
0.000
  0
VERTEX
  8
2
  6
HIDDEN
  10
13.100
  20
76.667
  30
0.000
  0
VERTEX
  8
2
  6
HIDDEN
  10
13.100
  20
6.200 
  30
0.000
  0
SEQEND
  0
TEXT
  8
0
 10
2.587 
 20
24.969
 30
0.000
 40
1.456 
  1
standardized restoring force
 50
90.000
  7
STANDARD
 72
1
 11
2.587 
 21
41.433
 31
0.000
  0
TEXT
  8
0
 10
47.315
 20
0.513 
 30
0.000
 40
1.456 
  1
story deformation angle (rad)
 50
0.000 
  7
STANDARD
 72
1
 11
64.367
 21
0.513 
 31
0.000
  0
POLYLINE
  8
0
 66
   1
  6
CONTINUOUS
  0
VERTEX
  8
0
  6
CONTINUOUS
 10
64.367
 20
41.433
 30
0.000
  0
VERTEX
  8
0
  6
CONTINUOUS
  10
65.433
  20
51.800
  30
0.000
  0
SEQEND
  0
POLYLINE
  8
0
 66
   1
  6
CONTINUOUS
  0
VERTEX
  8
0
  6
CONTINUOUS
 10
65.750
 20
49.817
 30
0.000
  0
VERTEX
  8
0
  6
CONTINUOUS
  10
65.433
  20
51.800
  30
0.000
  0
VERTEX
  8
0
  6
CONTINUOUS
  10
64.717
  20
49.917
  30
0.000
  0
SEQEND
  0
POLYLINE
  8
0
 66
   1
  6
CONTINUOUS
  0
VERTEX
  8
0
  6
CONTINUOUS
 10
65.433
 20
51.800
 30
0.000
  0
VERTEX
  8
0
  6
CONTINUOUS
  10
72.917
  20
62.167
  30
0.000
  0
SEQEND
  0
POLYLINE
  8
0
 66
   1
  6
CONTINUOUS
  0
VERTEX
  8
0
  6
CONTINUOUS
 10
72.200
 20
60.283
 30
0.000
  0
VERTEX
  8
0
  6
CONTINUOUS
  10
72.917
  20
62.167
  30
0.000
  0
VERTEX
  8
0
  6
CONTINUOUS
  10
71.350
  20
60.900
  30
0.000
  0
SEQEND
  0
POLYLINE
  8
0
 66
   1
  6
CONTINUOUS
  0
VERTEX
  8
0
  6
CONTINUOUS
 10
72.917
 20
62.167
 30
0.000
  0
VERTEX
  8
0
  6
CONTINUOUS
  10
98.550
  20
72.517
  30
0.000
  0
SEQEND
  0
POLYLINE
  8
0
 66
   1
  6
CONTINUOUS
  0
VERTEX
  8
0
  6
CONTINUOUS
 10
96.950
 20
71.300
 30
0.000
  0
VERTEX
  8
0
  6
CONTINUOUS
  10
98.550
  20
72.517
  30
0.000
  0
VERTEX
  8
0
  6
CONTINUOUS
  10
96.550
  20
72.267
  30
0.000
  0
SEQEND
  0
POLYLINE
  8
0
 66
   1
  6
CONTINUOUS
  0
VERTEX
  8
0
  6
CONTINUOUS
 10
98.550
 20
72.517
 30
0.000
  0
VERTEX
  8
0
  6
CONTINUOUS
  10
105.383
  20
72.517
  30
0.000
  0
SEQEND
  0
POLYLINE
  8
0
 66
   1
  6
CONTINUOUS
  0
VERTEX
  8
0
  6
CONTINUOUS
 10
103.450
 20
71.983
 30
0.000
  0
VERTEX
  8
0
  6
CONTINUOUS
  10
105.383
  20
72.517
  30
0.000
  0
VERTEX
  8
0
  6
CONTINUOUS
  10
103.450
  20
73.033
  30
0.000
  0
SEQEND
  0
POLYLINE
  8
0
 66
   1
  6
CONTINUOUS
  0
VERTEX
  8
0
  6
CONTINUOUS
 10
105.383
 20
72.517
 30
0.000
  0
VERTEX
  8
0
  6
CONTINUOUS
  10
103.250
  20
51.800
  30
0.000
  0
SEQEND
  0
POLYLINE
  8
0
 66
   1
  6
CONTINUOUS
  0
VERTEX
  8
0
  6
CONTINUOUS
 10
102.917
 20
53.767
 30
0.000
  0
VERTEX
  8
0
  6
CONTINUOUS
  10
103.250
  20
51.800
  30
0.000
  0
VERTEX
  8
0
  6
CONTINUOUS
  10
103.950
  20
53.667
  30
0.000
  0
SEQEND
  0
POLYLINE
  8
0
 66
   1
  6
CONTINUOUS
  0
VERTEX
  8
0
  6
CONTINUOUS
 10
103.250
 20
51.800
 30
0.000
  0
VERTEX
  8
0
  6
CONTINUOUS
  10
88.283
  20
31.067
  30
0.000
  0
SEQEND
  0
POLYLINE
  8
0
 66
   1
  6
CONTINUOUS
  0
VERTEX
  8
0
  6
CONTINUOUS
 10
88.983
 20
32.933
 30
0.000
  0
VERTEX
  8
0
  6
CONTINUOUS
  10
88.283
  20
31.067
  30
0.000
  0
VERTEX
  8
0
  6
CONTINUOUS
  10
89.833
  20
32.317
  30
0.000
  0
SEQEND
  0
POLYLINE
  8
0
 66
   1
  6
CONTINUOUS
  0
VERTEX
  8
0
  6
CONTINUOUS
 10
88.283
 20
31.067
 30
0.000
  0
VERTEX
  8
0
  6
CONTINUOUS
  10
49.833
  20
15.533
  30
0.000
  0
SEQEND
  0
POLYLINE
  8
0
 66
   1
  6
CONTINUOUS
  0
VERTEX
  8
0
  6
CONTINUOUS
 10
51.417
 20
16.733
 30
0.000
  0
VERTEX
  8
0
  6
CONTINUOUS
  10
49.833
  20
15.533
  30
0.000
  0
VERTEX
  8
0
  6
CONTINUOUS
  10
51.817
  20
15.767
  30
0.000
  0
SEQEND
  0
POLYLINE
  8
0
 66
   1
  6
CONTINUOUS
  0
VERTEX
  8
0
  6
CONTINUOUS
 10
49.833
 20
15.533
 30
0.000
  0
VERTEX
  8
0
  6
CONTINUOUS
  10
49.833
  20
15.533
  30
0.000
  0
SEQEND
  0
POLYLINE
  8
0
 66
   1
  6
CONTINUOUS
  0
VERTEX
  8
0
  6
CONTINUOUS
 10
49.833
 20
15.533
 30
0.000
  0
VERTEX
  8
0
  6
CONTINUOUS
  10
51.983
  20
36.250
  30
0.000
  0
SEQEND
  0
POLYLINE
  8
0
 66
   1
  6
CONTINUOUS
  0
VERTEX
  8
0
  6
CONTINUOUS
 10
52.283
 20
34.267
 30
0.000
  0
VERTEX
  8
0
  6
CONTINUOUS
  10
51.983
  20
36.250
  30
0.000
  0
VERTEX
  8
0
  6
CONTINUOUS
  10
51.267
  20
34.367
  30
0.000
  0
SEQEND
  0
POLYLINE
  8
0
 66
   1
  6
CONTINUOUS
  0
VERTEX
  8
0
  6
CONTINUOUS
 10
51.983
 20
36.250
 30
0.000
  0
VERTEX
  8
0
  6
CONTINUOUS
  10
66.933
  20
56.983
  30
0.000
  0
SEQEND
  0
POLYLINE
  8
0
 66
   1
  6
CONTINUOUS
  0
VERTEX
  8
0
  6
CONTINUOUS
 10
66.217
 20
55.100
 30
0.000
  0
VERTEX
  8
0
  6
CONTINUOUS
  10
66.933
  20
56.983
  30
0.000
  0
VERTEX
  8
0
  6
CONTINUOUS
  10
65.383
  20
55.717
  30
0.000
  0
SEQEND
  0
POLYLINE
  8
0
 66
   1
  6
CONTINUOUS
  0
VERTEX
  8
0
  6
CONTINUOUS
 10
66.933
 20
56.983
 30
0.000
  0
VERTEX
  8
0
  6
CONTINUOUS
  10
97.683
  20
69.417
  30
0.000
  0
SEQEND
  0
POLYLINE
  8
0
 66
   1
  6
CONTINUOUS
  0
VERTEX
  8
0
  6
CONTINUOUS
 10
96.083
 20
68.200
 30
0.000
  0
VERTEX
  8
0
  6
CONTINUOUS
  10
97.683
  20
69.417
  30
0.000
  0
VERTEX
  8
0
  6
CONTINUOUS
  10
95.683
  20
69.167
  30
0.000
  0
SEQEND
  0
TEXT
  8
0
 10
78.071
 20
74.313
 30
0.000
 40
1.456 
  1
Quadri-linear element
 50
0.000 
  7
STANDARD
 72
2
 11
102.767
 21
74.313
 31
0.000
  0
POLYLINE
  8
0
 66
   1
  6
CONTINUOUS
  0
VERTEX
  8
0
  6
CONTINUOUS
 10
104.433
 20
74.833
 30
0.000
  0
VERTEX
  8
0
  6
CONTINUOUS
  10
112.300
  20
74.833
  30
0.000
  0
SEQEND
  0
POLYLINE
  8
0
 66
   1
  6
CONTINUOUS
  0
VERTEX
  8
0
  6
CONTINUOUS
 10
64.367
 20
41.433
 30
0.000
  0
VERTEX
  8
0
  6
CONTINUOUS
  10
64.367
  20
41.433
  30
0.000
  0
VERTEX
  8
0
  6
CONTINUOUS
  10
65.433
  20
51.800
  30
0.000
  0
VERTEX
  8
0
  6
CONTINUOUS
  10
72.917
  20
62.167
  30
0.000
  0
VERTEX
  8
0
  6
CONTINUOUS
  10
98.550
  20
72.517
  30
0.000
  0
VERTEX
  8
0
  6
CONTINUOUS
  10
105.383
  20
72.517
  30
0.000
  0
VERTEX
  8
0
  6
CONTINUOUS
  10
103.250
  20
51.800
  30
0.000
  0
VERTEX
  8
0
  6
CONTINUOUS
  10
88.283
  20
31.067
  30
0.000
  0
VERTEX
  8
0
  6
CONTINUOUS
  10
49.833
  20
15.533
  30
0.000
  0
VERTEX
  8
0
  6
CONTINUOUS
  10
49.833
  20
15.533
  30
0.000
  0
VERTEX
  8
0
  6
CONTINUOUS
  10
51.983
  20
36.250
  30
0.000
  0
VERTEX
  8
0
  6
CONTINUOUS
  10
66.933
  20
56.983
  30
0.000
  0
VERTEX
  8
0
  6
CONTINUOUS
  10
97.683
  20
69.417
  30
0.000
  0
SEQEND
  0
ENDSEC
  0
EOF
