999
% GNUPLOT: dxf file for AutoCad
  0
SECTION
  2
HEADER
  9
$EXTMIN
 10
0.000
 20
0.000
  9
$EXTMAX
 10
120.000
 20
80.000
  9
$LIMMIN
 10
0.000
 20
0.000
  9
$LIMMAX
 10
120.000
 20
80.000
  9
$TEXTSTYLE
  7
STANDARD
  9
$TEXTSIZE
 40
1.456 
  9
$PLINEWID
 40
0.0351
  9
$LTSCALE
  40
1.000 
  9
$COORDS
 70
  1
  9
$CELTYPE
 6
BYLAYER
  9
$CLAYER
  8
0
  9
$CECOLOR
 62
   7
  9
$MENU
  1
acad
  0
ENDSEC
  0
SECTION
  2
TABLES
0
TABLE
  2
LTYPE
 70
    7
0
LTYPE
  2
CONTINUOUS
 70
    64
  3
Solid line
 72
    65
 73
      0
 40
0.0
  0
LTYPE
  2
DASHED
 70
    64
  3
__ __ __ __ __ __ __ __ __ __ __ __ __ __ __
 72
    65
 73
     2
 40
0.75
 49
0.5
 49
-0.25
  0
LTYPE
  2
HIDDEN
 70
    64
  3
_ _ _ _ _ _ _ _ _ _ _ _ _ _ _ _ _ _ _ _ _ _ _
 72
    65
 73
     2
 40
0.375
 49
0.25
 49
-0.125
  0
LTYPE
  2
CENTER
 70
    64
  3
____ _ ____ _ ____ _ ____ _ ____ _ ____ _ ____
 72
    65
 73
     4
 40
2.0
 49
1.25
 49
-0.25
 49
0.25
 49
-0.25
  0
LTYPE
  2
PHANTOM
 70
    64
  3
_____ _ _ _____ _ _ _____ _ _ _____ _ _ ____
 72
    65
 73
     6
 40
2.5
 49
1.25
 49
-0.25
 49
0.25
 49
-0.25
 49
0.25
 49
-0.25
  0
LTYPE
  2
DOT
 70
    64
  3
...............................................
 72
    65
 73
     2
 40
0.25
 49
0.0
 49
-0.25
  0
LTYPE
  2
DASHDOT
 70
    64
  3
__ . __ . __ . __ . __ . __ . __ . __ . __ . __
 72
    65
 73
     4
 40
1.0
 49
0.5
 49
-0.25
 49
0.0
 49
-0.25
  0
ENDTAB
  0
TABLE
  2
LAYER
 70
   7
  0
LAYER
  2
0
 70
   64
62
   7
  6
CONTINUOUS
  0
LAYER
  2
1
 70
   64
62
   1
  6
DASHED
  0
LAYER
  2
2
 70
   64
62
   2
  6
HIDDEN
  0
LAYER
  2
3
 70
   64
62
   3
  6
CENTER
  0
LAYER
  2
4
 70
   64
62
   4
  6
PHANTOM
  0
LAYER
  2
5
 70
   64
62
   5
  6
DOT
  0
LAYER
  2
6
 70
   64
62
   6
  6
DASHDOT
  0
ENDTAB
0
ENDSEC
  0
SECTION
  2
BLOCKS
  0
ENDSEC
  0
SECTION
  2
ENTITIES
  0
POLYLINE
  8
2
 66
   1
  6
HIDDEN
  0
VERTEX
  8
2
  6
HIDDEN
 10
13.100
 20
6.200 
 30
0.000
  0
VERTEX
  8
2
  6
HIDDEN
  10
14.300
  20
6.200 
  30
0.000
  0
SEQEND
  0
POLYLINE
  8
2
 66
   1
  6
HIDDEN
  0
VERTEX
  8
2
  6
HIDDEN
 10
115.633
 20
6.200 
 30
0.000
  0
VERTEX
  8
2
  6
HIDDEN
  10
114.433
  20
6.200 
  30
0.000
  0
SEQEND
  0
POLYLINE
  8
2
 66
   1
  6
HIDDEN
  0
VERTEX
  8
2
  6
HIDDEN
 10
13.100
 20
17.950
 30
0.000
  0
VERTEX
  8
2
  6
HIDDEN
  10
14.300
  20
17.950
  30
0.000
  0
SEQEND
  0
POLYLINE
  8
2
 66
   1
  6
HIDDEN
  0
VERTEX
  8
2
  6
HIDDEN
 10
115.633
 20
17.950
 30
0.000
  0
VERTEX
  8
2
  6
HIDDEN
  10
114.433
  20
17.950
  30
0.000
  0
SEQEND
  0
TEXT
  8
0
 10
6.729 
 20
17.430
 30
0.000
 40
1.456 
  1
-1.0
 50
0.000 
  7
STANDARD
 72
2
 11
11.433
 21
17.430
 31
0.000
  0
POLYLINE
  8
2
 66
   1
  6
HIDDEN
  0
VERTEX
  8
2
  6
HIDDEN
 10
13.100
 20
29.683
 30
0.000
  0
VERTEX
  8
2
  6
HIDDEN
  10
14.300
  20
29.683
  30
0.000
  0
SEQEND
  0
POLYLINE
  8
2
 66
   1
  6
HIDDEN
  0
VERTEX
  8
2
  6
HIDDEN
 10
115.633
 20
29.683
 30
0.000
  0
VERTEX
  8
2
  6
HIDDEN
  10
114.433
  20
29.683
  30
0.000
  0
SEQEND
  0
TEXT
  8
0
 10
6.729 
 20
29.163
 30
0.000
 40
1.456 
  1
-0.5
 50
0.000 
  7
STANDARD
 72
2
 11
11.433
 21
29.163
 31
0.000
  0
POLYLINE
  8
2
 66
   1
  6
HIDDEN
  0
VERTEX
  8
2
  6
HIDDEN
 10
13.100
 20
41.433
 30
0.000
  0
VERTEX
  8
2
  6
HIDDEN
  10
14.300
  20
41.433
  30
0.000
  0
SEQEND
  0
POLYLINE
  8
2
 66
   1
  6
HIDDEN
  0
VERTEX
  8
2
  6
HIDDEN
 10
115.633
 20
41.433
 30
0.000
  0
VERTEX
  8
2
  6
HIDDEN
  10
114.433
  20
41.433
  30
0.000
  0
SEQEND
  0
TEXT
  8
0
 10
10.257
 20
40.913
 30
0.000
 40
1.456 
  1
0
 50
0.000 
  7
STANDARD
 72
2
 11
11.433
 21
40.913
 31
0.000
  0
POLYLINE
  8
2
 66
   1
  6
HIDDEN
  0
VERTEX
  8
2
  6
HIDDEN
 10
13.100
 20
53.183
 30
0.000
  0
VERTEX
  8
2
  6
HIDDEN
  10
14.300
  20
53.183
  30
0.000
  0
SEQEND
  0
POLYLINE
  8
2
 66
   1
  6
HIDDEN
  0
VERTEX
  8
2
  6
HIDDEN
 10
115.633
 20
53.183
 30
0.000
  0
VERTEX
  8
2
  6
HIDDEN
  10
114.433
  20
53.183
  30
0.000
  0
SEQEND
  0
TEXT
  8
0
 10
7.905 
 20
52.663
 30
0.000
 40
1.456 
  1
0.5
 50
0.000 
  7
STANDARD
 72
2
 11
11.433
 21
52.663
 31
0.000
  0
POLYLINE
  8
2
 66
   1
  6
HIDDEN
  0
VERTEX
  8
2
  6
HIDDEN
 10
13.100
 20
64.917
 30
0.000
  0
VERTEX
  8
2
  6
HIDDEN
  10
14.300
  20
64.917
  30
0.000
  0
SEQEND
  0
POLYLINE
  8
2
 66
   1
  6
HIDDEN
  0
VERTEX
  8
2
  6
HIDDEN
 10
115.633
 20
64.917
 30
0.000
  0
VERTEX
  8
2
  6
HIDDEN
  10
114.433
  20
64.917
  30
0.000
  0
SEQEND
  0
TEXT
  8
0
 10
7.905 
 20
64.397
 30
0.000
 40
1.456 
  1
1.0
 50
0.000 
  7
STANDARD
 72
2
 11
11.433
 21
64.397
 31
0.000
  0
POLYLINE
  8
2
 66
   1
  6
HIDDEN
  0
VERTEX
  8
2
  6
HIDDEN
 10
13.100
 20
76.667
 30
0.000
  0
VERTEX
  8
2
  6
HIDDEN
  10
14.300
  20
76.667
  30
0.000
  0
SEQEND
  0
POLYLINE
  8
2
 66
   1
  6
HIDDEN
  0
VERTEX
  8
2
  6
HIDDEN
 10
115.633
 20
76.667
 30
0.000
  0
VERTEX
  8
2
  6
HIDDEN
  10
114.433
  20
76.667
  30
0.000
  0
SEQEND
  0
POLYLINE
  8
1
 66
   1
  6
DASHED
  0
VERTEX
  8
1
  6
DASHED
 10
13.100
 20
6.200 
 30
0.000
  0
VERTEX
  8
1
  6
DASHED
  10
13.100
  20
76.667
  30
0.000
  0
SEQEND
  0
POLYLINE
  8
2
 66
   1
  6
HIDDEN
  0
VERTEX
  8
2
  6
HIDDEN
 10
13.100
 20
6.200 
 30
0.000
  0
VERTEX
  8
2
  6
HIDDEN
  10
13.100
  20
7.000 
  30
0.000
  0
SEQEND
  0
POLYLINE
  8
2
 66
   1
  6
HIDDEN
  0
VERTEX
  8
2
  6
HIDDEN
 10
13.100
 20
76.667
 30
0.000
  0
VERTEX
  8
2
  6
HIDDEN
  10
13.100
  20
75.867
  30
0.000
  0
SEQEND
  0
POLYLINE
  8
1
 66
   1
  6
DASHED
  0
VERTEX
  8
1
  6
DASHED
 10
30.183
 20
6.200 
 30
0.000
  0
VERTEX
  8
1
  6
DASHED
  10
30.183
  20
76.667
  30
0.000
  0
SEQEND
  0
POLYLINE
  8
2
 66
   1
  6
HIDDEN
  0
VERTEX
  8
2
  6
HIDDEN
 10
30.183
 20
6.200 
 30
0.000
  0
VERTEX
  8
2
  6
HIDDEN
  10
30.183
  20
7.000 
  30
0.000
  0
SEQEND
  0
POLYLINE
  8
2
 66
   1
  6
HIDDEN
  0
VERTEX
  8
2
  6
HIDDEN
 10
30.183
 20
76.667
 30
0.000
  0
VERTEX
  8
2
  6
HIDDEN
  10
30.183
  20
75.867
  30
0.000
  0
SEQEND
  0
POLYLINE
  8
1
 66
   1
  6
DASHED
  0
VERTEX
  8
1
  6
DASHED
 10
55.817
 20
6.200 
 30
0.000
  0
VERTEX
  8
1
  6
DASHED
  10
55.817
  20
76.667
  30
0.000
  0
SEQEND
  0
POLYLINE
  8
2
 66
   1
  6
HIDDEN
  0
VERTEX
  8
2
  6
HIDDEN
 10
55.817
 20
6.200 
 30
0.000
  0
VERTEX
  8
2
  6
HIDDEN
  10
55.817
  20
7.000 
  30
0.000
  0
SEQEND
  0
POLYLINE
  8
2
 66
   1
  6
HIDDEN
  0
VERTEX
  8
2
  6
HIDDEN
 10
55.817
 20
76.667
 30
0.000
  0
VERTEX
  8
2
  6
HIDDEN
  10
55.817
  20
75.867
  30
0.000
  0
SEQEND
  0
POLYLINE
  8
1
 66
   1
  6
DASHED
  0
VERTEX
  8
1
  6
DASHED
 10
64.367
 20
6.200 
 30
0.000
  0
VERTEX
  8
1
  6
DASHED
  10
64.367
  20
76.667
  30
0.000
  0
SEQEND
  0
POLYLINE
  8
2
 66
   1
  6
HIDDEN
  0
VERTEX
  8
2
  6
HIDDEN
 10
64.367
 20
6.200 
 30
0.000
  0
VERTEX
  8
2
  6
HIDDEN
  10
64.367
  20
7.000 
  30
0.000
  0
SEQEND
  0
POLYLINE
  8
2
 66
   1
  6
HIDDEN
  0
VERTEX
  8
2
  6
HIDDEN
 10
64.367
 20
76.667
 30
0.000
  0
VERTEX
  8
2
  6
HIDDEN
  10
64.367
  20
75.867
  30
0.000
  0
SEQEND
  0
TEXT
  8
0
 10
63.779
 20
3.613 
 30
0.000
 40
1.456 
  1
0
 50
0.000 
  7
STANDARD
 72
1
 11
64.367
 21
3.613 
 31
0.000
  0
POLYLINE
  8
1
 66
   1
  6
DASHED
  0
VERTEX
  8
1
  6
DASHED
 10
72.917
 20
6.200 
 30
0.000
  0
VERTEX
  8
1
  6
DASHED
  10
72.917
  20
76.667
  30
0.000
  0
SEQEND
  0
POLYLINE
  8
2
 66
   1
  6
HIDDEN
  0
VERTEX
  8
2
  6
HIDDEN
 10
72.917
 20
6.200 
 30
0.000
  0
VERTEX
  8
2
  6
HIDDEN
  10
72.917
  20
7.000 
  30
0.000
  0
SEQEND
  0
POLYLINE
  8
2
 66
   1
  6
HIDDEN
  0
VERTEX
  8
2
  6
HIDDEN
 10
72.917
 20
76.667
 30
0.000
  0
VERTEX
  8
2
  6
HIDDEN
  10
72.917
  20
75.867
  30
0.000
  0
SEQEND
  0
POLYLINE
  8
1
 66
   1
  6
DASHED
  0
VERTEX
  8
1
  6
DASHED
 10
98.550
 20
6.200 
 30
0.000
  0
VERTEX
  8
1
  6
DASHED
  10
98.550
  20
73.800
  30
0.000
  0
SEQEND
  0
POLYLINE
  8
1
 66
   1
  6
DASHED
  0
VERTEX
  8
1
  6
DASHED
 10
98.550
 20
75.867
 30
0.000
  0
VERTEX
  8
1
  6
DASHED
  10
98.550
  20
76.667
  30
0.000
  0
SEQEND
  0
POLYLINE
  8
2
 66
   1
  6
HIDDEN
  0
VERTEX
  8
2
  6
HIDDEN
 10
98.550
 20
6.200 
 30
0.000
  0
VERTEX
  8
2
  6
HIDDEN
  10
98.550
  20
7.000 
  30
0.000
  0
SEQEND
  0
POLYLINE
  8
2
 66
   1
  6
HIDDEN
  0
VERTEX
  8
2
  6
HIDDEN
 10
98.550
 20
76.667
 30
0.000
  0
VERTEX
  8
2
  6
HIDDEN
  10
98.550
  20
75.867
  30
0.000
  0
SEQEND
  0
TEXT
  8
0
 10
96.198
 20
3.613 
 30
0.000
 40
1.456 
  1
1/30
 50
0.000 
  7
STANDARD
 72
1
 11
98.550
 21
3.613 
 31
0.000
  0
POLYLINE
  8
1
 66
   1
  6
DASHED
  0
VERTEX
  8
1
  6
DASHED
 10
115.633
 20
6.200 
 30
0.000
  0
VERTEX
  8
1
  6
DASHED
  10
115.633
  20
76.667
  30
0.000
  0
SEQEND
  0
POLYLINE
  8
2
 66
   1
  6
HIDDEN
  0
VERTEX
  8
2
  6
HIDDEN
 10
115.633
 20
6.200 
 30
0.000
  0
VERTEX
  8
2
  6
HIDDEN
  10
115.633
  20
7.000 
  30
0.000
  0
SEQEND
  0
POLYLINE
  8
2
 66
   1
  6
HIDDEN
  0
VERTEX
  8
2
  6
HIDDEN
 10
115.633
 20
76.667
 30
0.000
  0
VERTEX
  8
2
  6
HIDDEN
  10
115.633
  20
75.867
  30
0.000
  0
SEQEND
  0
TEXT
  8
0
 10
113.281
 20
3.613 
 30
0.000
 40
1.456 
  1
1/20
 50
0.000 
  7
STANDARD
 72
1
 11
115.633
 21
3.613 
 31
0.000
  0
POLYLINE
  8
1
 66
   1
  6
DASHED
  0
VERTEX
  8
1
  6
DASHED
 10
13.100
 20
41.433
 30
0.000
  0
VERTEX
  8
1
  6
DASHED
  10
115.633
  20
41.433
  30
0.000
  0
SEQEND
  0
POLYLINE
  8
1
 66
   1
  6
DASHED
  0
VERTEX
  8
1
  6
DASHED
 10
64.367
 20
6.200 
 30
0.000
  0
VERTEX
  8
1
  6
DASHED
  10
64.367
  20
76.667
  30
0.000
  0
SEQEND
  0
POLYLINE
  8
2
 66
   1
  6
HIDDEN
  0
VERTEX
  8
2
  6
HIDDEN
 10
13.100
 20
6.200 
 30
0.000
  0
VERTEX
  8
2
  6
HIDDEN
  10
115.633
  20
6.200 
  30
0.000
  0
VERTEX
  8
2
  6
HIDDEN
  10
115.633
  20
76.667
  30
0.000
  0
VERTEX
  8
2
  6
HIDDEN
  10
13.100
  20
76.667
  30
0.000
  0
VERTEX
  8
2
  6
HIDDEN
  10
13.100
  20
6.200 
  30
0.000
  0
SEQEND
  0
TEXT
  8
0
 10
2.587 
 20
24.969
 30
0.000
 40
1.456 
  1
standardized restoring force
 50
90.000
  7
STANDARD
 72
1
 11
2.587 
 21
41.433
 31
0.000
  0
TEXT
  8
0
 10
47.315
 20
0.513 
 30
0.000
 40
1.456 
  1
story deformation angle (rad)
 50
0.000 
  7
STANDARD
 72
1
 11
64.367
 21
0.513 
 31
0.000
  0
TEXT
  8
0
 10
69.977
 20
8.030 
 30
0.000
 40
1.456 
  1
1/120
 50
0.000 
  7
STANDARD
 72
1
 11
72.917
 21
8.030 
 31
0.000
  0
POLYLINE
  8
0
 66
   1
  6
CONTINUOUS
  0
VERTEX
  8
0
  6
CONTINUOUS
 10
67.217
 20
49.267
 30
0.000
  0
VERTEX
  8
0
  6
CONTINUOUS
  10
70.067
  20
57.100
  30
0.000
  0
SEQEND
  0
POLYLINE
  8
0
 66
   1
  6
CONTINUOUS
  0
VERTEX
  8
0
  6
CONTINUOUS
 10
69.883
 20
55.100
 30
0.000
  0
VERTEX
  8
0
  6
CONTINUOUS
  10
70.067
  20
57.100
  30
0.000
  0
VERTEX
  8
0
  6
CONTINUOUS
  10
68.917
  20
55.450
  30
0.000
  0
SEQEND
  0
POLYLINE
  8
0
 66
   1
  6
CONTINUOUS
  0
VERTEX
  8
0
  6
CONTINUOUS
 10
78.600
 20
64.917
 30
0.000
  0
VERTEX
  8
0
  6
CONTINUOUS
  10
90.000
  20
64.917
  30
0.000
  0
SEQEND
  0
POLYLINE
  8
0
 66
   1
  6
CONTINUOUS
  0
VERTEX
  8
0
  6
CONTINUOUS
 10
88.067
 20
64.383
 30
0.000
  0
VERTEX
  8
0
  6
CONTINUOUS
  10
90.000
  20
64.917
  30
0.000
  0
VERTEX
  8
0
  6
CONTINUOUS
  10
88.067
  20
65.433
  30
0.000
  0
SEQEND
  0
POLYLINE
  8
0
 66
   1
  6
CONTINUOUS
  0
VERTEX
  8
0
  6
CONTINUOUS
 10
98.550
 20
64.917
 30
0.000
  0
VERTEX
  8
0
  6
CONTINUOUS
  10
94.267
  20
53.183
  30
0.000
  0
SEQEND
  0
POLYLINE
  8
0
 66
   1
  6
CONTINUOUS
  0
VERTEX
  8
0
  6
CONTINUOUS
 10
94.433
 20
55.167
 30
0.000
  0
VERTEX
  8
0
  6
CONTINUOUS
  10
94.267
  20
53.183
  30
0.000
  0
VERTEX
  8
0
  6
CONTINUOUS
  10
95.400
  20
54.817
  30
0.000
  0
SEQEND
  0
POLYLINE
  8
0
 66
   1
  6
CONTINUOUS
  0
VERTEX
  8
0
  6
CONTINUOUS
 10
90.000
 20
41.433
 30
0.000
  0
VERTEX
  8
0
  6
CONTINUOUS
  10
77.183
  20
41.433
  30
0.000
  0
SEQEND
  0
POLYLINE
  8
0
 66
   1
  6
CONTINUOUS
  0
VERTEX
  8
0
  6
CONTINUOUS
 10
79.100
 20
41.950
 30
0.000
  0
VERTEX
  8
0
  6
CONTINUOUS
  10
77.183
  20
41.433
  30
0.000
  0
VERTEX
  8
0
  6
CONTINUOUS
  10
79.100
  20
40.900
  30
0.000
  0
SEQEND
  0
POLYLINE
  8
0
 66
   1
  6
CONTINUOUS
  0
VERTEX
  8
0
  6
CONTINUOUS
 10
61.517
 20
33.600
 30
0.000
  0
VERTEX
  8
0
  6
CONTINUOUS
  10
58.667
  20
25.767
  30
0.000
  0
SEQEND
  0
POLYLINE
  8
0
 66
   1
  6
CONTINUOUS
  0
VERTEX
  8
0
  6
CONTINUOUS
 10
58.833
 20
27.750
 30
0.000
  0
VERTEX
  8
0
  6
CONTINUOUS
  10
58.667
  20
25.767
  30
0.000
  0
VERTEX
  8
0
  6
CONTINUOUS
  10
59.800
  20
27.400
  30
0.000
  0
SEQEND
  0
POLYLINE
  8
0
 66
   1
  6
CONTINUOUS
  0
VERTEX
  8
0
  6
CONTINUOUS
 10
50.133
 20
17.950
 30
0.000
  0
VERTEX
  8
0
  6
CONTINUOUS
  10
38.733
  20
17.950
  30
0.000
  0
SEQEND
  0
POLYLINE
  8
0
 66
   1
  6
CONTINUOUS
  0
VERTEX
  8
0
  6
CONTINUOUS
 10
40.650
 20
18.467
 30
0.000
  0
VERTEX
  8
0
  6
CONTINUOUS
  10
38.733
  20
17.950
  30
0.000
  0
VERTEX
  8
0
  6
CONTINUOUS
  10
40.650
  20
17.417
  30
0.000
  0
SEQEND
  0
POLYLINE
  8
0
 66
   1
  6
CONTINUOUS
  0
VERTEX
  8
0
  6
CONTINUOUS
 10
30.183
 20
17.950
 30
0.000
  0
VERTEX
  8
0
  6
CONTINUOUS
  10
34.467
  20
29.683
  30
0.000
  0
SEQEND
  0
POLYLINE
  8
0
 66
   1
  6
CONTINUOUS
  0
VERTEX
  8
0
  6
CONTINUOUS
 10
34.283
 20
27.683
 30
0.000
  0
VERTEX
  8
0
  6
CONTINUOUS
  10
34.467
  20
29.683
  30
0.000
  0
VERTEX
  8
0
  6
CONTINUOUS
  10
33.317
  20
28.033
  30
0.000
  0
SEQEND
  0
POLYLINE
  8
0
 66
   1
  6
CONTINUOUS
  0
VERTEX
  8
0
  6
CONTINUOUS
 10
38.733
 20
41.433
 30
0.000
  0
VERTEX
  8
0
  6
CONTINUOUS
  10
51.550
  20
41.433
  30
0.000
  0
SEQEND
  0
POLYLINE
  8
0
 66
   1
  6
CONTINUOUS
  0
VERTEX
  8
0
  6
CONTINUOUS
 10
49.617
 20
40.900
 30
0.000
  0
VERTEX
  8
0
  6
CONTINUOUS
  10
51.550
  20
41.433
  30
0.000
  0
VERTEX
  8
0
  6
CONTINUOUS
  10
49.617
  20
41.950
  30
0.000
  0
SEQEND
  0
TEXT
  8
0
 10
88.655
 20
74.313
 30
0.000
 40
1.456 
  1
Slip element
 50
0.000 
  7
STANDARD
 72
2
 11
102.767
 21
74.313
 31
0.000
  0
POLYLINE
  8
0
 66
   1
  6
CONTINUOUS
  0
VERTEX
  8
0
  6
CONTINUOUS
 10
104.433
 20
74.833
 30
0.000
  0
VERTEX
  8
0
  6
CONTINUOUS
  10
112.300
  20
74.833
  30
0.000
  0
SEQEND
  0
POLYLINE
  8
0
 66
   1
  6
CONTINUOUS
  0
VERTEX
  8
0
  6
CONTINUOUS
 10
64.367
 20
41.433
 30
0.000
  0
VERTEX
  8
0
  6
CONTINUOUS
  10
64.367
  20
41.433
  30
0.000
  0
VERTEX
  8
0
  6
CONTINUOUS
  10
72.917
  20
64.917
  30
0.000
  0
VERTEX
  8
0
  6
CONTINUOUS
  10
98.550
  20
64.917
  30
0.000
  0
VERTEX
  8
0
  6
CONTINUOUS
  10
90.000
  20
41.433
  30
0.000
  0
VERTEX
  8
0
  6
CONTINUOUS
  10
64.367
  20
41.433
  30
0.000
  0
VERTEX
  8
0
  6
CONTINUOUS
  10
55.817
  20
17.950
  30
0.000
  0
VERTEX
  8
0
  6
CONTINUOUS
  10
30.183
  20
17.950
  30
0.000
  0
VERTEX
  8
0
  6
CONTINUOUS
  10
38.733
  20
41.433
  30
0.000
  0
VERTEX
  8
0
  6
CONTINUOUS
  10
64.367
  20
41.433
  30
0.000
  0
SEQEND
  0
ENDSEC
  0
EOF
