  0
SECTION
  2
HEADER
  9
$ACADVER
  1
AC1009
  9
$INSBASE
 10
0.0
 20
0.0
 30
0.0
  9
$EXTMIN
 10
0.039041
 20
-3.532577
 30
0.0
  9
$EXTMAX
 10
117.550929
 20
77.77299
 30
0.0
  9
$LIMMIN
 10
0.0
 20
0.0
  9
$LIMMAX
 10
120.0
 20
80.0
  9
$ORTHOMODE
 70
     0
  9
$REGENMODE
 70
     1
  9
$FILLMODE
 70
     1
  9
$QTEXTMODE
 70
     0
  9
$MIRRTEXT
 70
     1
  9
$DRAGMODE
 70
     2
  9
$LTSCALE
 40
1.0
  9
$OSMODE
 70
     0
  9
$ATTMODE
 70
     1
  9
$TEXTSIZE
 40
1.5
  9
$TRACEWID
 40
0.05
  9
$TEXTSTYLE
  7
STANDARD
  9
$CLAYER
  8
0
  9
$CELTYPE
  6
BYLAYER
  9
$CECOLOR
 62
     7
  9
$DIMSCALE
 40
1.0
  9
$DIMASZ
 40
2.0
  9
$DIMEXO
 40
0.0625
  9
$DIMDLI
 40
0.38
  9
$DIMRND
 40
0.0
  9
$DIMDLE
 40
0.0
  9
$DIMEXE
 40
0.18
  9
$DIMTP
 40
0.0
  9
$DIMTM
 40
0.0
  9
$DIMTXT
 40
0.18
  9
$DIMCEN
 40
0.09
  9
$DIMTSZ
 40
0.0
  9
$DIMTOL
 70
     0
  9
$DIMLIM
 70
     0
  9
$DIMTIH
 70
     1
  9
$DIMTOH
 70
     1
  9
$DIMSE1
 70
     0
  9
$DIMSE2
 70
     0
  9
$DIMTAD
 70
     0
  9
$DIMZIN
 70
     0
  9
$DIMBLK
  1

  9
$DIMASO
 70
     1
  9
$DIMSHO
 70
     1
  9
$DIMPOST
  1

  9
$DIMAPOST
  1

  9
$DIMALT
 70
     0
  9
$DIMALTD
 70
     2
  9
$DIMALTF
 40
25.4
  9
$DIMLFAC
 40
1.0
  9
$DIMTOFL
 70
     0
  9
$DIMTVP
 40
0.0
  9
$DIMTIX
 70
     0
  9
$DIMSOXD
 70
     0
  9
$DIMSAH
 70
     0
  9
$DIMBLK1
  1

  9
$DIMBLK2
  1

  9
$DIMSTYLE
  2
STANDARD
  9
$DIMCLRD
 70
     0
  9
$DIMCLRE
 70
     0
  9
$DIMCLRT
 70
     0
  9
$DIMTFAC
 40
1.0
  9
$DIMGAP
 40
0.09
  9
$LUNITS
 70
     2
  9
$LUPREC
 70
     4
  9
$SKETCHINC
 40
0.1
  9
$FILLETRAD
 40
0.0
  9
$AUNITS
 70
     0
  9
$AUPREC
 70
     0
  9
$MENU
  1
acad
  9
$ELEVATION
 40
0.0
  9
$PELEVATION
 40
0.0
  9
$THICKNESS
 40
0.0
  9
$LIMCHECK
 70
     0
  9
$BLIPMODE
 70
     0
  9
$CHAMFERA
 40
0.0
  9
$CHAMFERB
 40
0.0
  9
$SKPOLY
 70
     0
  9
$TDCREATE
 40
2451250.723124
  9
$TDUPDATE
 40
2451250.728698
  9
$TDINDWG
 40
0.016912
  9
$TDUSRTIMER
 40
0.016912
  9
$USRTIMER
 70
     1
  9
$ANGBASE
 50
0.0
  9
$ANGDIR
 70
     0
  9
$PDMODE
 70
     0
  9
$PDSIZE
 40
0.0
  9
$PLINEWID
 40
0.0351
  9
$COORDS
 70
     1
  9
$SPLFRAME
 70
     0
  9
$SPLINETYPE
 70
     6
  9
$SPLINESEGS
 70
     8
  9
$ATTDIA
 70
     0
  9
$ATTREQ
 70
     1
  9
$HANDLING
 70
     1
  9
$HANDSEED
  5
184
  9
$SURFTAB1
 70
     6
  9
$SURFTAB2
 70
     6
  9
$SURFTYPE
 70
     6
  9
$SURFU
 70
     6
  9
$SURFV
 70
     6
  9
$UCSNAME
  2

  9
$UCSORG
 10
0.0
 20
0.0
 30
0.0
  9
$UCSXDIR
 10
1.0
 20
0.0
 30
0.0
  9
$UCSYDIR
 10
0.0
 20
1.0
 30
0.0
  9
$PUCSNAME
  2

  9
$PUCSORG
 10
0.0
 20
0.0
 30
0.0
  9
$PUCSXDIR
 10
1.0
 20
0.0
 30
0.0
  9
$PUCSYDIR
 10
0.0
 20
1.0
 30
0.0
  9
$USERI1
 70
     0
  9
$USERI2
 70
     0
  9
$USERI3
 70
     0
  9
$USERI4
 70
     0
  9
$USERI5
 70
     0
  9
$USERR1
 40
0.0
  9
$USERR2
 40
0.0
  9
$USERR3
 40
0.0
  9
$USERR4
 40
0.0
  9
$USERR5
 40
0.0
  9
$WORLDVIEW
 70
     1
  9
$SHADEDGE
 70
     3
  9
$SHADEDIF
 70
    70
  9
$TILEMODE
 70
     1
  9
$MAXACTVP
 70
    48
  9
$PLIMCHECK
 70
     0
  9
$PEXTMIN
 10
1.000000E+020
 20
1.000000E+020
 30
1.000000E+020
  9
$PEXTMAX
 10
-1.000000E+020
 20
-1.000000E+020
 30
-1.000000E+020
  9
$PLIMMIN
 10
0.0
 20
0.0
  9
$PLIMMAX
 10
12.0
 20
9.0
  9
$UNITMODE
 70
     0
  9
$VISRETAIN
 70
     1
  9
$PLINEGEN
 70
     0
  9
$PSLTSCALE
 70
     1
  0
ENDSEC
  0
SECTION
  2
TABLES
  0
TABLE
  2
VPORT
 70
     4
  0
VPORT
  2
*ACTIVE
 70
     0
 10
0.0
 20
0.0
 11
1.0
 21
1.0
 12
58.797856
 22
37.119776
 13
0.0
 23
0.0
 14
1.0
 24
1.0
 15
0.0
 25
0.0
 16
0.0
 26
0.0
 36
1.0
 17
0.0
 27
0.0
 37
0.0
 40
83.657827
 41
1.414716
 42
50.0
 43
0.0
 44
0.0
 50
0.0
 51
0.0
 71
     0
 72
   100
 73
     1
 74
     1
 75
     0
 76
     0
 77
     0
 78
     0
  0
ENDTAB
  0
TABLE
  2
LTYPE
 70
     7
  0
LTYPE
  2
CONTINUOUS
 70
     0
  3
Solid line
 72
    65
 73
     0
 40
0.0
  0
LTYPE
  2
DASHED
 70
     0
  3
__ __ __ __ __ __ __ __ __ __ __ __ __ __ __
 72
    65
 73
     2
 40
0.75
 49
0.5
 49
-0.25
  0
LTYPE
  2
HIDDEN
 70
     0
  3
_ _ _ _ _ _ _ _ _ _ _ _ _ _ _ _ _ _ _ _ _ _ _
 72
    65
 73
     2
 40
0.375
 49
0.25
 49
-0.125
  0
LTYPE
  2
CENTER
 70
     0
  3
____ _ ____ _ ____ _ ____ _ ____ _ ____ _ ____
 72
    65
 73
     4
 40
2.0
 49
1.25
 49
-0.25
 49
0.25
 49
-0.25
  0
LTYPE
  2
PHANTOM
 70
     0
  3
_____ _ _ _____ _ _ _____ _ _ _____ _ _ ____
 72
    65
 73
     6
 40
2.5
 49
1.25
 49
-0.25
 49
0.25
 49
-0.25
 49
0.25
 49
-0.25
  0
LTYPE
  2
DOT
 70
     0
  3
...............................................
 72
    65
 73
     2
 40
0.25
 49
0.0
 49
-0.25
  0
LTYPE
  2
DASHDOT
 70
     0
  3
__ . __ . __ . __ . __ . __ . __ . __ . __ . __
 72
    65
 73
     4
 40
1.0
 49
0.5
 49
-0.25
 49
0.0
 49
-0.25
  0
ENDTAB
  0
TABLE
  2
LAYER
 70
     7
  0
LAYER
  2
0
 70
     0
 62
     7
  6
CONTINUOUS
  0
LAYER
  2
1
 70
     0
 62
     1
  6
DASHED
  0
LAYER
  2
2
 70
     0
 62
     7
  6
CONTINUOUS
  0
LAYER
  2
3
 70
     0
 62
     3
  6
CENTER
  0
LAYER
  2
4
 70
     0
 62
     4
  6
PHANTOM
  0
LAYER
  2
5
 70
     0
 62
     5
  6
DOT
  0
LAYER
  2
6
 70
     0
 62
     6
  6
DASHDOT
  0
ENDTAB
  0
TABLE
  2
STYLE
 70
     1
  0
STYLE
  2
STANDARD
 70
     0
 40
0.0
 41
1.0
 50
0.0
 71
     0
 42
1.5
  3
txt
  4

  0
ENDTAB
  0
TABLE
  2
VIEW
 70
     0
  0
ENDTAB
  0
TABLE
  2
UCS
 70
     0
  0
ENDTAB
  0
TABLE
  2
APPID
 70
     1
  0
APPID
  2
ACAD
 70
     0
  0
ENDTAB
  0
TABLE
  2
DIMSTYLE
 70
     1
  0
DIMSTYLE
  2
STANDARD
 70
     0
  3

  4

  5

  6

  7

 40
1.0
 41
2.0
 42
0.0625
 43
0.38
 44
0.18
 45
0.0
 46
0.0
 47
0.0
 48
0.0
140
0.18
141
0.09
142
0.0
143
25.4
144
1.0
145
0.0
146
1.0
147
0.09
 71
     0
 72
     0
 73
     1
 74
     1
 75
     0
 76
     0
 77
     0
 78
     0
170
     0
171
     2
172
     0
173
     0
174
     0
175
     0
176
     0
177
     0
178
     0
  0
ENDTAB
  0
ENDSEC
  0
SECTION
  2
BLOCKS
  0
BLOCK
  8
0
  2
$MODEL_SPACE
 70
     0
 10
0.0
 20
0.0
 30
0.0
  3
$MODEL_SPACE
  1

  0
ENDBLK
  5
1A
  8
0
  0
BLOCK
 67
     1
  8
0
  2
$PAPER_SPACE
 70
     0
 10
0.0
 20
0.0
 30
0.0
  3
$PAPER_SPACE
  1

  0
ENDBLK
  5
17
 67
     1
  8
0
  0
BLOCK
  8
0
 62
     7
  2
*X0
 70
     1
 10
0.0
 20
0.0
 30
0.0
  3
*X0
  1

  0
LINE
  5
153
  8
0
 62
     0
 10
73.075911
 20
4.133
 30
0.0
 11
73.367
 21
4.424089
 31
0.0
  0
LINE
  5
154
  8
0
 62
     0
 10
71.308144
 20
4.133
 30
0.0
 11
73.367
 21
6.191856
 31
0.0
  0
LINE
  5
155
  8
0
 62
     0
 10
69.540377
 20
4.133
 30
0.0
 11
73.367
 21
7.959623
 31
0.0
  0
LINE
  5
156
  8
0
 62
     0
 10
67.77261
 20
4.133
 30
0.0
 11
73.367
 21
9.72739
 31
0.0
  0
LINE
  5
157
  8
0
 62
     0
 10
66.004843
 20
4.133
 30
0.0
 11
73.367
 21
11.495157
 31
0.0
  0
LINE
  5
158
  8
0
 62
     0
 10
64.237076
 20
4.133
 30
0.0
 11
73.367
 21
13.262924
 31
0.0
  0
LINE
  5
159
  8
0
 62
     0
 10
62.469309
 20
4.133
 30
0.0
 11
73.367
 21
15.030691
 31
0.0
  0
LINE
  5
15A
  8
0
 62
     0
 10
60.701542
 20
4.133
 30
0.0
 11
73.367
 21
16.798458
 31
0.0
  0
LINE
  5
15B
  8
0
 62
     0
 10
58.933776
 20
4.133
 30
0.0
 11
73.367
 21
18.566224
 31
0.0
  0
LINE
  5
15C
  8
0
 62
     0
 10
57.166009
 20
4.133
 30
0.0
 11
73.367
 21
20.333991
 31
0.0
  0
LINE
  5
15D
  8
0
 62
     0
 10
55.398242
 20
4.133
 30
0.0
 11
73.367
 21
22.101758
 31
0.0
  0
LINE
  5
15E
  8
0
 62
     0
 10
53.630475
 20
4.133
 30
0.0
 11
73.367
 21
23.869525
 31
0.0
  0
LINE
  5
15F
  8
0
 62
     0
 10
51.862708
 20
4.133
 30
0.0
 11
73.367
 21
25.637292
 31
0.0
  0
LINE
  5
160
  8
0
 62
     0
 10
50.094941
 20
4.133
 30
0.0
 11
73.367
 21
27.405059
 31
0.0
  0
LINE
  5
161
  8
0
 62
     0
 10
48.327174
 20
4.133
 30
0.0
 11
73.367
 21
29.172826
 31
0.0
  0
LINE
  5
162
  8
0
 62
     0
 10
46.559407
 20
4.133
 30
0.0
 11
73.367
 21
30.940593
 31
0.0
  0
LINE
  5
163
  8
0
 62
     0
 10
44.79164
 20
4.133
 30
0.0
 11
73.367
 21
32.70836
 31
0.0
  0
LINE
  5
164
  8
0
 62
     0
 10
43.023873
 20
4.133
 30
0.0
 11
73.367
 21
34.476127
 31
0.0
  0
LINE
  5
165
  8
0
 62
     0
 10
41.256106
 20
4.133
 30
0.0
 11
73.367
 21
36.243894
 31
0.0
  0
LINE
  5
166
  8
0
 62
     0
 10
39.488339
 20
4.133
 30
0.0
 11
73.367
 21
38.011661
 31
0.0
  0
LINE
  5
167
  8
0
 62
     0
 10
37.720572
 20
4.133
 30
0.0
 11
73.367
 21
39.779428
 31
0.0
  0
LINE
  5
168
  8
0
 62
     0
 10
35.952805
 20
4.133
 30
0.0
 11
73.367
 21
41.547195
 31
0.0
  0
LINE
  5
169
  8
0
 62
     0
 10
34.185038
 20
4.133
 30
0.0
 11
73.367
 21
43.314962
 31
0.0
  0
LINE
  5
16A
  8
0
 62
     0
 10
32.417271
 20
4.133
 30
0.0
 11
73.367
 21
45.082729
 31
0.0
  0
LINE
  5
16B
  8
0
 62
     0
 10
30.649504
 20
4.133
 30
0.0
 11
73.367
 21
46.850496
 31
0.0
  0
LINE
  5
16C
  8
0
 62
     0
 10
28.881737
 20
4.133
 30
0.0
 11
73.367
 21
48.618263
 31
0.0
  0
LINE
  5
16D
  8
0
 62
     0
 10
27.11397
 20
4.133
 30
0.0
 11
73.367
 21
50.38603
 31
0.0
  0
LINE
  5
16E
  8
0
 62
     0
 10
25.346203
 20
4.133
 30
0.0
 11
73.367
 21
52.153797
 31
0.0
  0
LINE
  5
16F
  8
0
 62
     0
 10
23.578436
 20
4.133
 30
0.0
 11
73.367
 21
53.921564
 31
0.0
  0
LINE
  5
170
  8
0
 62
     0
 10
21.81067
 20
4.133
 30
0.0
 11
73.367
 21
55.68933
 31
0.0
  0
LINE
  5
171
  8
0
 62
     0
 10
20.042903
 20
4.133
 30
0.0
 11
73.367
 21
57.457097
 31
0.0
  0
LINE
  5
172
  8
0
 62
     0
 10
18.275136
 20
4.133
 30
0.0
 11
73.367
 21
59.224864
 31
0.0
  0
LINE
  5
173
  8
0
 62
     0
 10
16.507369
 20
4.133
 30
0.0
 11
73.367
 21
60.992631
 31
0.0
  0
LINE
  5
174
  8
0
 62
     0
 10
14.739602
 20
4.133
 30
0.0
 11
73.367
 21
62.760398
 31
0.0
  0
LINE
  5
175
  8
0
 62
     0
 10
12.971835
 20
4.133
 30
0.0
 11
73.367
 21
64.528165
 31
0.0
  0
LINE
  5
176
  8
0
 62
     0
 10
11.204068
 20
4.133
 30
0.0
 11
73.367
 21
66.295932
 31
0.0
  0
LINE
  5
177
  8
0
 62
     0
 10
14.089538
 20
8.786237
 30
0.0
 11
73.367
 21
68.063699
 31
0.0
  0
LINE
  5
178
  8
0
 62
     0
 10
18.272381
 20
14.736847
 30
0.0
 11
71.904022
 21
68.368489
 31
0.0
  0
LINE
  5
179
  8
0
 62
     0
 10
22.531076
 20
20.763309
 30
0.0
 11
53.569368
 21
51.801601
 31
0.0
  0
ENDBLK
  5
17B
  8
0
 62
     7
  0
ENDSEC
  0
SECTION
  2
ENTITIES
  0
POLYLINE
  5
2B
  8
2
  6
HIDDEN
 66
     1
 10
0.0
 20
0.0
 30
0.0
  0
VERTEX
  5
2C
  8
2
  6
HIDDEN
 10
11.033
 20
4.133
 30
0.0
  0
VERTEX
  5
2D
  8
2
  6
HIDDEN
 10
12.233
 20
4.133
 30
0.0
  0
SEQEND
  5
2E
  8
2
  0
POLYLINE
  5
2F
  8
2
  6
HIDDEN
 66
     1
 10
0.0
 20
0.0
 30
0.0
  0
VERTEX
  5
30
  8
2
  6
HIDDEN
 10
115.633
 20
4.133
 30
0.0
  0
VERTEX
  5
31
  8
2
  6
HIDDEN
 10
114.433
 20
4.133
 30
0.0
  0
SEQEND
  5
32
  8
2
  0
TEXT
  5
33
  8
0
 10
8.494878
 20
3.613
 30
0.0
 40
1.456
  1
0
 72
     2
 11
9.367
 21
3.613
 31
0.0
  0
POLYLINE
  5
34
  8
2
  6
HIDDEN
 66
     1
 10
0.0
 20
0.0
 30
0.0
  0
VERTEX
  5
35
  8
2
  6
HIDDEN
 10
11.033
 20
11.383
 30
0.0
  0
VERTEX
  5
36
  8
2
  6
HIDDEN
 10
12.233
 20
11.383
 30
0.0
  0
SEQEND
  5
37
  8
2
  0
POLYLINE
  5
38
  8
2
  6
HIDDEN
 66
     1
 10
0.0
 20
0.0
 30
0.0
  0
VERTEX
  5
39
  8
2
  6
HIDDEN
 10
115.633
 20
11.383
 30
0.0
  0
VERTEX
  5
3A
  8
2
  6
HIDDEN
 10
114.433
 20
11.383
 30
0.0
  0
SEQEND
  5
3B
  8
2
  0
TEXT
  5
3C
  8
0
 10
6.602817
 20
10.863
 30
0.0
 40
1.456
  1
100
 72
     2
 11
9.367
 21
10.863
 31
0.0
  0
POLYLINE
  5
3D
  8
2
  6
HIDDEN
 66
     1
 10
0.0
 20
0.0
 30
0.0
  0
VERTEX
  5
3E
  8
2
  6
HIDDEN
 10
11.033
 20
18.633
 30
0.0
  0
VERTEX
  5
3F
  8
2
  6
HIDDEN
 10
12.233
 20
18.633
 30
0.0
  0
SEQEND
  5
40
  8
2
  0
POLYLINE
  5
41
  8
2
  6
HIDDEN
 66
     1
 10
0.0
 20
0.0
 30
0.0
  0
VERTEX
  5
42
  8
2
  6
HIDDEN
 10
115.633
 20
18.633
 30
0.0
  0
VERTEX
  5
43
  8
2
  6
HIDDEN
 10
114.433
 20
18.633
 30
0.0
  0
SEQEND
  5
44
  8
2
  0
TEXT
  5
45
  8
0
 10
6.602817
 20
18.113
 30
0.0
 40
1.456
  1
200
 72
     2
 11
9.367
 21
18.113
 31
0.0
  0
POLYLINE
  5
46
  8
2
  6
HIDDEN
 66
     1
 10
0.0
 20
0.0
 30
0.0
  0
VERTEX
  5
47
  8
2
  6
HIDDEN
 10
11.033
 20
25.9
 30
0.0
  0
VERTEX
  5
48
  8
2
  6
HIDDEN
 10
12.233
 20
25.9
 30
0.0
  0
SEQEND
  5
49
  8
2
  0
POLYLINE
  5
4A
  8
2
  6
HIDDEN
 66
     1
 10
0.0
 20
0.0
 30
0.0
  0
VERTEX
  5
4B
  8
2
  6
HIDDEN
 10
115.633
 20
25.9
 30
0.0
  0
VERTEX
  5
4C
  8
2
  6
HIDDEN
 10
114.433
 20
25.9
 30
0.0
  0
SEQEND
  5
4D
  8
2
  0
TEXT
  5
4E
  8
0
 10
6.602817
 20
25.38
 30
0.0
 40
1.456
  1
300
 72
     2
 11
9.367
 21
25.38
 31
0.0
  0
POLYLINE
  5
4F
  8
2
  6
HIDDEN
 66
     1
 10
0.0
 20
0.0
 30
0.0
  0
VERTEX
  5
50
  8
2
  6
HIDDEN
 10
11.033
 20
33.15
 30
0.0
  0
VERTEX
  5
51
  8
2
  6
HIDDEN
 10
12.233
 20
33.15
 30
0.0
  0
SEQEND
  5
52
  8
2
  0
POLYLINE
  5
53
  8
2
  6
HIDDEN
 66
     1
 10
0.0
 20
0.0
 30
0.0
  0
VERTEX
  5
54
  8
2
  6
HIDDEN
 10
115.633
 20
33.15
 30
0.0
  0
VERTEX
  5
55
  8
2
  6
HIDDEN
 10
114.433
 20
33.15
 30
0.0
  0
SEQEND
  5
56
  8
2
  0
TEXT
  5
57
  8
0
 10
6.602817
 20
32.63
 30
0.0
 40
1.456
  1
400
 72
     2
 11
9.367
 21
32.63
 31
0.0
  0
POLYLINE
  5
58
  8
2
  6
HIDDEN
 66
     1
 10
0.0
 20
0.0
 30
0.0
  0
VERTEX
  5
59
  8
2
  6
HIDDEN
 10
11.033
 20
40.4
 30
0.0
  0
VERTEX
  5
5A
  8
2
  6
HIDDEN
 10
12.233
 20
40.4
 30
0.0
  0
SEQEND
  5
5B
  8
2
  0
POLYLINE
  5
5C
  8
2
  6
HIDDEN
 66
     1
 10
0.0
 20
0.0
 30
0.0
  0
VERTEX
  5
5D
  8
2
  6
HIDDEN
 10
115.633
 20
40.4
 30
0.0
  0
VERTEX
  5
5E
  8
2
  6
HIDDEN
 10
114.433
 20
40.4
 30
0.0
  0
SEQEND
  5
5F
  8
2
  0
TEXT
  5
60
  8
0
 10
6.602817
 20
39.88
 30
0.0
 40
1.456
  1
500
 72
     2
 11
9.367
 21
39.88
 31
0.0
  0
POLYLINE
  5
61
  8
2
  6
HIDDEN
 66
     1
 10
0.0
 20
0.0
 30
0.0
  0
VERTEX
  5
62
  8
2
  6
HIDDEN
 10
11.033
 20
47.65
 30
0.0
  0
VERTEX
  5
63
  8
2
  6
HIDDEN
 10
12.233
 20
47.65
 30
0.0
  0
SEQEND
  5
64
  8
2
  0
POLYLINE
  5
65
  8
2
  6
HIDDEN
 66
     1
 10
0.0
 20
0.0
 30
0.0
  0
VERTEX
  5
66
  8
2
  6
HIDDEN
 10
115.633
 20
47.65
 30
0.0
  0
VERTEX
  5
67
  8
2
  6
HIDDEN
 10
114.433
 20
47.65
 30
0.0
  0
SEQEND
  5
68
  8
2
  0
TEXT
  5
69
  8
0
 10
6.602817
 20
47.13
 30
0.0
 40
1.456
  1
600
 72
     2
 11
9.367
 21
47.13
 31
0.0
  0
POLYLINE
  5
6A
  8
2
  6
HIDDEN
 66
     1
 10
0.0
 20
0.0
 30
0.0
  0
VERTEX
  5
6B
  8
2
  6
HIDDEN
 10
11.033
 20
54.9
 30
0.0
  0
VERTEX
  5
6C
  8
2
  6
HIDDEN
 10
12.233
 20
54.9
 30
0.0
  0
SEQEND
  5
6D
  8
2
  0
POLYLINE
  5
6E
  8
2
  6
HIDDEN
 66
     1
 10
0.0
 20
0.0
 30
0.0
  0
VERTEX
  5
6F
  8
2
  6
HIDDEN
 10
115.633
 20
54.9
 30
0.0
  0
VERTEX
  5
70
  8
2
  6
HIDDEN
 10
114.433
 20
54.9
 30
0.0
  0
SEQEND
  5
71
  8
2
  0
TEXT
  5
72
  8
0
 10
6.602817
 20
54.38
 30
0.0
 40
1.456
  1
700
 72
     2
 11
9.367
 21
54.38
 31
0.0
  0
POLYLINE
  5
73
  8
2
  6
HIDDEN
 66
     1
 10
0.0
 20
0.0
 30
0.0
  0
VERTEX
  5
74
  8
2
  6
HIDDEN
 10
11.033
 20
62.167
 30
0.0
  0
VERTEX
  5
75
  8
2
  6
HIDDEN
 10
12.233
 20
62.167
 30
0.0
  0
SEQEND
  5
76
  8
2
  0
POLYLINE
  5
77
  8
2
  6
HIDDEN
 66
     1
 10
0.0
 20
0.0
 30
0.0
  0
VERTEX
  5
78
  8
2
  6
HIDDEN
 10
115.633
 20
62.167
 30
0.0
  0
VERTEX
  5
79
  8
2
  6
HIDDEN
 10
114.433
 20
62.167
 30
0.0
  0
SEQEND
  5
7A
  8
2
  0
TEXT
  5
7B
  8
0
 10
6.602817
 20
61.647
 30
0.0
 40
1.456
  1
800
 72
     2
 11
9.367
 21
61.647
 31
0.0
  0
POLYLINE
  5
7C
  8
2
  6
HIDDEN
 66
     1
 10
0.0
 20
0.0
 30
0.0
  0
VERTEX
  5
7D
  8
2
  6
HIDDEN
 10
11.033
 20
69.417
 30
0.0
  0
VERTEX
  5
7E
  8
2
  6
HIDDEN
 10
12.233
 20
69.417
 30
0.0
  0
SEQEND
  5
7F
  8
2
  0
POLYLINE
  5
80
  8
2
  6
HIDDEN
 66
     1
 10
0.0
 20
0.0
 30
0.0
  0
VERTEX
  5
81
  8
2
  6
HIDDEN
 10
115.633
 20
69.417
 30
0.0
  0
VERTEX
  5
82
  8
2
  6
HIDDEN
 10
114.433
 20
69.417
 30
0.0
  0
SEQEND
  5
83
  8
2
  0
TEXT
  5
84
  8
0
 10
6.602817
 20
68.897
 30
0.0
 40
1.456
  1
900
 72
     2
 11
9.367
 21
68.897
 31
0.0
  0
POLYLINE
  5
85
  8
2
  6
HIDDEN
 66
     1
 10
0.0
 20
0.0
 30
0.0
  0
VERTEX
  5
86
  8
2
  6
HIDDEN
 10
11.033
 20
76.667
 30
0.0
  0
VERTEX
  5
87
  8
2
  6
HIDDEN
 10
12.233
 20
76.667
 30
0.0
  0
SEQEND
  5
88
  8
2
  0
POLYLINE
  5
89
  8
2
  6
HIDDEN
 66
     1
 10
0.0
 20
0.0
 30
0.0
  0
VERTEX
  5
8A
  8
2
  6
HIDDEN
 10
115.633
 20
76.667
 30
0.0
  0
VERTEX
  5
8B
  8
2
  6
HIDDEN
 10
114.433
 20
76.667
 30
0.0
  0
SEQEND
  5
8C
  8
2
  0
TEXT
  5
8D
  8
0
 10
5.656787
 20
76.147
 30
0.0
 40
1.456
  1
1000
 72
     2
 11
9.367
 21
76.147
 31
0.0
  0
POLYLINE
  5
8E
  8
2
  6
HIDDEN
 66
     1
 10
0.0
 20
0.0
 30
0.0
  0
VERTEX
  5
8F
  8
2
  6
HIDDEN
 10
11.033
 20
4.133
 30
0.0
  0
VERTEX
  5
90
  8
2
  6
HIDDEN
 10
11.033
 20
4.933
 30
0.0
  0
SEQEND
  5
91
  8
2
  0
POLYLINE
  5
92
  8
2
  6
HIDDEN
 66
     1
 10
0.0
 20
0.0
 30
0.0
  0
VERTEX
  5
93
  8
2
  6
HIDDEN
 10
11.033
 20
76.667
 30
0.0
  0
VERTEX
  5
94
  8
2
  6
HIDDEN
 10
11.033
 20
75.867
 30
0.0
  0
SEQEND
  5
95
  8
2
  0
TEXT
  5
96
  8
0
 10
10.567376
 20
1.547
 30
0.0
 40
1.456
  1
0
 72
     1
 11
11.033
 21
1.547
 31
0.0
  0
POLYLINE
  5
97
  8
2
  6
HIDDEN
 66
     1
 10
0.0
 20
0.0
 30
0.0
  0
VERTEX
  5
98
  8
2
  6
HIDDEN
 10
21.5
 20
4.133
 30
0.0
  0
VERTEX
  5
99
  8
2
  6
HIDDEN
 10
21.5
 20
4.933
 30
0.0
  0
SEQEND
  5
9A
  8
2
  0
POLYLINE
  5
9B
  8
2
  6
HIDDEN
 66
     1
 10
0.0
 20
0.0
 30
0.0
  0
VERTEX
  5
9C
  8
2
  6
HIDDEN
 10
21.5
 20
76.667
 30
0.0
  0
VERTEX
  5
9D
  8
2
  6
HIDDEN
 10
21.5
 20
75.867
 30
0.0
  0
SEQEND
  5
9E
  8
2
  0
TEXT
  5
9F
  8
0
 10
19.160792
 20
1.547
 30
0.0
 40
1.456
  1
0.005
 72
     1
 11
21.5
 21
1.547
 31
0.0
  0
POLYLINE
  5
A0
  8
2
  6
HIDDEN
 66
     1
 10
0.0
 20
0.0
 30
0.0
  0
VERTEX
  5
A1
  8
2
  6
HIDDEN
 10
31.95
 20
4.133
 30
0.0
  0
VERTEX
  5
A2
  8
2
  6
HIDDEN
 10
31.95
 20
4.933
 30
0.0
  0
SEQEND
  5
A3
  8
2
  0
POLYLINE
  5
A4
  8
2
  6
HIDDEN
 66
     1
 10
0.0
 20
0.0
 30
0.0
  0
VERTEX
  5
A5
  8
2
  6
HIDDEN
 10
31.95
 20
76.667
 30
0.0
  0
VERTEX
  5
A6
  8
2
  6
HIDDEN
 10
31.95
 20
75.867
 30
0.0
  0
SEQEND
  5
A7
  8
2
  0
TEXT
  5
A8
  8
0
 10
30.213147
 20
1.547
 30
0.0
 40
1.456
  1
0.01
 72
     1
 11
31.95
 21
1.547
 31
0.0
  0
POLYLINE
  5
A9
  8
2
  6
HIDDEN
 66
     1
 10
0.0
 20
0.0
 30
0.0
  0
VERTEX
  5
AA
  8
2
  6
HIDDEN
 10
42.417
 20
4.133
 30
0.0
  0
VERTEX
  5
AB
  8
2
  6
HIDDEN
 10
42.417
 20
4.933
 30
0.0
  0
SEQEND
  5
AC
  8
2
  0
POLYLINE
  5
AD
  8
2
  6
HIDDEN
 66
     1
 10
0.0
 20
0.0
 30
0.0
  0
VERTEX
  5
AE
  8
2
  6
HIDDEN
 10
42.417
 20
76.667
 30
0.0
  0
VERTEX
  5
AF
  8
2
  6
HIDDEN
 10
42.417
 20
75.867
 30
0.0
  0
SEQEND
  5
B0
  8
2
  0
TEXT
  5
B1
  8
0
 10
40.077792
 20
1.547
 30
0.0
 40
1.456
  1
0.015
 72
     1
 11
42.417
 21
1.547
 31
0.0
  0
POLYLINE
  5
B2
  8
2
  6
HIDDEN
 66
     1
 10
0.0
 20
0.0
 30
0.0
  0
VERTEX
  5
B3
  8
2
  6
HIDDEN
 10
52.867
 20
4.133
 30
0.0
  0
VERTEX
  5
B4
  8
2
  6
HIDDEN
 10
52.867
 20
4.933
 30
0.0
  0
SEQEND
  5
B5
  8
2
  0
POLYLINE
  5
B6
  8
2
  6
HIDDEN
 66
     1
 10
0.0
 20
0.0
 30
0.0
  0
VERTEX
  5
B7
  8
2
  6
HIDDEN
 10
52.867
 20
76.667
 30
0.0
  0
VERTEX
  5
B8
  8
2
  6
HIDDEN
 10
52.867
 20
75.867
 30
0.0
  0
SEQEND
  5
B9
  8
2
  0
TEXT
  5
BA
  8
0
 10
50.997112
 20
1.547
 30
0.0
 40
1.456
  1
0.02
 72
     1
 11
52.867
 21
1.547
 31
0.0
  0
POLYLINE
  5
BB
  8
2
  6
HIDDEN
 66
     1
 10
0.0
 20
0.0
 30
0.0
  0
VERTEX
  5
BC
  8
2
  6
HIDDEN
 10
63.333
 20
4.133
 30
0.0
  0
VERTEX
  5
BD
  8
2
  6
HIDDEN
 10
63.333
 20
4.933
 30
0.0
  0
SEQEND
  5
BE
  8
2
  0
POLYLINE
  5
BF
  8
2
  6
HIDDEN
 66
     1
 10
0.0
 20
0.0
 30
0.0
  0
VERTEX
  5
C0
  8
2
  6
HIDDEN
 10
63.333
 20
76.667
 30
0.0
  0
VERTEX
  5
C1
  8
2
  6
HIDDEN
 10
63.333
 20
75.867
 30
0.0
  0
SEQEND
  5
C2
  8
2
  0
TEXT
  5
C3
  8
0
 10
60.993792
 20
1.547
 30
0.0
 40
1.456
  1
0.025
 72
     1
 11
63.333
 21
1.547
 31
0.0
  0
POLYLINE
  5
C4
  8
2
  6
HIDDEN
 66
     1
 10
0.0
 20
0.0
 30
0.0
  0
VERTEX
  5
C5
  8
2
  6
HIDDEN
 10
73.8
 20
4.133
 30
0.0
  0
VERTEX
  5
C6
  8
2
  6
HIDDEN
 10
73.8
 20
4.933
 30
0.0
  0
SEQEND
  5
C7
  8
2
  0
POLYLINE
  5
C8
  8
2
  6
HIDDEN
 66
     1
 10
0.0
 20
0.0
 30
0.0
  0
VERTEX
  5
C9
  8
2
  6
HIDDEN
 10
73.8
 20
76.667
 30
0.0
  0
VERTEX
  5
CA
  8
2
  6
HIDDEN
 10
73.8
 20
75.867
 30
0.0
  0
SEQEND
  5
CB
  8
2
  0
TEXT
  5
CC
  8
0
 10
71.933807
 20
1.547
 30
0.0
 40
1.456
  1
0.03
 72
     1
 11
73.8
 21
1.547
 31
0.0
  0
POLYLINE
  5
CD
  8
2
  6
HIDDEN
 66
     1
 10
0.0
 20
0.0
 30
0.0
  0
VERTEX
  5
CE
  8
2
  6
HIDDEN
 10
84.25
 20
4.133
 30
0.0
  0
VERTEX
  5
CF
  8
2
  6
HIDDEN
 10
84.25
 20
4.933
 30
0.0
  0
SEQEND
  5
D0
  8
2
  0
POLYLINE
  5
D1
  8
2
  6
HIDDEN
 66
     1
 10
0.0
 20
0.0
 30
0.0
  0
VERTEX
  5
D2
  8
2
  6
HIDDEN
 10
84.25
 20
76.667
 30
0.0
  0
VERTEX
  5
D3
  8
2
  6
HIDDEN
 10
84.25
 20
75.867
 30
0.0
  0
SEQEND
  5
D4
  8
2
  0
TEXT
  5
D5
  8
0
 10
81.910792
 20
1.547
 30
0.0
 40
1.456
  1
0.035
 72
     1
 11
84.25
 21
1.547
 31
0.0
  0
POLYLINE
  5
D6
  8
2
  6
HIDDEN
 66
     1
 10
0.0
 20
0.0
 30
0.0
  0
VERTEX
  5
D7
  8
2
  6
HIDDEN
 10
94.717
 20
4.133
 30
0.0
  0
VERTEX
  5
D8
  8
2
  6
HIDDEN
 10
94.717
 20
4.933
 30
0.0
  0
SEQEND
  5
D9
  8
2
  0
POLYLINE
  5
DA
  8
2
  6
HIDDEN
 66
     1
 10
0.0
 20
0.0
 30
0.0
  0
VERTEX
  5
DB
  8
2
  6
HIDDEN
 10
94.717
 20
76.667
 30
0.0
  0
VERTEX
  5
DC
  8
2
  6
HIDDEN
 10
94.717
 20
75.867
 30
0.0
  0
SEQEND
  5
DD
  8
2
  0
TEXT
  5
DE
  8
0
 10
92.828635
 20
1.547
 30
0.0
 40
1.456
  1
0.04
 72
     1
 11
94.717
 21
1.547
 31
0.0
  0
POLYLINE
  5
DF
  8
2
  6
HIDDEN
 66
     1
 10
0.0
 20
0.0
 30
0.0
  0
VERTEX
  5
E0
  8
2
  6
HIDDEN
 10
105.167
 20
4.133
 30
0.0
  0
VERTEX
  5
E1
  8
2
  6
HIDDEN
 10
105.167
 20
4.933
 30
0.0
  0
SEQEND
  5
E2
  8
2
  0
POLYLINE
  5
E3
  8
2
  6
HIDDEN
 66
     1
 10
0.0
 20
0.0
 30
0.0
  0
VERTEX
  5
E4
  8
2
  6
HIDDEN
 10
105.167
 20
76.667
 30
0.0
  0
VERTEX
  5
E5
  8
2
  6
HIDDEN
 10
105.167
 20
75.867
 30
0.0
  0
SEQEND
  5
E6
  8
2
  0
TEXT
  5
E7
  8
0
 10
102.827792
 20
1.547
 30
0.0
 40
1.456
  1
0.045
 72
     1
 11
105.167
 21
1.547
 31
0.0
  0
POLYLINE
  5
E8
  8
2
  6
HIDDEN
 66
     1
 10
0.0
 20
0.0
 30
0.0
  0
VERTEX
  5
E9
  8
2
  6
HIDDEN
 10
115.633
 20
4.133
 30
0.0
  0
VERTEX
  5
EA
  8
2
  6
HIDDEN
 10
115.633
 20
4.933
 30
0.0
  0
SEQEND
  5
EB
  8
2
  0
POLYLINE
  5
EC
  8
2
  6
HIDDEN
 66
     1
 10
0.0
 20
0.0
 30
0.0
  0
VERTEX
  5
ED
  8
2
  6
HIDDEN
 10
115.633
 20
76.667
 30
0.0
  0
VERTEX
  5
EE
  8
2
  6
HIDDEN
 10
115.633
 20
75.867
 30
0.0
  0
SEQEND
  5
EF
  8
2
  0
TEXT
  5
F0
  8
0
 10
113.766807
 20
1.547
 30
0.0
 40
1.456
  1
0.05
 72
     1
 11
115.633
 21
1.547
 31
0.0
  0
POLYLINE
  5
F1
  8
2
  6
HIDDEN
 66
     1
 10
0.0
 20
0.0
 30
0.0
1001
ACAD
1000
ASC_BOUNDS
1002
{
1070
    19
1005
150
1002
}
  0
VERTEX
  5
F2
  8
2
  6
HIDDEN
 10
11.033
 20
4.133
 30
0.0
  0
VERTEX
  5
F3
  8
2
  6
HIDDEN
 10
115.633
 20
4.133
 30
0.0
  0
VERTEX
  5
F4
  8
2
  6
HIDDEN
 10
115.633
 20
76.667
 30
0.0
  0
VERTEX
  5
F5
  8
2
  6
HIDDEN
 10
11.033
 20
76.667
 30
0.0
  0
VERTEX
  5
F6
  8
2
  6
HIDDEN
 10
11.033
 20
4.133
 30
0.0
  0
SEQEND
  5
F7
  8
2
  0
POLYLINE
  5
F8
  8
0
  6
CONTINUOUS
 66
     1
 10
0.0
 20
0.0
 30
0.0
1001
ACAD
1000
ASC_BOUNDS
1002
{
1070
    19
1005
150
1002
}
  0
VERTEX
  5
F9
  8
0
  6
CONTINUOUS
 10
14.383
 20
9.233
 30
0.0
  0
VERTEX
  5
FA
  8
0
  6
CONTINUOUS
 10
14.383
 20
9.233
 30
0.0
  0
VERTEX
  5
FB
  8
0
  6
CONTINUOUS
 10
26.267
 20
26.05
 30
0.0
  0
VERTEX
  5
FC
  8
0
  6
CONTINUOUS
 10
30.133
 20
29.6
 30
0.0
  0
VERTEX
  5
FD
  8
0
  6
CONTINUOUS
 10
40.683
 20
40.083
 30
0.0
  0
VERTEX
  5
FE
  8
0
  6
CONTINUOUS
 10
52.733
 20
51.033
 30
0.0
  0
VERTEX
  5
FF
  8
0
  6
CONTINUOUS
 10
53.333
 20
51.6
 30
0.0
  0
VERTEX
  5
100
  8
0
  6
CONTINUOUS
 10
61.267
 20
58.367
 30
0.0
  0
VERTEX
  5
101
  8
0
  6
CONTINUOUS
 10
68.767
 20
65.867
 30
0.0
  0
VERTEX
  5
102
  8
0
  6
CONTINUOUS
 10
69.4
 20
66.033
 30
0.0
  0
VERTEX
  5
103
  8
0
  6
CONTINUOUS
 10
73.367
 20
69.733
 30
0.0
  0
SEQEND
  5
104
  8
0
  0
LINE
  5
106
  8
0
 62
     7
 10
14.383
 20
9.233
 30
0.0
 11
11.033
 21
4.133
 31
0.0
1001
ACAD
1000
ASC_BOUNDS
1002
{
1070
    19
1005
150
1002
}
  0
LINE
  5
107
  8
0
 62
     7
 10
73.367
 20
69.733
 30
0.0
 11
73.367
 21
4.133
 31
0.0
1001
ACAD
1000
ASC_BOUNDS
1002
{
1070
    19
1005
150
1002
}
  0
POLYLINE
  8
2
  5
17D
  62
7
  66
     1
 10
0.000000
 20
0.000000
 30
0.000000
  70
     8
  0
VERTEX
  8
2
  5
17E
 10
59.5810
 20
39.5395
 30
0.000000
  70
    32
  0
VERTEX
  8
2
  5
17F
 10
79.7017
 20
48.8816
 30
0.000000
  70
    32
  0
VERTEX
  8
2
  5
180
 10
81.7017
 20
48.8816
 30
0.000000
  70
    32
  0
SEQEND
  8
2
  5
181
  0
TEXT
  8
0
  40
2
  5
182
  62
7
  72
0
  71
0
 10
81.7917
 20
46.2816
 30
0.000000
  1
ç≈ëÂëœóÕÇ…éäÇÈÇ‹Ç≈Ç…
  0
TEXT
  8
0
  40
2
  5
183
  62
7
  72
0
  71
0
 10
81.7917
 20
43.6816
 30
0.000000
  1
è¡îÔÇ∑ÇÈÉGÉlÉãÉMÅ[
  0
TEXT
  5
122
  8
0
 62
     7
 10
58.04904
 20
-3.075724
 30
0.0
 40
2.5
  1
ïœå`äp
  0
TEXT
  5
123
  8
0
 62
     7
 10
2.830919
 20
38.736994
 30
0.0
 40
2.5
  1
ëœóÕ
 50
90.0
  0
INSERT
  5
150
  8
0
  6
CONTINUOUS
 62
     7
  2
*X0
 10
0.0
 20
0.0
 30
0.0
1001
ACAD
1000
HATCH
1002
{
1070
    19
1000
ANSI31
1040
10.0
1040
0.0
1000
ASC_BOUNDS
1070
     1
1070
     1
1070
     4
1005
107
1005
F1
1005
106
1005
F8
1000
ASC_SEEDPOINT
1011
57.121086
1021
-0.0
1031
-0.0
1021
48.432437
1031
0.0
1000
R14_HATCH_DATA
1000
150
1011
1.0
1021
-0.0
1031
-0.0
1021
0.0
1031
0.0
1011
0.0
1021
-0.0
1031
-0.0
1021
1.0
1031
0.0
1011
0.0
1021
-0.0
1031
-0.0
1021
0.0
1031
1.0
1040
0.0
1010
0.0
1020
0.0
1030
1.0
1000
ANSI31
1070
     0
1070
     1
1071
        1
1071
        7
1070
     0
1070
     1
1071
       12
1040
73.367
1040
69.733
1040
69.4
1040
66.033
1040
68.767
1040
65.867
1040
61.267
1040
58.367
1040
53.333
1040
51.6
1040
52.733
1040
51.033
1040
40.683
1040
40.083
1040
30.133
1040
29.6
1040
26.267
1040
26.05
1040
14.383
1040
9.233
1040
11.033
1040
4.133
1040
73.367
1040
4.133
1071
        4
1005
F8
1005
106
1005
F1
1005
107
1070
     0
1070
     1
1040
0.0
1040
10.0
1070
     0
1070
     1
1040
0.785398
1040
0.0
1040
0.0
1040
-0.883883
1040
0.883883
1070
     0
1040
0.139662
1071
        1
1040
57.121086
1040
48.432437
1040
0.0
1002
}
  0
ENDSEC
  0
EOF
