999
% GNUPLOT: dxf file for AutoCad
  0
SECTION
  2
HEADER
  9
$EXTMIN
 10
0.000
 20
0.000
  9
$EXTMAX
 10
120.000
 20
80.000
  9
$LIMMIN
 10
0.000
 20
0.000
  9
$LIMMAX
 10
120.000
 20
80.000
  9
$TEXTSTYLE
  7
STANDARD
  9
$TEXTSIZE
 40
1.456 
  9
$PLINEWID
 40
0.0351
  9
$LTSCALE
  40
1.000 
  9
$COORDS
 70
  1
  9
$CELTYPE
 6
BYLAYER
  9
$CLAYER
  8
0
  9
$CECOLOR
 62
   7
  9
$MENU
  1
acad
  0
ENDSEC
  0
SECTION
  2
TABLES
0
TABLE
  2
LTYPE
 70
    7
0
LTYPE
  2
CONTINUOUS
 70
    64
  3
Solid line
 72
    65
 73
      0
 40
0.0
  0
LTYPE
  2
DASHED
 70
    64
  3
__ __ __ __ __ __ __ __ __ __ __ __ __ __ __
 72
    65
 73
     2
 40
0.75
 49
0.5
 49
-0.25
  0
LTYPE
  2
HIDDEN
 70
    64
  3
_ _ _ _ _ _ _ _ _ _ _ _ _ _ _ _ _ _ _ _ _ _ _
 72
    65
 73
     2
 40
0.375
 49
0.25
 49
-0.125
  0
LTYPE
  2
CENTER
 70
    64
  3
____ _ ____ _ ____ _ ____ _ ____ _ ____ _ ____
 72
    65
 73
     4
 40
2.0
 49
1.25
 49
-0.25
 49
0.25
 49
-0.25
  0
LTYPE
  2
PHANTOM
 70
    64
  3
_____ _ _ _____ _ _ _____ _ _ _____ _ _ ____
 72
    65
 73
     6
 40
2.5
 49
1.25
 49
-0.25
 49
0.25
 49
-0.25
 49
0.25
 49
-0.25
  0
LTYPE
  2
DOT
 70
    64
  3
...............................................
 72
    65
 73
     2
 40
0.25
 49
0.0
 49
-0.25
  0
LTYPE
  2
DASHDOT
 70
    64
  3
__ . __ . __ . __ . __ . __ . __ . __ . __ . __
 72
    65
 73
     4
 40
1.0
 49
0.5
 49
-0.25
 49
0.0
 49
-0.25
  0
ENDTAB
  0
TABLE
  2
LAYER
 70
   7
  0
LAYER
  2
0
 70
   64
62
   7
  6
CONTINUOUS
  0
LAYER
  2
1
 70
   64
62
   1
  6
DASHED
  0
LAYER
  2
2
 70
   64
62
   2
  6
HIDDEN
  0
LAYER
  2
3
 70
   64
62
   3
  6
CENTER
  0
LAYER
  2
4
 70
   64
62
   4
  6
PHANTOM
  0
LAYER
  2
5
 70
   64
62
   5
  6
DOT
  0
LAYER
  2
6
 70
   64
62
   6
  6
DASHDOT
  0
ENDTAB
0
ENDSEC
  0
SECTION
  2
BLOCKS
  0
ENDSEC
  0
SECTION
  2
ENTITIES
  0
POLYLINE
  8
2
 66
   1
  6
HIDDEN
  0
VERTEX
  8
2
  6
HIDDEN
 10
11.033
 20
4.133 
 30
0.000
  0
VERTEX
  8
2
  6
HIDDEN
  10
12.233
  20
4.133 
  30
0.000
  0
SEQEND
  0
POLYLINE
  8
2
 66
   1
  6
HIDDEN
  0
VERTEX
  8
2
  6
HIDDEN
 10
115.633
 20
4.133 
 30
0.000
  0
VERTEX
  8
2
  6
HIDDEN
  10
114.433
  20
4.133 
  30
0.000
  0
SEQEND
  0
TEXT
  8
0
 10
8.191 
 20
3.613 
 30
0.000
 40
1.456 
  1
0
 50
0.000 
  7
STANDARD
 72
2
 11
9.367 
 21
3.613 
 31
0.000
  0
POLYLINE
  8
2
 66
   1
  6
HIDDEN
  0
VERTEX
  8
2
  6
HIDDEN
 10
11.033
 20
11.383
 30
0.000
  0
VERTEX
  8
2
  6
HIDDEN
  10
12.233
  20
11.383
  30
0.000
  0
SEQEND
  0
POLYLINE
  8
2
 66
   1
  6
HIDDEN
  0
VERTEX
  8
2
  6
HIDDEN
 10
115.633
 20
11.383
 30
0.000
  0
VERTEX
  8
2
  6
HIDDEN
  10
114.433
  20
11.383
  30
0.000
  0
SEQEND
  0
TEXT
  8
0
 10
5.839 
 20
10.863
 30
0.000
 40
1.456 
  1
100
 50
0.000 
  7
STANDARD
 72
2
 11
9.367 
 21
10.863
 31
0.000
  0
POLYLINE
  8
2
 66
   1
  6
HIDDEN
  0
VERTEX
  8
2
  6
HIDDEN
 10
11.033
 20
18.633
 30
0.000
  0
VERTEX
  8
2
  6
HIDDEN
  10
12.233
  20
18.633
  30
0.000
  0
SEQEND
  0
POLYLINE
  8
2
 66
   1
  6
HIDDEN
  0
VERTEX
  8
2
  6
HIDDEN
 10
115.633
 20
18.633
 30
0.000
  0
VERTEX
  8
2
  6
HIDDEN
  10
114.433
  20
18.633
  30
0.000
  0
SEQEND
  0
TEXT
  8
0
 10
5.839 
 20
18.113
 30
0.000
 40
1.456 
  1
200
 50
0.000 
  7
STANDARD
 72
2
 11
9.367 
 21
18.113
 31
0.000
  0
POLYLINE
  8
2
 66
   1
  6
HIDDEN
  0
VERTEX
  8
2
  6
HIDDEN
 10
11.033
 20
25.900
 30
0.000
  0
VERTEX
  8
2
  6
HIDDEN
  10
12.233
  20
25.900
  30
0.000
  0
SEQEND
  0
POLYLINE
  8
2
 66
   1
  6
HIDDEN
  0
VERTEX
  8
2
  6
HIDDEN
 10
115.633
 20
25.900
 30
0.000
  0
VERTEX
  8
2
  6
HIDDEN
  10
114.433
  20
25.900
  30
0.000
  0
SEQEND
  0
TEXT
  8
0
 10
5.839 
 20
25.380
 30
0.000
 40
1.456 
  1
300
 50
0.000 
  7
STANDARD
 72
2
 11
9.367 
 21
25.380
 31
0.000
  0
POLYLINE
  8
2
 66
   1
  6
HIDDEN
  0
VERTEX
  8
2
  6
HIDDEN
 10
11.033
 20
33.150
 30
0.000
  0
VERTEX
  8
2
  6
HIDDEN
  10
12.233
  20
33.150
  30
0.000
  0
SEQEND
  0
POLYLINE
  8
2
 66
   1
  6
HIDDEN
  0
VERTEX
  8
2
  6
HIDDEN
 10
115.633
 20
33.150
 30
0.000
  0
VERTEX
  8
2
  6
HIDDEN
  10
114.433
  20
33.150
  30
0.000
  0
SEQEND
  0
TEXT
  8
0
 10
5.839 
 20
32.630
 30
0.000
 40
1.456 
  1
400
 50
0.000 
  7
STANDARD
 72
2
 11
9.367 
 21
32.630
 31
0.000
  0
POLYLINE
  8
2
 66
   1
  6
HIDDEN
  0
VERTEX
  8
2
  6
HIDDEN
 10
11.033
 20
40.400
 30
0.000
  0
VERTEX
  8
2
  6
HIDDEN
  10
12.233
  20
40.400
  30
0.000
  0
SEQEND
  0
POLYLINE
  8
2
 66
   1
  6
HIDDEN
  0
VERTEX
  8
2
  6
HIDDEN
 10
115.633
 20
40.400
 30
0.000
  0
VERTEX
  8
2
  6
HIDDEN
  10
114.433
  20
40.400
  30
0.000
  0
SEQEND
  0
TEXT
  8
0
 10
5.839 
 20
39.880
 30
0.000
 40
1.456 
  1
500
 50
0.000 
  7
STANDARD
 72
2
 11
9.367 
 21
39.880
 31
0.000
  0
POLYLINE
  8
2
 66
   1
  6
HIDDEN
  0
VERTEX
  8
2
  6
HIDDEN
 10
11.033
 20
47.650
 30
0.000
  0
VERTEX
  8
2
  6
HIDDEN
  10
12.233
  20
47.650
  30
0.000
  0
SEQEND
  0
POLYLINE
  8
2
 66
   1
  6
HIDDEN
  0
VERTEX
  8
2
  6
HIDDEN
 10
115.633
 20
47.650
 30
0.000
  0
VERTEX
  8
2
  6
HIDDEN
  10
114.433
  20
47.650
  30
0.000
  0
SEQEND
  0
TEXT
  8
0
 10
5.839 
 20
47.130
 30
0.000
 40
1.456 
  1
600
 50
0.000 
  7
STANDARD
 72
2
 11
9.367 
 21
47.130
 31
0.000
  0
POLYLINE
  8
2
 66
   1
  6
HIDDEN
  0
VERTEX
  8
2
  6
HIDDEN
 10
11.033
 20
54.900
 30
0.000
  0
VERTEX
  8
2
  6
HIDDEN
  10
12.233
  20
54.900
  30
0.000
  0
SEQEND
  0
POLYLINE
  8
2
 66
   1
  6
HIDDEN
  0
VERTEX
  8
2
  6
HIDDEN
 10
115.633
 20
54.900
 30
0.000
  0
VERTEX
  8
2
  6
HIDDEN
  10
114.433
  20
54.900
  30
0.000
  0
SEQEND
  0
TEXT
  8
0
 10
5.839 
 20
54.380
 30
0.000
 40
1.456 
  1
700
 50
0.000 
  7
STANDARD
 72
2
 11
9.367 
 21
54.380
 31
0.000
  0
POLYLINE
  8
2
 66
   1
  6
HIDDEN
  0
VERTEX
  8
2
  6
HIDDEN
 10
11.033
 20
62.167
 30
0.000
  0
VERTEX
  8
2
  6
HIDDEN
  10
12.233
  20
62.167
  30
0.000
  0
SEQEND
  0
POLYLINE
  8
2
 66
   1
  6
HIDDEN
  0
VERTEX
  8
2
  6
HIDDEN
 10
115.633
 20
62.167
 30
0.000
  0
VERTEX
  8
2
  6
HIDDEN
  10
114.433
  20
62.167
  30
0.000
  0
SEQEND
  0
TEXT
  8
0
 10
5.839 
 20
61.647
 30
0.000
 40
1.456 
  1
800
 50
0.000 
  7
STANDARD
 72
2
 11
9.367 
 21
61.647
 31
0.000
  0
POLYLINE
  8
2
 66
   1
  6
HIDDEN
  0
VERTEX
  8
2
  6
HIDDEN
 10
11.033
 20
69.417
 30
0.000
  0
VERTEX
  8
2
  6
HIDDEN
  10
12.233
  20
69.417
  30
0.000
  0
SEQEND
  0
POLYLINE
  8
2
 66
   1
  6
HIDDEN
  0
VERTEX
  8
2
  6
HIDDEN
 10
115.633
 20
69.417
 30
0.000
  0
VERTEX
  8
2
  6
HIDDEN
  10
114.433
  20
69.417
  30
0.000
  0
SEQEND
  0
TEXT
  8
0
 10
5.839 
 20
68.897
 30
0.000
 40
1.456 
  1
900
 50
0.000 
  7
STANDARD
 72
2
 11
9.367 
 21
68.897
 31
0.000
  0
POLYLINE
  8
2
 66
   1
  6
HIDDEN
  0
VERTEX
  8
2
  6
HIDDEN
 10
11.033
 20
76.667
 30
0.000
  0
VERTEX
  8
2
  6
HIDDEN
  10
12.233
  20
76.667
  30
0.000
  0
SEQEND
  0
POLYLINE
  8
2
 66
   1
  6
HIDDEN
  0
VERTEX
  8
2
  6
HIDDEN
 10
115.633
 20
76.667
 30
0.000
  0
VERTEX
  8
2
  6
HIDDEN
  10
114.433
  20
76.667
  30
0.000
  0
SEQEND
  0
TEXT
  8
0
 10
4.663 
 20
76.147
 30
0.000
 40
1.456 
  1
1000
 50
0.000 
  7
STANDARD
 72
2
 11
9.367 
 21
76.147
 31
0.000
  0
POLYLINE
  8
2
 66
   1
  6
HIDDEN
  0
VERTEX
  8
2
  6
HIDDEN
 10
11.033
 20
4.133 
 30
0.000
  0
VERTEX
  8
2
  6
HIDDEN
  10
11.033
  20
4.933 
  30
0.000
  0
SEQEND
  0
POLYLINE
  8
2
 66
   1
  6
HIDDEN
  0
VERTEX
  8
2
  6
HIDDEN
 10
11.033
 20
76.667
 30
0.000
  0
VERTEX
  8
2
  6
HIDDEN
  10
11.033
  20
75.867
  30
0.000
  0
SEQEND
  0
TEXT
  8
0
 10
10.445
 20
1.547 
 30
0.000
 40
1.456 
  1
0
 50
0.000 
  7
STANDARD
 72
1
 11
11.033
 21
1.547 
 31
0.000
  0
POLYLINE
  8
2
 66
   1
  6
HIDDEN
  0
VERTEX
  8
2
  6
HIDDEN
 10
21.500
 20
4.133 
 30
0.000
  0
VERTEX
  8
2
  6
HIDDEN
  10
21.500
  20
4.933 
  30
0.000
  0
SEQEND
  0
POLYLINE
  8
2
 66
   1
  6
HIDDEN
  0
VERTEX
  8
2
  6
HIDDEN
 10
21.500
 20
76.667
 30
0.000
  0
VERTEX
  8
2
  6
HIDDEN
  10
21.500
  20
75.867
  30
0.000
  0
SEQEND
  0
TEXT
  8
0
 10
18.560
 20
1.547 
 30
0.000
 40
1.456 
  1
0.005
 50
0.000 
  7
STANDARD
 72
1
 11
21.500
 21
1.547 
 31
0.000
  0
POLYLINE
  8
2
 66
   1
  6
HIDDEN
  0
VERTEX
  8
2
  6
HIDDEN
 10
31.950
 20
4.133 
 30
0.000
  0
VERTEX
  8
2
  6
HIDDEN
  10
31.950
  20
4.933 
  30
0.000
  0
SEQEND
  0
POLYLINE
  8
2
 66
   1
  6
HIDDEN
  0
VERTEX
  8
2
  6
HIDDEN
 10
31.950
 20
76.667
 30
0.000
  0
VERTEX
  8
2
  6
HIDDEN
  10
31.950
  20
75.867
  30
0.000
  0
SEQEND
  0
TEXT
  8
0
 10
29.598
 20
1.547 
 30
0.000
 40
1.456 
  1
0.01
 50
0.000 
  7
STANDARD
 72
1
 11
31.950
 21
1.547 
 31
0.000
  0
POLYLINE
  8
2
 66
   1
  6
HIDDEN
  0
VERTEX
  8
2
  6
HIDDEN
 10
42.417
 20
4.133 
 30
0.000
  0
VERTEX
  8
2
  6
HIDDEN
  10
42.417
  20
4.933 
  30
0.000
  0
SEQEND
  0
POLYLINE
  8
2
 66
   1
  6
HIDDEN
  0
VERTEX
  8
2
  6
HIDDEN
 10
42.417
 20
76.667
 30
0.000
  0
VERTEX
  8
2
  6
HIDDEN
  10
42.417
  20
75.867
  30
0.000
  0
SEQEND
  0
TEXT
  8
0
 10
39.477
 20
1.547 
 30
0.000
 40
1.456 
  1
0.015
 50
0.000 
  7
STANDARD
 72
1
 11
42.417
 21
1.547 
 31
0.000
  0
POLYLINE
  8
2
 66
   1
  6
HIDDEN
  0
VERTEX
  8
2
  6
HIDDEN
 10
52.867
 20
4.133 
 30
0.000
  0
VERTEX
  8
2
  6
HIDDEN
  10
52.867
  20
4.933 
  30
0.000
  0
SEQEND
  0
POLYLINE
  8
2
 66
   1
  6
HIDDEN
  0
VERTEX
  8
2
  6
HIDDEN
 10
52.867
 20
76.667
 30
0.000
  0
VERTEX
  8
2
  6
HIDDEN
  10
52.867
  20
75.867
  30
0.000
  0
SEQEND
  0
TEXT
  8
0
 10
50.515
 20
1.547 
 30
0.000
 40
1.456 
  1
0.02
 50
0.000 
  7
STANDARD
 72
1
 11
52.867
 21
1.547 
 31
0.000
  0
POLYLINE
  8
2
 66
   1
  6
HIDDEN
  0
VERTEX
  8
2
  6
HIDDEN
 10
63.333
 20
4.133 
 30
0.000
  0
VERTEX
  8
2
  6
HIDDEN
  10
63.333
  20
4.933 
  30
0.000
  0
SEQEND
  0
POLYLINE
  8
2
 66
   1
  6
HIDDEN
  0
VERTEX
  8
2
  6
HIDDEN
 10
63.333
 20
76.667
 30
0.000
  0
VERTEX
  8
2
  6
HIDDEN
  10
63.333
  20
75.867
  30
0.000
  0
SEQEND
  0
TEXT
  8
0
 10
60.393
 20
1.547 
 30
0.000
 40
1.456 
  1
0.025
 50
0.000 
  7
STANDARD
 72
1
 11
63.333
 21
1.547 
 31
0.000
  0
POLYLINE
  8
2
 66
   1
  6
HIDDEN
  0
VERTEX
  8
2
  6
HIDDEN
 10
73.800
 20
4.133 
 30
0.000
  0
VERTEX
  8
2
  6
HIDDEN
  10
73.800
  20
4.933 
  30
0.000
  0
SEQEND
  0
POLYLINE
  8
2
 66
   1
  6
HIDDEN
  0
VERTEX
  8
2
  6
HIDDEN
 10
73.800
 20
76.667
 30
0.000
  0
VERTEX
  8
2
  6
HIDDEN
  10
73.800
  20
75.867
  30
0.000
  0
SEQEND
  0
TEXT
  8
0
 10
71.448
 20
1.547 
 30
0.000
 40
1.456 
  1
0.03
 50
0.000 
  7
STANDARD
 72
1
 11
73.800
 21
1.547 
 31
0.000
  0
POLYLINE
  8
2
 66
   1
  6
HIDDEN
  0
VERTEX
  8
2
  6
HIDDEN
 10
84.250
 20
4.133 
 30
0.000
  0
VERTEX
  8
2
  6
HIDDEN
  10
84.250
  20
4.933 
  30
0.000
  0
SEQEND
  0
POLYLINE
  8
2
 66
   1
  6
HIDDEN
  0
VERTEX
  8
2
  6
HIDDEN
 10
84.250
 20
76.667
 30
0.000
  0
VERTEX
  8
2
  6
HIDDEN
  10
84.250
  20
75.867
  30
0.000
  0
SEQEND
  0
TEXT
  8
0
 10
81.310
 20
1.547 
 30
0.000
 40
1.456 
  1
0.035
 50
0.000 
  7
STANDARD
 72
1
 11
84.250
 21
1.547 
 31
0.000
  0
POLYLINE
  8
2
 66
   1
  6
HIDDEN
  0
VERTEX
  8
2
  6
HIDDEN
 10
94.717
 20
4.133 
 30
0.000
  0
VERTEX
  8
2
  6
HIDDEN
  10
94.717
  20
4.933 
  30
0.000
  0
SEQEND
  0
POLYLINE
  8
2
 66
   1
  6
HIDDEN
  0
VERTEX
  8
2
  6
HIDDEN
 10
94.717
 20
76.667
 30
0.000
  0
VERTEX
  8
2
  6
HIDDEN
  10
94.717
  20
75.867
  30
0.000
  0
SEQEND
  0
TEXT
  8
0
 10
92.365
 20
1.547 
 30
0.000
 40
1.456 
  1
0.04
 50
0.000 
  7
STANDARD
 72
1
 11
94.717
 21
1.547 
 31
0.000
  0
POLYLINE
  8
2
 66
   1
  6
HIDDEN
  0
VERTEX
  8
2
  6
HIDDEN
 10
105.167
 20
4.133 
 30
0.000
  0
VERTEX
  8
2
  6
HIDDEN
  10
105.167
  20
4.933 
  30
0.000
  0
SEQEND
  0
POLYLINE
  8
2
 66
   1
  6
HIDDEN
  0
VERTEX
  8
2
  6
HIDDEN
 10
105.167
 20
76.667
 30
0.000
  0
VERTEX
  8
2
  6
HIDDEN
  10
105.167
  20
75.867
  30
0.000
  0
SEQEND
  0
TEXT
  8
0
 10
102.227
 20
1.547 
 30
0.000
 40
1.456 
  1
0.045
 50
0.000 
  7
STANDARD
 72
1
 11
105.167
 21
1.547 
 31
0.000
  0
POLYLINE
  8
2
 66
   1
  6
HIDDEN
  0
VERTEX
  8
2
  6
HIDDEN
 10
115.633
 20
4.133 
 30
0.000
  0
VERTEX
  8
2
  6
HIDDEN
  10
115.633
  20
4.933 
  30
0.000
  0
SEQEND
  0
POLYLINE
  8
2
 66
   1
  6
HIDDEN
  0
VERTEX
  8
2
  6
HIDDEN
 10
115.633
 20
76.667
 30
0.000
  0
VERTEX
  8
2
  6
HIDDEN
  10
115.633
  20
75.867
  30
0.000
  0
SEQEND
  0
TEXT
  8
0
 10
113.281
 20
1.547 
 30
0.000
 40
1.456 
  1
0.05
 50
0.000 
  7
STANDARD
 72
1
 11
115.633
 21
1.547 
 31
0.000
  0
POLYLINE
  8
2
 66
   1
  6
HIDDEN
  0
VERTEX
  8
2
  6
HIDDEN
 10
11.033
 20
4.133 
 30
0.000
  0
VERTEX
  8
2
  6
HIDDEN
  10
115.633
  20
4.133 
  30
0.000
  0
VERTEX
  8
2
  6
HIDDEN
  10
115.633
  20
76.667
  30
0.000
  0
VERTEX
  8
2
  6
HIDDEN
  10
11.033
  20
76.667
  30
0.000
  0
VERTEX
  8
2
  6
HIDDEN
  10
11.033
  20
4.133 
  30
0.000
  0
SEQEND
  0
POLYLINE
  8
0
 66
   1
  6
CONTINUOUS
  0
VERTEX
  8
0
  6
CONTINUOUS
 10
14.383
 20
9.233 
 30
0.000
  0
VERTEX
  8
0
  6
CONTINUOUS
  10
14.383
  20
9.233 
  30
0.000
  0
VERTEX
  8
0
  6
CONTINUOUS
  10
26.267
  20
26.050
  30
0.000
  0
VERTEX
  8
0
  6
CONTINUOUS
  10
30.133
  20
29.600
  30
0.000
  0
VERTEX
  8
0
  6
CONTINUOUS
  10
40.683
  20
40.083
  30
0.000
  0
VERTEX
  8
0
  6
CONTINUOUS
  10
52.733
  20
51.033
  30
0.000
  0
VERTEX
  8
0
  6
CONTINUOUS
  10
53.333
  20
51.600
  30
0.000
  0
VERTEX
  8
0
  6
CONTINUOUS
  10
61.267
  20
58.367
  30
0.000
  0
VERTEX
  8
0
  6
CONTINUOUS
  10
68.767
  20
65.867
  30
0.000
  0
VERTEX
  8
0
  6
CONTINUOUS
  10
69.400
  20
66.033
  30
0.000
  0
VERTEX
  8
0
  6
CONTINUOUS
  10
73.367
  20
69.733
  30
0.000
  0
SEQEND
  0
ENDSEC
  0
EOF
